M48
;DRILL file {KiCad (5.0.0-rc2-dev-311-g1dd4af297)} date 06/08/18 08:54:16
;FORMAT={-:-/ absolute / inch / decimal}
FMAT,2
INCH,TZ
T1C0.0197
T2C0.0394
T3C0.0400
T4C0.0433
T5C0.0472
T6C0.0551
T7C0.0630
T8C0.0906
T9C0.0984
T10C0.1102
%
G90
G05
M72
T1
X0.2084Y-0.8604
X0.5691Y-1.3716
X0.5716Y-2.8983
X0.683Y-0.821
X1.25Y-1.0058
X1.4534Y-1.3268
T2
X0.911Y-0.7386
X1.011Y-0.7386
X1.111Y-0.7386
X1.211Y-0.7386
T3
X0.221Y-0.657
X0.621Y-0.157
X0.221Y-0.557
X0.221Y-0.157
X0.221Y-0.257
X0.321Y-0.157
X0.321Y-0.257
X0.421Y-0.157
X0.421Y-0.257
X0.521Y-0.157
X0.521Y-0.257
X0.621Y-0.257
X0.321Y-0.557
X0.321Y-0.657
X0.421Y-0.557
X0.421Y-0.657
X0.521Y-0.557
X0.521Y-0.657
X0.621Y-0.557
X0.621Y-0.657
T4
X1.0357Y-4.4333
X1.0357Y-4.5333
X1.0357Y-4.6333
X1.0357Y-4.7333
X1.0357Y-4.8333
X1.0357Y-4.9333
X1.0357Y-5.0333
X1.0357Y-5.1333
X1.2357Y-4.4833
X1.2357Y-4.5833
X1.2357Y-4.6833
X1.2357Y-4.7833
X1.2357Y-4.8833
X1.2357Y-4.9833
X1.2357Y-5.0833
T5
X0.6496Y-3.2
X0.9449Y-3.2
X0.5043Y-1.6929
X0.7043Y-1.6929
T6
X0.9752Y-3.8051
X1.15Y-4.1803
X1.3645Y-2.5226
X0.9752Y-5.2618
X1.15Y-5.637
X1.148Y-2.3573
X1.148Y-2.5226
X1.3645Y-2.3573
T7
X0.7043Y-1.5429
X0.7043Y-1.8429
X1.2165Y-3.5627
X1.2165Y-2.9721
T8
X1.1041Y-0.073
X1.1041Y-0.5903
T9
X1.4767Y-4.0846
X1.4767Y-5.4823
T10
X1.2165Y-2.7713
X1.2165Y-3.1729
X1.2165Y-3.3619
X1.2165Y-3.7635
X1.4173Y-3.5627
X1.4173Y-2.9721
T0
M30
