G04 #@! TF.GenerationSoftware,KiCad,Pcbnew,(5.0.0-rc2-dev-311-g1dd4af297)*
G04 #@! TF.CreationDate,2018-06-08T08:48:50+02:00*
G04 #@! TF.ProjectId,resetUSB,72657365745553422E6B696361645F70,1.0*
G04 #@! TF.SameCoordinates,PX6ad8e7cPY2bcdfd4*
G04 #@! TF.FileFunction,Paste,Top*
G04 #@! TF.FilePolarity,Positive*
%FSLAX46Y46*%
G04 Gerber Fmt 4.6, Leading zero omitted, Abs format (unit mm)*
G04 Created by KiCad (PCBNEW (5.0.0-rc2-dev-311-g1dd4af297)) date 06/08/18 08:48:50*
%MOMM*%
%LPD*%
G01*
G04 APERTURE LIST*
%ADD10C,0.200000*%
%ADD11R,0.800000X0.750000*%
%ADD12R,0.500000X0.900000*%
%ADD13R,1.600000X3.000000*%
%ADD14R,0.900000X0.500000*%
%ADD15R,3.500000X1.600000*%
%ADD16R,3.000000X0.700000*%
%ADD17R,6.040000X3.400000*%
%ADD18R,1.800000X2.500000*%
%ADD19R,0.800000X0.900000*%
%ADD20R,1.550000X0.600000*%
%ADD21R,0.800000X0.800000*%
%ADD22R,0.600000X1.200000*%
%ADD23R,1.200000X0.600000*%
%ADD24R,3.000000X1.000000*%
%ADD25R,0.750000X0.800000*%
%ADD26R,2.000000X1.500000*%
%ADD27R,2.000000X3.800000*%
%ADD28R,1.600000X2.180000*%
%ADD29C,0.500000*%
%ADD30C,0.100000*%
%ADD31R,0.700000X0.600000*%
%ADD32R,0.510000X0.700000*%
G04 APERTURE END LIST*
D10*
X0Y0D02*
X0Y-153000000D01*
X40000000Y0D02*
X0Y0D01*
X40000000Y-153000000D02*
X40000000Y0D01*
X0Y-153000000D02*
X40000000Y-153000000D01*
D11*
X22234000Y-123775500D03*
X23734000Y-123775500D03*
D12*
X17384000Y-123779000D03*
X15884000Y-123779000D03*
D13*
X10160000Y-117180000D03*
X10160000Y-121580000D03*
D14*
X13970000Y-122416000D03*
X13970000Y-120916000D03*
D15*
X17704000Y-119457500D03*
X23104000Y-119457500D03*
D14*
X19174000Y-113631000D03*
X19174000Y-115131000D03*
X19174000Y-125291000D03*
X19174000Y-123791000D03*
D11*
X23734000Y-113553000D03*
X22234000Y-113553000D03*
X22222000Y-115143000D03*
X23722000Y-115143000D03*
X23734000Y-125491000D03*
X22234000Y-125491000D03*
D12*
X17384000Y-115143000D03*
X15884000Y-115143000D03*
D16*
X12000000Y-74875000D03*
X12000000Y-71125000D03*
X12000000Y-73625000D03*
X12000000Y-72375000D03*
D17*
X5580000Y-79800000D03*
X5580000Y-66200000D03*
D18*
X21775500Y-42545700D03*
X21775500Y-46545700D03*
X25458500Y-46545700D03*
X25458500Y-42545700D03*
X21775500Y-54292700D03*
X21775500Y-50292700D03*
D19*
X26566000Y-39451500D03*
X25616000Y-37451500D03*
X27516000Y-37451500D03*
X30249000Y-39451500D03*
X29299000Y-37451500D03*
X31199000Y-37451500D03*
D18*
X25458500Y-50292700D03*
X25458500Y-54292700D03*
D20*
X28486200Y-45849100D03*
X28486200Y-44579100D03*
X28486200Y-43309100D03*
X28486200Y-42039100D03*
X33886200Y-42039100D03*
X33886200Y-43309100D03*
X33886200Y-44579100D03*
X33886200Y-45849100D03*
X28486200Y-53469100D03*
X28486200Y-52199100D03*
X28486200Y-50929100D03*
X28486200Y-49659100D03*
X33886200Y-49659100D03*
X33886200Y-50929100D03*
X33886200Y-52199100D03*
X33886200Y-53469100D03*
D12*
X30198500Y-47879000D03*
X31698500Y-47879000D03*
X32320800Y-40309800D03*
X33820800Y-40309800D03*
D21*
X36360000Y-55413500D03*
X34760000Y-55413500D03*
D12*
X33262000Y-55372000D03*
X31762000Y-55372000D03*
X29309500Y-32939500D03*
X30809500Y-32939500D03*
D22*
X7292772Y-25091143D03*
X8092772Y-25091143D03*
X8892772Y-25091143D03*
X9692772Y-25091143D03*
X10492772Y-25091143D03*
X11292772Y-25091143D03*
X12092772Y-25091143D03*
X12892772Y-25091143D03*
D23*
X14342772Y-26541143D03*
X14342772Y-27341143D03*
X14342772Y-28141143D03*
X14342772Y-28941143D03*
X14342772Y-29741143D03*
X14342772Y-30541143D03*
X14342772Y-31341143D03*
X14342772Y-32141143D03*
D22*
X12892772Y-33591143D03*
X12092772Y-33591143D03*
X11292772Y-33591143D03*
X10492772Y-33591143D03*
X9692772Y-33591143D03*
X8892772Y-33591143D03*
X8092772Y-33591143D03*
X7292772Y-33591143D03*
D23*
X5842772Y-32141143D03*
X5842772Y-31341143D03*
X5842772Y-30541143D03*
X5842772Y-29741143D03*
X5842772Y-28941143D03*
X5842772Y-28141143D03*
X5842772Y-27341143D03*
X5842772Y-26541143D03*
D12*
X7937876Y-23392702D03*
X6437876Y-23392702D03*
D11*
X4403631Y-25120423D03*
X5903631Y-25120423D03*
X7949876Y-21868702D03*
X6449876Y-21868702D03*
D24*
X23833500Y-11923500D03*
X23833500Y-9423500D03*
X23833500Y-4923500D03*
X23833500Y-7423500D03*
D25*
X31748859Y-22257541D03*
X31748859Y-23757541D03*
D13*
X19380800Y-21742600D03*
X19380800Y-26142600D03*
D26*
X29818859Y-26577541D03*
X29818859Y-21977541D03*
X29818859Y-24277541D03*
D27*
X23518859Y-24277541D03*
D28*
X36856000Y-23951000D03*
X36856000Y-31351000D03*
D11*
X15922627Y-33580956D03*
X14422627Y-33580956D03*
D29*
X23879670Y-27882670D03*
D30*
G36*
X24374645Y-27741249D02*
X23738249Y-28377645D01*
X23384695Y-28024091D01*
X24021091Y-27387695D01*
X24374645Y-27741249D01*
X24374645Y-27741249D01*
G37*
D29*
X24940330Y-28943330D03*
D30*
G36*
X25435305Y-28801909D02*
X24798909Y-29438305D01*
X24445355Y-29084751D01*
X25081751Y-28448355D01*
X25435305Y-28801909D01*
X25435305Y-28801909D01*
G37*
D31*
X3596000Y-28691000D03*
X3596000Y-27291000D03*
D21*
X38225500Y-46020500D03*
X36625500Y-46020500D03*
X38225500Y-43480500D03*
X36625500Y-43480500D03*
X38225500Y-40940500D03*
X36625500Y-40940500D03*
D14*
X37872000Y-19511000D03*
X37872000Y-18011000D03*
D32*
X34216900Y-17564300D03*
X35166900Y-17564300D03*
X36116900Y-17564300D03*
X36116900Y-19884300D03*
X35166900Y-19884300D03*
X34216900Y-19884300D03*
D12*
X29309500Y-34463500D03*
X30809500Y-34463500D03*
X29309500Y-31415500D03*
X30809500Y-31415500D03*
D14*
X4114800Y-33717800D03*
X4114800Y-35217800D03*
X5765800Y-33717800D03*
X5765800Y-35217800D03*
M02*
