G04 #@! TF.GenerationSoftware,KiCad,Pcbnew,(5.0.0-rc2-dev-586-g888c43477)*
G04 #@! TF.CreationDate,2018-06-27T13:15:06+02:00*
G04 #@! TF.ProjectId,resetUSB,72657365745553422E6B696361645F70,1.0*
G04 #@! TF.SameCoordinates,PX6ad8e7cPY2bcdfd4*
G04 #@! TF.FileFunction,Soldermask,Top*
G04 #@! TF.FilePolarity,Negative*
%FSLAX46Y46*%
G04 Gerber Fmt 4.6, Leading zero omitted, Abs format (unit mm)*
G04 Created by KiCad (PCBNEW (5.0.0-rc2-dev-586-g888c43477)) date 06/27/18 13:15:06*
%MOMM*%
%LPD*%
G01*
G04 APERTURE LIST*
%ADD10C,0.150000*%
%ADD11C,0.200000*%
%ADD12C,3.700000*%
%ADD13C,2.600000*%
%ADD14R,2.600000X2.600000*%
%ADD15C,1.800000*%
%ADD16C,2.400000*%
%ADD17C,2.800000*%
%ADD18R,3.200000X0.900000*%
%ADD19R,6.240000X3.600000*%
%ADD20C,1.600000*%
%ADD21O,1.927200X1.927200*%
%ADD22R,1.927200X1.927200*%
%ADD23R,2.700000X4.200000*%
%ADD24R,0.800000X1.750000*%
%ADD25R,3.100000X5.600000*%
%ADD26R,2.000000X2.700000*%
%ADD27R,0.700000X1.100000*%
%ADD28C,4.200000*%
%ADD29C,3.200000*%
%ADD30R,3.700000X1.800000*%
%ADD31R,1.100000X0.700000*%
%ADD32R,1.800000X3.200000*%
%ADD33R,1.000000X0.950000*%
%ADD34C,3.000000*%
%ADD35R,3.000000X3.000000*%
%ADD36R,1.000000X1.100000*%
%ADD37R,1.750000X0.800000*%
%ADD38R,1.000000X1.000000*%
%ADD39R,0.800000X1.400000*%
%ADD40R,1.400000X0.800000*%
%ADD41R,3.200000X1.200000*%
%ADD42C,3.400000*%
%ADD43R,0.950000X1.000000*%
%ADD44R,2.200000X1.700000*%
%ADD45R,2.200000X4.000000*%
%ADD46R,1.800000X2.380000*%
%ADD47C,0.700000*%
%ADD48C,0.100000*%
%ADD49R,0.900000X0.800000*%
%ADD50R,0.710000X0.900000*%
%ADD51R,2.700000X2.500000*%
%ADD52R,1.900000X1.900000*%
%ADD53O,1.900000X1.900000*%
%ADD54C,1.500000*%
G04 APERTURE END LIST*
D10*
X40000000Y-158000000D02*
X40000000Y0D01*
X0Y-158000000D02*
X40000000Y-158000000D01*
D11*
X0Y0D02*
X0Y-158000000D01*
X40000000Y0D02*
X0Y0D01*
D12*
X37444500Y-108750000D03*
X37444500Y-144250000D03*
D13*
X16376000Y-87392000D03*
D14*
X23876000Y-87392000D03*
D15*
X3820000Y-46810000D03*
X8900000Y-39190000D03*
D16*
X12710000Y-43000000D03*
X17790000Y-43000000D03*
D17*
X17790000Y-46810000D03*
X17790000Y-39190000D03*
D18*
X12000000Y-79875000D03*
X12000000Y-76125000D03*
X12000000Y-78625000D03*
X12000000Y-77375000D03*
D19*
X5580000Y-84800000D03*
X5580000Y-71200000D03*
D20*
X5000000Y-80750000D03*
X5000000Y-75250000D03*
D21*
X5588000Y-16764000D03*
X5588000Y-14224000D03*
X8128000Y-16764000D03*
X8128000Y-14224000D03*
X10668000Y-16764000D03*
X10668000Y-14224000D03*
X13208000Y-16764000D03*
X13208000Y-14224000D03*
X15748000Y-16764000D03*
D22*
X15748000Y-14224000D03*
D21*
X5588000Y-6604000D03*
X5588000Y-4064000D03*
X8128000Y-6604000D03*
X8128000Y-4064000D03*
X10668000Y-6604000D03*
X10668000Y-4064000D03*
X13208000Y-6604000D03*
X13208000Y-4064000D03*
X15748000Y-6604000D03*
D22*
X15748000Y-4064000D03*
D23*
X5842000Y-56960000D03*
X5842000Y-64960000D03*
D24*
X16637000Y-72804000D03*
X15367000Y-72804000D03*
X14097000Y-72804000D03*
X12827000Y-72804000D03*
X12827000Y-67404000D03*
X14097000Y-67404000D03*
X15367000Y-67404000D03*
X16637000Y-67404000D03*
D25*
X12830000Y-59817000D03*
X22730000Y-59817000D03*
D26*
X26416000Y-54769000D03*
X26416000Y-58769000D03*
D23*
X23114000Y-76898000D03*
X23114000Y-68898000D03*
D27*
X17411000Y-32258000D03*
X18911000Y-32258000D03*
D28*
X35936500Y-80492000D03*
D29*
X30836500Y-80492000D03*
D28*
X30836500Y-85592000D03*
X30836500Y-75392000D03*
D27*
X17320500Y-128779000D03*
X15820500Y-128779000D03*
D30*
X17640500Y-124457500D03*
X23040500Y-124457500D03*
D31*
X19110500Y-118631000D03*
X19110500Y-120131000D03*
D28*
X30836500Y-90392000D03*
X30836500Y-100592000D03*
D29*
X30836500Y-95492000D03*
D28*
X35936500Y-95492000D03*
D32*
X10096500Y-122180000D03*
X10096500Y-126580000D03*
D31*
X19110500Y-130291000D03*
X19110500Y-128791000D03*
D33*
X22170500Y-128775500D03*
X23670500Y-128775500D03*
X22158500Y-120143000D03*
X23658500Y-120143000D03*
X23670500Y-118553000D03*
X22170500Y-118553000D03*
X23670500Y-130491000D03*
X22170500Y-130491000D03*
D27*
X17320500Y-120143000D03*
X15820500Y-120143000D03*
D15*
X26244500Y-135385000D03*
X26244500Y-132845000D03*
X26244500Y-130305000D03*
X26244500Y-127765000D03*
X26244500Y-125225000D03*
X26244500Y-122685000D03*
X26244500Y-120145000D03*
X26244500Y-117605000D03*
X31324500Y-134115000D03*
X31324500Y-131575000D03*
X31324500Y-129035000D03*
X31324500Y-118875000D03*
X31324500Y-121415000D03*
X31324500Y-123955000D03*
X31324500Y-126495000D03*
D31*
X13906500Y-127416000D03*
X13906500Y-125916000D03*
D16*
X24706500Y-101650000D03*
X29146500Y-111180000D03*
X24706500Y-138650000D03*
X29146500Y-148180000D03*
D34*
X31076000Y-65414000D03*
X31076000Y-61214000D03*
X36576000Y-65414000D03*
D35*
X36576000Y-61214000D03*
D26*
X21775500Y-39878700D03*
X21775500Y-43878700D03*
X25458500Y-43878700D03*
X25458500Y-39878700D03*
X21775500Y-51625700D03*
X21775500Y-47625700D03*
D36*
X26566000Y-36784500D03*
X25616000Y-34784500D03*
X27516000Y-34784500D03*
X30249000Y-36784500D03*
X29299000Y-34784500D03*
X31199000Y-34784500D03*
D26*
X25458500Y-47625700D03*
X25458500Y-51625700D03*
D37*
X28486200Y-43182100D03*
X28486200Y-41912100D03*
X28486200Y-40642100D03*
X28486200Y-39372100D03*
X33886200Y-39372100D03*
X33886200Y-40642100D03*
X33886200Y-41912100D03*
X33886200Y-43182100D03*
X28486200Y-50802100D03*
X28486200Y-49532100D03*
X28486200Y-48262100D03*
X28486200Y-46992100D03*
X33886200Y-46992100D03*
X33886200Y-48262100D03*
X33886200Y-49532100D03*
X33886200Y-50802100D03*
D27*
X30198500Y-45212000D03*
X31698500Y-45212000D03*
X32320800Y-37642800D03*
X33820800Y-37642800D03*
D38*
X36360000Y-52746500D03*
X34760000Y-52746500D03*
D27*
X33262000Y-52705000D03*
X31762000Y-52705000D03*
X18173000Y-33782000D03*
X19673000Y-33782000D03*
D39*
X7292772Y-25091143D03*
X8092772Y-25091143D03*
X8892772Y-25091143D03*
X9692772Y-25091143D03*
X10492772Y-25091143D03*
X11292772Y-25091143D03*
X12092772Y-25091143D03*
X12892772Y-25091143D03*
D40*
X14342772Y-26541143D03*
X14342772Y-27341143D03*
X14342772Y-28141143D03*
X14342772Y-28941143D03*
X14342772Y-29741143D03*
X14342772Y-30541143D03*
X14342772Y-31341143D03*
X14342772Y-32141143D03*
D39*
X12892772Y-33591143D03*
X12092772Y-33591143D03*
X11292772Y-33591143D03*
X10492772Y-33591143D03*
X9692772Y-33591143D03*
X8892772Y-33591143D03*
X8092772Y-33591143D03*
X7292772Y-33591143D03*
D40*
X5842772Y-32141143D03*
X5842772Y-31341143D03*
X5842772Y-30541143D03*
X5842772Y-29741143D03*
X5842772Y-28941143D03*
X5842772Y-28141143D03*
X5842772Y-27341143D03*
X5842772Y-26541143D03*
D27*
X7937876Y-23392702D03*
X6437876Y-23392702D03*
D33*
X7949876Y-21868702D03*
X6449876Y-21868702D03*
D41*
X23833500Y-11923500D03*
X23833500Y-9423500D03*
X23833500Y-4923500D03*
X23833500Y-7423500D03*
D42*
X28043500Y-1853500D03*
X28043500Y-14993500D03*
D43*
X31748859Y-22257541D03*
X31748859Y-23757541D03*
D32*
X19380800Y-21742600D03*
X19380800Y-26142600D03*
D44*
X29818859Y-26577541D03*
X29818859Y-21977541D03*
X29818859Y-24277541D03*
D45*
X23518859Y-24277541D03*
D46*
X36856000Y-23951000D03*
X36856000Y-31351000D03*
D47*
X23879670Y-27882670D03*
D48*
G36*
X24516066Y-27741249D02*
X23738249Y-28519066D01*
X23243274Y-28024091D01*
X24021091Y-27246274D01*
X24516066Y-27741249D01*
X24516066Y-27741249D01*
G37*
D47*
X24940330Y-28943330D03*
D48*
G36*
X25576726Y-28801909D02*
X24798909Y-29579726D01*
X24303934Y-29084751D01*
X25081751Y-28306934D01*
X25576726Y-28801909D01*
X25576726Y-28801909D01*
G37*
D49*
X3596000Y-28691000D03*
X3596000Y-27291000D03*
D38*
X38733500Y-46020500D03*
X37133500Y-46020500D03*
X38733500Y-40940500D03*
X37133500Y-40940500D03*
D31*
X37872000Y-19511000D03*
X37872000Y-18011000D03*
D50*
X34216900Y-17564300D03*
X35166900Y-17564300D03*
X36116900Y-17564300D03*
X36116900Y-19884300D03*
X35166900Y-19884300D03*
X34216900Y-19884300D03*
D27*
X18935000Y-35306000D03*
X20435000Y-35306000D03*
D31*
X5765800Y-33717800D03*
X5765800Y-35217800D03*
D33*
X4406200Y-25095200D03*
X5906200Y-25095200D03*
X14439200Y-33578800D03*
X15939200Y-33578800D03*
X9664000Y-67818000D03*
X11164000Y-67818000D03*
D38*
X37122200Y-43434000D03*
X38722200Y-43434000D03*
D51*
X31632000Y-55880000D03*
X35932000Y-55880000D03*
D52*
X23114000Y-18796000D03*
D53*
X25654000Y-18796000D03*
X28194000Y-18796000D03*
X30734000Y-18796000D03*
D31*
X4089400Y-35217800D03*
X4089400Y-33717800D03*
D43*
X18288000Y-68314000D03*
X18288000Y-66814000D03*
D54*
X17018000Y-70866000D03*
X15748000Y-70866000D03*
X14478000Y-70866000D03*
X13208000Y-70866000D03*
X28321000Y-54737000D03*
X5410200Y-23393400D03*
X14454500Y-78618000D03*
X36917498Y-33701500D03*
X17348800Y-20853600D03*
X31748859Y-25547541D03*
X14454207Y-34838191D03*
X17018000Y-74676000D03*
X15748000Y-74676000D03*
M02*
