G04 #@! TF.GenerationSoftware,KiCad,Pcbnew,(5.0.0-rc2-dev-586-g888c43477)*
G04 #@! TF.CreationDate,2018-06-27T13:15:06+02:00*
G04 #@! TF.ProjectId,resetUSB,72657365745553422E6B696361645F70,1.0*
G04 #@! TF.SameCoordinates,PX6ad8e7cPY2bcdfd4*
G04 #@! TF.FileFunction,Copper,L1,Top,Signal*
G04 #@! TF.FilePolarity,Positive*
%FSLAX46Y46*%
G04 Gerber Fmt 4.6, Leading zero omitted, Abs format (unit mm)*
G04 Created by KiCad (PCBNEW (5.0.0-rc2-dev-586-g888c43477)) date 06/27/18 13:15:06*
%MOMM*%
%LPD*%
G01*
G04 APERTURE LIST*
%ADD10C,0.150000*%
%ADD11C,0.200000*%
%ADD12C,3.500000*%
%ADD13C,2.400000*%
%ADD14R,2.400000X2.400000*%
%ADD15C,2.200000*%
%ADD16C,2.600000*%
%ADD17R,3.000000X0.700000*%
%ADD18R,6.040000X3.400000*%
%ADD19O,1.727200X1.727200*%
%ADD20R,1.727200X1.727200*%
%ADD21R,2.500000X4.000000*%
%ADD22R,0.600000X1.550000*%
%ADD23R,2.900000X5.400000*%
%ADD24R,1.800000X2.500000*%
%ADD25R,0.500000X0.900000*%
%ADD26C,4.000000*%
%ADD27C,3.000000*%
%ADD28R,3.500000X1.600000*%
%ADD29R,0.900000X0.500000*%
%ADD30R,1.600000X3.000000*%
%ADD31R,0.800000X0.750000*%
%ADD32C,1.600000*%
%ADD33C,2.800000*%
%ADD34R,2.800000X2.800000*%
%ADD35R,0.800000X0.900000*%
%ADD36R,1.550000X0.600000*%
%ADD37R,0.800000X0.800000*%
%ADD38R,0.600000X1.200000*%
%ADD39R,1.200000X0.600000*%
%ADD40R,3.000000X1.000000*%
%ADD41C,3.200000*%
%ADD42R,0.750000X0.800000*%
%ADD43R,2.000000X1.500000*%
%ADD44R,2.000000X3.800000*%
%ADD45R,1.600000X2.180000*%
%ADD46C,0.500000*%
%ADD47C,0.100000*%
%ADD48R,0.700000X0.600000*%
%ADD49R,0.510000X0.700000*%
%ADD50R,2.500000X2.300000*%
%ADD51R,1.700000X1.700000*%
%ADD52O,1.700000X1.700000*%
%ADD53C,1.300000*%
%ADD54C,1.800000*%
%ADD55C,0.300000*%
%ADD56C,0.250000*%
%ADD57C,0.750000*%
%ADD58C,0.600000*%
%ADD59C,0.254000*%
G04 APERTURE END LIST*
D10*
X40000000Y-158000000D02*
X40000000Y0D01*
X0Y-158000000D02*
X40000000Y-158000000D01*
D11*
X0Y0D02*
X0Y-158000000D01*
X40000000Y0D02*
X0Y0D01*
D12*
X37444500Y-108750000D03*
X37444500Y-144250000D03*
D13*
X16376000Y-87392000D03*
D14*
X23876000Y-87392000D03*
D15*
X12710000Y-43000000D03*
X17790000Y-43000000D03*
D16*
X17790000Y-46810000D03*
X17790000Y-39190000D03*
D17*
X12000000Y-79875000D03*
X12000000Y-76125000D03*
X12000000Y-78625000D03*
X12000000Y-77375000D03*
D18*
X5580000Y-84800000D03*
X5580000Y-71200000D03*
D19*
X5588000Y-16764000D03*
X5588000Y-14224000D03*
X8128000Y-16764000D03*
X8128000Y-14224000D03*
X10668000Y-16764000D03*
X10668000Y-14224000D03*
X13208000Y-16764000D03*
X13208000Y-14224000D03*
X15748000Y-16764000D03*
D20*
X15748000Y-14224000D03*
D19*
X5588000Y-6604000D03*
X5588000Y-4064000D03*
X8128000Y-6604000D03*
X8128000Y-4064000D03*
X10668000Y-6604000D03*
X10668000Y-4064000D03*
X13208000Y-6604000D03*
X13208000Y-4064000D03*
X15748000Y-6604000D03*
D20*
X15748000Y-4064000D03*
D21*
X5842000Y-56960000D03*
X5842000Y-64960000D03*
D22*
X16637000Y-72804000D03*
X15367000Y-72804000D03*
X14097000Y-72804000D03*
X12827000Y-72804000D03*
X12827000Y-67404000D03*
X14097000Y-67404000D03*
X15367000Y-67404000D03*
X16637000Y-67404000D03*
D23*
X12830000Y-59817000D03*
X22730000Y-59817000D03*
D24*
X26416000Y-54769000D03*
X26416000Y-58769000D03*
D21*
X23114000Y-76898000D03*
X23114000Y-68898000D03*
D25*
X17411000Y-32258000D03*
X18911000Y-32258000D03*
D26*
X35936500Y-80492000D03*
D27*
X30836500Y-80492000D03*
D26*
X30836500Y-85592000D03*
X30836500Y-75392000D03*
D25*
X17320500Y-128779000D03*
X15820500Y-128779000D03*
D28*
X17640500Y-124457500D03*
X23040500Y-124457500D03*
D29*
X19110500Y-118631000D03*
X19110500Y-120131000D03*
D26*
X30836500Y-90392000D03*
X30836500Y-100592000D03*
D27*
X30836500Y-95492000D03*
D26*
X35936500Y-95492000D03*
D30*
X10096500Y-122180000D03*
X10096500Y-126580000D03*
D29*
X19110500Y-130291000D03*
X19110500Y-128791000D03*
D31*
X22170500Y-128775500D03*
X23670500Y-128775500D03*
X22158500Y-120143000D03*
X23658500Y-120143000D03*
X23670500Y-118553000D03*
X22170500Y-118553000D03*
X23670500Y-130491000D03*
X22170500Y-130491000D03*
D25*
X17320500Y-120143000D03*
X15820500Y-120143000D03*
D32*
X26244500Y-135385000D03*
X26244500Y-132845000D03*
X26244500Y-130305000D03*
X26244500Y-127765000D03*
X26244500Y-125225000D03*
X26244500Y-122685000D03*
X26244500Y-120145000D03*
X26244500Y-117605000D03*
X31324500Y-134115000D03*
X31324500Y-131575000D03*
X31324500Y-129035000D03*
X31324500Y-118875000D03*
X31324500Y-121415000D03*
X31324500Y-123955000D03*
X31324500Y-126495000D03*
D29*
X13906500Y-127416000D03*
X13906500Y-125916000D03*
D15*
X24706500Y-101650000D03*
X29146500Y-111180000D03*
X24706500Y-138650000D03*
X29146500Y-148180000D03*
D33*
X31076000Y-65414000D03*
X31076000Y-61214000D03*
X36576000Y-65414000D03*
D34*
X36576000Y-61214000D03*
D24*
X21775500Y-39878700D03*
X21775500Y-43878700D03*
X25458500Y-43878700D03*
X25458500Y-39878700D03*
X21775500Y-51625700D03*
X21775500Y-47625700D03*
D35*
X26566000Y-36784500D03*
X25616000Y-34784500D03*
X27516000Y-34784500D03*
X30249000Y-36784500D03*
X29299000Y-34784500D03*
X31199000Y-34784500D03*
D24*
X25458500Y-47625700D03*
X25458500Y-51625700D03*
D36*
X28486200Y-43182100D03*
X28486200Y-41912100D03*
X28486200Y-40642100D03*
X28486200Y-39372100D03*
X33886200Y-39372100D03*
X33886200Y-40642100D03*
X33886200Y-41912100D03*
X33886200Y-43182100D03*
X28486200Y-50802100D03*
X28486200Y-49532100D03*
X28486200Y-48262100D03*
X28486200Y-46992100D03*
X33886200Y-46992100D03*
X33886200Y-48262100D03*
X33886200Y-49532100D03*
X33886200Y-50802100D03*
D25*
X30198500Y-45212000D03*
X31698500Y-45212000D03*
X32320800Y-37642800D03*
X33820800Y-37642800D03*
D37*
X36360000Y-52746500D03*
X34760000Y-52746500D03*
D25*
X33262000Y-52705000D03*
X31762000Y-52705000D03*
X18173000Y-33782000D03*
X19673000Y-33782000D03*
D38*
X7292772Y-25091143D03*
X8092772Y-25091143D03*
X8892772Y-25091143D03*
X9692772Y-25091143D03*
X10492772Y-25091143D03*
X11292772Y-25091143D03*
X12092772Y-25091143D03*
X12892772Y-25091143D03*
D39*
X14342772Y-26541143D03*
X14342772Y-27341143D03*
X14342772Y-28141143D03*
X14342772Y-28941143D03*
X14342772Y-29741143D03*
X14342772Y-30541143D03*
X14342772Y-31341143D03*
X14342772Y-32141143D03*
D38*
X12892772Y-33591143D03*
X12092772Y-33591143D03*
X11292772Y-33591143D03*
X10492772Y-33591143D03*
X9692772Y-33591143D03*
X8892772Y-33591143D03*
X8092772Y-33591143D03*
X7292772Y-33591143D03*
D39*
X5842772Y-32141143D03*
X5842772Y-31341143D03*
X5842772Y-30541143D03*
X5842772Y-29741143D03*
X5842772Y-28941143D03*
X5842772Y-28141143D03*
X5842772Y-27341143D03*
X5842772Y-26541143D03*
D25*
X7937876Y-23392702D03*
X6437876Y-23392702D03*
D31*
X7949876Y-21868702D03*
X6449876Y-21868702D03*
D40*
X23833500Y-11923500D03*
X23833500Y-9423500D03*
X23833500Y-4923500D03*
X23833500Y-7423500D03*
D41*
X28043500Y-1853500D03*
X28043500Y-14993500D03*
D42*
X31748859Y-22257541D03*
X31748859Y-23757541D03*
D30*
X19380800Y-21742600D03*
X19380800Y-26142600D03*
D43*
X29818859Y-26577541D03*
X29818859Y-21977541D03*
X29818859Y-24277541D03*
D44*
X23518859Y-24277541D03*
D45*
X36856000Y-23951000D03*
X36856000Y-31351000D03*
D46*
X23879670Y-27882670D03*
D47*
G36*
X24374645Y-27741249D02*
X23738249Y-28377645D01*
X23384695Y-28024091D01*
X24021091Y-27387695D01*
X24374645Y-27741249D01*
X24374645Y-27741249D01*
G37*
D46*
X24940330Y-28943330D03*
D47*
G36*
X25435305Y-28801909D02*
X24798909Y-29438305D01*
X24445355Y-29084751D01*
X25081751Y-28448355D01*
X25435305Y-28801909D01*
X25435305Y-28801909D01*
G37*
D48*
X3596000Y-28691000D03*
X3596000Y-27291000D03*
D37*
X38733500Y-46020500D03*
X37133500Y-46020500D03*
X38733500Y-40940500D03*
X37133500Y-40940500D03*
D29*
X37872000Y-19511000D03*
X37872000Y-18011000D03*
D49*
X34216900Y-17564300D03*
X35166900Y-17564300D03*
X36116900Y-17564300D03*
X36116900Y-19884300D03*
X35166900Y-19884300D03*
X34216900Y-19884300D03*
D25*
X18935000Y-35306000D03*
X20435000Y-35306000D03*
D29*
X5765800Y-33717800D03*
X5765800Y-35217800D03*
D31*
X4406200Y-25095200D03*
X5906200Y-25095200D03*
X14439200Y-33578800D03*
X15939200Y-33578800D03*
X9664000Y-67818000D03*
X11164000Y-67818000D03*
D37*
X37122200Y-43434000D03*
X38722200Y-43434000D03*
D50*
X31632000Y-55880000D03*
X35932000Y-55880000D03*
D51*
X23114000Y-18796000D03*
D52*
X25654000Y-18796000D03*
X28194000Y-18796000D03*
X30734000Y-18796000D03*
D29*
X4089400Y-35217800D03*
X4089400Y-33717800D03*
D42*
X18288000Y-68314000D03*
X18288000Y-66814000D03*
D53*
X17018000Y-70866000D03*
X15748000Y-70866000D03*
X14478000Y-70866000D03*
X13208000Y-70866000D03*
X28321000Y-54737000D03*
X5410200Y-23393400D03*
X14454500Y-78618000D03*
X36917498Y-33701500D03*
X17348800Y-20853600D03*
X31748859Y-25547541D03*
X14454207Y-34838191D03*
X17018000Y-74676000D03*
X15748000Y-74676000D03*
D54*
X36576000Y-65414000D02*
X36576000Y-68072000D01*
X36576000Y-61214000D02*
X36576000Y-58674000D01*
X36576000Y-65414000D02*
X36576000Y-63434102D01*
X36576000Y-63434102D02*
X36576000Y-61214000D01*
D55*
X13208000Y-70866000D02*
X13208000Y-69088000D01*
X15748000Y-70866000D02*
X17018000Y-70866000D01*
X14478000Y-70866000D02*
X15748000Y-70866000D01*
X13208000Y-70866000D02*
X14478000Y-70866000D01*
X16637000Y-71247000D02*
X17018000Y-70866000D01*
X16637000Y-72804000D02*
X16637000Y-71247000D01*
X15367000Y-71247000D02*
X15748000Y-70866000D01*
X15367000Y-72804000D02*
X15367000Y-71247000D01*
X14097000Y-71247000D02*
X14478000Y-70866000D01*
X14097000Y-72804000D02*
X14097000Y-71247000D01*
X12827000Y-71247000D02*
X13208000Y-70866000D01*
X12827000Y-72804000D02*
X12827000Y-71247000D01*
X12827000Y-68707000D02*
X13208000Y-69088000D01*
X12827000Y-67404000D02*
X12827000Y-68707000D01*
X28289000Y-54769000D02*
X28321000Y-54737000D01*
X26416000Y-54769000D02*
X28289000Y-54769000D01*
X24543000Y-54769000D02*
X21775500Y-52001500D01*
X26416000Y-54769000D02*
X24543000Y-54769000D01*
X21775500Y-52001500D02*
X21775500Y-51625700D01*
X5410898Y-23392702D02*
X5410200Y-23393400D01*
X6437876Y-23392702D02*
X5410898Y-23392702D01*
X38733500Y-35517502D02*
X37567497Y-34351499D01*
X38733500Y-40940500D02*
X38733500Y-35517502D01*
X37567497Y-34351499D02*
X36917498Y-33701500D01*
X11936500Y-78625000D02*
X14447500Y-78625000D01*
X36856000Y-31351000D02*
X36856000Y-33640002D01*
X36856000Y-33640002D02*
X36917498Y-33701500D01*
X38733500Y-43480500D02*
X38733500Y-46020500D01*
X38733500Y-40940500D02*
X38733500Y-43480500D01*
X5903631Y-24667369D02*
X6437876Y-24133124D01*
X5903631Y-25120423D02*
X5903631Y-24667369D01*
X6437876Y-24133124D02*
X6437876Y-23392702D01*
X5903631Y-25120423D02*
X5932911Y-25091143D01*
X5932911Y-25091143D02*
X7292772Y-25091143D01*
X12892772Y-33591144D02*
X12902960Y-33580956D01*
X12902960Y-33580956D02*
X14422628Y-33580956D01*
X6437876Y-21880702D02*
X6449876Y-21868702D01*
X6437877Y-23392702D02*
X6437876Y-21880702D01*
X23240300Y-39878700D02*
X23582500Y-39536500D01*
X21775500Y-39878700D02*
X23240300Y-39878700D01*
X23582500Y-39536500D02*
X23582500Y-37130500D01*
X23582500Y-37130500D02*
X24090500Y-36622500D01*
X24090500Y-36622500D02*
X24852500Y-36622500D01*
X24852500Y-36622500D02*
X25614500Y-35860500D01*
X25614500Y-35860500D02*
X25616000Y-35859000D01*
X28916500Y-35860500D02*
X25614500Y-35860500D01*
X28986000Y-35791000D02*
X29299000Y-35478000D01*
X29299000Y-34834500D02*
X29299000Y-35478000D01*
X28986000Y-35791000D02*
X28916500Y-35860500D01*
X25616000Y-35859000D02*
X25616000Y-34784500D01*
D56*
X32472500Y-44242500D02*
X32472500Y-43480500D01*
X32472500Y-43480500D02*
X32770900Y-43182100D01*
X33488500Y-45258500D02*
X32472500Y-44242500D01*
X35222100Y-43182100D02*
X35520500Y-43480500D01*
X35520500Y-45258500D02*
X33488500Y-45258500D01*
X35520500Y-43480500D02*
X35520500Y-45258500D01*
X33886200Y-43182100D02*
X35222100Y-43182100D01*
X32770900Y-43182100D02*
X33886200Y-43182100D01*
D55*
X19380800Y-21742600D02*
X18237800Y-21742600D01*
D57*
X31748859Y-23757541D02*
X31748859Y-25547541D01*
D55*
X18237800Y-21742600D02*
X17348800Y-20853600D01*
D57*
X30718859Y-26577541D02*
X31748859Y-25547541D01*
X30718859Y-26577541D02*
X29818859Y-26577541D01*
D55*
X14454207Y-33612535D02*
X14454207Y-34838191D01*
X14422628Y-33580956D02*
X14454207Y-33612535D01*
D56*
X20925500Y-4923500D02*
X17780000Y-1778000D01*
X23833500Y-4923500D02*
X20925500Y-4923500D01*
X17780000Y-1778000D02*
X10414000Y-1778000D01*
X10414000Y-1778000D02*
X8128000Y-4064000D01*
X16637000Y-72804000D02*
X16637000Y-74295000D01*
X16637000Y-74295000D02*
X17018000Y-74676000D01*
X15367000Y-72804000D02*
X15367000Y-74295000D01*
X15367000Y-74295000D02*
X15748000Y-74676000D01*
D58*
X5496000Y-1235000D02*
X5715000Y-1016000D01*
X5496000Y-1235000D02*
X3556000Y-3175000D01*
X3556000Y-3175000D02*
X3556000Y-7493000D01*
X3556000Y-11176000D02*
X3556000Y-7493000D01*
X36116900Y-13764900D02*
X36116900Y-17564300D01*
X23368000Y-1016000D02*
X36116900Y-13764900D01*
X5715000Y-1016000D02*
X23368000Y-1016000D01*
X37872000Y-18011000D02*
X36563600Y-18011000D01*
X36563600Y-18011000D02*
X36116900Y-17564300D01*
X10795000Y-59817000D02*
X7938000Y-56960000D01*
X12830000Y-59817000D02*
X10795000Y-59817000D01*
X7938000Y-56960000D02*
X5842000Y-56960000D01*
X14097000Y-64643000D02*
X12830000Y-63376000D01*
X12830000Y-63376000D02*
X12830000Y-59817000D01*
X14097000Y-67404000D02*
X14097000Y-64643000D01*
X13572500Y-74786500D02*
X16002000Y-77216000D01*
X14478000Y-81390500D02*
X9144000Y-81390500D01*
X11176000Y-74786500D02*
X13572500Y-74786500D01*
X9906000Y-73516500D02*
X11176000Y-74786500D01*
X9906000Y-68735000D02*
X9906000Y-73516500D01*
X9664000Y-67818000D02*
X9664000Y-68493000D01*
X9664000Y-68493000D02*
X9906000Y-68735000D01*
X762000Y-13970000D02*
X3556000Y-11176000D01*
X16002000Y-77216000D02*
X16002000Y-79866500D01*
X16002000Y-79866500D02*
X14478000Y-81390500D01*
X9144000Y-81390500D02*
X7112000Y-79358500D01*
X7112000Y-79358500D02*
X3302000Y-79358500D01*
X3302000Y-79358500D02*
X762000Y-76818500D01*
X762000Y-76818500D02*
X762000Y-13970000D01*
X8636000Y-67564000D02*
X8890000Y-67818000D01*
X8890000Y-67818000D02*
X9664000Y-67818000D01*
X3810000Y-67564000D02*
X8636000Y-67564000D01*
X3302000Y-67056000D02*
X3810000Y-67564000D01*
X3302000Y-57950000D02*
X3302000Y-67056000D01*
X5842000Y-56960000D02*
X4292000Y-56960000D01*
X4292000Y-56960000D02*
X3302000Y-57950000D01*
X16880000Y-11176000D02*
X22654008Y-16950008D01*
X3556000Y-11176000D02*
X16880000Y-11176000D01*
X22654008Y-16950008D02*
X23869008Y-16950008D01*
X23869008Y-16950008D02*
X24410000Y-17491000D01*
D55*
X24410000Y-17491000D02*
X24410000Y-19523000D01*
X24410000Y-19523000D02*
X25426000Y-20539000D01*
X25426000Y-20539000D02*
X29430318Y-20539000D01*
X29430318Y-20539000D02*
X29818859Y-20927541D01*
X29818859Y-20927541D02*
X29818859Y-21977541D01*
X30098859Y-22257541D02*
X31748859Y-22257541D01*
X29818859Y-21977541D02*
X30098859Y-22257541D01*
X31748859Y-22257541D02*
X31748859Y-22282541D01*
X12892772Y-32141143D02*
X14342772Y-32141143D01*
X14342772Y-32141143D02*
X15048034Y-32141143D01*
X11080600Y-30328972D02*
X12892772Y-32141143D01*
X11080600Y-28353315D02*
X11080600Y-30328972D01*
X15048034Y-32141143D02*
X15922627Y-33015737D01*
X15922627Y-33015737D02*
X15922627Y-33580956D01*
X18280800Y-26142600D02*
X17589200Y-25451000D01*
X19380800Y-26142600D02*
X18280800Y-26142600D01*
X17589200Y-25451000D02*
X13982916Y-25451000D01*
X13982916Y-25451000D02*
X12248034Y-27185882D01*
X5137511Y-26541143D02*
X4403632Y-25807264D01*
X5842772Y-26541143D02*
X5137511Y-26541143D01*
X4403632Y-25807264D02*
X4403632Y-25120423D01*
X9104944Y-28353315D02*
X7292772Y-26541143D01*
X11080600Y-28353315D02*
X9104944Y-28353315D01*
X7292772Y-26541143D02*
X5842772Y-26541143D01*
X12248034Y-27185882D02*
X11080600Y-28353315D01*
X12248034Y-27185882D02*
X9692772Y-29741144D01*
X9692772Y-29741144D02*
X5842772Y-29741144D01*
X19471000Y-26340000D02*
X19344000Y-26213000D01*
X19344000Y-26213000D02*
X19380800Y-26176200D01*
X19380800Y-26176200D02*
X19380800Y-26142600D01*
X23632183Y-27635183D02*
X23140000Y-27143000D01*
X23879670Y-27882670D02*
X23632183Y-27635183D01*
X23518859Y-24277541D02*
X24818859Y-24277541D01*
X24818859Y-24277541D02*
X29818859Y-24277541D01*
X23518859Y-20409859D02*
X23140000Y-20031000D01*
X23140000Y-20031000D02*
X23140000Y-18761000D01*
X23518859Y-24277541D02*
X23518859Y-20409859D01*
X23518859Y-24277541D02*
X20545859Y-24277541D01*
X20545859Y-24277541D02*
X19380800Y-25442600D01*
X19380800Y-25442600D02*
X19380800Y-26142600D01*
X23140000Y-27143000D02*
X23518859Y-26764141D01*
X23518859Y-26764141D02*
X23518859Y-24277541D01*
D57*
X21433000Y-68834000D02*
X23050000Y-68834000D01*
X23050000Y-68834000D02*
X23114000Y-68898000D01*
X18288000Y-66814000D02*
X19413000Y-66814000D01*
X19413000Y-66814000D02*
X21433000Y-68834000D01*
X18288000Y-66814000D02*
X17227000Y-66814000D01*
X17227000Y-66814000D02*
X16637000Y-67404000D01*
D54*
X31076000Y-65414000D02*
X27592000Y-68898000D01*
X27592000Y-68898000D02*
X23114000Y-68898000D01*
X31076000Y-61214000D02*
X31076000Y-65414000D01*
D57*
X31632000Y-54238000D02*
X30948500Y-53554500D01*
X31632000Y-55880000D02*
X31632000Y-54238000D01*
X30948500Y-53554500D02*
X30948500Y-52705000D01*
D54*
X26000000Y-80934000D02*
X26000000Y-74534000D01*
X26000000Y-74534000D02*
X23114000Y-71648000D01*
X23114000Y-71648000D02*
X23114000Y-68898000D01*
X23876000Y-87392000D02*
X23876000Y-83058000D01*
X23876000Y-83058000D02*
X26000000Y-80934000D01*
D57*
X26543000Y-52705000D02*
X25463700Y-51625700D01*
X25463700Y-51625700D02*
X25458500Y-51625700D01*
X30948500Y-52705000D02*
X26543000Y-52705000D01*
X23670500Y-130491000D02*
X23890500Y-130491000D01*
D56*
X19790500Y-125916000D02*
X20328500Y-125378000D01*
X23670500Y-118553000D02*
X23645500Y-118553000D01*
X22933499Y-121225001D02*
X20328500Y-123830000D01*
D57*
X23670500Y-118553000D02*
X24652500Y-118553000D01*
D56*
X13906500Y-125916000D02*
X19790500Y-125916000D01*
D57*
X24652500Y-118553000D02*
X24715000Y-118615500D01*
X26244500Y-120145000D02*
X24715000Y-118615500D01*
D56*
X23645500Y-118553000D02*
X22933499Y-119265001D01*
X20328500Y-123830000D02*
X20328500Y-125378000D01*
X22933499Y-119265001D02*
X22933499Y-121225001D01*
D57*
X23890500Y-130491000D02*
X26244500Y-132845000D01*
X26176500Y-120077000D02*
X26244500Y-120145000D01*
D54*
X31076000Y-58586000D02*
X31632000Y-58030000D01*
X31076000Y-61214000D02*
X31076000Y-58586000D01*
X31632000Y-58030000D02*
X31632000Y-55880000D01*
D57*
X30948500Y-52705000D02*
X30948500Y-49147500D01*
X30948500Y-49147500D02*
X31000000Y-49096000D01*
D56*
X31762000Y-52705000D02*
X30948500Y-52705000D01*
D57*
X30186500Y-46614700D02*
X31000000Y-47428200D01*
X31000000Y-47428200D02*
X31808500Y-48236700D01*
X31000000Y-49096000D02*
X31833900Y-48262100D01*
X31000000Y-47428200D02*
X31000000Y-49096000D01*
X30186500Y-45979700D02*
X30186500Y-46614700D01*
D56*
X31566500Y-39197500D02*
X32320800Y-38443200D01*
X32320800Y-38443200D02*
X32320800Y-37642800D01*
D57*
X30198500Y-45212000D02*
X30198500Y-45967700D01*
X30198500Y-45967700D02*
X30186500Y-45979700D01*
X32087900Y-48262100D02*
X31833900Y-48262100D01*
X25458500Y-39578500D02*
X25458500Y-39878700D01*
X30774000Y-38405000D02*
X26632000Y-38405000D01*
X26632000Y-38405000D02*
X25458500Y-39578500D01*
X31566500Y-40604700D02*
X31566500Y-39197500D01*
X31566500Y-39197500D02*
X30774000Y-38405000D01*
X32087900Y-48262100D02*
X33886200Y-48262100D01*
X31603900Y-40642100D02*
X33886200Y-40642100D01*
X31566500Y-40604700D02*
X31603900Y-40642100D01*
X30186500Y-41984700D02*
X30186500Y-45979700D01*
X31566500Y-40604700D02*
X30186500Y-41984700D01*
X31808500Y-48236700D02*
X31833900Y-48262100D01*
D56*
X37933500Y-45220500D02*
X37933500Y-36282500D01*
X37133500Y-46020500D02*
X37933500Y-45220500D01*
X37933500Y-36282500D02*
X33655000Y-32004000D01*
X33655000Y-32004000D02*
X21082000Y-32004000D01*
X21082000Y-32004000D02*
X20828000Y-32258000D01*
X20828000Y-32258000D02*
X18911000Y-32258000D01*
X21971000Y-33020000D02*
X20435000Y-34556000D01*
X32893000Y-33020000D02*
X21971000Y-33020000D01*
X36282500Y-41575500D02*
X36282500Y-36409500D01*
X36282500Y-36409500D02*
X32893000Y-33020000D01*
X37133500Y-43480500D02*
X37133500Y-42426500D01*
X37133500Y-42426500D02*
X36282500Y-41575500D01*
X20435000Y-34556000D02*
X20435000Y-35306000D01*
D57*
X19810000Y-46810000D02*
X20625700Y-47625700D01*
X17790000Y-46810000D02*
X19810000Y-46810000D01*
X20625700Y-47625700D02*
X21775500Y-47625700D01*
X26094900Y-48262100D02*
X25458500Y-47625700D01*
X28486200Y-48008100D02*
X28486200Y-49278100D01*
X28486200Y-49913100D02*
X28486200Y-50548100D01*
X28486200Y-48262100D02*
X28486200Y-46992100D01*
X21775500Y-47625700D02*
X25458500Y-47625700D01*
X28486200Y-48262100D02*
X26094900Y-48262100D01*
X28486200Y-49278100D02*
X28486200Y-49913100D01*
D56*
X24495660Y-29388000D02*
X18836000Y-29388000D01*
X24940330Y-28943330D02*
X24495660Y-29388000D01*
X18836000Y-29388000D02*
X16789143Y-27341143D01*
X16789143Y-27341143D02*
X15192772Y-27341143D01*
X15192772Y-27341143D02*
X14342772Y-27341143D01*
X31776000Y-20031000D02*
X31776000Y-19777000D01*
X33300000Y-21555000D02*
X31776000Y-20031000D01*
X33300000Y-26889000D02*
X33300000Y-21555000D01*
X25511660Y-28372000D02*
X31817000Y-28372000D01*
X31817000Y-28372000D02*
X33300000Y-26889000D01*
X24940330Y-28943330D02*
X25511660Y-28372000D01*
X31776000Y-19777000D02*
X30760000Y-18761000D01*
X25059000Y-29896000D02*
X18582000Y-29896000D01*
X26075000Y-28880000D02*
X25059000Y-29896000D01*
X32071000Y-28880000D02*
X26075000Y-28880000D01*
X33808000Y-21301000D02*
X33808000Y-27143000D01*
X32792000Y-20285000D02*
X33808000Y-21301000D01*
X32792000Y-18507998D02*
X32792000Y-20285000D01*
X31775002Y-17491000D02*
X32792000Y-18507998D01*
X33808000Y-27143000D02*
X32071000Y-28880000D01*
X10668000Y-7874000D02*
X12446000Y-9652000D01*
X18582000Y-29896000D02*
X16827143Y-28141143D01*
X10668000Y-6604000D02*
X10668000Y-7874000D01*
X12446000Y-9652000D02*
X16510000Y-9652000D01*
X24410000Y-16221000D02*
X25680000Y-17491000D01*
X16510000Y-9652000D02*
X23079000Y-16221000D01*
X23079000Y-16221000D02*
X24410000Y-16221000D01*
X25680000Y-17491000D02*
X31775002Y-17491000D01*
X16827143Y-28141143D02*
X14342772Y-28141143D01*
X23587000Y-15713000D02*
X24792411Y-15713000D01*
X16002000Y-8128000D02*
X23587000Y-15713000D01*
X15170000Y-8128000D02*
X16002000Y-8128000D01*
X15039834Y-8157709D02*
X15103243Y-8135521D01*
X14982953Y-8193450D02*
X15039834Y-8157709D01*
X14899709Y-8297834D02*
X14935450Y-8240953D01*
X14870000Y-8730072D02*
X14870000Y-8428000D01*
X14757046Y-8964621D02*
X14804549Y-8917118D01*
X14700165Y-9000362D02*
X14757046Y-8964621D01*
X14570000Y-9030072D02*
X14636756Y-9022550D01*
X14870000Y-8428000D02*
X14877521Y-8361243D01*
X14503243Y-9022550D02*
X14570000Y-9030072D01*
X14439834Y-9000362D02*
X14503243Y-9022550D01*
X14862478Y-8796828D02*
X14870000Y-8730072D01*
X14100165Y-8157709D02*
X14157046Y-8193450D01*
X14036756Y-8135521D02*
X14100165Y-8157709D01*
X14877521Y-8361243D02*
X14899709Y-8297834D01*
X14262478Y-8361243D02*
X14270000Y-8428000D01*
X13970000Y-8128000D02*
X14036756Y-8135521D01*
X15103243Y-8135521D02*
X15170000Y-8128000D01*
X14270000Y-8730072D02*
X14277521Y-8796828D01*
X14335450Y-8917118D02*
X14382953Y-8964621D01*
X13208000Y-6604000D02*
X13208000Y-7620000D01*
X13208000Y-7620000D02*
X13716000Y-8128000D01*
X14636756Y-9022550D02*
X14700165Y-9000362D01*
X14157046Y-8193450D02*
X14204549Y-8240953D01*
X14240290Y-8297834D02*
X14262478Y-8361243D01*
X14840290Y-8860237D02*
X14862478Y-8796828D01*
X14204549Y-8240953D02*
X14240290Y-8297834D01*
X14804549Y-8917118D02*
X14840290Y-8860237D01*
X14299709Y-8860237D02*
X14335450Y-8917118D01*
X14270000Y-8428000D02*
X14270000Y-8730072D01*
X14935450Y-8240953D02*
X14982953Y-8193450D01*
X14277521Y-8796828D02*
X14299709Y-8860237D01*
X13716000Y-8128000D02*
X13970000Y-8128000D01*
X14382953Y-8964621D02*
X14439834Y-9000362D01*
X24792411Y-15713000D02*
X26087412Y-17008001D01*
X26087412Y-17008001D02*
X32055001Y-17008001D01*
X32055001Y-17008001D02*
X33300000Y-18253000D01*
X33300000Y-18253000D02*
X33300000Y-20156590D01*
X33300000Y-20156590D02*
X34316000Y-21172590D01*
X34316000Y-21172590D02*
X34316000Y-27397000D01*
X34316000Y-27397000D02*
X32325000Y-29388000D01*
X32325000Y-29388000D02*
X26203411Y-29388000D01*
X26203411Y-29388000D02*
X25187411Y-30404000D01*
X25187411Y-30404000D02*
X18328000Y-30404000D01*
X18328000Y-30404000D02*
X16865143Y-28941143D01*
X16865143Y-28941143D02*
X14342772Y-28941143D01*
X11898500Y-37003500D02*
X12868000Y-37973000D01*
X4358000Y-35992000D02*
X7331000Y-35992000D01*
X8342500Y-37003500D02*
X11898500Y-37003500D01*
X7331000Y-35992000D02*
X8342500Y-37003500D01*
X4104000Y-35218000D02*
X4104000Y-35738000D01*
X4104000Y-35738000D02*
X4358000Y-35992000D01*
X12868000Y-37973000D02*
X16256000Y-37973000D01*
X16256000Y-37973000D02*
X17456990Y-36772010D01*
X27516000Y-34734500D02*
X27516000Y-34784500D01*
X17456990Y-36772010D02*
X21266990Y-36772010D01*
X21266990Y-36772010D02*
X24029501Y-34009499D01*
X24029501Y-34009499D02*
X26790999Y-34009499D01*
X26790999Y-34009499D02*
X27516000Y-34734500D01*
X30810000Y-37643000D02*
X28234000Y-37643000D01*
X33810000Y-39295900D02*
X33810000Y-37239000D01*
X31750000Y-36703000D02*
X30810000Y-37643000D01*
X33274000Y-36703000D02*
X31750000Y-36703000D01*
X33810000Y-37239000D02*
X33274000Y-36703000D01*
X33886200Y-39372100D02*
X33810000Y-39295900D01*
X28234000Y-37643000D02*
X27375500Y-36784500D01*
X27375500Y-36784500D02*
X26566000Y-36784500D01*
X34361200Y-41912100D02*
X34986201Y-41287099D01*
X34361200Y-39372100D02*
X33886200Y-39372100D01*
X34986201Y-39997101D02*
X34361200Y-39372100D01*
X34986201Y-40642100D02*
X34986201Y-39997101D01*
X34986201Y-41287099D02*
X34986201Y-40642100D01*
X33886200Y-41912100D02*
X34361200Y-41912100D01*
X34668900Y-49532100D02*
X35001200Y-49199800D01*
X33886200Y-49532100D02*
X34668900Y-49532100D01*
X35001200Y-49199800D02*
X35001200Y-47320200D01*
X35001200Y-47320200D02*
X34673100Y-46992100D01*
X34673100Y-46992100D02*
X33886200Y-46992100D01*
X34986201Y-39009201D02*
X35520500Y-39543500D01*
X34986201Y-37523199D02*
X34986201Y-39009201D01*
X30249000Y-36784500D02*
X30906500Y-36784500D01*
X33658002Y-36195000D02*
X34986201Y-37523199D01*
X31496000Y-36195000D02*
X33658002Y-36195000D01*
X30906500Y-36784500D02*
X31496000Y-36195000D01*
X35520500Y-39543500D02*
X35520500Y-41937802D01*
X35520500Y-41937802D02*
X34921201Y-42537101D01*
X31698500Y-42984500D02*
X31698500Y-44512000D01*
X34921201Y-42537101D02*
X32145899Y-42537101D01*
X32145899Y-42537101D02*
X31698500Y-42984500D01*
X31698500Y-44512000D02*
X31698500Y-45212000D01*
X33886200Y-46992100D02*
X33860800Y-46966700D01*
X33860800Y-46966700D02*
X32656700Y-46966700D01*
X31698500Y-46008500D02*
X31698500Y-45912000D01*
X31698500Y-45912000D02*
X31698500Y-45212000D01*
X32656700Y-46966700D02*
X31698500Y-46008500D01*
X17236000Y-36322000D02*
X16093000Y-37465000D01*
X20955000Y-36322000D02*
X17236000Y-36322000D01*
X23749000Y-33528000D02*
X20955000Y-36322000D01*
X31199000Y-34734500D02*
X29992500Y-33528000D01*
X29992500Y-33528000D02*
X23749000Y-33528000D01*
X31199000Y-34784500D02*
X31199000Y-34734500D01*
X16093000Y-37465000D02*
X13122000Y-37465000D01*
X13122000Y-37465000D02*
X12152500Y-36495500D01*
X12152500Y-36495500D02*
X8596500Y-36495500D01*
X8596500Y-36495500D02*
X7319000Y-35218000D01*
X7319000Y-35218000D02*
X5755000Y-35218000D01*
X15192772Y-29741143D02*
X14342772Y-29741143D01*
X16903143Y-29741143D02*
X15192772Y-29741143D01*
X18074000Y-30912000D02*
X16903143Y-29741143D01*
X25567000Y-30912000D02*
X18074000Y-30912000D01*
X36116900Y-20516100D02*
X34824000Y-21809000D01*
X26583000Y-29896000D02*
X25567000Y-30912000D01*
X36116900Y-19884300D02*
X36116900Y-20516100D01*
X34824000Y-21809000D02*
X34824000Y-27651000D01*
X34824000Y-27651000D02*
X32579000Y-29896000D01*
X32579000Y-29896000D02*
X26583000Y-29896000D01*
X37872000Y-19511000D02*
X36490200Y-19511000D01*
X36490200Y-19511000D02*
X36116900Y-19884300D01*
X31563000Y-27864000D02*
X24932000Y-27864000D01*
X32792000Y-26635000D02*
X31563000Y-27864000D01*
X32792000Y-21809000D02*
X32792000Y-26635000D01*
X31014000Y-20031000D02*
X32792000Y-21809000D01*
X25680000Y-18761000D02*
X26950000Y-20031000D01*
X26950000Y-20031000D02*
X31014000Y-20031000D01*
X24932000Y-27864000D02*
X23916000Y-28880000D01*
X23916000Y-28880000D02*
X19091410Y-28880000D01*
X19091410Y-28880000D02*
X16752553Y-26541143D01*
X16752553Y-26541143D02*
X15192772Y-26541143D01*
X15192772Y-26541143D02*
X14342772Y-26541143D01*
X5842772Y-27341143D02*
X3646143Y-27341143D01*
X3646143Y-27341143D02*
X3596000Y-27291000D01*
X1524000Y-23749000D02*
X1524000Y-76564500D01*
X10186500Y-79875000D02*
X11936500Y-79875000D01*
X9914500Y-79875000D02*
X10186500Y-79875000D01*
X8636000Y-78596500D02*
X9914500Y-79875000D01*
X3556000Y-78596500D02*
X8636000Y-78596500D01*
X1524000Y-76564500D02*
X3556000Y-78596500D01*
X5294022Y-19978978D02*
X1524000Y-23749000D01*
X10492772Y-25091143D02*
X10492772Y-21676950D01*
X8794800Y-19978978D02*
X5294022Y-19978978D01*
X10492772Y-21676950D02*
X8794800Y-19978978D01*
X3302000Y-68326000D02*
X2540000Y-67564000D01*
X8382000Y-68326000D02*
X3302000Y-68326000D01*
X9144000Y-69088000D02*
X8382000Y-68326000D01*
X9144000Y-75082500D02*
X9144000Y-69088000D01*
X11936500Y-76125000D02*
X10186500Y-76125000D01*
X10186500Y-76125000D02*
X9144000Y-75082500D01*
X2540000Y-67564000D02*
X2540000Y-24257000D01*
X2540000Y-24257000D02*
X5918000Y-20879000D01*
X8422000Y-20879000D02*
X8892772Y-21349772D01*
X8892772Y-21349772D02*
X8892772Y-24241143D01*
X5918000Y-20879000D02*
X8422000Y-20879000D01*
X8892772Y-24241143D02*
X8892772Y-25091143D01*
X2032000Y-24003000D02*
X5606011Y-20428989D01*
X2032000Y-76310500D02*
X2032000Y-24003000D01*
X9857500Y-77375000D02*
X9144000Y-78088500D01*
X3810000Y-78088500D02*
X2032000Y-76310500D01*
X9144000Y-78088500D02*
X3810000Y-78088500D01*
X11936500Y-77375000D02*
X9857500Y-77375000D01*
X5606011Y-20428989D02*
X8608400Y-20428989D01*
X8608400Y-20428989D02*
X9692772Y-21513361D01*
X9692772Y-21513361D02*
X9692772Y-24241143D01*
X9692772Y-24241143D02*
X9692772Y-25091143D01*
X12192000Y-12700000D02*
X11531599Y-13360401D01*
X16764000Y-12700000D02*
X12192000Y-12700000D01*
X17806000Y-13742000D02*
X16764000Y-12700000D01*
X11531599Y-13360401D02*
X10668000Y-14224000D01*
X17806000Y-17634000D02*
X17806000Y-13742000D01*
X12892772Y-25091143D02*
X12892772Y-22547228D01*
X12892772Y-22547228D02*
X17806000Y-17634000D01*
X12092772Y-25091143D02*
X12092772Y-22567818D01*
X12092772Y-22567818D02*
X17298000Y-17362590D01*
X17298000Y-17362590D02*
X17298000Y-14660400D01*
X17298000Y-14660400D02*
X16861600Y-14224000D01*
X16861600Y-14224000D02*
X15748000Y-14224000D01*
X4104000Y-31429915D02*
X4104000Y-33718000D01*
X5842772Y-30541143D02*
X4992772Y-30541143D01*
X4992772Y-30541143D02*
X4104000Y-31429915D01*
X4612000Y-31801000D02*
X4612000Y-32775000D01*
X4612000Y-32775000D02*
X5555000Y-33718000D01*
X5555000Y-33718000D02*
X5755000Y-33718000D01*
X5071857Y-31341143D02*
X4612000Y-31801000D01*
X5842772Y-31341143D02*
X5071857Y-31341143D01*
X15494000Y-35941000D02*
X17411000Y-34024000D01*
X13879500Y-35941000D02*
X15494000Y-35941000D01*
X12910000Y-34971500D02*
X13879500Y-35941000D01*
X8892772Y-34505772D02*
X9358500Y-34971500D01*
X9358500Y-34971500D02*
X12910000Y-34971500D01*
X8892772Y-33591143D02*
X8892772Y-34505772D01*
X17411000Y-34024000D02*
X17411000Y-32958000D01*
X17411000Y-32958000D02*
X17411000Y-32258000D01*
X15875000Y-36957000D02*
X17526000Y-35306000D01*
X12417871Y-35998871D02*
X13376000Y-36957000D01*
X13376000Y-36957000D02*
X15875000Y-36957000D01*
X8861871Y-35998871D02*
X12417871Y-35998871D01*
X7292772Y-33591143D02*
X7292772Y-34429772D01*
X18435000Y-35306000D02*
X18935000Y-35306000D01*
X7292772Y-34429772D02*
X8861871Y-35998871D01*
X17526000Y-35306000D02*
X18435000Y-35306000D01*
X15706000Y-36449000D02*
X18173000Y-33982000D01*
X13625500Y-36449000D02*
X15706000Y-36449000D01*
X12719781Y-35543281D02*
X13625500Y-36449000D01*
X9168281Y-35543281D02*
X12719781Y-35543281D01*
X18173000Y-33982000D02*
X18173000Y-33782000D01*
X8092772Y-34467772D02*
X9168281Y-35543281D01*
X8092772Y-33591143D02*
X8092772Y-34467772D01*
X36856000Y-26381000D02*
X32833000Y-30404000D01*
X17820000Y-31420000D02*
X16941143Y-30541143D01*
X32833000Y-30404000D02*
X26837000Y-30404000D01*
X26837000Y-30404000D02*
X25821000Y-31420000D01*
X25821000Y-31420000D02*
X17820000Y-31420000D01*
X16941143Y-30541143D02*
X14342772Y-30541143D01*
X36856000Y-23951000D02*
X36856000Y-26381000D01*
D57*
X25015500Y-122685000D02*
X23658500Y-121328000D01*
X29954500Y-121415000D02*
X28684500Y-122685000D01*
X28684500Y-122685000D02*
X26244500Y-122685000D01*
X23658500Y-121328000D02*
X23658500Y-120143000D01*
X26244500Y-122685000D02*
X25015500Y-122685000D01*
X31324500Y-121415000D02*
X29954500Y-121415000D01*
X19110500Y-120131000D02*
X17332500Y-120131000D01*
X19122500Y-120143000D02*
X19110500Y-120131000D01*
X17332500Y-120131000D02*
X17320500Y-120143000D01*
X22158500Y-120143000D02*
X19122500Y-120143000D01*
D54*
X31324500Y-118875000D02*
X24706500Y-112257000D01*
X24706500Y-112257000D02*
X24706500Y-111680000D01*
X24706500Y-101650000D02*
X24706500Y-111680000D01*
X22034500Y-113395000D02*
X22034500Y-112950000D01*
X22034500Y-100504000D02*
X22034500Y-112950000D01*
X25844500Y-98980000D02*
X23558500Y-98980000D01*
X27368500Y-109402000D02*
X27368500Y-100504000D01*
X26244500Y-117605000D02*
X22034500Y-113395000D01*
X27368500Y-100504000D02*
X25844500Y-98980000D01*
X29146500Y-111180000D02*
X27368500Y-109402000D01*
X23558500Y-98980000D02*
X22034500Y-100504000D01*
X22034500Y-139874000D02*
X22034500Y-137588000D01*
X24237500Y-135385000D02*
X25113130Y-135385000D01*
X29146500Y-148180000D02*
X29146500Y-146986000D01*
X29146500Y-146986000D02*
X22034500Y-139874000D01*
X22034500Y-137588000D02*
X24237500Y-135385000D01*
X25113130Y-135385000D02*
X26244500Y-135385000D01*
X24706500Y-138650000D02*
X26789500Y-138650000D01*
X26789500Y-138650000D02*
X31324500Y-134115000D01*
D55*
X31324500Y-123955000D02*
X23543000Y-123955000D01*
X23543000Y-123955000D02*
X23040500Y-124457500D01*
D56*
X8092772Y-24241143D02*
X8086317Y-24241143D01*
X8086317Y-24241143D02*
X7937876Y-24092702D01*
X7937876Y-24092702D02*
X7937876Y-23392702D01*
X8041000Y-24189371D02*
X8092772Y-24241143D01*
X8092772Y-25091143D02*
X8092772Y-24241143D01*
X7949876Y-21868702D02*
X7937876Y-21880702D01*
X7937876Y-21880702D02*
X7937876Y-23392702D01*
D55*
X20310500Y-126666000D02*
X20951501Y-126024999D01*
X14934500Y-127416000D02*
X15684500Y-126666000D01*
X10932500Y-127416000D02*
X10096500Y-126580000D01*
X25409500Y-125225000D02*
X24609501Y-126024999D01*
X15684500Y-126666000D02*
X20310500Y-126666000D01*
X13906500Y-127416000D02*
X14934500Y-127416000D01*
X26244500Y-125225000D02*
X25409500Y-125225000D01*
X13906500Y-127416000D02*
X10932500Y-127416000D01*
X24609501Y-126024999D02*
X20951501Y-126024999D01*
D57*
X26244500Y-130305000D02*
X26158500Y-130305000D01*
X24629000Y-128775500D02*
X23670500Y-128775500D01*
X31324500Y-131575000D02*
X29954500Y-131575000D01*
X28684500Y-130305000D02*
X26244500Y-130305000D01*
X26158500Y-130305000D02*
X24629000Y-128775500D01*
X29954500Y-131575000D02*
X28684500Y-130305000D01*
X17332500Y-128791000D02*
X17320500Y-128779000D01*
X22155000Y-128791000D02*
X22170500Y-128775500D01*
X19110500Y-128791000D02*
X22155000Y-128791000D01*
X19122500Y-128779000D02*
X19110500Y-128791000D01*
X19110500Y-128791000D02*
X17332500Y-128791000D01*
D56*
X37133500Y-36371500D02*
X33274000Y-32512000D01*
X37133500Y-40940500D02*
X37133500Y-36371500D01*
X33274000Y-32512000D02*
X21463000Y-32512000D01*
X21463000Y-32512000D02*
X20193000Y-33782000D01*
X20193000Y-33782000D02*
X19673000Y-33782000D01*
X15000000Y-38481000D02*
X12614000Y-38481000D01*
X17790000Y-39190000D02*
X15951523Y-39190000D01*
X15951523Y-39190000D02*
X15242523Y-38481000D01*
X15242523Y-38481000D02*
X15000000Y-38481000D01*
X8088500Y-37511500D02*
X7072500Y-36495500D01*
X12614000Y-38481000D02*
X11644500Y-37511500D01*
X11644500Y-37511500D02*
X8088500Y-37511500D01*
X7072500Y-36495500D02*
X3723000Y-36495500D01*
X3723000Y-36495500D02*
X3048000Y-35820500D01*
X3048000Y-35820500D02*
X3048000Y-29789000D01*
X3048000Y-29789000D02*
X3596000Y-29241000D01*
X3596000Y-29241000D02*
X3596000Y-28691000D01*
D57*
X17790000Y-43000000D02*
X19572634Y-43000000D01*
X19572634Y-43000000D02*
X20451334Y-43878700D01*
X20451334Y-43878700D02*
X21775500Y-43878700D01*
X28486200Y-43182100D02*
X28486200Y-41912100D01*
X25458500Y-43878700D02*
X25476300Y-43878700D01*
X28486200Y-40642100D02*
X28486200Y-39372100D01*
X21775500Y-43878700D02*
X25458500Y-43878700D01*
X28486200Y-43182100D02*
X26155100Y-43182100D01*
X26155100Y-43182100D02*
X25458500Y-43878700D01*
X28486200Y-41912100D02*
X28486200Y-40642100D01*
D56*
X16764000Y-5334000D02*
X6858000Y-5334000D01*
X28043500Y-14993500D02*
X26443501Y-13393501D01*
X17526000Y-6096000D02*
X16764000Y-5334000D01*
X17526000Y-8382000D02*
X17526000Y-6096000D01*
X26443501Y-13393501D02*
X22537501Y-13393501D01*
X22537501Y-13393501D02*
X17526000Y-8382000D01*
X6858000Y-5334000D02*
X5588000Y-4064000D01*
X12446000Y-2286000D02*
X17526000Y-2286000D01*
X10668000Y-4064000D02*
X12446000Y-2286000D01*
X17526000Y-2286000D02*
X21590000Y-6350000D01*
X21590000Y-6350000D02*
X21590000Y-7112000D01*
X21590000Y-7112000D02*
X21901500Y-7423500D01*
X21901500Y-7423500D02*
X23833500Y-7423500D01*
X22123500Y-9423500D02*
X21082000Y-8382000D01*
X23833500Y-9423500D02*
X22123500Y-9423500D01*
X21082000Y-8382000D02*
X21082000Y-6604000D01*
X21082000Y-6604000D02*
X17272000Y-2794000D01*
X17272000Y-2794000D02*
X14478000Y-2794000D01*
X14478000Y-2794000D02*
X13208000Y-4064000D01*
D58*
X30654500Y-11923500D02*
X34216900Y-15485900D01*
X34216900Y-15485900D02*
X34216900Y-17564300D01*
X23833500Y-11923500D02*
X30654500Y-11923500D01*
X35166900Y-18724300D02*
X35166900Y-19884300D01*
X35166900Y-18724300D02*
X35166900Y-17564300D01*
X34216900Y-18536300D02*
X34216900Y-17564300D01*
X34404900Y-18724300D02*
X34216900Y-18536300D01*
X34216900Y-18912300D02*
X34216900Y-19884300D01*
X34404900Y-18724300D02*
X34216900Y-18912300D01*
X35166900Y-18724300D02*
X34404900Y-18724300D01*
D56*
X34760000Y-52746500D02*
X33303500Y-52746500D01*
X33303500Y-52746500D02*
X33262000Y-52705000D01*
D57*
X22034500Y-95678000D02*
X18986500Y-98726000D01*
X30836500Y-80492000D02*
X27114500Y-84214000D01*
X18986500Y-98726000D02*
X18986500Y-114220000D01*
X23558500Y-95678000D02*
X22034500Y-95678000D01*
X27114500Y-84214000D02*
X27114500Y-92122000D01*
X27114500Y-92122000D02*
X23558500Y-95678000D01*
X15820500Y-120143000D02*
X15820500Y-117386000D01*
X15820500Y-117386000D02*
X18986500Y-114220000D01*
X30924500Y-151558000D02*
X33718500Y-148764000D01*
X15820500Y-128779000D02*
X15820500Y-141153000D01*
X36512500Y-136826000D02*
X36512500Y-115998000D01*
X33718500Y-113204000D02*
X33718500Y-98374000D01*
X26225500Y-151558000D02*
X30924500Y-151558000D01*
X33718500Y-139620000D02*
X36512500Y-136826000D01*
X33718500Y-98374000D02*
X30836500Y-95492000D01*
X33718500Y-148764000D02*
X33718500Y-139620000D01*
X15820500Y-141153000D02*
X26225500Y-151558000D01*
X36512500Y-115998000D02*
X33718500Y-113204000D01*
D58*
X26416000Y-58769000D02*
X23778000Y-58769000D01*
X23778000Y-58769000D02*
X22730000Y-59817000D01*
X15367000Y-67404000D02*
X15367000Y-65480000D01*
X15367000Y-65480000D02*
X21030000Y-59817000D01*
X21030000Y-59817000D02*
X22730000Y-59817000D01*
D59*
G36*
X24816253Y-21039411D02*
X24860047Y-21104953D01*
X24925589Y-21148747D01*
X24925591Y-21148749D01*
X25052927Y-21233832D01*
X25119708Y-21278454D01*
X25348684Y-21324000D01*
X25348688Y-21324000D01*
X25426000Y-21339378D01*
X25503312Y-21324000D01*
X28171419Y-21324000D01*
X28171419Y-22727541D01*
X28220702Y-22975306D01*
X28321786Y-23126588D01*
X28280532Y-23167842D01*
X28183859Y-23401231D01*
X28183859Y-23991791D01*
X28342609Y-24150541D01*
X29691859Y-24150541D01*
X29691859Y-24130541D01*
X29945859Y-24130541D01*
X29945859Y-24150541D01*
X29965859Y-24150541D01*
X29965859Y-24404541D01*
X29945859Y-24404541D01*
X29945859Y-24424541D01*
X29691859Y-24424541D01*
X29691859Y-24404541D01*
X28342609Y-24404541D01*
X28183859Y-24563291D01*
X28183859Y-25153851D01*
X28280532Y-25387240D01*
X28321786Y-25428494D01*
X28220702Y-25579776D01*
X28171419Y-25827541D01*
X28171419Y-27104000D01*
X25006847Y-27104000D01*
X24932000Y-27089112D01*
X24857153Y-27104000D01*
X24857148Y-27104000D01*
X24635463Y-27148096D01*
X24384071Y-27316071D01*
X24341671Y-27379527D01*
X23755154Y-27966044D01*
X23687337Y-27898227D01*
X23701479Y-27884084D01*
X23276331Y-27458936D01*
X23051825Y-27458936D01*
X22846368Y-27664393D01*
X22749695Y-27897782D01*
X22749696Y-28032000D01*
X21997000Y-28032000D01*
X21997000Y-27054825D01*
X23455936Y-27054825D01*
X23455936Y-27279331D01*
X23881084Y-27704479D01*
X24446239Y-27139324D01*
X24446239Y-26914818D01*
X24380790Y-26849368D01*
X24291881Y-26812541D01*
X24645168Y-26812541D01*
X24878557Y-26715868D01*
X25057186Y-26537240D01*
X25153859Y-26303851D01*
X25153859Y-24563291D01*
X24995109Y-24404541D01*
X23645859Y-24404541D01*
X23645859Y-26653791D01*
X23788703Y-26796635D01*
X23661393Y-26849368D01*
X23455936Y-27054825D01*
X21997000Y-27054825D01*
X21997000Y-26553708D01*
X22159161Y-26715868D01*
X22392550Y-26812541D01*
X23233109Y-26812541D01*
X23391859Y-26653791D01*
X23391859Y-24404541D01*
X23371859Y-24404541D01*
X23371859Y-24150541D01*
X23391859Y-24150541D01*
X23391859Y-21901291D01*
X23645859Y-21901291D01*
X23645859Y-24150541D01*
X24995109Y-24150541D01*
X25153859Y-23991791D01*
X25153859Y-22251231D01*
X25057186Y-22017842D01*
X24878557Y-21839214D01*
X24645168Y-21742541D01*
X23804609Y-21742541D01*
X23645859Y-21901291D01*
X23391859Y-21901291D01*
X23233109Y-21742541D01*
X22392550Y-21742541D01*
X22159161Y-21839214D01*
X21997000Y-22001374D01*
X21997000Y-20412000D01*
X24188843Y-20412000D01*
X24816253Y-21039411D01*
X24816253Y-21039411D01*
G37*
X24816253Y-21039411D02*
X24860047Y-21104953D01*
X24925589Y-21148747D01*
X24925591Y-21148749D01*
X25052927Y-21233832D01*
X25119708Y-21278454D01*
X25348684Y-21324000D01*
X25348688Y-21324000D01*
X25426000Y-21339378D01*
X25503312Y-21324000D01*
X28171419Y-21324000D01*
X28171419Y-22727541D01*
X28220702Y-22975306D01*
X28321786Y-23126588D01*
X28280532Y-23167842D01*
X28183859Y-23401231D01*
X28183859Y-23991791D01*
X28342609Y-24150541D01*
X29691859Y-24150541D01*
X29691859Y-24130541D01*
X29945859Y-24130541D01*
X29945859Y-24150541D01*
X29965859Y-24150541D01*
X29965859Y-24404541D01*
X29945859Y-24404541D01*
X29945859Y-24424541D01*
X29691859Y-24424541D01*
X29691859Y-24404541D01*
X28342609Y-24404541D01*
X28183859Y-24563291D01*
X28183859Y-25153851D01*
X28280532Y-25387240D01*
X28321786Y-25428494D01*
X28220702Y-25579776D01*
X28171419Y-25827541D01*
X28171419Y-27104000D01*
X25006847Y-27104000D01*
X24932000Y-27089112D01*
X24857153Y-27104000D01*
X24857148Y-27104000D01*
X24635463Y-27148096D01*
X24384071Y-27316071D01*
X24341671Y-27379527D01*
X23755154Y-27966044D01*
X23687337Y-27898227D01*
X23701479Y-27884084D01*
X23276331Y-27458936D01*
X23051825Y-27458936D01*
X22846368Y-27664393D01*
X22749695Y-27897782D01*
X22749696Y-28032000D01*
X21997000Y-28032000D01*
X21997000Y-27054825D01*
X23455936Y-27054825D01*
X23455936Y-27279331D01*
X23881084Y-27704479D01*
X24446239Y-27139324D01*
X24446239Y-26914818D01*
X24380790Y-26849368D01*
X24291881Y-26812541D01*
X24645168Y-26812541D01*
X24878557Y-26715868D01*
X25057186Y-26537240D01*
X25153859Y-26303851D01*
X25153859Y-24563291D01*
X24995109Y-24404541D01*
X23645859Y-24404541D01*
X23645859Y-26653791D01*
X23788703Y-26796635D01*
X23661393Y-26849368D01*
X23455936Y-27054825D01*
X21997000Y-27054825D01*
X21997000Y-26553708D01*
X22159161Y-26715868D01*
X22392550Y-26812541D01*
X23233109Y-26812541D01*
X23391859Y-26653791D01*
X23391859Y-24404541D01*
X23371859Y-24404541D01*
X23371859Y-24150541D01*
X23391859Y-24150541D01*
X23391859Y-21901291D01*
X23645859Y-21901291D01*
X23645859Y-24150541D01*
X24995109Y-24150541D01*
X25153859Y-23991791D01*
X25153859Y-22251231D01*
X25057186Y-22017842D01*
X24878557Y-21839214D01*
X24645168Y-21742541D01*
X23804609Y-21742541D01*
X23645859Y-21901291D01*
X23391859Y-21901291D01*
X23233109Y-21742541D01*
X22392550Y-21742541D01*
X22159161Y-21839214D01*
X21997000Y-22001374D01*
X21997000Y-20412000D01*
X24188843Y-20412000D01*
X24816253Y-21039411D01*
G36*
X10068741Y-60413031D02*
X10120903Y-60491097D01*
X10198969Y-60543259D01*
X10430181Y-60697750D01*
X10732560Y-60757897D01*
X10732560Y-62517000D01*
X10781843Y-62764765D01*
X10922191Y-62974809D01*
X11132235Y-63115157D01*
X11380000Y-63164440D01*
X11895000Y-63164440D01*
X11895000Y-63283914D01*
X11876683Y-63376000D01*
X11895000Y-63468085D01*
X11949250Y-63740818D01*
X12155903Y-64050097D01*
X12233972Y-64102261D01*
X13162001Y-65030290D01*
X13162001Y-65994000D01*
X13112750Y-65994000D01*
X12954000Y-66152750D01*
X12954000Y-67277000D01*
X12974000Y-67277000D01*
X12974000Y-67531000D01*
X12954000Y-67531000D01*
X12954000Y-68655250D01*
X13112750Y-68814000D01*
X13253310Y-68814000D01*
X13470028Y-68724232D01*
X13549235Y-68777157D01*
X13797000Y-68826440D01*
X14397000Y-68826440D01*
X14644765Y-68777157D01*
X14732000Y-68718868D01*
X14819235Y-68777157D01*
X15067000Y-68826440D01*
X15667000Y-68826440D01*
X15914765Y-68777157D01*
X16002000Y-68718868D01*
X16089235Y-68777157D01*
X16337000Y-68826440D01*
X16937000Y-68826440D01*
X17184765Y-68777157D01*
X17278000Y-68714859D01*
X17278000Y-68840309D01*
X17374673Y-69073698D01*
X17553301Y-69252327D01*
X17786690Y-69349000D01*
X18002250Y-69349000D01*
X18161000Y-69190250D01*
X18161000Y-68441000D01*
X18415000Y-68441000D01*
X18415000Y-69190250D01*
X18573750Y-69349000D01*
X18789310Y-69349000D01*
X19022699Y-69252327D01*
X19201327Y-69073698D01*
X19298000Y-68840309D01*
X19298000Y-68599750D01*
X19139250Y-68441000D01*
X18415000Y-68441000D01*
X18161000Y-68441000D01*
X18141000Y-68441000D01*
X18141000Y-68187000D01*
X18161000Y-68187000D01*
X18161000Y-68167000D01*
X18415000Y-68167000D01*
X18415000Y-68187000D01*
X19139250Y-68187000D01*
X19248448Y-68077803D01*
X19995520Y-68824875D01*
X17910197Y-70910197D01*
X17882667Y-70951399D01*
X17873000Y-71000000D01*
X17873000Y-79947394D01*
X9947394Y-87873000D01*
X735000Y-87873000D01*
X735000Y-85085750D01*
X1925000Y-85085750D01*
X1925000Y-86626309D01*
X2021673Y-86859698D01*
X2200301Y-87038327D01*
X2433690Y-87135000D01*
X5294250Y-87135000D01*
X5453000Y-86976250D01*
X5453000Y-84927000D01*
X5707000Y-84927000D01*
X5707000Y-86976250D01*
X5865750Y-87135000D01*
X8726310Y-87135000D01*
X8959699Y-87038327D01*
X9138327Y-86859698D01*
X9235000Y-86626309D01*
X9235000Y-85085750D01*
X9076250Y-84927000D01*
X5707000Y-84927000D01*
X5453000Y-84927000D01*
X2083750Y-84927000D01*
X1925000Y-85085750D01*
X735000Y-85085750D01*
X735000Y-82973691D01*
X1925000Y-82973691D01*
X1925000Y-84514250D01*
X2083750Y-84673000D01*
X5453000Y-84673000D01*
X5453000Y-82623750D01*
X5707000Y-82623750D01*
X5707000Y-84673000D01*
X9076250Y-84673000D01*
X9235000Y-84514250D01*
X9235000Y-82973691D01*
X9138327Y-82740302D01*
X8959699Y-82561673D01*
X8726310Y-82465000D01*
X5865750Y-82465000D01*
X5707000Y-82623750D01*
X5453000Y-82623750D01*
X5294250Y-82465000D01*
X2433690Y-82465000D01*
X2200301Y-82561673D01*
X2021673Y-82740302D01*
X1925000Y-82973691D01*
X735000Y-82973691D01*
X735000Y-78113789D01*
X2575740Y-79954530D01*
X2627903Y-80032597D01*
X2937181Y-80239250D01*
X3209914Y-80293500D01*
X3209918Y-80293500D01*
X3301999Y-80311816D01*
X3394080Y-80293500D01*
X3744095Y-80293500D01*
X3665000Y-80484452D01*
X3665000Y-81015548D01*
X3868242Y-81506217D01*
X4243783Y-81881758D01*
X4734452Y-82085000D01*
X5265548Y-82085000D01*
X5756217Y-81881758D01*
X6131758Y-81506217D01*
X6335000Y-81015548D01*
X6335000Y-80484452D01*
X6255905Y-80293500D01*
X6724711Y-80293500D01*
X8417741Y-81986531D01*
X8469903Y-82064597D01*
X8547969Y-82116759D01*
X8779181Y-82271250D01*
X9144000Y-82343817D01*
X9236086Y-82325500D01*
X14385914Y-82325500D01*
X14478000Y-82343817D01*
X14570086Y-82325500D01*
X14842819Y-82271250D01*
X15152097Y-82064597D01*
X15204261Y-81986528D01*
X16598031Y-80592759D01*
X16676097Y-80540597D01*
X16882750Y-80231319D01*
X16937000Y-79958586D01*
X16937000Y-79958582D01*
X16955316Y-79866501D01*
X16937000Y-79774420D01*
X16937000Y-77308086D01*
X16955317Y-77216000D01*
X16882750Y-76851181D01*
X16728259Y-76619969D01*
X16676097Y-76541903D01*
X16598031Y-76489741D01*
X14298761Y-74190472D01*
X14246597Y-74112403D01*
X14224002Y-74097306D01*
X14224002Y-74055252D01*
X14382750Y-74214000D01*
X14523310Y-74214000D01*
X14732000Y-74127558D01*
X14940690Y-74214000D01*
X15081250Y-74214000D01*
X15240000Y-74055250D01*
X15240000Y-72931000D01*
X15494000Y-72931000D01*
X15494000Y-74055250D01*
X15652750Y-74214000D01*
X15793310Y-74214000D01*
X16002000Y-74127558D01*
X16210690Y-74214000D01*
X16351250Y-74214000D01*
X16510000Y-74055250D01*
X16510000Y-72931000D01*
X16764000Y-72931000D01*
X16764000Y-74055250D01*
X16922750Y-74214000D01*
X17063310Y-74214000D01*
X17296699Y-74117327D01*
X17475327Y-73938698D01*
X17572000Y-73705309D01*
X17572000Y-73089750D01*
X17413250Y-72931000D01*
X16764000Y-72931000D01*
X16510000Y-72931000D01*
X15494000Y-72931000D01*
X15240000Y-72931000D01*
X14224000Y-72931000D01*
X14224000Y-72951000D01*
X13970000Y-72951000D01*
X13970000Y-72931000D01*
X12954000Y-72931000D01*
X12954000Y-72951000D01*
X12700000Y-72951000D01*
X12700000Y-72931000D01*
X12050750Y-72931000D01*
X11892000Y-73089750D01*
X11892000Y-73705309D01*
X11952554Y-73851500D01*
X11563290Y-73851500D01*
X10841000Y-73129211D01*
X10841000Y-71902691D01*
X11892000Y-71902691D01*
X11892000Y-72518250D01*
X12050750Y-72677000D01*
X12700000Y-72677000D01*
X12700000Y-71552750D01*
X12954000Y-71552750D01*
X12954000Y-72677000D01*
X13970000Y-72677000D01*
X13970000Y-71552750D01*
X14224000Y-71552750D01*
X14224000Y-72677000D01*
X15240000Y-72677000D01*
X15240000Y-71552750D01*
X15494000Y-71552750D01*
X15494000Y-72677000D01*
X16510000Y-72677000D01*
X16510000Y-71552750D01*
X16764000Y-71552750D01*
X16764000Y-72677000D01*
X17413250Y-72677000D01*
X17572000Y-72518250D01*
X17572000Y-71902691D01*
X17475327Y-71669302D01*
X17296699Y-71490673D01*
X17063310Y-71394000D01*
X16922750Y-71394000D01*
X16764000Y-71552750D01*
X16510000Y-71552750D01*
X16351250Y-71394000D01*
X16210690Y-71394000D01*
X16002000Y-71480442D01*
X15793310Y-71394000D01*
X15652750Y-71394000D01*
X15494000Y-71552750D01*
X15240000Y-71552750D01*
X15081250Y-71394000D01*
X14940690Y-71394000D01*
X14732000Y-71480442D01*
X14523310Y-71394000D01*
X14382750Y-71394000D01*
X14224000Y-71552750D01*
X13970000Y-71552750D01*
X13811250Y-71394000D01*
X13670690Y-71394000D01*
X13462000Y-71480442D01*
X13253310Y-71394000D01*
X13112750Y-71394000D01*
X12954000Y-71552750D01*
X12700000Y-71552750D01*
X12541250Y-71394000D01*
X12400690Y-71394000D01*
X12167301Y-71490673D01*
X11988673Y-71669302D01*
X11892000Y-71902691D01*
X10841000Y-71902691D01*
X10841000Y-68828000D01*
X10878250Y-68828000D01*
X11037000Y-68669250D01*
X11037000Y-67945000D01*
X11017000Y-67945000D01*
X11017000Y-67691000D01*
X11037000Y-67691000D01*
X11037000Y-66966750D01*
X11291000Y-66966750D01*
X11291000Y-67691000D01*
X11311000Y-67691000D01*
X11311000Y-67945000D01*
X11291000Y-67945000D01*
X11291000Y-68669250D01*
X11449750Y-68828000D01*
X11690309Y-68828000D01*
X11923698Y-68731327D01*
X12052500Y-68602526D01*
X12167301Y-68717327D01*
X12400690Y-68814000D01*
X12541250Y-68814000D01*
X12700000Y-68655250D01*
X12700000Y-67531000D01*
X12680000Y-67531000D01*
X12680000Y-67277000D01*
X12700000Y-67277000D01*
X12700000Y-66152750D01*
X12541250Y-65994000D01*
X12400690Y-65994000D01*
X12167301Y-66090673D01*
X11988673Y-66269302D01*
X11892000Y-66502691D01*
X11892000Y-66891543D01*
X11690309Y-66808000D01*
X11449750Y-66808000D01*
X11291000Y-66966750D01*
X11037000Y-66966750D01*
X10878250Y-66808000D01*
X10637691Y-66808000D01*
X10404302Y-66904673D01*
X10403102Y-66905873D01*
X10311765Y-66844843D01*
X10064000Y-66795560D01*
X9264000Y-66795560D01*
X9190718Y-66810137D01*
X9000819Y-66683250D01*
X8728086Y-66629000D01*
X8636000Y-66610683D01*
X8543914Y-66629000D01*
X7727000Y-66629000D01*
X7727000Y-65245750D01*
X7568250Y-65087000D01*
X5969000Y-65087000D01*
X5969000Y-65107000D01*
X5715000Y-65107000D01*
X5715000Y-65087000D01*
X5695000Y-65087000D01*
X5695000Y-64833000D01*
X5715000Y-64833000D01*
X5715000Y-62483750D01*
X5969000Y-62483750D01*
X5969000Y-64833000D01*
X7568250Y-64833000D01*
X7727000Y-64674250D01*
X7727000Y-62833691D01*
X7630327Y-62600302D01*
X7451699Y-62421673D01*
X7218310Y-62325000D01*
X6127750Y-62325000D01*
X5969000Y-62483750D01*
X5715000Y-62483750D01*
X5556250Y-62325000D01*
X4465690Y-62325000D01*
X4237000Y-62419727D01*
X4237000Y-59486504D01*
X4344235Y-59558157D01*
X4592000Y-59607440D01*
X7092000Y-59607440D01*
X7339765Y-59558157D01*
X7549809Y-59417809D01*
X7690157Y-59207765D01*
X7739440Y-58960000D01*
X7739440Y-58083729D01*
X10068741Y-60413031D01*
X10068741Y-60413031D01*
G37*
X10068741Y-60413031D02*
X10120903Y-60491097D01*
X10198969Y-60543259D01*
X10430181Y-60697750D01*
X10732560Y-60757897D01*
X10732560Y-62517000D01*
X10781843Y-62764765D01*
X10922191Y-62974809D01*
X11132235Y-63115157D01*
X11380000Y-63164440D01*
X11895000Y-63164440D01*
X11895000Y-63283914D01*
X11876683Y-63376000D01*
X11895000Y-63468085D01*
X11949250Y-63740818D01*
X12155903Y-64050097D01*
X12233972Y-64102261D01*
X13162001Y-65030290D01*
X13162001Y-65994000D01*
X13112750Y-65994000D01*
X12954000Y-66152750D01*
X12954000Y-67277000D01*
X12974000Y-67277000D01*
X12974000Y-67531000D01*
X12954000Y-67531000D01*
X12954000Y-68655250D01*
X13112750Y-68814000D01*
X13253310Y-68814000D01*
X13470028Y-68724232D01*
X13549235Y-68777157D01*
X13797000Y-68826440D01*
X14397000Y-68826440D01*
X14644765Y-68777157D01*
X14732000Y-68718868D01*
X14819235Y-68777157D01*
X15067000Y-68826440D01*
X15667000Y-68826440D01*
X15914765Y-68777157D01*
X16002000Y-68718868D01*
X16089235Y-68777157D01*
X16337000Y-68826440D01*
X16937000Y-68826440D01*
X17184765Y-68777157D01*
X17278000Y-68714859D01*
X17278000Y-68840309D01*
X17374673Y-69073698D01*
X17553301Y-69252327D01*
X17786690Y-69349000D01*
X18002250Y-69349000D01*
X18161000Y-69190250D01*
X18161000Y-68441000D01*
X18415000Y-68441000D01*
X18415000Y-69190250D01*
X18573750Y-69349000D01*
X18789310Y-69349000D01*
X19022699Y-69252327D01*
X19201327Y-69073698D01*
X19298000Y-68840309D01*
X19298000Y-68599750D01*
X19139250Y-68441000D01*
X18415000Y-68441000D01*
X18161000Y-68441000D01*
X18141000Y-68441000D01*
X18141000Y-68187000D01*
X18161000Y-68187000D01*
X18161000Y-68167000D01*
X18415000Y-68167000D01*
X18415000Y-68187000D01*
X19139250Y-68187000D01*
X19248448Y-68077803D01*
X19995520Y-68824875D01*
X17910197Y-70910197D01*
X17882667Y-70951399D01*
X17873000Y-71000000D01*
X17873000Y-79947394D01*
X9947394Y-87873000D01*
X735000Y-87873000D01*
X735000Y-85085750D01*
X1925000Y-85085750D01*
X1925000Y-86626309D01*
X2021673Y-86859698D01*
X2200301Y-87038327D01*
X2433690Y-87135000D01*
X5294250Y-87135000D01*
X5453000Y-86976250D01*
X5453000Y-84927000D01*
X5707000Y-84927000D01*
X5707000Y-86976250D01*
X5865750Y-87135000D01*
X8726310Y-87135000D01*
X8959699Y-87038327D01*
X9138327Y-86859698D01*
X9235000Y-86626309D01*
X9235000Y-85085750D01*
X9076250Y-84927000D01*
X5707000Y-84927000D01*
X5453000Y-84927000D01*
X2083750Y-84927000D01*
X1925000Y-85085750D01*
X735000Y-85085750D01*
X735000Y-82973691D01*
X1925000Y-82973691D01*
X1925000Y-84514250D01*
X2083750Y-84673000D01*
X5453000Y-84673000D01*
X5453000Y-82623750D01*
X5707000Y-82623750D01*
X5707000Y-84673000D01*
X9076250Y-84673000D01*
X9235000Y-84514250D01*
X9235000Y-82973691D01*
X9138327Y-82740302D01*
X8959699Y-82561673D01*
X8726310Y-82465000D01*
X5865750Y-82465000D01*
X5707000Y-82623750D01*
X5453000Y-82623750D01*
X5294250Y-82465000D01*
X2433690Y-82465000D01*
X2200301Y-82561673D01*
X2021673Y-82740302D01*
X1925000Y-82973691D01*
X735000Y-82973691D01*
X735000Y-78113789D01*
X2575740Y-79954530D01*
X2627903Y-80032597D01*
X2937181Y-80239250D01*
X3209914Y-80293500D01*
X3209918Y-80293500D01*
X3301999Y-80311816D01*
X3394080Y-80293500D01*
X3744095Y-80293500D01*
X3665000Y-80484452D01*
X3665000Y-81015548D01*
X3868242Y-81506217D01*
X4243783Y-81881758D01*
X4734452Y-82085000D01*
X5265548Y-82085000D01*
X5756217Y-81881758D01*
X6131758Y-81506217D01*
X6335000Y-81015548D01*
X6335000Y-80484452D01*
X6255905Y-80293500D01*
X6724711Y-80293500D01*
X8417741Y-81986531D01*
X8469903Y-82064597D01*
X8547969Y-82116759D01*
X8779181Y-82271250D01*
X9144000Y-82343817D01*
X9236086Y-82325500D01*
X14385914Y-82325500D01*
X14478000Y-82343817D01*
X14570086Y-82325500D01*
X14842819Y-82271250D01*
X15152097Y-82064597D01*
X15204261Y-81986528D01*
X16598031Y-80592759D01*
X16676097Y-80540597D01*
X16882750Y-80231319D01*
X16937000Y-79958586D01*
X16937000Y-79958582D01*
X16955316Y-79866501D01*
X16937000Y-79774420D01*
X16937000Y-77308086D01*
X16955317Y-77216000D01*
X16882750Y-76851181D01*
X16728259Y-76619969D01*
X16676097Y-76541903D01*
X16598031Y-76489741D01*
X14298761Y-74190472D01*
X14246597Y-74112403D01*
X14224002Y-74097306D01*
X14224002Y-74055252D01*
X14382750Y-74214000D01*
X14523310Y-74214000D01*
X14732000Y-74127558D01*
X14940690Y-74214000D01*
X15081250Y-74214000D01*
X15240000Y-74055250D01*
X15240000Y-72931000D01*
X15494000Y-72931000D01*
X15494000Y-74055250D01*
X15652750Y-74214000D01*
X15793310Y-74214000D01*
X16002000Y-74127558D01*
X16210690Y-74214000D01*
X16351250Y-74214000D01*
X16510000Y-74055250D01*
X16510000Y-72931000D01*
X16764000Y-72931000D01*
X16764000Y-74055250D01*
X16922750Y-74214000D01*
X17063310Y-74214000D01*
X17296699Y-74117327D01*
X17475327Y-73938698D01*
X17572000Y-73705309D01*
X17572000Y-73089750D01*
X17413250Y-72931000D01*
X16764000Y-72931000D01*
X16510000Y-72931000D01*
X15494000Y-72931000D01*
X15240000Y-72931000D01*
X14224000Y-72931000D01*
X14224000Y-72951000D01*
X13970000Y-72951000D01*
X13970000Y-72931000D01*
X12954000Y-72931000D01*
X12954000Y-72951000D01*
X12700000Y-72951000D01*
X12700000Y-72931000D01*
X12050750Y-72931000D01*
X11892000Y-73089750D01*
X11892000Y-73705309D01*
X11952554Y-73851500D01*
X11563290Y-73851500D01*
X10841000Y-73129211D01*
X10841000Y-71902691D01*
X11892000Y-71902691D01*
X11892000Y-72518250D01*
X12050750Y-72677000D01*
X12700000Y-72677000D01*
X12700000Y-71552750D01*
X12954000Y-71552750D01*
X12954000Y-72677000D01*
X13970000Y-72677000D01*
X13970000Y-71552750D01*
X14224000Y-71552750D01*
X14224000Y-72677000D01*
X15240000Y-72677000D01*
X15240000Y-71552750D01*
X15494000Y-71552750D01*
X15494000Y-72677000D01*
X16510000Y-72677000D01*
X16510000Y-71552750D01*
X16764000Y-71552750D01*
X16764000Y-72677000D01*
X17413250Y-72677000D01*
X17572000Y-72518250D01*
X17572000Y-71902691D01*
X17475327Y-71669302D01*
X17296699Y-71490673D01*
X17063310Y-71394000D01*
X16922750Y-71394000D01*
X16764000Y-71552750D01*
X16510000Y-71552750D01*
X16351250Y-71394000D01*
X16210690Y-71394000D01*
X16002000Y-71480442D01*
X15793310Y-71394000D01*
X15652750Y-71394000D01*
X15494000Y-71552750D01*
X15240000Y-71552750D01*
X15081250Y-71394000D01*
X14940690Y-71394000D01*
X14732000Y-71480442D01*
X14523310Y-71394000D01*
X14382750Y-71394000D01*
X14224000Y-71552750D01*
X13970000Y-71552750D01*
X13811250Y-71394000D01*
X13670690Y-71394000D01*
X13462000Y-71480442D01*
X13253310Y-71394000D01*
X13112750Y-71394000D01*
X12954000Y-71552750D01*
X12700000Y-71552750D01*
X12541250Y-71394000D01*
X12400690Y-71394000D01*
X12167301Y-71490673D01*
X11988673Y-71669302D01*
X11892000Y-71902691D01*
X10841000Y-71902691D01*
X10841000Y-68828000D01*
X10878250Y-68828000D01*
X11037000Y-68669250D01*
X11037000Y-67945000D01*
X11017000Y-67945000D01*
X11017000Y-67691000D01*
X11037000Y-67691000D01*
X11037000Y-66966750D01*
X11291000Y-66966750D01*
X11291000Y-67691000D01*
X11311000Y-67691000D01*
X11311000Y-67945000D01*
X11291000Y-67945000D01*
X11291000Y-68669250D01*
X11449750Y-68828000D01*
X11690309Y-68828000D01*
X11923698Y-68731327D01*
X12052500Y-68602526D01*
X12167301Y-68717327D01*
X12400690Y-68814000D01*
X12541250Y-68814000D01*
X12700000Y-68655250D01*
X12700000Y-67531000D01*
X12680000Y-67531000D01*
X12680000Y-67277000D01*
X12700000Y-67277000D01*
X12700000Y-66152750D01*
X12541250Y-65994000D01*
X12400690Y-65994000D01*
X12167301Y-66090673D01*
X11988673Y-66269302D01*
X11892000Y-66502691D01*
X11892000Y-66891543D01*
X11690309Y-66808000D01*
X11449750Y-66808000D01*
X11291000Y-66966750D01*
X11037000Y-66966750D01*
X10878250Y-66808000D01*
X10637691Y-66808000D01*
X10404302Y-66904673D01*
X10403102Y-66905873D01*
X10311765Y-66844843D01*
X10064000Y-66795560D01*
X9264000Y-66795560D01*
X9190718Y-66810137D01*
X9000819Y-66683250D01*
X8728086Y-66629000D01*
X8636000Y-66610683D01*
X8543914Y-66629000D01*
X7727000Y-66629000D01*
X7727000Y-65245750D01*
X7568250Y-65087000D01*
X5969000Y-65087000D01*
X5969000Y-65107000D01*
X5715000Y-65107000D01*
X5715000Y-65087000D01*
X5695000Y-65087000D01*
X5695000Y-64833000D01*
X5715000Y-64833000D01*
X5715000Y-62483750D01*
X5969000Y-62483750D01*
X5969000Y-64833000D01*
X7568250Y-64833000D01*
X7727000Y-64674250D01*
X7727000Y-62833691D01*
X7630327Y-62600302D01*
X7451699Y-62421673D01*
X7218310Y-62325000D01*
X6127750Y-62325000D01*
X5969000Y-62483750D01*
X5715000Y-62483750D01*
X5556250Y-62325000D01*
X4465690Y-62325000D01*
X4237000Y-62419727D01*
X4237000Y-59486504D01*
X4344235Y-59558157D01*
X4592000Y-59607440D01*
X7092000Y-59607440D01*
X7339765Y-59558157D01*
X7549809Y-59417809D01*
X7690157Y-59207765D01*
X7739440Y-58960000D01*
X7739440Y-58083729D01*
X10068741Y-60413031D01*
G36*
X15067000Y-77603290D02*
X15067001Y-79479209D01*
X14104293Y-80441918D01*
X14147440Y-80225000D01*
X14147440Y-79525000D01*
X14098157Y-79277235D01*
X14075916Y-79243950D01*
X14135000Y-79101309D01*
X14135000Y-78910750D01*
X13976250Y-78752000D01*
X12127000Y-78752000D01*
X12127000Y-78772000D01*
X11873000Y-78772000D01*
X11873000Y-78752000D01*
X10023750Y-78752000D01*
X9945026Y-78830724D01*
X9715482Y-78601180D01*
X9734331Y-78572971D01*
X9916526Y-78390776D01*
X10023750Y-78498000D01*
X11873000Y-78498000D01*
X11873000Y-78478000D01*
X12127000Y-78478000D01*
X12127000Y-78498000D01*
X13976250Y-78498000D01*
X14135000Y-78339250D01*
X14135000Y-78148691D01*
X14075916Y-78006050D01*
X14098157Y-77972765D01*
X14147440Y-77725000D01*
X14147440Y-77025000D01*
X14098157Y-76777235D01*
X14079959Y-76750000D01*
X14098157Y-76722765D01*
X14112810Y-76649099D01*
X15067000Y-77603290D01*
X15067000Y-77603290D01*
G37*
X15067000Y-77603290D02*
X15067001Y-79479209D01*
X14104293Y-80441918D01*
X14147440Y-80225000D01*
X14147440Y-79525000D01*
X14098157Y-79277235D01*
X14075916Y-79243950D01*
X14135000Y-79101309D01*
X14135000Y-78910750D01*
X13976250Y-78752000D01*
X12127000Y-78752000D01*
X12127000Y-78772000D01*
X11873000Y-78772000D01*
X11873000Y-78752000D01*
X10023750Y-78752000D01*
X9945026Y-78830724D01*
X9715482Y-78601180D01*
X9734331Y-78572971D01*
X9916526Y-78390776D01*
X10023750Y-78498000D01*
X11873000Y-78498000D01*
X11873000Y-78478000D01*
X12127000Y-78478000D01*
X12127000Y-78498000D01*
X13976250Y-78498000D01*
X14135000Y-78339250D01*
X14135000Y-78148691D01*
X14075916Y-78006050D01*
X14098157Y-77972765D01*
X14147440Y-77725000D01*
X14147440Y-77025000D01*
X14098157Y-76777235D01*
X14079959Y-76750000D01*
X14098157Y-76722765D01*
X14112810Y-76649099D01*
X15067000Y-77603290D01*
G36*
X5707000Y-71073000D02*
X5727000Y-71073000D01*
X5727000Y-71327000D01*
X5707000Y-71327000D01*
X5707000Y-73376250D01*
X5865750Y-73535000D01*
X8384000Y-73535000D01*
X8384000Y-75007653D01*
X8369112Y-75082500D01*
X8384000Y-75157347D01*
X8384000Y-75157351D01*
X8428096Y-75379036D01*
X8596071Y-75630429D01*
X8659530Y-75672831D01*
X9596171Y-76609473D01*
X9621308Y-76647093D01*
X9560963Y-76659096D01*
X9498402Y-76700898D01*
X9373026Y-76784671D01*
X9373024Y-76784673D01*
X9309571Y-76827071D01*
X9267172Y-76890525D01*
X8829198Y-77328500D01*
X4124802Y-77328500D01*
X2792000Y-75995699D01*
X2792000Y-74984452D01*
X3665000Y-74984452D01*
X3665000Y-75515548D01*
X3868242Y-76006217D01*
X4243783Y-76381758D01*
X4734452Y-76585000D01*
X5265548Y-76585000D01*
X5756217Y-76381758D01*
X6131758Y-76006217D01*
X6335000Y-75515548D01*
X6335000Y-74984452D01*
X6131758Y-74493783D01*
X5756217Y-74118242D01*
X5265548Y-73915000D01*
X4734452Y-73915000D01*
X4243783Y-74118242D01*
X3868242Y-74493783D01*
X3665000Y-74984452D01*
X2792000Y-74984452D01*
X2792000Y-73535000D01*
X5294250Y-73535000D01*
X5453000Y-73376250D01*
X5453000Y-71327000D01*
X5433000Y-71327000D01*
X5433000Y-71073000D01*
X5453000Y-71073000D01*
X5453000Y-71053000D01*
X5707000Y-71053000D01*
X5707000Y-71073000D01*
X5707000Y-71073000D01*
G37*
X5707000Y-71073000D02*
X5727000Y-71073000D01*
X5727000Y-71327000D01*
X5707000Y-71327000D01*
X5707000Y-73376250D01*
X5865750Y-73535000D01*
X8384000Y-73535000D01*
X8384000Y-75007653D01*
X8369112Y-75082500D01*
X8384000Y-75157347D01*
X8384000Y-75157351D01*
X8428096Y-75379036D01*
X8596071Y-75630429D01*
X8659530Y-75672831D01*
X9596171Y-76609473D01*
X9621308Y-76647093D01*
X9560963Y-76659096D01*
X9498402Y-76700898D01*
X9373026Y-76784671D01*
X9373024Y-76784673D01*
X9309571Y-76827071D01*
X9267172Y-76890525D01*
X8829198Y-77328500D01*
X4124802Y-77328500D01*
X2792000Y-75995699D01*
X2792000Y-74984452D01*
X3665000Y-74984452D01*
X3665000Y-75515548D01*
X3868242Y-76006217D01*
X4243783Y-76381758D01*
X4734452Y-76585000D01*
X5265548Y-76585000D01*
X5756217Y-76381758D01*
X6131758Y-76006217D01*
X6335000Y-75515548D01*
X6335000Y-74984452D01*
X6131758Y-74493783D01*
X5756217Y-74118242D01*
X5265548Y-73915000D01*
X4734452Y-73915000D01*
X4243783Y-74118242D01*
X3868242Y-74493783D01*
X3665000Y-74984452D01*
X2792000Y-74984452D01*
X2792000Y-73535000D01*
X5294250Y-73535000D01*
X5453000Y-73376250D01*
X5453000Y-71327000D01*
X5433000Y-71327000D01*
X5433000Y-71073000D01*
X5453000Y-71073000D01*
X5453000Y-71053000D01*
X5707000Y-71053000D01*
X5707000Y-71073000D01*
G36*
X25763000Y-34911500D02*
X25743000Y-34911500D01*
X25743000Y-35710750D01*
X25828531Y-35796281D01*
X25708191Y-35876691D01*
X25567843Y-36086735D01*
X25518560Y-36334500D01*
X25518560Y-37234500D01*
X25567843Y-37482265D01*
X25708191Y-37692309D01*
X25832964Y-37775680D01*
X25627384Y-37981260D01*
X24558500Y-37981260D01*
X24310735Y-38030543D01*
X24100691Y-38170891D01*
X23960343Y-38380935D01*
X23911060Y-38628700D01*
X23911060Y-41128700D01*
X23960343Y-41376465D01*
X24100691Y-41586509D01*
X24310735Y-41726857D01*
X24558500Y-41776140D01*
X26358500Y-41776140D01*
X26606265Y-41726857D01*
X26816309Y-41586509D01*
X26956657Y-41376465D01*
X27005940Y-41128700D01*
X27005940Y-39459416D01*
X27050356Y-39415000D01*
X27063760Y-39415000D01*
X27063760Y-39672100D01*
X27113043Y-39919865D01*
X27171332Y-40007100D01*
X27113043Y-40094335D01*
X27063760Y-40342100D01*
X27063760Y-40942100D01*
X27113043Y-41189865D01*
X27171332Y-41277100D01*
X27113043Y-41364335D01*
X27063760Y-41612100D01*
X27063760Y-42172100D01*
X26817117Y-42172100D01*
X26816309Y-42170891D01*
X26606265Y-42030543D01*
X26358500Y-41981260D01*
X24558500Y-41981260D01*
X24310735Y-42030543D01*
X24100691Y-42170891D01*
X23960343Y-42380935D01*
X23911060Y-42628700D01*
X23911060Y-42868700D01*
X23322940Y-42868700D01*
X23322940Y-42628700D01*
X23273657Y-42380935D01*
X23133309Y-42170891D01*
X22923265Y-42030543D01*
X22675500Y-41981260D01*
X20875500Y-41981260D01*
X20627735Y-42030543D01*
X20417691Y-42170891D01*
X20325524Y-42308828D01*
X20300803Y-42271831D01*
X19966716Y-42048601D01*
X19672110Y-41990000D01*
X19672105Y-41990000D01*
X19572634Y-41970214D01*
X19473163Y-41990000D01*
X19233661Y-41990000D01*
X18772799Y-41529138D01*
X18135113Y-41265000D01*
X17444887Y-41265000D01*
X16807201Y-41529138D01*
X16319138Y-42017201D01*
X16055000Y-42654887D01*
X16055000Y-43345113D01*
X16319138Y-43982799D01*
X16807201Y-44470862D01*
X17444887Y-44735000D01*
X18135113Y-44735000D01*
X18772799Y-44470862D01*
X19193970Y-44049691D01*
X19666818Y-44522540D01*
X19723165Y-44606869D01*
X19807494Y-44663216D01*
X19807495Y-44663217D01*
X19914926Y-44735000D01*
X20057252Y-44830099D01*
X20228060Y-44864075D01*
X20228060Y-45128700D01*
X20277343Y-45376465D01*
X20417691Y-45586509D01*
X20627735Y-45726857D01*
X20755144Y-45752200D01*
X20627735Y-45777543D01*
X20417691Y-45917891D01*
X20379147Y-45975576D01*
X20204082Y-45858601D01*
X19909476Y-45800000D01*
X19909471Y-45800000D01*
X19810000Y-45780214D01*
X19710529Y-45800000D01*
X19466074Y-45800000D01*
X19430414Y-45713910D01*
X18886090Y-45169586D01*
X18174895Y-44875000D01*
X17405105Y-44875000D01*
X16693910Y-45169586D01*
X16149586Y-45713910D01*
X15855000Y-46425105D01*
X15855000Y-47194895D01*
X16149586Y-47906090D01*
X16693910Y-48450414D01*
X17405105Y-48745000D01*
X18174895Y-48745000D01*
X18886090Y-48450414D01*
X19430414Y-47906090D01*
X19444274Y-47872629D01*
X19841184Y-48269540D01*
X19897531Y-48353869D01*
X19981860Y-48410216D01*
X19981862Y-48410218D01*
X20092131Y-48483897D01*
X20228060Y-48574722D01*
X20228060Y-48875700D01*
X20277343Y-49123465D01*
X20417691Y-49333509D01*
X20627735Y-49473857D01*
X20875500Y-49523140D01*
X22675500Y-49523140D01*
X22923265Y-49473857D01*
X23133309Y-49333509D01*
X23273657Y-49123465D01*
X23322940Y-48875700D01*
X23322940Y-48635700D01*
X23911060Y-48635700D01*
X23911060Y-48875700D01*
X23960343Y-49123465D01*
X24100691Y-49333509D01*
X24310735Y-49473857D01*
X24558500Y-49523140D01*
X26358500Y-49523140D01*
X26606265Y-49473857D01*
X26816309Y-49333509D01*
X26857341Y-49272100D01*
X27063760Y-49272100D01*
X27063760Y-49832100D01*
X27113043Y-50079865D01*
X27171332Y-50167100D01*
X27113043Y-50254335D01*
X27063760Y-50502100D01*
X27063760Y-51102100D01*
X27113043Y-51349865D01*
X27253391Y-51559909D01*
X27455567Y-51695000D01*
X27005940Y-51695000D01*
X27005940Y-50375700D01*
X26956657Y-50127935D01*
X26816309Y-49917891D01*
X26606265Y-49777543D01*
X26358500Y-49728260D01*
X24558500Y-49728260D01*
X24310735Y-49777543D01*
X24100691Y-49917891D01*
X23960343Y-50127935D01*
X23911060Y-50375700D01*
X23911060Y-52875700D01*
X23960343Y-53123465D01*
X24100691Y-53333509D01*
X24310735Y-53473857D01*
X24558500Y-53523140D01*
X24881000Y-53523140D01*
X24881000Y-54483250D01*
X25039750Y-54642000D01*
X26289000Y-54642000D01*
X26289000Y-54622000D01*
X26543000Y-54622000D01*
X26543000Y-54642000D01*
X27792250Y-54642000D01*
X27951000Y-54483250D01*
X27951000Y-53715000D01*
X29950639Y-53715000D01*
X29997101Y-53948581D01*
X29997102Y-53948582D01*
X30124084Y-54138626D01*
X29924191Y-54272191D01*
X29783843Y-54482235D01*
X29734560Y-54730000D01*
X29734560Y-57030000D01*
X29783843Y-57277765D01*
X29924191Y-57487809D01*
X29951478Y-57506042D01*
X29883691Y-57607492D01*
X29883690Y-57607493D01*
X29630063Y-57987073D01*
X29510929Y-58586000D01*
X29541001Y-58737182D01*
X29541001Y-59871074D01*
X29350810Y-60061265D01*
X29041000Y-60809213D01*
X29041000Y-61618787D01*
X29350810Y-62366735D01*
X29541000Y-62556925D01*
X29541000Y-62873000D01*
X26000000Y-62873000D01*
X25951399Y-62882667D01*
X25910197Y-62910197D01*
X22569834Y-66250560D01*
X21864000Y-66250560D01*
X21616235Y-66299843D01*
X21406191Y-66440191D01*
X21265843Y-66650235D01*
X21216560Y-66898000D01*
X21216560Y-67189205D01*
X20197518Y-66170163D01*
X20141169Y-66085831D01*
X19807082Y-65862601D01*
X19512476Y-65804000D01*
X19512471Y-65804000D01*
X19413000Y-65784214D01*
X19313529Y-65804000D01*
X18851226Y-65804000D01*
X18663000Y-65766560D01*
X17913000Y-65766560D01*
X17724774Y-65804000D01*
X17326470Y-65804000D01*
X17226999Y-65784214D01*
X17127528Y-65804000D01*
X17127524Y-65804000D01*
X16832918Y-65862601D01*
X16654883Y-65981560D01*
X16337000Y-65981560D01*
X16302000Y-65988522D01*
X16302000Y-65867289D01*
X20632560Y-61536730D01*
X20632560Y-62517000D01*
X20681843Y-62764765D01*
X20822191Y-62974809D01*
X21032235Y-63115157D01*
X21280000Y-63164440D01*
X24180000Y-63164440D01*
X24427765Y-63115157D01*
X24637809Y-62974809D01*
X24778157Y-62764765D01*
X24827440Y-62517000D01*
X24827440Y-59704000D01*
X24868560Y-59704000D01*
X24868560Y-60019000D01*
X24917843Y-60266765D01*
X25058191Y-60476809D01*
X25268235Y-60617157D01*
X25516000Y-60666440D01*
X27316000Y-60666440D01*
X27563765Y-60617157D01*
X27773809Y-60476809D01*
X27914157Y-60266765D01*
X27963440Y-60019000D01*
X27963440Y-57519000D01*
X27914157Y-57271235D01*
X27773809Y-57061191D01*
X27563765Y-56920843D01*
X27316000Y-56871560D01*
X25516000Y-56871560D01*
X25268235Y-56920843D01*
X25058191Y-57061191D01*
X24917843Y-57271235D01*
X24868560Y-57519000D01*
X24868560Y-57834000D01*
X24827440Y-57834000D01*
X24827440Y-57117000D01*
X24778157Y-56869235D01*
X24637809Y-56659191D01*
X24427765Y-56518843D01*
X24180000Y-56469560D01*
X21280000Y-56469560D01*
X21032235Y-56518843D01*
X20822191Y-56659191D01*
X20681843Y-56869235D01*
X20632560Y-57117000D01*
X20632560Y-58958047D01*
X20355903Y-59142903D01*
X20303741Y-59220969D01*
X15022343Y-64502367D01*
X14977750Y-64278181D01*
X14940004Y-64221690D01*
X14771097Y-63968903D01*
X14693028Y-63916739D01*
X13940729Y-63164440D01*
X14280000Y-63164440D01*
X14527765Y-63115157D01*
X14737809Y-62974809D01*
X14878157Y-62764765D01*
X14927440Y-62517000D01*
X14927440Y-57117000D01*
X14878157Y-56869235D01*
X14737809Y-56659191D01*
X14527765Y-56518843D01*
X14280000Y-56469560D01*
X11380000Y-56469560D01*
X11132235Y-56518843D01*
X10922191Y-56659191D01*
X10781843Y-56869235D01*
X10732560Y-57117000D01*
X10732560Y-58432270D01*
X8664261Y-56363972D01*
X8612097Y-56285903D01*
X8302819Y-56079250D01*
X8030086Y-56025000D01*
X7938000Y-56006683D01*
X7845914Y-56025000D01*
X7739440Y-56025000D01*
X7739440Y-55054750D01*
X24881000Y-55054750D01*
X24881000Y-56145309D01*
X24977673Y-56378698D01*
X25156301Y-56557327D01*
X25389690Y-56654000D01*
X26130250Y-56654000D01*
X26289000Y-56495250D01*
X26289000Y-54896000D01*
X26543000Y-54896000D01*
X26543000Y-56495250D01*
X26701750Y-56654000D01*
X27442310Y-56654000D01*
X27675699Y-56557327D01*
X27854327Y-56378698D01*
X27951000Y-56145309D01*
X27951000Y-55054750D01*
X27792250Y-54896000D01*
X26543000Y-54896000D01*
X26289000Y-54896000D01*
X25039750Y-54896000D01*
X24881000Y-55054750D01*
X7739440Y-55054750D01*
X7739440Y-54960000D01*
X7690157Y-54712235D01*
X7549809Y-54502191D01*
X7339765Y-54361843D01*
X7092000Y-54312560D01*
X4592000Y-54312560D01*
X4344235Y-54361843D01*
X4134191Y-54502191D01*
X3993843Y-54712235D01*
X3944560Y-54960000D01*
X3944560Y-56075793D01*
X3927181Y-56079250D01*
X3617903Y-56285903D01*
X3565741Y-56363969D01*
X3300000Y-56629710D01*
X3300000Y-51911450D01*
X20240500Y-51911450D01*
X20240500Y-53002009D01*
X20337173Y-53235398D01*
X20515801Y-53414027D01*
X20749190Y-53510700D01*
X21489750Y-53510700D01*
X21648500Y-53351950D01*
X21648500Y-51752700D01*
X21902500Y-51752700D01*
X21902500Y-53351950D01*
X22061250Y-53510700D01*
X22801810Y-53510700D01*
X23035199Y-53414027D01*
X23213827Y-53235398D01*
X23310500Y-53002009D01*
X23310500Y-51911450D01*
X23151750Y-51752700D01*
X21902500Y-51752700D01*
X21648500Y-51752700D01*
X20399250Y-51752700D01*
X20240500Y-51911450D01*
X3300000Y-51911450D01*
X3300000Y-50249391D01*
X20240500Y-50249391D01*
X20240500Y-51339950D01*
X20399250Y-51498700D01*
X21648500Y-51498700D01*
X21648500Y-49899450D01*
X21902500Y-49899450D01*
X21902500Y-51498700D01*
X23151750Y-51498700D01*
X23310500Y-51339950D01*
X23310500Y-50249391D01*
X23213827Y-50016002D01*
X23035199Y-49837373D01*
X22801810Y-49740700D01*
X22061250Y-49740700D01*
X21902500Y-49899450D01*
X21648500Y-49899450D01*
X21489750Y-49740700D01*
X20749190Y-49740700D01*
X20515801Y-49837373D01*
X20337173Y-50016002D01*
X20240500Y-50249391D01*
X3300000Y-50249391D01*
X3300000Y-48147842D01*
X3534561Y-48245000D01*
X4105439Y-48245000D01*
X4632862Y-48026534D01*
X5036534Y-47622862D01*
X5255000Y-47095439D01*
X5255000Y-46524561D01*
X5036534Y-45997138D01*
X4632862Y-45593466D01*
X4105439Y-45375000D01*
X3534561Y-45375000D01*
X3300000Y-45472158D01*
X3300000Y-42654887D01*
X10975000Y-42654887D01*
X10975000Y-43345113D01*
X11239138Y-43982799D01*
X11727201Y-44470862D01*
X12364887Y-44735000D01*
X13055113Y-44735000D01*
X13692799Y-44470862D01*
X14180862Y-43982799D01*
X14445000Y-43345113D01*
X14445000Y-42654887D01*
X14180862Y-42017201D01*
X13692799Y-41529138D01*
X13055113Y-41265000D01*
X12364887Y-41265000D01*
X11727201Y-41529138D01*
X11239138Y-42017201D01*
X10975000Y-42654887D01*
X3300000Y-42654887D01*
X3300000Y-37126904D01*
X3426463Y-37211404D01*
X3648148Y-37255500D01*
X3648152Y-37255500D01*
X3722999Y-37270388D01*
X3797846Y-37255500D01*
X6757699Y-37255500D01*
X7498170Y-37995972D01*
X7540571Y-38059429D01*
X7791963Y-38227404D01*
X7826358Y-38234246D01*
X7683466Y-38377138D01*
X7465000Y-38904561D01*
X7465000Y-39475439D01*
X7683466Y-40002862D01*
X8087138Y-40406534D01*
X8614561Y-40625000D01*
X9185439Y-40625000D01*
X9712862Y-40406534D01*
X10116534Y-40002862D01*
X10335000Y-39475439D01*
X10335000Y-38904561D01*
X10116534Y-38377138D01*
X10010896Y-38271500D01*
X11329699Y-38271500D01*
X12023670Y-38965472D01*
X12066071Y-39028929D01*
X12317463Y-39196904D01*
X12539148Y-39241000D01*
X12539152Y-39241000D01*
X12613999Y-39255888D01*
X12688846Y-39241000D01*
X14927721Y-39241000D01*
X15361195Y-39674475D01*
X15403594Y-39737929D01*
X15467047Y-39780327D01*
X15467049Y-39780329D01*
X15592425Y-39864102D01*
X15654986Y-39905904D01*
X15876671Y-39950000D01*
X15876675Y-39950000D01*
X15951522Y-39964888D01*
X16011591Y-39952940D01*
X16149586Y-40286090D01*
X16693910Y-40830414D01*
X17405105Y-41125000D01*
X18174895Y-41125000D01*
X18886090Y-40830414D01*
X19430414Y-40286090D01*
X19480798Y-40164450D01*
X20240500Y-40164450D01*
X20240500Y-41255009D01*
X20337173Y-41488398D01*
X20515801Y-41667027D01*
X20749190Y-41763700D01*
X21489750Y-41763700D01*
X21648500Y-41604950D01*
X21648500Y-40005700D01*
X21902500Y-40005700D01*
X21902500Y-41604950D01*
X22061250Y-41763700D01*
X22801810Y-41763700D01*
X23035199Y-41667027D01*
X23213827Y-41488398D01*
X23310500Y-41255009D01*
X23310500Y-40164450D01*
X23151750Y-40005700D01*
X21902500Y-40005700D01*
X21648500Y-40005700D01*
X20399250Y-40005700D01*
X20240500Y-40164450D01*
X19480798Y-40164450D01*
X19725000Y-39574895D01*
X19725000Y-38805105D01*
X19599613Y-38502391D01*
X20240500Y-38502391D01*
X20240500Y-39592950D01*
X20399250Y-39751700D01*
X21648500Y-39751700D01*
X21648500Y-38152450D01*
X21902500Y-38152450D01*
X21902500Y-39751700D01*
X23151750Y-39751700D01*
X23310500Y-39592950D01*
X23310500Y-38502391D01*
X23213827Y-38269002D01*
X23035199Y-38090373D01*
X22801810Y-37993700D01*
X22061250Y-37993700D01*
X21902500Y-38152450D01*
X21648500Y-38152450D01*
X21489750Y-37993700D01*
X20749190Y-37993700D01*
X20515801Y-38090373D01*
X20337173Y-38269002D01*
X20240500Y-38502391D01*
X19599613Y-38502391D01*
X19430414Y-38093910D01*
X18886090Y-37549586D01*
X18843658Y-37532010D01*
X21192143Y-37532010D01*
X21266990Y-37546898D01*
X21341837Y-37532010D01*
X21341842Y-37532010D01*
X21563527Y-37487914D01*
X21814919Y-37319939D01*
X21857321Y-37256480D01*
X24043551Y-35070250D01*
X24581000Y-35070250D01*
X24581000Y-35360809D01*
X24677673Y-35594198D01*
X24856301Y-35772827D01*
X25089690Y-35869500D01*
X25330250Y-35869500D01*
X25489000Y-35710750D01*
X25489000Y-34911500D01*
X24739750Y-34911500D01*
X24581000Y-35070250D01*
X24043551Y-35070250D01*
X24344303Y-34769499D01*
X25763000Y-34769499D01*
X25763000Y-34911500D01*
X25763000Y-34911500D01*
G37*
X25763000Y-34911500D02*
X25743000Y-34911500D01*
X25743000Y-35710750D01*
X25828531Y-35796281D01*
X25708191Y-35876691D01*
X25567843Y-36086735D01*
X25518560Y-36334500D01*
X25518560Y-37234500D01*
X25567843Y-37482265D01*
X25708191Y-37692309D01*
X25832964Y-37775680D01*
X25627384Y-37981260D01*
X24558500Y-37981260D01*
X24310735Y-38030543D01*
X24100691Y-38170891D01*
X23960343Y-38380935D01*
X23911060Y-38628700D01*
X23911060Y-41128700D01*
X23960343Y-41376465D01*
X24100691Y-41586509D01*
X24310735Y-41726857D01*
X24558500Y-41776140D01*
X26358500Y-41776140D01*
X26606265Y-41726857D01*
X26816309Y-41586509D01*
X26956657Y-41376465D01*
X27005940Y-41128700D01*
X27005940Y-39459416D01*
X27050356Y-39415000D01*
X27063760Y-39415000D01*
X27063760Y-39672100D01*
X27113043Y-39919865D01*
X27171332Y-40007100D01*
X27113043Y-40094335D01*
X27063760Y-40342100D01*
X27063760Y-40942100D01*
X27113043Y-41189865D01*
X27171332Y-41277100D01*
X27113043Y-41364335D01*
X27063760Y-41612100D01*
X27063760Y-42172100D01*
X26817117Y-42172100D01*
X26816309Y-42170891D01*
X26606265Y-42030543D01*
X26358500Y-41981260D01*
X24558500Y-41981260D01*
X24310735Y-42030543D01*
X24100691Y-42170891D01*
X23960343Y-42380935D01*
X23911060Y-42628700D01*
X23911060Y-42868700D01*
X23322940Y-42868700D01*
X23322940Y-42628700D01*
X23273657Y-42380935D01*
X23133309Y-42170891D01*
X22923265Y-42030543D01*
X22675500Y-41981260D01*
X20875500Y-41981260D01*
X20627735Y-42030543D01*
X20417691Y-42170891D01*
X20325524Y-42308828D01*
X20300803Y-42271831D01*
X19966716Y-42048601D01*
X19672110Y-41990000D01*
X19672105Y-41990000D01*
X19572634Y-41970214D01*
X19473163Y-41990000D01*
X19233661Y-41990000D01*
X18772799Y-41529138D01*
X18135113Y-41265000D01*
X17444887Y-41265000D01*
X16807201Y-41529138D01*
X16319138Y-42017201D01*
X16055000Y-42654887D01*
X16055000Y-43345113D01*
X16319138Y-43982799D01*
X16807201Y-44470862D01*
X17444887Y-44735000D01*
X18135113Y-44735000D01*
X18772799Y-44470862D01*
X19193970Y-44049691D01*
X19666818Y-44522540D01*
X19723165Y-44606869D01*
X19807494Y-44663216D01*
X19807495Y-44663217D01*
X19914926Y-44735000D01*
X20057252Y-44830099D01*
X20228060Y-44864075D01*
X20228060Y-45128700D01*
X20277343Y-45376465D01*
X20417691Y-45586509D01*
X20627735Y-45726857D01*
X20755144Y-45752200D01*
X20627735Y-45777543D01*
X20417691Y-45917891D01*
X20379147Y-45975576D01*
X20204082Y-45858601D01*
X19909476Y-45800000D01*
X19909471Y-45800000D01*
X19810000Y-45780214D01*
X19710529Y-45800000D01*
X19466074Y-45800000D01*
X19430414Y-45713910D01*
X18886090Y-45169586D01*
X18174895Y-44875000D01*
X17405105Y-44875000D01*
X16693910Y-45169586D01*
X16149586Y-45713910D01*
X15855000Y-46425105D01*
X15855000Y-47194895D01*
X16149586Y-47906090D01*
X16693910Y-48450414D01*
X17405105Y-48745000D01*
X18174895Y-48745000D01*
X18886090Y-48450414D01*
X19430414Y-47906090D01*
X19444274Y-47872629D01*
X19841184Y-48269540D01*
X19897531Y-48353869D01*
X19981860Y-48410216D01*
X19981862Y-48410218D01*
X20092131Y-48483897D01*
X20228060Y-48574722D01*
X20228060Y-48875700D01*
X20277343Y-49123465D01*
X20417691Y-49333509D01*
X20627735Y-49473857D01*
X20875500Y-49523140D01*
X22675500Y-49523140D01*
X22923265Y-49473857D01*
X23133309Y-49333509D01*
X23273657Y-49123465D01*
X23322940Y-48875700D01*
X23322940Y-48635700D01*
X23911060Y-48635700D01*
X23911060Y-48875700D01*
X23960343Y-49123465D01*
X24100691Y-49333509D01*
X24310735Y-49473857D01*
X24558500Y-49523140D01*
X26358500Y-49523140D01*
X26606265Y-49473857D01*
X26816309Y-49333509D01*
X26857341Y-49272100D01*
X27063760Y-49272100D01*
X27063760Y-49832100D01*
X27113043Y-50079865D01*
X27171332Y-50167100D01*
X27113043Y-50254335D01*
X27063760Y-50502100D01*
X27063760Y-51102100D01*
X27113043Y-51349865D01*
X27253391Y-51559909D01*
X27455567Y-51695000D01*
X27005940Y-51695000D01*
X27005940Y-50375700D01*
X26956657Y-50127935D01*
X26816309Y-49917891D01*
X26606265Y-49777543D01*
X26358500Y-49728260D01*
X24558500Y-49728260D01*
X24310735Y-49777543D01*
X24100691Y-49917891D01*
X23960343Y-50127935D01*
X23911060Y-50375700D01*
X23911060Y-52875700D01*
X23960343Y-53123465D01*
X24100691Y-53333509D01*
X24310735Y-53473857D01*
X24558500Y-53523140D01*
X24881000Y-53523140D01*
X24881000Y-54483250D01*
X25039750Y-54642000D01*
X26289000Y-54642000D01*
X26289000Y-54622000D01*
X26543000Y-54622000D01*
X26543000Y-54642000D01*
X27792250Y-54642000D01*
X27951000Y-54483250D01*
X27951000Y-53715000D01*
X29950639Y-53715000D01*
X29997101Y-53948581D01*
X29997102Y-53948582D01*
X30124084Y-54138626D01*
X29924191Y-54272191D01*
X29783843Y-54482235D01*
X29734560Y-54730000D01*
X29734560Y-57030000D01*
X29783843Y-57277765D01*
X29924191Y-57487809D01*
X29951478Y-57506042D01*
X29883691Y-57607492D01*
X29883690Y-57607493D01*
X29630063Y-57987073D01*
X29510929Y-58586000D01*
X29541001Y-58737182D01*
X29541001Y-59871074D01*
X29350810Y-60061265D01*
X29041000Y-60809213D01*
X29041000Y-61618787D01*
X29350810Y-62366735D01*
X29541000Y-62556925D01*
X29541000Y-62873000D01*
X26000000Y-62873000D01*
X25951399Y-62882667D01*
X25910197Y-62910197D01*
X22569834Y-66250560D01*
X21864000Y-66250560D01*
X21616235Y-66299843D01*
X21406191Y-66440191D01*
X21265843Y-66650235D01*
X21216560Y-66898000D01*
X21216560Y-67189205D01*
X20197518Y-66170163D01*
X20141169Y-66085831D01*
X19807082Y-65862601D01*
X19512476Y-65804000D01*
X19512471Y-65804000D01*
X19413000Y-65784214D01*
X19313529Y-65804000D01*
X18851226Y-65804000D01*
X18663000Y-65766560D01*
X17913000Y-65766560D01*
X17724774Y-65804000D01*
X17326470Y-65804000D01*
X17226999Y-65784214D01*
X17127528Y-65804000D01*
X17127524Y-65804000D01*
X16832918Y-65862601D01*
X16654883Y-65981560D01*
X16337000Y-65981560D01*
X16302000Y-65988522D01*
X16302000Y-65867289D01*
X20632560Y-61536730D01*
X20632560Y-62517000D01*
X20681843Y-62764765D01*
X20822191Y-62974809D01*
X21032235Y-63115157D01*
X21280000Y-63164440D01*
X24180000Y-63164440D01*
X24427765Y-63115157D01*
X24637809Y-62974809D01*
X24778157Y-62764765D01*
X24827440Y-62517000D01*
X24827440Y-59704000D01*
X24868560Y-59704000D01*
X24868560Y-60019000D01*
X24917843Y-60266765D01*
X25058191Y-60476809D01*
X25268235Y-60617157D01*
X25516000Y-60666440D01*
X27316000Y-60666440D01*
X27563765Y-60617157D01*
X27773809Y-60476809D01*
X27914157Y-60266765D01*
X27963440Y-60019000D01*
X27963440Y-57519000D01*
X27914157Y-57271235D01*
X27773809Y-57061191D01*
X27563765Y-56920843D01*
X27316000Y-56871560D01*
X25516000Y-56871560D01*
X25268235Y-56920843D01*
X25058191Y-57061191D01*
X24917843Y-57271235D01*
X24868560Y-57519000D01*
X24868560Y-57834000D01*
X24827440Y-57834000D01*
X24827440Y-57117000D01*
X24778157Y-56869235D01*
X24637809Y-56659191D01*
X24427765Y-56518843D01*
X24180000Y-56469560D01*
X21280000Y-56469560D01*
X21032235Y-56518843D01*
X20822191Y-56659191D01*
X20681843Y-56869235D01*
X20632560Y-57117000D01*
X20632560Y-58958047D01*
X20355903Y-59142903D01*
X20303741Y-59220969D01*
X15022343Y-64502367D01*
X14977750Y-64278181D01*
X14940004Y-64221690D01*
X14771097Y-63968903D01*
X14693028Y-63916739D01*
X13940729Y-63164440D01*
X14280000Y-63164440D01*
X14527765Y-63115157D01*
X14737809Y-62974809D01*
X14878157Y-62764765D01*
X14927440Y-62517000D01*
X14927440Y-57117000D01*
X14878157Y-56869235D01*
X14737809Y-56659191D01*
X14527765Y-56518843D01*
X14280000Y-56469560D01*
X11380000Y-56469560D01*
X11132235Y-56518843D01*
X10922191Y-56659191D01*
X10781843Y-56869235D01*
X10732560Y-57117000D01*
X10732560Y-58432270D01*
X8664261Y-56363972D01*
X8612097Y-56285903D01*
X8302819Y-56079250D01*
X8030086Y-56025000D01*
X7938000Y-56006683D01*
X7845914Y-56025000D01*
X7739440Y-56025000D01*
X7739440Y-55054750D01*
X24881000Y-55054750D01*
X24881000Y-56145309D01*
X24977673Y-56378698D01*
X25156301Y-56557327D01*
X25389690Y-56654000D01*
X26130250Y-56654000D01*
X26289000Y-56495250D01*
X26289000Y-54896000D01*
X26543000Y-54896000D01*
X26543000Y-56495250D01*
X26701750Y-56654000D01*
X27442310Y-56654000D01*
X27675699Y-56557327D01*
X27854327Y-56378698D01*
X27951000Y-56145309D01*
X27951000Y-55054750D01*
X27792250Y-54896000D01*
X26543000Y-54896000D01*
X26289000Y-54896000D01*
X25039750Y-54896000D01*
X24881000Y-55054750D01*
X7739440Y-55054750D01*
X7739440Y-54960000D01*
X7690157Y-54712235D01*
X7549809Y-54502191D01*
X7339765Y-54361843D01*
X7092000Y-54312560D01*
X4592000Y-54312560D01*
X4344235Y-54361843D01*
X4134191Y-54502191D01*
X3993843Y-54712235D01*
X3944560Y-54960000D01*
X3944560Y-56075793D01*
X3927181Y-56079250D01*
X3617903Y-56285903D01*
X3565741Y-56363969D01*
X3300000Y-56629710D01*
X3300000Y-51911450D01*
X20240500Y-51911450D01*
X20240500Y-53002009D01*
X20337173Y-53235398D01*
X20515801Y-53414027D01*
X20749190Y-53510700D01*
X21489750Y-53510700D01*
X21648500Y-53351950D01*
X21648500Y-51752700D01*
X21902500Y-51752700D01*
X21902500Y-53351950D01*
X22061250Y-53510700D01*
X22801810Y-53510700D01*
X23035199Y-53414027D01*
X23213827Y-53235398D01*
X23310500Y-53002009D01*
X23310500Y-51911450D01*
X23151750Y-51752700D01*
X21902500Y-51752700D01*
X21648500Y-51752700D01*
X20399250Y-51752700D01*
X20240500Y-51911450D01*
X3300000Y-51911450D01*
X3300000Y-50249391D01*
X20240500Y-50249391D01*
X20240500Y-51339950D01*
X20399250Y-51498700D01*
X21648500Y-51498700D01*
X21648500Y-49899450D01*
X21902500Y-49899450D01*
X21902500Y-51498700D01*
X23151750Y-51498700D01*
X23310500Y-51339950D01*
X23310500Y-50249391D01*
X23213827Y-50016002D01*
X23035199Y-49837373D01*
X22801810Y-49740700D01*
X22061250Y-49740700D01*
X21902500Y-49899450D01*
X21648500Y-49899450D01*
X21489750Y-49740700D01*
X20749190Y-49740700D01*
X20515801Y-49837373D01*
X20337173Y-50016002D01*
X20240500Y-50249391D01*
X3300000Y-50249391D01*
X3300000Y-48147842D01*
X3534561Y-48245000D01*
X4105439Y-48245000D01*
X4632862Y-48026534D01*
X5036534Y-47622862D01*
X5255000Y-47095439D01*
X5255000Y-46524561D01*
X5036534Y-45997138D01*
X4632862Y-45593466D01*
X4105439Y-45375000D01*
X3534561Y-45375000D01*
X3300000Y-45472158D01*
X3300000Y-42654887D01*
X10975000Y-42654887D01*
X10975000Y-43345113D01*
X11239138Y-43982799D01*
X11727201Y-44470862D01*
X12364887Y-44735000D01*
X13055113Y-44735000D01*
X13692799Y-44470862D01*
X14180862Y-43982799D01*
X14445000Y-43345113D01*
X14445000Y-42654887D01*
X14180862Y-42017201D01*
X13692799Y-41529138D01*
X13055113Y-41265000D01*
X12364887Y-41265000D01*
X11727201Y-41529138D01*
X11239138Y-42017201D01*
X10975000Y-42654887D01*
X3300000Y-42654887D01*
X3300000Y-37126904D01*
X3426463Y-37211404D01*
X3648148Y-37255500D01*
X3648152Y-37255500D01*
X3722999Y-37270388D01*
X3797846Y-37255500D01*
X6757699Y-37255500D01*
X7498170Y-37995972D01*
X7540571Y-38059429D01*
X7791963Y-38227404D01*
X7826358Y-38234246D01*
X7683466Y-38377138D01*
X7465000Y-38904561D01*
X7465000Y-39475439D01*
X7683466Y-40002862D01*
X8087138Y-40406534D01*
X8614561Y-40625000D01*
X9185439Y-40625000D01*
X9712862Y-40406534D01*
X10116534Y-40002862D01*
X10335000Y-39475439D01*
X10335000Y-38904561D01*
X10116534Y-38377138D01*
X10010896Y-38271500D01*
X11329699Y-38271500D01*
X12023670Y-38965472D01*
X12066071Y-39028929D01*
X12317463Y-39196904D01*
X12539148Y-39241000D01*
X12539152Y-39241000D01*
X12613999Y-39255888D01*
X12688846Y-39241000D01*
X14927721Y-39241000D01*
X15361195Y-39674475D01*
X15403594Y-39737929D01*
X15467047Y-39780327D01*
X15467049Y-39780329D01*
X15592425Y-39864102D01*
X15654986Y-39905904D01*
X15876671Y-39950000D01*
X15876675Y-39950000D01*
X15951522Y-39964888D01*
X16011591Y-39952940D01*
X16149586Y-40286090D01*
X16693910Y-40830414D01*
X17405105Y-41125000D01*
X18174895Y-41125000D01*
X18886090Y-40830414D01*
X19430414Y-40286090D01*
X19480798Y-40164450D01*
X20240500Y-40164450D01*
X20240500Y-41255009D01*
X20337173Y-41488398D01*
X20515801Y-41667027D01*
X20749190Y-41763700D01*
X21489750Y-41763700D01*
X21648500Y-41604950D01*
X21648500Y-40005700D01*
X21902500Y-40005700D01*
X21902500Y-41604950D01*
X22061250Y-41763700D01*
X22801810Y-41763700D01*
X23035199Y-41667027D01*
X23213827Y-41488398D01*
X23310500Y-41255009D01*
X23310500Y-40164450D01*
X23151750Y-40005700D01*
X21902500Y-40005700D01*
X21648500Y-40005700D01*
X20399250Y-40005700D01*
X20240500Y-40164450D01*
X19480798Y-40164450D01*
X19725000Y-39574895D01*
X19725000Y-38805105D01*
X19599613Y-38502391D01*
X20240500Y-38502391D01*
X20240500Y-39592950D01*
X20399250Y-39751700D01*
X21648500Y-39751700D01*
X21648500Y-38152450D01*
X21902500Y-38152450D01*
X21902500Y-39751700D01*
X23151750Y-39751700D01*
X23310500Y-39592950D01*
X23310500Y-38502391D01*
X23213827Y-38269002D01*
X23035199Y-38090373D01*
X22801810Y-37993700D01*
X22061250Y-37993700D01*
X21902500Y-38152450D01*
X21648500Y-38152450D01*
X21489750Y-37993700D01*
X20749190Y-37993700D01*
X20515801Y-38090373D01*
X20337173Y-38269002D01*
X20240500Y-38502391D01*
X19599613Y-38502391D01*
X19430414Y-38093910D01*
X18886090Y-37549586D01*
X18843658Y-37532010D01*
X21192143Y-37532010D01*
X21266990Y-37546898D01*
X21341837Y-37532010D01*
X21341842Y-37532010D01*
X21563527Y-37487914D01*
X21814919Y-37319939D01*
X21857321Y-37256480D01*
X24043551Y-35070250D01*
X24581000Y-35070250D01*
X24581000Y-35360809D01*
X24677673Y-35594198D01*
X24856301Y-35772827D01*
X25089690Y-35869500D01*
X25330250Y-35869500D01*
X25489000Y-35710750D01*
X25489000Y-34911500D01*
X24739750Y-34911500D01*
X24581000Y-35070250D01*
X24043551Y-35070250D01*
X24344303Y-34769499D01*
X25763000Y-34769499D01*
X25763000Y-34911500D01*
G36*
X39290001Y-39918006D02*
X39259809Y-39905500D01*
X39019250Y-39905500D01*
X38860500Y-40064250D01*
X38860500Y-40813500D01*
X38880500Y-40813500D01*
X38880500Y-41067500D01*
X38860500Y-41067500D01*
X38860500Y-41816750D01*
X39019250Y-41975500D01*
X39259809Y-41975500D01*
X39290001Y-41962994D01*
X39290001Y-42416186D01*
X39248509Y-42399000D01*
X39007950Y-42399000D01*
X38849200Y-42557750D01*
X38849200Y-43307000D01*
X38869200Y-43307000D01*
X38869200Y-43561000D01*
X38849200Y-43561000D01*
X38849200Y-44310250D01*
X39007950Y-44469000D01*
X39248509Y-44469000D01*
X39290001Y-44451814D01*
X39290001Y-44998006D01*
X39259809Y-44985500D01*
X39019250Y-44985500D01*
X38860500Y-45144250D01*
X38860500Y-45893500D01*
X38880500Y-45893500D01*
X38880500Y-46147500D01*
X38860500Y-46147500D01*
X38860500Y-46896750D01*
X39019250Y-47055500D01*
X39259809Y-47055500D01*
X39290001Y-47042994D01*
X39290001Y-62873000D01*
X38556038Y-62873000D01*
X38611000Y-62740309D01*
X38611000Y-61499750D01*
X38452250Y-61341000D01*
X36703000Y-61341000D01*
X36703000Y-61361000D01*
X36449000Y-61361000D01*
X36449000Y-61341000D01*
X34699750Y-61341000D01*
X34541000Y-61499750D01*
X34541000Y-62740309D01*
X34595962Y-62873000D01*
X32611000Y-62873000D01*
X32611000Y-62556925D01*
X32801190Y-62366735D01*
X33111000Y-61618787D01*
X33111000Y-60809213D01*
X32801190Y-60061265D01*
X32611000Y-59871075D01*
X32611000Y-59687691D01*
X34541000Y-59687691D01*
X34541000Y-60928250D01*
X34699750Y-61087000D01*
X36449000Y-61087000D01*
X36449000Y-59337750D01*
X36703000Y-59337750D01*
X36703000Y-61087000D01*
X38452250Y-61087000D01*
X38611000Y-60928250D01*
X38611000Y-59687691D01*
X38514327Y-59454302D01*
X38335699Y-59275673D01*
X38102310Y-59179000D01*
X36861750Y-59179000D01*
X36703000Y-59337750D01*
X36449000Y-59337750D01*
X36290250Y-59179000D01*
X35049690Y-59179000D01*
X34816301Y-59275673D01*
X34637673Y-59454302D01*
X34541000Y-59687691D01*
X32611000Y-59687691D01*
X32611000Y-59221981D01*
X32738673Y-59136673D01*
X33077938Y-58628927D01*
X33167000Y-58181182D01*
X33167000Y-58181181D01*
X33197072Y-58030000D01*
X33167000Y-57878818D01*
X33167000Y-57603277D01*
X33339809Y-57487809D01*
X33480157Y-57277765D01*
X33529440Y-57030000D01*
X33529440Y-56165750D01*
X34047000Y-56165750D01*
X34047000Y-57156310D01*
X34143673Y-57389699D01*
X34322302Y-57568327D01*
X34555691Y-57665000D01*
X35646250Y-57665000D01*
X35805000Y-57506250D01*
X35805000Y-56007000D01*
X36059000Y-56007000D01*
X36059000Y-57506250D01*
X36217750Y-57665000D01*
X37308309Y-57665000D01*
X37541698Y-57568327D01*
X37720327Y-57389699D01*
X37817000Y-57156310D01*
X37817000Y-56165750D01*
X37658250Y-56007000D01*
X36059000Y-56007000D01*
X35805000Y-56007000D01*
X34205750Y-56007000D01*
X34047000Y-56165750D01*
X33529440Y-56165750D01*
X33529440Y-54730000D01*
X33504316Y-54603690D01*
X34047000Y-54603690D01*
X34047000Y-55594250D01*
X34205750Y-55753000D01*
X35805000Y-55753000D01*
X35805000Y-54253750D01*
X36059000Y-54253750D01*
X36059000Y-55753000D01*
X37658250Y-55753000D01*
X37817000Y-55594250D01*
X37817000Y-54603690D01*
X37720327Y-54370301D01*
X37541698Y-54191673D01*
X37308309Y-54095000D01*
X36217750Y-54095000D01*
X36059000Y-54253750D01*
X35805000Y-54253750D01*
X35646250Y-54095000D01*
X34555691Y-54095000D01*
X34322302Y-54191673D01*
X34143673Y-54370301D01*
X34047000Y-54603690D01*
X33504316Y-54603690D01*
X33480157Y-54482235D01*
X33339809Y-54272191D01*
X33129765Y-54131843D01*
X32882000Y-54082560D01*
X32630868Y-54082560D01*
X32583399Y-53843918D01*
X32458103Y-53656399D01*
X32441580Y-53631671D01*
X32469809Y-53612809D01*
X32512000Y-53549666D01*
X32554191Y-53612809D01*
X32764235Y-53753157D01*
X33012000Y-53802440D01*
X33512000Y-53802440D01*
X33759765Y-53753157D01*
X33942361Y-53631150D01*
X34112235Y-53744657D01*
X34360000Y-53793940D01*
X35160000Y-53793940D01*
X35407765Y-53744657D01*
X35559047Y-53643573D01*
X35600302Y-53684827D01*
X35833691Y-53781500D01*
X36074250Y-53781500D01*
X36233000Y-53622750D01*
X36233000Y-52873500D01*
X36487000Y-52873500D01*
X36487000Y-53622750D01*
X36645750Y-53781500D01*
X36886309Y-53781500D01*
X37119698Y-53684827D01*
X37298327Y-53506199D01*
X37395000Y-53272810D01*
X37395000Y-53032250D01*
X37236250Y-52873500D01*
X36487000Y-52873500D01*
X36233000Y-52873500D01*
X36213000Y-52873500D01*
X36213000Y-52619500D01*
X36233000Y-52619500D01*
X36233000Y-51870250D01*
X36487000Y-51870250D01*
X36487000Y-52619500D01*
X37236250Y-52619500D01*
X37395000Y-52460750D01*
X37395000Y-52220190D01*
X37298327Y-51986801D01*
X37119698Y-51808173D01*
X36886309Y-51711500D01*
X36645750Y-51711500D01*
X36487000Y-51870250D01*
X36233000Y-51870250D01*
X36074250Y-51711500D01*
X35833691Y-51711500D01*
X35600302Y-51808173D01*
X35559047Y-51849427D01*
X35407765Y-51748343D01*
X35160000Y-51699060D01*
X34879346Y-51699060D01*
X35020898Y-51640427D01*
X35199527Y-51461799D01*
X35296200Y-51228410D01*
X35296200Y-51087850D01*
X35137450Y-50929100D01*
X34013200Y-50929100D01*
X34013200Y-51578350D01*
X34171420Y-51736570D01*
X34112235Y-51748343D01*
X33991206Y-51829213D01*
X33969809Y-51797191D01*
X33759765Y-51656843D01*
X33693823Y-51643727D01*
X33759200Y-51578350D01*
X33759200Y-50929100D01*
X32634950Y-50929100D01*
X32476200Y-51087850D01*
X32476200Y-51228410D01*
X32572873Y-51461799D01*
X32751502Y-51640427D01*
X32782407Y-51653228D01*
X32764235Y-51656843D01*
X32554191Y-51797191D01*
X32512000Y-51860334D01*
X32469809Y-51797191D01*
X32259765Y-51656843D01*
X32012000Y-51607560D01*
X31958500Y-51607560D01*
X31958500Y-49565855D01*
X32252256Y-49272100D01*
X32463760Y-49272100D01*
X32463760Y-49832100D01*
X32513043Y-50079865D01*
X32565968Y-50159072D01*
X32476200Y-50375790D01*
X32476200Y-50516350D01*
X32634950Y-50675100D01*
X33759200Y-50675100D01*
X33759200Y-50655100D01*
X34013200Y-50655100D01*
X34013200Y-50675100D01*
X35137450Y-50675100D01*
X35296200Y-50516350D01*
X35296200Y-50375790D01*
X35206432Y-50159072D01*
X35259357Y-50079865D01*
X35275104Y-50000697D01*
X35485670Y-49790131D01*
X35549129Y-49747729D01*
X35717104Y-49496337D01*
X35761200Y-49274652D01*
X35761200Y-49274648D01*
X35776088Y-49199801D01*
X35761200Y-49124954D01*
X35761200Y-47395046D01*
X35776088Y-47320199D01*
X35761200Y-47245352D01*
X35761200Y-47245348D01*
X35717104Y-47023663D01*
X35549129Y-46772271D01*
X35485672Y-46729870D01*
X35274061Y-46518260D01*
X35259357Y-46444335D01*
X35119009Y-46234291D01*
X34908965Y-46093943D01*
X34661200Y-46044660D01*
X33111200Y-46044660D01*
X32863435Y-46093943D01*
X32860624Y-46095821D01*
X32567878Y-45803077D01*
X32595940Y-45662000D01*
X32595940Y-44762000D01*
X32546657Y-44514235D01*
X32458500Y-44382300D01*
X32458500Y-43299301D01*
X32460700Y-43297101D01*
X32476200Y-43297101D01*
X32476200Y-43309102D01*
X32634948Y-43309102D01*
X32476200Y-43467850D01*
X32476200Y-43608410D01*
X32572873Y-43841799D01*
X32751502Y-44020427D01*
X32984891Y-44117100D01*
X33600450Y-44117100D01*
X33759200Y-43958350D01*
X33759200Y-43309100D01*
X33739200Y-43309100D01*
X33739200Y-43297101D01*
X34033200Y-43297101D01*
X34033200Y-43309100D01*
X34013200Y-43309100D01*
X34013200Y-43958350D01*
X34171950Y-44117100D01*
X34787509Y-44117100D01*
X35020898Y-44020427D01*
X35199527Y-43841799D01*
X35296200Y-43608410D01*
X35296200Y-43467850D01*
X35137452Y-43309102D01*
X35296200Y-43309102D01*
X35296200Y-43200578D01*
X35469130Y-43085030D01*
X35511532Y-43021571D01*
X36004973Y-42528131D01*
X36068429Y-42485731D01*
X36088256Y-42456058D01*
X36241960Y-42609761D01*
X36124043Y-42786235D01*
X36074760Y-43034000D01*
X36074760Y-43834000D01*
X36124043Y-44081765D01*
X36264391Y-44291809D01*
X36474435Y-44432157D01*
X36722200Y-44481440D01*
X37173500Y-44481440D01*
X37173500Y-44905698D01*
X37106138Y-44973060D01*
X36733500Y-44973060D01*
X36485735Y-45022343D01*
X36275691Y-45162691D01*
X36135343Y-45372735D01*
X36086060Y-45620500D01*
X36086060Y-46420500D01*
X36135343Y-46668265D01*
X36275691Y-46878309D01*
X36485735Y-47018657D01*
X36733500Y-47067940D01*
X37533500Y-47067940D01*
X37781265Y-47018657D01*
X37932547Y-46917573D01*
X37973802Y-46958827D01*
X38207191Y-47055500D01*
X38447750Y-47055500D01*
X38606500Y-46896750D01*
X38606500Y-46147500D01*
X38586500Y-46147500D01*
X38586500Y-45893500D01*
X38606500Y-45893500D01*
X38606500Y-45581248D01*
X38649404Y-45517038D01*
X38669070Y-45418171D01*
X38693500Y-45295352D01*
X38693500Y-45295348D01*
X38708388Y-45220500D01*
X38693500Y-45145652D01*
X38693500Y-36357348D01*
X38708388Y-36282500D01*
X38693500Y-36207652D01*
X38693500Y-36207648D01*
X38651972Y-35998871D01*
X38649404Y-35985962D01*
X38523829Y-35798027D01*
X38481429Y-35734571D01*
X38417973Y-35692171D01*
X35711370Y-32985569D01*
X35929690Y-33076000D01*
X36570250Y-33076000D01*
X36729000Y-32917250D01*
X36729000Y-31478000D01*
X36983000Y-31478000D01*
X36983000Y-32917250D01*
X37141750Y-33076000D01*
X37782310Y-33076000D01*
X38015699Y-32979327D01*
X38194327Y-32800698D01*
X38291000Y-32567309D01*
X38291000Y-31636750D01*
X38132250Y-31478000D01*
X36983000Y-31478000D01*
X36729000Y-31478000D01*
X35579750Y-31478000D01*
X35421000Y-31636750D01*
X35421000Y-32567309D01*
X35511432Y-32785631D01*
X34245331Y-31519530D01*
X34202929Y-31456071D01*
X33951537Y-31288096D01*
X33729852Y-31244000D01*
X33729847Y-31244000D01*
X33655000Y-31229112D01*
X33580153Y-31244000D01*
X27071802Y-31244000D01*
X27151802Y-31164000D01*
X32758153Y-31164000D01*
X32833000Y-31178888D01*
X32907847Y-31164000D01*
X32907852Y-31164000D01*
X33129537Y-31119904D01*
X33380929Y-30951929D01*
X33423331Y-30888470D01*
X34177110Y-30134691D01*
X35421000Y-30134691D01*
X35421000Y-31065250D01*
X35579750Y-31224000D01*
X36729000Y-31224000D01*
X36729000Y-29784750D01*
X36983000Y-29784750D01*
X36983000Y-31224000D01*
X38132250Y-31224000D01*
X38291000Y-31065250D01*
X38291000Y-30134691D01*
X38194327Y-29901302D01*
X38015699Y-29722673D01*
X37782310Y-29626000D01*
X37141750Y-29626000D01*
X36983000Y-29784750D01*
X36729000Y-29784750D01*
X36570250Y-29626000D01*
X35929690Y-29626000D01*
X35696301Y-29722673D01*
X35517673Y-29901302D01*
X35421000Y-30134691D01*
X34177110Y-30134691D01*
X37340473Y-26971329D01*
X37403929Y-26928929D01*
X37571904Y-26677537D01*
X37616000Y-26455852D01*
X37616000Y-26455848D01*
X37630888Y-26381001D01*
X37616000Y-26306154D01*
X37616000Y-25688440D01*
X37656000Y-25688440D01*
X37903765Y-25639157D01*
X38113809Y-25498809D01*
X38254157Y-25288765D01*
X38303440Y-25041000D01*
X38303440Y-22861000D01*
X38254157Y-22613235D01*
X38113809Y-22403191D01*
X37903765Y-22262843D01*
X37656000Y-22213560D01*
X36056000Y-22213560D01*
X35808235Y-22262843D01*
X35598191Y-22403191D01*
X35584000Y-22424429D01*
X35584000Y-22123801D01*
X36601373Y-21106429D01*
X36664829Y-21064029D01*
X36733640Y-20961046D01*
X36832804Y-20812638D01*
X36856227Y-20694882D01*
X36868253Y-20634425D01*
X36970057Y-20482065D01*
X37012040Y-20271000D01*
X37042300Y-20271000D01*
X37174235Y-20359157D01*
X37422000Y-20408440D01*
X38322000Y-20408440D01*
X38569765Y-20359157D01*
X38779809Y-20218809D01*
X38920157Y-20008765D01*
X38969440Y-19761000D01*
X38969440Y-19261000D01*
X38920157Y-19013235D01*
X38779809Y-18803191D01*
X38716666Y-18761000D01*
X38779809Y-18718809D01*
X38920157Y-18508765D01*
X38969440Y-18261000D01*
X38969440Y-17761000D01*
X38920157Y-17513235D01*
X38779809Y-17303191D01*
X38569765Y-17162843D01*
X38322000Y-17113560D01*
X38152913Y-17113560D01*
X37964086Y-17076000D01*
X37051900Y-17076000D01*
X37051900Y-13856981D01*
X37070216Y-13764899D01*
X37051900Y-13672815D01*
X37051900Y-13672814D01*
X36997650Y-13400081D01*
X36790997Y-13090803D01*
X36712931Y-13038641D01*
X30127000Y-6452711D01*
X30127000Y-2663822D01*
X30278500Y-2298069D01*
X30278500Y-1408931D01*
X30127000Y-1043178D01*
X30127000Y-735000D01*
X39290001Y-735000D01*
X39290001Y-39918006D01*
X39290001Y-39918006D01*
G37*
X39290001Y-39918006D02*
X39259809Y-39905500D01*
X39019250Y-39905500D01*
X38860500Y-40064250D01*
X38860500Y-40813500D01*
X38880500Y-40813500D01*
X38880500Y-41067500D01*
X38860500Y-41067500D01*
X38860500Y-41816750D01*
X39019250Y-41975500D01*
X39259809Y-41975500D01*
X39290001Y-41962994D01*
X39290001Y-42416186D01*
X39248509Y-42399000D01*
X39007950Y-42399000D01*
X38849200Y-42557750D01*
X38849200Y-43307000D01*
X38869200Y-43307000D01*
X38869200Y-43561000D01*
X38849200Y-43561000D01*
X38849200Y-44310250D01*
X39007950Y-44469000D01*
X39248509Y-44469000D01*
X39290001Y-44451814D01*
X39290001Y-44998006D01*
X39259809Y-44985500D01*
X39019250Y-44985500D01*
X38860500Y-45144250D01*
X38860500Y-45893500D01*
X38880500Y-45893500D01*
X38880500Y-46147500D01*
X38860500Y-46147500D01*
X38860500Y-46896750D01*
X39019250Y-47055500D01*
X39259809Y-47055500D01*
X39290001Y-47042994D01*
X39290001Y-62873000D01*
X38556038Y-62873000D01*
X38611000Y-62740309D01*
X38611000Y-61499750D01*
X38452250Y-61341000D01*
X36703000Y-61341000D01*
X36703000Y-61361000D01*
X36449000Y-61361000D01*
X36449000Y-61341000D01*
X34699750Y-61341000D01*
X34541000Y-61499750D01*
X34541000Y-62740309D01*
X34595962Y-62873000D01*
X32611000Y-62873000D01*
X32611000Y-62556925D01*
X32801190Y-62366735D01*
X33111000Y-61618787D01*
X33111000Y-60809213D01*
X32801190Y-60061265D01*
X32611000Y-59871075D01*
X32611000Y-59687691D01*
X34541000Y-59687691D01*
X34541000Y-60928250D01*
X34699750Y-61087000D01*
X36449000Y-61087000D01*
X36449000Y-59337750D01*
X36703000Y-59337750D01*
X36703000Y-61087000D01*
X38452250Y-61087000D01*
X38611000Y-60928250D01*
X38611000Y-59687691D01*
X38514327Y-59454302D01*
X38335699Y-59275673D01*
X38102310Y-59179000D01*
X36861750Y-59179000D01*
X36703000Y-59337750D01*
X36449000Y-59337750D01*
X36290250Y-59179000D01*
X35049690Y-59179000D01*
X34816301Y-59275673D01*
X34637673Y-59454302D01*
X34541000Y-59687691D01*
X32611000Y-59687691D01*
X32611000Y-59221981D01*
X32738673Y-59136673D01*
X33077938Y-58628927D01*
X33167000Y-58181182D01*
X33167000Y-58181181D01*
X33197072Y-58030000D01*
X33167000Y-57878818D01*
X33167000Y-57603277D01*
X33339809Y-57487809D01*
X33480157Y-57277765D01*
X33529440Y-57030000D01*
X33529440Y-56165750D01*
X34047000Y-56165750D01*
X34047000Y-57156310D01*
X34143673Y-57389699D01*
X34322302Y-57568327D01*
X34555691Y-57665000D01*
X35646250Y-57665000D01*
X35805000Y-57506250D01*
X35805000Y-56007000D01*
X36059000Y-56007000D01*
X36059000Y-57506250D01*
X36217750Y-57665000D01*
X37308309Y-57665000D01*
X37541698Y-57568327D01*
X37720327Y-57389699D01*
X37817000Y-57156310D01*
X37817000Y-56165750D01*
X37658250Y-56007000D01*
X36059000Y-56007000D01*
X35805000Y-56007000D01*
X34205750Y-56007000D01*
X34047000Y-56165750D01*
X33529440Y-56165750D01*
X33529440Y-54730000D01*
X33504316Y-54603690D01*
X34047000Y-54603690D01*
X34047000Y-55594250D01*
X34205750Y-55753000D01*
X35805000Y-55753000D01*
X35805000Y-54253750D01*
X36059000Y-54253750D01*
X36059000Y-55753000D01*
X37658250Y-55753000D01*
X37817000Y-55594250D01*
X37817000Y-54603690D01*
X37720327Y-54370301D01*
X37541698Y-54191673D01*
X37308309Y-54095000D01*
X36217750Y-54095000D01*
X36059000Y-54253750D01*
X35805000Y-54253750D01*
X35646250Y-54095000D01*
X34555691Y-54095000D01*
X34322302Y-54191673D01*
X34143673Y-54370301D01*
X34047000Y-54603690D01*
X33504316Y-54603690D01*
X33480157Y-54482235D01*
X33339809Y-54272191D01*
X33129765Y-54131843D01*
X32882000Y-54082560D01*
X32630868Y-54082560D01*
X32583399Y-53843918D01*
X32458103Y-53656399D01*
X32441580Y-53631671D01*
X32469809Y-53612809D01*
X32512000Y-53549666D01*
X32554191Y-53612809D01*
X32764235Y-53753157D01*
X33012000Y-53802440D01*
X33512000Y-53802440D01*
X33759765Y-53753157D01*
X33942361Y-53631150D01*
X34112235Y-53744657D01*
X34360000Y-53793940D01*
X35160000Y-53793940D01*
X35407765Y-53744657D01*
X35559047Y-53643573D01*
X35600302Y-53684827D01*
X35833691Y-53781500D01*
X36074250Y-53781500D01*
X36233000Y-53622750D01*
X36233000Y-52873500D01*
X36487000Y-52873500D01*
X36487000Y-53622750D01*
X36645750Y-53781500D01*
X36886309Y-53781500D01*
X37119698Y-53684827D01*
X37298327Y-53506199D01*
X37395000Y-53272810D01*
X37395000Y-53032250D01*
X37236250Y-52873500D01*
X36487000Y-52873500D01*
X36233000Y-52873500D01*
X36213000Y-52873500D01*
X36213000Y-52619500D01*
X36233000Y-52619500D01*
X36233000Y-51870250D01*
X36487000Y-51870250D01*
X36487000Y-52619500D01*
X37236250Y-52619500D01*
X37395000Y-52460750D01*
X37395000Y-52220190D01*
X37298327Y-51986801D01*
X37119698Y-51808173D01*
X36886309Y-51711500D01*
X36645750Y-51711500D01*
X36487000Y-51870250D01*
X36233000Y-51870250D01*
X36074250Y-51711500D01*
X35833691Y-51711500D01*
X35600302Y-51808173D01*
X35559047Y-51849427D01*
X35407765Y-51748343D01*
X35160000Y-51699060D01*
X34879346Y-51699060D01*
X35020898Y-51640427D01*
X35199527Y-51461799D01*
X35296200Y-51228410D01*
X35296200Y-51087850D01*
X35137450Y-50929100D01*
X34013200Y-50929100D01*
X34013200Y-51578350D01*
X34171420Y-51736570D01*
X34112235Y-51748343D01*
X33991206Y-51829213D01*
X33969809Y-51797191D01*
X33759765Y-51656843D01*
X33693823Y-51643727D01*
X33759200Y-51578350D01*
X33759200Y-50929100D01*
X32634950Y-50929100D01*
X32476200Y-51087850D01*
X32476200Y-51228410D01*
X32572873Y-51461799D01*
X32751502Y-51640427D01*
X32782407Y-51653228D01*
X32764235Y-51656843D01*
X32554191Y-51797191D01*
X32512000Y-51860334D01*
X32469809Y-51797191D01*
X32259765Y-51656843D01*
X32012000Y-51607560D01*
X31958500Y-51607560D01*
X31958500Y-49565855D01*
X32252256Y-49272100D01*
X32463760Y-49272100D01*
X32463760Y-49832100D01*
X32513043Y-50079865D01*
X32565968Y-50159072D01*
X32476200Y-50375790D01*
X32476200Y-50516350D01*
X32634950Y-50675100D01*
X33759200Y-50675100D01*
X33759200Y-50655100D01*
X34013200Y-50655100D01*
X34013200Y-50675100D01*
X35137450Y-50675100D01*
X35296200Y-50516350D01*
X35296200Y-50375790D01*
X35206432Y-50159072D01*
X35259357Y-50079865D01*
X35275104Y-50000697D01*
X35485670Y-49790131D01*
X35549129Y-49747729D01*
X35717104Y-49496337D01*
X35761200Y-49274652D01*
X35761200Y-49274648D01*
X35776088Y-49199801D01*
X35761200Y-49124954D01*
X35761200Y-47395046D01*
X35776088Y-47320199D01*
X35761200Y-47245352D01*
X35761200Y-47245348D01*
X35717104Y-47023663D01*
X35549129Y-46772271D01*
X35485672Y-46729870D01*
X35274061Y-46518260D01*
X35259357Y-46444335D01*
X35119009Y-46234291D01*
X34908965Y-46093943D01*
X34661200Y-46044660D01*
X33111200Y-46044660D01*
X32863435Y-46093943D01*
X32860624Y-46095821D01*
X32567878Y-45803077D01*
X32595940Y-45662000D01*
X32595940Y-44762000D01*
X32546657Y-44514235D01*
X32458500Y-44382300D01*
X32458500Y-43299301D01*
X32460700Y-43297101D01*
X32476200Y-43297101D01*
X32476200Y-43309102D01*
X32634948Y-43309102D01*
X32476200Y-43467850D01*
X32476200Y-43608410D01*
X32572873Y-43841799D01*
X32751502Y-44020427D01*
X32984891Y-44117100D01*
X33600450Y-44117100D01*
X33759200Y-43958350D01*
X33759200Y-43309100D01*
X33739200Y-43309100D01*
X33739200Y-43297101D01*
X34033200Y-43297101D01*
X34033200Y-43309100D01*
X34013200Y-43309100D01*
X34013200Y-43958350D01*
X34171950Y-44117100D01*
X34787509Y-44117100D01*
X35020898Y-44020427D01*
X35199527Y-43841799D01*
X35296200Y-43608410D01*
X35296200Y-43467850D01*
X35137452Y-43309102D01*
X35296200Y-43309102D01*
X35296200Y-43200578D01*
X35469130Y-43085030D01*
X35511532Y-43021571D01*
X36004973Y-42528131D01*
X36068429Y-42485731D01*
X36088256Y-42456058D01*
X36241960Y-42609761D01*
X36124043Y-42786235D01*
X36074760Y-43034000D01*
X36074760Y-43834000D01*
X36124043Y-44081765D01*
X36264391Y-44291809D01*
X36474435Y-44432157D01*
X36722200Y-44481440D01*
X37173500Y-44481440D01*
X37173500Y-44905698D01*
X37106138Y-44973060D01*
X36733500Y-44973060D01*
X36485735Y-45022343D01*
X36275691Y-45162691D01*
X36135343Y-45372735D01*
X36086060Y-45620500D01*
X36086060Y-46420500D01*
X36135343Y-46668265D01*
X36275691Y-46878309D01*
X36485735Y-47018657D01*
X36733500Y-47067940D01*
X37533500Y-47067940D01*
X37781265Y-47018657D01*
X37932547Y-46917573D01*
X37973802Y-46958827D01*
X38207191Y-47055500D01*
X38447750Y-47055500D01*
X38606500Y-46896750D01*
X38606500Y-46147500D01*
X38586500Y-46147500D01*
X38586500Y-45893500D01*
X38606500Y-45893500D01*
X38606500Y-45581248D01*
X38649404Y-45517038D01*
X38669070Y-45418171D01*
X38693500Y-45295352D01*
X38693500Y-45295348D01*
X38708388Y-45220500D01*
X38693500Y-45145652D01*
X38693500Y-36357348D01*
X38708388Y-36282500D01*
X38693500Y-36207652D01*
X38693500Y-36207648D01*
X38651972Y-35998871D01*
X38649404Y-35985962D01*
X38523829Y-35798027D01*
X38481429Y-35734571D01*
X38417973Y-35692171D01*
X35711370Y-32985569D01*
X35929690Y-33076000D01*
X36570250Y-33076000D01*
X36729000Y-32917250D01*
X36729000Y-31478000D01*
X36983000Y-31478000D01*
X36983000Y-32917250D01*
X37141750Y-33076000D01*
X37782310Y-33076000D01*
X38015699Y-32979327D01*
X38194327Y-32800698D01*
X38291000Y-32567309D01*
X38291000Y-31636750D01*
X38132250Y-31478000D01*
X36983000Y-31478000D01*
X36729000Y-31478000D01*
X35579750Y-31478000D01*
X35421000Y-31636750D01*
X35421000Y-32567309D01*
X35511432Y-32785631D01*
X34245331Y-31519530D01*
X34202929Y-31456071D01*
X33951537Y-31288096D01*
X33729852Y-31244000D01*
X33729847Y-31244000D01*
X33655000Y-31229112D01*
X33580153Y-31244000D01*
X27071802Y-31244000D01*
X27151802Y-31164000D01*
X32758153Y-31164000D01*
X32833000Y-31178888D01*
X32907847Y-31164000D01*
X32907852Y-31164000D01*
X33129537Y-31119904D01*
X33380929Y-30951929D01*
X33423331Y-30888470D01*
X34177110Y-30134691D01*
X35421000Y-30134691D01*
X35421000Y-31065250D01*
X35579750Y-31224000D01*
X36729000Y-31224000D01*
X36729000Y-29784750D01*
X36983000Y-29784750D01*
X36983000Y-31224000D01*
X38132250Y-31224000D01*
X38291000Y-31065250D01*
X38291000Y-30134691D01*
X38194327Y-29901302D01*
X38015699Y-29722673D01*
X37782310Y-29626000D01*
X37141750Y-29626000D01*
X36983000Y-29784750D01*
X36729000Y-29784750D01*
X36570250Y-29626000D01*
X35929690Y-29626000D01*
X35696301Y-29722673D01*
X35517673Y-29901302D01*
X35421000Y-30134691D01*
X34177110Y-30134691D01*
X37340473Y-26971329D01*
X37403929Y-26928929D01*
X37571904Y-26677537D01*
X37616000Y-26455852D01*
X37616000Y-26455848D01*
X37630888Y-26381001D01*
X37616000Y-26306154D01*
X37616000Y-25688440D01*
X37656000Y-25688440D01*
X37903765Y-25639157D01*
X38113809Y-25498809D01*
X38254157Y-25288765D01*
X38303440Y-25041000D01*
X38303440Y-22861000D01*
X38254157Y-22613235D01*
X38113809Y-22403191D01*
X37903765Y-22262843D01*
X37656000Y-22213560D01*
X36056000Y-22213560D01*
X35808235Y-22262843D01*
X35598191Y-22403191D01*
X35584000Y-22424429D01*
X35584000Y-22123801D01*
X36601373Y-21106429D01*
X36664829Y-21064029D01*
X36733640Y-20961046D01*
X36832804Y-20812638D01*
X36856227Y-20694882D01*
X36868253Y-20634425D01*
X36970057Y-20482065D01*
X37012040Y-20271000D01*
X37042300Y-20271000D01*
X37174235Y-20359157D01*
X37422000Y-20408440D01*
X38322000Y-20408440D01*
X38569765Y-20359157D01*
X38779809Y-20218809D01*
X38920157Y-20008765D01*
X38969440Y-19761000D01*
X38969440Y-19261000D01*
X38920157Y-19013235D01*
X38779809Y-18803191D01*
X38716666Y-18761000D01*
X38779809Y-18718809D01*
X38920157Y-18508765D01*
X38969440Y-18261000D01*
X38969440Y-17761000D01*
X38920157Y-17513235D01*
X38779809Y-17303191D01*
X38569765Y-17162843D01*
X38322000Y-17113560D01*
X38152913Y-17113560D01*
X37964086Y-17076000D01*
X37051900Y-17076000D01*
X37051900Y-13856981D01*
X37070216Y-13764899D01*
X37051900Y-13672815D01*
X37051900Y-13672814D01*
X36997650Y-13400081D01*
X36790997Y-13090803D01*
X36712931Y-13038641D01*
X30127000Y-6452711D01*
X30127000Y-2663822D01*
X30278500Y-2298069D01*
X30278500Y-1408931D01*
X30127000Y-1043178D01*
X30127000Y-735000D01*
X39290001Y-735000D01*
X39290001Y-39918006D01*
G36*
X29426000Y-34657500D02*
X29446000Y-34657500D01*
X29446000Y-34911500D01*
X29426000Y-34911500D01*
X29426000Y-35710750D01*
X29511531Y-35796281D01*
X29391191Y-35876691D01*
X29250843Y-36086735D01*
X29201560Y-36334500D01*
X29201560Y-36883000D01*
X28548802Y-36883000D01*
X27965831Y-36300029D01*
X27923429Y-36236571D01*
X27672037Y-36068596D01*
X27533643Y-36041068D01*
X27427316Y-35881940D01*
X27916000Y-35881940D01*
X28163765Y-35832657D01*
X28373809Y-35692309D01*
X28407845Y-35641371D01*
X28539301Y-35772827D01*
X28772690Y-35869500D01*
X29013250Y-35869500D01*
X29172000Y-35710750D01*
X29172000Y-34911500D01*
X29152000Y-34911500D01*
X29152000Y-34657500D01*
X29172000Y-34657500D01*
X29172000Y-34637500D01*
X29426000Y-34637500D01*
X29426000Y-34657500D01*
X29426000Y-34657500D01*
G37*
X29426000Y-34657500D02*
X29446000Y-34657500D01*
X29446000Y-34911500D01*
X29426000Y-34911500D01*
X29426000Y-35710750D01*
X29511531Y-35796281D01*
X29391191Y-35876691D01*
X29250843Y-36086735D01*
X29201560Y-36334500D01*
X29201560Y-36883000D01*
X28548802Y-36883000D01*
X27965831Y-36300029D01*
X27923429Y-36236571D01*
X27672037Y-36068596D01*
X27533643Y-36041068D01*
X27427316Y-35881940D01*
X27916000Y-35881940D01*
X28163765Y-35832657D01*
X28373809Y-35692309D01*
X28407845Y-35641371D01*
X28539301Y-35772827D01*
X28772690Y-35869500D01*
X29013250Y-35869500D01*
X29172000Y-35710750D01*
X29172000Y-34911500D01*
X29152000Y-34911500D01*
X29152000Y-34657500D01*
X29172000Y-34657500D01*
X29172000Y-34637500D01*
X29426000Y-34637500D01*
X29426000Y-34657500D01*
G36*
X14566200Y-33451800D02*
X14586200Y-33451800D01*
X14586200Y-33705800D01*
X14566200Y-33705800D01*
X14566200Y-34430050D01*
X14724950Y-34588800D01*
X14965509Y-34588800D01*
X15198898Y-34492127D01*
X15200098Y-34490927D01*
X15291435Y-34551957D01*
X15539200Y-34601240D01*
X15758958Y-34601240D01*
X15179199Y-35181000D01*
X14194302Y-35181000D01*
X13647621Y-34634320D01*
X13731099Y-34550841D01*
X13744301Y-34518968D01*
X13912891Y-34588800D01*
X14153450Y-34588800D01*
X14312200Y-34430050D01*
X14312200Y-33705800D01*
X13562950Y-33705800D01*
X13550607Y-33718143D01*
X13040212Y-33718143D01*
X13040212Y-33464143D01*
X13669022Y-33464143D01*
X13681365Y-33451800D01*
X14312200Y-33451800D01*
X14312200Y-33431800D01*
X14566200Y-33431800D01*
X14566200Y-33451800D01*
X14566200Y-33451800D01*
G37*
X14566200Y-33451800D02*
X14586200Y-33451800D01*
X14586200Y-33705800D01*
X14566200Y-33705800D01*
X14566200Y-34430050D01*
X14724950Y-34588800D01*
X14965509Y-34588800D01*
X15198898Y-34492127D01*
X15200098Y-34490927D01*
X15291435Y-34551957D01*
X15539200Y-34601240D01*
X15758958Y-34601240D01*
X15179199Y-35181000D01*
X14194302Y-35181000D01*
X13647621Y-34634320D01*
X13731099Y-34550841D01*
X13744301Y-34518968D01*
X13912891Y-34588800D01*
X14153450Y-34588800D01*
X14312200Y-34430050D01*
X14312200Y-33705800D01*
X13562950Y-33705800D01*
X13550607Y-33718143D01*
X13040212Y-33718143D01*
X13040212Y-33464143D01*
X13669022Y-33464143D01*
X13681365Y-33451800D01*
X14312200Y-33451800D01*
X14312200Y-33431800D01*
X14566200Y-33431800D01*
X14566200Y-33451800D01*
G36*
X6033200Y-24968200D02*
X6782450Y-24968200D01*
X6786507Y-24964143D01*
X7145332Y-24964143D01*
X7145332Y-25218143D01*
X6516522Y-25218143D01*
X6512465Y-25222200D01*
X6033200Y-25222200D01*
X6033200Y-25242200D01*
X5779200Y-25242200D01*
X5779200Y-25222200D01*
X5759200Y-25222200D01*
X5759200Y-24968200D01*
X5779200Y-24968200D01*
X5779200Y-24948200D01*
X6033200Y-24948200D01*
X6033200Y-24968200D01*
X6033200Y-24968200D01*
G37*
X6033200Y-24968200D02*
X6782450Y-24968200D01*
X6786507Y-24964143D01*
X7145332Y-24964143D01*
X7145332Y-25218143D01*
X6516522Y-25218143D01*
X6512465Y-25222200D01*
X6033200Y-25222200D01*
X6033200Y-25242200D01*
X5779200Y-25242200D01*
X5779200Y-25222200D01*
X5759200Y-25222200D01*
X5759200Y-24968200D01*
X5779200Y-24968200D01*
X5779200Y-24948200D01*
X6033200Y-24948200D01*
X6033200Y-24968200D01*
G36*
X21844382Y-17462672D02*
X21806191Y-17488191D01*
X21665843Y-17698235D01*
X21616560Y-17946000D01*
X21616560Y-18873000D01*
X21000000Y-18873000D01*
X20951399Y-18882667D01*
X20910197Y-18910197D01*
X20882667Y-18951399D01*
X20873000Y-19000000D01*
X20873000Y-23492541D01*
X20764590Y-23492541D01*
X20815800Y-23368909D01*
X20815800Y-22028350D01*
X20657050Y-21869600D01*
X19507800Y-21869600D01*
X19507800Y-23718850D01*
X19666550Y-23877600D01*
X19835642Y-23877600D01*
X19718082Y-23995160D01*
X18580800Y-23995160D01*
X18333035Y-24044443D01*
X18122991Y-24184791D01*
X17982643Y-24394835D01*
X17933360Y-24642600D01*
X17933360Y-24736849D01*
X17895492Y-24711546D01*
X17666516Y-24666000D01*
X17666512Y-24666000D01*
X17589200Y-24650622D01*
X17511888Y-24666000D01*
X14060228Y-24666000D01*
X13982916Y-24650622D01*
X13905604Y-24666000D01*
X13905600Y-24666000D01*
X13840212Y-24679006D01*
X13840212Y-24491143D01*
X13790929Y-24243378D01*
X13652772Y-24036613D01*
X13652772Y-22862029D01*
X14486451Y-22028350D01*
X17945800Y-22028350D01*
X17945800Y-23368909D01*
X18042473Y-23602298D01*
X18221101Y-23780927D01*
X18454490Y-23877600D01*
X19095050Y-23877600D01*
X19253800Y-23718850D01*
X19253800Y-21869600D01*
X18104550Y-21869600D01*
X17945800Y-22028350D01*
X14486451Y-22028350D01*
X16398510Y-20116291D01*
X17945800Y-20116291D01*
X17945800Y-21456850D01*
X18104550Y-21615600D01*
X19253800Y-21615600D01*
X19253800Y-19766350D01*
X19507800Y-19766350D01*
X19507800Y-21615600D01*
X20657050Y-21615600D01*
X20815800Y-21456850D01*
X20815800Y-20116291D01*
X20719127Y-19882902D01*
X20540499Y-19704273D01*
X20307110Y-19607600D01*
X19666550Y-19607600D01*
X19507800Y-19766350D01*
X19253800Y-19766350D01*
X19095050Y-19607600D01*
X18454490Y-19607600D01*
X18221101Y-19704273D01*
X18042473Y-19882902D01*
X17945800Y-20116291D01*
X16398510Y-20116291D01*
X18290473Y-18224329D01*
X18353929Y-18181929D01*
X18441946Y-18050203D01*
X18521904Y-17930538D01*
X18535496Y-17862204D01*
X18566000Y-17708852D01*
X18566000Y-17708848D01*
X18580888Y-17634000D01*
X18566000Y-17559152D01*
X18566000Y-14184289D01*
X21844382Y-17462672D01*
X21844382Y-17462672D01*
G37*
X21844382Y-17462672D02*
X21806191Y-17488191D01*
X21665843Y-17698235D01*
X21616560Y-17946000D01*
X21616560Y-18873000D01*
X21000000Y-18873000D01*
X20951399Y-18882667D01*
X20910197Y-18910197D01*
X20882667Y-18951399D01*
X20873000Y-19000000D01*
X20873000Y-23492541D01*
X20764590Y-23492541D01*
X20815800Y-23368909D01*
X20815800Y-22028350D01*
X20657050Y-21869600D01*
X19507800Y-21869600D01*
X19507800Y-23718850D01*
X19666550Y-23877600D01*
X19835642Y-23877600D01*
X19718082Y-23995160D01*
X18580800Y-23995160D01*
X18333035Y-24044443D01*
X18122991Y-24184791D01*
X17982643Y-24394835D01*
X17933360Y-24642600D01*
X17933360Y-24736849D01*
X17895492Y-24711546D01*
X17666516Y-24666000D01*
X17666512Y-24666000D01*
X17589200Y-24650622D01*
X17511888Y-24666000D01*
X14060228Y-24666000D01*
X13982916Y-24650622D01*
X13905604Y-24666000D01*
X13905600Y-24666000D01*
X13840212Y-24679006D01*
X13840212Y-24491143D01*
X13790929Y-24243378D01*
X13652772Y-24036613D01*
X13652772Y-22862029D01*
X14486451Y-22028350D01*
X17945800Y-22028350D01*
X17945800Y-23368909D01*
X18042473Y-23602298D01*
X18221101Y-23780927D01*
X18454490Y-23877600D01*
X19095050Y-23877600D01*
X19253800Y-23718850D01*
X19253800Y-21869600D01*
X18104550Y-21869600D01*
X17945800Y-22028350D01*
X14486451Y-22028350D01*
X16398510Y-20116291D01*
X17945800Y-20116291D01*
X17945800Y-21456850D01*
X18104550Y-21615600D01*
X19253800Y-21615600D01*
X19253800Y-19766350D01*
X19507800Y-19766350D01*
X19507800Y-21615600D01*
X20657050Y-21615600D01*
X20815800Y-21456850D01*
X20815800Y-20116291D01*
X20719127Y-19882902D01*
X20540499Y-19704273D01*
X20307110Y-19607600D01*
X19666550Y-19607600D01*
X19507800Y-19766350D01*
X19253800Y-19766350D01*
X19095050Y-19607600D01*
X18454490Y-19607600D01*
X18221101Y-19704273D01*
X18042473Y-19882902D01*
X17945800Y-20116291D01*
X16398510Y-20116291D01*
X18290473Y-18224329D01*
X18353929Y-18181929D01*
X18441946Y-18050203D01*
X18521904Y-17930538D01*
X18535496Y-17862204D01*
X18566000Y-17708852D01*
X18566000Y-17708848D01*
X18580888Y-17634000D01*
X18566000Y-17559152D01*
X18566000Y-14184289D01*
X21844382Y-17462672D01*
G36*
X6576876Y-21741702D02*
X6596876Y-21741702D01*
X6596876Y-21995702D01*
X6576876Y-21995702D01*
X6576876Y-22452452D01*
X6562876Y-22466452D01*
X6562876Y-23265702D01*
X6584876Y-23265702D01*
X6584876Y-23519702D01*
X6562876Y-23519702D01*
X6562876Y-23539702D01*
X6312876Y-23539702D01*
X6312876Y-23519702D01*
X5711626Y-23519702D01*
X5552876Y-23678452D01*
X5552876Y-23969012D01*
X5601003Y-24085200D01*
X5379891Y-24085200D01*
X5146502Y-24181873D01*
X5145302Y-24183073D01*
X5053965Y-24122043D01*
X4806200Y-24072760D01*
X4006200Y-24072760D01*
X3758435Y-24122043D01*
X3732286Y-24139515D01*
X5440333Y-22431470D01*
X5511549Y-22603401D01*
X5603155Y-22695007D01*
X5552876Y-22816392D01*
X5552876Y-23106952D01*
X5711626Y-23265702D01*
X6312876Y-23265702D01*
X6312876Y-22729952D01*
X6322876Y-22719952D01*
X6322876Y-21995702D01*
X6302876Y-21995702D01*
X6302876Y-21741702D01*
X6322876Y-21741702D01*
X6322876Y-21721702D01*
X6576876Y-21721702D01*
X6576876Y-21741702D01*
X6576876Y-21741702D01*
G37*
X6576876Y-21741702D02*
X6596876Y-21741702D01*
X6596876Y-21995702D01*
X6576876Y-21995702D01*
X6576876Y-22452452D01*
X6562876Y-22466452D01*
X6562876Y-23265702D01*
X6584876Y-23265702D01*
X6584876Y-23519702D01*
X6562876Y-23519702D01*
X6562876Y-23539702D01*
X6312876Y-23539702D01*
X6312876Y-23519702D01*
X5711626Y-23519702D01*
X5552876Y-23678452D01*
X5552876Y-23969012D01*
X5601003Y-24085200D01*
X5379891Y-24085200D01*
X5146502Y-24181873D01*
X5145302Y-24183073D01*
X5053965Y-24122043D01*
X4806200Y-24072760D01*
X4006200Y-24072760D01*
X3758435Y-24122043D01*
X3732286Y-24139515D01*
X5440333Y-22431470D01*
X5511549Y-22603401D01*
X5603155Y-22695007D01*
X5552876Y-22816392D01*
X5552876Y-23106952D01*
X5711626Y-23265702D01*
X6312876Y-23265702D01*
X6312876Y-22729952D01*
X6322876Y-22719952D01*
X6322876Y-21995702D01*
X6302876Y-21995702D01*
X6302876Y-21741702D01*
X6322876Y-21741702D01*
X6322876Y-21721702D01*
X6576876Y-21721702D01*
X6576876Y-21741702D01*
G36*
X28321000Y-18669000D02*
X28341000Y-18669000D01*
X28341000Y-18873000D01*
X28047000Y-18873000D01*
X28047000Y-18669000D01*
X28067000Y-18669000D01*
X28067000Y-18649000D01*
X28321000Y-18649000D01*
X28321000Y-18669000D01*
X28321000Y-18669000D01*
G37*
X28321000Y-18669000D02*
X28341000Y-18669000D01*
X28341000Y-18873000D01*
X28047000Y-18873000D01*
X28047000Y-18669000D01*
X28067000Y-18669000D01*
X28067000Y-18649000D01*
X28321000Y-18649000D01*
X28321000Y-18669000D01*
G36*
X24818211Y-3788500D02*
X24119250Y-3788500D01*
X23960500Y-3947250D01*
X23960500Y-4796500D01*
X23980500Y-4796500D01*
X23980500Y-5050500D01*
X23960500Y-5050500D01*
X23960500Y-5899750D01*
X24119250Y-6058500D01*
X25459810Y-6058500D01*
X25693199Y-5961827D01*
X25871827Y-5783198D01*
X25968500Y-5549809D01*
X25968500Y-5209250D01*
X25809752Y-5050502D01*
X25968500Y-5050502D01*
X25968500Y-4938790D01*
X29873000Y-8843290D01*
X29873000Y-10988500D01*
X25806550Y-10988500D01*
X25791309Y-10965691D01*
X25581265Y-10825343D01*
X25333500Y-10776060D01*
X22333500Y-10776060D01*
X22085735Y-10825343D01*
X21875691Y-10965691D01*
X21735343Y-11175735D01*
X21686060Y-11423500D01*
X21686060Y-11467258D01*
X18286000Y-8067199D01*
X18286000Y-6170848D01*
X18300888Y-6096000D01*
X18286000Y-6021152D01*
X18286000Y-6021148D01*
X18241904Y-5799463D01*
X18241904Y-5799462D01*
X18116329Y-5611527D01*
X18073929Y-5548071D01*
X18010473Y-5505671D01*
X17354331Y-4849530D01*
X17311929Y-4786071D01*
X17259040Y-4750732D01*
X17259040Y-3855841D01*
X20322001Y-6918803D01*
X20322000Y-8307153D01*
X20307112Y-8382000D01*
X20322000Y-8456847D01*
X20322000Y-8456851D01*
X20366096Y-8678536D01*
X20534071Y-8929929D01*
X20597529Y-8972331D01*
X21533173Y-9907975D01*
X21575571Y-9971429D01*
X21639024Y-10013827D01*
X21639026Y-10013829D01*
X21713991Y-10063918D01*
X21735343Y-10171265D01*
X21875691Y-10381309D01*
X22085735Y-10521657D01*
X22333500Y-10570940D01*
X25333500Y-10570940D01*
X25581265Y-10521657D01*
X25791309Y-10381309D01*
X25931657Y-10171265D01*
X25980940Y-9923500D01*
X25980940Y-8923500D01*
X25931657Y-8675735D01*
X25791309Y-8465691D01*
X25728166Y-8423500D01*
X25791309Y-8381309D01*
X25931657Y-8171265D01*
X25980940Y-7923500D01*
X25980940Y-6923500D01*
X25931657Y-6675735D01*
X25791309Y-6465691D01*
X25581265Y-6325343D01*
X25333500Y-6276060D01*
X22350180Y-6276060D01*
X22350000Y-6275153D01*
X22350000Y-6275148D01*
X22306906Y-6058500D01*
X23547750Y-6058500D01*
X23706500Y-5899750D01*
X23706500Y-5050500D01*
X21857250Y-5050500D01*
X21698500Y-5209250D01*
X21698500Y-5383698D01*
X20611993Y-4297191D01*
X21698500Y-4297191D01*
X21698500Y-4637750D01*
X21857250Y-4796500D01*
X23706500Y-4796500D01*
X23706500Y-3947250D01*
X23547750Y-3788500D01*
X22207190Y-3788500D01*
X21973801Y-3885173D01*
X21795173Y-4063802D01*
X21698500Y-4297191D01*
X20611993Y-4297191D01*
X18265801Y-1951000D01*
X22980711Y-1951000D01*
X24818211Y-3788500D01*
X24818211Y-3788500D01*
G37*
X24818211Y-3788500D02*
X24119250Y-3788500D01*
X23960500Y-3947250D01*
X23960500Y-4796500D01*
X23980500Y-4796500D01*
X23980500Y-5050500D01*
X23960500Y-5050500D01*
X23960500Y-5899750D01*
X24119250Y-6058500D01*
X25459810Y-6058500D01*
X25693199Y-5961827D01*
X25871827Y-5783198D01*
X25968500Y-5549809D01*
X25968500Y-5209250D01*
X25809752Y-5050502D01*
X25968500Y-5050502D01*
X25968500Y-4938790D01*
X29873000Y-8843290D01*
X29873000Y-10988500D01*
X25806550Y-10988500D01*
X25791309Y-10965691D01*
X25581265Y-10825343D01*
X25333500Y-10776060D01*
X22333500Y-10776060D01*
X22085735Y-10825343D01*
X21875691Y-10965691D01*
X21735343Y-11175735D01*
X21686060Y-11423500D01*
X21686060Y-11467258D01*
X18286000Y-8067199D01*
X18286000Y-6170848D01*
X18300888Y-6096000D01*
X18286000Y-6021152D01*
X18286000Y-6021148D01*
X18241904Y-5799463D01*
X18241904Y-5799462D01*
X18116329Y-5611527D01*
X18073929Y-5548071D01*
X18010473Y-5505671D01*
X17354331Y-4849530D01*
X17311929Y-4786071D01*
X17259040Y-4750732D01*
X17259040Y-3855841D01*
X20322001Y-6918803D01*
X20322000Y-8307153D01*
X20307112Y-8382000D01*
X20322000Y-8456847D01*
X20322000Y-8456851D01*
X20366096Y-8678536D01*
X20534071Y-8929929D01*
X20597529Y-8972331D01*
X21533173Y-9907975D01*
X21575571Y-9971429D01*
X21639024Y-10013827D01*
X21639026Y-10013829D01*
X21713991Y-10063918D01*
X21735343Y-10171265D01*
X21875691Y-10381309D01*
X22085735Y-10521657D01*
X22333500Y-10570940D01*
X25333500Y-10570940D01*
X25581265Y-10521657D01*
X25791309Y-10381309D01*
X25931657Y-10171265D01*
X25980940Y-9923500D01*
X25980940Y-8923500D01*
X25931657Y-8675735D01*
X25791309Y-8465691D01*
X25728166Y-8423500D01*
X25791309Y-8381309D01*
X25931657Y-8171265D01*
X25980940Y-7923500D01*
X25980940Y-6923500D01*
X25931657Y-6675735D01*
X25791309Y-6465691D01*
X25581265Y-6325343D01*
X25333500Y-6276060D01*
X22350180Y-6276060D01*
X22350000Y-6275153D01*
X22350000Y-6275148D01*
X22306906Y-6058500D01*
X23547750Y-6058500D01*
X23706500Y-5899750D01*
X23706500Y-5050500D01*
X21857250Y-5050500D01*
X21698500Y-5209250D01*
X21698500Y-5383698D01*
X20611993Y-4297191D01*
X21698500Y-4297191D01*
X21698500Y-4637750D01*
X21857250Y-4796500D01*
X23706500Y-4796500D01*
X23706500Y-3947250D01*
X23547750Y-3788500D01*
X22207190Y-3788500D01*
X21973801Y-3885173D01*
X21795173Y-4063802D01*
X21698500Y-4297191D01*
X20611993Y-4297191D01*
X18265801Y-1951000D01*
X22980711Y-1951000D01*
X24818211Y-3788500D01*
G36*
X8255000Y-6477000D02*
X8275000Y-6477000D01*
X8275000Y-6731000D01*
X8255000Y-6731000D01*
X8255000Y-7938469D01*
X8487027Y-8058968D01*
X9016490Y-7810821D01*
X9394963Y-7396174D01*
X9587570Y-7684430D01*
X9896458Y-7890823D01*
X9952097Y-8170537D01*
X10074115Y-8353149D01*
X10120072Y-8421929D01*
X10183528Y-8464329D01*
X11855670Y-10136472D01*
X11898071Y-10199929D01*
X11959538Y-10241000D01*
X4491000Y-10241000D01*
X4491000Y-7659631D01*
X4507570Y-7684430D01*
X5003275Y-8015650D01*
X5440402Y-8102600D01*
X5735598Y-8102600D01*
X6172725Y-8015650D01*
X6668430Y-7684430D01*
X6861037Y-7396174D01*
X7239510Y-7810821D01*
X7768973Y-8058968D01*
X8001000Y-7938469D01*
X8001000Y-6731000D01*
X7981000Y-6731000D01*
X7981000Y-6477000D01*
X8001000Y-6477000D01*
X8001000Y-6457000D01*
X8255000Y-6457000D01*
X8255000Y-6477000D01*
X8255000Y-6477000D01*
G37*
X8255000Y-6477000D02*
X8275000Y-6477000D01*
X8275000Y-6731000D01*
X8255000Y-6731000D01*
X8255000Y-7938469D01*
X8487027Y-8058968D01*
X9016490Y-7810821D01*
X9394963Y-7396174D01*
X9587570Y-7684430D01*
X9896458Y-7890823D01*
X9952097Y-8170537D01*
X10074115Y-8353149D01*
X10120072Y-8421929D01*
X10183528Y-8464329D01*
X11855670Y-10136472D01*
X11898071Y-10199929D01*
X11959538Y-10241000D01*
X4491000Y-10241000D01*
X4491000Y-7659631D01*
X4507570Y-7684430D01*
X5003275Y-8015650D01*
X5440402Y-8102600D01*
X5735598Y-8102600D01*
X6172725Y-8015650D01*
X6668430Y-7684430D01*
X6861037Y-7396174D01*
X7239510Y-7810821D01*
X7768973Y-8058968D01*
X8001000Y-7938469D01*
X8001000Y-6731000D01*
X7981000Y-6731000D01*
X7981000Y-6477000D01*
X8001000Y-6477000D01*
X8001000Y-6457000D01*
X8255000Y-6457000D01*
X8255000Y-6477000D01*
G36*
X11045974Y-2611225D02*
X10815598Y-2565400D01*
X10520402Y-2565400D01*
X10083275Y-2652350D01*
X9587570Y-2983570D01*
X9394963Y-3271826D01*
X9016490Y-2857179D01*
X8487027Y-2609032D01*
X8255000Y-2729531D01*
X8255000Y-3937000D01*
X8275000Y-3937000D01*
X8275000Y-4191000D01*
X8255000Y-4191000D01*
X8255000Y-4211000D01*
X8001000Y-4211000D01*
X8001000Y-4191000D01*
X7981000Y-4191000D01*
X7981000Y-3937000D01*
X8001000Y-3937000D01*
X8001000Y-2729531D01*
X7768973Y-2609032D01*
X7239510Y-2857179D01*
X6861037Y-3271826D01*
X6668430Y-2983570D01*
X6172725Y-2652350D01*
X5735598Y-2565400D01*
X5487890Y-2565400D01*
X6102290Y-1951000D01*
X11706198Y-1951000D01*
X11045974Y-2611225D01*
X11045974Y-2611225D01*
G37*
X11045974Y-2611225D02*
X10815598Y-2565400D01*
X10520402Y-2565400D01*
X10083275Y-2652350D01*
X9587570Y-2983570D01*
X9394963Y-3271826D01*
X9016490Y-2857179D01*
X8487027Y-2609032D01*
X8255000Y-2729531D01*
X8255000Y-3937000D01*
X8275000Y-3937000D01*
X8275000Y-4191000D01*
X8255000Y-4191000D01*
X8255000Y-4211000D01*
X8001000Y-4211000D01*
X8001000Y-4191000D01*
X7981000Y-4191000D01*
X7981000Y-3937000D01*
X8001000Y-3937000D01*
X8001000Y-2729531D01*
X7768973Y-2609032D01*
X7239510Y-2857179D01*
X6861037Y-3271826D01*
X6668430Y-2983570D01*
X6172725Y-2652350D01*
X5735598Y-2565400D01*
X5487890Y-2565400D01*
X6102290Y-1951000D01*
X11706198Y-1951000D01*
X11045974Y-2611225D01*
G36*
X35134275Y-64151883D02*
X34825894Y-64299455D01*
X34532595Y-65054031D01*
X34550386Y-65863409D01*
X34825894Y-66528545D01*
X35134276Y-66676118D01*
X36396395Y-65414000D01*
X36382252Y-65399858D01*
X36561858Y-65220252D01*
X36576000Y-65234395D01*
X36590142Y-65220252D01*
X36769748Y-65399858D01*
X36755605Y-65414000D01*
X38017724Y-66676118D01*
X38326106Y-66528545D01*
X38619405Y-65773969D01*
X38601614Y-64964591D01*
X38326106Y-64299455D01*
X38017725Y-64151883D01*
X38042608Y-64127000D01*
X39290000Y-64127000D01*
X39290000Y-107222601D01*
X38795494Y-106728095D01*
X37918906Y-106365000D01*
X36970094Y-106365000D01*
X36093506Y-106728095D01*
X35422595Y-107399006D01*
X35059500Y-108275594D01*
X35059500Y-109224406D01*
X35422595Y-110100994D01*
X36093506Y-110771905D01*
X36970094Y-111135000D01*
X37918906Y-111135000D01*
X38795494Y-110771905D01*
X39290000Y-110277399D01*
X39290000Y-142722601D01*
X38795494Y-142228095D01*
X37918906Y-141865000D01*
X36970094Y-141865000D01*
X36093506Y-142228095D01*
X35422595Y-142899006D01*
X35059500Y-143775594D01*
X35059500Y-144724406D01*
X35422595Y-145600994D01*
X36093506Y-146271905D01*
X36970094Y-146635000D01*
X37918906Y-146635000D01*
X38795494Y-146271905D01*
X39290000Y-145777399D01*
X39290000Y-157290000D01*
X735000Y-157290000D01*
X735000Y-125080000D01*
X8649060Y-125080000D01*
X8649060Y-128080000D01*
X8698343Y-128327765D01*
X8838691Y-128537809D01*
X9048735Y-128678157D01*
X9296500Y-128727440D01*
X10896500Y-128727440D01*
X11144265Y-128678157D01*
X11354309Y-128537809D01*
X11494657Y-128327765D01*
X11519872Y-128201000D01*
X13114215Y-128201000D01*
X13208735Y-128264157D01*
X13456500Y-128313440D01*
X14356500Y-128313440D01*
X14604265Y-128264157D01*
X14698785Y-128201000D01*
X14857188Y-128201000D01*
X14934500Y-128216378D01*
X14945913Y-128214108D01*
X14930094Y-128293636D01*
X14869101Y-128384919D01*
X14810500Y-128679525D01*
X14810501Y-141053524D01*
X14790714Y-141153000D01*
X14869102Y-141547082D01*
X15035982Y-141796837D01*
X15035985Y-141796840D01*
X15092332Y-141881169D01*
X15176661Y-141937516D01*
X25440982Y-152201837D01*
X25497331Y-152286169D01*
X25831418Y-152509399D01*
X26126024Y-152568000D01*
X26126028Y-152568000D01*
X26225499Y-152587786D01*
X26324970Y-152568000D01*
X30825029Y-152568000D01*
X30924500Y-152587786D01*
X31023971Y-152568000D01*
X31023976Y-152568000D01*
X31318582Y-152509399D01*
X31652669Y-152286169D01*
X31709018Y-152201837D01*
X34362341Y-149548515D01*
X34446669Y-149492169D01*
X34503016Y-149407840D01*
X34503018Y-149407838D01*
X34669898Y-149158083D01*
X34669899Y-149158082D01*
X34728500Y-148863476D01*
X34728500Y-148863471D01*
X34748286Y-148764000D01*
X34728500Y-148664529D01*
X34728500Y-140038355D01*
X37156341Y-137610515D01*
X37240669Y-137554169D01*
X37297016Y-137469840D01*
X37297018Y-137469838D01*
X37463898Y-137220083D01*
X37463899Y-137220082D01*
X37522500Y-136925476D01*
X37522500Y-136925471D01*
X37542286Y-136826000D01*
X37522500Y-136726529D01*
X37522500Y-116097471D01*
X37542286Y-115998000D01*
X37522500Y-115898529D01*
X37522500Y-115898524D01*
X37463899Y-115603918D01*
X37413911Y-115529105D01*
X37297018Y-115354162D01*
X37297016Y-115354160D01*
X37240669Y-115269831D01*
X37156340Y-115213484D01*
X34728500Y-112785645D01*
X34728500Y-98473470D01*
X34748286Y-98373999D01*
X34728500Y-98274528D01*
X34728500Y-98274524D01*
X34669899Y-97979918D01*
X34598534Y-97873113D01*
X34525226Y-97763400D01*
X35433512Y-98131119D01*
X36481747Y-98122713D01*
X37411147Y-97737743D01*
X37631916Y-97367022D01*
X35936500Y-95671605D01*
X35922358Y-95685748D01*
X35742752Y-95506142D01*
X35756895Y-95492000D01*
X36116105Y-95492000D01*
X37811522Y-97187416D01*
X38182243Y-96966647D01*
X38575619Y-95994988D01*
X38567213Y-94946753D01*
X38182243Y-94017353D01*
X37811522Y-93796584D01*
X36116105Y-95492000D01*
X35756895Y-95492000D01*
X34061478Y-93796584D01*
X33690757Y-94017353D01*
X33297381Y-94989012D01*
X33305787Y-96037247D01*
X33656289Y-96883433D01*
X32888914Y-96116058D01*
X32971500Y-95916678D01*
X32971500Y-95067322D01*
X32646466Y-94282620D01*
X32045880Y-93682034D01*
X31888821Y-93616978D01*
X34241084Y-93616978D01*
X35936500Y-95312395D01*
X37631916Y-93616978D01*
X37411147Y-93246257D01*
X36439488Y-92852881D01*
X35391253Y-92861287D01*
X34461853Y-93246257D01*
X34241084Y-93616978D01*
X31888821Y-93616978D01*
X31261178Y-93357000D01*
X30411822Y-93357000D01*
X29627120Y-93682034D01*
X29026534Y-94282620D01*
X28701500Y-95067322D01*
X28701500Y-95916678D01*
X29026534Y-96701380D01*
X29627120Y-97301966D01*
X30411822Y-97627000D01*
X31261178Y-97627000D01*
X31460558Y-97544414D01*
X32229242Y-98313098D01*
X31339488Y-97952881D01*
X30291253Y-97961287D01*
X29361853Y-98346257D01*
X29141084Y-98716978D01*
X30836500Y-100412395D01*
X30850642Y-100398252D01*
X31030248Y-100577858D01*
X31016105Y-100592000D01*
X31030248Y-100606142D01*
X30850642Y-100785748D01*
X30836500Y-100771605D01*
X29141084Y-102467022D01*
X29361853Y-102837743D01*
X30333512Y-103231119D01*
X31381747Y-103222713D01*
X32311147Y-102837743D01*
X32531915Y-102467023D01*
X32644666Y-102579774D01*
X32708501Y-102515939D01*
X32708500Y-113104529D01*
X32688714Y-113204000D01*
X32708500Y-113303471D01*
X32708500Y-113303475D01*
X32767101Y-113598081D01*
X32767102Y-113598082D01*
X32916767Y-113822072D01*
X32990331Y-113932169D01*
X33074663Y-113988518D01*
X35502501Y-116416357D01*
X35502500Y-136407644D01*
X33074661Y-138835484D01*
X32990332Y-138891831D01*
X32933985Y-138976160D01*
X32933982Y-138976163D01*
X32767102Y-139225918D01*
X32688714Y-139620000D01*
X32708501Y-139719476D01*
X32708500Y-148345644D01*
X30506145Y-150548000D01*
X26643855Y-150548000D01*
X16830500Y-140734645D01*
X16830500Y-130574750D01*
X18025500Y-130574750D01*
X18025500Y-130667309D01*
X18122173Y-130900698D01*
X18300801Y-131079327D01*
X18534190Y-131176000D01*
X18824750Y-131176000D01*
X18983500Y-131017250D01*
X18983500Y-130416000D01*
X19237500Y-130416000D01*
X19237500Y-131017250D01*
X19396250Y-131176000D01*
X19686810Y-131176000D01*
X19920199Y-131079327D01*
X20098827Y-130900698D01*
X20150168Y-130776750D01*
X21135500Y-130776750D01*
X21135500Y-130992310D01*
X21232173Y-131225699D01*
X21410802Y-131404327D01*
X21644191Y-131501000D01*
X21884750Y-131501000D01*
X22043500Y-131342250D01*
X22043500Y-130618000D01*
X21294250Y-130618000D01*
X21135500Y-130776750D01*
X20150168Y-130776750D01*
X20195500Y-130667309D01*
X20195500Y-130574750D01*
X20036750Y-130416000D01*
X19237500Y-130416000D01*
X18983500Y-130416000D01*
X18184250Y-130416000D01*
X18025500Y-130574750D01*
X16830500Y-130574750D01*
X16830500Y-129828702D01*
X17070500Y-129876440D01*
X17570500Y-129876440D01*
X17818265Y-129827157D01*
X17857411Y-129801000D01*
X18072592Y-129801000D01*
X18025500Y-129914691D01*
X18025500Y-130007250D01*
X18184250Y-130166000D01*
X18983500Y-130166000D01*
X18983500Y-130144000D01*
X19237500Y-130144000D01*
X19237500Y-130166000D01*
X20036750Y-130166000D01*
X20195500Y-130007250D01*
X20195500Y-129914691D01*
X20148408Y-129801000D01*
X21213658Y-129801000D01*
X21135500Y-129989690D01*
X21135500Y-130205250D01*
X21294250Y-130364000D01*
X22043500Y-130364000D01*
X22043500Y-130344000D01*
X22297500Y-130344000D01*
X22297500Y-130364000D01*
X22317500Y-130364000D01*
X22317500Y-130618000D01*
X22297500Y-130618000D01*
X22297500Y-131342250D01*
X22456250Y-131501000D01*
X22696809Y-131501000D01*
X22930198Y-131404327D01*
X22931398Y-131403127D01*
X23022735Y-131464157D01*
X23270500Y-131513440D01*
X23484585Y-131513440D01*
X24809500Y-132838356D01*
X24809500Y-133130439D01*
X25027966Y-133657862D01*
X25220104Y-133850000D01*
X24388676Y-133850000D01*
X24237499Y-133819929D01*
X24086322Y-133850000D01*
X24086318Y-133850000D01*
X23638573Y-133939062D01*
X23130827Y-134278327D01*
X23045189Y-134406493D01*
X21055993Y-136395690D01*
X20927828Y-136481327D01*
X20842191Y-136609492D01*
X20842190Y-136609493D01*
X20588563Y-136989073D01*
X20469429Y-137588000D01*
X20499501Y-137739182D01*
X20499500Y-139722822D01*
X20469429Y-139874000D01*
X20499500Y-140025177D01*
X20499500Y-140025181D01*
X20588562Y-140472926D01*
X20927827Y-140980673D01*
X21055995Y-141066312D01*
X27532485Y-147542802D01*
X27411500Y-147834887D01*
X27411500Y-148525113D01*
X27675638Y-149162799D01*
X28163701Y-149650862D01*
X28801387Y-149915000D01*
X29491613Y-149915000D01*
X30129299Y-149650862D01*
X30617362Y-149162799D01*
X30881500Y-148525113D01*
X30881500Y-147834887D01*
X30681500Y-147352044D01*
X30681500Y-147137182D01*
X30711572Y-146986000D01*
X30592438Y-146387072D01*
X30475056Y-146211399D01*
X30253173Y-145879327D01*
X30125005Y-145793688D01*
X24716317Y-140385000D01*
X25051613Y-140385000D01*
X25534456Y-140185000D01*
X26638323Y-140185000D01*
X26789500Y-140215071D01*
X26940677Y-140185000D01*
X26940682Y-140185000D01*
X27388427Y-140095938D01*
X27896173Y-139756673D01*
X27981812Y-139628505D01*
X32516811Y-135093507D01*
X32770438Y-134713927D01*
X32889572Y-134115000D01*
X32770438Y-133516073D01*
X32431173Y-133008327D01*
X32118446Y-132799369D01*
X32137362Y-132791534D01*
X32541034Y-132387862D01*
X32759500Y-131860439D01*
X32759500Y-131289561D01*
X32541034Y-130762138D01*
X32137362Y-130358466D01*
X32008284Y-130305000D01*
X32137362Y-130251534D01*
X32541034Y-129847862D01*
X32759500Y-129320439D01*
X32759500Y-128749561D01*
X32541034Y-128222138D01*
X32137362Y-127818466D01*
X32023917Y-127771475D01*
X32078505Y-127748864D01*
X32152639Y-127502745D01*
X31324500Y-126674605D01*
X30496361Y-127502745D01*
X30570495Y-127748864D01*
X30628948Y-127769874D01*
X30511638Y-127818466D01*
X30107966Y-128222138D01*
X29889500Y-128749561D01*
X29889500Y-129320439D01*
X30107966Y-129847862D01*
X30511638Y-130251534D01*
X30640716Y-130305000D01*
X30511638Y-130358466D01*
X30338980Y-130531125D01*
X29469017Y-129661162D01*
X29412669Y-129576831D01*
X29078582Y-129353601D01*
X28783976Y-129295000D01*
X28783971Y-129295000D01*
X28684500Y-129275214D01*
X28585029Y-129295000D01*
X27263896Y-129295000D01*
X27057362Y-129088466D01*
X26943917Y-129041475D01*
X26998505Y-129018864D01*
X27072639Y-128772745D01*
X26244500Y-127944605D01*
X26230358Y-127958748D01*
X26050753Y-127779143D01*
X26064895Y-127765000D01*
X26424105Y-127765000D01*
X27252245Y-128593139D01*
X27498364Y-128519005D01*
X27691465Y-127981777D01*
X27664278Y-127411546D01*
X27498364Y-127010995D01*
X27252245Y-126936861D01*
X26424105Y-127765000D01*
X26064895Y-127765000D01*
X25236755Y-126936861D01*
X24990636Y-127010995D01*
X24797535Y-127548223D01*
X24808655Y-127781449D01*
X24728476Y-127765500D01*
X24728471Y-127765500D01*
X24629000Y-127745714D01*
X24529529Y-127765500D01*
X24133041Y-127765500D01*
X24070500Y-127753060D01*
X23270500Y-127753060D01*
X23022735Y-127802343D01*
X22920500Y-127870655D01*
X22818265Y-127802343D01*
X22570500Y-127753060D01*
X22207430Y-127753060D01*
X22170499Y-127745714D01*
X22133568Y-127753060D01*
X21770500Y-127753060D01*
X21630035Y-127781000D01*
X19282301Y-127781000D01*
X19122500Y-127749214D01*
X18962699Y-127781000D01*
X17893330Y-127781000D01*
X17818265Y-127730843D01*
X17570500Y-127681560D01*
X17070500Y-127681560D01*
X16822735Y-127730843D01*
X16612691Y-127871191D01*
X16570500Y-127934334D01*
X16528309Y-127871191D01*
X16318265Y-127730843D01*
X16070500Y-127681560D01*
X15779097Y-127681560D01*
X16009658Y-127451000D01*
X20233188Y-127451000D01*
X20310500Y-127466378D01*
X20387812Y-127451000D01*
X20387816Y-127451000D01*
X20616792Y-127405454D01*
X20876453Y-127231953D01*
X20920249Y-127166408D01*
X21276659Y-126809999D01*
X24532189Y-126809999D01*
X24609501Y-126825377D01*
X24686813Y-126809999D01*
X24686817Y-126809999D01*
X24915793Y-126764453D01*
X25175454Y-126590952D01*
X25219250Y-126525407D01*
X25367381Y-126377277D01*
X25431638Y-126441534D01*
X25545083Y-126488525D01*
X25490495Y-126511136D01*
X25416361Y-126757255D01*
X26244500Y-127585395D01*
X27072639Y-126757255D01*
X26998505Y-126511136D01*
X26940052Y-126490126D01*
X27057362Y-126441534D01*
X27220673Y-126278223D01*
X29877535Y-126278223D01*
X29904722Y-126848454D01*
X30070636Y-127249005D01*
X30316755Y-127323139D01*
X31144895Y-126495000D01*
X31504105Y-126495000D01*
X32332245Y-127323139D01*
X32578364Y-127249005D01*
X32771465Y-126711777D01*
X32744278Y-126141546D01*
X32578364Y-125740995D01*
X32332245Y-125666861D01*
X31504105Y-126495000D01*
X31144895Y-126495000D01*
X30316755Y-125666861D01*
X30070636Y-125740995D01*
X29877535Y-126278223D01*
X27220673Y-126278223D01*
X27461034Y-126037862D01*
X27679500Y-125510439D01*
X27679500Y-124939561D01*
X27596839Y-124740000D01*
X30096425Y-124740000D01*
X30107966Y-124767862D01*
X30511638Y-125171534D01*
X30625083Y-125218525D01*
X30570495Y-125241136D01*
X30496361Y-125487255D01*
X31324500Y-126315395D01*
X32152639Y-125487255D01*
X32078505Y-125241136D01*
X32020052Y-125220126D01*
X32137362Y-125171534D01*
X32541034Y-124767862D01*
X32759500Y-124240439D01*
X32759500Y-123669561D01*
X32541034Y-123142138D01*
X32137362Y-122738466D01*
X32008284Y-122685000D01*
X32137362Y-122631534D01*
X32541034Y-122227862D01*
X32759500Y-121700439D01*
X32759500Y-121129561D01*
X32541034Y-120602138D01*
X32137362Y-120198466D01*
X32118444Y-120190630D01*
X32431172Y-119981672D01*
X32770437Y-119473926D01*
X32889571Y-118874999D01*
X32770437Y-118276072D01*
X32516810Y-117896492D01*
X26241500Y-111621183D01*
X26241500Y-110478251D01*
X26261827Y-110508673D01*
X26389995Y-110594312D01*
X27475637Y-111679954D01*
X27675638Y-112162799D01*
X28163701Y-112650862D01*
X28801387Y-112915000D01*
X29491613Y-112915000D01*
X30129299Y-112650862D01*
X30617362Y-112162799D01*
X30881500Y-111525113D01*
X30881500Y-110834887D01*
X30617362Y-110197201D01*
X30129299Y-109709138D01*
X29646454Y-109509137D01*
X28903500Y-108766183D01*
X28903500Y-102252889D01*
X28961478Y-102287416D01*
X30656895Y-100592000D01*
X28961478Y-98896584D01*
X28590757Y-99117353D01*
X28476566Y-99399411D01*
X28475173Y-99397327D01*
X28347007Y-99311689D01*
X27036812Y-98001495D01*
X26951173Y-97873327D01*
X26443427Y-97534062D01*
X25995682Y-97445000D01*
X25995677Y-97445000D01*
X25844500Y-97414929D01*
X25693323Y-97445000D01*
X23709676Y-97445000D01*
X23558499Y-97414929D01*
X23407322Y-97445000D01*
X23407318Y-97445000D01*
X22959573Y-97534062D01*
X22451827Y-97873327D01*
X22366189Y-98001493D01*
X21055995Y-99311688D01*
X20927827Y-99397327D01*
X20588562Y-99905074D01*
X20499500Y-100352819D01*
X20499500Y-100352823D01*
X20469429Y-100504000D01*
X20499500Y-100655177D01*
X20499501Y-112798813D01*
X20499500Y-112798818D01*
X20499500Y-113243823D01*
X20469429Y-113395000D01*
X20499500Y-113546177D01*
X20499500Y-113546181D01*
X20588562Y-113993926D01*
X20927827Y-114501673D01*
X21055995Y-114587312D01*
X23999242Y-117530560D01*
X23270500Y-117530560D01*
X23022735Y-117579843D01*
X22931398Y-117640873D01*
X22930198Y-117639673D01*
X22696809Y-117543000D01*
X22456250Y-117543000D01*
X22297500Y-117701750D01*
X22297500Y-118426000D01*
X22317500Y-118426000D01*
X22317500Y-118680000D01*
X22297500Y-118680000D01*
X22297500Y-118700000D01*
X22043500Y-118700000D01*
X22043500Y-118680000D01*
X21294250Y-118680000D01*
X21135500Y-118838750D01*
X21135500Y-119054310D01*
X21168095Y-119133000D01*
X20143437Y-119133000D01*
X20195500Y-119007309D01*
X20195500Y-118914750D01*
X20036750Y-118756000D01*
X19237500Y-118756000D01*
X19237500Y-118778000D01*
X18983500Y-118778000D01*
X18983500Y-118756000D01*
X18184250Y-118756000D01*
X18025500Y-118914750D01*
X18025500Y-119007309D01*
X18072592Y-119121000D01*
X17857411Y-119121000D01*
X17818265Y-119094843D01*
X17570500Y-119045560D01*
X17070500Y-119045560D01*
X16830500Y-119093298D01*
X16830500Y-118254691D01*
X18025500Y-118254691D01*
X18025500Y-118347250D01*
X18184250Y-118506000D01*
X18983500Y-118506000D01*
X18983500Y-117904750D01*
X19237500Y-117904750D01*
X19237500Y-118506000D01*
X20036750Y-118506000D01*
X20195500Y-118347250D01*
X20195500Y-118254691D01*
X20111415Y-118051690D01*
X21135500Y-118051690D01*
X21135500Y-118267250D01*
X21294250Y-118426000D01*
X22043500Y-118426000D01*
X22043500Y-117701750D01*
X21884750Y-117543000D01*
X21644191Y-117543000D01*
X21410802Y-117639673D01*
X21232173Y-117818301D01*
X21135500Y-118051690D01*
X20111415Y-118051690D01*
X20098827Y-118021302D01*
X19920199Y-117842673D01*
X19686810Y-117746000D01*
X19396250Y-117746000D01*
X19237500Y-117904750D01*
X18983500Y-117904750D01*
X18824750Y-117746000D01*
X18534190Y-117746000D01*
X18300801Y-117842673D01*
X18122173Y-118021302D01*
X18025500Y-118254691D01*
X16830500Y-118254691D01*
X16830500Y-117804355D01*
X19630337Y-115004518D01*
X19714669Y-114948169D01*
X19937899Y-114614082D01*
X19996500Y-114319476D01*
X19996500Y-114319472D01*
X20016286Y-114220001D01*
X19996500Y-114120530D01*
X19996500Y-99144355D01*
X22452856Y-96688000D01*
X23459029Y-96688000D01*
X23558500Y-96707786D01*
X23657971Y-96688000D01*
X23657976Y-96688000D01*
X23952582Y-96629399D01*
X24286669Y-96406169D01*
X24343018Y-96321837D01*
X27758337Y-92906518D01*
X27842669Y-92850169D01*
X28065899Y-92516082D01*
X28115440Y-92267022D01*
X29141084Y-92267022D01*
X29361853Y-92637743D01*
X30333512Y-93031119D01*
X31381747Y-93022713D01*
X32311147Y-92637743D01*
X32531916Y-92267022D01*
X30836500Y-90571605D01*
X29141084Y-92267022D01*
X28115440Y-92267022D01*
X28124500Y-92221476D01*
X28124500Y-92221472D01*
X28144286Y-92122001D01*
X28124500Y-92022530D01*
X28124500Y-89889012D01*
X28197381Y-89889012D01*
X28205787Y-90937247D01*
X28590757Y-91866647D01*
X28961478Y-92087416D01*
X30656895Y-90392000D01*
X31016105Y-90392000D01*
X32711522Y-92087416D01*
X33082243Y-91866647D01*
X33475619Y-90894988D01*
X33467213Y-89846753D01*
X33082243Y-88917353D01*
X32711522Y-88696584D01*
X31016105Y-90392000D01*
X30656895Y-90392000D01*
X28961478Y-88696584D01*
X28590757Y-88917353D01*
X28197381Y-89889012D01*
X28124500Y-89889012D01*
X28124500Y-87467022D01*
X29141084Y-87467022D01*
X29361853Y-87837743D01*
X29738520Y-87990237D01*
X29361853Y-88146257D01*
X29141084Y-88516978D01*
X30836500Y-90212395D01*
X32531916Y-88516978D01*
X32311147Y-88146257D01*
X31934480Y-87993763D01*
X32311147Y-87837743D01*
X32531916Y-87467022D01*
X30836500Y-85771605D01*
X29141084Y-87467022D01*
X28124500Y-87467022D01*
X28124500Y-84632355D01*
X28557598Y-84199257D01*
X28197381Y-85089012D01*
X28205787Y-86137247D01*
X28590757Y-87066647D01*
X28961478Y-87287416D01*
X30656895Y-85592000D01*
X31016105Y-85592000D01*
X32711522Y-87287416D01*
X33082243Y-87066647D01*
X33475619Y-86094988D01*
X33467213Y-85046753D01*
X33082243Y-84117353D01*
X32711522Y-83896584D01*
X31016105Y-85592000D01*
X30656895Y-85592000D01*
X30642752Y-85577858D01*
X30822358Y-85398252D01*
X30836500Y-85412395D01*
X32531916Y-83716978D01*
X32311147Y-83346257D01*
X31339488Y-82952881D01*
X30291253Y-82961287D01*
X29445067Y-83311789D01*
X30212442Y-82544414D01*
X30411822Y-82627000D01*
X31261178Y-82627000D01*
X31888820Y-82367022D01*
X34241084Y-82367022D01*
X34461853Y-82737743D01*
X35433512Y-83131119D01*
X36481747Y-83122713D01*
X37411147Y-82737743D01*
X37631916Y-82367022D01*
X35936500Y-80671605D01*
X34241084Y-82367022D01*
X31888820Y-82367022D01*
X32045880Y-82301966D01*
X32646466Y-81701380D01*
X32971500Y-80916678D01*
X32971500Y-80067322D01*
X32939063Y-79989012D01*
X33297381Y-79989012D01*
X33305787Y-81037247D01*
X33690757Y-81966647D01*
X34061478Y-82187416D01*
X35756895Y-80492000D01*
X36116105Y-80492000D01*
X37811522Y-82187416D01*
X38182243Y-81966647D01*
X38575619Y-80994988D01*
X38567213Y-79946753D01*
X38182243Y-79017353D01*
X37811522Y-78796584D01*
X36116105Y-80492000D01*
X35756895Y-80492000D01*
X34061478Y-78796584D01*
X33690757Y-79017353D01*
X33297381Y-79989012D01*
X32939063Y-79989012D01*
X32646466Y-79282620D01*
X32045880Y-78682034D01*
X31888821Y-78616978D01*
X34241084Y-78616978D01*
X35936500Y-80312395D01*
X37631916Y-78616978D01*
X37411147Y-78246257D01*
X36439488Y-77852881D01*
X35391253Y-77861287D01*
X34461853Y-78246257D01*
X34241084Y-78616978D01*
X31888821Y-78616978D01*
X31261178Y-78357000D01*
X30411822Y-78357000D01*
X29627120Y-78682034D01*
X29026534Y-79282620D01*
X28701500Y-80067322D01*
X28701500Y-80916678D01*
X28784086Y-81116058D01*
X26470663Y-83429482D01*
X26386331Y-83485831D01*
X26329983Y-83570162D01*
X26329982Y-83570163D01*
X26254141Y-83683668D01*
X26163101Y-83819919D01*
X26104500Y-84114525D01*
X26104500Y-84114529D01*
X26084714Y-84214000D01*
X26104500Y-84313471D01*
X26104501Y-91703644D01*
X23140145Y-94668000D01*
X22133971Y-94668000D01*
X22034500Y-94648214D01*
X21935029Y-94668000D01*
X21935024Y-94668000D01*
X21640418Y-94726601D01*
X21565605Y-94776589D01*
X21390662Y-94893482D01*
X21390660Y-94893484D01*
X21306331Y-94949831D01*
X21249984Y-95034160D01*
X18342663Y-97941482D01*
X18258331Y-97997831D01*
X18035101Y-98331919D01*
X17976500Y-98626525D01*
X17976500Y-98626529D01*
X17956714Y-98726000D01*
X17976500Y-98825471D01*
X17976501Y-113801644D01*
X15176661Y-116601484D01*
X15092332Y-116657831D01*
X15035985Y-116742160D01*
X15035982Y-116742163D01*
X14869102Y-116991918D01*
X14790714Y-117386000D01*
X14810501Y-117485475D01*
X14810500Y-120242475D01*
X14869101Y-120537081D01*
X14930094Y-120628364D01*
X14972343Y-120840765D01*
X15112691Y-121050809D01*
X15322735Y-121191157D01*
X15570500Y-121240440D01*
X16070500Y-121240440D01*
X16318265Y-121191157D01*
X16528309Y-121050809D01*
X16570500Y-120987666D01*
X16612691Y-121050809D01*
X16822735Y-121191157D01*
X17070500Y-121240440D01*
X17570500Y-121240440D01*
X17818265Y-121191157D01*
X17893330Y-121141000D01*
X18962696Y-121141000D01*
X19023024Y-121153000D01*
X19023028Y-121153000D01*
X19122500Y-121172786D01*
X19221972Y-121153000D01*
X21695959Y-121153000D01*
X21758500Y-121165440D01*
X21918258Y-121165440D01*
X19857362Y-123226337D01*
X19750198Y-123119173D01*
X19516809Y-123022500D01*
X17926250Y-123022500D01*
X17767500Y-123181250D01*
X17767500Y-124330500D01*
X17787500Y-124330500D01*
X17787500Y-124584500D01*
X17767500Y-124584500D01*
X17767500Y-124604500D01*
X17513500Y-124604500D01*
X17513500Y-124584500D01*
X15414250Y-124584500D01*
X15255500Y-124743250D01*
X15255500Y-125156000D01*
X14736200Y-125156000D01*
X14604265Y-125067843D01*
X14356500Y-125018560D01*
X13456500Y-125018560D01*
X13208735Y-125067843D01*
X12998691Y-125208191D01*
X12858343Y-125418235D01*
X12809060Y-125666000D01*
X12809060Y-126166000D01*
X12858343Y-126413765D01*
X12998691Y-126623809D01*
X13009453Y-126631000D01*
X11543940Y-126631000D01*
X11543940Y-125080000D01*
X11494657Y-124832235D01*
X11354309Y-124622191D01*
X11144265Y-124481843D01*
X10896500Y-124432560D01*
X9296500Y-124432560D01*
X9048735Y-124481843D01*
X8838691Y-124622191D01*
X8698343Y-124832235D01*
X8649060Y-125080000D01*
X735000Y-125080000D01*
X735000Y-122465750D01*
X8661500Y-122465750D01*
X8661500Y-123806309D01*
X8758173Y-124039698D01*
X8936801Y-124218327D01*
X9170190Y-124315000D01*
X9810750Y-124315000D01*
X9969500Y-124156250D01*
X9969500Y-122307000D01*
X10223500Y-122307000D01*
X10223500Y-124156250D01*
X10382250Y-124315000D01*
X11022810Y-124315000D01*
X11256199Y-124218327D01*
X11434827Y-124039698D01*
X11531500Y-123806309D01*
X11531500Y-123531190D01*
X15255500Y-123531190D01*
X15255500Y-124171750D01*
X15414250Y-124330500D01*
X17513500Y-124330500D01*
X17513500Y-123181250D01*
X17354750Y-123022500D01*
X15764191Y-123022500D01*
X15530802Y-123119173D01*
X15352173Y-123297801D01*
X15255500Y-123531190D01*
X11531500Y-123531190D01*
X11531500Y-122465750D01*
X11372750Y-122307000D01*
X10223500Y-122307000D01*
X9969500Y-122307000D01*
X8820250Y-122307000D01*
X8661500Y-122465750D01*
X735000Y-122465750D01*
X735000Y-120553691D01*
X8661500Y-120553691D01*
X8661500Y-121894250D01*
X8820250Y-122053000D01*
X9969500Y-122053000D01*
X9969500Y-120203750D01*
X10223500Y-120203750D01*
X10223500Y-122053000D01*
X11372750Y-122053000D01*
X11531500Y-121894250D01*
X11531500Y-120553691D01*
X11434827Y-120320302D01*
X11256199Y-120141673D01*
X11022810Y-120045000D01*
X10382250Y-120045000D01*
X10223500Y-120203750D01*
X9969500Y-120203750D01*
X9810750Y-120045000D01*
X9170190Y-120045000D01*
X8936801Y-120141673D01*
X8758173Y-120320302D01*
X8661500Y-120553691D01*
X735000Y-120553691D01*
X735000Y-89127000D01*
X11000000Y-89127000D01*
X11048601Y-89117333D01*
X11089803Y-89089803D01*
X11490431Y-88689175D01*
X15258430Y-88689175D01*
X15381565Y-88976788D01*
X16063734Y-89236707D01*
X16793443Y-89215786D01*
X17370435Y-88976788D01*
X17493570Y-88689175D01*
X16376000Y-87571605D01*
X15258430Y-88689175D01*
X11490431Y-88689175D01*
X13099872Y-87079734D01*
X14531293Y-87079734D01*
X14552214Y-87809443D01*
X14791212Y-88386435D01*
X15078825Y-88509570D01*
X16196395Y-87392000D01*
X16555605Y-87392000D01*
X17673175Y-88509570D01*
X17960788Y-88386435D01*
X18220707Y-87704266D01*
X18199786Y-86974557D01*
X17960788Y-86397565D01*
X17673175Y-86274430D01*
X16555605Y-87392000D01*
X16196395Y-87392000D01*
X15078825Y-86274430D01*
X14791212Y-86397565D01*
X14531293Y-87079734D01*
X13099872Y-87079734D01*
X14084781Y-86094825D01*
X15258430Y-86094825D01*
X16376000Y-87212395D01*
X17493570Y-86094825D01*
X17370435Y-85807212D01*
X16688266Y-85547293D01*
X15958557Y-85568214D01*
X15381565Y-85807212D01*
X15258430Y-86094825D01*
X14084781Y-86094825D01*
X19089803Y-81089803D01*
X19117333Y-81048601D01*
X19127000Y-81000000D01*
X19127000Y-77183750D01*
X21229000Y-77183750D01*
X21229000Y-79024309D01*
X21325673Y-79257698D01*
X21504301Y-79436327D01*
X21737690Y-79533000D01*
X22828250Y-79533000D01*
X22987000Y-79374250D01*
X22987000Y-77025000D01*
X21387750Y-77025000D01*
X21229000Y-77183750D01*
X19127000Y-77183750D01*
X19127000Y-74771691D01*
X21229000Y-74771691D01*
X21229000Y-76612250D01*
X21387750Y-76771000D01*
X22987000Y-76771000D01*
X22987000Y-74421750D01*
X22828250Y-74263000D01*
X21737690Y-74263000D01*
X21504301Y-74359673D01*
X21325673Y-74538302D01*
X21229000Y-74771691D01*
X19127000Y-74771691D01*
X19127000Y-72052606D01*
X21216560Y-69963046D01*
X21216560Y-70898000D01*
X21265843Y-71145765D01*
X21406191Y-71355809D01*
X21579000Y-71471277D01*
X21579000Y-71496822D01*
X21548929Y-71648000D01*
X21579000Y-71799177D01*
X21579000Y-71799181D01*
X21668062Y-72246926D01*
X22007327Y-72754673D01*
X22135495Y-72840312D01*
X23558182Y-74263000D01*
X23399750Y-74263000D01*
X23241000Y-74421750D01*
X23241000Y-76771000D01*
X23261000Y-76771000D01*
X23261000Y-77025000D01*
X23241000Y-77025000D01*
X23241000Y-79374250D01*
X23399750Y-79533000D01*
X24465000Y-79533000D01*
X24465000Y-80298182D01*
X22897493Y-81865690D01*
X22769328Y-81951327D01*
X22683691Y-82079492D01*
X22683690Y-82079493D01*
X22430063Y-82459073D01*
X22310929Y-83058000D01*
X22341001Y-83209182D01*
X22341000Y-85652132D01*
X22218191Y-85734191D01*
X22077843Y-85944235D01*
X22028560Y-86192000D01*
X22028560Y-88592000D01*
X22077843Y-88839765D01*
X22218191Y-89049809D01*
X22428235Y-89190157D01*
X22676000Y-89239440D01*
X25076000Y-89239440D01*
X25323765Y-89190157D01*
X25533809Y-89049809D01*
X25674157Y-88839765D01*
X25723440Y-88592000D01*
X25723440Y-86192000D01*
X25674157Y-85944235D01*
X25533809Y-85734191D01*
X25411000Y-85652132D01*
X25411000Y-83693817D01*
X26978508Y-82126310D01*
X27106673Y-82040673D01*
X27297341Y-81755319D01*
X27445938Y-81532927D01*
X27565072Y-80934000D01*
X27535000Y-80782818D01*
X27535000Y-77267022D01*
X29141084Y-77267022D01*
X29361853Y-77637743D01*
X30333512Y-78031119D01*
X31381747Y-78022713D01*
X32311147Y-77637743D01*
X32531916Y-77267022D01*
X30836500Y-75571605D01*
X29141084Y-77267022D01*
X27535000Y-77267022D01*
X27535000Y-74889012D01*
X28197381Y-74889012D01*
X28205787Y-75937247D01*
X28590757Y-76866647D01*
X28961478Y-77087416D01*
X30656895Y-75392000D01*
X31016105Y-75392000D01*
X32711522Y-77087416D01*
X33082243Y-76866647D01*
X33475619Y-75894988D01*
X33467213Y-74846753D01*
X33082243Y-73917353D01*
X32711522Y-73696584D01*
X31016105Y-75392000D01*
X30656895Y-75392000D01*
X28961478Y-73696584D01*
X28590757Y-73917353D01*
X28197381Y-74889012D01*
X27535000Y-74889012D01*
X27535000Y-74685176D01*
X27565071Y-74533999D01*
X27535000Y-74382822D01*
X27535000Y-74382818D01*
X27445938Y-73935073D01*
X27166576Y-73516978D01*
X29141084Y-73516978D01*
X30836500Y-75212395D01*
X32531916Y-73516978D01*
X32311147Y-73146257D01*
X31339488Y-72752881D01*
X30291253Y-72761287D01*
X29361853Y-73146257D01*
X29141084Y-73516978D01*
X27166576Y-73516978D01*
X27106673Y-73427327D01*
X26978507Y-73341690D01*
X24890229Y-71253412D01*
X24962157Y-71145765D01*
X25011440Y-70898000D01*
X25011440Y-70433000D01*
X27440823Y-70433000D01*
X27592000Y-70463071D01*
X27743177Y-70433000D01*
X27743182Y-70433000D01*
X28190927Y-70343938D01*
X28698673Y-70004673D01*
X28784312Y-69876505D01*
X31211818Y-67449000D01*
X31480787Y-67449000D01*
X32228735Y-67139190D01*
X32512201Y-66855724D01*
X35313882Y-66855724D01*
X35461455Y-67164106D01*
X36216031Y-67457405D01*
X37025409Y-67439614D01*
X37690545Y-67164106D01*
X37838118Y-66855724D01*
X36576000Y-65593605D01*
X35313882Y-66855724D01*
X32512201Y-66855724D01*
X32801190Y-66566735D01*
X33111000Y-65818787D01*
X33111000Y-65009213D01*
X32801190Y-64261265D01*
X32666925Y-64127000D01*
X35109392Y-64127000D01*
X35134275Y-64151883D01*
X35134275Y-64151883D01*
G37*
X35134275Y-64151883D02*
X34825894Y-64299455D01*
X34532595Y-65054031D01*
X34550386Y-65863409D01*
X34825894Y-66528545D01*
X35134276Y-66676118D01*
X36396395Y-65414000D01*
X36382252Y-65399858D01*
X36561858Y-65220252D01*
X36576000Y-65234395D01*
X36590142Y-65220252D01*
X36769748Y-65399858D01*
X36755605Y-65414000D01*
X38017724Y-66676118D01*
X38326106Y-66528545D01*
X38619405Y-65773969D01*
X38601614Y-64964591D01*
X38326106Y-64299455D01*
X38017725Y-64151883D01*
X38042608Y-64127000D01*
X39290000Y-64127000D01*
X39290000Y-107222601D01*
X38795494Y-106728095D01*
X37918906Y-106365000D01*
X36970094Y-106365000D01*
X36093506Y-106728095D01*
X35422595Y-107399006D01*
X35059500Y-108275594D01*
X35059500Y-109224406D01*
X35422595Y-110100994D01*
X36093506Y-110771905D01*
X36970094Y-111135000D01*
X37918906Y-111135000D01*
X38795494Y-110771905D01*
X39290000Y-110277399D01*
X39290000Y-142722601D01*
X38795494Y-142228095D01*
X37918906Y-141865000D01*
X36970094Y-141865000D01*
X36093506Y-142228095D01*
X35422595Y-142899006D01*
X35059500Y-143775594D01*
X35059500Y-144724406D01*
X35422595Y-145600994D01*
X36093506Y-146271905D01*
X36970094Y-146635000D01*
X37918906Y-146635000D01*
X38795494Y-146271905D01*
X39290000Y-145777399D01*
X39290000Y-157290000D01*
X735000Y-157290000D01*
X735000Y-125080000D01*
X8649060Y-125080000D01*
X8649060Y-128080000D01*
X8698343Y-128327765D01*
X8838691Y-128537809D01*
X9048735Y-128678157D01*
X9296500Y-128727440D01*
X10896500Y-128727440D01*
X11144265Y-128678157D01*
X11354309Y-128537809D01*
X11494657Y-128327765D01*
X11519872Y-128201000D01*
X13114215Y-128201000D01*
X13208735Y-128264157D01*
X13456500Y-128313440D01*
X14356500Y-128313440D01*
X14604265Y-128264157D01*
X14698785Y-128201000D01*
X14857188Y-128201000D01*
X14934500Y-128216378D01*
X14945913Y-128214108D01*
X14930094Y-128293636D01*
X14869101Y-128384919D01*
X14810500Y-128679525D01*
X14810501Y-141053524D01*
X14790714Y-141153000D01*
X14869102Y-141547082D01*
X15035982Y-141796837D01*
X15035985Y-141796840D01*
X15092332Y-141881169D01*
X15176661Y-141937516D01*
X25440982Y-152201837D01*
X25497331Y-152286169D01*
X25831418Y-152509399D01*
X26126024Y-152568000D01*
X26126028Y-152568000D01*
X26225499Y-152587786D01*
X26324970Y-152568000D01*
X30825029Y-152568000D01*
X30924500Y-152587786D01*
X31023971Y-152568000D01*
X31023976Y-152568000D01*
X31318582Y-152509399D01*
X31652669Y-152286169D01*
X31709018Y-152201837D01*
X34362341Y-149548515D01*
X34446669Y-149492169D01*
X34503016Y-149407840D01*
X34503018Y-149407838D01*
X34669898Y-149158083D01*
X34669899Y-149158082D01*
X34728500Y-148863476D01*
X34728500Y-148863471D01*
X34748286Y-148764000D01*
X34728500Y-148664529D01*
X34728500Y-140038355D01*
X37156341Y-137610515D01*
X37240669Y-137554169D01*
X37297016Y-137469840D01*
X37297018Y-137469838D01*
X37463898Y-137220083D01*
X37463899Y-137220082D01*
X37522500Y-136925476D01*
X37522500Y-136925471D01*
X37542286Y-136826000D01*
X37522500Y-136726529D01*
X37522500Y-116097471D01*
X37542286Y-115998000D01*
X37522500Y-115898529D01*
X37522500Y-115898524D01*
X37463899Y-115603918D01*
X37413911Y-115529105D01*
X37297018Y-115354162D01*
X37297016Y-115354160D01*
X37240669Y-115269831D01*
X37156340Y-115213484D01*
X34728500Y-112785645D01*
X34728500Y-98473470D01*
X34748286Y-98373999D01*
X34728500Y-98274528D01*
X34728500Y-98274524D01*
X34669899Y-97979918D01*
X34598534Y-97873113D01*
X34525226Y-97763400D01*
X35433512Y-98131119D01*
X36481747Y-98122713D01*
X37411147Y-97737743D01*
X37631916Y-97367022D01*
X35936500Y-95671605D01*
X35922358Y-95685748D01*
X35742752Y-95506142D01*
X35756895Y-95492000D01*
X36116105Y-95492000D01*
X37811522Y-97187416D01*
X38182243Y-96966647D01*
X38575619Y-95994988D01*
X38567213Y-94946753D01*
X38182243Y-94017353D01*
X37811522Y-93796584D01*
X36116105Y-95492000D01*
X35756895Y-95492000D01*
X34061478Y-93796584D01*
X33690757Y-94017353D01*
X33297381Y-94989012D01*
X33305787Y-96037247D01*
X33656289Y-96883433D01*
X32888914Y-96116058D01*
X32971500Y-95916678D01*
X32971500Y-95067322D01*
X32646466Y-94282620D01*
X32045880Y-93682034D01*
X31888821Y-93616978D01*
X34241084Y-93616978D01*
X35936500Y-95312395D01*
X37631916Y-93616978D01*
X37411147Y-93246257D01*
X36439488Y-92852881D01*
X35391253Y-92861287D01*
X34461853Y-93246257D01*
X34241084Y-93616978D01*
X31888821Y-93616978D01*
X31261178Y-93357000D01*
X30411822Y-93357000D01*
X29627120Y-93682034D01*
X29026534Y-94282620D01*
X28701500Y-95067322D01*
X28701500Y-95916678D01*
X29026534Y-96701380D01*
X29627120Y-97301966D01*
X30411822Y-97627000D01*
X31261178Y-97627000D01*
X31460558Y-97544414D01*
X32229242Y-98313098D01*
X31339488Y-97952881D01*
X30291253Y-97961287D01*
X29361853Y-98346257D01*
X29141084Y-98716978D01*
X30836500Y-100412395D01*
X30850642Y-100398252D01*
X31030248Y-100577858D01*
X31016105Y-100592000D01*
X31030248Y-100606142D01*
X30850642Y-100785748D01*
X30836500Y-100771605D01*
X29141084Y-102467022D01*
X29361853Y-102837743D01*
X30333512Y-103231119D01*
X31381747Y-103222713D01*
X32311147Y-102837743D01*
X32531915Y-102467023D01*
X32644666Y-102579774D01*
X32708501Y-102515939D01*
X32708500Y-113104529D01*
X32688714Y-113204000D01*
X32708500Y-113303471D01*
X32708500Y-113303475D01*
X32767101Y-113598081D01*
X32767102Y-113598082D01*
X32916767Y-113822072D01*
X32990331Y-113932169D01*
X33074663Y-113988518D01*
X35502501Y-116416357D01*
X35502500Y-136407644D01*
X33074661Y-138835484D01*
X32990332Y-138891831D01*
X32933985Y-138976160D01*
X32933982Y-138976163D01*
X32767102Y-139225918D01*
X32688714Y-139620000D01*
X32708501Y-139719476D01*
X32708500Y-148345644D01*
X30506145Y-150548000D01*
X26643855Y-150548000D01*
X16830500Y-140734645D01*
X16830500Y-130574750D01*
X18025500Y-130574750D01*
X18025500Y-130667309D01*
X18122173Y-130900698D01*
X18300801Y-131079327D01*
X18534190Y-131176000D01*
X18824750Y-131176000D01*
X18983500Y-131017250D01*
X18983500Y-130416000D01*
X19237500Y-130416000D01*
X19237500Y-131017250D01*
X19396250Y-131176000D01*
X19686810Y-131176000D01*
X19920199Y-131079327D01*
X20098827Y-130900698D01*
X20150168Y-130776750D01*
X21135500Y-130776750D01*
X21135500Y-130992310D01*
X21232173Y-131225699D01*
X21410802Y-131404327D01*
X21644191Y-131501000D01*
X21884750Y-131501000D01*
X22043500Y-131342250D01*
X22043500Y-130618000D01*
X21294250Y-130618000D01*
X21135500Y-130776750D01*
X20150168Y-130776750D01*
X20195500Y-130667309D01*
X20195500Y-130574750D01*
X20036750Y-130416000D01*
X19237500Y-130416000D01*
X18983500Y-130416000D01*
X18184250Y-130416000D01*
X18025500Y-130574750D01*
X16830500Y-130574750D01*
X16830500Y-129828702D01*
X17070500Y-129876440D01*
X17570500Y-129876440D01*
X17818265Y-129827157D01*
X17857411Y-129801000D01*
X18072592Y-129801000D01*
X18025500Y-129914691D01*
X18025500Y-130007250D01*
X18184250Y-130166000D01*
X18983500Y-130166000D01*
X18983500Y-130144000D01*
X19237500Y-130144000D01*
X19237500Y-130166000D01*
X20036750Y-130166000D01*
X20195500Y-130007250D01*
X20195500Y-129914691D01*
X20148408Y-129801000D01*
X21213658Y-129801000D01*
X21135500Y-129989690D01*
X21135500Y-130205250D01*
X21294250Y-130364000D01*
X22043500Y-130364000D01*
X22043500Y-130344000D01*
X22297500Y-130344000D01*
X22297500Y-130364000D01*
X22317500Y-130364000D01*
X22317500Y-130618000D01*
X22297500Y-130618000D01*
X22297500Y-131342250D01*
X22456250Y-131501000D01*
X22696809Y-131501000D01*
X22930198Y-131404327D01*
X22931398Y-131403127D01*
X23022735Y-131464157D01*
X23270500Y-131513440D01*
X23484585Y-131513440D01*
X24809500Y-132838356D01*
X24809500Y-133130439D01*
X25027966Y-133657862D01*
X25220104Y-133850000D01*
X24388676Y-133850000D01*
X24237499Y-133819929D01*
X24086322Y-133850000D01*
X24086318Y-133850000D01*
X23638573Y-133939062D01*
X23130827Y-134278327D01*
X23045189Y-134406493D01*
X21055993Y-136395690D01*
X20927828Y-136481327D01*
X20842191Y-136609492D01*
X20842190Y-136609493D01*
X20588563Y-136989073D01*
X20469429Y-137588000D01*
X20499501Y-137739182D01*
X20499500Y-139722822D01*
X20469429Y-139874000D01*
X20499500Y-140025177D01*
X20499500Y-140025181D01*
X20588562Y-140472926D01*
X20927827Y-140980673D01*
X21055995Y-141066312D01*
X27532485Y-147542802D01*
X27411500Y-147834887D01*
X27411500Y-148525113D01*
X27675638Y-149162799D01*
X28163701Y-149650862D01*
X28801387Y-149915000D01*
X29491613Y-149915000D01*
X30129299Y-149650862D01*
X30617362Y-149162799D01*
X30881500Y-148525113D01*
X30881500Y-147834887D01*
X30681500Y-147352044D01*
X30681500Y-147137182D01*
X30711572Y-146986000D01*
X30592438Y-146387072D01*
X30475056Y-146211399D01*
X30253173Y-145879327D01*
X30125005Y-145793688D01*
X24716317Y-140385000D01*
X25051613Y-140385000D01*
X25534456Y-140185000D01*
X26638323Y-140185000D01*
X26789500Y-140215071D01*
X26940677Y-140185000D01*
X26940682Y-140185000D01*
X27388427Y-140095938D01*
X27896173Y-139756673D01*
X27981812Y-139628505D01*
X32516811Y-135093507D01*
X32770438Y-134713927D01*
X32889572Y-134115000D01*
X32770438Y-133516073D01*
X32431173Y-133008327D01*
X32118446Y-132799369D01*
X32137362Y-132791534D01*
X32541034Y-132387862D01*
X32759500Y-131860439D01*
X32759500Y-131289561D01*
X32541034Y-130762138D01*
X32137362Y-130358466D01*
X32008284Y-130305000D01*
X32137362Y-130251534D01*
X32541034Y-129847862D01*
X32759500Y-129320439D01*
X32759500Y-128749561D01*
X32541034Y-128222138D01*
X32137362Y-127818466D01*
X32023917Y-127771475D01*
X32078505Y-127748864D01*
X32152639Y-127502745D01*
X31324500Y-126674605D01*
X30496361Y-127502745D01*
X30570495Y-127748864D01*
X30628948Y-127769874D01*
X30511638Y-127818466D01*
X30107966Y-128222138D01*
X29889500Y-128749561D01*
X29889500Y-129320439D01*
X30107966Y-129847862D01*
X30511638Y-130251534D01*
X30640716Y-130305000D01*
X30511638Y-130358466D01*
X30338980Y-130531125D01*
X29469017Y-129661162D01*
X29412669Y-129576831D01*
X29078582Y-129353601D01*
X28783976Y-129295000D01*
X28783971Y-129295000D01*
X28684500Y-129275214D01*
X28585029Y-129295000D01*
X27263896Y-129295000D01*
X27057362Y-129088466D01*
X26943917Y-129041475D01*
X26998505Y-129018864D01*
X27072639Y-128772745D01*
X26244500Y-127944605D01*
X26230358Y-127958748D01*
X26050753Y-127779143D01*
X26064895Y-127765000D01*
X26424105Y-127765000D01*
X27252245Y-128593139D01*
X27498364Y-128519005D01*
X27691465Y-127981777D01*
X27664278Y-127411546D01*
X27498364Y-127010995D01*
X27252245Y-126936861D01*
X26424105Y-127765000D01*
X26064895Y-127765000D01*
X25236755Y-126936861D01*
X24990636Y-127010995D01*
X24797535Y-127548223D01*
X24808655Y-127781449D01*
X24728476Y-127765500D01*
X24728471Y-127765500D01*
X24629000Y-127745714D01*
X24529529Y-127765500D01*
X24133041Y-127765500D01*
X24070500Y-127753060D01*
X23270500Y-127753060D01*
X23022735Y-127802343D01*
X22920500Y-127870655D01*
X22818265Y-127802343D01*
X22570500Y-127753060D01*
X22207430Y-127753060D01*
X22170499Y-127745714D01*
X22133568Y-127753060D01*
X21770500Y-127753060D01*
X21630035Y-127781000D01*
X19282301Y-127781000D01*
X19122500Y-127749214D01*
X18962699Y-127781000D01*
X17893330Y-127781000D01*
X17818265Y-127730843D01*
X17570500Y-127681560D01*
X17070500Y-127681560D01*
X16822735Y-127730843D01*
X16612691Y-127871191D01*
X16570500Y-127934334D01*
X16528309Y-127871191D01*
X16318265Y-127730843D01*
X16070500Y-127681560D01*
X15779097Y-127681560D01*
X16009658Y-127451000D01*
X20233188Y-127451000D01*
X20310500Y-127466378D01*
X20387812Y-127451000D01*
X20387816Y-127451000D01*
X20616792Y-127405454D01*
X20876453Y-127231953D01*
X20920249Y-127166408D01*
X21276659Y-126809999D01*
X24532189Y-126809999D01*
X24609501Y-126825377D01*
X24686813Y-126809999D01*
X24686817Y-126809999D01*
X24915793Y-126764453D01*
X25175454Y-126590952D01*
X25219250Y-126525407D01*
X25367381Y-126377277D01*
X25431638Y-126441534D01*
X25545083Y-126488525D01*
X25490495Y-126511136D01*
X25416361Y-126757255D01*
X26244500Y-127585395D01*
X27072639Y-126757255D01*
X26998505Y-126511136D01*
X26940052Y-126490126D01*
X27057362Y-126441534D01*
X27220673Y-126278223D01*
X29877535Y-126278223D01*
X29904722Y-126848454D01*
X30070636Y-127249005D01*
X30316755Y-127323139D01*
X31144895Y-126495000D01*
X31504105Y-126495000D01*
X32332245Y-127323139D01*
X32578364Y-127249005D01*
X32771465Y-126711777D01*
X32744278Y-126141546D01*
X32578364Y-125740995D01*
X32332245Y-125666861D01*
X31504105Y-126495000D01*
X31144895Y-126495000D01*
X30316755Y-125666861D01*
X30070636Y-125740995D01*
X29877535Y-126278223D01*
X27220673Y-126278223D01*
X27461034Y-126037862D01*
X27679500Y-125510439D01*
X27679500Y-124939561D01*
X27596839Y-124740000D01*
X30096425Y-124740000D01*
X30107966Y-124767862D01*
X30511638Y-125171534D01*
X30625083Y-125218525D01*
X30570495Y-125241136D01*
X30496361Y-125487255D01*
X31324500Y-126315395D01*
X32152639Y-125487255D01*
X32078505Y-125241136D01*
X32020052Y-125220126D01*
X32137362Y-125171534D01*
X32541034Y-124767862D01*
X32759500Y-124240439D01*
X32759500Y-123669561D01*
X32541034Y-123142138D01*
X32137362Y-122738466D01*
X32008284Y-122685000D01*
X32137362Y-122631534D01*
X32541034Y-122227862D01*
X32759500Y-121700439D01*
X32759500Y-121129561D01*
X32541034Y-120602138D01*
X32137362Y-120198466D01*
X32118444Y-120190630D01*
X32431172Y-119981672D01*
X32770437Y-119473926D01*
X32889571Y-118874999D01*
X32770437Y-118276072D01*
X32516810Y-117896492D01*
X26241500Y-111621183D01*
X26241500Y-110478251D01*
X26261827Y-110508673D01*
X26389995Y-110594312D01*
X27475637Y-111679954D01*
X27675638Y-112162799D01*
X28163701Y-112650862D01*
X28801387Y-112915000D01*
X29491613Y-112915000D01*
X30129299Y-112650862D01*
X30617362Y-112162799D01*
X30881500Y-111525113D01*
X30881500Y-110834887D01*
X30617362Y-110197201D01*
X30129299Y-109709138D01*
X29646454Y-109509137D01*
X28903500Y-108766183D01*
X28903500Y-102252889D01*
X28961478Y-102287416D01*
X30656895Y-100592000D01*
X28961478Y-98896584D01*
X28590757Y-99117353D01*
X28476566Y-99399411D01*
X28475173Y-99397327D01*
X28347007Y-99311689D01*
X27036812Y-98001495D01*
X26951173Y-97873327D01*
X26443427Y-97534062D01*
X25995682Y-97445000D01*
X25995677Y-97445000D01*
X25844500Y-97414929D01*
X25693323Y-97445000D01*
X23709676Y-97445000D01*
X23558499Y-97414929D01*
X23407322Y-97445000D01*
X23407318Y-97445000D01*
X22959573Y-97534062D01*
X22451827Y-97873327D01*
X22366189Y-98001493D01*
X21055995Y-99311688D01*
X20927827Y-99397327D01*
X20588562Y-99905074D01*
X20499500Y-100352819D01*
X20499500Y-100352823D01*
X20469429Y-100504000D01*
X20499500Y-100655177D01*
X20499501Y-112798813D01*
X20499500Y-112798818D01*
X20499500Y-113243823D01*
X20469429Y-113395000D01*
X20499500Y-113546177D01*
X20499500Y-113546181D01*
X20588562Y-113993926D01*
X20927827Y-114501673D01*
X21055995Y-114587312D01*
X23999242Y-117530560D01*
X23270500Y-117530560D01*
X23022735Y-117579843D01*
X22931398Y-117640873D01*
X22930198Y-117639673D01*
X22696809Y-117543000D01*
X22456250Y-117543000D01*
X22297500Y-117701750D01*
X22297500Y-118426000D01*
X22317500Y-118426000D01*
X22317500Y-118680000D01*
X22297500Y-118680000D01*
X22297500Y-118700000D01*
X22043500Y-118700000D01*
X22043500Y-118680000D01*
X21294250Y-118680000D01*
X21135500Y-118838750D01*
X21135500Y-119054310D01*
X21168095Y-119133000D01*
X20143437Y-119133000D01*
X20195500Y-119007309D01*
X20195500Y-118914750D01*
X20036750Y-118756000D01*
X19237500Y-118756000D01*
X19237500Y-118778000D01*
X18983500Y-118778000D01*
X18983500Y-118756000D01*
X18184250Y-118756000D01*
X18025500Y-118914750D01*
X18025500Y-119007309D01*
X18072592Y-119121000D01*
X17857411Y-119121000D01*
X17818265Y-119094843D01*
X17570500Y-119045560D01*
X17070500Y-119045560D01*
X16830500Y-119093298D01*
X16830500Y-118254691D01*
X18025500Y-118254691D01*
X18025500Y-118347250D01*
X18184250Y-118506000D01*
X18983500Y-118506000D01*
X18983500Y-117904750D01*
X19237500Y-117904750D01*
X19237500Y-118506000D01*
X20036750Y-118506000D01*
X20195500Y-118347250D01*
X20195500Y-118254691D01*
X20111415Y-118051690D01*
X21135500Y-118051690D01*
X21135500Y-118267250D01*
X21294250Y-118426000D01*
X22043500Y-118426000D01*
X22043500Y-117701750D01*
X21884750Y-117543000D01*
X21644191Y-117543000D01*
X21410802Y-117639673D01*
X21232173Y-117818301D01*
X21135500Y-118051690D01*
X20111415Y-118051690D01*
X20098827Y-118021302D01*
X19920199Y-117842673D01*
X19686810Y-117746000D01*
X19396250Y-117746000D01*
X19237500Y-117904750D01*
X18983500Y-117904750D01*
X18824750Y-117746000D01*
X18534190Y-117746000D01*
X18300801Y-117842673D01*
X18122173Y-118021302D01*
X18025500Y-118254691D01*
X16830500Y-118254691D01*
X16830500Y-117804355D01*
X19630337Y-115004518D01*
X19714669Y-114948169D01*
X19937899Y-114614082D01*
X19996500Y-114319476D01*
X19996500Y-114319472D01*
X20016286Y-114220001D01*
X19996500Y-114120530D01*
X19996500Y-99144355D01*
X22452856Y-96688000D01*
X23459029Y-96688000D01*
X23558500Y-96707786D01*
X23657971Y-96688000D01*
X23657976Y-96688000D01*
X23952582Y-96629399D01*
X24286669Y-96406169D01*
X24343018Y-96321837D01*
X27758337Y-92906518D01*
X27842669Y-92850169D01*
X28065899Y-92516082D01*
X28115440Y-92267022D01*
X29141084Y-92267022D01*
X29361853Y-92637743D01*
X30333512Y-93031119D01*
X31381747Y-93022713D01*
X32311147Y-92637743D01*
X32531916Y-92267022D01*
X30836500Y-90571605D01*
X29141084Y-92267022D01*
X28115440Y-92267022D01*
X28124500Y-92221476D01*
X28124500Y-92221472D01*
X28144286Y-92122001D01*
X28124500Y-92022530D01*
X28124500Y-89889012D01*
X28197381Y-89889012D01*
X28205787Y-90937247D01*
X28590757Y-91866647D01*
X28961478Y-92087416D01*
X30656895Y-90392000D01*
X31016105Y-90392000D01*
X32711522Y-92087416D01*
X33082243Y-91866647D01*
X33475619Y-90894988D01*
X33467213Y-89846753D01*
X33082243Y-88917353D01*
X32711522Y-88696584D01*
X31016105Y-90392000D01*
X30656895Y-90392000D01*
X28961478Y-88696584D01*
X28590757Y-88917353D01*
X28197381Y-89889012D01*
X28124500Y-89889012D01*
X28124500Y-87467022D01*
X29141084Y-87467022D01*
X29361853Y-87837743D01*
X29738520Y-87990237D01*
X29361853Y-88146257D01*
X29141084Y-88516978D01*
X30836500Y-90212395D01*
X32531916Y-88516978D01*
X32311147Y-88146257D01*
X31934480Y-87993763D01*
X32311147Y-87837743D01*
X32531916Y-87467022D01*
X30836500Y-85771605D01*
X29141084Y-87467022D01*
X28124500Y-87467022D01*
X28124500Y-84632355D01*
X28557598Y-84199257D01*
X28197381Y-85089012D01*
X28205787Y-86137247D01*
X28590757Y-87066647D01*
X28961478Y-87287416D01*
X30656895Y-85592000D01*
X31016105Y-85592000D01*
X32711522Y-87287416D01*
X33082243Y-87066647D01*
X33475619Y-86094988D01*
X33467213Y-85046753D01*
X33082243Y-84117353D01*
X32711522Y-83896584D01*
X31016105Y-85592000D01*
X30656895Y-85592000D01*
X30642752Y-85577858D01*
X30822358Y-85398252D01*
X30836500Y-85412395D01*
X32531916Y-83716978D01*
X32311147Y-83346257D01*
X31339488Y-82952881D01*
X30291253Y-82961287D01*
X29445067Y-83311789D01*
X30212442Y-82544414D01*
X30411822Y-82627000D01*
X31261178Y-82627000D01*
X31888820Y-82367022D01*
X34241084Y-82367022D01*
X34461853Y-82737743D01*
X35433512Y-83131119D01*
X36481747Y-83122713D01*
X37411147Y-82737743D01*
X37631916Y-82367022D01*
X35936500Y-80671605D01*
X34241084Y-82367022D01*
X31888820Y-82367022D01*
X32045880Y-82301966D01*
X32646466Y-81701380D01*
X32971500Y-80916678D01*
X32971500Y-80067322D01*
X32939063Y-79989012D01*
X33297381Y-79989012D01*
X33305787Y-81037247D01*
X33690757Y-81966647D01*
X34061478Y-82187416D01*
X35756895Y-80492000D01*
X36116105Y-80492000D01*
X37811522Y-82187416D01*
X38182243Y-81966647D01*
X38575619Y-80994988D01*
X38567213Y-79946753D01*
X38182243Y-79017353D01*
X37811522Y-78796584D01*
X36116105Y-80492000D01*
X35756895Y-80492000D01*
X34061478Y-78796584D01*
X33690757Y-79017353D01*
X33297381Y-79989012D01*
X32939063Y-79989012D01*
X32646466Y-79282620D01*
X32045880Y-78682034D01*
X31888821Y-78616978D01*
X34241084Y-78616978D01*
X35936500Y-80312395D01*
X37631916Y-78616978D01*
X37411147Y-78246257D01*
X36439488Y-77852881D01*
X35391253Y-77861287D01*
X34461853Y-78246257D01*
X34241084Y-78616978D01*
X31888821Y-78616978D01*
X31261178Y-78357000D01*
X30411822Y-78357000D01*
X29627120Y-78682034D01*
X29026534Y-79282620D01*
X28701500Y-80067322D01*
X28701500Y-80916678D01*
X28784086Y-81116058D01*
X26470663Y-83429482D01*
X26386331Y-83485831D01*
X26329983Y-83570162D01*
X26329982Y-83570163D01*
X26254141Y-83683668D01*
X26163101Y-83819919D01*
X26104500Y-84114525D01*
X26104500Y-84114529D01*
X26084714Y-84214000D01*
X26104500Y-84313471D01*
X26104501Y-91703644D01*
X23140145Y-94668000D01*
X22133971Y-94668000D01*
X22034500Y-94648214D01*
X21935029Y-94668000D01*
X21935024Y-94668000D01*
X21640418Y-94726601D01*
X21565605Y-94776589D01*
X21390662Y-94893482D01*
X21390660Y-94893484D01*
X21306331Y-94949831D01*
X21249984Y-95034160D01*
X18342663Y-97941482D01*
X18258331Y-97997831D01*
X18035101Y-98331919D01*
X17976500Y-98626525D01*
X17976500Y-98626529D01*
X17956714Y-98726000D01*
X17976500Y-98825471D01*
X17976501Y-113801644D01*
X15176661Y-116601484D01*
X15092332Y-116657831D01*
X15035985Y-116742160D01*
X15035982Y-116742163D01*
X14869102Y-116991918D01*
X14790714Y-117386000D01*
X14810501Y-117485475D01*
X14810500Y-120242475D01*
X14869101Y-120537081D01*
X14930094Y-120628364D01*
X14972343Y-120840765D01*
X15112691Y-121050809D01*
X15322735Y-121191157D01*
X15570500Y-121240440D01*
X16070500Y-121240440D01*
X16318265Y-121191157D01*
X16528309Y-121050809D01*
X16570500Y-120987666D01*
X16612691Y-121050809D01*
X16822735Y-121191157D01*
X17070500Y-121240440D01*
X17570500Y-121240440D01*
X17818265Y-121191157D01*
X17893330Y-121141000D01*
X18962696Y-121141000D01*
X19023024Y-121153000D01*
X19023028Y-121153000D01*
X19122500Y-121172786D01*
X19221972Y-121153000D01*
X21695959Y-121153000D01*
X21758500Y-121165440D01*
X21918258Y-121165440D01*
X19857362Y-123226337D01*
X19750198Y-123119173D01*
X19516809Y-123022500D01*
X17926250Y-123022500D01*
X17767500Y-123181250D01*
X17767500Y-124330500D01*
X17787500Y-124330500D01*
X17787500Y-124584500D01*
X17767500Y-124584500D01*
X17767500Y-124604500D01*
X17513500Y-124604500D01*
X17513500Y-124584500D01*
X15414250Y-124584500D01*
X15255500Y-124743250D01*
X15255500Y-125156000D01*
X14736200Y-125156000D01*
X14604265Y-125067843D01*
X14356500Y-125018560D01*
X13456500Y-125018560D01*
X13208735Y-125067843D01*
X12998691Y-125208191D01*
X12858343Y-125418235D01*
X12809060Y-125666000D01*
X12809060Y-126166000D01*
X12858343Y-126413765D01*
X12998691Y-126623809D01*
X13009453Y-126631000D01*
X11543940Y-126631000D01*
X11543940Y-125080000D01*
X11494657Y-124832235D01*
X11354309Y-124622191D01*
X11144265Y-124481843D01*
X10896500Y-124432560D01*
X9296500Y-124432560D01*
X9048735Y-124481843D01*
X8838691Y-124622191D01*
X8698343Y-124832235D01*
X8649060Y-125080000D01*
X735000Y-125080000D01*
X735000Y-122465750D01*
X8661500Y-122465750D01*
X8661500Y-123806309D01*
X8758173Y-124039698D01*
X8936801Y-124218327D01*
X9170190Y-124315000D01*
X9810750Y-124315000D01*
X9969500Y-124156250D01*
X9969500Y-122307000D01*
X10223500Y-122307000D01*
X10223500Y-124156250D01*
X10382250Y-124315000D01*
X11022810Y-124315000D01*
X11256199Y-124218327D01*
X11434827Y-124039698D01*
X11531500Y-123806309D01*
X11531500Y-123531190D01*
X15255500Y-123531190D01*
X15255500Y-124171750D01*
X15414250Y-124330500D01*
X17513500Y-124330500D01*
X17513500Y-123181250D01*
X17354750Y-123022500D01*
X15764191Y-123022500D01*
X15530802Y-123119173D01*
X15352173Y-123297801D01*
X15255500Y-123531190D01*
X11531500Y-123531190D01*
X11531500Y-122465750D01*
X11372750Y-122307000D01*
X10223500Y-122307000D01*
X9969500Y-122307000D01*
X8820250Y-122307000D01*
X8661500Y-122465750D01*
X735000Y-122465750D01*
X735000Y-120553691D01*
X8661500Y-120553691D01*
X8661500Y-121894250D01*
X8820250Y-122053000D01*
X9969500Y-122053000D01*
X9969500Y-120203750D01*
X10223500Y-120203750D01*
X10223500Y-122053000D01*
X11372750Y-122053000D01*
X11531500Y-121894250D01*
X11531500Y-120553691D01*
X11434827Y-120320302D01*
X11256199Y-120141673D01*
X11022810Y-120045000D01*
X10382250Y-120045000D01*
X10223500Y-120203750D01*
X9969500Y-120203750D01*
X9810750Y-120045000D01*
X9170190Y-120045000D01*
X8936801Y-120141673D01*
X8758173Y-120320302D01*
X8661500Y-120553691D01*
X735000Y-120553691D01*
X735000Y-89127000D01*
X11000000Y-89127000D01*
X11048601Y-89117333D01*
X11089803Y-89089803D01*
X11490431Y-88689175D01*
X15258430Y-88689175D01*
X15381565Y-88976788D01*
X16063734Y-89236707D01*
X16793443Y-89215786D01*
X17370435Y-88976788D01*
X17493570Y-88689175D01*
X16376000Y-87571605D01*
X15258430Y-88689175D01*
X11490431Y-88689175D01*
X13099872Y-87079734D01*
X14531293Y-87079734D01*
X14552214Y-87809443D01*
X14791212Y-88386435D01*
X15078825Y-88509570D01*
X16196395Y-87392000D01*
X16555605Y-87392000D01*
X17673175Y-88509570D01*
X17960788Y-88386435D01*
X18220707Y-87704266D01*
X18199786Y-86974557D01*
X17960788Y-86397565D01*
X17673175Y-86274430D01*
X16555605Y-87392000D01*
X16196395Y-87392000D01*
X15078825Y-86274430D01*
X14791212Y-86397565D01*
X14531293Y-87079734D01*
X13099872Y-87079734D01*
X14084781Y-86094825D01*
X15258430Y-86094825D01*
X16376000Y-87212395D01*
X17493570Y-86094825D01*
X17370435Y-85807212D01*
X16688266Y-85547293D01*
X15958557Y-85568214D01*
X15381565Y-85807212D01*
X15258430Y-86094825D01*
X14084781Y-86094825D01*
X19089803Y-81089803D01*
X19117333Y-81048601D01*
X19127000Y-81000000D01*
X19127000Y-77183750D01*
X21229000Y-77183750D01*
X21229000Y-79024309D01*
X21325673Y-79257698D01*
X21504301Y-79436327D01*
X21737690Y-79533000D01*
X22828250Y-79533000D01*
X22987000Y-79374250D01*
X22987000Y-77025000D01*
X21387750Y-77025000D01*
X21229000Y-77183750D01*
X19127000Y-77183750D01*
X19127000Y-74771691D01*
X21229000Y-74771691D01*
X21229000Y-76612250D01*
X21387750Y-76771000D01*
X22987000Y-76771000D01*
X22987000Y-74421750D01*
X22828250Y-74263000D01*
X21737690Y-74263000D01*
X21504301Y-74359673D01*
X21325673Y-74538302D01*
X21229000Y-74771691D01*
X19127000Y-74771691D01*
X19127000Y-72052606D01*
X21216560Y-69963046D01*
X21216560Y-70898000D01*
X21265843Y-71145765D01*
X21406191Y-71355809D01*
X21579000Y-71471277D01*
X21579000Y-71496822D01*
X21548929Y-71648000D01*
X21579000Y-71799177D01*
X21579000Y-71799181D01*
X21668062Y-72246926D01*
X22007327Y-72754673D01*
X22135495Y-72840312D01*
X23558182Y-74263000D01*
X23399750Y-74263000D01*
X23241000Y-74421750D01*
X23241000Y-76771000D01*
X23261000Y-76771000D01*
X23261000Y-77025000D01*
X23241000Y-77025000D01*
X23241000Y-79374250D01*
X23399750Y-79533000D01*
X24465000Y-79533000D01*
X24465000Y-80298182D01*
X22897493Y-81865690D01*
X22769328Y-81951327D01*
X22683691Y-82079492D01*
X22683690Y-82079493D01*
X22430063Y-82459073D01*
X22310929Y-83058000D01*
X22341001Y-83209182D01*
X22341000Y-85652132D01*
X22218191Y-85734191D01*
X22077843Y-85944235D01*
X22028560Y-86192000D01*
X22028560Y-88592000D01*
X22077843Y-88839765D01*
X22218191Y-89049809D01*
X22428235Y-89190157D01*
X22676000Y-89239440D01*
X25076000Y-89239440D01*
X25323765Y-89190157D01*
X25533809Y-89049809D01*
X25674157Y-88839765D01*
X25723440Y-88592000D01*
X25723440Y-86192000D01*
X25674157Y-85944235D01*
X25533809Y-85734191D01*
X25411000Y-85652132D01*
X25411000Y-83693817D01*
X26978508Y-82126310D01*
X27106673Y-82040673D01*
X27297341Y-81755319D01*
X27445938Y-81532927D01*
X27565072Y-80934000D01*
X27535000Y-80782818D01*
X27535000Y-77267022D01*
X29141084Y-77267022D01*
X29361853Y-77637743D01*
X30333512Y-78031119D01*
X31381747Y-78022713D01*
X32311147Y-77637743D01*
X32531916Y-77267022D01*
X30836500Y-75571605D01*
X29141084Y-77267022D01*
X27535000Y-77267022D01*
X27535000Y-74889012D01*
X28197381Y-74889012D01*
X28205787Y-75937247D01*
X28590757Y-76866647D01*
X28961478Y-77087416D01*
X30656895Y-75392000D01*
X31016105Y-75392000D01*
X32711522Y-77087416D01*
X33082243Y-76866647D01*
X33475619Y-75894988D01*
X33467213Y-74846753D01*
X33082243Y-73917353D01*
X32711522Y-73696584D01*
X31016105Y-75392000D01*
X30656895Y-75392000D01*
X28961478Y-73696584D01*
X28590757Y-73917353D01*
X28197381Y-74889012D01*
X27535000Y-74889012D01*
X27535000Y-74685176D01*
X27565071Y-74533999D01*
X27535000Y-74382822D01*
X27535000Y-74382818D01*
X27445938Y-73935073D01*
X27166576Y-73516978D01*
X29141084Y-73516978D01*
X30836500Y-75212395D01*
X32531916Y-73516978D01*
X32311147Y-73146257D01*
X31339488Y-72752881D01*
X30291253Y-72761287D01*
X29361853Y-73146257D01*
X29141084Y-73516978D01*
X27166576Y-73516978D01*
X27106673Y-73427327D01*
X26978507Y-73341690D01*
X24890229Y-71253412D01*
X24962157Y-71145765D01*
X25011440Y-70898000D01*
X25011440Y-70433000D01*
X27440823Y-70433000D01*
X27592000Y-70463071D01*
X27743177Y-70433000D01*
X27743182Y-70433000D01*
X28190927Y-70343938D01*
X28698673Y-70004673D01*
X28784312Y-69876505D01*
X31211818Y-67449000D01*
X31480787Y-67449000D01*
X32228735Y-67139190D01*
X32512201Y-66855724D01*
X35313882Y-66855724D01*
X35461455Y-67164106D01*
X36216031Y-67457405D01*
X37025409Y-67439614D01*
X37690545Y-67164106D01*
X37838118Y-66855724D01*
X36576000Y-65593605D01*
X35313882Y-66855724D01*
X32512201Y-66855724D01*
X32801190Y-66566735D01*
X33111000Y-65818787D01*
X33111000Y-65009213D01*
X32801190Y-64261265D01*
X32666925Y-64127000D01*
X35109392Y-64127000D01*
X35134275Y-64151883D01*
M02*
