G04 #@! TF.GenerationSoftware,KiCad,Pcbnew,(5.0.0-rc2-dev-311-g1dd4af297)*
G04 #@! TF.CreationDate,2018-06-08T08:48:50+02:00*
G04 #@! TF.ProjectId,resetUSB,72657365745553422E6B696361645F70,1.0*
G04 #@! TF.SameCoordinates,PX6ad8e7cPY2bcdfd4*
G04 #@! TF.FileFunction,Copper,L1,Top,Signal*
G04 #@! TF.FilePolarity,Positive*
%FSLAX46Y46*%
G04 Gerber Fmt 4.6, Leading zero omitted, Abs format (unit mm)*
G04 Created by KiCad (PCBNEW (5.0.0-rc2-dev-311-g1dd4af297)) date 06/08/18 08:48:50*
%MOMM*%
%LPD*%
G01*
G04 APERTURE LIST*
%ADD10C,0.200000*%
%ADD11C,4.000000*%
%ADD12C,3.000000*%
%ADD13C,3.500000*%
%ADD14R,0.800000X0.750000*%
%ADD15R,0.500000X0.900000*%
%ADD16R,1.600000X3.000000*%
%ADD17R,0.900000X0.500000*%
%ADD18R,3.500000X1.600000*%
%ADD19C,1.600000*%
%ADD20R,3.000000X0.700000*%
%ADD21R,6.040000X3.400000*%
%ADD22C,2.200000*%
%ADD23R,1.800000X2.500000*%
%ADD24R,0.800000X0.900000*%
%ADD25R,1.550000X0.600000*%
%ADD26R,0.800000X0.800000*%
%ADD27C,2.800000*%
%ADD28R,2.800000X2.800000*%
%ADD29C,2.600000*%
%ADD30R,0.600000X1.200000*%
%ADD31R,1.200000X0.600000*%
%ADD32R,3.000000X1.000000*%
%ADD33C,3.200000*%
%ADD34C,2.400000*%
%ADD35R,2.400000X2.400000*%
%ADD36R,0.750000X0.800000*%
%ADD37R,2.000000X1.500000*%
%ADD38R,2.000000X3.800000*%
%ADD39R,1.600000X2.180000*%
%ADD40C,0.500000*%
%ADD41C,0.100000*%
%ADD42R,0.700000X0.600000*%
%ADD43O,1.727200X1.727200*%
%ADD44R,1.727200X1.727200*%
%ADD45O,1.700000X1.700000*%
%ADD46R,1.700000X1.700000*%
%ADD47R,0.510000X0.700000*%
%ADD48C,1.300000*%
%ADD49C,0.300000*%
%ADD50C,0.750000*%
%ADD51C,1.800000*%
%ADD52C,0.250000*%
%ADD53C,0.254000*%
G04 APERTURE END LIST*
D10*
X0Y0D02*
X0Y-153000000D01*
X40000000Y0D02*
X0Y0D01*
X40000000Y-153000000D02*
X40000000Y0D01*
X0Y-153000000D02*
X40000000Y-153000000D01*
D11*
X36000000Y-75492000D03*
D12*
X30900000Y-75492000D03*
D11*
X30900000Y-80592000D03*
X30900000Y-70392000D03*
X30900000Y-85392000D03*
X30900000Y-95592000D03*
D12*
X30900000Y-90492000D03*
D11*
X36000000Y-90492000D03*
D13*
X37508000Y-103750000D03*
X37508000Y-139250000D03*
D14*
X22234000Y-123775500D03*
X23734000Y-123775500D03*
D15*
X17384000Y-123779000D03*
X15884000Y-123779000D03*
D16*
X10160000Y-117180000D03*
X10160000Y-121580000D03*
D17*
X13970000Y-122416000D03*
X13970000Y-120916000D03*
D18*
X17704000Y-119457500D03*
X23104000Y-119457500D03*
D17*
X19174000Y-113631000D03*
X19174000Y-115131000D03*
X19174000Y-125291000D03*
X19174000Y-123791000D03*
D14*
X23734000Y-113553000D03*
X22234000Y-113553000D03*
X22222000Y-115143000D03*
X23722000Y-115143000D03*
X23734000Y-125491000D03*
X22234000Y-125491000D03*
D15*
X17384000Y-115143000D03*
X15884000Y-115143000D03*
D19*
X26308000Y-130385000D03*
X26308000Y-127845000D03*
X26308000Y-125305000D03*
X26308000Y-122765000D03*
X26308000Y-120225000D03*
X26308000Y-117685000D03*
X26308000Y-115145000D03*
X26308000Y-112605000D03*
X31388000Y-129115000D03*
X31388000Y-126575000D03*
X31388000Y-124035000D03*
X31388000Y-113875000D03*
X31388000Y-116415000D03*
X31388000Y-118955000D03*
X31388000Y-121495000D03*
D20*
X12000000Y-74875000D03*
X12000000Y-71125000D03*
X12000000Y-73625000D03*
X12000000Y-72375000D03*
D21*
X5580000Y-79800000D03*
X5580000Y-66200000D03*
D22*
X24770000Y-133650000D03*
X29210000Y-143180000D03*
D23*
X21775500Y-42545700D03*
X21775500Y-46545700D03*
X25458500Y-46545700D03*
X25458500Y-42545700D03*
X21775500Y-54292700D03*
X21775500Y-50292700D03*
D24*
X26566000Y-39451500D03*
X25616000Y-37451500D03*
X27516000Y-37451500D03*
X30249000Y-39451500D03*
X29299000Y-37451500D03*
X31199000Y-37451500D03*
D23*
X25458500Y-50292700D03*
X25458500Y-54292700D03*
D25*
X28486200Y-45849100D03*
X28486200Y-44579100D03*
X28486200Y-43309100D03*
X28486200Y-42039100D03*
X33886200Y-42039100D03*
X33886200Y-43309100D03*
X33886200Y-44579100D03*
X33886200Y-45849100D03*
X28486200Y-53469100D03*
X28486200Y-52199100D03*
X28486200Y-50929100D03*
X28486200Y-49659100D03*
X33886200Y-49659100D03*
X33886200Y-50929100D03*
X33886200Y-52199100D03*
X33886200Y-53469100D03*
D15*
X30198500Y-47879000D03*
X31698500Y-47879000D03*
X32320800Y-40309800D03*
X33820800Y-40309800D03*
D26*
X36360000Y-55413500D03*
X34760000Y-55413500D03*
D15*
X33262000Y-55372000D03*
X31762000Y-55372000D03*
D27*
X29158000Y-64075000D03*
X29158000Y-59875000D03*
X34658000Y-64075000D03*
D28*
X34658000Y-59875000D03*
D15*
X29309500Y-32939500D03*
X30809500Y-32939500D03*
D22*
X12810000Y-43000000D03*
X17890000Y-43000000D03*
D29*
X17890000Y-46810000D03*
X17890000Y-39190000D03*
D30*
X7292772Y-25091143D03*
X8092772Y-25091143D03*
X8892772Y-25091143D03*
X9692772Y-25091143D03*
X10492772Y-25091143D03*
X11292772Y-25091143D03*
X12092772Y-25091143D03*
X12892772Y-25091143D03*
D31*
X14342772Y-26541143D03*
X14342772Y-27341143D03*
X14342772Y-28141143D03*
X14342772Y-28941143D03*
X14342772Y-29741143D03*
X14342772Y-30541143D03*
X14342772Y-31341143D03*
X14342772Y-32141143D03*
D30*
X12892772Y-33591143D03*
X12092772Y-33591143D03*
X11292772Y-33591143D03*
X10492772Y-33591143D03*
X9692772Y-33591143D03*
X8892772Y-33591143D03*
X8092772Y-33591143D03*
X7292772Y-33591143D03*
D31*
X5842772Y-32141143D03*
X5842772Y-31341143D03*
X5842772Y-30541143D03*
X5842772Y-29741143D03*
X5842772Y-28941143D03*
X5842772Y-28141143D03*
X5842772Y-27341143D03*
X5842772Y-26541143D03*
D15*
X7937876Y-23392702D03*
X6437876Y-23392702D03*
D14*
X4403631Y-25120423D03*
X5903631Y-25120423D03*
X7949876Y-21868702D03*
X6449876Y-21868702D03*
D32*
X23833500Y-11923500D03*
X23833500Y-9423500D03*
X23833500Y-4923500D03*
X23833500Y-7423500D03*
D33*
X28043500Y-1853500D03*
X28043500Y-14993500D03*
D34*
X16500000Y-81280000D03*
D35*
X24000000Y-81280000D03*
D22*
X24770000Y-96650000D03*
X29210000Y-106180000D03*
D36*
X31748859Y-22257541D03*
X31748859Y-23757541D03*
D16*
X19380800Y-21742600D03*
X19380800Y-26142600D03*
D37*
X29818859Y-26577541D03*
X29818859Y-21977541D03*
X29818859Y-24277541D03*
D38*
X23518859Y-24277541D03*
D39*
X36856000Y-23951000D03*
X36856000Y-31351000D03*
D14*
X15922627Y-33580956D03*
X14422627Y-33580956D03*
D40*
X23879670Y-27882670D03*
D41*
G36*
X24374645Y-27741249D02*
X23738249Y-28377645D01*
X23384695Y-28024091D01*
X24021091Y-27387695D01*
X24374645Y-27741249D01*
X24374645Y-27741249D01*
G37*
D40*
X24940330Y-28943330D03*
D41*
G36*
X25435305Y-28801909D02*
X24798909Y-29438305D01*
X24445355Y-29084751D01*
X25081751Y-28448355D01*
X25435305Y-28801909D01*
X25435305Y-28801909D01*
G37*
D42*
X3596000Y-28691000D03*
X3596000Y-27291000D03*
D26*
X38225500Y-46020500D03*
X36625500Y-46020500D03*
X38225500Y-43480500D03*
X36625500Y-43480500D03*
X38225500Y-40940500D03*
X36625500Y-40940500D03*
D17*
X37872000Y-19511000D03*
X37872000Y-18011000D03*
D43*
X15774000Y-3989000D03*
X15774000Y-6529000D03*
X13234000Y-3989000D03*
X13234000Y-6529000D03*
X10694000Y-3989000D03*
X10694000Y-6529000D03*
X8154000Y-3989000D03*
X8154000Y-6529000D03*
X5614000Y-3989000D03*
D44*
X5614000Y-6529000D03*
D43*
X15774000Y-14149000D03*
X15774000Y-16689000D03*
X13234000Y-14149000D03*
X13234000Y-16689000D03*
X10694000Y-14149000D03*
X10694000Y-16689000D03*
X8154000Y-14149000D03*
X8154000Y-16689000D03*
X5614000Y-14149000D03*
D44*
X5614000Y-16689000D03*
D45*
X30760000Y-18761000D03*
X28220000Y-18761000D03*
X25680000Y-18761000D03*
D46*
X23140000Y-18761000D03*
D47*
X34216900Y-17564300D03*
X35166900Y-17564300D03*
X36116900Y-17564300D03*
X36116900Y-19884300D03*
X35166900Y-19884300D03*
X34216900Y-19884300D03*
D15*
X29309500Y-34463500D03*
X30809500Y-34463500D03*
X29309500Y-31415500D03*
X30809500Y-31415500D03*
D17*
X4114800Y-33717800D03*
X4114800Y-35217800D03*
X5765800Y-33717800D03*
X5765800Y-35217800D03*
D48*
X36917498Y-33701500D03*
X14518000Y-73618000D03*
X5293802Y-21854010D03*
X17348800Y-20853600D03*
X31748859Y-25547541D03*
X14454207Y-34838191D03*
D49*
X36856000Y-31351000D02*
X36856000Y-33640002D01*
X36856000Y-33640002D02*
X36917498Y-33701500D01*
X37567497Y-34351499D02*
X36917498Y-33701500D01*
X38225500Y-35009502D02*
X37567497Y-34351499D01*
X38225500Y-40940500D02*
X38225500Y-35009502D01*
X38225500Y-43480500D02*
X38225500Y-46020500D01*
X38225500Y-40940500D02*
X38225500Y-43480500D01*
X12000000Y-73625000D02*
X14511000Y-73625000D01*
X5308494Y-21868702D02*
X5293802Y-21854010D01*
X6449876Y-21868702D02*
X5308494Y-21868702D01*
X5903631Y-24667369D02*
X6437876Y-24133124D01*
X5903631Y-25120423D02*
X5903631Y-24667369D01*
X6437876Y-24133124D02*
X6437876Y-23392702D01*
X5903631Y-25120423D02*
X5932911Y-25091143D01*
X5932911Y-25091143D02*
X7292772Y-25091143D01*
X12892772Y-33591144D02*
X12902960Y-33580956D01*
X12902960Y-33580956D02*
X14422628Y-33580956D01*
X6437876Y-21880702D02*
X6449876Y-21868702D01*
X6437877Y-23392702D02*
X6437876Y-21880702D01*
X23869008Y-16950008D02*
X24410000Y-17491000D01*
X22654008Y-16950008D02*
X23869008Y-16950008D01*
X8176000Y-11176000D02*
X16880000Y-11176000D01*
X16880000Y-11176000D02*
X22654008Y-16950008D01*
X5614000Y-6529000D02*
X5614000Y-8614000D01*
X5614000Y-8614000D02*
X8176000Y-11176000D01*
X24410000Y-17491000D02*
X24410000Y-19523000D01*
X24410000Y-19523000D02*
X25426000Y-20539000D01*
X25426000Y-20539000D02*
X29430318Y-20539000D01*
X29430318Y-20539000D02*
X29818859Y-20927541D01*
X29818859Y-20927541D02*
X29818859Y-21977541D01*
X12892772Y-32141143D02*
X14342772Y-32141143D01*
X14342772Y-32141143D02*
X15048034Y-32141143D01*
X11080600Y-30328972D02*
X12892772Y-32141143D01*
X11080600Y-28353315D02*
X11080600Y-30328972D01*
X15048034Y-32141143D02*
X15922627Y-33015737D01*
X15922627Y-33015737D02*
X15922627Y-33580956D01*
X18280800Y-26142600D02*
X17589200Y-25451000D01*
X19380800Y-26142600D02*
X18280800Y-26142600D01*
X17589200Y-25451000D02*
X13982916Y-25451000D01*
X13982916Y-25451000D02*
X12248034Y-27185882D01*
X5137511Y-26541143D02*
X4403632Y-25807264D01*
X5842772Y-26541143D02*
X5137511Y-26541143D01*
X4403632Y-25807264D02*
X4403632Y-25120423D01*
X9104944Y-28353315D02*
X7292772Y-26541143D01*
X11080600Y-28353315D02*
X9104944Y-28353315D01*
X7292772Y-26541143D02*
X5842772Y-26541143D01*
X12248034Y-27185882D02*
X11080600Y-28353315D01*
X12248034Y-27185882D02*
X9692772Y-29741144D01*
X9692772Y-29741144D02*
X5842772Y-29741144D01*
X19471000Y-26340000D02*
X19344000Y-26213000D01*
X19344000Y-26213000D02*
X19380800Y-26176200D01*
X19380800Y-26176200D02*
X19380800Y-26142600D01*
D50*
X30948500Y-55372000D02*
X30948500Y-51814500D01*
X30948500Y-51814500D02*
X31000000Y-51763000D01*
X30948500Y-58084500D02*
X30948500Y-55372000D01*
X29158000Y-59875000D02*
X30948500Y-58084500D01*
X25458500Y-56175500D02*
X25458500Y-54292700D01*
D51*
X24000000Y-71519000D02*
X29158000Y-66361000D01*
X24000000Y-81280000D02*
X24000000Y-71519000D01*
X29158000Y-66361000D02*
X29158000Y-64075000D01*
D52*
X31762000Y-55372000D02*
X30948500Y-55372000D01*
X13970000Y-120916000D02*
X19854000Y-120916000D01*
X19854000Y-120916000D02*
X20392000Y-120378000D01*
X20392000Y-118830000D02*
X20392000Y-120378000D01*
X22996999Y-116225001D02*
X20392000Y-118830000D01*
X22996999Y-114265001D02*
X22996999Y-116225001D01*
X23734000Y-113553000D02*
X23709000Y-113553000D01*
X23709000Y-113553000D02*
X22996999Y-114265001D01*
D50*
X23734000Y-125491000D02*
X23954000Y-125491000D01*
X23954000Y-125491000D02*
X26308000Y-127845000D01*
X23734000Y-113553000D02*
X24716000Y-113553000D01*
X26240000Y-115077000D02*
X26308000Y-115145000D01*
X24716000Y-113553000D02*
X24778500Y-113615500D01*
X26308000Y-115145000D02*
X24778500Y-113615500D01*
X30186500Y-49281700D02*
X31000000Y-50095200D01*
X31000000Y-50095200D02*
X31808500Y-50903700D01*
X31000000Y-51763000D02*
X31833900Y-50929100D01*
X31000000Y-50095200D02*
X31000000Y-51763000D01*
X30186500Y-48646700D02*
X30186500Y-49281700D01*
D52*
X31566500Y-41864500D02*
X32320800Y-41110200D01*
X32320800Y-41110200D02*
X32320800Y-40309800D01*
D50*
X30198500Y-47879000D02*
X30198500Y-48634700D01*
X30198500Y-48634700D02*
X30186500Y-48646700D01*
X32087900Y-50929100D02*
X31833900Y-50929100D01*
X25458500Y-42245500D02*
X25458500Y-42545700D01*
X30774000Y-41072000D02*
X26632000Y-41072000D01*
X26632000Y-41072000D02*
X25458500Y-42245500D01*
X31566500Y-43271700D02*
X31566500Y-41864500D01*
X31566500Y-41864500D02*
X30774000Y-41072000D01*
X32087900Y-50929100D02*
X33886200Y-50929100D01*
X31603900Y-43309100D02*
X33886200Y-43309100D01*
X31566500Y-43271700D02*
X31603900Y-43309100D01*
X30186500Y-44651700D02*
X30186500Y-48646700D01*
X31566500Y-43271700D02*
X30186500Y-44651700D01*
X31808500Y-50903700D02*
X31833900Y-50929100D01*
X25458500Y-56175500D02*
X29158000Y-59875000D01*
D51*
X29158000Y-59875000D02*
X29158000Y-64075000D01*
D52*
X31964500Y-31415500D02*
X37425500Y-36876500D01*
X30809500Y-31415500D02*
X31964500Y-31415500D01*
X37425500Y-36876500D02*
X37425500Y-45220500D01*
X37425500Y-45220500D02*
X36625500Y-46020500D01*
X31964500Y-34463500D02*
X35774500Y-38273500D01*
X30809500Y-34463500D02*
X31964500Y-34463500D01*
X35774500Y-38273500D02*
X35774500Y-41575500D01*
X35774500Y-41575500D02*
X36625500Y-42426500D01*
X36625500Y-42426500D02*
X36625500Y-43480500D01*
D50*
X17890000Y-46810000D02*
X18292800Y-46810000D01*
X18292800Y-46810000D02*
X21775500Y-50292700D01*
X26094900Y-50929100D02*
X25458500Y-50292700D01*
X28486200Y-50675100D02*
X28486200Y-51945100D01*
X28486200Y-52580100D02*
X28486200Y-53215100D01*
X28486200Y-50929100D02*
X28486200Y-49659100D01*
X21775500Y-50292700D02*
X25458500Y-50292700D01*
X28486200Y-50929100D02*
X26094900Y-50929100D01*
X28486200Y-51945100D02*
X28486200Y-52580100D01*
D52*
X15379243Y-9136479D02*
X15446000Y-9144000D01*
X15175709Y-8974166D02*
X15211450Y-9031047D01*
X15146000Y-8762536D02*
X15146000Y-8844000D01*
X15080549Y-8575490D02*
X15116290Y-8632371D01*
X14846000Y-8462536D02*
X14912756Y-8470058D01*
X14715834Y-8492246D02*
X14779243Y-8470058D01*
X14658953Y-8527987D02*
X14715834Y-8492246D01*
X14611450Y-8575490D02*
X14658953Y-8527987D01*
X14575709Y-8632371D02*
X14611450Y-8575490D01*
X14553521Y-8695780D02*
X14575709Y-8632371D01*
X14546000Y-8762536D02*
X14553521Y-8695780D01*
X14546000Y-9675464D02*
X14546000Y-8762536D01*
X15258953Y-9078550D02*
X15315834Y-9114291D01*
X14538478Y-9742220D02*
X14546000Y-9675464D01*
X14516290Y-9805629D02*
X14538478Y-9742220D01*
X14480549Y-9862510D02*
X14516290Y-9805629D01*
X14433046Y-9910013D02*
X14480549Y-9862510D01*
X14376165Y-9945754D02*
X14433046Y-9910013D01*
X14312756Y-9967942D02*
X14376165Y-9945754D01*
X14246000Y-9975464D02*
X14312756Y-9967942D01*
X14179243Y-9967942D02*
X14246000Y-9975464D01*
X14115834Y-9945754D02*
X14179243Y-9967942D01*
X15211450Y-9031047D02*
X15258953Y-9078550D01*
X14058953Y-9910013D02*
X14115834Y-9945754D01*
X14011450Y-9862510D02*
X14058953Y-9910013D01*
X13975709Y-9805629D02*
X14011450Y-9862510D01*
X13953521Y-9742220D02*
X13975709Y-9805629D01*
X15033046Y-8527987D02*
X15080549Y-8575490D01*
X13946000Y-9675464D02*
X13953521Y-9742220D01*
X13946000Y-8762536D02*
X13946000Y-9675464D01*
X13938478Y-8695780D02*
X13946000Y-8762536D01*
X14779243Y-8470058D02*
X14846000Y-8462536D01*
X13916290Y-8632371D02*
X13938478Y-8695780D01*
X13880549Y-8575490D02*
X13916290Y-8632371D01*
X13833046Y-8527987D02*
X13880549Y-8575490D01*
X14912756Y-8470058D02*
X14976165Y-8492246D01*
X12858953Y-9910013D02*
X12915834Y-9945754D01*
X13458953Y-8527987D02*
X13515834Y-8492246D01*
X12811450Y-9862510D02*
X12858953Y-9910013D01*
X12746000Y-9675464D02*
X12753521Y-9742220D01*
X12775709Y-9805629D02*
X12811450Y-9862510D01*
X12746000Y-9444000D02*
X12746000Y-9675464D01*
X15315834Y-9114291D02*
X15379243Y-9136479D01*
X12716290Y-9313834D02*
X12738478Y-9377243D01*
X12738478Y-9377243D02*
X12746000Y-9444000D01*
X12680549Y-9256953D02*
X12716290Y-9313834D01*
X10694000Y-8408000D02*
X11430000Y-9144000D01*
X12633046Y-9209450D02*
X12680549Y-9256953D01*
X13112756Y-9967942D02*
X13176165Y-9945754D01*
X15138478Y-8695780D02*
X15146000Y-8762536D01*
X10694000Y-6529000D02*
X10694000Y-8408000D01*
X13046000Y-9975464D02*
X13112756Y-9967942D01*
X11430000Y-9144000D02*
X12446000Y-9144000D01*
X12446000Y-9144000D02*
X12512756Y-9151521D01*
X13515834Y-8492246D02*
X13579243Y-8470058D01*
X12753521Y-9742220D02*
X12775709Y-9805629D01*
X12512756Y-9151521D02*
X12576165Y-9173709D01*
X13411450Y-8575490D02*
X13458953Y-8527987D01*
X15116290Y-8632371D02*
X15138478Y-8695780D01*
X12576165Y-9173709D02*
X12633046Y-9209450D01*
X13280549Y-9862510D02*
X13316290Y-9805629D01*
X12915834Y-9945754D02*
X12979243Y-9967942D01*
X12979243Y-9967942D02*
X13046000Y-9975464D01*
X13176165Y-9945754D02*
X13233046Y-9910013D01*
X13233046Y-9910013D02*
X13280549Y-9862510D01*
X15146000Y-8844000D02*
X15153521Y-8910757D01*
X13316290Y-9805629D02*
X13338478Y-9742220D01*
X13338478Y-9742220D02*
X13346000Y-9675464D01*
X13346000Y-9675464D02*
X13346000Y-8762536D01*
X13346000Y-8762536D02*
X13353521Y-8695780D01*
X14976165Y-8492246D02*
X15033046Y-8527987D01*
X13353521Y-8695780D02*
X13375709Y-8632371D01*
X13579243Y-8470058D02*
X13646000Y-8462536D01*
X13375709Y-8632371D02*
X13411450Y-8575490D01*
X13646000Y-8462536D02*
X13712756Y-8470058D01*
X13712756Y-8470058D02*
X13776165Y-8492246D01*
X15153521Y-8910757D02*
X15175709Y-8974166D01*
X13776165Y-8492246D02*
X13833046Y-8527987D01*
X15446000Y-9144000D02*
X16317000Y-9144000D01*
X16317000Y-9144000D02*
X23394000Y-16221000D01*
X23394000Y-16221000D02*
X24410000Y-16221000D01*
X24410000Y-16221000D02*
X25680000Y-17491000D01*
X25680000Y-17491000D02*
X31775002Y-17491000D01*
X31775002Y-17491000D02*
X32792000Y-18507998D01*
X32792000Y-18507998D02*
X32792000Y-20285000D01*
X32792000Y-20285000D02*
X33808000Y-21301000D01*
X33808000Y-21301000D02*
X33808000Y-27143000D01*
X33808000Y-27143000D02*
X32071000Y-28880000D01*
X32071000Y-28880000D02*
X26075000Y-28880000D01*
X26075000Y-28880000D02*
X25059000Y-29896000D01*
X25059000Y-29896000D02*
X18582000Y-29896000D01*
X18582000Y-29896000D02*
X16827143Y-28141143D01*
X16827143Y-28141143D02*
X14342772Y-28141143D01*
X12507000Y-7874000D02*
X11964000Y-7331000D01*
X15809000Y-7874000D02*
X12507000Y-7874000D01*
X23648000Y-15713000D02*
X15809000Y-7874000D01*
X11964000Y-5807000D02*
X11456000Y-5299000D01*
X24792411Y-15713000D02*
X23648000Y-15713000D01*
X16865143Y-28941143D02*
X18328000Y-30404000D01*
X26087412Y-17008001D02*
X24792411Y-15713000D01*
X32055001Y-17008001D02*
X26087412Y-17008001D01*
X33300000Y-20156590D02*
X33300000Y-18253000D01*
X34316000Y-21172590D02*
X33300000Y-20156590D01*
X34316000Y-27397000D02*
X34316000Y-21172590D01*
X33300000Y-18253000D02*
X32055001Y-17008001D01*
X18328000Y-30404000D02*
X25187411Y-30404000D01*
X25187411Y-30404000D02*
X26203411Y-29388000D01*
X26203411Y-29388000D02*
X32325000Y-29388000D01*
X14342772Y-28941143D02*
X16865143Y-28941143D01*
X32325000Y-29388000D02*
X34316000Y-27397000D01*
X11964000Y-7331000D02*
X11964000Y-5807000D01*
X11456000Y-5299000D02*
X9384000Y-5299000D01*
X9384000Y-5299000D02*
X8154000Y-6529000D01*
X11898500Y-37003500D02*
X12919000Y-38024000D01*
X8342500Y-37003500D02*
X11898500Y-37003500D01*
X4104000Y-35738000D02*
X4358000Y-35992000D01*
X7331000Y-35992000D02*
X8342500Y-37003500D01*
X4358000Y-35992000D02*
X7331000Y-35992000D01*
X4104000Y-35218000D02*
X4104000Y-35738000D01*
X12919000Y-38024000D02*
X16296000Y-38024000D01*
X16296000Y-38024000D02*
X17643501Y-36676499D01*
X17643501Y-36676499D02*
X26790999Y-36676499D01*
X26790999Y-36676499D02*
X27516000Y-37401500D01*
X27516000Y-37401500D02*
X27516000Y-37451500D01*
X30810000Y-40310000D02*
X28234000Y-40310000D01*
X33810000Y-41962900D02*
X33810000Y-39906000D01*
X31750000Y-39370000D02*
X30810000Y-40310000D01*
X33274000Y-39370000D02*
X31750000Y-39370000D01*
X33810000Y-39906000D02*
X33274000Y-39370000D01*
X33886200Y-42039100D02*
X33810000Y-41962900D01*
X28234000Y-40310000D02*
X27375500Y-39451500D01*
X27375500Y-39451500D02*
X26566000Y-39451500D01*
X34361200Y-44579100D02*
X34986201Y-43954099D01*
X34361200Y-42039100D02*
X33886200Y-42039100D01*
X34986201Y-42664101D02*
X34361200Y-42039100D01*
X34986201Y-43309100D02*
X34986201Y-42664101D01*
X34986201Y-43954099D02*
X34986201Y-43309100D01*
X33886200Y-44579100D02*
X34361200Y-44579100D01*
X34986201Y-41676201D02*
X35520500Y-42210500D01*
X34986201Y-40190199D02*
X34986201Y-41676201D01*
X30249000Y-39451500D02*
X30906500Y-39451500D01*
X33658002Y-38862000D02*
X34986201Y-40190199D01*
X31496000Y-38862000D02*
X33658002Y-38862000D01*
X30906500Y-39451500D02*
X31496000Y-38862000D01*
X35520500Y-42210500D02*
X35520500Y-44604802D01*
X35520500Y-44604802D02*
X34921201Y-45204101D01*
X31698500Y-45651500D02*
X31698500Y-47179000D01*
X34921201Y-45204101D02*
X32145899Y-45204101D01*
X32145899Y-45204101D02*
X31698500Y-45651500D01*
X31698500Y-47179000D02*
X31698500Y-47879000D01*
X34802900Y-52199100D02*
X35266500Y-51735500D01*
X33886200Y-52199100D02*
X34802900Y-52199100D01*
X35266500Y-51735500D02*
X35266500Y-50073898D01*
X35266500Y-50073898D02*
X34851702Y-49659100D01*
X34851702Y-49659100D02*
X33886200Y-49659100D01*
X34361200Y-49659100D02*
X33886200Y-49659100D01*
X33886200Y-49659100D02*
X33860800Y-49633700D01*
X33860800Y-49633700D02*
X32656700Y-49633700D01*
X31698500Y-48675500D02*
X31698500Y-48579000D01*
X31698500Y-48579000D02*
X31698500Y-47879000D01*
X32656700Y-49633700D02*
X31698500Y-48675500D01*
X16042000Y-37516000D02*
X17331511Y-36226489D01*
X13173000Y-37516000D02*
X16042000Y-37516000D01*
X12152500Y-36495500D02*
X13173000Y-37516000D01*
X8596500Y-36495500D02*
X12152500Y-36495500D01*
X31199000Y-37401500D02*
X31199000Y-37451500D01*
X5755000Y-35218000D02*
X7319000Y-35218000D01*
X7319000Y-35218000D02*
X8596500Y-36495500D01*
X17331511Y-36226489D02*
X30023989Y-36226489D01*
X30023989Y-36226489D02*
X31199000Y-37401500D01*
X2453000Y-36373000D02*
X6350000Y-40270000D01*
X2453000Y-23292000D02*
X2453000Y-36373000D01*
X4866000Y-20879000D02*
X2453000Y-23292000D01*
X8422000Y-20879000D02*
X4866000Y-20879000D01*
X8892772Y-25091143D02*
X8892772Y-21349772D01*
X8892772Y-21349772D02*
X8422000Y-20879000D01*
X6350000Y-40270000D02*
X6350000Y-58674000D01*
X6350000Y-58674000D02*
X14732000Y-67056000D01*
X14732000Y-67056000D02*
X14732000Y-72294000D01*
X14732000Y-72294000D02*
X15493001Y-73055001D01*
X15493001Y-73055001D02*
X15493001Y-74086001D01*
X15493001Y-74086001D02*
X14704002Y-74875000D01*
X14704002Y-74875000D02*
X12000000Y-74875000D01*
X1437000Y-36881000D02*
X5334000Y-40778000D01*
X4242022Y-19978978D02*
X1437000Y-22784000D01*
X1437000Y-22784000D02*
X1437000Y-36881000D01*
X8794800Y-19978978D02*
X4242022Y-19978978D01*
X10492772Y-25091143D02*
X10492772Y-21676950D01*
X10492772Y-21676950D02*
X8794800Y-19978978D01*
X5334000Y-40778000D02*
X5334000Y-59182000D01*
X5334000Y-59182000D02*
X13750000Y-67598000D01*
X13150000Y-71125000D02*
X12000000Y-71125000D01*
X13750000Y-67598000D02*
X13750000Y-70525000D01*
X13750000Y-70525000D02*
X13150000Y-71125000D01*
X1945000Y-36627000D02*
X5842000Y-40524000D01*
X1945000Y-23038000D02*
X1945000Y-36627000D01*
X4554011Y-20428989D02*
X1945000Y-23038000D01*
X9692772Y-25091143D02*
X9692772Y-21513361D01*
X5842000Y-58928000D02*
X14224000Y-67310000D01*
X8608400Y-20428989D02*
X4554011Y-20428989D01*
X9692772Y-21513361D02*
X8608400Y-20428989D01*
X14224000Y-67310000D02*
X14224000Y-71776000D01*
X5842000Y-40524000D02*
X5842000Y-58928000D01*
X14224000Y-71776000D02*
X13625000Y-72375000D01*
X13625000Y-72375000D02*
X12000000Y-72375000D01*
X12092772Y-22567818D02*
X12092772Y-24241143D01*
X17298000Y-17362590D02*
X12092772Y-22567818D01*
X17298000Y-13681000D02*
X17298000Y-17362590D01*
X16236500Y-12619500D02*
X17298000Y-13681000D01*
X12223500Y-12619500D02*
X16236500Y-12619500D01*
X10694000Y-14149000D02*
X12223500Y-12619500D01*
X12092772Y-24241143D02*
X12092772Y-25091143D01*
X7651500Y-12111500D02*
X16470500Y-12111500D01*
X5614000Y-14149000D02*
X7651500Y-12111500D01*
X16470500Y-12111500D02*
X17806000Y-13447000D01*
X17806000Y-13447000D02*
X17806000Y-17634000D01*
X17806000Y-17634000D02*
X12892772Y-22547228D01*
X12892772Y-22547228D02*
X12892772Y-25091143D01*
X15280000Y-35992000D02*
X19344000Y-31928000D01*
X13930500Y-35992000D02*
X15280000Y-35992000D01*
X12910000Y-34971500D02*
X13930500Y-35992000D01*
X9358500Y-34971500D02*
X12910000Y-34971500D01*
X8892772Y-33591143D02*
X8892772Y-34505772D01*
X8892772Y-34505772D02*
X9358500Y-34971500D01*
X19344000Y-31928000D02*
X28254000Y-31928000D01*
X28254000Y-31928000D02*
X28766500Y-31415500D01*
X28766500Y-31415500D02*
X29309500Y-31415500D01*
X15788000Y-37008000D02*
X19852000Y-32944000D01*
X27218000Y-32944000D02*
X28737500Y-34463500D01*
X13427000Y-37008000D02*
X15788000Y-37008000D01*
X7292772Y-34429772D02*
X8861871Y-35998871D01*
X12417871Y-35998871D02*
X13427000Y-37008000D01*
X8861871Y-35998871D02*
X12417871Y-35998871D01*
X7292772Y-33591143D02*
X7292772Y-34429772D01*
X19852000Y-32944000D02*
X27218000Y-32944000D01*
X28737500Y-34463500D02*
X28809500Y-34463500D01*
X28809500Y-34463500D02*
X29309500Y-34463500D01*
X15534000Y-36500000D02*
X19598000Y-32436000D01*
X13676500Y-36500000D02*
X15534000Y-36500000D01*
X12719781Y-35543281D02*
X13676500Y-36500000D01*
X8092772Y-34467772D02*
X9168281Y-35543281D01*
X9168281Y-35543281D02*
X12719781Y-35543281D01*
X8092772Y-33591143D02*
X8092772Y-34467772D01*
X19598000Y-32436000D02*
X28254000Y-32436000D01*
X28254000Y-32436000D02*
X28762000Y-32944000D01*
X28762000Y-32944000D02*
X28766500Y-32939500D01*
X28766500Y-32939500D02*
X29309500Y-32939500D01*
D49*
X37806500Y-50211500D02*
X36790500Y-49195500D01*
X37806500Y-56935500D02*
X37806500Y-50211500D01*
X37338000Y-57404000D02*
X37806500Y-56935500D01*
X34964000Y-57404000D02*
X37338000Y-57404000D01*
X34658000Y-59875000D02*
X34658000Y-57710000D01*
X34658000Y-57710000D02*
X34964000Y-57404000D01*
X36790500Y-49195500D02*
X35520500Y-47925500D01*
X23240300Y-42545700D02*
X23582500Y-42203500D01*
X21775500Y-42545700D02*
X23240300Y-42545700D01*
X23582500Y-42203500D02*
X23582500Y-39797500D01*
X23582500Y-39797500D02*
X24090500Y-39289500D01*
X24090500Y-39289500D02*
X24852500Y-39289500D01*
X24852500Y-39289500D02*
X25614500Y-38527500D01*
X25614500Y-38527500D02*
X25616000Y-38526000D01*
X28916500Y-38527500D02*
X25614500Y-38527500D01*
X28986000Y-38458000D02*
X29299000Y-38145000D01*
X29299000Y-37501500D02*
X29299000Y-38145000D01*
X28986000Y-38458000D02*
X28916500Y-38527500D01*
X25616000Y-38526000D02*
X25616000Y-37451500D01*
D52*
X32472500Y-46909500D02*
X32472500Y-46147500D01*
X32472500Y-46147500D02*
X32770900Y-45849100D01*
X33488500Y-47925500D02*
X32472500Y-46909500D01*
X35222100Y-45849100D02*
X35520500Y-46147500D01*
X35520500Y-47925500D02*
X33488500Y-47925500D01*
X35520500Y-46147500D02*
X35520500Y-47925500D01*
X33886200Y-45849100D02*
X35222100Y-45849100D01*
X32770900Y-45849100D02*
X33886200Y-45849100D01*
D50*
X28748000Y-117685000D02*
X26308000Y-117685000D01*
X25079000Y-117685000D02*
X23722000Y-116328000D01*
X23722000Y-116328000D02*
X23722000Y-115143000D01*
X30018000Y-116415000D02*
X28748000Y-117685000D01*
X26308000Y-117685000D02*
X25079000Y-117685000D01*
X31388000Y-116415000D02*
X30018000Y-116415000D01*
X17396000Y-115131000D02*
X17384000Y-115143000D01*
X19186000Y-115143000D02*
X19174000Y-115131000D01*
X22222000Y-115143000D02*
X19186000Y-115143000D01*
X19174000Y-115131000D02*
X17396000Y-115131000D01*
D51*
X24770000Y-96650000D02*
X24770000Y-106680000D01*
X31388000Y-113875000D02*
X24770000Y-107257000D01*
X24770000Y-107257000D02*
X24770000Y-106680000D01*
X22098000Y-95504000D02*
X22098000Y-107950000D01*
X26308000Y-112605000D02*
X22098000Y-108395000D01*
X22098000Y-108395000D02*
X22098000Y-107950000D01*
X29210000Y-106180000D02*
X27432000Y-104402000D01*
X23622000Y-93980000D02*
X22098000Y-95504000D01*
X25908000Y-93980000D02*
X23622000Y-93980000D01*
X27432000Y-95504000D02*
X25908000Y-93980000D01*
X27432000Y-104402000D02*
X27432000Y-95504000D01*
X29210000Y-141986000D02*
X22098000Y-134874000D01*
X29210000Y-143180000D02*
X29210000Y-141986000D01*
X22098000Y-134874000D02*
X22098000Y-132588000D01*
X22098000Y-132588000D02*
X24301000Y-130385000D01*
X24301000Y-130385000D02*
X25176630Y-130385000D01*
X25176630Y-130385000D02*
X26308000Y-130385000D01*
X24770000Y-133650000D02*
X26853000Y-133650000D01*
X26853000Y-133650000D02*
X31388000Y-129115000D01*
D49*
X31388000Y-118955000D02*
X23606500Y-118955000D01*
X23606500Y-118955000D02*
X23104000Y-119457500D01*
X15748000Y-121666000D02*
X20374000Y-121666000D01*
X20374000Y-121666000D02*
X21015001Y-121024999D01*
X14998000Y-122416000D02*
X15748000Y-121666000D01*
X13970000Y-122416000D02*
X14998000Y-122416000D01*
X13970000Y-122416000D02*
X10996000Y-122416000D01*
X10996000Y-122416000D02*
X10160000Y-121580000D01*
X25473000Y-120225000D02*
X24673001Y-121024999D01*
X26308000Y-120225000D02*
X25473000Y-120225000D01*
X24673001Y-121024999D02*
X21015001Y-121024999D01*
D50*
X24692500Y-123775500D02*
X23734000Y-123775500D01*
X26222000Y-125305000D02*
X24692500Y-123775500D01*
X26308000Y-125305000D02*
X26222000Y-125305000D01*
X30018000Y-126575000D02*
X28748000Y-125305000D01*
X31388000Y-126575000D02*
X30018000Y-126575000D01*
X28748000Y-125305000D02*
X26308000Y-125305000D01*
X19174000Y-123791000D02*
X22218500Y-123791000D01*
X22218500Y-123791000D02*
X22234000Y-123775500D01*
X19174000Y-123791000D02*
X17396000Y-123791000D01*
X17396000Y-123791000D02*
X17384000Y-123779000D01*
X19186000Y-123779000D02*
X19174000Y-123791000D01*
D52*
X30809500Y-32939500D02*
X32053502Y-32939500D01*
X36625500Y-38108500D02*
X36625500Y-37511498D01*
X36625500Y-37511498D02*
X32053502Y-32939500D01*
X36625500Y-40940500D02*
X36625500Y-38108500D01*
X8088500Y-37511500D02*
X7072500Y-36495500D01*
X11644500Y-37511500D02*
X8088500Y-37511500D01*
X15454500Y-38527500D02*
X12660500Y-38527500D01*
X2961000Y-30023000D02*
X3596000Y-29388000D01*
X12660500Y-38527500D02*
X11644500Y-37511500D01*
X17890000Y-39190000D02*
X16117000Y-39190000D01*
X16117000Y-39190000D02*
X15454500Y-38527500D01*
X7072500Y-36495500D02*
X3723000Y-36495500D01*
X3723000Y-36495500D02*
X2961000Y-35733500D01*
X2961000Y-35733500D02*
X2961000Y-30023000D01*
X3596000Y-29388000D02*
X3596000Y-28691000D01*
D50*
X17890000Y-43000000D02*
X18229800Y-43000000D01*
X18229800Y-43000000D02*
X21775500Y-46545700D01*
X28486200Y-45849100D02*
X28486200Y-44579100D01*
X25458500Y-46545700D02*
X25476300Y-46545700D01*
X28486200Y-43309100D02*
X28486200Y-42039100D01*
X21775500Y-46545700D02*
X25458500Y-46545700D01*
X28486200Y-45849100D02*
X26155100Y-45849100D01*
X26155100Y-45849100D02*
X25458500Y-46545700D01*
X28486200Y-44579100D02*
X28486200Y-43309100D01*
D52*
X24495660Y-29388000D02*
X18836000Y-29388000D01*
X24940330Y-28943330D02*
X24495660Y-29388000D01*
X18836000Y-29388000D02*
X16789143Y-27341143D01*
X16789143Y-27341143D02*
X15192772Y-27341143D01*
X15192772Y-27341143D02*
X14342772Y-27341143D01*
X31776000Y-20031000D02*
X31776000Y-19777000D01*
X33300000Y-21555000D02*
X31776000Y-20031000D01*
X33300000Y-26889000D02*
X33300000Y-21555000D01*
X25511660Y-28372000D02*
X31817000Y-28372000D01*
X31817000Y-28372000D02*
X33300000Y-26889000D01*
X24940330Y-28943330D02*
X25511660Y-28372000D01*
X31776000Y-19777000D02*
X30760000Y-18761000D01*
X15192772Y-29741143D02*
X14342772Y-29741143D01*
X16903143Y-29741143D02*
X15192772Y-29741143D01*
X18074000Y-30912000D02*
X16903143Y-29741143D01*
X25567000Y-30912000D02*
X18074000Y-30912000D01*
X36116900Y-20516100D02*
X34824000Y-21809000D01*
X26583000Y-29896000D02*
X25567000Y-30912000D01*
X36116900Y-19884300D02*
X36116900Y-20516100D01*
X34824000Y-21809000D02*
X34824000Y-27651000D01*
X34824000Y-27651000D02*
X32579000Y-29896000D01*
X32579000Y-29896000D02*
X26583000Y-29896000D01*
X31563000Y-27864000D02*
X24932000Y-27864000D01*
X32792000Y-26635000D02*
X31563000Y-27864000D01*
X32792000Y-21809000D02*
X32792000Y-26635000D01*
X31014000Y-20031000D02*
X32792000Y-21809000D01*
X25680000Y-18761000D02*
X26950000Y-20031000D01*
X26950000Y-20031000D02*
X31014000Y-20031000D01*
X24932000Y-27864000D02*
X23916000Y-28880000D01*
X23916000Y-28880000D02*
X19091410Y-28880000D01*
X19091410Y-28880000D02*
X16752553Y-26541143D01*
X16752553Y-26541143D02*
X15192772Y-26541143D01*
X15192772Y-26541143D02*
X14342772Y-26541143D01*
X8092772Y-24241143D02*
X8086317Y-24241143D01*
X8086317Y-24241143D02*
X7937876Y-24092702D01*
X7937876Y-24092702D02*
X7937876Y-23392702D01*
X8041000Y-24189371D02*
X8092772Y-24241143D01*
X8092772Y-25091143D02*
X8092772Y-24241143D01*
X7949876Y-21868702D02*
X7937876Y-21880702D01*
X7937876Y-21880702D02*
X7937876Y-23392702D01*
D49*
X19380800Y-21742600D02*
X18237800Y-21742600D01*
D50*
X31748859Y-23757541D02*
X31748859Y-25547541D01*
D49*
X18237800Y-21742600D02*
X17348800Y-20853600D01*
D50*
X30718859Y-26577541D02*
X31748859Y-25547541D01*
X30718859Y-26577541D02*
X29818859Y-26577541D01*
D49*
X14454207Y-33612535D02*
X14454207Y-34838191D01*
X14422628Y-33580956D02*
X14454207Y-33612535D01*
D52*
X5842772Y-27341143D02*
X3646143Y-27341143D01*
X3646143Y-27341143D02*
X3596000Y-27291000D01*
X4104000Y-31429915D02*
X4104000Y-33718000D01*
X5842772Y-30541143D02*
X4992772Y-30541143D01*
X4992772Y-30541143D02*
X4104000Y-31429915D01*
X4612000Y-31801000D02*
X4612000Y-32775000D01*
X4612000Y-32775000D02*
X5555000Y-33718000D01*
X5555000Y-33718000D02*
X5755000Y-33718000D01*
X5071857Y-31341143D02*
X4612000Y-31801000D01*
X5842772Y-31341143D02*
X5071857Y-31341143D01*
X36856000Y-26381000D02*
X32833000Y-30404000D01*
X17820000Y-31420000D02*
X16941143Y-30541143D01*
X32833000Y-30404000D02*
X26837000Y-30404000D01*
X26837000Y-30404000D02*
X25821000Y-31420000D01*
X25821000Y-31420000D02*
X17820000Y-31420000D01*
X16941143Y-30541143D02*
X14342772Y-30541143D01*
X36856000Y-23951000D02*
X36856000Y-26381000D01*
D49*
X30098859Y-22257541D02*
X31748859Y-22257541D01*
X29818859Y-21977541D02*
X30098859Y-22257541D01*
X31748859Y-22257541D02*
X31748859Y-22282541D01*
X23632183Y-27635183D02*
X23140000Y-27143000D01*
X23879670Y-27882670D02*
X23632183Y-27635183D01*
X23518859Y-24277541D02*
X24818859Y-24277541D01*
X24818859Y-24277541D02*
X29818859Y-24277541D01*
X23518859Y-20409859D02*
X23140000Y-20031000D01*
X23140000Y-20031000D02*
X23140000Y-18761000D01*
X23518859Y-24277541D02*
X23518859Y-20409859D01*
X23518859Y-24277541D02*
X20545859Y-24277541D01*
X20545859Y-24277541D02*
X19380800Y-25442600D01*
X19380800Y-25442600D02*
X19380800Y-26142600D01*
X23140000Y-27143000D02*
X23518859Y-26764141D01*
X23518859Y-26764141D02*
X23518859Y-24277541D01*
D52*
X17526000Y-5741000D02*
X17526000Y-8201002D01*
X15774000Y-3989000D02*
X17526000Y-5741000D01*
X17526000Y-8201002D02*
X24318498Y-14993500D01*
X24318498Y-14993500D02*
X28043500Y-14993500D01*
X12432000Y-2251000D02*
X23746002Y-2251000D01*
X10694000Y-3989000D02*
X12432000Y-2251000D01*
X23746002Y-2251000D02*
X26138500Y-4643498D01*
X26138500Y-4643498D02*
X26138500Y-6899500D01*
X26138500Y-6899500D02*
X25614500Y-7423500D01*
X25614500Y-7423500D02*
X23833500Y-7423500D01*
X13234000Y-3989000D02*
X14464000Y-2759000D01*
X14464000Y-2759000D02*
X22419000Y-2759000D01*
X22419000Y-2759000D02*
X23833500Y-4173500D01*
X23833500Y-4173500D02*
X23833500Y-4923500D01*
X10400000Y-1743000D02*
X24030000Y-1743000D01*
X8154000Y-3989000D02*
X10400000Y-1743000D01*
X24030000Y-1743000D02*
X26646500Y-4359500D01*
X26646500Y-4359500D02*
X26646500Y-8423500D01*
X26646500Y-8423500D02*
X25646500Y-9423500D01*
X25646500Y-9423500D02*
X23833500Y-9423500D01*
X30654500Y-11923500D02*
X34216900Y-15485900D01*
X34216900Y-15485900D02*
X34216900Y-17564300D01*
X23833500Y-11923500D02*
X30654500Y-11923500D01*
X5614000Y-3013000D02*
X7392000Y-1235000D01*
X5614000Y-3989000D02*
X5614000Y-3013000D01*
X7392000Y-1235000D02*
X24284000Y-1235000D01*
X24284000Y-1235000D02*
X36116900Y-13067900D01*
X36116900Y-13067900D02*
X36116900Y-17564300D01*
X37872000Y-18011000D02*
X36563600Y-18011000D01*
X36563600Y-18011000D02*
X36116900Y-17564300D01*
X37872000Y-19511000D02*
X36490200Y-19511000D01*
X36490200Y-19511000D02*
X36116900Y-19884300D01*
X35166900Y-18724300D02*
X35166900Y-19884300D01*
X35166900Y-18724300D02*
X35166900Y-17564300D01*
X34216900Y-18536300D02*
X34216900Y-17564300D01*
X34404900Y-18724300D02*
X34216900Y-18536300D01*
X34216900Y-18912300D02*
X34216900Y-19884300D01*
X34404900Y-18724300D02*
X34216900Y-18912300D01*
X35166900Y-18724300D02*
X34404900Y-18724300D01*
X34760000Y-55413500D02*
X33303500Y-55413500D01*
X33303500Y-55413500D02*
X33262000Y-55372000D01*
D50*
X15884000Y-115143000D02*
X15884000Y-112386000D01*
X15884000Y-112386000D02*
X19050000Y-109220000D01*
X19050000Y-93726000D02*
X19050000Y-109220000D01*
X22098000Y-90678000D02*
X19050000Y-93726000D01*
X23622000Y-90678000D02*
X22098000Y-90678000D01*
X27178000Y-87122000D02*
X23622000Y-90678000D01*
X30900000Y-75492000D02*
X27178000Y-79214000D01*
X27178000Y-79214000D02*
X27178000Y-87122000D01*
X33782000Y-134620000D02*
X36576000Y-131826000D01*
X33782000Y-143764000D02*
X33782000Y-134620000D01*
X30988000Y-146558000D02*
X33782000Y-143764000D01*
X26289000Y-146558000D02*
X30988000Y-146558000D01*
X15884000Y-123779000D02*
X15884000Y-136153000D01*
X33782000Y-93374000D02*
X30900000Y-90492000D01*
X15884000Y-136153000D02*
X26289000Y-146558000D01*
X36576000Y-131826000D02*
X36576000Y-110998000D01*
X36576000Y-110998000D02*
X33782000Y-108204000D01*
X33782000Y-108204000D02*
X33782000Y-93374000D01*
D53*
G36*
X24816253Y-21039411D02*
X24860047Y-21104953D01*
X24925589Y-21148747D01*
X24925591Y-21148749D01*
X25052927Y-21233832D01*
X25119708Y-21278454D01*
X25348684Y-21324000D01*
X25348688Y-21324000D01*
X25426000Y-21339378D01*
X25503312Y-21324000D01*
X28171419Y-21324000D01*
X28171419Y-22727541D01*
X28220702Y-22975306D01*
X28321786Y-23126588D01*
X28280532Y-23167842D01*
X28183859Y-23401231D01*
X28183859Y-23991791D01*
X28342609Y-24150541D01*
X29691859Y-24150541D01*
X29691859Y-24130541D01*
X29945859Y-24130541D01*
X29945859Y-24150541D01*
X29965859Y-24150541D01*
X29965859Y-24404541D01*
X29945859Y-24404541D01*
X29945859Y-24424541D01*
X29691859Y-24424541D01*
X29691859Y-24404541D01*
X28342609Y-24404541D01*
X28183859Y-24563291D01*
X28183859Y-25153851D01*
X28280532Y-25387240D01*
X28321786Y-25428494D01*
X28220702Y-25579776D01*
X28171419Y-25827541D01*
X28171419Y-27104000D01*
X25006847Y-27104000D01*
X24932000Y-27089112D01*
X24857153Y-27104000D01*
X24857148Y-27104000D01*
X24635463Y-27148096D01*
X24384071Y-27316071D01*
X24341671Y-27379527D01*
X23755154Y-27966044D01*
X23687337Y-27898227D01*
X23701479Y-27884084D01*
X23276331Y-27458936D01*
X23051825Y-27458936D01*
X22846368Y-27664393D01*
X22749695Y-27897782D01*
X22749696Y-28032000D01*
X21997000Y-28032000D01*
X21997000Y-27054825D01*
X23455936Y-27054825D01*
X23455936Y-27279331D01*
X23881084Y-27704479D01*
X24446239Y-27139324D01*
X24446239Y-26914818D01*
X24380790Y-26849368D01*
X24291881Y-26812541D01*
X24645168Y-26812541D01*
X24878557Y-26715868D01*
X25057186Y-26537240D01*
X25153859Y-26303851D01*
X25153859Y-24563291D01*
X24995109Y-24404541D01*
X23645859Y-24404541D01*
X23645859Y-26653791D01*
X23788703Y-26796635D01*
X23661393Y-26849368D01*
X23455936Y-27054825D01*
X21997000Y-27054825D01*
X21997000Y-26553708D01*
X22159161Y-26715868D01*
X22392550Y-26812541D01*
X23233109Y-26812541D01*
X23391859Y-26653791D01*
X23391859Y-24404541D01*
X23371859Y-24404541D01*
X23371859Y-24150541D01*
X23391859Y-24150541D01*
X23391859Y-21901291D01*
X23645859Y-21901291D01*
X23645859Y-24150541D01*
X24995109Y-24150541D01*
X25153859Y-23991791D01*
X25153859Y-22251231D01*
X25057186Y-22017842D01*
X24878557Y-21839214D01*
X24645168Y-21742541D01*
X23804609Y-21742541D01*
X23645859Y-21901291D01*
X23391859Y-21901291D01*
X23233109Y-21742541D01*
X22392550Y-21742541D01*
X22159161Y-21839214D01*
X21997000Y-22001374D01*
X21997000Y-20412000D01*
X24188843Y-20412000D01*
X24816253Y-21039411D01*
X24816253Y-21039411D01*
G37*
X24816253Y-21039411D02*
X24860047Y-21104953D01*
X24925589Y-21148747D01*
X24925591Y-21148749D01*
X25052927Y-21233832D01*
X25119708Y-21278454D01*
X25348684Y-21324000D01*
X25348688Y-21324000D01*
X25426000Y-21339378D01*
X25503312Y-21324000D01*
X28171419Y-21324000D01*
X28171419Y-22727541D01*
X28220702Y-22975306D01*
X28321786Y-23126588D01*
X28280532Y-23167842D01*
X28183859Y-23401231D01*
X28183859Y-23991791D01*
X28342609Y-24150541D01*
X29691859Y-24150541D01*
X29691859Y-24130541D01*
X29945859Y-24130541D01*
X29945859Y-24150541D01*
X29965859Y-24150541D01*
X29965859Y-24404541D01*
X29945859Y-24404541D01*
X29945859Y-24424541D01*
X29691859Y-24424541D01*
X29691859Y-24404541D01*
X28342609Y-24404541D01*
X28183859Y-24563291D01*
X28183859Y-25153851D01*
X28280532Y-25387240D01*
X28321786Y-25428494D01*
X28220702Y-25579776D01*
X28171419Y-25827541D01*
X28171419Y-27104000D01*
X25006847Y-27104000D01*
X24932000Y-27089112D01*
X24857153Y-27104000D01*
X24857148Y-27104000D01*
X24635463Y-27148096D01*
X24384071Y-27316071D01*
X24341671Y-27379527D01*
X23755154Y-27966044D01*
X23687337Y-27898227D01*
X23701479Y-27884084D01*
X23276331Y-27458936D01*
X23051825Y-27458936D01*
X22846368Y-27664393D01*
X22749695Y-27897782D01*
X22749696Y-28032000D01*
X21997000Y-28032000D01*
X21997000Y-27054825D01*
X23455936Y-27054825D01*
X23455936Y-27279331D01*
X23881084Y-27704479D01*
X24446239Y-27139324D01*
X24446239Y-26914818D01*
X24380790Y-26849368D01*
X24291881Y-26812541D01*
X24645168Y-26812541D01*
X24878557Y-26715868D01*
X25057186Y-26537240D01*
X25153859Y-26303851D01*
X25153859Y-24563291D01*
X24995109Y-24404541D01*
X23645859Y-24404541D01*
X23645859Y-26653791D01*
X23788703Y-26796635D01*
X23661393Y-26849368D01*
X23455936Y-27054825D01*
X21997000Y-27054825D01*
X21997000Y-26553708D01*
X22159161Y-26715868D01*
X22392550Y-26812541D01*
X23233109Y-26812541D01*
X23391859Y-26653791D01*
X23391859Y-24404541D01*
X23371859Y-24404541D01*
X23371859Y-24150541D01*
X23391859Y-24150541D01*
X23391859Y-21901291D01*
X23645859Y-21901291D01*
X23645859Y-24150541D01*
X24995109Y-24150541D01*
X25153859Y-23991791D01*
X25153859Y-22251231D01*
X25057186Y-22017842D01*
X24878557Y-21839214D01*
X24645168Y-21742541D01*
X23804609Y-21742541D01*
X23645859Y-21901291D01*
X23391859Y-21901291D01*
X23233109Y-21742541D01*
X22392550Y-21742541D01*
X22159161Y-21839214D01*
X21997000Y-22001374D01*
X21997000Y-20412000D01*
X24188843Y-20412000D01*
X24816253Y-21039411D01*
G36*
X25518560Y-39001500D02*
X25518560Y-39901500D01*
X25567843Y-40149265D01*
X25708191Y-40359309D01*
X25832964Y-40442680D01*
X25627384Y-40648260D01*
X24558500Y-40648260D01*
X24310735Y-40697543D01*
X24100691Y-40837891D01*
X23960343Y-41047935D01*
X23911060Y-41295700D01*
X23911060Y-43795700D01*
X23960343Y-44043465D01*
X24100691Y-44253509D01*
X24310735Y-44393857D01*
X24558500Y-44443140D01*
X26358500Y-44443140D01*
X26606265Y-44393857D01*
X26816309Y-44253509D01*
X26956657Y-44043465D01*
X27005940Y-43795700D01*
X27005940Y-42126416D01*
X27050356Y-42082000D01*
X27063760Y-42082000D01*
X27063760Y-42339100D01*
X27113043Y-42586865D01*
X27171332Y-42674100D01*
X27113043Y-42761335D01*
X27063760Y-43009100D01*
X27063760Y-43609100D01*
X27113043Y-43856865D01*
X27171332Y-43944100D01*
X27113043Y-44031335D01*
X27063760Y-44279100D01*
X27063760Y-44839100D01*
X26817117Y-44839100D01*
X26816309Y-44837891D01*
X26606265Y-44697543D01*
X26358500Y-44648260D01*
X24558500Y-44648260D01*
X24310735Y-44697543D01*
X24100691Y-44837891D01*
X23960343Y-45047935D01*
X23911060Y-45295700D01*
X23911060Y-45535700D01*
X23322940Y-45535700D01*
X23322940Y-45295700D01*
X23273657Y-45047935D01*
X23133309Y-44837891D01*
X22923265Y-44697543D01*
X22675500Y-44648260D01*
X21306415Y-44648260D01*
X21088855Y-44430700D01*
X21489750Y-44430700D01*
X21648500Y-44271950D01*
X21648500Y-42672700D01*
X21902500Y-42672700D01*
X21902500Y-44271950D01*
X22061250Y-44430700D01*
X22801810Y-44430700D01*
X23035199Y-44334027D01*
X23213827Y-44155398D01*
X23310500Y-43922009D01*
X23310500Y-42831450D01*
X23151750Y-42672700D01*
X21902500Y-42672700D01*
X21648500Y-42672700D01*
X20399250Y-42672700D01*
X20240500Y-42831450D01*
X20240500Y-43582345D01*
X19625000Y-42966845D01*
X19625000Y-42654887D01*
X19360862Y-42017201D01*
X18872799Y-41529138D01*
X18235113Y-41265000D01*
X17544887Y-41265000D01*
X16907201Y-41529138D01*
X16419138Y-42017201D01*
X16155000Y-42654887D01*
X16155000Y-43345113D01*
X16419138Y-43982799D01*
X16907201Y-44470862D01*
X17544887Y-44735000D01*
X18235113Y-44735000D01*
X18448187Y-44646742D01*
X18960383Y-45158938D01*
X18274895Y-44875000D01*
X17505105Y-44875000D01*
X16793910Y-45169586D01*
X16249586Y-45713910D01*
X15955000Y-46425105D01*
X15955000Y-47194895D01*
X16249586Y-47906090D01*
X16793910Y-48450414D01*
X17505105Y-48745000D01*
X18274895Y-48745000D01*
X18645808Y-48591363D01*
X20228060Y-50173616D01*
X20228060Y-51542700D01*
X20277343Y-51790465D01*
X20417691Y-52000509D01*
X20627735Y-52140857D01*
X20875500Y-52190140D01*
X22675500Y-52190140D01*
X22923265Y-52140857D01*
X23133309Y-52000509D01*
X23273657Y-51790465D01*
X23322940Y-51542700D01*
X23322940Y-51302700D01*
X23911060Y-51302700D01*
X23911060Y-51542700D01*
X23960343Y-51790465D01*
X24100691Y-52000509D01*
X24310735Y-52140857D01*
X24558500Y-52190140D01*
X26358500Y-52190140D01*
X26606265Y-52140857D01*
X26816309Y-52000509D01*
X26857341Y-51939100D01*
X27063760Y-51939100D01*
X27063760Y-52499100D01*
X27113043Y-52746865D01*
X27171332Y-52834100D01*
X27113043Y-52921335D01*
X27063760Y-53169100D01*
X27063760Y-53769100D01*
X27113043Y-54016865D01*
X27253391Y-54226909D01*
X27463435Y-54367257D01*
X27711200Y-54416540D01*
X29261200Y-54416540D01*
X29508965Y-54367257D01*
X29719009Y-54226909D01*
X29859357Y-54016865D01*
X29908640Y-53769100D01*
X29908640Y-53169100D01*
X29859357Y-52921335D01*
X29801068Y-52834100D01*
X29859357Y-52746865D01*
X29908640Y-52499100D01*
X29908640Y-51899100D01*
X29859357Y-51651335D01*
X29801068Y-51564100D01*
X29859357Y-51476865D01*
X29908640Y-51229100D01*
X29908640Y-50629100D01*
X29859749Y-50383304D01*
X29990000Y-50513556D01*
X29990001Y-51456118D01*
X29918714Y-51814500D01*
X29938501Y-51913975D01*
X29938500Y-55471475D01*
X29938501Y-55471480D01*
X29938500Y-57666145D01*
X29705522Y-57899123D01*
X29562787Y-57840000D01*
X28753213Y-57840000D01*
X28610478Y-57899123D01*
X26753699Y-56042344D01*
X26816309Y-56000509D01*
X26956657Y-55790465D01*
X27005940Y-55542700D01*
X27005940Y-53042700D01*
X26956657Y-52794935D01*
X26816309Y-52584891D01*
X26606265Y-52444543D01*
X26358500Y-52395260D01*
X24558500Y-52395260D01*
X24310735Y-52444543D01*
X24100691Y-52584891D01*
X23960343Y-52794935D01*
X23911060Y-53042700D01*
X23911060Y-55542700D01*
X23960343Y-55790465D01*
X24100691Y-56000509D01*
X24310735Y-56140857D01*
X24430852Y-56164750D01*
X24428714Y-56175500D01*
X24448500Y-56274971D01*
X24448500Y-56274975D01*
X24507101Y-56569581D01*
X24730331Y-56903669D01*
X24814663Y-56960018D01*
X27182123Y-59327478D01*
X27123000Y-59470213D01*
X27123000Y-60279787D01*
X27432810Y-61027735D01*
X27623000Y-61217925D01*
X27623001Y-62732074D01*
X27432810Y-62922265D01*
X27123000Y-63670213D01*
X27123000Y-64479787D01*
X27432810Y-65227735D01*
X27623000Y-65417925D01*
X27623000Y-65725182D01*
X23021493Y-70326690D01*
X22893328Y-70412327D01*
X22807691Y-70540492D01*
X22807690Y-70540493D01*
X22554063Y-70920073D01*
X22434929Y-71519000D01*
X22465001Y-71670182D01*
X22465000Y-79540132D01*
X22342191Y-79622191D01*
X22201843Y-79832235D01*
X22152560Y-80080000D01*
X22152560Y-82480000D01*
X22201843Y-82727765D01*
X22342191Y-82937809D01*
X22552235Y-83078157D01*
X22800000Y-83127440D01*
X25200000Y-83127440D01*
X25447765Y-83078157D01*
X25657809Y-82937809D01*
X25798157Y-82727765D01*
X25847440Y-82480000D01*
X25847440Y-80080000D01*
X25798157Y-79832235D01*
X25657809Y-79622191D01*
X25535000Y-79540132D01*
X25535000Y-72267022D01*
X29204584Y-72267022D01*
X29425353Y-72637743D01*
X30397012Y-73031119D01*
X31445247Y-73022713D01*
X32374647Y-72637743D01*
X32595416Y-72267022D01*
X30900000Y-70571605D01*
X29204584Y-72267022D01*
X25535000Y-72267022D01*
X25535000Y-72154817D01*
X28573846Y-69115971D01*
X28260881Y-69889012D01*
X28269287Y-70937247D01*
X28654257Y-71866647D01*
X29024978Y-72087416D01*
X30720395Y-70392000D01*
X31079605Y-70392000D01*
X32775022Y-72087416D01*
X33145743Y-71866647D01*
X33539119Y-70894988D01*
X33530713Y-69846753D01*
X33145743Y-68917353D01*
X32775022Y-68696584D01*
X31079605Y-70392000D01*
X30720395Y-70392000D01*
X30706252Y-70377858D01*
X30885858Y-70198252D01*
X30900000Y-70212395D01*
X32595416Y-68516978D01*
X32374647Y-68146257D01*
X31402988Y-67752881D01*
X30354753Y-67761287D01*
X29627146Y-68062671D01*
X30136508Y-67553310D01*
X30264673Y-67467673D01*
X30370028Y-67309999D01*
X30603938Y-66959927D01*
X30723072Y-66361000D01*
X30693000Y-66209818D01*
X30693000Y-65516724D01*
X33395882Y-65516724D01*
X33543455Y-65825106D01*
X34298031Y-66118405D01*
X35107409Y-66100614D01*
X35772545Y-65825106D01*
X35920118Y-65516724D01*
X34658000Y-64254605D01*
X33395882Y-65516724D01*
X30693000Y-65516724D01*
X30693000Y-65417925D01*
X30883190Y-65227735D01*
X31193000Y-64479787D01*
X31193000Y-63715031D01*
X32614595Y-63715031D01*
X32632386Y-64524409D01*
X32907894Y-65189545D01*
X33216276Y-65337118D01*
X34478395Y-64075000D01*
X34837605Y-64075000D01*
X36099724Y-65337118D01*
X36408106Y-65189545D01*
X36701405Y-64434969D01*
X36683614Y-63625591D01*
X36408106Y-62960455D01*
X36099724Y-62812882D01*
X34837605Y-64075000D01*
X34478395Y-64075000D01*
X33216276Y-62812882D01*
X32907894Y-62960455D01*
X32614595Y-63715031D01*
X31193000Y-63715031D01*
X31193000Y-63670213D01*
X30883190Y-62922265D01*
X30693000Y-62732075D01*
X30693000Y-62633276D01*
X33395882Y-62633276D01*
X34658000Y-63895395D01*
X35920118Y-62633276D01*
X35772545Y-62324894D01*
X35017969Y-62031595D01*
X34208591Y-62049386D01*
X33543455Y-62324894D01*
X33395882Y-62633276D01*
X30693000Y-62633276D01*
X30693000Y-61217925D01*
X30883190Y-61027735D01*
X31193000Y-60279787D01*
X31193000Y-60160750D01*
X32623000Y-60160750D01*
X32623000Y-61401309D01*
X32719673Y-61634698D01*
X32898301Y-61813327D01*
X33131690Y-61910000D01*
X34372250Y-61910000D01*
X34531000Y-61751250D01*
X34531000Y-60002000D01*
X34785000Y-60002000D01*
X34785000Y-61751250D01*
X34943750Y-61910000D01*
X36184310Y-61910000D01*
X36417699Y-61813327D01*
X36596327Y-61634698D01*
X36693000Y-61401309D01*
X36693000Y-60160750D01*
X36534250Y-60002000D01*
X34785000Y-60002000D01*
X34531000Y-60002000D01*
X32781750Y-60002000D01*
X32623000Y-60160750D01*
X31193000Y-60160750D01*
X31193000Y-59470213D01*
X31133877Y-59327478D01*
X31592338Y-58869017D01*
X31676669Y-58812669D01*
X31899899Y-58478582D01*
X31925736Y-58348691D01*
X32623000Y-58348691D01*
X32623000Y-59589250D01*
X32781750Y-59748000D01*
X34531000Y-59748000D01*
X34531000Y-57998750D01*
X34785000Y-57998750D01*
X34785000Y-59748000D01*
X36534250Y-59748000D01*
X36693000Y-59589250D01*
X36693000Y-58348691D01*
X36596327Y-58115302D01*
X36417699Y-57936673D01*
X36184310Y-57840000D01*
X34943750Y-57840000D01*
X34785000Y-57998750D01*
X34531000Y-57998750D01*
X34372250Y-57840000D01*
X33131690Y-57840000D01*
X32898301Y-57936673D01*
X32719673Y-58115302D01*
X32623000Y-58348691D01*
X31925736Y-58348691D01*
X31958500Y-58183976D01*
X31958500Y-58183972D01*
X31978286Y-58084501D01*
X31958500Y-57985030D01*
X31958500Y-56469440D01*
X32012000Y-56469440D01*
X32259765Y-56420157D01*
X32469809Y-56279809D01*
X32512000Y-56216666D01*
X32554191Y-56279809D01*
X32764235Y-56420157D01*
X33012000Y-56469440D01*
X33512000Y-56469440D01*
X33759765Y-56420157D01*
X33942361Y-56298150D01*
X34112235Y-56411657D01*
X34360000Y-56460940D01*
X35160000Y-56460940D01*
X35407765Y-56411657D01*
X35559047Y-56310573D01*
X35600302Y-56351827D01*
X35833691Y-56448500D01*
X36074250Y-56448500D01*
X36233000Y-56289750D01*
X36233000Y-55540500D01*
X36487000Y-55540500D01*
X36487000Y-56289750D01*
X36645750Y-56448500D01*
X36886309Y-56448500D01*
X37119698Y-56351827D01*
X37298327Y-56173199D01*
X37395000Y-55939810D01*
X37395000Y-55699250D01*
X37236250Y-55540500D01*
X36487000Y-55540500D01*
X36233000Y-55540500D01*
X36213000Y-55540500D01*
X36213000Y-55286500D01*
X36233000Y-55286500D01*
X36233000Y-54537250D01*
X36487000Y-54537250D01*
X36487000Y-55286500D01*
X37236250Y-55286500D01*
X37395000Y-55127750D01*
X37395000Y-54887190D01*
X37298327Y-54653801D01*
X37119698Y-54475173D01*
X36886309Y-54378500D01*
X36645750Y-54378500D01*
X36487000Y-54537250D01*
X36233000Y-54537250D01*
X36074250Y-54378500D01*
X35833691Y-54378500D01*
X35600302Y-54475173D01*
X35559047Y-54516427D01*
X35407765Y-54415343D01*
X35160000Y-54366060D01*
X34879346Y-54366060D01*
X35020898Y-54307427D01*
X35199527Y-54128799D01*
X35296200Y-53895410D01*
X35296200Y-53754850D01*
X35137450Y-53596100D01*
X34013200Y-53596100D01*
X34013200Y-54245350D01*
X34171420Y-54403570D01*
X34112235Y-54415343D01*
X33991206Y-54496213D01*
X33969809Y-54464191D01*
X33759765Y-54323843D01*
X33693823Y-54310727D01*
X33759200Y-54245350D01*
X33759200Y-53596100D01*
X32634950Y-53596100D01*
X32476200Y-53754850D01*
X32476200Y-53895410D01*
X32572873Y-54128799D01*
X32751502Y-54307427D01*
X32782407Y-54320228D01*
X32764235Y-54323843D01*
X32554191Y-54464191D01*
X32512000Y-54527334D01*
X32469809Y-54464191D01*
X32259765Y-54323843D01*
X32012000Y-54274560D01*
X31958500Y-54274560D01*
X31958500Y-52232855D01*
X32252256Y-51939100D01*
X32463760Y-51939100D01*
X32463760Y-52499100D01*
X32513043Y-52746865D01*
X32565968Y-52826072D01*
X32476200Y-53042790D01*
X32476200Y-53183350D01*
X32634950Y-53342100D01*
X33759200Y-53342100D01*
X33759200Y-53322100D01*
X34013200Y-53322100D01*
X34013200Y-53342100D01*
X35137450Y-53342100D01*
X35296200Y-53183350D01*
X35296200Y-53042790D01*
X35212090Y-52839731D01*
X35350829Y-52747029D01*
X35393231Y-52683571D01*
X35750973Y-52325829D01*
X35814429Y-52283429D01*
X35982404Y-52032037D01*
X36026500Y-51810352D01*
X36026500Y-51810348D01*
X36041388Y-51735501D01*
X36026500Y-51660654D01*
X36026500Y-50148745D01*
X36041388Y-50073898D01*
X36026500Y-49999051D01*
X36026500Y-49999046D01*
X35982404Y-49777361D01*
X35814429Y-49525969D01*
X35750970Y-49483567D01*
X35442033Y-49174630D01*
X35399631Y-49111171D01*
X35148239Y-48943196D01*
X35146821Y-48942914D01*
X35119009Y-48901291D01*
X34908965Y-48760943D01*
X34661200Y-48711660D01*
X33111200Y-48711660D01*
X32863435Y-48760943D01*
X32860624Y-48762821D01*
X32567878Y-48470077D01*
X32595940Y-48329000D01*
X32595940Y-47429000D01*
X32546657Y-47181235D01*
X32458500Y-47049300D01*
X32458500Y-45966301D01*
X32460700Y-45964101D01*
X32476200Y-45964101D01*
X32476200Y-45976102D01*
X32634948Y-45976102D01*
X32476200Y-46134850D01*
X32476200Y-46275410D01*
X32572873Y-46508799D01*
X32751502Y-46687427D01*
X32984891Y-46784100D01*
X33600450Y-46784100D01*
X33759200Y-46625350D01*
X33759200Y-45976100D01*
X33739200Y-45976100D01*
X33739200Y-45964101D01*
X34033200Y-45964101D01*
X34033200Y-45976100D01*
X34013200Y-45976100D01*
X34013200Y-46625350D01*
X34171950Y-46784100D01*
X34787509Y-46784100D01*
X35020898Y-46687427D01*
X35199527Y-46508799D01*
X35296200Y-46275410D01*
X35296200Y-46134850D01*
X35137452Y-45976102D01*
X35296200Y-45976102D01*
X35296200Y-45867578D01*
X35469130Y-45752030D01*
X35511532Y-45688571D01*
X35578060Y-45622043D01*
X35578060Y-46420500D01*
X35627343Y-46668265D01*
X35687000Y-46757547D01*
X35687000Y-46990000D01*
X35696667Y-47038601D01*
X35724197Y-47079803D01*
X39265001Y-50620607D01*
X39265000Y-102134101D01*
X38858994Y-101728095D01*
X37982406Y-101365000D01*
X37033594Y-101365000D01*
X36157006Y-101728095D01*
X35486095Y-102399006D01*
X35123000Y-103275594D01*
X35123000Y-104224406D01*
X35486095Y-105100994D01*
X36157006Y-105771905D01*
X37033594Y-106135000D01*
X37982406Y-106135000D01*
X38858994Y-105771905D01*
X39265000Y-105365899D01*
X39265000Y-137634101D01*
X38858994Y-137228095D01*
X37982406Y-136865000D01*
X37033594Y-136865000D01*
X36157006Y-137228095D01*
X35486095Y-137899006D01*
X35123000Y-138775594D01*
X35123000Y-139724406D01*
X35486095Y-140600994D01*
X36157006Y-141271905D01*
X37033594Y-141635000D01*
X37982406Y-141635000D01*
X38858994Y-141271905D01*
X39265000Y-140865899D01*
X39265000Y-152265000D01*
X735000Y-152265000D01*
X735000Y-120080000D01*
X8712560Y-120080000D01*
X8712560Y-123080000D01*
X8761843Y-123327765D01*
X8902191Y-123537809D01*
X9112235Y-123678157D01*
X9360000Y-123727440D01*
X10960000Y-123727440D01*
X11207765Y-123678157D01*
X11417809Y-123537809D01*
X11558157Y-123327765D01*
X11583372Y-123201000D01*
X13177715Y-123201000D01*
X13272235Y-123264157D01*
X13520000Y-123313440D01*
X14420000Y-123313440D01*
X14667765Y-123264157D01*
X14762285Y-123201000D01*
X14920688Y-123201000D01*
X14998000Y-123216378D01*
X15009413Y-123214108D01*
X14993594Y-123293636D01*
X14932601Y-123384919D01*
X14874000Y-123679525D01*
X14874001Y-136053524D01*
X14854214Y-136153000D01*
X14932602Y-136547082D01*
X15099482Y-136796837D01*
X15099485Y-136796840D01*
X15155832Y-136881169D01*
X15240161Y-136937516D01*
X25504482Y-147201837D01*
X25560831Y-147286169D01*
X25894918Y-147509399D01*
X26189524Y-147568000D01*
X26189528Y-147568000D01*
X26288999Y-147587786D01*
X26388470Y-147568000D01*
X30888529Y-147568000D01*
X30988000Y-147587786D01*
X31087471Y-147568000D01*
X31087476Y-147568000D01*
X31382082Y-147509399D01*
X31716169Y-147286169D01*
X31772518Y-147201837D01*
X34425841Y-144548515D01*
X34510169Y-144492169D01*
X34566516Y-144407840D01*
X34566518Y-144407838D01*
X34733398Y-144158083D01*
X34733399Y-144158082D01*
X34792000Y-143863476D01*
X34792000Y-143863471D01*
X34811786Y-143764000D01*
X34792000Y-143664529D01*
X34792000Y-135038355D01*
X37219841Y-132610515D01*
X37304169Y-132554169D01*
X37360516Y-132469840D01*
X37360518Y-132469838D01*
X37527398Y-132220083D01*
X37527399Y-132220082D01*
X37586000Y-131925476D01*
X37586000Y-131925471D01*
X37605786Y-131826000D01*
X37586000Y-131726529D01*
X37586000Y-111097471D01*
X37605786Y-110998000D01*
X37586000Y-110898529D01*
X37586000Y-110898524D01*
X37527399Y-110603918D01*
X37477411Y-110529105D01*
X37360518Y-110354162D01*
X37360516Y-110354160D01*
X37304169Y-110269831D01*
X37219840Y-110213484D01*
X34792000Y-107785645D01*
X34792000Y-93473470D01*
X34811786Y-93373999D01*
X34792000Y-93274528D01*
X34792000Y-93274524D01*
X34733399Y-92979918D01*
X34662034Y-92873113D01*
X34588726Y-92763400D01*
X35497012Y-93131119D01*
X36545247Y-93122713D01*
X37474647Y-92737743D01*
X37695416Y-92367022D01*
X36000000Y-90671605D01*
X35985858Y-90685748D01*
X35806252Y-90506142D01*
X35820395Y-90492000D01*
X36179605Y-90492000D01*
X37875022Y-92187416D01*
X38245743Y-91966647D01*
X38639119Y-90994988D01*
X38630713Y-89946753D01*
X38245743Y-89017353D01*
X37875022Y-88796584D01*
X36179605Y-90492000D01*
X35820395Y-90492000D01*
X34124978Y-88796584D01*
X33754257Y-89017353D01*
X33360881Y-89989012D01*
X33369287Y-91037247D01*
X33719789Y-91883433D01*
X32952414Y-91116058D01*
X33035000Y-90916678D01*
X33035000Y-90067322D01*
X32709966Y-89282620D01*
X32109380Y-88682034D01*
X31952321Y-88616978D01*
X34304584Y-88616978D01*
X36000000Y-90312395D01*
X37695416Y-88616978D01*
X37474647Y-88246257D01*
X36502988Y-87852881D01*
X35454753Y-87861287D01*
X34525353Y-88246257D01*
X34304584Y-88616978D01*
X31952321Y-88616978D01*
X31324678Y-88357000D01*
X30475322Y-88357000D01*
X29690620Y-88682034D01*
X29090034Y-89282620D01*
X28765000Y-90067322D01*
X28765000Y-90916678D01*
X29090034Y-91701380D01*
X29690620Y-92301966D01*
X30475322Y-92627000D01*
X31324678Y-92627000D01*
X31524058Y-92544414D01*
X32292742Y-93313098D01*
X31402988Y-92952881D01*
X30354753Y-92961287D01*
X29425353Y-93346257D01*
X29204584Y-93716978D01*
X30900000Y-95412395D01*
X30914142Y-95398252D01*
X31093748Y-95577858D01*
X31079605Y-95592000D01*
X31093748Y-95606142D01*
X30914142Y-95785748D01*
X30900000Y-95771605D01*
X29204584Y-97467022D01*
X29425353Y-97837743D01*
X30397012Y-98231119D01*
X31445247Y-98222713D01*
X32374647Y-97837743D01*
X32595415Y-97467023D01*
X32708166Y-97579774D01*
X32772001Y-97515939D01*
X32772000Y-108104529D01*
X32752214Y-108204000D01*
X32772000Y-108303471D01*
X32772000Y-108303475D01*
X32830601Y-108598081D01*
X32830602Y-108598082D01*
X32980267Y-108822072D01*
X33053831Y-108932169D01*
X33138163Y-108988518D01*
X35566001Y-111416357D01*
X35566000Y-131407644D01*
X33138161Y-133835484D01*
X33053832Y-133891831D01*
X32997485Y-133976160D01*
X32997482Y-133976163D01*
X32830602Y-134225918D01*
X32752214Y-134620000D01*
X32772001Y-134719476D01*
X32772000Y-143345644D01*
X30569645Y-145548000D01*
X26707355Y-145548000D01*
X16894000Y-135734645D01*
X16894000Y-125574750D01*
X18089000Y-125574750D01*
X18089000Y-125667309D01*
X18185673Y-125900698D01*
X18364301Y-126079327D01*
X18597690Y-126176000D01*
X18888250Y-126176000D01*
X19047000Y-126017250D01*
X19047000Y-125416000D01*
X19301000Y-125416000D01*
X19301000Y-126017250D01*
X19459750Y-126176000D01*
X19750310Y-126176000D01*
X19983699Y-126079327D01*
X20162327Y-125900698D01*
X20213668Y-125776750D01*
X21199000Y-125776750D01*
X21199000Y-125992310D01*
X21295673Y-126225699D01*
X21474302Y-126404327D01*
X21707691Y-126501000D01*
X21948250Y-126501000D01*
X22107000Y-126342250D01*
X22107000Y-125618000D01*
X21357750Y-125618000D01*
X21199000Y-125776750D01*
X20213668Y-125776750D01*
X20259000Y-125667309D01*
X20259000Y-125574750D01*
X20100250Y-125416000D01*
X19301000Y-125416000D01*
X19047000Y-125416000D01*
X18247750Y-125416000D01*
X18089000Y-125574750D01*
X16894000Y-125574750D01*
X16894000Y-124828702D01*
X17134000Y-124876440D01*
X17634000Y-124876440D01*
X17881765Y-124827157D01*
X17920911Y-124801000D01*
X18136092Y-124801000D01*
X18089000Y-124914691D01*
X18089000Y-125007250D01*
X18247750Y-125166000D01*
X19047000Y-125166000D01*
X19047000Y-125144000D01*
X19301000Y-125144000D01*
X19301000Y-125166000D01*
X20100250Y-125166000D01*
X20259000Y-125007250D01*
X20259000Y-124914691D01*
X20211908Y-124801000D01*
X21277158Y-124801000D01*
X21199000Y-124989690D01*
X21199000Y-125205250D01*
X21357750Y-125364000D01*
X22107000Y-125364000D01*
X22107000Y-125344000D01*
X22361000Y-125344000D01*
X22361000Y-125364000D01*
X22381000Y-125364000D01*
X22381000Y-125618000D01*
X22361000Y-125618000D01*
X22361000Y-126342250D01*
X22519750Y-126501000D01*
X22760309Y-126501000D01*
X22993698Y-126404327D01*
X22994898Y-126403127D01*
X23086235Y-126464157D01*
X23334000Y-126513440D01*
X23548085Y-126513440D01*
X24873000Y-127838356D01*
X24873000Y-128130439D01*
X25091466Y-128657862D01*
X25283604Y-128850000D01*
X24452176Y-128850000D01*
X24300999Y-128819929D01*
X24149822Y-128850000D01*
X24149818Y-128850000D01*
X23702073Y-128939062D01*
X23194327Y-129278327D01*
X23108689Y-129406493D01*
X21119493Y-131395690D01*
X20991328Y-131481327D01*
X20905691Y-131609492D01*
X20905690Y-131609493D01*
X20652063Y-131989073D01*
X20532929Y-132588000D01*
X20563001Y-132739182D01*
X20563000Y-134722822D01*
X20532929Y-134874000D01*
X20563000Y-135025177D01*
X20563000Y-135025181D01*
X20652062Y-135472926D01*
X20991327Y-135980673D01*
X21119495Y-136066312D01*
X27595985Y-142542802D01*
X27475000Y-142834887D01*
X27475000Y-143525113D01*
X27739138Y-144162799D01*
X28227201Y-144650862D01*
X28864887Y-144915000D01*
X29555113Y-144915000D01*
X30192799Y-144650862D01*
X30680862Y-144162799D01*
X30945000Y-143525113D01*
X30945000Y-142834887D01*
X30745000Y-142352044D01*
X30745000Y-142137182D01*
X30775072Y-141986000D01*
X30655938Y-141387072D01*
X30538556Y-141211399D01*
X30316673Y-140879327D01*
X30188505Y-140793688D01*
X24779817Y-135385000D01*
X25115113Y-135385000D01*
X25597956Y-135185000D01*
X26701823Y-135185000D01*
X26853000Y-135215071D01*
X27004177Y-135185000D01*
X27004182Y-135185000D01*
X27451927Y-135095938D01*
X27959673Y-134756673D01*
X28045312Y-134628505D01*
X32580311Y-130093507D01*
X32833938Y-129713927D01*
X32953072Y-129115000D01*
X32833938Y-128516073D01*
X32494673Y-128008327D01*
X32181946Y-127799369D01*
X32200862Y-127791534D01*
X32604534Y-127387862D01*
X32823000Y-126860439D01*
X32823000Y-126289561D01*
X32604534Y-125762138D01*
X32200862Y-125358466D01*
X32071784Y-125305000D01*
X32200862Y-125251534D01*
X32604534Y-124847862D01*
X32823000Y-124320439D01*
X32823000Y-123749561D01*
X32604534Y-123222138D01*
X32200862Y-122818466D01*
X32087417Y-122771475D01*
X32142005Y-122748864D01*
X32216139Y-122502745D01*
X31388000Y-121674605D01*
X30559861Y-122502745D01*
X30633995Y-122748864D01*
X30692448Y-122769874D01*
X30575138Y-122818466D01*
X30171466Y-123222138D01*
X29953000Y-123749561D01*
X29953000Y-124320439D01*
X30171466Y-124847862D01*
X30575138Y-125251534D01*
X30704216Y-125305000D01*
X30575138Y-125358466D01*
X30402480Y-125531125D01*
X29532517Y-124661162D01*
X29476169Y-124576831D01*
X29142082Y-124353601D01*
X28847476Y-124295000D01*
X28847471Y-124295000D01*
X28748000Y-124275214D01*
X28648529Y-124295000D01*
X27327396Y-124295000D01*
X27120862Y-124088466D01*
X27007417Y-124041475D01*
X27062005Y-124018864D01*
X27136139Y-123772745D01*
X26308000Y-122944605D01*
X26293858Y-122958748D01*
X26114253Y-122779143D01*
X26128395Y-122765000D01*
X26487605Y-122765000D01*
X27315745Y-123593139D01*
X27561864Y-123519005D01*
X27754965Y-122981777D01*
X27727778Y-122411546D01*
X27561864Y-122010995D01*
X27315745Y-121936861D01*
X26487605Y-122765000D01*
X26128395Y-122765000D01*
X25300255Y-121936861D01*
X25054136Y-122010995D01*
X24861035Y-122548223D01*
X24872155Y-122781449D01*
X24791976Y-122765500D01*
X24791971Y-122765500D01*
X24692500Y-122745714D01*
X24593029Y-122765500D01*
X24196541Y-122765500D01*
X24134000Y-122753060D01*
X23334000Y-122753060D01*
X23086235Y-122802343D01*
X22984000Y-122870655D01*
X22881765Y-122802343D01*
X22634000Y-122753060D01*
X22270930Y-122753060D01*
X22233999Y-122745714D01*
X22197068Y-122753060D01*
X21834000Y-122753060D01*
X21693535Y-122781000D01*
X19345801Y-122781000D01*
X19186000Y-122749214D01*
X19026199Y-122781000D01*
X17956830Y-122781000D01*
X17881765Y-122730843D01*
X17634000Y-122681560D01*
X17134000Y-122681560D01*
X16886235Y-122730843D01*
X16676191Y-122871191D01*
X16634000Y-122934334D01*
X16591809Y-122871191D01*
X16381765Y-122730843D01*
X16134000Y-122681560D01*
X15842597Y-122681560D01*
X16073158Y-122451000D01*
X20296688Y-122451000D01*
X20374000Y-122466378D01*
X20451312Y-122451000D01*
X20451316Y-122451000D01*
X20680292Y-122405454D01*
X20939953Y-122231953D01*
X20983749Y-122166408D01*
X21340159Y-121809999D01*
X24595689Y-121809999D01*
X24673001Y-121825377D01*
X24750313Y-121809999D01*
X24750317Y-121809999D01*
X24979293Y-121764453D01*
X25238954Y-121590952D01*
X25282750Y-121525407D01*
X25430881Y-121377277D01*
X25495138Y-121441534D01*
X25608583Y-121488525D01*
X25553995Y-121511136D01*
X25479861Y-121757255D01*
X26308000Y-122585395D01*
X27136139Y-121757255D01*
X27062005Y-121511136D01*
X27003552Y-121490126D01*
X27120862Y-121441534D01*
X27284173Y-121278223D01*
X29941035Y-121278223D01*
X29968222Y-121848454D01*
X30134136Y-122249005D01*
X30380255Y-122323139D01*
X31208395Y-121495000D01*
X31567605Y-121495000D01*
X32395745Y-122323139D01*
X32641864Y-122249005D01*
X32834965Y-121711777D01*
X32807778Y-121141546D01*
X32641864Y-120740995D01*
X32395745Y-120666861D01*
X31567605Y-121495000D01*
X31208395Y-121495000D01*
X30380255Y-120666861D01*
X30134136Y-120740995D01*
X29941035Y-121278223D01*
X27284173Y-121278223D01*
X27524534Y-121037862D01*
X27743000Y-120510439D01*
X27743000Y-119939561D01*
X27660339Y-119740000D01*
X30159925Y-119740000D01*
X30171466Y-119767862D01*
X30575138Y-120171534D01*
X30688583Y-120218525D01*
X30633995Y-120241136D01*
X30559861Y-120487255D01*
X31388000Y-121315395D01*
X32216139Y-120487255D01*
X32142005Y-120241136D01*
X32083552Y-120220126D01*
X32200862Y-120171534D01*
X32604534Y-119767862D01*
X32823000Y-119240439D01*
X32823000Y-118669561D01*
X32604534Y-118142138D01*
X32200862Y-117738466D01*
X32071784Y-117685000D01*
X32200862Y-117631534D01*
X32604534Y-117227862D01*
X32823000Y-116700439D01*
X32823000Y-116129561D01*
X32604534Y-115602138D01*
X32200862Y-115198466D01*
X32181944Y-115190630D01*
X32494672Y-114981672D01*
X32833937Y-114473926D01*
X32953071Y-113874999D01*
X32833937Y-113276072D01*
X32580310Y-112896492D01*
X26305000Y-106621183D01*
X26305000Y-105478251D01*
X26325327Y-105508673D01*
X26453495Y-105594312D01*
X27539137Y-106679954D01*
X27739138Y-107162799D01*
X28227201Y-107650862D01*
X28864887Y-107915000D01*
X29555113Y-107915000D01*
X30192799Y-107650862D01*
X30680862Y-107162799D01*
X30945000Y-106525113D01*
X30945000Y-105834887D01*
X30680862Y-105197201D01*
X30192799Y-104709138D01*
X29709954Y-104509137D01*
X28967000Y-103766183D01*
X28967000Y-97252889D01*
X29024978Y-97287416D01*
X30720395Y-95592000D01*
X29024978Y-93896584D01*
X28654257Y-94117353D01*
X28540066Y-94399411D01*
X28538673Y-94397327D01*
X28410507Y-94311689D01*
X27100312Y-93001495D01*
X27014673Y-92873327D01*
X26506927Y-92534062D01*
X26059182Y-92445000D01*
X26059177Y-92445000D01*
X25908000Y-92414929D01*
X25756823Y-92445000D01*
X23773176Y-92445000D01*
X23621999Y-92414929D01*
X23470822Y-92445000D01*
X23470818Y-92445000D01*
X23023073Y-92534062D01*
X22515327Y-92873327D01*
X22429689Y-93001493D01*
X21119495Y-94311688D01*
X20991327Y-94397327D01*
X20652062Y-94905074D01*
X20563000Y-95352819D01*
X20563000Y-95352823D01*
X20532929Y-95504000D01*
X20563000Y-95655177D01*
X20563001Y-107798813D01*
X20563000Y-107798818D01*
X20563000Y-108243823D01*
X20532929Y-108395000D01*
X20563000Y-108546177D01*
X20563000Y-108546181D01*
X20652062Y-108993926D01*
X20991327Y-109501673D01*
X21119495Y-109587312D01*
X24062742Y-112530560D01*
X23334000Y-112530560D01*
X23086235Y-112579843D01*
X22994898Y-112640873D01*
X22993698Y-112639673D01*
X22760309Y-112543000D01*
X22519750Y-112543000D01*
X22361000Y-112701750D01*
X22361000Y-113426000D01*
X22381000Y-113426000D01*
X22381000Y-113680000D01*
X22361000Y-113680000D01*
X22361000Y-113700000D01*
X22107000Y-113700000D01*
X22107000Y-113680000D01*
X21357750Y-113680000D01*
X21199000Y-113838750D01*
X21199000Y-114054310D01*
X21231595Y-114133000D01*
X20206937Y-114133000D01*
X20259000Y-114007309D01*
X20259000Y-113914750D01*
X20100250Y-113756000D01*
X19301000Y-113756000D01*
X19301000Y-113778000D01*
X19047000Y-113778000D01*
X19047000Y-113756000D01*
X18247750Y-113756000D01*
X18089000Y-113914750D01*
X18089000Y-114007309D01*
X18136092Y-114121000D01*
X17920911Y-114121000D01*
X17881765Y-114094843D01*
X17634000Y-114045560D01*
X17134000Y-114045560D01*
X16894000Y-114093298D01*
X16894000Y-113254691D01*
X18089000Y-113254691D01*
X18089000Y-113347250D01*
X18247750Y-113506000D01*
X19047000Y-113506000D01*
X19047000Y-112904750D01*
X19301000Y-112904750D01*
X19301000Y-113506000D01*
X20100250Y-113506000D01*
X20259000Y-113347250D01*
X20259000Y-113254691D01*
X20174915Y-113051690D01*
X21199000Y-113051690D01*
X21199000Y-113267250D01*
X21357750Y-113426000D01*
X22107000Y-113426000D01*
X22107000Y-112701750D01*
X21948250Y-112543000D01*
X21707691Y-112543000D01*
X21474302Y-112639673D01*
X21295673Y-112818301D01*
X21199000Y-113051690D01*
X20174915Y-113051690D01*
X20162327Y-113021302D01*
X19983699Y-112842673D01*
X19750310Y-112746000D01*
X19459750Y-112746000D01*
X19301000Y-112904750D01*
X19047000Y-112904750D01*
X18888250Y-112746000D01*
X18597690Y-112746000D01*
X18364301Y-112842673D01*
X18185673Y-113021302D01*
X18089000Y-113254691D01*
X16894000Y-113254691D01*
X16894000Y-112804355D01*
X19693837Y-110004518D01*
X19778169Y-109948169D01*
X20001399Y-109614082D01*
X20060000Y-109319476D01*
X20060000Y-109319472D01*
X20079786Y-109220001D01*
X20060000Y-109120530D01*
X20060000Y-94144355D01*
X22516356Y-91688000D01*
X23522529Y-91688000D01*
X23622000Y-91707786D01*
X23721471Y-91688000D01*
X23721476Y-91688000D01*
X24016082Y-91629399D01*
X24350169Y-91406169D01*
X24406518Y-91321837D01*
X27821837Y-87906518D01*
X27906169Y-87850169D01*
X28129399Y-87516082D01*
X28178940Y-87267022D01*
X29204584Y-87267022D01*
X29425353Y-87637743D01*
X30397012Y-88031119D01*
X31445247Y-88022713D01*
X32374647Y-87637743D01*
X32595416Y-87267022D01*
X30900000Y-85571605D01*
X29204584Y-87267022D01*
X28178940Y-87267022D01*
X28188000Y-87221476D01*
X28188000Y-87221472D01*
X28207786Y-87122001D01*
X28188000Y-87022530D01*
X28188000Y-84889012D01*
X28260881Y-84889012D01*
X28269287Y-85937247D01*
X28654257Y-86866647D01*
X29024978Y-87087416D01*
X30720395Y-85392000D01*
X31079605Y-85392000D01*
X32775022Y-87087416D01*
X33145743Y-86866647D01*
X33539119Y-85894988D01*
X33530713Y-84846753D01*
X33145743Y-83917353D01*
X32775022Y-83696584D01*
X31079605Y-85392000D01*
X30720395Y-85392000D01*
X29024978Y-83696584D01*
X28654257Y-83917353D01*
X28260881Y-84889012D01*
X28188000Y-84889012D01*
X28188000Y-82467022D01*
X29204584Y-82467022D01*
X29425353Y-82837743D01*
X29802020Y-82990237D01*
X29425353Y-83146257D01*
X29204584Y-83516978D01*
X30900000Y-85212395D01*
X32595416Y-83516978D01*
X32374647Y-83146257D01*
X31997980Y-82993763D01*
X32374647Y-82837743D01*
X32595416Y-82467022D01*
X30900000Y-80771605D01*
X29204584Y-82467022D01*
X28188000Y-82467022D01*
X28188000Y-79632355D01*
X28621098Y-79199257D01*
X28260881Y-80089012D01*
X28269287Y-81137247D01*
X28654257Y-82066647D01*
X29024978Y-82287416D01*
X30720395Y-80592000D01*
X31079605Y-80592000D01*
X32775022Y-82287416D01*
X33145743Y-82066647D01*
X33539119Y-81094988D01*
X33530713Y-80046753D01*
X33145743Y-79117353D01*
X32775022Y-78896584D01*
X31079605Y-80592000D01*
X30720395Y-80592000D01*
X30706252Y-80577858D01*
X30885858Y-80398252D01*
X30900000Y-80412395D01*
X32595416Y-78716978D01*
X32374647Y-78346257D01*
X31402988Y-77952881D01*
X30354753Y-77961287D01*
X29508567Y-78311789D01*
X30275942Y-77544414D01*
X30475322Y-77627000D01*
X31324678Y-77627000D01*
X31952320Y-77367022D01*
X34304584Y-77367022D01*
X34525353Y-77737743D01*
X35497012Y-78131119D01*
X36545247Y-78122713D01*
X37474647Y-77737743D01*
X37695416Y-77367022D01*
X36000000Y-75671605D01*
X34304584Y-77367022D01*
X31952320Y-77367022D01*
X32109380Y-77301966D01*
X32709966Y-76701380D01*
X33035000Y-75916678D01*
X33035000Y-75067322D01*
X33002563Y-74989012D01*
X33360881Y-74989012D01*
X33369287Y-76037247D01*
X33754257Y-76966647D01*
X34124978Y-77187416D01*
X35820395Y-75492000D01*
X36179605Y-75492000D01*
X37875022Y-77187416D01*
X38245743Y-76966647D01*
X38639119Y-75994988D01*
X38630713Y-74946753D01*
X38245743Y-74017353D01*
X37875022Y-73796584D01*
X36179605Y-75492000D01*
X35820395Y-75492000D01*
X34124978Y-73796584D01*
X33754257Y-74017353D01*
X33360881Y-74989012D01*
X33002563Y-74989012D01*
X32709966Y-74282620D01*
X32109380Y-73682034D01*
X31952321Y-73616978D01*
X34304584Y-73616978D01*
X36000000Y-75312395D01*
X37695416Y-73616978D01*
X37474647Y-73246257D01*
X36502988Y-72852881D01*
X35454753Y-72861287D01*
X34525353Y-73246257D01*
X34304584Y-73616978D01*
X31952321Y-73616978D01*
X31324678Y-73357000D01*
X30475322Y-73357000D01*
X29690620Y-73682034D01*
X29090034Y-74282620D01*
X28765000Y-75067322D01*
X28765000Y-75916678D01*
X28847586Y-76116058D01*
X26534163Y-78429482D01*
X26449831Y-78485831D01*
X26226601Y-78819919D01*
X26168000Y-79114525D01*
X26168000Y-79114529D01*
X26148214Y-79214000D01*
X26168000Y-79313471D01*
X26168001Y-86703644D01*
X23203645Y-89668000D01*
X22197471Y-89668000D01*
X22098000Y-89648214D01*
X21998529Y-89668000D01*
X21998524Y-89668000D01*
X21703918Y-89726601D01*
X21629105Y-89776589D01*
X21454162Y-89893482D01*
X21454160Y-89893484D01*
X21369831Y-89949831D01*
X21313484Y-90034160D01*
X18406163Y-92941482D01*
X18321831Y-92997831D01*
X18098601Y-93331919D01*
X18040000Y-93626525D01*
X18040000Y-93626529D01*
X18020214Y-93726000D01*
X18040000Y-93825471D01*
X18040001Y-108801644D01*
X15240161Y-111601484D01*
X15155832Y-111657831D01*
X15099485Y-111742160D01*
X15099482Y-111742163D01*
X14932602Y-111991918D01*
X14854214Y-112386000D01*
X14874001Y-112485475D01*
X14874000Y-115242475D01*
X14932601Y-115537081D01*
X14993594Y-115628364D01*
X15035843Y-115840765D01*
X15176191Y-116050809D01*
X15386235Y-116191157D01*
X15634000Y-116240440D01*
X16134000Y-116240440D01*
X16381765Y-116191157D01*
X16591809Y-116050809D01*
X16634000Y-115987666D01*
X16676191Y-116050809D01*
X16886235Y-116191157D01*
X17134000Y-116240440D01*
X17634000Y-116240440D01*
X17881765Y-116191157D01*
X17956830Y-116141000D01*
X19026196Y-116141000D01*
X19086524Y-116153000D01*
X19086528Y-116153000D01*
X19186000Y-116172786D01*
X19285472Y-116153000D01*
X21759459Y-116153000D01*
X21822000Y-116165440D01*
X21981758Y-116165440D01*
X19920862Y-118226337D01*
X19813698Y-118119173D01*
X19580309Y-118022500D01*
X17989750Y-118022500D01*
X17831000Y-118181250D01*
X17831000Y-119330500D01*
X17851000Y-119330500D01*
X17851000Y-119584500D01*
X17831000Y-119584500D01*
X17831000Y-119604500D01*
X17577000Y-119604500D01*
X17577000Y-119584500D01*
X15477750Y-119584500D01*
X15319000Y-119743250D01*
X15319000Y-120156000D01*
X14799700Y-120156000D01*
X14667765Y-120067843D01*
X14420000Y-120018560D01*
X13520000Y-120018560D01*
X13272235Y-120067843D01*
X13062191Y-120208191D01*
X12921843Y-120418235D01*
X12872560Y-120666000D01*
X12872560Y-121166000D01*
X12921843Y-121413765D01*
X13062191Y-121623809D01*
X13072953Y-121631000D01*
X11607440Y-121631000D01*
X11607440Y-120080000D01*
X11558157Y-119832235D01*
X11417809Y-119622191D01*
X11207765Y-119481843D01*
X10960000Y-119432560D01*
X9360000Y-119432560D01*
X9112235Y-119481843D01*
X8902191Y-119622191D01*
X8761843Y-119832235D01*
X8712560Y-120080000D01*
X735000Y-120080000D01*
X735000Y-117465750D01*
X8725000Y-117465750D01*
X8725000Y-118806309D01*
X8821673Y-119039698D01*
X9000301Y-119218327D01*
X9233690Y-119315000D01*
X9874250Y-119315000D01*
X10033000Y-119156250D01*
X10033000Y-117307000D01*
X10287000Y-117307000D01*
X10287000Y-119156250D01*
X10445750Y-119315000D01*
X11086310Y-119315000D01*
X11319699Y-119218327D01*
X11498327Y-119039698D01*
X11595000Y-118806309D01*
X11595000Y-118531190D01*
X15319000Y-118531190D01*
X15319000Y-119171750D01*
X15477750Y-119330500D01*
X17577000Y-119330500D01*
X17577000Y-118181250D01*
X17418250Y-118022500D01*
X15827691Y-118022500D01*
X15594302Y-118119173D01*
X15415673Y-118297801D01*
X15319000Y-118531190D01*
X11595000Y-118531190D01*
X11595000Y-117465750D01*
X11436250Y-117307000D01*
X10287000Y-117307000D01*
X10033000Y-117307000D01*
X8883750Y-117307000D01*
X8725000Y-117465750D01*
X735000Y-117465750D01*
X735000Y-115553691D01*
X8725000Y-115553691D01*
X8725000Y-116894250D01*
X8883750Y-117053000D01*
X10033000Y-117053000D01*
X10033000Y-115203750D01*
X10287000Y-115203750D01*
X10287000Y-117053000D01*
X11436250Y-117053000D01*
X11595000Y-116894250D01*
X11595000Y-115553691D01*
X11498327Y-115320302D01*
X11319699Y-115141673D01*
X11086310Y-115045000D01*
X10445750Y-115045000D01*
X10287000Y-115203750D01*
X10033000Y-115203750D01*
X9874250Y-115045000D01*
X9233690Y-115045000D01*
X9000301Y-115141673D01*
X8821673Y-115320302D01*
X8725000Y-115553691D01*
X735000Y-115553691D01*
X735000Y-83185000D01*
X9144000Y-83185000D01*
X9192601Y-83175333D01*
X9233803Y-83147803D01*
X9804431Y-82577175D01*
X15382430Y-82577175D01*
X15505565Y-82864788D01*
X16187734Y-83124707D01*
X16917443Y-83103786D01*
X17494435Y-82864788D01*
X17617570Y-82577175D01*
X16500000Y-81459605D01*
X15382430Y-82577175D01*
X9804431Y-82577175D01*
X11413872Y-80967734D01*
X14655293Y-80967734D01*
X14676214Y-81697443D01*
X14915212Y-82274435D01*
X15202825Y-82397570D01*
X16320395Y-81280000D01*
X16679605Y-81280000D01*
X17797175Y-82397570D01*
X18084788Y-82274435D01*
X18344707Y-81592266D01*
X18323786Y-80862557D01*
X18084788Y-80285565D01*
X17797175Y-80162430D01*
X16679605Y-81280000D01*
X16320395Y-81280000D01*
X15202825Y-80162430D01*
X14915212Y-80285565D01*
X14655293Y-80967734D01*
X11413872Y-80967734D01*
X12398781Y-79982825D01*
X15382430Y-79982825D01*
X16500000Y-81100395D01*
X17617570Y-79982825D01*
X17494435Y-79695212D01*
X16812266Y-79435293D01*
X16082557Y-79456214D01*
X15505565Y-79695212D01*
X15382430Y-79982825D01*
X12398781Y-79982825D01*
X17107803Y-75273803D01*
X17135333Y-75232601D01*
X17145000Y-75184000D01*
X17145000Y-66802000D01*
X17135333Y-66753399D01*
X17107803Y-66712197D01*
X8255000Y-57859394D01*
X8255000Y-54578450D01*
X20240500Y-54578450D01*
X20240500Y-55669009D01*
X20337173Y-55902398D01*
X20515801Y-56081027D01*
X20749190Y-56177700D01*
X21489750Y-56177700D01*
X21648500Y-56018950D01*
X21648500Y-54419700D01*
X21902500Y-54419700D01*
X21902500Y-56018950D01*
X22061250Y-56177700D01*
X22801810Y-56177700D01*
X23035199Y-56081027D01*
X23213827Y-55902398D01*
X23310500Y-55669009D01*
X23310500Y-54578450D01*
X23151750Y-54419700D01*
X21902500Y-54419700D01*
X21648500Y-54419700D01*
X20399250Y-54419700D01*
X20240500Y-54578450D01*
X8255000Y-54578450D01*
X8255000Y-52916391D01*
X20240500Y-52916391D01*
X20240500Y-54006950D01*
X20399250Y-54165700D01*
X21648500Y-54165700D01*
X21648500Y-52566450D01*
X21902500Y-52566450D01*
X21902500Y-54165700D01*
X23151750Y-54165700D01*
X23310500Y-54006950D01*
X23310500Y-52916391D01*
X23213827Y-52683002D01*
X23035199Y-52504373D01*
X22801810Y-52407700D01*
X22061250Y-52407700D01*
X21902500Y-52566450D01*
X21648500Y-52566450D01*
X21489750Y-52407700D01*
X20749190Y-52407700D01*
X20515801Y-52504373D01*
X20337173Y-52683002D01*
X20240500Y-52916391D01*
X8255000Y-52916391D01*
X8255000Y-42654887D01*
X11075000Y-42654887D01*
X11075000Y-43345113D01*
X11339138Y-43982799D01*
X11827201Y-44470862D01*
X12464887Y-44735000D01*
X13155113Y-44735000D01*
X13792799Y-44470862D01*
X14280862Y-43982799D01*
X14545000Y-43345113D01*
X14545000Y-42654887D01*
X14280862Y-42017201D01*
X13792799Y-41529138D01*
X13155113Y-41265000D01*
X12464887Y-41265000D01*
X11827201Y-41529138D01*
X11339138Y-42017201D01*
X11075000Y-42654887D01*
X8255000Y-42654887D01*
X8255000Y-41169391D01*
X20240500Y-41169391D01*
X20240500Y-42259950D01*
X20399250Y-42418700D01*
X21648500Y-42418700D01*
X21648500Y-40819450D01*
X21902500Y-40819450D01*
X21902500Y-42418700D01*
X23151750Y-42418700D01*
X23310500Y-42259950D01*
X23310500Y-41169391D01*
X23213827Y-40936002D01*
X23035199Y-40757373D01*
X22801810Y-40660700D01*
X22061250Y-40660700D01*
X21902500Y-40819450D01*
X21648500Y-40819450D01*
X21489750Y-40660700D01*
X20749190Y-40660700D01*
X20515801Y-40757373D01*
X20337173Y-40936002D01*
X20240500Y-41169391D01*
X8255000Y-41169391D01*
X8255000Y-40946606D01*
X8617012Y-40584594D01*
X8714561Y-40625000D01*
X9285439Y-40625000D01*
X9812862Y-40406534D01*
X9960396Y-40259000D01*
X16238365Y-40259000D01*
X16249586Y-40286090D01*
X16793910Y-40830414D01*
X17505105Y-41125000D01*
X18274895Y-41125000D01*
X18986090Y-40830414D01*
X19530414Y-40286090D01*
X19672470Y-39943136D01*
X20626606Y-38989000D01*
X25521046Y-38989000D01*
X25518560Y-39001500D01*
X25518560Y-39001500D01*
G37*
X25518560Y-39001500D02*
X25518560Y-39901500D01*
X25567843Y-40149265D01*
X25708191Y-40359309D01*
X25832964Y-40442680D01*
X25627384Y-40648260D01*
X24558500Y-40648260D01*
X24310735Y-40697543D01*
X24100691Y-40837891D01*
X23960343Y-41047935D01*
X23911060Y-41295700D01*
X23911060Y-43795700D01*
X23960343Y-44043465D01*
X24100691Y-44253509D01*
X24310735Y-44393857D01*
X24558500Y-44443140D01*
X26358500Y-44443140D01*
X26606265Y-44393857D01*
X26816309Y-44253509D01*
X26956657Y-44043465D01*
X27005940Y-43795700D01*
X27005940Y-42126416D01*
X27050356Y-42082000D01*
X27063760Y-42082000D01*
X27063760Y-42339100D01*
X27113043Y-42586865D01*
X27171332Y-42674100D01*
X27113043Y-42761335D01*
X27063760Y-43009100D01*
X27063760Y-43609100D01*
X27113043Y-43856865D01*
X27171332Y-43944100D01*
X27113043Y-44031335D01*
X27063760Y-44279100D01*
X27063760Y-44839100D01*
X26817117Y-44839100D01*
X26816309Y-44837891D01*
X26606265Y-44697543D01*
X26358500Y-44648260D01*
X24558500Y-44648260D01*
X24310735Y-44697543D01*
X24100691Y-44837891D01*
X23960343Y-45047935D01*
X23911060Y-45295700D01*
X23911060Y-45535700D01*
X23322940Y-45535700D01*
X23322940Y-45295700D01*
X23273657Y-45047935D01*
X23133309Y-44837891D01*
X22923265Y-44697543D01*
X22675500Y-44648260D01*
X21306415Y-44648260D01*
X21088855Y-44430700D01*
X21489750Y-44430700D01*
X21648500Y-44271950D01*
X21648500Y-42672700D01*
X21902500Y-42672700D01*
X21902500Y-44271950D01*
X22061250Y-44430700D01*
X22801810Y-44430700D01*
X23035199Y-44334027D01*
X23213827Y-44155398D01*
X23310500Y-43922009D01*
X23310500Y-42831450D01*
X23151750Y-42672700D01*
X21902500Y-42672700D01*
X21648500Y-42672700D01*
X20399250Y-42672700D01*
X20240500Y-42831450D01*
X20240500Y-43582345D01*
X19625000Y-42966845D01*
X19625000Y-42654887D01*
X19360862Y-42017201D01*
X18872799Y-41529138D01*
X18235113Y-41265000D01*
X17544887Y-41265000D01*
X16907201Y-41529138D01*
X16419138Y-42017201D01*
X16155000Y-42654887D01*
X16155000Y-43345113D01*
X16419138Y-43982799D01*
X16907201Y-44470862D01*
X17544887Y-44735000D01*
X18235113Y-44735000D01*
X18448187Y-44646742D01*
X18960383Y-45158938D01*
X18274895Y-44875000D01*
X17505105Y-44875000D01*
X16793910Y-45169586D01*
X16249586Y-45713910D01*
X15955000Y-46425105D01*
X15955000Y-47194895D01*
X16249586Y-47906090D01*
X16793910Y-48450414D01*
X17505105Y-48745000D01*
X18274895Y-48745000D01*
X18645808Y-48591363D01*
X20228060Y-50173616D01*
X20228060Y-51542700D01*
X20277343Y-51790465D01*
X20417691Y-52000509D01*
X20627735Y-52140857D01*
X20875500Y-52190140D01*
X22675500Y-52190140D01*
X22923265Y-52140857D01*
X23133309Y-52000509D01*
X23273657Y-51790465D01*
X23322940Y-51542700D01*
X23322940Y-51302700D01*
X23911060Y-51302700D01*
X23911060Y-51542700D01*
X23960343Y-51790465D01*
X24100691Y-52000509D01*
X24310735Y-52140857D01*
X24558500Y-52190140D01*
X26358500Y-52190140D01*
X26606265Y-52140857D01*
X26816309Y-52000509D01*
X26857341Y-51939100D01*
X27063760Y-51939100D01*
X27063760Y-52499100D01*
X27113043Y-52746865D01*
X27171332Y-52834100D01*
X27113043Y-52921335D01*
X27063760Y-53169100D01*
X27063760Y-53769100D01*
X27113043Y-54016865D01*
X27253391Y-54226909D01*
X27463435Y-54367257D01*
X27711200Y-54416540D01*
X29261200Y-54416540D01*
X29508965Y-54367257D01*
X29719009Y-54226909D01*
X29859357Y-54016865D01*
X29908640Y-53769100D01*
X29908640Y-53169100D01*
X29859357Y-52921335D01*
X29801068Y-52834100D01*
X29859357Y-52746865D01*
X29908640Y-52499100D01*
X29908640Y-51899100D01*
X29859357Y-51651335D01*
X29801068Y-51564100D01*
X29859357Y-51476865D01*
X29908640Y-51229100D01*
X29908640Y-50629100D01*
X29859749Y-50383304D01*
X29990000Y-50513556D01*
X29990001Y-51456118D01*
X29918714Y-51814500D01*
X29938501Y-51913975D01*
X29938500Y-55471475D01*
X29938501Y-55471480D01*
X29938500Y-57666145D01*
X29705522Y-57899123D01*
X29562787Y-57840000D01*
X28753213Y-57840000D01*
X28610478Y-57899123D01*
X26753699Y-56042344D01*
X26816309Y-56000509D01*
X26956657Y-55790465D01*
X27005940Y-55542700D01*
X27005940Y-53042700D01*
X26956657Y-52794935D01*
X26816309Y-52584891D01*
X26606265Y-52444543D01*
X26358500Y-52395260D01*
X24558500Y-52395260D01*
X24310735Y-52444543D01*
X24100691Y-52584891D01*
X23960343Y-52794935D01*
X23911060Y-53042700D01*
X23911060Y-55542700D01*
X23960343Y-55790465D01*
X24100691Y-56000509D01*
X24310735Y-56140857D01*
X24430852Y-56164750D01*
X24428714Y-56175500D01*
X24448500Y-56274971D01*
X24448500Y-56274975D01*
X24507101Y-56569581D01*
X24730331Y-56903669D01*
X24814663Y-56960018D01*
X27182123Y-59327478D01*
X27123000Y-59470213D01*
X27123000Y-60279787D01*
X27432810Y-61027735D01*
X27623000Y-61217925D01*
X27623001Y-62732074D01*
X27432810Y-62922265D01*
X27123000Y-63670213D01*
X27123000Y-64479787D01*
X27432810Y-65227735D01*
X27623000Y-65417925D01*
X27623000Y-65725182D01*
X23021493Y-70326690D01*
X22893328Y-70412327D01*
X22807691Y-70540492D01*
X22807690Y-70540493D01*
X22554063Y-70920073D01*
X22434929Y-71519000D01*
X22465001Y-71670182D01*
X22465000Y-79540132D01*
X22342191Y-79622191D01*
X22201843Y-79832235D01*
X22152560Y-80080000D01*
X22152560Y-82480000D01*
X22201843Y-82727765D01*
X22342191Y-82937809D01*
X22552235Y-83078157D01*
X22800000Y-83127440D01*
X25200000Y-83127440D01*
X25447765Y-83078157D01*
X25657809Y-82937809D01*
X25798157Y-82727765D01*
X25847440Y-82480000D01*
X25847440Y-80080000D01*
X25798157Y-79832235D01*
X25657809Y-79622191D01*
X25535000Y-79540132D01*
X25535000Y-72267022D01*
X29204584Y-72267022D01*
X29425353Y-72637743D01*
X30397012Y-73031119D01*
X31445247Y-73022713D01*
X32374647Y-72637743D01*
X32595416Y-72267022D01*
X30900000Y-70571605D01*
X29204584Y-72267022D01*
X25535000Y-72267022D01*
X25535000Y-72154817D01*
X28573846Y-69115971D01*
X28260881Y-69889012D01*
X28269287Y-70937247D01*
X28654257Y-71866647D01*
X29024978Y-72087416D01*
X30720395Y-70392000D01*
X31079605Y-70392000D01*
X32775022Y-72087416D01*
X33145743Y-71866647D01*
X33539119Y-70894988D01*
X33530713Y-69846753D01*
X33145743Y-68917353D01*
X32775022Y-68696584D01*
X31079605Y-70392000D01*
X30720395Y-70392000D01*
X30706252Y-70377858D01*
X30885858Y-70198252D01*
X30900000Y-70212395D01*
X32595416Y-68516978D01*
X32374647Y-68146257D01*
X31402988Y-67752881D01*
X30354753Y-67761287D01*
X29627146Y-68062671D01*
X30136508Y-67553310D01*
X30264673Y-67467673D01*
X30370028Y-67309999D01*
X30603938Y-66959927D01*
X30723072Y-66361000D01*
X30693000Y-66209818D01*
X30693000Y-65516724D01*
X33395882Y-65516724D01*
X33543455Y-65825106D01*
X34298031Y-66118405D01*
X35107409Y-66100614D01*
X35772545Y-65825106D01*
X35920118Y-65516724D01*
X34658000Y-64254605D01*
X33395882Y-65516724D01*
X30693000Y-65516724D01*
X30693000Y-65417925D01*
X30883190Y-65227735D01*
X31193000Y-64479787D01*
X31193000Y-63715031D01*
X32614595Y-63715031D01*
X32632386Y-64524409D01*
X32907894Y-65189545D01*
X33216276Y-65337118D01*
X34478395Y-64075000D01*
X34837605Y-64075000D01*
X36099724Y-65337118D01*
X36408106Y-65189545D01*
X36701405Y-64434969D01*
X36683614Y-63625591D01*
X36408106Y-62960455D01*
X36099724Y-62812882D01*
X34837605Y-64075000D01*
X34478395Y-64075000D01*
X33216276Y-62812882D01*
X32907894Y-62960455D01*
X32614595Y-63715031D01*
X31193000Y-63715031D01*
X31193000Y-63670213D01*
X30883190Y-62922265D01*
X30693000Y-62732075D01*
X30693000Y-62633276D01*
X33395882Y-62633276D01*
X34658000Y-63895395D01*
X35920118Y-62633276D01*
X35772545Y-62324894D01*
X35017969Y-62031595D01*
X34208591Y-62049386D01*
X33543455Y-62324894D01*
X33395882Y-62633276D01*
X30693000Y-62633276D01*
X30693000Y-61217925D01*
X30883190Y-61027735D01*
X31193000Y-60279787D01*
X31193000Y-60160750D01*
X32623000Y-60160750D01*
X32623000Y-61401309D01*
X32719673Y-61634698D01*
X32898301Y-61813327D01*
X33131690Y-61910000D01*
X34372250Y-61910000D01*
X34531000Y-61751250D01*
X34531000Y-60002000D01*
X34785000Y-60002000D01*
X34785000Y-61751250D01*
X34943750Y-61910000D01*
X36184310Y-61910000D01*
X36417699Y-61813327D01*
X36596327Y-61634698D01*
X36693000Y-61401309D01*
X36693000Y-60160750D01*
X36534250Y-60002000D01*
X34785000Y-60002000D01*
X34531000Y-60002000D01*
X32781750Y-60002000D01*
X32623000Y-60160750D01*
X31193000Y-60160750D01*
X31193000Y-59470213D01*
X31133877Y-59327478D01*
X31592338Y-58869017D01*
X31676669Y-58812669D01*
X31899899Y-58478582D01*
X31925736Y-58348691D01*
X32623000Y-58348691D01*
X32623000Y-59589250D01*
X32781750Y-59748000D01*
X34531000Y-59748000D01*
X34531000Y-57998750D01*
X34785000Y-57998750D01*
X34785000Y-59748000D01*
X36534250Y-59748000D01*
X36693000Y-59589250D01*
X36693000Y-58348691D01*
X36596327Y-58115302D01*
X36417699Y-57936673D01*
X36184310Y-57840000D01*
X34943750Y-57840000D01*
X34785000Y-57998750D01*
X34531000Y-57998750D01*
X34372250Y-57840000D01*
X33131690Y-57840000D01*
X32898301Y-57936673D01*
X32719673Y-58115302D01*
X32623000Y-58348691D01*
X31925736Y-58348691D01*
X31958500Y-58183976D01*
X31958500Y-58183972D01*
X31978286Y-58084501D01*
X31958500Y-57985030D01*
X31958500Y-56469440D01*
X32012000Y-56469440D01*
X32259765Y-56420157D01*
X32469809Y-56279809D01*
X32512000Y-56216666D01*
X32554191Y-56279809D01*
X32764235Y-56420157D01*
X33012000Y-56469440D01*
X33512000Y-56469440D01*
X33759765Y-56420157D01*
X33942361Y-56298150D01*
X34112235Y-56411657D01*
X34360000Y-56460940D01*
X35160000Y-56460940D01*
X35407765Y-56411657D01*
X35559047Y-56310573D01*
X35600302Y-56351827D01*
X35833691Y-56448500D01*
X36074250Y-56448500D01*
X36233000Y-56289750D01*
X36233000Y-55540500D01*
X36487000Y-55540500D01*
X36487000Y-56289750D01*
X36645750Y-56448500D01*
X36886309Y-56448500D01*
X37119698Y-56351827D01*
X37298327Y-56173199D01*
X37395000Y-55939810D01*
X37395000Y-55699250D01*
X37236250Y-55540500D01*
X36487000Y-55540500D01*
X36233000Y-55540500D01*
X36213000Y-55540500D01*
X36213000Y-55286500D01*
X36233000Y-55286500D01*
X36233000Y-54537250D01*
X36487000Y-54537250D01*
X36487000Y-55286500D01*
X37236250Y-55286500D01*
X37395000Y-55127750D01*
X37395000Y-54887190D01*
X37298327Y-54653801D01*
X37119698Y-54475173D01*
X36886309Y-54378500D01*
X36645750Y-54378500D01*
X36487000Y-54537250D01*
X36233000Y-54537250D01*
X36074250Y-54378500D01*
X35833691Y-54378500D01*
X35600302Y-54475173D01*
X35559047Y-54516427D01*
X35407765Y-54415343D01*
X35160000Y-54366060D01*
X34879346Y-54366060D01*
X35020898Y-54307427D01*
X35199527Y-54128799D01*
X35296200Y-53895410D01*
X35296200Y-53754850D01*
X35137450Y-53596100D01*
X34013200Y-53596100D01*
X34013200Y-54245350D01*
X34171420Y-54403570D01*
X34112235Y-54415343D01*
X33991206Y-54496213D01*
X33969809Y-54464191D01*
X33759765Y-54323843D01*
X33693823Y-54310727D01*
X33759200Y-54245350D01*
X33759200Y-53596100D01*
X32634950Y-53596100D01*
X32476200Y-53754850D01*
X32476200Y-53895410D01*
X32572873Y-54128799D01*
X32751502Y-54307427D01*
X32782407Y-54320228D01*
X32764235Y-54323843D01*
X32554191Y-54464191D01*
X32512000Y-54527334D01*
X32469809Y-54464191D01*
X32259765Y-54323843D01*
X32012000Y-54274560D01*
X31958500Y-54274560D01*
X31958500Y-52232855D01*
X32252256Y-51939100D01*
X32463760Y-51939100D01*
X32463760Y-52499100D01*
X32513043Y-52746865D01*
X32565968Y-52826072D01*
X32476200Y-53042790D01*
X32476200Y-53183350D01*
X32634950Y-53342100D01*
X33759200Y-53342100D01*
X33759200Y-53322100D01*
X34013200Y-53322100D01*
X34013200Y-53342100D01*
X35137450Y-53342100D01*
X35296200Y-53183350D01*
X35296200Y-53042790D01*
X35212090Y-52839731D01*
X35350829Y-52747029D01*
X35393231Y-52683571D01*
X35750973Y-52325829D01*
X35814429Y-52283429D01*
X35982404Y-52032037D01*
X36026500Y-51810352D01*
X36026500Y-51810348D01*
X36041388Y-51735501D01*
X36026500Y-51660654D01*
X36026500Y-50148745D01*
X36041388Y-50073898D01*
X36026500Y-49999051D01*
X36026500Y-49999046D01*
X35982404Y-49777361D01*
X35814429Y-49525969D01*
X35750970Y-49483567D01*
X35442033Y-49174630D01*
X35399631Y-49111171D01*
X35148239Y-48943196D01*
X35146821Y-48942914D01*
X35119009Y-48901291D01*
X34908965Y-48760943D01*
X34661200Y-48711660D01*
X33111200Y-48711660D01*
X32863435Y-48760943D01*
X32860624Y-48762821D01*
X32567878Y-48470077D01*
X32595940Y-48329000D01*
X32595940Y-47429000D01*
X32546657Y-47181235D01*
X32458500Y-47049300D01*
X32458500Y-45966301D01*
X32460700Y-45964101D01*
X32476200Y-45964101D01*
X32476200Y-45976102D01*
X32634948Y-45976102D01*
X32476200Y-46134850D01*
X32476200Y-46275410D01*
X32572873Y-46508799D01*
X32751502Y-46687427D01*
X32984891Y-46784100D01*
X33600450Y-46784100D01*
X33759200Y-46625350D01*
X33759200Y-45976100D01*
X33739200Y-45976100D01*
X33739200Y-45964101D01*
X34033200Y-45964101D01*
X34033200Y-45976100D01*
X34013200Y-45976100D01*
X34013200Y-46625350D01*
X34171950Y-46784100D01*
X34787509Y-46784100D01*
X35020898Y-46687427D01*
X35199527Y-46508799D01*
X35296200Y-46275410D01*
X35296200Y-46134850D01*
X35137452Y-45976102D01*
X35296200Y-45976102D01*
X35296200Y-45867578D01*
X35469130Y-45752030D01*
X35511532Y-45688571D01*
X35578060Y-45622043D01*
X35578060Y-46420500D01*
X35627343Y-46668265D01*
X35687000Y-46757547D01*
X35687000Y-46990000D01*
X35696667Y-47038601D01*
X35724197Y-47079803D01*
X39265001Y-50620607D01*
X39265000Y-102134101D01*
X38858994Y-101728095D01*
X37982406Y-101365000D01*
X37033594Y-101365000D01*
X36157006Y-101728095D01*
X35486095Y-102399006D01*
X35123000Y-103275594D01*
X35123000Y-104224406D01*
X35486095Y-105100994D01*
X36157006Y-105771905D01*
X37033594Y-106135000D01*
X37982406Y-106135000D01*
X38858994Y-105771905D01*
X39265000Y-105365899D01*
X39265000Y-137634101D01*
X38858994Y-137228095D01*
X37982406Y-136865000D01*
X37033594Y-136865000D01*
X36157006Y-137228095D01*
X35486095Y-137899006D01*
X35123000Y-138775594D01*
X35123000Y-139724406D01*
X35486095Y-140600994D01*
X36157006Y-141271905D01*
X37033594Y-141635000D01*
X37982406Y-141635000D01*
X38858994Y-141271905D01*
X39265000Y-140865899D01*
X39265000Y-152265000D01*
X735000Y-152265000D01*
X735000Y-120080000D01*
X8712560Y-120080000D01*
X8712560Y-123080000D01*
X8761843Y-123327765D01*
X8902191Y-123537809D01*
X9112235Y-123678157D01*
X9360000Y-123727440D01*
X10960000Y-123727440D01*
X11207765Y-123678157D01*
X11417809Y-123537809D01*
X11558157Y-123327765D01*
X11583372Y-123201000D01*
X13177715Y-123201000D01*
X13272235Y-123264157D01*
X13520000Y-123313440D01*
X14420000Y-123313440D01*
X14667765Y-123264157D01*
X14762285Y-123201000D01*
X14920688Y-123201000D01*
X14998000Y-123216378D01*
X15009413Y-123214108D01*
X14993594Y-123293636D01*
X14932601Y-123384919D01*
X14874000Y-123679525D01*
X14874001Y-136053524D01*
X14854214Y-136153000D01*
X14932602Y-136547082D01*
X15099482Y-136796837D01*
X15099485Y-136796840D01*
X15155832Y-136881169D01*
X15240161Y-136937516D01*
X25504482Y-147201837D01*
X25560831Y-147286169D01*
X25894918Y-147509399D01*
X26189524Y-147568000D01*
X26189528Y-147568000D01*
X26288999Y-147587786D01*
X26388470Y-147568000D01*
X30888529Y-147568000D01*
X30988000Y-147587786D01*
X31087471Y-147568000D01*
X31087476Y-147568000D01*
X31382082Y-147509399D01*
X31716169Y-147286169D01*
X31772518Y-147201837D01*
X34425841Y-144548515D01*
X34510169Y-144492169D01*
X34566516Y-144407840D01*
X34566518Y-144407838D01*
X34733398Y-144158083D01*
X34733399Y-144158082D01*
X34792000Y-143863476D01*
X34792000Y-143863471D01*
X34811786Y-143764000D01*
X34792000Y-143664529D01*
X34792000Y-135038355D01*
X37219841Y-132610515D01*
X37304169Y-132554169D01*
X37360516Y-132469840D01*
X37360518Y-132469838D01*
X37527398Y-132220083D01*
X37527399Y-132220082D01*
X37586000Y-131925476D01*
X37586000Y-131925471D01*
X37605786Y-131826000D01*
X37586000Y-131726529D01*
X37586000Y-111097471D01*
X37605786Y-110998000D01*
X37586000Y-110898529D01*
X37586000Y-110898524D01*
X37527399Y-110603918D01*
X37477411Y-110529105D01*
X37360518Y-110354162D01*
X37360516Y-110354160D01*
X37304169Y-110269831D01*
X37219840Y-110213484D01*
X34792000Y-107785645D01*
X34792000Y-93473470D01*
X34811786Y-93373999D01*
X34792000Y-93274528D01*
X34792000Y-93274524D01*
X34733399Y-92979918D01*
X34662034Y-92873113D01*
X34588726Y-92763400D01*
X35497012Y-93131119D01*
X36545247Y-93122713D01*
X37474647Y-92737743D01*
X37695416Y-92367022D01*
X36000000Y-90671605D01*
X35985858Y-90685748D01*
X35806252Y-90506142D01*
X35820395Y-90492000D01*
X36179605Y-90492000D01*
X37875022Y-92187416D01*
X38245743Y-91966647D01*
X38639119Y-90994988D01*
X38630713Y-89946753D01*
X38245743Y-89017353D01*
X37875022Y-88796584D01*
X36179605Y-90492000D01*
X35820395Y-90492000D01*
X34124978Y-88796584D01*
X33754257Y-89017353D01*
X33360881Y-89989012D01*
X33369287Y-91037247D01*
X33719789Y-91883433D01*
X32952414Y-91116058D01*
X33035000Y-90916678D01*
X33035000Y-90067322D01*
X32709966Y-89282620D01*
X32109380Y-88682034D01*
X31952321Y-88616978D01*
X34304584Y-88616978D01*
X36000000Y-90312395D01*
X37695416Y-88616978D01*
X37474647Y-88246257D01*
X36502988Y-87852881D01*
X35454753Y-87861287D01*
X34525353Y-88246257D01*
X34304584Y-88616978D01*
X31952321Y-88616978D01*
X31324678Y-88357000D01*
X30475322Y-88357000D01*
X29690620Y-88682034D01*
X29090034Y-89282620D01*
X28765000Y-90067322D01*
X28765000Y-90916678D01*
X29090034Y-91701380D01*
X29690620Y-92301966D01*
X30475322Y-92627000D01*
X31324678Y-92627000D01*
X31524058Y-92544414D01*
X32292742Y-93313098D01*
X31402988Y-92952881D01*
X30354753Y-92961287D01*
X29425353Y-93346257D01*
X29204584Y-93716978D01*
X30900000Y-95412395D01*
X30914142Y-95398252D01*
X31093748Y-95577858D01*
X31079605Y-95592000D01*
X31093748Y-95606142D01*
X30914142Y-95785748D01*
X30900000Y-95771605D01*
X29204584Y-97467022D01*
X29425353Y-97837743D01*
X30397012Y-98231119D01*
X31445247Y-98222713D01*
X32374647Y-97837743D01*
X32595415Y-97467023D01*
X32708166Y-97579774D01*
X32772001Y-97515939D01*
X32772000Y-108104529D01*
X32752214Y-108204000D01*
X32772000Y-108303471D01*
X32772000Y-108303475D01*
X32830601Y-108598081D01*
X32830602Y-108598082D01*
X32980267Y-108822072D01*
X33053831Y-108932169D01*
X33138163Y-108988518D01*
X35566001Y-111416357D01*
X35566000Y-131407644D01*
X33138161Y-133835484D01*
X33053832Y-133891831D01*
X32997485Y-133976160D01*
X32997482Y-133976163D01*
X32830602Y-134225918D01*
X32752214Y-134620000D01*
X32772001Y-134719476D01*
X32772000Y-143345644D01*
X30569645Y-145548000D01*
X26707355Y-145548000D01*
X16894000Y-135734645D01*
X16894000Y-125574750D01*
X18089000Y-125574750D01*
X18089000Y-125667309D01*
X18185673Y-125900698D01*
X18364301Y-126079327D01*
X18597690Y-126176000D01*
X18888250Y-126176000D01*
X19047000Y-126017250D01*
X19047000Y-125416000D01*
X19301000Y-125416000D01*
X19301000Y-126017250D01*
X19459750Y-126176000D01*
X19750310Y-126176000D01*
X19983699Y-126079327D01*
X20162327Y-125900698D01*
X20213668Y-125776750D01*
X21199000Y-125776750D01*
X21199000Y-125992310D01*
X21295673Y-126225699D01*
X21474302Y-126404327D01*
X21707691Y-126501000D01*
X21948250Y-126501000D01*
X22107000Y-126342250D01*
X22107000Y-125618000D01*
X21357750Y-125618000D01*
X21199000Y-125776750D01*
X20213668Y-125776750D01*
X20259000Y-125667309D01*
X20259000Y-125574750D01*
X20100250Y-125416000D01*
X19301000Y-125416000D01*
X19047000Y-125416000D01*
X18247750Y-125416000D01*
X18089000Y-125574750D01*
X16894000Y-125574750D01*
X16894000Y-124828702D01*
X17134000Y-124876440D01*
X17634000Y-124876440D01*
X17881765Y-124827157D01*
X17920911Y-124801000D01*
X18136092Y-124801000D01*
X18089000Y-124914691D01*
X18089000Y-125007250D01*
X18247750Y-125166000D01*
X19047000Y-125166000D01*
X19047000Y-125144000D01*
X19301000Y-125144000D01*
X19301000Y-125166000D01*
X20100250Y-125166000D01*
X20259000Y-125007250D01*
X20259000Y-124914691D01*
X20211908Y-124801000D01*
X21277158Y-124801000D01*
X21199000Y-124989690D01*
X21199000Y-125205250D01*
X21357750Y-125364000D01*
X22107000Y-125364000D01*
X22107000Y-125344000D01*
X22361000Y-125344000D01*
X22361000Y-125364000D01*
X22381000Y-125364000D01*
X22381000Y-125618000D01*
X22361000Y-125618000D01*
X22361000Y-126342250D01*
X22519750Y-126501000D01*
X22760309Y-126501000D01*
X22993698Y-126404327D01*
X22994898Y-126403127D01*
X23086235Y-126464157D01*
X23334000Y-126513440D01*
X23548085Y-126513440D01*
X24873000Y-127838356D01*
X24873000Y-128130439D01*
X25091466Y-128657862D01*
X25283604Y-128850000D01*
X24452176Y-128850000D01*
X24300999Y-128819929D01*
X24149822Y-128850000D01*
X24149818Y-128850000D01*
X23702073Y-128939062D01*
X23194327Y-129278327D01*
X23108689Y-129406493D01*
X21119493Y-131395690D01*
X20991328Y-131481327D01*
X20905691Y-131609492D01*
X20905690Y-131609493D01*
X20652063Y-131989073D01*
X20532929Y-132588000D01*
X20563001Y-132739182D01*
X20563000Y-134722822D01*
X20532929Y-134874000D01*
X20563000Y-135025177D01*
X20563000Y-135025181D01*
X20652062Y-135472926D01*
X20991327Y-135980673D01*
X21119495Y-136066312D01*
X27595985Y-142542802D01*
X27475000Y-142834887D01*
X27475000Y-143525113D01*
X27739138Y-144162799D01*
X28227201Y-144650862D01*
X28864887Y-144915000D01*
X29555113Y-144915000D01*
X30192799Y-144650862D01*
X30680862Y-144162799D01*
X30945000Y-143525113D01*
X30945000Y-142834887D01*
X30745000Y-142352044D01*
X30745000Y-142137182D01*
X30775072Y-141986000D01*
X30655938Y-141387072D01*
X30538556Y-141211399D01*
X30316673Y-140879327D01*
X30188505Y-140793688D01*
X24779817Y-135385000D01*
X25115113Y-135385000D01*
X25597956Y-135185000D01*
X26701823Y-135185000D01*
X26853000Y-135215071D01*
X27004177Y-135185000D01*
X27004182Y-135185000D01*
X27451927Y-135095938D01*
X27959673Y-134756673D01*
X28045312Y-134628505D01*
X32580311Y-130093507D01*
X32833938Y-129713927D01*
X32953072Y-129115000D01*
X32833938Y-128516073D01*
X32494673Y-128008327D01*
X32181946Y-127799369D01*
X32200862Y-127791534D01*
X32604534Y-127387862D01*
X32823000Y-126860439D01*
X32823000Y-126289561D01*
X32604534Y-125762138D01*
X32200862Y-125358466D01*
X32071784Y-125305000D01*
X32200862Y-125251534D01*
X32604534Y-124847862D01*
X32823000Y-124320439D01*
X32823000Y-123749561D01*
X32604534Y-123222138D01*
X32200862Y-122818466D01*
X32087417Y-122771475D01*
X32142005Y-122748864D01*
X32216139Y-122502745D01*
X31388000Y-121674605D01*
X30559861Y-122502745D01*
X30633995Y-122748864D01*
X30692448Y-122769874D01*
X30575138Y-122818466D01*
X30171466Y-123222138D01*
X29953000Y-123749561D01*
X29953000Y-124320439D01*
X30171466Y-124847862D01*
X30575138Y-125251534D01*
X30704216Y-125305000D01*
X30575138Y-125358466D01*
X30402480Y-125531125D01*
X29532517Y-124661162D01*
X29476169Y-124576831D01*
X29142082Y-124353601D01*
X28847476Y-124295000D01*
X28847471Y-124295000D01*
X28748000Y-124275214D01*
X28648529Y-124295000D01*
X27327396Y-124295000D01*
X27120862Y-124088466D01*
X27007417Y-124041475D01*
X27062005Y-124018864D01*
X27136139Y-123772745D01*
X26308000Y-122944605D01*
X26293858Y-122958748D01*
X26114253Y-122779143D01*
X26128395Y-122765000D01*
X26487605Y-122765000D01*
X27315745Y-123593139D01*
X27561864Y-123519005D01*
X27754965Y-122981777D01*
X27727778Y-122411546D01*
X27561864Y-122010995D01*
X27315745Y-121936861D01*
X26487605Y-122765000D01*
X26128395Y-122765000D01*
X25300255Y-121936861D01*
X25054136Y-122010995D01*
X24861035Y-122548223D01*
X24872155Y-122781449D01*
X24791976Y-122765500D01*
X24791971Y-122765500D01*
X24692500Y-122745714D01*
X24593029Y-122765500D01*
X24196541Y-122765500D01*
X24134000Y-122753060D01*
X23334000Y-122753060D01*
X23086235Y-122802343D01*
X22984000Y-122870655D01*
X22881765Y-122802343D01*
X22634000Y-122753060D01*
X22270930Y-122753060D01*
X22233999Y-122745714D01*
X22197068Y-122753060D01*
X21834000Y-122753060D01*
X21693535Y-122781000D01*
X19345801Y-122781000D01*
X19186000Y-122749214D01*
X19026199Y-122781000D01*
X17956830Y-122781000D01*
X17881765Y-122730843D01*
X17634000Y-122681560D01*
X17134000Y-122681560D01*
X16886235Y-122730843D01*
X16676191Y-122871191D01*
X16634000Y-122934334D01*
X16591809Y-122871191D01*
X16381765Y-122730843D01*
X16134000Y-122681560D01*
X15842597Y-122681560D01*
X16073158Y-122451000D01*
X20296688Y-122451000D01*
X20374000Y-122466378D01*
X20451312Y-122451000D01*
X20451316Y-122451000D01*
X20680292Y-122405454D01*
X20939953Y-122231953D01*
X20983749Y-122166408D01*
X21340159Y-121809999D01*
X24595689Y-121809999D01*
X24673001Y-121825377D01*
X24750313Y-121809999D01*
X24750317Y-121809999D01*
X24979293Y-121764453D01*
X25238954Y-121590952D01*
X25282750Y-121525407D01*
X25430881Y-121377277D01*
X25495138Y-121441534D01*
X25608583Y-121488525D01*
X25553995Y-121511136D01*
X25479861Y-121757255D01*
X26308000Y-122585395D01*
X27136139Y-121757255D01*
X27062005Y-121511136D01*
X27003552Y-121490126D01*
X27120862Y-121441534D01*
X27284173Y-121278223D01*
X29941035Y-121278223D01*
X29968222Y-121848454D01*
X30134136Y-122249005D01*
X30380255Y-122323139D01*
X31208395Y-121495000D01*
X31567605Y-121495000D01*
X32395745Y-122323139D01*
X32641864Y-122249005D01*
X32834965Y-121711777D01*
X32807778Y-121141546D01*
X32641864Y-120740995D01*
X32395745Y-120666861D01*
X31567605Y-121495000D01*
X31208395Y-121495000D01*
X30380255Y-120666861D01*
X30134136Y-120740995D01*
X29941035Y-121278223D01*
X27284173Y-121278223D01*
X27524534Y-121037862D01*
X27743000Y-120510439D01*
X27743000Y-119939561D01*
X27660339Y-119740000D01*
X30159925Y-119740000D01*
X30171466Y-119767862D01*
X30575138Y-120171534D01*
X30688583Y-120218525D01*
X30633995Y-120241136D01*
X30559861Y-120487255D01*
X31388000Y-121315395D01*
X32216139Y-120487255D01*
X32142005Y-120241136D01*
X32083552Y-120220126D01*
X32200862Y-120171534D01*
X32604534Y-119767862D01*
X32823000Y-119240439D01*
X32823000Y-118669561D01*
X32604534Y-118142138D01*
X32200862Y-117738466D01*
X32071784Y-117685000D01*
X32200862Y-117631534D01*
X32604534Y-117227862D01*
X32823000Y-116700439D01*
X32823000Y-116129561D01*
X32604534Y-115602138D01*
X32200862Y-115198466D01*
X32181944Y-115190630D01*
X32494672Y-114981672D01*
X32833937Y-114473926D01*
X32953071Y-113874999D01*
X32833937Y-113276072D01*
X32580310Y-112896492D01*
X26305000Y-106621183D01*
X26305000Y-105478251D01*
X26325327Y-105508673D01*
X26453495Y-105594312D01*
X27539137Y-106679954D01*
X27739138Y-107162799D01*
X28227201Y-107650862D01*
X28864887Y-107915000D01*
X29555113Y-107915000D01*
X30192799Y-107650862D01*
X30680862Y-107162799D01*
X30945000Y-106525113D01*
X30945000Y-105834887D01*
X30680862Y-105197201D01*
X30192799Y-104709138D01*
X29709954Y-104509137D01*
X28967000Y-103766183D01*
X28967000Y-97252889D01*
X29024978Y-97287416D01*
X30720395Y-95592000D01*
X29024978Y-93896584D01*
X28654257Y-94117353D01*
X28540066Y-94399411D01*
X28538673Y-94397327D01*
X28410507Y-94311689D01*
X27100312Y-93001495D01*
X27014673Y-92873327D01*
X26506927Y-92534062D01*
X26059182Y-92445000D01*
X26059177Y-92445000D01*
X25908000Y-92414929D01*
X25756823Y-92445000D01*
X23773176Y-92445000D01*
X23621999Y-92414929D01*
X23470822Y-92445000D01*
X23470818Y-92445000D01*
X23023073Y-92534062D01*
X22515327Y-92873327D01*
X22429689Y-93001493D01*
X21119495Y-94311688D01*
X20991327Y-94397327D01*
X20652062Y-94905074D01*
X20563000Y-95352819D01*
X20563000Y-95352823D01*
X20532929Y-95504000D01*
X20563000Y-95655177D01*
X20563001Y-107798813D01*
X20563000Y-107798818D01*
X20563000Y-108243823D01*
X20532929Y-108395000D01*
X20563000Y-108546177D01*
X20563000Y-108546181D01*
X20652062Y-108993926D01*
X20991327Y-109501673D01*
X21119495Y-109587312D01*
X24062742Y-112530560D01*
X23334000Y-112530560D01*
X23086235Y-112579843D01*
X22994898Y-112640873D01*
X22993698Y-112639673D01*
X22760309Y-112543000D01*
X22519750Y-112543000D01*
X22361000Y-112701750D01*
X22361000Y-113426000D01*
X22381000Y-113426000D01*
X22381000Y-113680000D01*
X22361000Y-113680000D01*
X22361000Y-113700000D01*
X22107000Y-113700000D01*
X22107000Y-113680000D01*
X21357750Y-113680000D01*
X21199000Y-113838750D01*
X21199000Y-114054310D01*
X21231595Y-114133000D01*
X20206937Y-114133000D01*
X20259000Y-114007309D01*
X20259000Y-113914750D01*
X20100250Y-113756000D01*
X19301000Y-113756000D01*
X19301000Y-113778000D01*
X19047000Y-113778000D01*
X19047000Y-113756000D01*
X18247750Y-113756000D01*
X18089000Y-113914750D01*
X18089000Y-114007309D01*
X18136092Y-114121000D01*
X17920911Y-114121000D01*
X17881765Y-114094843D01*
X17634000Y-114045560D01*
X17134000Y-114045560D01*
X16894000Y-114093298D01*
X16894000Y-113254691D01*
X18089000Y-113254691D01*
X18089000Y-113347250D01*
X18247750Y-113506000D01*
X19047000Y-113506000D01*
X19047000Y-112904750D01*
X19301000Y-112904750D01*
X19301000Y-113506000D01*
X20100250Y-113506000D01*
X20259000Y-113347250D01*
X20259000Y-113254691D01*
X20174915Y-113051690D01*
X21199000Y-113051690D01*
X21199000Y-113267250D01*
X21357750Y-113426000D01*
X22107000Y-113426000D01*
X22107000Y-112701750D01*
X21948250Y-112543000D01*
X21707691Y-112543000D01*
X21474302Y-112639673D01*
X21295673Y-112818301D01*
X21199000Y-113051690D01*
X20174915Y-113051690D01*
X20162327Y-113021302D01*
X19983699Y-112842673D01*
X19750310Y-112746000D01*
X19459750Y-112746000D01*
X19301000Y-112904750D01*
X19047000Y-112904750D01*
X18888250Y-112746000D01*
X18597690Y-112746000D01*
X18364301Y-112842673D01*
X18185673Y-113021302D01*
X18089000Y-113254691D01*
X16894000Y-113254691D01*
X16894000Y-112804355D01*
X19693837Y-110004518D01*
X19778169Y-109948169D01*
X20001399Y-109614082D01*
X20060000Y-109319476D01*
X20060000Y-109319472D01*
X20079786Y-109220001D01*
X20060000Y-109120530D01*
X20060000Y-94144355D01*
X22516356Y-91688000D01*
X23522529Y-91688000D01*
X23622000Y-91707786D01*
X23721471Y-91688000D01*
X23721476Y-91688000D01*
X24016082Y-91629399D01*
X24350169Y-91406169D01*
X24406518Y-91321837D01*
X27821837Y-87906518D01*
X27906169Y-87850169D01*
X28129399Y-87516082D01*
X28178940Y-87267022D01*
X29204584Y-87267022D01*
X29425353Y-87637743D01*
X30397012Y-88031119D01*
X31445247Y-88022713D01*
X32374647Y-87637743D01*
X32595416Y-87267022D01*
X30900000Y-85571605D01*
X29204584Y-87267022D01*
X28178940Y-87267022D01*
X28188000Y-87221476D01*
X28188000Y-87221472D01*
X28207786Y-87122001D01*
X28188000Y-87022530D01*
X28188000Y-84889012D01*
X28260881Y-84889012D01*
X28269287Y-85937247D01*
X28654257Y-86866647D01*
X29024978Y-87087416D01*
X30720395Y-85392000D01*
X31079605Y-85392000D01*
X32775022Y-87087416D01*
X33145743Y-86866647D01*
X33539119Y-85894988D01*
X33530713Y-84846753D01*
X33145743Y-83917353D01*
X32775022Y-83696584D01*
X31079605Y-85392000D01*
X30720395Y-85392000D01*
X29024978Y-83696584D01*
X28654257Y-83917353D01*
X28260881Y-84889012D01*
X28188000Y-84889012D01*
X28188000Y-82467022D01*
X29204584Y-82467022D01*
X29425353Y-82837743D01*
X29802020Y-82990237D01*
X29425353Y-83146257D01*
X29204584Y-83516978D01*
X30900000Y-85212395D01*
X32595416Y-83516978D01*
X32374647Y-83146257D01*
X31997980Y-82993763D01*
X32374647Y-82837743D01*
X32595416Y-82467022D01*
X30900000Y-80771605D01*
X29204584Y-82467022D01*
X28188000Y-82467022D01*
X28188000Y-79632355D01*
X28621098Y-79199257D01*
X28260881Y-80089012D01*
X28269287Y-81137247D01*
X28654257Y-82066647D01*
X29024978Y-82287416D01*
X30720395Y-80592000D01*
X31079605Y-80592000D01*
X32775022Y-82287416D01*
X33145743Y-82066647D01*
X33539119Y-81094988D01*
X33530713Y-80046753D01*
X33145743Y-79117353D01*
X32775022Y-78896584D01*
X31079605Y-80592000D01*
X30720395Y-80592000D01*
X30706252Y-80577858D01*
X30885858Y-80398252D01*
X30900000Y-80412395D01*
X32595416Y-78716978D01*
X32374647Y-78346257D01*
X31402988Y-77952881D01*
X30354753Y-77961287D01*
X29508567Y-78311789D01*
X30275942Y-77544414D01*
X30475322Y-77627000D01*
X31324678Y-77627000D01*
X31952320Y-77367022D01*
X34304584Y-77367022D01*
X34525353Y-77737743D01*
X35497012Y-78131119D01*
X36545247Y-78122713D01*
X37474647Y-77737743D01*
X37695416Y-77367022D01*
X36000000Y-75671605D01*
X34304584Y-77367022D01*
X31952320Y-77367022D01*
X32109380Y-77301966D01*
X32709966Y-76701380D01*
X33035000Y-75916678D01*
X33035000Y-75067322D01*
X33002563Y-74989012D01*
X33360881Y-74989012D01*
X33369287Y-76037247D01*
X33754257Y-76966647D01*
X34124978Y-77187416D01*
X35820395Y-75492000D01*
X36179605Y-75492000D01*
X37875022Y-77187416D01*
X38245743Y-76966647D01*
X38639119Y-75994988D01*
X38630713Y-74946753D01*
X38245743Y-74017353D01*
X37875022Y-73796584D01*
X36179605Y-75492000D01*
X35820395Y-75492000D01*
X34124978Y-73796584D01*
X33754257Y-74017353D01*
X33360881Y-74989012D01*
X33002563Y-74989012D01*
X32709966Y-74282620D01*
X32109380Y-73682034D01*
X31952321Y-73616978D01*
X34304584Y-73616978D01*
X36000000Y-75312395D01*
X37695416Y-73616978D01*
X37474647Y-73246257D01*
X36502988Y-72852881D01*
X35454753Y-72861287D01*
X34525353Y-73246257D01*
X34304584Y-73616978D01*
X31952321Y-73616978D01*
X31324678Y-73357000D01*
X30475322Y-73357000D01*
X29690620Y-73682034D01*
X29090034Y-74282620D01*
X28765000Y-75067322D01*
X28765000Y-75916678D01*
X28847586Y-76116058D01*
X26534163Y-78429482D01*
X26449831Y-78485831D01*
X26226601Y-78819919D01*
X26168000Y-79114525D01*
X26168000Y-79114529D01*
X26148214Y-79214000D01*
X26168000Y-79313471D01*
X26168001Y-86703644D01*
X23203645Y-89668000D01*
X22197471Y-89668000D01*
X22098000Y-89648214D01*
X21998529Y-89668000D01*
X21998524Y-89668000D01*
X21703918Y-89726601D01*
X21629105Y-89776589D01*
X21454162Y-89893482D01*
X21454160Y-89893484D01*
X21369831Y-89949831D01*
X21313484Y-90034160D01*
X18406163Y-92941482D01*
X18321831Y-92997831D01*
X18098601Y-93331919D01*
X18040000Y-93626525D01*
X18040000Y-93626529D01*
X18020214Y-93726000D01*
X18040000Y-93825471D01*
X18040001Y-108801644D01*
X15240161Y-111601484D01*
X15155832Y-111657831D01*
X15099485Y-111742160D01*
X15099482Y-111742163D01*
X14932602Y-111991918D01*
X14854214Y-112386000D01*
X14874001Y-112485475D01*
X14874000Y-115242475D01*
X14932601Y-115537081D01*
X14993594Y-115628364D01*
X15035843Y-115840765D01*
X15176191Y-116050809D01*
X15386235Y-116191157D01*
X15634000Y-116240440D01*
X16134000Y-116240440D01*
X16381765Y-116191157D01*
X16591809Y-116050809D01*
X16634000Y-115987666D01*
X16676191Y-116050809D01*
X16886235Y-116191157D01*
X17134000Y-116240440D01*
X17634000Y-116240440D01*
X17881765Y-116191157D01*
X17956830Y-116141000D01*
X19026196Y-116141000D01*
X19086524Y-116153000D01*
X19086528Y-116153000D01*
X19186000Y-116172786D01*
X19285472Y-116153000D01*
X21759459Y-116153000D01*
X21822000Y-116165440D01*
X21981758Y-116165440D01*
X19920862Y-118226337D01*
X19813698Y-118119173D01*
X19580309Y-118022500D01*
X17989750Y-118022500D01*
X17831000Y-118181250D01*
X17831000Y-119330500D01*
X17851000Y-119330500D01*
X17851000Y-119584500D01*
X17831000Y-119584500D01*
X17831000Y-119604500D01*
X17577000Y-119604500D01*
X17577000Y-119584500D01*
X15477750Y-119584500D01*
X15319000Y-119743250D01*
X15319000Y-120156000D01*
X14799700Y-120156000D01*
X14667765Y-120067843D01*
X14420000Y-120018560D01*
X13520000Y-120018560D01*
X13272235Y-120067843D01*
X13062191Y-120208191D01*
X12921843Y-120418235D01*
X12872560Y-120666000D01*
X12872560Y-121166000D01*
X12921843Y-121413765D01*
X13062191Y-121623809D01*
X13072953Y-121631000D01*
X11607440Y-121631000D01*
X11607440Y-120080000D01*
X11558157Y-119832235D01*
X11417809Y-119622191D01*
X11207765Y-119481843D01*
X10960000Y-119432560D01*
X9360000Y-119432560D01*
X9112235Y-119481843D01*
X8902191Y-119622191D01*
X8761843Y-119832235D01*
X8712560Y-120080000D01*
X735000Y-120080000D01*
X735000Y-117465750D01*
X8725000Y-117465750D01*
X8725000Y-118806309D01*
X8821673Y-119039698D01*
X9000301Y-119218327D01*
X9233690Y-119315000D01*
X9874250Y-119315000D01*
X10033000Y-119156250D01*
X10033000Y-117307000D01*
X10287000Y-117307000D01*
X10287000Y-119156250D01*
X10445750Y-119315000D01*
X11086310Y-119315000D01*
X11319699Y-119218327D01*
X11498327Y-119039698D01*
X11595000Y-118806309D01*
X11595000Y-118531190D01*
X15319000Y-118531190D01*
X15319000Y-119171750D01*
X15477750Y-119330500D01*
X17577000Y-119330500D01*
X17577000Y-118181250D01*
X17418250Y-118022500D01*
X15827691Y-118022500D01*
X15594302Y-118119173D01*
X15415673Y-118297801D01*
X15319000Y-118531190D01*
X11595000Y-118531190D01*
X11595000Y-117465750D01*
X11436250Y-117307000D01*
X10287000Y-117307000D01*
X10033000Y-117307000D01*
X8883750Y-117307000D01*
X8725000Y-117465750D01*
X735000Y-117465750D01*
X735000Y-115553691D01*
X8725000Y-115553691D01*
X8725000Y-116894250D01*
X8883750Y-117053000D01*
X10033000Y-117053000D01*
X10033000Y-115203750D01*
X10287000Y-115203750D01*
X10287000Y-117053000D01*
X11436250Y-117053000D01*
X11595000Y-116894250D01*
X11595000Y-115553691D01*
X11498327Y-115320302D01*
X11319699Y-115141673D01*
X11086310Y-115045000D01*
X10445750Y-115045000D01*
X10287000Y-115203750D01*
X10033000Y-115203750D01*
X9874250Y-115045000D01*
X9233690Y-115045000D01*
X9000301Y-115141673D01*
X8821673Y-115320302D01*
X8725000Y-115553691D01*
X735000Y-115553691D01*
X735000Y-83185000D01*
X9144000Y-83185000D01*
X9192601Y-83175333D01*
X9233803Y-83147803D01*
X9804431Y-82577175D01*
X15382430Y-82577175D01*
X15505565Y-82864788D01*
X16187734Y-83124707D01*
X16917443Y-83103786D01*
X17494435Y-82864788D01*
X17617570Y-82577175D01*
X16500000Y-81459605D01*
X15382430Y-82577175D01*
X9804431Y-82577175D01*
X11413872Y-80967734D01*
X14655293Y-80967734D01*
X14676214Y-81697443D01*
X14915212Y-82274435D01*
X15202825Y-82397570D01*
X16320395Y-81280000D01*
X16679605Y-81280000D01*
X17797175Y-82397570D01*
X18084788Y-82274435D01*
X18344707Y-81592266D01*
X18323786Y-80862557D01*
X18084788Y-80285565D01*
X17797175Y-80162430D01*
X16679605Y-81280000D01*
X16320395Y-81280000D01*
X15202825Y-80162430D01*
X14915212Y-80285565D01*
X14655293Y-80967734D01*
X11413872Y-80967734D01*
X12398781Y-79982825D01*
X15382430Y-79982825D01*
X16500000Y-81100395D01*
X17617570Y-79982825D01*
X17494435Y-79695212D01*
X16812266Y-79435293D01*
X16082557Y-79456214D01*
X15505565Y-79695212D01*
X15382430Y-79982825D01*
X12398781Y-79982825D01*
X17107803Y-75273803D01*
X17135333Y-75232601D01*
X17145000Y-75184000D01*
X17145000Y-66802000D01*
X17135333Y-66753399D01*
X17107803Y-66712197D01*
X8255000Y-57859394D01*
X8255000Y-54578450D01*
X20240500Y-54578450D01*
X20240500Y-55669009D01*
X20337173Y-55902398D01*
X20515801Y-56081027D01*
X20749190Y-56177700D01*
X21489750Y-56177700D01*
X21648500Y-56018950D01*
X21648500Y-54419700D01*
X21902500Y-54419700D01*
X21902500Y-56018950D01*
X22061250Y-56177700D01*
X22801810Y-56177700D01*
X23035199Y-56081027D01*
X23213827Y-55902398D01*
X23310500Y-55669009D01*
X23310500Y-54578450D01*
X23151750Y-54419700D01*
X21902500Y-54419700D01*
X21648500Y-54419700D01*
X20399250Y-54419700D01*
X20240500Y-54578450D01*
X8255000Y-54578450D01*
X8255000Y-52916391D01*
X20240500Y-52916391D01*
X20240500Y-54006950D01*
X20399250Y-54165700D01*
X21648500Y-54165700D01*
X21648500Y-52566450D01*
X21902500Y-52566450D01*
X21902500Y-54165700D01*
X23151750Y-54165700D01*
X23310500Y-54006950D01*
X23310500Y-52916391D01*
X23213827Y-52683002D01*
X23035199Y-52504373D01*
X22801810Y-52407700D01*
X22061250Y-52407700D01*
X21902500Y-52566450D01*
X21648500Y-52566450D01*
X21489750Y-52407700D01*
X20749190Y-52407700D01*
X20515801Y-52504373D01*
X20337173Y-52683002D01*
X20240500Y-52916391D01*
X8255000Y-52916391D01*
X8255000Y-42654887D01*
X11075000Y-42654887D01*
X11075000Y-43345113D01*
X11339138Y-43982799D01*
X11827201Y-44470862D01*
X12464887Y-44735000D01*
X13155113Y-44735000D01*
X13792799Y-44470862D01*
X14280862Y-43982799D01*
X14545000Y-43345113D01*
X14545000Y-42654887D01*
X14280862Y-42017201D01*
X13792799Y-41529138D01*
X13155113Y-41265000D01*
X12464887Y-41265000D01*
X11827201Y-41529138D01*
X11339138Y-42017201D01*
X11075000Y-42654887D01*
X8255000Y-42654887D01*
X8255000Y-41169391D01*
X20240500Y-41169391D01*
X20240500Y-42259950D01*
X20399250Y-42418700D01*
X21648500Y-42418700D01*
X21648500Y-40819450D01*
X21902500Y-40819450D01*
X21902500Y-42418700D01*
X23151750Y-42418700D01*
X23310500Y-42259950D01*
X23310500Y-41169391D01*
X23213827Y-40936002D01*
X23035199Y-40757373D01*
X22801810Y-40660700D01*
X22061250Y-40660700D01*
X21902500Y-40819450D01*
X21648500Y-40819450D01*
X21489750Y-40660700D01*
X20749190Y-40660700D01*
X20515801Y-40757373D01*
X20337173Y-40936002D01*
X20240500Y-41169391D01*
X8255000Y-41169391D01*
X8255000Y-40946606D01*
X8617012Y-40584594D01*
X8714561Y-40625000D01*
X9285439Y-40625000D01*
X9812862Y-40406534D01*
X9960396Y-40259000D01*
X16238365Y-40259000D01*
X16249586Y-40286090D01*
X16793910Y-40830414D01*
X17505105Y-41125000D01*
X18274895Y-41125000D01*
X18986090Y-40830414D01*
X19530414Y-40286090D01*
X19672470Y-39943136D01*
X20626606Y-38989000D01*
X25521046Y-38989000D01*
X25518560Y-39001500D01*
M02*
