M48
;DRILL file {KiCad (5.0.0-rc2-dev-311-g1dd4af297)} date 07/03/18 13:58:47
;FORMAT={-:-/ absolute / inch / decimal}
FMAT,2
INCH,TZ
T1C0.0197
T2C0.0394
T3C0.0400
T4C0.0433
T5C0.0472
T6C0.0551
T7C0.0630
T8C0.0906
T9C0.0984
T10C0.1102
T11C0.1201
%
G90
G05
M72
T1
X0.625Y-2.03
X0.685Y-2.03
X0.745Y-2.03
X0.75Y-1.27
X0.7516Y-2.2998
X0.81Y-1.27
X0.8692Y-1.27
X0.89Y-2.65
X1.2022Y-1.9438
T2
X0.49Y-1.2828
X0.3396Y-2.4364
X0.5404Y-2.4836
X0.3189Y-0.4467
X0.3189Y-0.5557
X0.3189Y-0.6648
X0.3189Y-0.7738
X0.4307Y-0.3921
X0.4307Y-0.5012
X0.4307Y-0.6102
X0.4307Y-0.7193
X0.4307Y-0.8283
X0.49Y-1.3828
X0.49Y-1.4828
X0.49Y-1.5828
T3
X1.52Y-1.09
X1.52Y-1.19
X1.52Y-1.29
X1.52Y-1.39
X1.52Y-1.49
X1.62Y-1.09
X1.62Y-1.19
X1.62Y-1.29
X1.62Y-1.39
X1.62Y-1.49
X1.11Y-1.09
X1.11Y-1.19
X1.11Y-1.29
X1.11Y-1.39
X1.11Y-1.49
X1.21Y-1.09
X1.21Y-1.19
X1.21Y-1.29
X1.21Y-1.39
X1.21Y-1.49
T4
X1.0776Y-4.9059
X1.0776Y-5.0059
X1.0776Y-5.1059
X1.0776Y-5.2059
X1.0776Y-5.3059
X1.0776Y-5.4059
X1.0776Y-5.5059
X1.0776Y-5.6059
X1.2776Y-4.9559
X1.2776Y-5.0559
X1.2776Y-5.1559
X1.2776Y-5.2559
X1.2776Y-5.3559
X1.2776Y-5.4559
X1.2776Y-5.5559
T5
X0.8947Y-3.73
X1.19Y-3.73
X0.5004Y-3.0709
X0.7004Y-3.0709
T6
X0.9752Y-5.7343
X1.15Y-6.1094
X1.4597Y-2.8431
X1.4597Y-3.0084
X1.6762Y-2.8431
X1.6762Y-3.0084
X0.9752Y-4.2776
X1.15Y-4.6528
T7
X1.4503Y-3.4643
X1.4503Y-4.0548
X0.7004Y-2.9209
X0.7004Y-3.2209
T8
X1.3386Y-0.0957
X1.3386Y-0.613
T9
X1.5157Y-4.5571
X1.5157Y-5.9547
T10
X1.4503Y-3.854
X1.4503Y-4.2556
X1.651Y-4.0548
X1.4503Y-3.2635
X1.4503Y-3.665
X1.651Y-3.4643
T11
X0.3748Y-0.1183
X0.3748Y-1.1022
T0
M30
