G04 #@! TF.GenerationSoftware,KiCad,Pcbnew,(5.0.0-rc2-dev-311-g1dd4af297)*
G04 #@! TF.CreationDate,2018-07-24T10:12:30+02:00*
G04 #@! TF.ProjectId,resetUSB,72657365745553422E6B696361645F70,1.0*
G04 #@! TF.SameCoordinates,PX29ff57cPY2521014*
G04 #@! TF.FileFunction,Soldermask,Bot*
G04 #@! TF.FilePolarity,Negative*
%FSLAX46Y46*%
G04 Gerber Fmt 4.6, Leading zero omitted, Abs format (unit mm)*
G04 Created by KiCad (PCBNEW (5.0.0-rc2-dev-311-g1dd4af297)) date 07/24/18 10:12:30*
%MOMM*%
%LPD*%
G01*
G04 APERTURE LIST*
%ADD10C,0.150000*%
%ADD11C,4.600000*%
%ADD12R,1.927200X1.927200*%
%ADD13O,1.927200X1.927200*%
%ADD14C,2.400000*%
%ADD15R,2.600000X2.600000*%
%ADD16C,2.600000*%
%ADD17C,1.800000*%
%ADD18R,1.800000X1.800000*%
%ADD19C,4.250000*%
%ADD20C,3.400000*%
%ADD21C,2.800000*%
%ADD22C,1.600000*%
%ADD23C,4.200000*%
%ADD24C,3.200000*%
%ADD25C,3.000000*%
%ADD26R,3.000000X3.000000*%
%ADD27R,1.900000X1.900000*%
%ADD28O,1.900000X1.900000*%
%ADD29C,1.500000*%
G04 APERTURE END LIST*
D10*
X0Y-165000000D02*
X0Y0D01*
X45000000Y-165000000D02*
X0Y-165000000D01*
X45000000Y0D02*
X45000000Y-165000000D01*
X0Y0D02*
X45000000Y0D01*
D11*
X41900000Y-156550000D03*
X41900000Y-110450000D03*
D12*
X41148000Y-33346000D03*
D13*
X38608000Y-33346000D03*
X41148000Y-30806000D03*
X38608000Y-30806000D03*
X41148000Y-28266000D03*
X38608000Y-28266000D03*
X41148000Y-25726000D03*
X38608000Y-25726000D03*
X41148000Y-23186000D03*
X38608000Y-23186000D03*
D14*
X8626000Y-61884000D03*
X13726000Y-63084000D03*
D15*
X22733000Y-94742000D03*
D16*
X30233000Y-94742000D03*
D17*
X8100000Y-11345000D03*
X8100000Y-14115000D03*
X8100000Y-16885000D03*
X8100000Y-19655000D03*
X10940000Y-9960000D03*
X10940000Y-12730000D03*
D18*
X10940000Y-21040000D03*
D17*
X10940000Y-18270000D03*
X10940000Y-15500000D03*
D19*
X9520000Y-3005000D03*
X9520000Y-27995000D03*
D20*
X34000000Y-2430000D03*
X34000000Y-15570000D03*
D17*
X3820000Y-81810000D03*
X8900000Y-74190000D03*
D14*
X12710000Y-78000000D03*
X17790000Y-78000000D03*
D21*
X17790000Y-81810000D03*
X17790000Y-74190000D03*
D22*
X7000000Y-50750000D03*
X7000000Y-45250000D03*
D23*
X37336500Y-69892000D03*
X37336500Y-80092000D03*
D24*
X37336500Y-74992000D03*
D23*
X42436500Y-74992000D03*
X42436500Y-89992000D03*
D24*
X37336500Y-89992000D03*
D23*
X37336500Y-95092000D03*
X37336500Y-84892000D03*
D17*
X27370000Y-142390000D03*
X27370000Y-139850000D03*
X27370000Y-137310000D03*
X27370000Y-134770000D03*
X27370000Y-132230000D03*
X27370000Y-129690000D03*
X27370000Y-127150000D03*
X27370000Y-124610000D03*
X32450000Y-141120000D03*
X32450000Y-138580000D03*
X32450000Y-136040000D03*
X32450000Y-125880000D03*
X32450000Y-128420000D03*
X32450000Y-130960000D03*
X32450000Y-133500000D03*
D14*
X24770000Y-108650000D03*
X29210000Y-118180000D03*
X24770000Y-145650000D03*
X29210000Y-155180000D03*
D25*
X37076000Y-63414000D03*
X37076000Y-59214000D03*
X42576000Y-63414000D03*
D26*
X42576000Y-59214000D03*
D27*
X12446000Y-40204000D03*
D28*
X12446000Y-37664000D03*
X12446000Y-35124000D03*
X12446000Y-32584000D03*
D27*
X28194000Y-23186000D03*
D28*
X30734000Y-23186000D03*
X28194000Y-25726000D03*
X30734000Y-25726000D03*
X28194000Y-28266000D03*
X30734000Y-28266000D03*
X28194000Y-30806000D03*
X30734000Y-30806000D03*
X28194000Y-33346000D03*
X30734000Y-33346000D03*
D29*
X14605000Y-132969000D03*
X32385000Y-76835000D03*
X34290000Y-85471000D03*
X33274000Y-85471000D03*
X32258000Y-84455000D03*
X33274000Y-84455000D03*
X32258000Y-85471000D03*
X34290000Y-84455000D03*
X33401000Y-76835000D03*
X34417000Y-76835000D03*
X34417000Y-77851000D03*
X33401000Y-77851000D03*
X32385000Y-77851000D03*
X16002000Y-26670000D03*
X14478000Y-26670000D03*
X12954000Y-26670000D03*
X17526000Y-26670000D03*
X22606000Y-67310000D03*
X15875000Y-51562000D03*
X17399000Y-51562000D03*
X18923000Y-51562000D03*
X22078000Y-32258000D03*
X19050000Y-32258000D03*
X20574000Y-32258000D03*
X19090400Y-58415800D03*
X30535191Y-49371793D03*
M02*
