G04 #@! TF.GenerationSoftware,KiCad,Pcbnew,(5.0.0-rc2-dev-311-g1dd4af297)*
G04 #@! TF.CreationDate,2018-07-24T10:12:30+02:00*
G04 #@! TF.ProjectId,resetUSB,72657365745553422E6B696361645F70,1.0*
G04 #@! TF.SameCoordinates,PX29ff57cPY2521014*
G04 #@! TF.FileFunction,Legend,Top*
G04 #@! TF.FilePolarity,Positive*
%FSLAX46Y46*%
G04 Gerber Fmt 4.6, Leading zero omitted, Abs format (unit mm)*
G04 Created by KiCad (PCBNEW (5.0.0-rc2-dev-311-g1dd4af297)) date 07/24/18 10:12:30*
%MOMM*%
%LPD*%
G01*
G04 APERTURE LIST*
%ADD10C,0.300000*%
%ADD11C,0.150000*%
%ADD12C,0.250000*%
%ADD13C,0.100000*%
%ADD14C,0.200000*%
%ADD15C,0.120000*%
G04 APERTURE END LIST*
D10*
X25750000Y-36107142D02*
X26892857Y-36107142D01*
X27607142Y-35178571D02*
X27607142Y-36392857D01*
X27678571Y-36535714D01*
X27750000Y-36607142D01*
X27892857Y-36678571D01*
X28178571Y-36678571D01*
X28321428Y-36607142D01*
X28392857Y-36535714D01*
X28464285Y-36392857D01*
X28464285Y-35178571D01*
X29107142Y-36607142D02*
X29321428Y-36678571D01*
X29678571Y-36678571D01*
X29821428Y-36607142D01*
X29892857Y-36535714D01*
X29964285Y-36392857D01*
X29964285Y-36250000D01*
X29892857Y-36107142D01*
X29821428Y-36035714D01*
X29678571Y-35964285D01*
X29392857Y-35892857D01*
X29250000Y-35821428D01*
X29178571Y-35750000D01*
X29107142Y-35607142D01*
X29107142Y-35464285D01*
X29178571Y-35321428D01*
X29250000Y-35250000D01*
X29392857Y-35178571D01*
X29750000Y-35178571D01*
X29964285Y-35250000D01*
X31107142Y-35892857D02*
X31321428Y-35964285D01*
X31392857Y-36035714D01*
X31464285Y-36178571D01*
X31464285Y-36392857D01*
X31392857Y-36535714D01*
X31321428Y-36607142D01*
X31178571Y-36678571D01*
X30607142Y-36678571D01*
X30607142Y-35178571D01*
X31107142Y-35178571D01*
X31250000Y-35250000D01*
X31321428Y-35321428D01*
X31392857Y-35464285D01*
X31392857Y-35607142D01*
X31321428Y-35750000D01*
X31250000Y-35821428D01*
X31107142Y-35892857D01*
X30607142Y-35892857D01*
X32107142Y-36107142D02*
X33250000Y-36107142D01*
X63421428Y-41142857D02*
X63421428Y-40285714D01*
X63421428Y-40714285D02*
X64921428Y-40714285D01*
X64707142Y-40571428D01*
X64564285Y-40428571D01*
X64492857Y-40285714D01*
X64921428Y-42500000D02*
X64921428Y-41785714D01*
X64207142Y-41714285D01*
X64278571Y-41785714D01*
X64350000Y-41928571D01*
X64350000Y-42285714D01*
X64278571Y-42428571D01*
X64207142Y-42500000D01*
X64064285Y-42571428D01*
X63707142Y-42571428D01*
X63564285Y-42500000D01*
X63492857Y-42428571D01*
X63421428Y-42285714D01*
X63421428Y-41928571D01*
X63492857Y-41785714D01*
X63564285Y-41714285D01*
X63564285Y-43214285D02*
X63492857Y-43285714D01*
X63421428Y-43214285D01*
X63492857Y-43142857D01*
X63564285Y-43214285D01*
X63421428Y-43214285D01*
X64921428Y-44214285D02*
X64921428Y-44357142D01*
X64850000Y-44500000D01*
X64778571Y-44571428D01*
X64635714Y-44642857D01*
X64350000Y-44714285D01*
X63992857Y-44714285D01*
X63707142Y-44642857D01*
X63564285Y-44571428D01*
X63492857Y-44500000D01*
X63421428Y-44357142D01*
X63421428Y-44214285D01*
X63492857Y-44071428D01*
X63564285Y-44000000D01*
X63707142Y-43928571D01*
X63992857Y-43857142D01*
X64350000Y-43857142D01*
X64635714Y-43928571D01*
X64778571Y-44000000D01*
X64850000Y-44071428D01*
X64921428Y-44214285D01*
X64921428Y-45642857D02*
X64921428Y-45785714D01*
X64850000Y-45928571D01*
X64778571Y-46000000D01*
X64635714Y-46071428D01*
X64350000Y-46142857D01*
X63992857Y-46142857D01*
X63707142Y-46071428D01*
X63564285Y-46000000D01*
X63492857Y-45928571D01*
X63421428Y-45785714D01*
X63421428Y-45642857D01*
X63492857Y-45500000D01*
X63564285Y-45428571D01*
X63707142Y-45357142D01*
X63992857Y-45285714D01*
X64350000Y-45285714D01*
X64635714Y-45357142D01*
X64778571Y-45428571D01*
X64850000Y-45500000D01*
X64921428Y-45642857D01*
X64921428Y-47071428D02*
X64921428Y-47214285D01*
X64850000Y-47357142D01*
X64778571Y-47428571D01*
X64635714Y-47500000D01*
X64350000Y-47571428D01*
X63992857Y-47571428D01*
X63707142Y-47500000D01*
X63564285Y-47428571D01*
X63492857Y-47357142D01*
X63421428Y-47214285D01*
X63421428Y-47071428D01*
X63492857Y-46928571D01*
X63564285Y-46857142D01*
X63707142Y-46785714D01*
X63992857Y-46714285D01*
X64350000Y-46714285D01*
X64635714Y-46785714D01*
X64778571Y-46857142D01*
X64850000Y-46928571D01*
X64921428Y-47071428D01*
X63421428Y-49357142D02*
X64421428Y-49357142D01*
X64278571Y-49357142D02*
X64350000Y-49428571D01*
X64421428Y-49571428D01*
X64421428Y-49785714D01*
X64350000Y-49928571D01*
X64207142Y-50000000D01*
X63421428Y-50000000D01*
X64207142Y-50000000D02*
X64350000Y-50071428D01*
X64421428Y-50214285D01*
X64421428Y-50428571D01*
X64350000Y-50571428D01*
X64207142Y-50642857D01*
X63421428Y-50642857D01*
X63421428Y-51357142D02*
X64421428Y-51357142D01*
X64278571Y-51357142D02*
X64350000Y-51428571D01*
X64421428Y-51571428D01*
X64421428Y-51785714D01*
X64350000Y-51928571D01*
X64207142Y-52000000D01*
X63421428Y-52000000D01*
X64207142Y-52000000D02*
X64350000Y-52071428D01*
X64421428Y-52214285D01*
X64421428Y-52428571D01*
X64350000Y-52571428D01*
X64207142Y-52642857D01*
X63421428Y-52642857D01*
X62000000Y-39000000D02*
X62000000Y-54000000D01*
X45500000Y-39000000D02*
X62586421Y-39000000D01*
X45500000Y-54000000D02*
X62586421Y-54000000D01*
X62000000Y-54000000D02*
X61413579Y-52873496D01*
X62000000Y-54000000D02*
X62586421Y-52873496D01*
X62000000Y-39000000D02*
X61413579Y-40126504D01*
X62000000Y-39000000D02*
X62586421Y-40126504D01*
X59421428Y-37178571D02*
X59421428Y-38178571D01*
X57921428Y-37535714D01*
X58064285Y-38750000D02*
X57992857Y-38821428D01*
X57921428Y-38750000D01*
X57992857Y-38678571D01*
X58064285Y-38750000D01*
X57921428Y-38750000D01*
X59421428Y-40178571D02*
X59421428Y-39464285D01*
X58707142Y-39392857D01*
X58778571Y-39464285D01*
X58850000Y-39607142D01*
X58850000Y-39964285D01*
X58778571Y-40107142D01*
X58707142Y-40178571D01*
X58564285Y-40250000D01*
X58207142Y-40250000D01*
X58064285Y-40178571D01*
X57992857Y-40107142D01*
X57921428Y-39964285D01*
X57921428Y-39607142D01*
X57992857Y-39464285D01*
X58064285Y-39392857D01*
X59421428Y-41178571D02*
X59421428Y-41321428D01*
X59350000Y-41464285D01*
X59278571Y-41535714D01*
X59135714Y-41607142D01*
X58850000Y-41678571D01*
X58492857Y-41678571D01*
X58207142Y-41607142D01*
X58064285Y-41535714D01*
X57992857Y-41464285D01*
X57921428Y-41321428D01*
X57921428Y-41178571D01*
X57992857Y-41035714D01*
X58064285Y-40964285D01*
X58207142Y-40892857D01*
X58492857Y-40821428D01*
X58850000Y-40821428D01*
X59135714Y-40892857D01*
X59278571Y-40964285D01*
X59350000Y-41035714D01*
X59421428Y-41178571D01*
X59421428Y-42607142D02*
X59421428Y-42750000D01*
X59350000Y-42892857D01*
X59278571Y-42964285D01*
X59135714Y-43035714D01*
X58850000Y-43107142D01*
X58492857Y-43107142D01*
X58207142Y-43035714D01*
X58064285Y-42964285D01*
X57992857Y-42892857D01*
X57921428Y-42750000D01*
X57921428Y-42607142D01*
X57992857Y-42464285D01*
X58064285Y-42392857D01*
X58207142Y-42321428D01*
X58492857Y-42250000D01*
X58850000Y-42250000D01*
X59135714Y-42321428D01*
X59278571Y-42392857D01*
X59350000Y-42464285D01*
X59421428Y-42607142D01*
X57921428Y-44892857D02*
X58921428Y-44892857D01*
X58778571Y-44892857D02*
X58850000Y-44964285D01*
X58921428Y-45107142D01*
X58921428Y-45321428D01*
X58850000Y-45464285D01*
X58707142Y-45535714D01*
X57921428Y-45535714D01*
X58707142Y-45535714D02*
X58850000Y-45607142D01*
X58921428Y-45750000D01*
X58921428Y-45964285D01*
X58850000Y-46107142D01*
X58707142Y-46178571D01*
X57921428Y-46178571D01*
X57921428Y-46892857D02*
X58921428Y-46892857D01*
X58778571Y-46892857D02*
X58850000Y-46964285D01*
X58921428Y-47107142D01*
X58921428Y-47321428D01*
X58850000Y-47464285D01*
X58707142Y-47535714D01*
X57921428Y-47535714D01*
X58707142Y-47535714D02*
X58850000Y-47607142D01*
X58921428Y-47750000D01*
X58921428Y-47964285D01*
X58850000Y-48107142D01*
X58707142Y-48178571D01*
X57921428Y-48178571D01*
X56500000Y-39000000D02*
X56500000Y-46500000D01*
X45500000Y-39000000D02*
X57086421Y-39000000D01*
X45500000Y-46500000D02*
X57086421Y-46500000D01*
X56500000Y-46500000D02*
X55913579Y-45373496D01*
X56500000Y-46500000D02*
X57086421Y-45373496D01*
X56500000Y-39000000D02*
X55913579Y-40126504D01*
X56500000Y-39000000D02*
X57086421Y-40126504D01*
X-17421429Y-38035714D02*
X-17421429Y-37107142D01*
X-16850000Y-37607142D01*
X-16850000Y-37392857D01*
X-16778572Y-37250000D01*
X-16707143Y-37178571D01*
X-16564286Y-37107142D01*
X-16207143Y-37107142D01*
X-16064286Y-37178571D01*
X-15992858Y-37250000D01*
X-15921429Y-37392857D01*
X-15921429Y-37821428D01*
X-15992858Y-37964285D01*
X-16064286Y-38035714D01*
X-17278572Y-36535714D02*
X-17350000Y-36464285D01*
X-17421429Y-36321428D01*
X-17421429Y-35964285D01*
X-17350000Y-35821428D01*
X-17278572Y-35750000D01*
X-17135715Y-35678571D01*
X-16992858Y-35678571D01*
X-16778572Y-35750000D01*
X-15921429Y-36607142D01*
X-15921429Y-35678571D01*
X-16064286Y-35035714D02*
X-15992858Y-34964285D01*
X-15921429Y-35035714D01*
X-15992858Y-35107142D01*
X-16064286Y-35035714D01*
X-15921429Y-35035714D01*
X-17421429Y-33607142D02*
X-17421429Y-34321428D01*
X-16707143Y-34392857D01*
X-16778572Y-34321428D01*
X-16850000Y-34178571D01*
X-16850000Y-33821428D01*
X-16778572Y-33678571D01*
X-16707143Y-33607142D01*
X-16564286Y-33535714D01*
X-16207143Y-33535714D01*
X-16064286Y-33607142D01*
X-15992858Y-33678571D01*
X-15921429Y-33821428D01*
X-15921429Y-34178571D01*
X-15992858Y-34321428D01*
X-16064286Y-34392857D01*
X-17421429Y-32607142D02*
X-17421429Y-32464285D01*
X-17350000Y-32321428D01*
X-17278572Y-32250000D01*
X-17135715Y-32178571D01*
X-16850000Y-32107142D01*
X-16492858Y-32107142D01*
X-16207143Y-32178571D01*
X-16064286Y-32250000D01*
X-15992858Y-32321428D01*
X-15921429Y-32464285D01*
X-15921429Y-32607142D01*
X-15992858Y-32750000D01*
X-16064286Y-32821428D01*
X-16207143Y-32892857D01*
X-16492858Y-32964285D01*
X-16850000Y-32964285D01*
X-17135715Y-32892857D01*
X-17278572Y-32821428D01*
X-17350000Y-32750000D01*
X-17421429Y-32607142D01*
X-17421429Y-31178571D02*
X-17421429Y-31035714D01*
X-17350000Y-30892857D01*
X-17278572Y-30821428D01*
X-17135715Y-30750000D01*
X-16850000Y-30678571D01*
X-16492858Y-30678571D01*
X-16207143Y-30750000D01*
X-16064286Y-30821428D01*
X-15992858Y-30892857D01*
X-15921429Y-31035714D01*
X-15921429Y-31178571D01*
X-15992858Y-31321428D01*
X-16064286Y-31392857D01*
X-16207143Y-31464285D01*
X-16492858Y-31535714D01*
X-16850000Y-31535714D01*
X-17135715Y-31464285D01*
X-17278572Y-31392857D01*
X-17350000Y-31321428D01*
X-17421429Y-31178571D01*
X-15921429Y-28892857D02*
X-16921429Y-28892857D01*
X-16778572Y-28892857D02*
X-16850000Y-28821428D01*
X-16921429Y-28678571D01*
X-16921429Y-28464285D01*
X-16850000Y-28321428D01*
X-16707143Y-28250000D01*
X-15921429Y-28250000D01*
X-16707143Y-28250000D02*
X-16850000Y-28178571D01*
X-16921429Y-28035714D01*
X-16921429Y-27821428D01*
X-16850000Y-27678571D01*
X-16707143Y-27607142D01*
X-15921429Y-27607142D01*
X-15921429Y-26892857D02*
X-16921429Y-26892857D01*
X-16778572Y-26892857D02*
X-16850000Y-26821428D01*
X-16921429Y-26678571D01*
X-16921429Y-26464285D01*
X-16850000Y-26321428D01*
X-16707143Y-26250000D01*
X-15921429Y-26250000D01*
X-16707143Y-26250000D02*
X-16850000Y-26178571D01*
X-16921429Y-26035714D01*
X-16921429Y-25821428D01*
X-16850000Y-25678571D01*
X-16707143Y-25607142D01*
X-15921429Y-25607142D01*
X-14500000Y-48000000D02*
X-14500000Y-15500000D01*
X7000000Y-48000000D02*
X-15086421Y-48000000D01*
X7000000Y-15500000D02*
X-15086421Y-15500000D01*
X-14500000Y-15500000D02*
X-13913579Y-16626504D01*
X-14500000Y-15500000D02*
X-15086421Y-16626504D01*
X-14500000Y-48000000D02*
X-13913579Y-46873496D01*
X-14500000Y-48000000D02*
X-15086421Y-46873496D01*
D11*
X35952380Y-49119047D02*
X35952380Y-49690476D01*
X35952380Y-49404761D02*
X34952380Y-49404761D01*
X35095238Y-49500000D01*
X35190476Y-49595238D01*
X35238095Y-49690476D01*
X35047619Y-48738095D02*
X35000000Y-48690476D01*
X34952380Y-48595238D01*
X34952380Y-48357142D01*
X35000000Y-48261904D01*
X35047619Y-48214285D01*
X35142857Y-48166666D01*
X35238095Y-48166666D01*
X35380952Y-48214285D01*
X35952380Y-48785714D01*
X35952380Y-48166666D01*
X34952380Y-47880952D02*
X35952380Y-47547619D01*
X34952380Y-47214285D01*
D12*
X36274761Y-16438571D02*
X36417619Y-16486190D01*
X36465238Y-16533809D01*
X36512857Y-16629047D01*
X36512857Y-16771904D01*
X36465238Y-16867142D01*
X36417619Y-16914761D01*
X36322380Y-16962380D01*
X35941428Y-16962380D01*
X35941428Y-15962380D01*
X36274761Y-15962380D01*
X36370000Y-16010000D01*
X36417619Y-16057619D01*
X36465238Y-16152857D01*
X36465238Y-16248095D01*
X36417619Y-16343333D01*
X36370000Y-16390952D01*
X36274761Y-16438571D01*
X35941428Y-16438571D01*
X36941428Y-16438571D02*
X37274761Y-16438571D01*
X37417619Y-16962380D02*
X36941428Y-16962380D01*
X36941428Y-15962380D01*
X37417619Y-15962380D01*
X38417619Y-16962380D02*
X38084285Y-16486190D01*
X37846190Y-16962380D02*
X37846190Y-15962380D01*
X38227142Y-15962380D01*
X38322380Y-16010000D01*
X38370000Y-16057619D01*
X38417619Y-16152857D01*
X38417619Y-16295714D01*
X38370000Y-16390952D01*
X38322380Y-16438571D01*
X38227142Y-16486190D01*
X37846190Y-16486190D01*
X38846190Y-16962380D02*
X38846190Y-15962380D01*
X39322380Y-16962380D02*
X39322380Y-15962380D01*
X39893809Y-16962380D01*
X39893809Y-15962380D01*
X40893809Y-16010000D02*
X40798571Y-15962380D01*
X40655714Y-15962380D01*
X40512857Y-16010000D01*
X40417619Y-16105238D01*
X40370000Y-16200476D01*
X40322380Y-16390952D01*
X40322380Y-16533809D01*
X40370000Y-16724285D01*
X40417619Y-16819523D01*
X40512857Y-16914761D01*
X40655714Y-16962380D01*
X40750952Y-16962380D01*
X40893809Y-16914761D01*
X40941428Y-16867142D01*
X40941428Y-16533809D01*
X40750952Y-16533809D01*
X41370000Y-16438571D02*
X41703333Y-16438571D01*
X41846190Y-16962380D02*
X41370000Y-16962380D01*
X41370000Y-15962380D01*
X41846190Y-15962380D01*
X42846190Y-16962380D02*
X42512857Y-16486190D01*
X42274761Y-16962380D02*
X42274761Y-15962380D01*
X42655714Y-15962380D01*
X42750952Y-16010000D01*
X42798571Y-16057619D01*
X42846190Y-16152857D01*
X42846190Y-16295714D01*
X42798571Y-16390952D01*
X42750952Y-16438571D01*
X42655714Y-16486190D01*
X42274761Y-16486190D01*
D10*
X38735142Y-45128571D02*
X38735142Y-43628571D01*
X39306571Y-43628571D01*
X39449428Y-43700000D01*
X39520857Y-43771428D01*
X39592285Y-43914285D01*
X39592285Y-44128571D01*
X39520857Y-44271428D01*
X39449428Y-44342857D01*
X39306571Y-44414285D01*
X38735142Y-44414285D01*
X41092285Y-44985714D02*
X41020857Y-45057142D01*
X40806571Y-45128571D01*
X40663714Y-45128571D01*
X40449428Y-45057142D01*
X40306571Y-44914285D01*
X40235142Y-44771428D01*
X40163714Y-44485714D01*
X40163714Y-44271428D01*
X40235142Y-43985714D01*
X40306571Y-43842857D01*
X40449428Y-43700000D01*
X40663714Y-43628571D01*
X40806571Y-43628571D01*
X41020857Y-43700000D01*
X41092285Y-43771428D01*
D13*
X14622428Y-32953285D02*
X14022428Y-32953285D01*
X14022428Y-32553285D02*
X14022428Y-32439000D01*
X14051000Y-32381857D01*
X14108142Y-32324714D01*
X14222428Y-32296142D01*
X14422428Y-32296142D01*
X14536714Y-32324714D01*
X14593857Y-32381857D01*
X14622428Y-32439000D01*
X14622428Y-32553285D01*
X14593857Y-32610428D01*
X14536714Y-32667571D01*
X14422428Y-32696142D01*
X14222428Y-32696142D01*
X14108142Y-32667571D01*
X14051000Y-32610428D01*
X14022428Y-32553285D01*
X14051000Y-35636142D02*
X14022428Y-35693285D01*
X14022428Y-35779000D01*
X14051000Y-35864714D01*
X14108142Y-35921857D01*
X14165285Y-35950428D01*
X14279571Y-35979000D01*
X14365285Y-35979000D01*
X14479571Y-35950428D01*
X14536714Y-35921857D01*
X14593857Y-35864714D01*
X14622428Y-35779000D01*
X14622428Y-35721857D01*
X14593857Y-35636142D01*
X14565285Y-35607571D01*
X14365285Y-35607571D01*
X14365285Y-35721857D01*
X14622428Y-35350428D02*
X14022428Y-35350428D01*
X14622428Y-35007571D01*
X14022428Y-35007571D01*
X14622428Y-34721857D02*
X14022428Y-34721857D01*
X14022428Y-34579000D01*
X14051000Y-34493285D01*
X14108142Y-34436142D01*
X14165285Y-34407571D01*
X14279571Y-34379000D01*
X14365285Y-34379000D01*
X14479571Y-34407571D01*
X14536714Y-34436142D01*
X14593857Y-34493285D01*
X14622428Y-34579000D01*
X14622428Y-34721857D01*
X14565285Y-38076142D02*
X14593857Y-38104714D01*
X14622428Y-38190428D01*
X14622428Y-38247571D01*
X14593857Y-38333285D01*
X14536714Y-38390428D01*
X14479571Y-38419000D01*
X14365285Y-38447571D01*
X14279571Y-38447571D01*
X14165285Y-38419000D01*
X14108142Y-38390428D01*
X14051000Y-38333285D01*
X14022428Y-38247571D01*
X14022428Y-38190428D01*
X14051000Y-38104714D01*
X14079571Y-38076142D01*
X14622428Y-37533285D02*
X14622428Y-37819000D01*
X14022428Y-37819000D01*
X14622428Y-37333285D02*
X14022428Y-37333285D01*
X14622428Y-36990428D02*
X14279571Y-37247571D01*
X14022428Y-36990428D02*
X14365285Y-37333285D01*
X14022428Y-40874857D02*
X14022428Y-40503428D01*
X14251000Y-40703428D01*
X14251000Y-40617714D01*
X14279571Y-40560571D01*
X14308142Y-40532000D01*
X14365285Y-40503428D01*
X14508142Y-40503428D01*
X14565285Y-40532000D01*
X14593857Y-40560571D01*
X14622428Y-40617714D01*
X14622428Y-40789142D01*
X14593857Y-40846285D01*
X14565285Y-40874857D01*
X14022428Y-40332000D02*
X14622428Y-40132000D01*
X14022428Y-39932000D01*
X14022428Y-39789142D02*
X14022428Y-39417714D01*
X14251000Y-39617714D01*
X14251000Y-39532000D01*
X14279571Y-39474857D01*
X14308142Y-39446285D01*
X14365285Y-39417714D01*
X14508142Y-39417714D01*
X14565285Y-39446285D01*
X14593857Y-39474857D01*
X14622428Y-39532000D01*
X14622428Y-39703428D01*
X14593857Y-39760571D01*
X14565285Y-39789142D01*
D11*
X0Y-165000000D02*
X0Y0D01*
X45000000Y-165000000D02*
X0Y-165000000D01*
X45000000Y0D02*
X45000000Y-165000000D01*
X0Y0D02*
X45000000Y0D01*
D10*
X25750000Y-20607142D02*
X26892857Y-20607142D01*
X26321428Y-21178571D02*
X26321428Y-20035714D01*
X27607142Y-19678571D02*
X27607142Y-20892857D01*
X27678571Y-21035714D01*
X27750000Y-21107142D01*
X27892857Y-21178571D01*
X28178571Y-21178571D01*
X28321428Y-21107142D01*
X28392857Y-21035714D01*
X28464285Y-20892857D01*
X28464285Y-19678571D01*
X29107142Y-21107142D02*
X29321428Y-21178571D01*
X29678571Y-21178571D01*
X29821428Y-21107142D01*
X29892857Y-21035714D01*
X29964285Y-20892857D01*
X29964285Y-20750000D01*
X29892857Y-20607142D01*
X29821428Y-20535714D01*
X29678571Y-20464285D01*
X29392857Y-20392857D01*
X29250000Y-20321428D01*
X29178571Y-20250000D01*
X29107142Y-20107142D01*
X29107142Y-19964285D01*
X29178571Y-19821428D01*
X29250000Y-19750000D01*
X29392857Y-19678571D01*
X29750000Y-19678571D01*
X29964285Y-19750000D01*
X31107142Y-20392857D02*
X31321428Y-20464285D01*
X31392857Y-20535714D01*
X31464285Y-20678571D01*
X31464285Y-20892857D01*
X31392857Y-21035714D01*
X31321428Y-21107142D01*
X31178571Y-21178571D01*
X30607142Y-21178571D01*
X30607142Y-19678571D01*
X31107142Y-19678571D01*
X31250000Y-19750000D01*
X31321428Y-19821428D01*
X31392857Y-19964285D01*
X31392857Y-20107142D01*
X31321428Y-20250000D01*
X31250000Y-20321428D01*
X31107142Y-20392857D01*
X30607142Y-20392857D01*
X32107142Y-20607142D02*
X33250000Y-20607142D01*
X32678571Y-21178571D02*
X32678571Y-20035714D01*
X26544000Y-152999714D02*
X26486857Y-153114000D01*
X26486857Y-153285428D01*
X26544000Y-153456857D01*
X26658285Y-153571142D01*
X26772571Y-153628285D01*
X27001142Y-153685428D01*
X27172571Y-153685428D01*
X27401142Y-153628285D01*
X27515428Y-153571142D01*
X27629714Y-153456857D01*
X27686857Y-153285428D01*
X27686857Y-153171142D01*
X27629714Y-152999714D01*
X27572571Y-152942571D01*
X27172571Y-152942571D01*
X27172571Y-153171142D01*
X27686857Y-151856857D02*
X27686857Y-152428285D01*
X26486857Y-152428285D01*
X27115428Y-152599714D02*
X26886857Y-152256857D01*
X26486857Y-151228285D02*
X26486857Y-150999714D01*
X26544000Y-150885428D01*
X26658285Y-150771142D01*
X26886857Y-150714000D01*
X27286857Y-150714000D01*
X27515428Y-150771142D01*
X27629714Y-150885428D01*
X27686857Y-150999714D01*
X27686857Y-151228285D01*
X27629714Y-151342571D01*
X27515428Y-151456857D01*
X27286857Y-151514000D01*
X26886857Y-151514000D01*
X26658285Y-151456857D01*
X26544000Y-151342571D01*
X26486857Y-151228285D01*
X27629714Y-150256857D02*
X27686857Y-150085428D01*
X27686857Y-149799714D01*
X27629714Y-149685428D01*
X27572571Y-149628285D01*
X27458285Y-149571142D01*
X27344000Y-149571142D01*
X27229714Y-149628285D01*
X27172571Y-149685428D01*
X27115428Y-149799714D01*
X27058285Y-150028285D01*
X27001142Y-150142571D01*
X26944000Y-150199714D01*
X26829714Y-150256857D01*
X26715428Y-150256857D01*
X26601142Y-150199714D01*
X26544000Y-150142571D01*
X26486857Y-150028285D01*
X26486857Y-149742571D01*
X26544000Y-149571142D01*
X26029714Y-149799714D02*
X26201142Y-149971142D01*
X27686857Y-149056857D02*
X26486857Y-149056857D01*
X27686857Y-148371142D01*
X26486857Y-148371142D01*
X27686857Y-147799714D02*
X26486857Y-147799714D01*
X27686857Y-147228285D02*
X26486857Y-147228285D01*
X27686857Y-146542571D02*
X27001142Y-147056857D01*
X26486857Y-146542571D02*
X27172571Y-147228285D01*
X29786857Y-151485428D02*
X29786857Y-152056857D01*
X28586857Y-152056857D01*
X29158285Y-151085428D02*
X29158285Y-150685428D01*
X29786857Y-150514000D02*
X29786857Y-151085428D01*
X28586857Y-151085428D01*
X28586857Y-150514000D01*
X28586857Y-150114000D02*
X29786857Y-149828285D01*
X28929714Y-149599714D01*
X29786857Y-149371142D01*
X28586857Y-149085428D01*
X29215428Y-148399714D02*
X29786857Y-148399714D01*
X28586857Y-148799714D02*
X29215428Y-148399714D01*
X28586857Y-147999714D01*
D14*
X44298380Y-65468476D02*
X43298380Y-65468476D01*
X43298380Y-65087523D01*
X43346000Y-64992285D01*
X43393619Y-64944666D01*
X43488857Y-64897047D01*
X43631714Y-64897047D01*
X43726952Y-64944666D01*
X43774571Y-64992285D01*
X43822190Y-65087523D01*
X43822190Y-65468476D01*
X44298380Y-63897047D02*
X43822190Y-64230380D01*
X44298380Y-64468476D02*
X43298380Y-64468476D01*
X43298380Y-64087523D01*
X43346000Y-63992285D01*
X43393619Y-63944666D01*
X43488857Y-63897047D01*
X43631714Y-63897047D01*
X43726952Y-63944666D01*
X43774571Y-63992285D01*
X43822190Y-64087523D01*
X43822190Y-64468476D01*
X44012666Y-63516095D02*
X44012666Y-63039904D01*
X44298380Y-63611333D02*
X43298380Y-63278000D01*
X44298380Y-62944666D01*
X43298380Y-62706571D02*
X44298380Y-62468476D01*
X43584095Y-62278000D01*
X44298380Y-62087523D01*
X43298380Y-61849428D01*
X43822190Y-61278000D02*
X44298380Y-61278000D01*
X43298380Y-61611333D02*
X43822190Y-61278000D01*
X43298380Y-60944666D01*
D10*
X26290000Y-116423714D02*
X26232857Y-116538000D01*
X26232857Y-116709428D01*
X26290000Y-116880857D01*
X26404285Y-116995142D01*
X26518571Y-117052285D01*
X26747142Y-117109428D01*
X26918571Y-117109428D01*
X27147142Y-117052285D01*
X27261428Y-116995142D01*
X27375714Y-116880857D01*
X27432857Y-116709428D01*
X27432857Y-116595142D01*
X27375714Y-116423714D01*
X27318571Y-116366571D01*
X26918571Y-116366571D01*
X26918571Y-116595142D01*
X27432857Y-115280857D02*
X27432857Y-115852285D01*
X26232857Y-115852285D01*
X26861428Y-116023714D02*
X26632857Y-115680857D01*
X26232857Y-114652285D02*
X26232857Y-114423714D01*
X26290000Y-114309428D01*
X26404285Y-114195142D01*
X26632857Y-114138000D01*
X27032857Y-114138000D01*
X27261428Y-114195142D01*
X27375714Y-114309428D01*
X27432857Y-114423714D01*
X27432857Y-114652285D01*
X27375714Y-114766571D01*
X27261428Y-114880857D01*
X27032857Y-114938000D01*
X26632857Y-114938000D01*
X26404285Y-114880857D01*
X26290000Y-114766571D01*
X26232857Y-114652285D01*
X27375714Y-113680857D02*
X27432857Y-113509428D01*
X27432857Y-113223714D01*
X27375714Y-113109428D01*
X27318571Y-113052285D01*
X27204285Y-112995142D01*
X27090000Y-112995142D01*
X26975714Y-113052285D01*
X26918571Y-113109428D01*
X26861428Y-113223714D01*
X26804285Y-113452285D01*
X26747142Y-113566571D01*
X26690000Y-113623714D01*
X26575714Y-113680857D01*
X26461428Y-113680857D01*
X26347142Y-113623714D01*
X26290000Y-113566571D01*
X26232857Y-113452285D01*
X26232857Y-113166571D01*
X26290000Y-112995142D01*
X25775714Y-113223714D02*
X25947142Y-113395142D01*
X27432857Y-112480857D02*
X26232857Y-112480857D01*
X27432857Y-111795142D01*
X26232857Y-111795142D01*
X27432857Y-111223714D02*
X26232857Y-111223714D01*
X27432857Y-110652285D02*
X26232857Y-110652285D01*
X27432857Y-109966571D02*
X26747142Y-110480857D01*
X26232857Y-109966571D02*
X26918571Y-110652285D01*
X29532857Y-116166571D02*
X28332857Y-116166571D01*
X28332857Y-115709428D01*
X28390000Y-115595142D01*
X28447142Y-115538000D01*
X28561428Y-115480857D01*
X28732857Y-115480857D01*
X28847142Y-115538000D01*
X28904285Y-115595142D01*
X28961428Y-115709428D01*
X28961428Y-116166571D01*
X29532857Y-114280857D02*
X28961428Y-114680857D01*
X29532857Y-114966571D02*
X28332857Y-114966571D01*
X28332857Y-114509428D01*
X28390000Y-114395142D01*
X28447142Y-114338000D01*
X28561428Y-114280857D01*
X28732857Y-114280857D01*
X28847142Y-114338000D01*
X28904285Y-114395142D01*
X28961428Y-114509428D01*
X28961428Y-114966571D01*
X29190000Y-113823714D02*
X29190000Y-113252285D01*
X29532857Y-113938000D02*
X28332857Y-113538000D01*
X29532857Y-113138000D01*
X28332857Y-112852285D02*
X29532857Y-112566571D01*
X28675714Y-112338000D01*
X29532857Y-112109428D01*
X28332857Y-111823714D01*
X28961428Y-111138000D02*
X29532857Y-111138000D01*
X28332857Y-111538000D02*
X28961428Y-111138000D01*
X28332857Y-110738000D01*
D11*
X14803380Y-59547047D02*
X14803380Y-60118476D01*
X14803380Y-59832761D02*
X13803380Y-59832761D01*
X13946238Y-59928000D01*
X14041476Y-60023238D01*
X14089095Y-60118476D01*
X13898619Y-59166095D02*
X13851000Y-59118476D01*
X13803380Y-59023238D01*
X13803380Y-58785142D01*
X13851000Y-58689904D01*
X13898619Y-58642285D01*
X13993857Y-58594666D01*
X14089095Y-58594666D01*
X14231952Y-58642285D01*
X14803380Y-59213714D01*
X14803380Y-58594666D01*
X13803380Y-58308952D02*
X14803380Y-57975619D01*
X13803380Y-57642285D01*
D15*
X37072904Y-48866666D02*
X36691952Y-49133333D01*
X37072904Y-49323809D02*
X36272904Y-49323809D01*
X36272904Y-49019047D01*
X36311000Y-48942857D01*
X36349095Y-48904761D01*
X36425285Y-48866666D01*
X36539571Y-48866666D01*
X36615761Y-48904761D01*
X36653857Y-48942857D01*
X36691952Y-49019047D01*
X36691952Y-49323809D01*
X36272904Y-48600000D02*
X36272904Y-48066666D01*
X37072904Y-48600000D01*
X37072904Y-48066666D01*
X36272904Y-47761904D02*
X36920523Y-47761904D01*
X36996714Y-47723809D01*
X37034809Y-47685714D01*
X37072904Y-47609523D01*
X37072904Y-47457142D01*
X37034809Y-47380952D01*
X36996714Y-47342857D01*
X36920523Y-47304761D01*
X36272904Y-47304761D01*
X36272904Y-47038095D02*
X36272904Y-46580952D01*
X37072904Y-46809523D02*
X36272904Y-46809523D01*
X37072904Y-46314285D02*
X36272904Y-46314285D01*
X37072904Y-45857142D01*
X36272904Y-45857142D01*
X37072904Y-45476190D02*
X36272904Y-45476190D01*
X37072904Y-45095238D02*
X36272904Y-45095238D01*
X37072904Y-44638095D02*
X36615761Y-44980952D01*
X36272904Y-44638095D02*
X36730047Y-45095238D01*
X37572904Y-56609523D02*
X36772904Y-56609523D01*
X36772904Y-56304761D01*
X36811000Y-56228571D01*
X36849095Y-56190476D01*
X36925285Y-56152380D01*
X37039571Y-56152380D01*
X37115761Y-56190476D01*
X37153857Y-56228571D01*
X37191952Y-56304761D01*
X37191952Y-56609523D01*
X37496714Y-55352380D02*
X37534809Y-55390476D01*
X37572904Y-55504761D01*
X37572904Y-55580952D01*
X37534809Y-55695238D01*
X37458619Y-55771428D01*
X37382428Y-55809523D01*
X37230047Y-55847619D01*
X37115761Y-55847619D01*
X36963380Y-55809523D01*
X36887190Y-55771428D01*
X36811000Y-55695238D01*
X36772904Y-55580952D01*
X36772904Y-55504761D01*
X36811000Y-55390476D01*
X36849095Y-55352380D01*
X37572904Y-55566666D02*
X36772904Y-55566666D01*
X36772904Y-55261904D01*
X36811000Y-55185714D01*
X36849095Y-55147619D01*
X36925285Y-55109523D01*
X37039571Y-55109523D01*
X37115761Y-55147619D01*
X37153857Y-55185714D01*
X37191952Y-55261904D01*
X37191952Y-55566666D01*
X36772904Y-54842857D02*
X37572904Y-54652380D01*
X37001476Y-54500000D01*
X37572904Y-54347619D01*
X36772904Y-54157142D01*
X37572904Y-53395238D02*
X37191952Y-53661904D01*
X37572904Y-53852380D02*
X36772904Y-53852380D01*
X36772904Y-53547619D01*
X36811000Y-53471428D01*
X36849095Y-53433333D01*
X36925285Y-53395238D01*
X37039571Y-53395238D01*
X37115761Y-53433333D01*
X37153857Y-53471428D01*
X37191952Y-53547619D01*
X37191952Y-53852380D01*
D10*
X38735142Y-21760571D02*
X38735142Y-20260571D01*
X39306571Y-20260571D01*
X39449428Y-20332000D01*
X39520857Y-20403428D01*
X39592285Y-20546285D01*
X39592285Y-20760571D01*
X39520857Y-20903428D01*
X39449428Y-20974857D01*
X39306571Y-21046285D01*
X38735142Y-21046285D01*
X41092285Y-21617714D02*
X41020857Y-21689142D01*
X40806571Y-21760571D01*
X40663714Y-21760571D01*
X40449428Y-21689142D01*
X40306571Y-21546285D01*
X40235142Y-21403428D01*
X40163714Y-21117714D01*
X40163714Y-20903428D01*
X40235142Y-20617714D01*
X40306571Y-20474857D01*
X40449428Y-20332000D01*
X40663714Y-20260571D01*
X40806571Y-20260571D01*
X41020857Y-20332000D01*
X41092285Y-20403428D01*
D11*
X57000000Y-166000000D02*
X41000000Y-166000000D01*
X57000000Y-101000000D02*
X57000000Y-166000000D01*
X41000000Y-101000000D02*
X57000000Y-101000000D01*
X41000000Y-166000000D02*
X37000000Y-166000000D01*
X41000000Y-101000000D02*
X41000000Y-166000000D01*
X37000000Y-101000000D02*
X41000000Y-101000000D01*
X37000000Y-166000000D02*
X37000000Y-101000000D01*
D15*
X35078000Y-38676000D02*
X35078000Y-17856000D01*
X35078000Y-17856000D02*
X44678000Y-17856000D01*
X44678000Y-17856000D02*
X44678000Y-38676000D01*
X44678000Y-38676000D02*
X35078000Y-38676000D01*
D11*
X19426000Y-60984000D02*
X2926000Y-60984000D01*
X2926000Y-60984000D02*
X2926000Y-63984000D01*
X2926000Y-63984000D02*
X19426000Y-63984000D01*
X19426000Y-63984000D02*
X19426000Y-60984000D01*
D15*
X34573000Y-94742000D02*
G75*
G03X34573000Y-94742000I-8090000J0D01*
G01*
X26483000Y-86691000D02*
X26483000Y-102793000D01*
X26523000Y-86692000D02*
X26523000Y-102792000D01*
X26563000Y-86692000D02*
X26563000Y-102792000D01*
X26603000Y-86692000D02*
X26603000Y-102792000D01*
X26643000Y-86693000D02*
X26643000Y-102791000D01*
X26683000Y-86694000D02*
X26683000Y-102790000D01*
X26723000Y-86695000D02*
X26723000Y-102789000D01*
X26763000Y-86696000D02*
X26763000Y-102788000D01*
X26803000Y-86698000D02*
X26803000Y-102786000D01*
X26843000Y-86700000D02*
X26843000Y-102784000D01*
X26883000Y-86701000D02*
X26883000Y-102783000D01*
X26923000Y-86703000D02*
X26923000Y-102781000D01*
X26963000Y-86706000D02*
X26963000Y-102778000D01*
X27003000Y-86708000D02*
X27003000Y-102776000D01*
X27043000Y-86711000D02*
X27043000Y-102773000D01*
X27083000Y-86714000D02*
X27083000Y-102770000D01*
X27123000Y-86717000D02*
X27123000Y-102767000D01*
X27163000Y-86720000D02*
X27163000Y-102764000D01*
X27204000Y-86724000D02*
X27204000Y-102760000D01*
X27244000Y-86727000D02*
X27244000Y-102757000D01*
X27284000Y-86731000D02*
X27284000Y-102753000D01*
X27324000Y-86735000D02*
X27324000Y-102749000D01*
X27364000Y-86740000D02*
X27364000Y-102744000D01*
X27404000Y-86744000D02*
X27404000Y-102740000D01*
X27444000Y-86749000D02*
X27444000Y-102735000D01*
X27484000Y-86754000D02*
X27484000Y-102730000D01*
X27524000Y-86759000D02*
X27524000Y-102725000D01*
X27564000Y-86764000D02*
X27564000Y-102720000D01*
X27604000Y-86769000D02*
X27604000Y-102715000D01*
X27644000Y-86775000D02*
X27644000Y-102709000D01*
X27684000Y-86781000D02*
X27684000Y-102703000D01*
X27724000Y-86787000D02*
X27724000Y-102697000D01*
X27764000Y-86793000D02*
X27764000Y-102691000D01*
X27804000Y-86800000D02*
X27804000Y-102684000D01*
X27844000Y-86807000D02*
X27844000Y-102677000D01*
X27884000Y-86814000D02*
X27884000Y-102670000D01*
X27924000Y-86821000D02*
X27924000Y-102663000D01*
X27964000Y-86828000D02*
X27964000Y-102656000D01*
X28004000Y-86836000D02*
X28004000Y-102648000D01*
X28044000Y-86843000D02*
X28044000Y-102641000D01*
X28084000Y-86851000D02*
X28084000Y-102633000D01*
X28124000Y-86859000D02*
X28124000Y-102625000D01*
X28164000Y-86868000D02*
X28164000Y-102616000D01*
X28204000Y-86876000D02*
X28204000Y-102608000D01*
X28244000Y-86885000D02*
X28244000Y-102599000D01*
X28284000Y-86894000D02*
X28284000Y-102590000D01*
X28324000Y-86904000D02*
X28324000Y-102580000D01*
X28364000Y-86913000D02*
X28364000Y-102571000D01*
X28404000Y-86923000D02*
X28404000Y-102561000D01*
X28444000Y-86933000D02*
X28444000Y-102551000D01*
X28484000Y-86943000D02*
X28484000Y-102541000D01*
X28524000Y-86953000D02*
X28524000Y-102531000D01*
X28564000Y-86963000D02*
X28564000Y-102521000D01*
X28604000Y-86974000D02*
X28604000Y-102510000D01*
X28644000Y-86985000D02*
X28644000Y-102499000D01*
X28684000Y-86996000D02*
X28684000Y-102488000D01*
X28724000Y-87008000D02*
X28724000Y-102476000D01*
X28764000Y-87019000D02*
X28764000Y-102465000D01*
X28804000Y-87031000D02*
X28804000Y-102453000D01*
X28844000Y-87043000D02*
X28844000Y-102441000D01*
X28884000Y-87056000D02*
X28884000Y-93362000D01*
X28884000Y-96122000D02*
X28884000Y-102428000D01*
X28924000Y-87068000D02*
X28924000Y-93362000D01*
X28924000Y-96122000D02*
X28924000Y-102416000D01*
X28964000Y-87081000D02*
X28964000Y-93362000D01*
X28964000Y-96122000D02*
X28964000Y-102403000D01*
X29004000Y-87094000D02*
X29004000Y-93362000D01*
X29004000Y-96122000D02*
X29004000Y-102390000D01*
X29044000Y-87107000D02*
X29044000Y-93362000D01*
X29044000Y-96122000D02*
X29044000Y-102377000D01*
X29084000Y-87121000D02*
X29084000Y-93362000D01*
X29084000Y-96122000D02*
X29084000Y-102363000D01*
X29124000Y-87134000D02*
X29124000Y-93362000D01*
X29124000Y-96122000D02*
X29124000Y-102350000D01*
X29164000Y-87148000D02*
X29164000Y-93362000D01*
X29164000Y-96122000D02*
X29164000Y-102336000D01*
X29204000Y-87162000D02*
X29204000Y-93362000D01*
X29204000Y-96122000D02*
X29204000Y-102322000D01*
X29244000Y-87177000D02*
X29244000Y-93362000D01*
X29244000Y-96122000D02*
X29244000Y-102307000D01*
X29284000Y-87192000D02*
X29284000Y-93362000D01*
X29284000Y-96122000D02*
X29284000Y-102292000D01*
X29324000Y-87206000D02*
X29324000Y-93362000D01*
X29324000Y-96122000D02*
X29324000Y-102278000D01*
X29364000Y-87221000D02*
X29364000Y-93362000D01*
X29364000Y-96122000D02*
X29364000Y-102263000D01*
X29404000Y-87237000D02*
X29404000Y-93362000D01*
X29404000Y-96122000D02*
X29404000Y-102247000D01*
X29444000Y-87252000D02*
X29444000Y-93362000D01*
X29444000Y-96122000D02*
X29444000Y-102232000D01*
X29484000Y-87268000D02*
X29484000Y-93362000D01*
X29484000Y-96122000D02*
X29484000Y-102216000D01*
X29524000Y-87284000D02*
X29524000Y-93362000D01*
X29524000Y-96122000D02*
X29524000Y-102200000D01*
X29564000Y-87301000D02*
X29564000Y-93362000D01*
X29564000Y-96122000D02*
X29564000Y-102183000D01*
X29604000Y-87317000D02*
X29604000Y-93362000D01*
X29604000Y-96122000D02*
X29604000Y-102167000D01*
X29644000Y-87334000D02*
X29644000Y-93362000D01*
X29644000Y-96122000D02*
X29644000Y-102150000D01*
X29684000Y-87351000D02*
X29684000Y-93362000D01*
X29684000Y-96122000D02*
X29684000Y-102133000D01*
X29724000Y-87369000D02*
X29724000Y-93362000D01*
X29724000Y-96122000D02*
X29724000Y-102115000D01*
X29764000Y-87386000D02*
X29764000Y-93362000D01*
X29764000Y-96122000D02*
X29764000Y-102098000D01*
X29804000Y-87404000D02*
X29804000Y-93362000D01*
X29804000Y-96122000D02*
X29804000Y-102080000D01*
X29844000Y-87422000D02*
X29844000Y-93362000D01*
X29844000Y-96122000D02*
X29844000Y-102062000D01*
X29884000Y-87441000D02*
X29884000Y-93362000D01*
X29884000Y-96122000D02*
X29884000Y-102043000D01*
X29924000Y-87459000D02*
X29924000Y-93362000D01*
X29924000Y-96122000D02*
X29924000Y-102025000D01*
X29964000Y-87478000D02*
X29964000Y-93362000D01*
X29964000Y-96122000D02*
X29964000Y-102006000D01*
X30004000Y-87497000D02*
X30004000Y-93362000D01*
X30004000Y-96122000D02*
X30004000Y-101987000D01*
X30044000Y-87517000D02*
X30044000Y-93362000D01*
X30044000Y-96122000D02*
X30044000Y-101967000D01*
X30084000Y-87537000D02*
X30084000Y-93362000D01*
X30084000Y-96122000D02*
X30084000Y-101947000D01*
X30124000Y-87557000D02*
X30124000Y-93362000D01*
X30124000Y-96122000D02*
X30124000Y-101927000D01*
X30164000Y-87577000D02*
X30164000Y-93362000D01*
X30164000Y-96122000D02*
X30164000Y-101907000D01*
X30204000Y-87598000D02*
X30204000Y-93362000D01*
X30204000Y-96122000D02*
X30204000Y-101886000D01*
X30244000Y-87618000D02*
X30244000Y-93362000D01*
X30244000Y-96122000D02*
X30244000Y-101866000D01*
X30284000Y-87640000D02*
X30284000Y-93362000D01*
X30284000Y-96122000D02*
X30284000Y-101844000D01*
X30324000Y-87661000D02*
X30324000Y-93362000D01*
X30324000Y-96122000D02*
X30324000Y-101823000D01*
X30364000Y-87683000D02*
X30364000Y-93362000D01*
X30364000Y-96122000D02*
X30364000Y-101801000D01*
X30404000Y-87705000D02*
X30404000Y-93362000D01*
X30404000Y-96122000D02*
X30404000Y-101779000D01*
X30444000Y-87727000D02*
X30444000Y-93362000D01*
X30444000Y-96122000D02*
X30444000Y-101757000D01*
X30484000Y-87750000D02*
X30484000Y-93362000D01*
X30484000Y-96122000D02*
X30484000Y-101734000D01*
X30524000Y-87772000D02*
X30524000Y-93362000D01*
X30524000Y-96122000D02*
X30524000Y-101712000D01*
X30564000Y-87796000D02*
X30564000Y-93362000D01*
X30564000Y-96122000D02*
X30564000Y-101688000D01*
X30604000Y-87819000D02*
X30604000Y-93362000D01*
X30604000Y-96122000D02*
X30604000Y-101665000D01*
X30644000Y-87843000D02*
X30644000Y-93362000D01*
X30644000Y-96122000D02*
X30644000Y-101641000D01*
X30684000Y-87867000D02*
X30684000Y-93362000D01*
X30684000Y-96122000D02*
X30684000Y-101617000D01*
X30724000Y-87892000D02*
X30724000Y-93362000D01*
X30724000Y-96122000D02*
X30724000Y-101592000D01*
X30764000Y-87916000D02*
X30764000Y-93362000D01*
X30764000Y-96122000D02*
X30764000Y-101568000D01*
X30804000Y-87941000D02*
X30804000Y-93362000D01*
X30804000Y-96122000D02*
X30804000Y-101543000D01*
X30844000Y-87967000D02*
X30844000Y-93362000D01*
X30844000Y-96122000D02*
X30844000Y-101517000D01*
X30884000Y-87993000D02*
X30884000Y-93362000D01*
X30884000Y-96122000D02*
X30884000Y-101491000D01*
X30924000Y-88019000D02*
X30924000Y-93362000D01*
X30924000Y-96122000D02*
X30924000Y-101465000D01*
X30964000Y-88045000D02*
X30964000Y-93362000D01*
X30964000Y-96122000D02*
X30964000Y-101439000D01*
X31004000Y-88072000D02*
X31004000Y-93362000D01*
X31004000Y-96122000D02*
X31004000Y-101412000D01*
X31044000Y-88099000D02*
X31044000Y-93362000D01*
X31044000Y-96122000D02*
X31044000Y-101385000D01*
X31084000Y-88127000D02*
X31084000Y-93362000D01*
X31084000Y-96122000D02*
X31084000Y-101357000D01*
X31124000Y-88154000D02*
X31124000Y-93362000D01*
X31124000Y-96122000D02*
X31124000Y-101330000D01*
X31164000Y-88183000D02*
X31164000Y-93362000D01*
X31164000Y-96122000D02*
X31164000Y-101301000D01*
X31204000Y-88211000D02*
X31204000Y-93362000D01*
X31204000Y-96122000D02*
X31204000Y-101273000D01*
X31244000Y-88240000D02*
X31244000Y-93362000D01*
X31244000Y-96122000D02*
X31244000Y-101244000D01*
X31284000Y-88269000D02*
X31284000Y-93362000D01*
X31284000Y-96122000D02*
X31284000Y-101215000D01*
X31324000Y-88299000D02*
X31324000Y-93362000D01*
X31324000Y-96122000D02*
X31324000Y-101185000D01*
X31364000Y-88329000D02*
X31364000Y-93362000D01*
X31364000Y-96122000D02*
X31364000Y-101155000D01*
X31404000Y-88360000D02*
X31404000Y-93362000D01*
X31404000Y-96122000D02*
X31404000Y-101124000D01*
X31444000Y-88390000D02*
X31444000Y-93362000D01*
X31444000Y-96122000D02*
X31444000Y-101094000D01*
X31484000Y-88422000D02*
X31484000Y-93362000D01*
X31484000Y-96122000D02*
X31484000Y-101062000D01*
X31524000Y-88453000D02*
X31524000Y-93362000D01*
X31524000Y-96122000D02*
X31524000Y-101031000D01*
X31564000Y-88485000D02*
X31564000Y-93362000D01*
X31564000Y-96122000D02*
X31564000Y-100999000D01*
X31604000Y-88518000D02*
X31604000Y-93362000D01*
X31604000Y-96122000D02*
X31604000Y-100966000D01*
X31644000Y-88551000D02*
X31644000Y-100933000D01*
X31684000Y-88584000D02*
X31684000Y-100900000D01*
X31724000Y-88618000D02*
X31724000Y-100866000D01*
X31764000Y-88652000D02*
X31764000Y-100832000D01*
X31804000Y-88687000D02*
X31804000Y-100797000D01*
X31844000Y-88722000D02*
X31844000Y-100762000D01*
X31884000Y-88758000D02*
X31884000Y-100726000D01*
X31924000Y-88794000D02*
X31924000Y-100690000D01*
X31964000Y-88830000D02*
X31964000Y-100654000D01*
X32004000Y-88867000D02*
X32004000Y-100617000D01*
X32044000Y-88905000D02*
X32044000Y-100579000D01*
X32084000Y-88943000D02*
X32084000Y-100541000D01*
X32124000Y-88982000D02*
X32124000Y-100502000D01*
X32164000Y-89021000D02*
X32164000Y-100463000D01*
X32204000Y-89061000D02*
X32204000Y-100423000D01*
X32244000Y-89101000D02*
X32244000Y-100383000D01*
X32284000Y-89142000D02*
X32284000Y-100342000D01*
X32324000Y-89183000D02*
X32324000Y-100301000D01*
X32364000Y-89225000D02*
X32364000Y-100259000D01*
X32404000Y-89268000D02*
X32404000Y-100216000D01*
X32444000Y-89311000D02*
X32444000Y-100173000D01*
X32484000Y-89355000D02*
X32484000Y-100129000D01*
X32524000Y-89399000D02*
X32524000Y-100085000D01*
X32564000Y-89445000D02*
X32564000Y-100039000D01*
X32604000Y-89491000D02*
X32604000Y-99993000D01*
X32644000Y-89537000D02*
X32644000Y-99947000D01*
X32684000Y-89585000D02*
X32684000Y-99899000D01*
X32724000Y-89633000D02*
X32724000Y-99851000D01*
X32764000Y-89682000D02*
X32764000Y-99802000D01*
X32804000Y-89731000D02*
X32804000Y-99753000D01*
X32844000Y-89782000D02*
X32844000Y-99702000D01*
X32884000Y-89833000D02*
X32884000Y-99651000D01*
X32924000Y-89885000D02*
X32924000Y-99599000D01*
X32964000Y-89938000D02*
X32964000Y-99546000D01*
X33004000Y-89992000D02*
X33004000Y-99492000D01*
X33044000Y-90047000D02*
X33044000Y-99437000D01*
X33084000Y-90103000D02*
X33084000Y-99381000D01*
X33124000Y-90160000D02*
X33124000Y-99324000D01*
X33164000Y-90218000D02*
X33164000Y-99266000D01*
X33204000Y-90277000D02*
X33204000Y-99207000D01*
X33244000Y-90337000D02*
X33244000Y-99147000D01*
X33284000Y-90399000D02*
X33284000Y-99085000D01*
X33324000Y-90461000D02*
X33324000Y-99023000D01*
X33364000Y-90525000D02*
X33364000Y-98959000D01*
X33404000Y-90591000D02*
X33404000Y-98893000D01*
X33444000Y-90658000D02*
X33444000Y-98826000D01*
X33484000Y-90726000D02*
X33484000Y-98758000D01*
X33524000Y-90796000D02*
X33524000Y-98688000D01*
X33564000Y-90867000D02*
X33564000Y-98617000D01*
X33604000Y-90940000D02*
X33604000Y-98544000D01*
X33644000Y-91016000D02*
X33644000Y-98468000D01*
X33684000Y-91093000D02*
X33684000Y-98391000D01*
X33724000Y-91172000D02*
X33724000Y-98312000D01*
X33764000Y-91253000D02*
X33764000Y-98231000D01*
X33804000Y-91337000D02*
X33804000Y-98147000D01*
X33844000Y-91423000D02*
X33844000Y-98061000D01*
X33884000Y-91512000D02*
X33884000Y-97972000D01*
X33924000Y-91604000D02*
X33924000Y-97880000D01*
X33964000Y-91700000D02*
X33964000Y-97784000D01*
X34004000Y-91799000D02*
X34004000Y-97685000D01*
X34044000Y-91901000D02*
X34044000Y-97583000D01*
X34084000Y-92009000D02*
X34084000Y-97475000D01*
X34124000Y-92121000D02*
X34124000Y-97363000D01*
X34164000Y-92239000D02*
X34164000Y-97245000D01*
X34204000Y-92363000D02*
X34204000Y-97121000D01*
X34244000Y-92494000D02*
X34244000Y-96990000D01*
X34284000Y-92635000D02*
X34284000Y-96849000D01*
X34324000Y-92786000D02*
X34324000Y-96698000D01*
X34364000Y-92950000D02*
X34364000Y-96534000D01*
X34404000Y-93132000D02*
X34404000Y-96352000D01*
X34444000Y-93337000D02*
X34444000Y-96147000D01*
X34484000Y-93578000D02*
X34484000Y-95906000D01*
X34524000Y-93883000D02*
X34524000Y-95601000D01*
X34564000Y-94379000D02*
X34564000Y-95105000D01*
X19533000Y-94742000D02*
X21333000Y-94742000D01*
X20433000Y-93842000D02*
X20433000Y-95642000D01*
X25662000Y-3384000D02*
X26662000Y-3384000D01*
X26662000Y-4744000D02*
X25662000Y-4744000D01*
X31504000Y-52660000D02*
X32504000Y-52660000D01*
X32504000Y-54020000D02*
X31504000Y-54020000D01*
X31504000Y-51136000D02*
X32504000Y-51136000D01*
X32504000Y-52496000D02*
X31504000Y-52496000D01*
X31504000Y-54184000D02*
X32504000Y-54184000D01*
X32504000Y-55544000D02*
X31504000Y-55544000D01*
D11*
X-5800000Y-7335000D02*
X0Y-7335000D01*
X-5800000Y-23665000D02*
X-5800000Y-7335000D01*
X0Y-23665000D02*
X-5800000Y-23665000D01*
X12700000Y-30905000D02*
X0Y-30905000D01*
X12700000Y-95000D02*
X12700000Y-30905000D01*
X0Y-95000D02*
X12700000Y-95000D01*
X0Y-30905000D02*
X0Y-95000D01*
D15*
X16860000Y-32858000D02*
X16160000Y-32858000D01*
X16160000Y-31658000D02*
X16860000Y-31658000D01*
X21698000Y-33492000D02*
X21698000Y-39502000D01*
X14878000Y-35742000D02*
X14878000Y-39502000D01*
X21698000Y-39502000D02*
X20438000Y-39502000D01*
X14878000Y-39502000D02*
X16138000Y-39502000D01*
X25812000Y-1940000D02*
X26512000Y-1940000D01*
X26512000Y-3140000D02*
X25812000Y-3140000D01*
X25489000Y-8458000D02*
X27789000Y-8458000D01*
X27089000Y-5258000D02*
X25489000Y-5258000D01*
X22478000Y-22254000D02*
X22478000Y-27654000D01*
X19178000Y-22254000D02*
X19178000Y-27654000D01*
X22478000Y-22254000D02*
X19178000Y-22254000D01*
D11*
X18717000Y-23763000D02*
X18717000Y-22363000D01*
X13617000Y-23763000D02*
X13617000Y-27913000D01*
X18767000Y-23763000D02*
X18767000Y-27913000D01*
X13617000Y-23763000D02*
X13762000Y-23763000D01*
X13617000Y-27913000D02*
X13762000Y-27913000D01*
X18767000Y-27913000D02*
X18622000Y-27913000D01*
X18767000Y-23763000D02*
X18717000Y-23763000D01*
D15*
X23968000Y-23272000D02*
X23968000Y-23972000D01*
X22768000Y-23972000D02*
X22768000Y-23272000D01*
X22732000Y-1015000D02*
X22732000Y-2935000D01*
X22732000Y-7875000D02*
X22732000Y-5955000D01*
X14352000Y-255000D02*
X14352000Y-2935000D01*
X14352000Y-8635000D02*
X14352000Y-5955000D01*
X14352000Y-255000D02*
X21972000Y-255000D01*
X21972000Y-255000D02*
X22732000Y-1015000D01*
X22732000Y-7875000D02*
X21972000Y-8635000D01*
X21972000Y-8635000D02*
X14352000Y-8635000D01*
X14274000Y-21645000D02*
X14274000Y-18645000D01*
X26874000Y-21645000D02*
X14274000Y-21645000D01*
X26874000Y-18645000D02*
X26874000Y-21645000D01*
X26874000Y-9045000D02*
X26874000Y-12045000D01*
X14274000Y-9045000D02*
X26874000Y-9045000D01*
X14274000Y-12045000D02*
X14274000Y-9045000D01*
X8764000Y-39623000D02*
X1144000Y-39623000D01*
X9524000Y-38863000D02*
X8764000Y-39623000D01*
X8764000Y-31243000D02*
X9524000Y-32003000D01*
X1144000Y-31243000D02*
X8764000Y-31243000D01*
X1144000Y-39623000D02*
X1144000Y-36943000D01*
X1144000Y-31243000D02*
X1144000Y-33923000D01*
X9524000Y-38863000D02*
X9524000Y-36943000D01*
X9524000Y-32003000D02*
X9524000Y-33923000D01*
D11*
X10000Y-90700000D02*
X10000Y-65300000D01*
X-2000000Y-42000000D02*
X-2000000Y-54000000D01*
X51536500Y-70842000D02*
X42436500Y-70842000D01*
X51536500Y-79142000D02*
X51536500Y-70842000D01*
X42436500Y-79142000D02*
X51536500Y-79142000D01*
X42436500Y-69392000D02*
X42436500Y-80592000D01*
X35836500Y-69392000D02*
X42436500Y-69392000D01*
X35836500Y-80592000D02*
X35836500Y-69392000D01*
X42436500Y-80592000D02*
X35836500Y-80592000D01*
D15*
X16379500Y-137131000D02*
X17379500Y-137131000D01*
X17379500Y-138491000D02*
X16379500Y-138491000D01*
X23189500Y-136789500D02*
X17349500Y-136789500D01*
X23949500Y-136029500D02*
X23189500Y-136789500D01*
X23189500Y-130189500D02*
X23949500Y-130949500D01*
X17349500Y-130189500D02*
X23189500Y-130189500D01*
X23949500Y-136029500D02*
X23949500Y-134609500D01*
X23949500Y-130949500D02*
X23949500Y-132369500D01*
X17349500Y-136789500D02*
X17349500Y-134609500D01*
X17349500Y-130189500D02*
X17349500Y-132369500D01*
X18739500Y-128913000D02*
X18739500Y-127913000D01*
X20099500Y-127913000D02*
X20099500Y-128913000D01*
D11*
X42436500Y-95592000D02*
X35836500Y-95592000D01*
X35836500Y-95592000D02*
X35836500Y-84392000D01*
X35836500Y-84392000D02*
X42436500Y-84392000D01*
X42436500Y-84392000D02*
X42436500Y-95592000D01*
X42436500Y-94142000D02*
X51536500Y-94142000D01*
X51536500Y-94142000D02*
X51536500Y-85842000D01*
X51536500Y-85842000D02*
X42436500Y-85842000D01*
D15*
X13045500Y-135322000D02*
X13045500Y-130742000D01*
X12285500Y-136082000D02*
X13045500Y-135322000D01*
X7715500Y-135322000D02*
X8475500Y-136082000D01*
X7715500Y-130742000D02*
X7715500Y-135322000D01*
X8475500Y-136082000D02*
X9265500Y-136082000D01*
X12285500Y-136082000D02*
X11495500Y-136082000D01*
X13045500Y-130742000D02*
X11495500Y-130742000D01*
X7715500Y-130742000D02*
X9265500Y-130742000D01*
X20099500Y-138073000D02*
X20099500Y-139073000D01*
X18739500Y-139073000D02*
X18739500Y-138073000D01*
X22879500Y-137207500D02*
X23579500Y-137207500D01*
X23579500Y-138407500D02*
X22879500Y-138407500D01*
X22867500Y-128575000D02*
X23567500Y-128575000D01*
X23567500Y-129775000D02*
X22867500Y-129775000D01*
X23579500Y-128185000D02*
X22879500Y-128185000D01*
X22879500Y-126985000D02*
X23579500Y-126985000D01*
X23579500Y-140123000D02*
X22879500Y-140123000D01*
X22879500Y-138923000D02*
X23579500Y-138923000D01*
X16379500Y-128495000D02*
X17379500Y-128495000D01*
X17379500Y-129855000D02*
X16379500Y-129855000D01*
D11*
X31996200Y-123700000D02*
X37000000Y-123700000D01*
X31996200Y-143300000D02*
X31996200Y-123700000D01*
X37000000Y-143300000D02*
X31996200Y-143300000D01*
X37000000Y-123700000D02*
X37000000Y-143300000D01*
D15*
X14895500Y-135198000D02*
X14895500Y-136198000D01*
X13535500Y-136198000D02*
X13535500Y-135198000D01*
D11*
X0Y-115000000D02*
X0Y-128000000D01*
X0Y-128000000D02*
X24000000Y-128000000D01*
X24000000Y-128000000D02*
X24000000Y-115000000D01*
X24000000Y-115000000D02*
X24000000Y-102000000D01*
X24000000Y-102000000D02*
X0Y-102000000D01*
X0Y-102000000D02*
X0Y-115000000D01*
X0Y-103100000D02*
X-7300000Y-103100000D01*
X-7300000Y-103100000D02*
X-7300000Y-126900000D01*
X-7300000Y-126900000D02*
X0Y-126900000D01*
X0Y-152000000D02*
X0Y-165000000D01*
X0Y-165000000D02*
X24000000Y-165000000D01*
X24000000Y-165000000D02*
X24000000Y-152000000D01*
X24000000Y-152000000D02*
X24000000Y-139000000D01*
X24000000Y-139000000D02*
X0Y-139000000D01*
X0Y-139000000D02*
X0Y-152000000D01*
X0Y-140100000D02*
X-7300000Y-140100000D01*
X-7300000Y-140100000D02*
X-7300000Y-163900000D01*
X-7300000Y-163900000D02*
X0Y-163900000D01*
D15*
X45176000Y-56164000D02*
X42326000Y-56164000D01*
X45176000Y-59014000D02*
X45176000Y-56164000D01*
X33626000Y-63114000D02*
X33626000Y-61314000D01*
X35026000Y-63114000D02*
X33626000Y-63114000D01*
X35026000Y-66214000D02*
X35026000Y-63114000D01*
X44926000Y-66214000D02*
X35026000Y-66214000D01*
X44926000Y-61314000D02*
X44926000Y-66214000D01*
X33626000Y-59514000D02*
X33626000Y-61314000D01*
X35026000Y-59514000D02*
X33626000Y-59514000D01*
X35026000Y-56414000D02*
X35026000Y-59514000D01*
X44926000Y-56414000D02*
X35026000Y-56414000D01*
X44926000Y-61314000D02*
X44926000Y-56414000D01*
X19685500Y-77482700D02*
X19685500Y-72082700D01*
X22985500Y-77482700D02*
X22985500Y-72082700D01*
X19685500Y-77482700D02*
X22985500Y-77482700D01*
X26668500Y-70682700D02*
X26668500Y-76082700D01*
X23368500Y-70682700D02*
X23368500Y-76082700D01*
X26668500Y-70682700D02*
X23368500Y-70682700D01*
X22985500Y-78429700D02*
X22985500Y-83829700D01*
X19685500Y-78429700D02*
X19685500Y-83829700D01*
X22985500Y-78429700D02*
X19685500Y-78429700D01*
X23734000Y-69126000D02*
X23734000Y-67666000D01*
X26894000Y-69126000D02*
X26894000Y-66966000D01*
X26894000Y-69126000D02*
X25964000Y-69126000D01*
X23734000Y-69126000D02*
X24664000Y-69126000D01*
X28229000Y-68748500D02*
X28229000Y-67288500D01*
X31389000Y-68748500D02*
X31389000Y-66588500D01*
X31389000Y-68748500D02*
X30459000Y-68748500D01*
X28229000Y-68748500D02*
X29159000Y-68748500D01*
X23368500Y-85229700D02*
X23368500Y-79829700D01*
X26668500Y-85229700D02*
X26668500Y-79829700D01*
X23368500Y-85229700D02*
X26668500Y-85229700D01*
D11*
X32821200Y-76006100D02*
X34221200Y-76006100D01*
X32821200Y-70906100D02*
X28671200Y-70906100D01*
X32821200Y-76056100D02*
X28671200Y-76056100D01*
X32821200Y-70906100D02*
X32821200Y-71051100D01*
X28671200Y-70906100D02*
X28671200Y-71051100D01*
X28671200Y-76056100D02*
X28671200Y-75911100D01*
X32821200Y-76056100D02*
X32821200Y-76006100D01*
X32821200Y-83626100D02*
X34221200Y-83626100D01*
X32821200Y-78526100D02*
X28671200Y-78526100D01*
X32821200Y-83676100D02*
X28671200Y-83676100D01*
X32821200Y-78526100D02*
X32821200Y-78671100D01*
X28671200Y-78526100D02*
X28671200Y-78671100D01*
X28671200Y-83676100D02*
X28671200Y-83531100D01*
X32821200Y-83676100D02*
X32821200Y-83626100D01*
D15*
X31008500Y-78096000D02*
X30008500Y-78096000D01*
X30008500Y-76736000D02*
X31008500Y-76736000D01*
X33130800Y-70526800D02*
X32130800Y-70526800D01*
X32130800Y-69166800D02*
X33130800Y-69166800D01*
X13396000Y-59420500D02*
X11296000Y-59420500D01*
X13396000Y-58420500D02*
X11296000Y-58420500D01*
X13396000Y-59420500D02*
X13396000Y-58420500D01*
X8548000Y-58199000D02*
X9548000Y-58199000D01*
X9548000Y-59559000D02*
X8548000Y-59559000D01*
D11*
X21413143Y-57358228D02*
X21638143Y-57358228D01*
X21413143Y-50108228D02*
X21713143Y-50108228D01*
X28663143Y-50108228D02*
X28363143Y-50108228D01*
X28663143Y-57358228D02*
X28363143Y-57358228D01*
X21413143Y-57358228D02*
X21413143Y-57058228D01*
X28663143Y-57358228D02*
X28663143Y-57058228D01*
X28663143Y-50108228D02*
X28663143Y-50408228D01*
X21413143Y-50108228D02*
X21413143Y-50408228D01*
X21638143Y-57358228D02*
X21638143Y-58583228D01*
D15*
X19769702Y-56138124D02*
X19769702Y-57138124D01*
X18409702Y-57138124D02*
X18409702Y-56138124D01*
X16965702Y-56976124D02*
X16965702Y-56276124D01*
X18165702Y-56276124D02*
X18165702Y-56976124D01*
X15902000Y-44191000D02*
X15902000Y-48771000D01*
X16662000Y-43431000D02*
X15902000Y-44191000D01*
X21232000Y-44191000D02*
X20472000Y-43431000D01*
X21232000Y-48771000D02*
X21232000Y-44191000D01*
X20472000Y-43431000D02*
X19682000Y-43431000D01*
X16662000Y-43431000D02*
X17452000Y-43431000D01*
X15902000Y-48771000D02*
X17452000Y-48771000D01*
X21232000Y-48771000D02*
X19682000Y-48771000D01*
D11*
X40650000Y-49500000D02*
X40650000Y-46500000D01*
X44350000Y-49500000D02*
X40650000Y-49500000D01*
X44350000Y-43500000D02*
X44350000Y-49500000D01*
X40650000Y-43500000D02*
X44350000Y-43500000D01*
X40650000Y-46500000D02*
X40650000Y-43500000D01*
D15*
X23440386Y-40005279D02*
X22733279Y-40712386D01*
X21771614Y-39750721D02*
X22478721Y-39043614D01*
X36800000Y-50000000D02*
X34700000Y-50000000D01*
X36800000Y-49000000D02*
X34700000Y-49000000D01*
X36800000Y-50000000D02*
X36800000Y-49000000D01*
X36800000Y-44000000D02*
X34700000Y-44000000D01*
X36800000Y-43000000D02*
X34700000Y-43000000D01*
X36800000Y-44000000D02*
X36800000Y-43000000D01*
X33297800Y-57096800D02*
X33297800Y-58096800D01*
X31937800Y-58096800D02*
X31937800Y-57096800D01*
X21392200Y-58319800D02*
X21392200Y-59019800D01*
X20192200Y-59019800D02*
X20192200Y-58319800D01*
X29875800Y-48286800D02*
X29875800Y-48986800D01*
X28675800Y-48986800D02*
X28675800Y-48286800D01*
X36800000Y-47000000D02*
X36800000Y-46000000D01*
X36800000Y-46000000D02*
X34700000Y-46000000D01*
X36800000Y-47000000D02*
X34700000Y-47000000D01*
X37090000Y-51730000D02*
X37090000Y-56030000D01*
X37090000Y-56030000D02*
X42790000Y-56030000D01*
X37090000Y-51730000D02*
X42790000Y-51730000D01*
X13776000Y-31254000D02*
X11116000Y-31254000D01*
X13776000Y-38934000D02*
X13776000Y-31254000D01*
X11116000Y-38934000D02*
X11116000Y-31254000D01*
X13776000Y-38934000D02*
X11116000Y-38934000D01*
X13776000Y-40204000D02*
X13776000Y-41534000D01*
X13776000Y-41534000D02*
X12446000Y-41534000D01*
X30261400Y-58096800D02*
X30261400Y-57096800D01*
X31621400Y-57096800D02*
X31621400Y-58096800D01*
X26864000Y-34676000D02*
X32064000Y-34676000D01*
X26864000Y-24456000D02*
X26864000Y-34676000D01*
X32064000Y-21856000D02*
X32064000Y-34676000D01*
X26864000Y-24456000D02*
X29464000Y-24456000D01*
X29464000Y-24456000D02*
X29464000Y-21856000D01*
X29464000Y-21856000D02*
X32064000Y-21856000D01*
X26864000Y-23186000D02*
X26864000Y-21856000D01*
X26864000Y-21856000D02*
X28194000Y-21856000D01*
X43320380Y-33040285D02*
X43320380Y-33611714D01*
X43320380Y-33326000D02*
X42320380Y-33326000D01*
X42463238Y-33421238D01*
X42558476Y-33516476D01*
X42606095Y-33611714D01*
D11*
X22941047Y-606428D02*
X23702952Y-606428D01*
X23322000Y-987380D02*
X23322000Y-225476D01*
X9733047Y-31594428D02*
X10494952Y-31594428D01*
X10114000Y-31975380D02*
X10114000Y-31213476D01*
X24548547Y-130550928D02*
X25310452Y-130550928D01*
X24929500Y-130931880D02*
X24929500Y-130169976D01*
X12816928Y-137172952D02*
X12816928Y-136411047D01*
X13197880Y-136792000D02*
X12435976Y-136792000D01*
X27828857Y-120457904D02*
X27828857Y-118934095D01*
X28590761Y-119696000D02*
X27066952Y-119696000D01*
X25034857Y-111951904D02*
X25034857Y-110428095D01*
X27828857Y-157541904D02*
X27828857Y-156018095D01*
X28590761Y-156780000D02*
X27066952Y-156780000D01*
X25034857Y-148951904D02*
X25034857Y-147428095D01*
X16273428Y-43101952D02*
X16273428Y-42340047D01*
X16654380Y-42721000D02*
X15892476Y-42721000D01*
M02*
