G04 #@! TF.GenerationSoftware,KiCad,Pcbnew,(5.0.0-rc2-dev-311-g1dd4af297)*
G04 #@! TF.CreationDate,2018-07-24T10:12:30+02:00*
G04 #@! TF.ProjectId,resetUSB,72657365745553422E6B696361645F70,1.0*
G04 #@! TF.SameCoordinates,PX29ff57cPY2521014*
G04 #@! TF.FileFunction,Soldermask,Top*
G04 #@! TF.FilePolarity,Negative*
%FSLAX46Y46*%
G04 Gerber Fmt 4.6, Leading zero omitted, Abs format (unit mm)*
G04 Created by KiCad (PCBNEW (5.0.0-rc2-dev-311-g1dd4af297)) date 07/24/18 10:12:30*
%MOMM*%
%LPD*%
G01*
G04 APERTURE LIST*
%ADD10C,0.150000*%
%ADD11C,4.600000*%
%ADD12R,1.927200X1.927200*%
%ADD13O,1.927200X1.927200*%
%ADD14C,2.400000*%
%ADD15R,2.600000X2.600000*%
%ADD16C,2.600000*%
%ADD17R,0.700000X1.100000*%
%ADD18C,1.800000*%
%ADD19R,1.800000X1.800000*%
%ADD20C,4.250000*%
%ADD21R,1.000000X0.950000*%
%ADD22R,1.700000X2.200000*%
%ADD23R,4.000000X2.200000*%
%ADD24R,0.900000X0.710000*%
%ADD25R,2.000000X2.700000*%
%ADD26R,0.800000X1.750000*%
%ADD27R,0.950000X1.000000*%
%ADD28R,4.200000X2.700000*%
%ADD29R,3.100000X5.600000*%
%ADD30R,3.200000X1.200000*%
%ADD31C,3.400000*%
%ADD32C,2.800000*%
%ADD33R,3.200000X0.900000*%
%ADD34R,6.240000X3.600000*%
%ADD35C,1.600000*%
%ADD36C,4.200000*%
%ADD37C,3.200000*%
%ADD38R,3.700000X1.800000*%
%ADD39R,1.100000X0.700000*%
%ADD40R,1.800000X3.200000*%
%ADD41C,3.000000*%
%ADD42R,3.000000X3.000000*%
%ADD43R,1.000000X1.100000*%
%ADD44R,1.750000X0.800000*%
%ADD45R,1.000000X1.000000*%
%ADD46R,0.800000X1.400000*%
%ADD47R,1.400000X0.800000*%
%ADD48R,1.800000X2.380000*%
%ADD49C,0.700000*%
%ADD50C,0.100000*%
%ADD51R,2.700000X2.500000*%
%ADD52R,1.900000X1.900000*%
%ADD53O,1.900000X1.900000*%
%ADD54C,1.500000*%
G04 APERTURE END LIST*
D10*
X0Y-165000000D02*
X0Y0D01*
X45000000Y-165000000D02*
X0Y-165000000D01*
X45000000Y0D02*
X45000000Y-165000000D01*
X0Y0D02*
X45000000Y0D01*
D11*
X41900000Y-156550000D03*
X41900000Y-110450000D03*
D12*
X41148000Y-33346000D03*
D13*
X38608000Y-33346000D03*
X41148000Y-30806000D03*
X38608000Y-30806000D03*
X41148000Y-28266000D03*
X38608000Y-28266000D03*
X41148000Y-25726000D03*
X38608000Y-25726000D03*
X41148000Y-23186000D03*
X38608000Y-23186000D03*
D14*
X8626000Y-61884000D03*
X13726000Y-63084000D03*
D15*
X22733000Y-94742000D03*
D16*
X30233000Y-94742000D03*
D17*
X26912000Y-4064000D03*
X25412000Y-4064000D03*
X32754000Y-53340000D03*
X31254000Y-53340000D03*
X32754000Y-51816000D03*
X31254000Y-51816000D03*
X32754000Y-54864000D03*
X31254000Y-54864000D03*
D18*
X8100000Y-11345000D03*
X8100000Y-14115000D03*
X8100000Y-16885000D03*
X8100000Y-19655000D03*
X10940000Y-9960000D03*
X10940000Y-12730000D03*
D19*
X10940000Y-21040000D03*
D18*
X10940000Y-18270000D03*
X10940000Y-15500000D03*
D20*
X9520000Y-3005000D03*
X9520000Y-27995000D03*
D21*
X17260000Y-32258000D03*
X15760000Y-32258000D03*
D22*
X20588000Y-34442000D03*
X15988000Y-34442000D03*
X18288000Y-34442000D03*
D23*
X18288000Y-40742000D03*
D21*
X25412000Y-2540000D03*
X26912000Y-2540000D03*
D24*
X25129000Y-7808000D03*
X25129000Y-6858000D03*
X25129000Y-5908000D03*
X27449000Y-5908000D03*
X27449000Y-6858000D03*
X27449000Y-7808000D03*
D25*
X20828000Y-27654000D03*
X20828000Y-23654000D03*
D26*
X18097000Y-28538000D03*
X16827000Y-28538000D03*
X15557000Y-28538000D03*
X14287000Y-28538000D03*
X14287000Y-23138000D03*
X15557000Y-23138000D03*
X16827000Y-23138000D03*
X18097000Y-23138000D03*
D27*
X23368000Y-22872000D03*
X23368000Y-24372000D03*
D28*
X21592000Y-4445000D03*
X15492000Y-4445000D03*
D29*
X15624000Y-15345000D03*
X25524000Y-15345000D03*
D28*
X2284000Y-35433000D03*
X8384000Y-35433000D03*
D30*
X29790000Y-12500000D03*
X29790000Y-10000000D03*
X29790000Y-5500000D03*
X29790000Y-8000000D03*
D31*
X34000000Y-2430000D03*
X34000000Y-15570000D03*
D18*
X3820000Y-81810000D03*
X8900000Y-74190000D03*
D14*
X12710000Y-78000000D03*
X17790000Y-78000000D03*
D32*
X17790000Y-81810000D03*
X17790000Y-74190000D03*
D33*
X14000000Y-49875000D03*
X14000000Y-46125000D03*
X14000000Y-48625000D03*
X14000000Y-47375000D03*
D34*
X7580000Y-54800000D03*
X7580000Y-41200000D03*
D35*
X7000000Y-50750000D03*
X7000000Y-45250000D03*
D36*
X37336500Y-69892000D03*
X37336500Y-80092000D03*
D37*
X37336500Y-74992000D03*
D36*
X42436500Y-74992000D03*
D17*
X17629500Y-137811000D03*
X16129500Y-137811000D03*
D38*
X17949500Y-133489500D03*
X23349500Y-133489500D03*
D39*
X19419500Y-127663000D03*
X19419500Y-129163000D03*
D36*
X42436500Y-89992000D03*
D37*
X37336500Y-89992000D03*
D36*
X37336500Y-95092000D03*
X37336500Y-84892000D03*
D40*
X10405500Y-131212000D03*
X10405500Y-135612000D03*
D39*
X19419500Y-139323000D03*
X19419500Y-137823000D03*
D21*
X22479500Y-137807500D03*
X23979500Y-137807500D03*
X22467500Y-129175000D03*
X23967500Y-129175000D03*
X23979500Y-127585000D03*
X22479500Y-127585000D03*
X23979500Y-139523000D03*
X22479500Y-139523000D03*
D17*
X17629500Y-129175000D03*
X16129500Y-129175000D03*
D18*
X27370000Y-142390000D03*
X27370000Y-139850000D03*
X27370000Y-137310000D03*
X27370000Y-134770000D03*
X27370000Y-132230000D03*
X27370000Y-129690000D03*
X27370000Y-127150000D03*
X27370000Y-124610000D03*
X32450000Y-141120000D03*
X32450000Y-138580000D03*
X32450000Y-136040000D03*
X32450000Y-125880000D03*
X32450000Y-128420000D03*
X32450000Y-130960000D03*
X32450000Y-133500000D03*
D39*
X14215500Y-136448000D03*
X14215500Y-134948000D03*
D14*
X24770000Y-108650000D03*
X29210000Y-118180000D03*
X24770000Y-145650000D03*
X29210000Y-155180000D03*
D41*
X37076000Y-63414000D03*
X37076000Y-59214000D03*
X42576000Y-63414000D03*
D42*
X42576000Y-59214000D03*
D25*
X21335500Y-72082700D03*
X21335500Y-76082700D03*
X25018500Y-76082700D03*
X25018500Y-72082700D03*
X21335500Y-83829700D03*
X21335500Y-79829700D03*
D43*
X25314000Y-69366000D03*
X24364000Y-67366000D03*
X26264000Y-67366000D03*
X29809000Y-68988500D03*
X28859000Y-66988500D03*
X30759000Y-66988500D03*
D25*
X25018500Y-79829700D03*
X25018500Y-83829700D03*
D44*
X28046200Y-75386100D03*
X28046200Y-74116100D03*
X28046200Y-72846100D03*
X28046200Y-71576100D03*
X33446200Y-71576100D03*
X33446200Y-72846100D03*
X33446200Y-74116100D03*
X33446200Y-75386100D03*
X28046200Y-83006100D03*
X28046200Y-81736100D03*
X28046200Y-80466100D03*
X28046200Y-79196100D03*
X33446200Y-79196100D03*
X33446200Y-80466100D03*
X33446200Y-81736100D03*
X33446200Y-83006100D03*
D17*
X29758500Y-77416000D03*
X31258500Y-77416000D03*
X31880800Y-69846800D03*
X33380800Y-69846800D03*
D45*
X12896000Y-58920500D03*
X11296000Y-58920500D03*
D17*
X9798000Y-58879000D03*
X8298000Y-58879000D03*
D46*
X22238143Y-57983228D03*
X23038143Y-57983228D03*
X23838143Y-57983228D03*
X24638143Y-57983228D03*
X25438143Y-57983228D03*
X26238143Y-57983228D03*
X27038143Y-57983228D03*
X27838143Y-57983228D03*
D47*
X29288143Y-56533228D03*
X29288143Y-55733228D03*
X29288143Y-54933228D03*
X29288143Y-54133228D03*
X29288143Y-53333228D03*
X29288143Y-52533228D03*
X29288143Y-51733228D03*
X29288143Y-50933228D03*
D46*
X27838143Y-49483228D03*
X27038143Y-49483228D03*
X26238143Y-49483228D03*
X25438143Y-49483228D03*
X24638143Y-49483228D03*
X23838143Y-49483228D03*
X23038143Y-49483228D03*
X22238143Y-49483228D03*
D47*
X20788143Y-50933228D03*
X20788143Y-51733228D03*
X20788143Y-52533228D03*
X20788143Y-53333228D03*
X20788143Y-54133228D03*
X20788143Y-54933228D03*
X20788143Y-55733228D03*
X20788143Y-56533228D03*
D39*
X19089702Y-57388124D03*
X19089702Y-55888124D03*
D27*
X17565702Y-57376124D03*
X17565702Y-55876124D03*
D40*
X18542000Y-48301000D03*
X18542000Y-43901000D03*
D48*
X42500000Y-42800000D03*
X42500000Y-50200000D03*
D49*
X22075670Y-40408330D03*
D50*
G36*
X21934249Y-39771934D02*
X22712066Y-40549751D01*
X22217091Y-41044726D01*
X21439274Y-40266909D01*
X21934249Y-39771934D01*
X21934249Y-39771934D01*
G37*
D49*
X23136330Y-39347670D03*
D50*
G36*
X22994909Y-38711274D02*
X23772726Y-39489091D01*
X23277751Y-39984066D01*
X22499934Y-39206249D01*
X22994909Y-38711274D01*
X22994909Y-38711274D01*
G37*
D45*
X36300000Y-49500000D03*
X34700000Y-49500000D03*
X36300000Y-43500000D03*
X34700000Y-43500000D03*
D39*
X32617800Y-58346800D03*
X32617800Y-56846800D03*
D27*
X20792200Y-57919800D03*
X20792200Y-59419800D03*
X29275800Y-47886800D03*
X29275800Y-49386800D03*
D45*
X34700000Y-46500000D03*
X36300000Y-46500000D03*
D51*
X38490000Y-53880000D03*
X42790000Y-53880000D03*
D52*
X12446000Y-40204000D03*
D53*
X12446000Y-37664000D03*
X12446000Y-35124000D03*
X12446000Y-32584000D03*
D39*
X30941400Y-56846800D03*
X30941400Y-58346800D03*
D52*
X28194000Y-23186000D03*
D53*
X30734000Y-23186000D03*
X28194000Y-25726000D03*
X30734000Y-25726000D03*
X28194000Y-28266000D03*
X30734000Y-28266000D03*
X28194000Y-30806000D03*
X30734000Y-30806000D03*
X28194000Y-33346000D03*
X30734000Y-33346000D03*
D54*
X14605000Y-132969000D03*
X32385000Y-76835000D03*
X34290000Y-85471000D03*
X33274000Y-85471000D03*
X32258000Y-84455000D03*
X33274000Y-84455000D03*
X32258000Y-85471000D03*
X34290000Y-84455000D03*
X33401000Y-76835000D03*
X34417000Y-76835000D03*
X34417000Y-77851000D03*
X33401000Y-77851000D03*
X32385000Y-77851000D03*
X16002000Y-26670000D03*
X14478000Y-26670000D03*
X12954000Y-26670000D03*
X17526000Y-26670000D03*
X22606000Y-67310000D03*
X15875000Y-51562000D03*
X17399000Y-51562000D03*
X18923000Y-51562000D03*
X22078000Y-32258000D03*
X19050000Y-32258000D03*
X20574000Y-32258000D03*
X19090400Y-58415800D03*
X30535191Y-49371793D03*
M02*
