G04 #@! TF.GenerationSoftware,KiCad,Pcbnew,(5.0.0-rc2-dev-311-g1dd4af297)*
G04 #@! TF.CreationDate,2018-07-03T13:58:45+02:00*
G04 #@! TF.ProjectId,resetUSB,72657365745553422E6B696361645F70,1.0*
G04 #@! TF.SameCoordinates,PX29ff57cPY2521014*
G04 #@! TF.FileFunction,Copper,L1,Top,Signal*
G04 #@! TF.FilePolarity,Positive*
%FSLAX46Y46*%
G04 Gerber Fmt 4.6, Leading zero omitted, Abs format (unit mm)*
G04 Created by KiCad (PCBNEW (5.0.0-rc2-dev-311-g1dd4af297)) date 07/03/18 13:58:45*
%MOMM*%
%LPD*%
G01*
G04 APERTURE LIST*
%ADD10C,0.150000*%
%ADD11C,2.200000*%
%ADD12R,0.900000X0.500000*%
%ADD13R,2.400000X2.400000*%
%ADD14C,2.400000*%
%ADD15R,0.500000X0.900000*%
%ADD16C,1.600000*%
%ADD17R,1.600000X1.600000*%
%ADD18C,4.050000*%
%ADD19R,0.800000X0.750000*%
%ADD20R,1.500000X2.000000*%
%ADD21R,3.800000X2.000000*%
%ADD22R,1.727200X1.727200*%
%ADD23O,1.727200X1.727200*%
%ADD24R,0.700000X0.510000*%
%ADD25R,1.800000X2.500000*%
%ADD26R,0.600000X1.550000*%
%ADD27R,0.750000X0.800000*%
%ADD28R,4.000000X2.500000*%
%ADD29R,2.900000X5.400000*%
%ADD30C,3.500000*%
%ADD31R,3.000000X1.000000*%
%ADD32C,3.200000*%
%ADD33C,2.600000*%
%ADD34R,3.000000X0.700000*%
%ADD35R,6.040000X3.400000*%
%ADD36C,4.000000*%
%ADD37C,3.000000*%
%ADD38R,3.500000X1.600000*%
%ADD39R,1.600000X3.000000*%
%ADD40C,2.800000*%
%ADD41R,2.800000X2.800000*%
%ADD42R,0.800000X0.900000*%
%ADD43R,1.550000X0.600000*%
%ADD44R,0.800000X0.800000*%
%ADD45R,0.600000X1.200000*%
%ADD46R,1.200000X0.600000*%
%ADD47R,1.600000X2.180000*%
%ADD48C,0.500000*%
%ADD49C,0.100000*%
%ADD50R,2.500000X2.300000*%
%ADD51R,1.700000X1.700000*%
%ADD52O,1.700000X1.700000*%
%ADD53C,1.300000*%
%ADD54C,1.800000*%
%ADD55C,0.300000*%
%ADD56C,0.750000*%
%ADD57C,0.600000*%
%ADD58C,0.250000*%
%ADD59C,0.254000*%
G04 APERTURE END LIST*
D10*
X0Y-165000000D02*
X0Y0D01*
X45000000Y-165000000D02*
X0Y-165000000D01*
X45000000Y0D02*
X45000000Y-165000000D01*
X0Y0D02*
X45000000Y0D01*
D11*
X8626000Y-61884000D03*
X13726000Y-63084000D03*
D12*
X16764000Y-58686000D03*
X16764000Y-60186000D03*
D13*
X30226000Y-94742000D03*
D14*
X22726000Y-94742000D03*
D15*
X26912000Y-4064000D03*
X25412000Y-4064000D03*
X32754000Y-54864000D03*
X31254000Y-54864000D03*
X32754000Y-51816000D03*
X31254000Y-51816000D03*
X32754000Y-53340000D03*
X31254000Y-53340000D03*
D16*
X8100000Y-11345000D03*
X8100000Y-14115000D03*
X8100000Y-16885000D03*
X8100000Y-19655000D03*
X10940000Y-9960000D03*
X10940000Y-12730000D03*
D17*
X10940000Y-21040000D03*
D16*
X10940000Y-18270000D03*
X10940000Y-15500000D03*
D18*
X9520000Y-3005000D03*
X9520000Y-27995000D03*
D19*
X17260000Y-32258000D03*
X15760000Y-32258000D03*
D20*
X20588000Y-34442000D03*
X15988000Y-34442000D03*
X18288000Y-34442000D03*
D21*
X18288000Y-40742000D03*
D22*
X41148000Y-37846000D03*
D23*
X38608000Y-37846000D03*
X41148000Y-35306000D03*
X38608000Y-35306000D03*
X41148000Y-32766000D03*
X38608000Y-32766000D03*
X41148000Y-30226000D03*
X38608000Y-30226000D03*
X41148000Y-27686000D03*
X38608000Y-27686000D03*
X28194000Y-27686000D03*
X30734000Y-27686000D03*
X28194000Y-30226000D03*
X30734000Y-30226000D03*
X28194000Y-32766000D03*
X30734000Y-32766000D03*
X28194000Y-35306000D03*
X30734000Y-35306000D03*
X28194000Y-37846000D03*
D22*
X30734000Y-37846000D03*
D19*
X25412000Y-2540000D03*
X26912000Y-2540000D03*
D24*
X25129000Y-7808000D03*
X25129000Y-6858000D03*
X25129000Y-5908000D03*
X27449000Y-5908000D03*
X27449000Y-6858000D03*
X27449000Y-7808000D03*
D25*
X20828000Y-27654000D03*
X20828000Y-23654000D03*
D26*
X18097000Y-28538000D03*
X16827000Y-28538000D03*
X15557000Y-28538000D03*
X14287000Y-28538000D03*
X14287000Y-23138000D03*
X15557000Y-23138000D03*
X16827000Y-23138000D03*
X18097000Y-23138000D03*
D27*
X23368000Y-22872000D03*
X23368000Y-24372000D03*
D28*
X21592000Y-4445000D03*
X15492000Y-4445000D03*
D29*
X15624000Y-15345000D03*
X25524000Y-15345000D03*
D28*
X2284000Y-35433000D03*
X8384000Y-35433000D03*
D30*
X38500000Y-115750000D03*
X38500000Y-151250000D03*
D31*
X29790000Y-12500000D03*
X29790000Y-10000000D03*
X29790000Y-5500000D03*
X29790000Y-8000000D03*
D32*
X34000000Y-2430000D03*
X34000000Y-15570000D03*
D11*
X12710000Y-78000000D03*
X17790000Y-78000000D03*
D33*
X17790000Y-81810000D03*
X17790000Y-74190000D03*
D34*
X14000000Y-49875000D03*
X14000000Y-46125000D03*
X14000000Y-48625000D03*
X14000000Y-47375000D03*
D35*
X7580000Y-54800000D03*
X7580000Y-41200000D03*
D36*
X36836500Y-82892000D03*
X36836500Y-93092000D03*
D37*
X36836500Y-87992000D03*
D36*
X41936500Y-87992000D03*
D15*
X17629500Y-137811000D03*
X16129500Y-137811000D03*
D38*
X17949500Y-133489500D03*
X23349500Y-133489500D03*
D12*
X19419500Y-127663000D03*
X19419500Y-129163000D03*
D36*
X41936500Y-102992000D03*
D37*
X36836500Y-102992000D03*
D36*
X36836500Y-108092000D03*
X36836500Y-97892000D03*
D39*
X10405500Y-131212000D03*
X10405500Y-135612000D03*
D12*
X19419500Y-139323000D03*
X19419500Y-137823000D03*
D19*
X22479500Y-137807500D03*
X23979500Y-137807500D03*
X22467500Y-129175000D03*
X23967500Y-129175000D03*
X23979500Y-127585000D03*
X22479500Y-127585000D03*
X23979500Y-139523000D03*
X22479500Y-139523000D03*
D15*
X17629500Y-129175000D03*
X16129500Y-129175000D03*
D16*
X27370000Y-142390000D03*
X27370000Y-139850000D03*
X27370000Y-137310000D03*
X27370000Y-134770000D03*
X27370000Y-132230000D03*
X27370000Y-129690000D03*
X27370000Y-127150000D03*
X27370000Y-124610000D03*
X32450000Y-141120000D03*
X32450000Y-138580000D03*
X32450000Y-136040000D03*
X32450000Y-125880000D03*
X32450000Y-128420000D03*
X32450000Y-130960000D03*
X32450000Y-133500000D03*
D12*
X14215500Y-136448000D03*
X14215500Y-134948000D03*
D11*
X24770000Y-108650000D03*
X29210000Y-118180000D03*
X24770000Y-145650000D03*
X29210000Y-155180000D03*
D40*
X37076000Y-76414000D03*
X37076000Y-72214000D03*
X42576000Y-76414000D03*
D41*
X42576000Y-72214000D03*
D25*
X21335500Y-72082700D03*
X21335500Y-76082700D03*
X25018500Y-76082700D03*
X25018500Y-72082700D03*
X21335500Y-83829700D03*
X21335500Y-79829700D03*
D42*
X25314000Y-69366000D03*
X24364000Y-67366000D03*
X26264000Y-67366000D03*
X29809000Y-68988500D03*
X28859000Y-66988500D03*
X30759000Y-66988500D03*
D25*
X25018500Y-79829700D03*
X25018500Y-83829700D03*
D43*
X28046200Y-75386100D03*
X28046200Y-74116100D03*
X28046200Y-72846100D03*
X28046200Y-71576100D03*
X33446200Y-71576100D03*
X33446200Y-72846100D03*
X33446200Y-74116100D03*
X33446200Y-75386100D03*
X28046200Y-83006100D03*
X28046200Y-81736100D03*
X28046200Y-80466100D03*
X28046200Y-79196100D03*
X33446200Y-79196100D03*
X33446200Y-80466100D03*
X33446200Y-81736100D03*
X33446200Y-83006100D03*
D15*
X29758500Y-77416000D03*
X31258500Y-77416000D03*
X31880800Y-69846800D03*
X33380800Y-69846800D03*
D44*
X12896000Y-58920500D03*
X11296000Y-58920500D03*
D15*
X9798000Y-58879000D03*
X8298000Y-58879000D03*
D45*
X22238143Y-57983228D03*
X23038143Y-57983228D03*
X23838143Y-57983228D03*
X24638143Y-57983228D03*
X25438143Y-57983228D03*
X26238143Y-57983228D03*
X27038143Y-57983228D03*
X27838143Y-57983228D03*
D46*
X29288143Y-56533228D03*
X29288143Y-55733228D03*
X29288143Y-54933228D03*
X29288143Y-54133228D03*
X29288143Y-53333228D03*
X29288143Y-52533228D03*
X29288143Y-51733228D03*
X29288143Y-50933228D03*
D45*
X27838143Y-49483228D03*
X27038143Y-49483228D03*
X26238143Y-49483228D03*
X25438143Y-49483228D03*
X24638143Y-49483228D03*
X23838143Y-49483228D03*
X23038143Y-49483228D03*
X22238143Y-49483228D03*
D46*
X20788143Y-50933228D03*
X20788143Y-51733228D03*
X20788143Y-52533228D03*
X20788143Y-53333228D03*
X20788143Y-54133228D03*
X20788143Y-54933228D03*
X20788143Y-55733228D03*
X20788143Y-56533228D03*
D12*
X19089702Y-57388124D03*
X19089702Y-55888124D03*
D27*
X17565702Y-57376124D03*
X17565702Y-55876124D03*
D39*
X18542000Y-48301000D03*
X18542000Y-43901000D03*
D47*
X42500000Y-52300000D03*
X42500000Y-59700000D03*
D48*
X22075670Y-40408330D03*
D49*
G36*
X21934249Y-39913355D02*
X22570645Y-40549751D01*
X22217091Y-40903305D01*
X21580695Y-40266909D01*
X21934249Y-39913355D01*
X21934249Y-39913355D01*
G37*
D48*
X23136330Y-39347670D03*
D49*
G36*
X22994909Y-38852695D02*
X23631305Y-39489091D01*
X23277751Y-39842645D01*
X22641355Y-39206249D01*
X22994909Y-38852695D01*
X22994909Y-38852695D01*
G37*
D44*
X35800000Y-59000000D03*
X34200000Y-59000000D03*
X35800000Y-53000000D03*
X34200000Y-53000000D03*
D12*
X32617800Y-58346800D03*
X32617800Y-56846800D03*
D27*
X20792200Y-57919800D03*
X20792200Y-59419800D03*
X29275800Y-47886800D03*
X29275800Y-49386800D03*
D44*
X34200000Y-56000000D03*
X35800000Y-56000000D03*
D50*
X37632000Y-66880000D03*
X41932000Y-66880000D03*
D51*
X12446000Y-40204000D03*
D52*
X12446000Y-37664000D03*
X12446000Y-35124000D03*
X12446000Y-32584000D03*
D12*
X30941400Y-56846800D03*
X30941400Y-58346800D03*
D53*
X22606000Y-67310000D03*
X15875000Y-51562000D03*
X17399000Y-51562000D03*
X18923000Y-51562000D03*
X22078000Y-32258000D03*
X19050000Y-32258000D03*
X20574000Y-32258000D03*
X19090400Y-58415800D03*
X30535191Y-49371793D03*
D54*
X2284000Y-37340000D02*
X1524000Y-38100000D01*
X2284000Y-35433000D02*
X2284000Y-37340000D01*
X1524000Y-38100000D02*
X1524000Y-38862000D01*
X1778000Y-33020000D02*
X1778000Y-31496000D01*
X2284000Y-33526000D02*
X1778000Y-33020000D01*
X2284000Y-35433000D02*
X2284000Y-33526000D01*
D55*
X28215000Y-68326000D02*
X24151000Y-68326000D01*
X28476500Y-68064500D02*
X28215000Y-68326000D01*
X24151000Y-68326000D02*
X23142500Y-69334500D01*
X23142500Y-69334500D02*
X23142500Y-71740500D01*
X23142500Y-71740500D02*
X22800300Y-72082700D01*
X22800300Y-72082700D02*
X21335500Y-72082700D01*
D54*
X42576000Y-72214000D02*
X42576000Y-76414000D01*
D56*
X20574000Y-32258000D02*
X22078000Y-32258000D01*
X19050000Y-32258000D02*
X17260000Y-32258000D01*
X20574000Y-32258000D02*
X19050000Y-32258000D01*
X20588000Y-32272000D02*
X20574000Y-32258000D01*
X20588000Y-34442000D02*
X20588000Y-32272000D01*
D57*
X15624000Y-14095000D02*
X21592000Y-8127000D01*
X15624000Y-15345000D02*
X15624000Y-14095000D01*
X21592000Y-8127000D02*
X21592000Y-4445000D01*
X23698000Y-4572000D02*
X21719000Y-4572000D01*
X21719000Y-4572000D02*
X21592000Y-4445000D01*
X25034000Y-5908000D02*
X23698000Y-4572000D01*
X25129000Y-5908000D02*
X25034000Y-5908000D01*
X25412000Y-4064000D02*
X25412000Y-5625000D01*
X25412000Y-5625000D02*
X25129000Y-5908000D01*
X15557000Y-23138000D02*
X15557000Y-15412000D01*
X15557000Y-15412000D02*
X15624000Y-15345000D01*
X25412000Y-2540000D02*
X25412000Y-4064000D01*
D55*
X17792000Y-58686000D02*
X16764000Y-58686000D01*
X18525800Y-59419800D02*
X17792000Y-58686000D01*
X20792200Y-59419800D02*
X18525800Y-59419800D01*
X22075670Y-40408330D02*
X21742000Y-40742000D01*
X21742000Y-40742000D02*
X18288000Y-40742000D01*
X22882882Y-51577966D02*
X21148000Y-49843084D01*
X21148000Y-49843084D02*
X21148000Y-45407000D01*
X21148000Y-45407000D02*
X19642000Y-43901000D01*
X19642000Y-43901000D02*
X18542000Y-43901000D01*
X18542000Y-43901000D02*
X18542000Y-40996000D01*
X18542000Y-40996000D02*
X18288000Y-40742000D01*
X13788000Y-40204000D02*
X14326000Y-40742000D01*
X12446000Y-40204000D02*
X13788000Y-40204000D01*
X14326000Y-40742000D02*
X18288000Y-40742000D01*
D58*
X8626000Y-60696000D02*
X8626000Y-61884000D01*
X8298000Y-60368000D02*
X8626000Y-60696000D01*
X8298000Y-58879000D02*
X8298000Y-60368000D01*
D56*
X30226000Y-84328000D02*
X30226000Y-81634000D01*
X30226000Y-94742000D02*
X30226000Y-84328000D01*
X26425700Y-83829700D02*
X26924000Y-84328000D01*
X26924000Y-84328000D02*
X30226000Y-84328000D01*
D57*
X30226000Y-81634000D02*
X30480000Y-81380000D01*
D56*
X18097000Y-24955000D02*
X11783000Y-24955000D01*
X11783000Y-24955000D02*
X10940000Y-24112000D01*
D57*
X18097000Y-23138000D02*
X18097000Y-24955000D01*
D58*
X18097000Y-24955000D02*
X18796000Y-25654000D01*
X23368000Y-25146000D02*
X23368000Y-24372000D01*
X22860000Y-25654000D02*
X23368000Y-25146000D01*
X18796000Y-25654000D02*
X22860000Y-25654000D01*
D56*
X7811000Y-24955000D02*
X10097000Y-24955000D01*
X10097000Y-24955000D02*
X10940000Y-24112000D01*
X8384000Y-33933000D02*
X6350000Y-31899000D01*
X8384000Y-35433000D02*
X8384000Y-33933000D01*
X6350000Y-31899000D02*
X6350000Y-26416000D01*
X6350000Y-26416000D02*
X7811000Y-24955000D01*
X10940000Y-24112000D02*
X10940000Y-21040000D01*
X26425700Y-83829700D02*
X25018500Y-83829700D01*
X30480000Y-81380000D02*
X30560000Y-81300000D01*
D58*
X25477000Y-139523000D02*
X25804000Y-139850000D01*
X23979500Y-139523000D02*
X25477000Y-139523000D01*
X25804000Y-139850000D02*
X27370000Y-139850000D01*
X25323000Y-127585000D02*
X25758000Y-127150000D01*
X23979500Y-127585000D02*
X25323000Y-127585000D01*
X25758000Y-127150000D02*
X27370000Y-127150000D01*
X33254000Y-53340000D02*
X35000000Y-55086000D01*
X32754000Y-53340000D02*
X33254000Y-53340000D01*
X35000000Y-55086000D02*
X35000000Y-57550000D01*
X35000000Y-57550000D02*
X34200000Y-58350000D01*
X34200000Y-58350000D02*
X34200000Y-59000000D01*
X32754000Y-54864000D02*
X33064000Y-54864000D01*
X33064000Y-54864000D02*
X34200000Y-56000000D01*
D56*
X21335500Y-79829700D02*
X19770300Y-79829700D01*
X19770300Y-79829700D02*
X17790000Y-81810000D01*
D58*
X23622000Y-38862000D02*
X23622000Y-31496000D01*
X23136330Y-39347670D02*
X23622000Y-38862000D01*
X23622000Y-31496000D02*
X22860000Y-30734000D01*
X22860000Y-30734000D02*
X13208000Y-30734000D01*
X13208000Y-30734000D02*
X12446000Y-31496000D01*
X12446000Y-31496000D02*
X12446000Y-32584000D01*
X23038143Y-42239857D02*
X23876000Y-41402000D01*
X23038143Y-49483228D02*
X23038143Y-42239857D01*
X23876000Y-41402000D02*
X23876000Y-40087340D01*
X23876000Y-40087340D02*
X23136330Y-39347670D01*
X32258000Y-37057798D02*
X31776202Y-36576000D01*
X32258000Y-39116000D02*
X32258000Y-37057798D01*
X30988000Y-40386000D02*
X32258000Y-39116000D01*
X31776202Y-36576000D02*
X29972000Y-36576000D01*
X27940000Y-40386000D02*
X30988000Y-40386000D01*
X29972000Y-36576000D02*
X29464000Y-36068000D01*
X23838143Y-49483228D02*
X23838143Y-44487857D01*
X23838143Y-44487857D02*
X27940000Y-40386000D01*
X29464000Y-36068000D02*
X29464000Y-34036000D01*
X29464000Y-34036000D02*
X29870401Y-33629599D01*
X29870401Y-33629599D02*
X30734000Y-32766000D01*
X33020000Y-36370686D02*
X31955314Y-35306000D01*
X33020000Y-39370000D02*
X33020000Y-36370686D01*
X31242000Y-41148000D02*
X33020000Y-39370000D01*
X24638143Y-49483228D02*
X24638143Y-44703857D01*
X24638143Y-44703857D02*
X28194000Y-41148000D01*
X28194000Y-41148000D02*
X31242000Y-41148000D01*
X31955314Y-35306000D02*
X30734000Y-35306000D01*
X26264000Y-62824200D02*
X26264000Y-67366000D01*
X30741400Y-58346800D02*
X30941400Y-58346800D01*
X26264000Y-62824200D02*
X30741400Y-58346800D01*
X30370000Y-69847000D02*
X29207000Y-69847000D01*
X31310000Y-68907000D02*
X30370000Y-69847000D01*
X32834000Y-68907000D02*
X31310000Y-68907000D01*
X33370000Y-69443000D02*
X32834000Y-68907000D01*
X33446200Y-71576100D02*
X33370000Y-71499900D01*
X33370000Y-71499900D02*
X33370000Y-69443000D01*
X29207000Y-69847000D02*
X28726000Y-69366000D01*
X28726000Y-69366000D02*
X25314000Y-69366000D01*
X35080500Y-74141802D02*
X34481201Y-74741101D01*
X34546201Y-69727199D02*
X34546201Y-71213201D01*
X34546201Y-71213201D02*
X35080500Y-71747500D01*
X35080500Y-71747500D02*
X35080500Y-74141802D01*
X34228900Y-81736100D02*
X34561200Y-81403800D01*
X33446200Y-81736100D02*
X34228900Y-81736100D01*
X34561200Y-81403800D02*
X34561200Y-79524200D01*
X34561200Y-79524200D02*
X34233100Y-79196100D01*
X34233100Y-79196100D02*
X33446200Y-79196100D01*
D55*
X19089702Y-58415102D02*
X19090400Y-58415800D01*
X19089702Y-57388124D02*
X19089702Y-58415102D01*
X20364369Y-57922369D02*
X19830124Y-57388124D01*
X20817423Y-57922369D02*
X20364369Y-57922369D01*
X19830124Y-57388124D02*
X19089702Y-57388124D01*
X20817423Y-57922369D02*
X20788143Y-57893089D01*
X20788143Y-57893089D02*
X20788143Y-56533228D01*
X29288144Y-50933228D02*
X29277956Y-50923040D01*
X29277956Y-50923040D02*
X29277956Y-49403372D01*
X17577702Y-57388124D02*
X17565702Y-57376124D01*
X19089702Y-57388123D02*
X17577702Y-57388124D01*
X27838143Y-50933228D02*
X27838143Y-49483228D01*
X27838143Y-49483228D02*
X27838143Y-48777966D01*
X26025972Y-52745400D02*
X27838143Y-50933228D01*
X24050315Y-52745400D02*
X26025972Y-52745400D01*
X27838143Y-48777966D02*
X28712737Y-47903373D01*
X28712737Y-47903373D02*
X29277956Y-47903373D01*
X22238143Y-58688489D02*
X21504264Y-59422368D01*
X22238143Y-57983228D02*
X22238143Y-58688489D01*
X21504264Y-59422368D02*
X20817423Y-59422368D01*
X24050315Y-54721056D02*
X22238143Y-56533228D01*
X24050315Y-52745400D02*
X24050315Y-54721056D01*
X22238143Y-56533228D02*
X22238143Y-57983228D01*
X22882882Y-51577966D02*
X24050315Y-52745400D01*
X22882882Y-51577966D02*
X25438144Y-54133228D01*
X25438144Y-54133228D02*
X25438144Y-57983228D01*
D58*
X20099500Y-134948000D02*
X20637500Y-134410000D01*
X23242499Y-130257001D02*
X20637500Y-132862000D01*
X14215500Y-134948000D02*
X20099500Y-134948000D01*
X23954500Y-127585000D02*
X23242499Y-128297001D01*
X20637500Y-132862000D02*
X20637500Y-134410000D01*
X23242499Y-128297001D02*
X23242499Y-130257001D01*
D56*
X30508500Y-81351500D02*
X30560000Y-81300000D01*
X29746500Y-78818700D02*
X30560000Y-79632200D01*
X30560000Y-79632200D02*
X31368500Y-80440700D01*
X30560000Y-81300000D02*
X31393900Y-80466100D01*
X30560000Y-79632200D02*
X30560000Y-81300000D01*
X29746500Y-78183700D02*
X29746500Y-78818700D01*
D58*
X31126500Y-71401500D02*
X31880800Y-70647200D01*
X31880800Y-70647200D02*
X31880800Y-69846800D01*
D56*
X29758500Y-77416000D02*
X29758500Y-78171700D01*
X29758500Y-78171700D02*
X29746500Y-78183700D01*
X31647900Y-80466100D02*
X31393900Y-80466100D01*
X25018500Y-71782500D02*
X25018500Y-72082700D01*
X30334000Y-70609000D02*
X26192000Y-70609000D01*
X26192000Y-70609000D02*
X25018500Y-71782500D01*
X31126500Y-72808700D02*
X31126500Y-71401500D01*
X31126500Y-71401500D02*
X30334000Y-70609000D01*
X31647900Y-80466100D02*
X33446200Y-80466100D01*
X31163900Y-72846100D02*
X33446200Y-72846100D01*
X31126500Y-72808700D02*
X31163900Y-72846100D01*
X29746500Y-74188700D02*
X29746500Y-78183700D01*
X31126500Y-72808700D02*
X29746500Y-74188700D01*
X31368500Y-80440700D02*
X31393900Y-80466100D01*
X25654900Y-80466100D02*
X25018500Y-79829700D01*
X28046200Y-80212100D02*
X28046200Y-81482100D01*
X28046200Y-82117100D02*
X28046200Y-82752100D01*
X28046200Y-80466100D02*
X28046200Y-79196100D01*
X21335500Y-79829700D02*
X25018500Y-79829700D01*
X28046200Y-80466100D02*
X25654900Y-80466100D01*
X28046200Y-81482100D02*
X28046200Y-82117100D01*
D58*
X33921200Y-74116100D02*
X34546201Y-73491099D01*
X33921200Y-71576100D02*
X33446200Y-71576100D01*
X34546201Y-72201101D02*
X33921200Y-71576100D01*
X34546201Y-72846100D02*
X34546201Y-72201101D01*
X34546201Y-73491099D02*
X34546201Y-72846100D01*
X33446200Y-74116100D02*
X33921200Y-74116100D01*
X29809000Y-68988500D02*
X30466500Y-68988500D01*
X33218002Y-68399000D02*
X34546201Y-69727199D01*
X31056000Y-68399000D02*
X33218002Y-68399000D01*
X30466500Y-68988500D02*
X31056000Y-68399000D01*
X31258500Y-75188500D02*
X31258500Y-76716000D01*
X34481201Y-74741101D02*
X31705899Y-74741101D01*
X31705899Y-74741101D02*
X31258500Y-75188500D01*
X31258500Y-76716000D02*
X31258500Y-77416000D01*
X33446200Y-79196100D02*
X33420800Y-79170700D01*
X33420800Y-79170700D02*
X32216700Y-79170700D01*
X31258500Y-78212500D02*
X31258500Y-78116000D01*
X31258500Y-78116000D02*
X31258500Y-77416000D01*
X32216700Y-79170700D02*
X31258500Y-78212500D01*
D55*
X28546000Y-67995000D02*
X28859000Y-67682000D01*
X28859000Y-67038500D02*
X28859000Y-67682000D01*
D58*
X32032500Y-76446500D02*
X32032500Y-75684500D01*
X32032500Y-75684500D02*
X32330900Y-75386100D01*
X33048500Y-77462500D02*
X32032500Y-76446500D01*
X34782100Y-75386100D02*
X35080500Y-75684500D01*
X35080500Y-77462500D02*
X33048500Y-77462500D01*
X35080500Y-75684500D02*
X35080500Y-77462500D01*
X33446200Y-75386100D02*
X34782100Y-75386100D01*
X32330900Y-75386100D02*
X33446200Y-75386100D01*
X30759000Y-66988500D02*
X30759000Y-60005600D01*
X32417800Y-58346800D02*
X32617800Y-58346800D01*
X30759000Y-60005600D02*
X32417800Y-58346800D01*
X37846000Y-17272000D02*
X33782000Y-21336000D01*
X37846000Y-13208000D02*
X37846000Y-17272000D01*
X31369000Y-6731000D02*
X37846000Y-13208000D01*
X31496000Y-41910000D02*
X28448000Y-41910000D01*
X25438143Y-44919857D02*
X25438143Y-49483228D01*
X28435998Y-6731000D02*
X31369000Y-6731000D01*
X27449000Y-5908000D02*
X27612998Y-5908000D01*
X27612998Y-5908000D02*
X28435998Y-6731000D01*
X33782000Y-21336000D02*
X33782000Y-39624000D01*
X28448000Y-41910000D02*
X25438143Y-44919857D01*
X33782000Y-39624000D02*
X31496000Y-41910000D01*
X26912000Y-4064000D02*
X26912000Y-5371000D01*
X26912000Y-5371000D02*
X27449000Y-5908000D01*
X22098000Y-38735000D02*
X23053000Y-37780000D01*
X23114000Y-40386000D02*
X22098000Y-39370000D01*
X13716000Y-32004000D02*
X13716000Y-36394000D01*
X22098000Y-39370000D02*
X22098000Y-38735000D01*
X23053000Y-37780000D02*
X23053000Y-31689000D01*
X23114000Y-41148000D02*
X23114000Y-40386000D01*
X22238143Y-49483228D02*
X22238143Y-42023857D01*
X22238143Y-42023857D02*
X23114000Y-41148000D01*
X23053000Y-31689000D02*
X22606000Y-31242000D01*
X14478000Y-31242000D02*
X13716000Y-32004000D01*
X22606000Y-31242000D02*
X14478000Y-31242000D01*
X13716000Y-36394000D02*
X12446000Y-37664000D01*
X15741228Y-53333228D02*
X14000000Y-51592000D01*
X20788143Y-53333228D02*
X15741228Y-53333228D01*
X14000000Y-51592000D02*
X14000000Y-49875000D01*
X15309228Y-54933228D02*
X11176000Y-50800000D01*
X20788143Y-54933228D02*
X15309228Y-54933228D01*
X11176000Y-50800000D02*
X11176000Y-47244000D01*
X11176000Y-47244000D02*
X12295000Y-46125000D01*
X12295000Y-46125000D02*
X14000000Y-46125000D01*
X15525228Y-54133228D02*
X11938000Y-50546000D01*
X20788143Y-54133228D02*
X15525228Y-54133228D01*
X11938000Y-50546000D02*
X11938000Y-47752000D01*
X11938000Y-47752000D02*
X12315000Y-47375000D01*
X12315000Y-47375000D02*
X14000000Y-47375000D01*
X35560000Y-36068000D02*
X37592000Y-34036000D01*
X26238143Y-49483228D02*
X26238143Y-45135857D01*
X35560000Y-38862000D02*
X35560000Y-36068000D01*
X31750000Y-42672000D02*
X35560000Y-38862000D01*
X28702000Y-42672000D02*
X31750000Y-42672000D01*
X26238143Y-45135857D02*
X28702000Y-42672000D01*
X37592000Y-34036000D02*
X39878000Y-34036000D01*
X39878000Y-34036000D02*
X40284401Y-33629599D01*
X40284401Y-33629599D02*
X41148000Y-32766000D01*
X40737600Y-39370000D02*
X41148000Y-38959600D01*
X41148000Y-38959600D02*
X41148000Y-37846000D01*
X36068000Y-39370000D02*
X40737600Y-39370000D01*
X32004000Y-43434000D02*
X36068000Y-39370000D01*
X28956000Y-43434000D02*
X32004000Y-43434000D01*
X27038143Y-49483228D02*
X27038143Y-45351857D01*
X27038143Y-45351857D02*
X28956000Y-43434000D01*
X30138143Y-55733228D02*
X30924500Y-56519585D01*
X29288143Y-55733228D02*
X30138143Y-55733228D01*
X30924500Y-56519585D02*
X30924500Y-56832500D01*
X30138143Y-54933228D02*
X31211915Y-56007000D01*
X29288143Y-54933228D02*
X30138143Y-54933228D01*
X31211915Y-56007000D02*
X32258000Y-56007000D01*
X32258000Y-56007000D02*
X32617800Y-56366800D01*
X32617800Y-56366800D02*
X32617800Y-56846800D01*
X29288143Y-53333228D02*
X31247228Y-53333228D01*
X31247228Y-53333228D02*
X31254000Y-53340000D01*
X29288143Y-54133228D02*
X30523228Y-54133228D01*
X30523228Y-54133228D02*
X31254000Y-54864000D01*
X29288143Y-52533228D02*
X30536772Y-52533228D01*
X30536772Y-52533228D02*
X31254000Y-51816000D01*
X29288143Y-51733228D02*
X29973145Y-51733228D01*
X29973145Y-51733228D02*
X31706373Y-50000000D01*
X31706373Y-50000000D02*
X40490000Y-50000000D01*
X40490000Y-50000000D02*
X42500000Y-52010000D01*
X42500000Y-52010000D02*
X42500000Y-52300000D01*
D56*
X29314000Y-129690000D02*
X30584000Y-128420000D01*
X27370000Y-129690000D02*
X29314000Y-129690000D01*
X30584000Y-128420000D02*
X32450000Y-128420000D01*
X27370000Y-129690000D02*
X24482500Y-129690000D01*
X24482500Y-129690000D02*
X23967500Y-129175000D01*
X19419500Y-129163000D02*
X17641500Y-129163000D01*
X19431500Y-129175000D02*
X19419500Y-129163000D01*
X17641500Y-129163000D02*
X17629500Y-129175000D01*
X22467500Y-129175000D02*
X19431500Y-129175000D01*
D54*
X23876000Y-157988000D02*
X3556000Y-137668000D01*
X30480000Y-157988000D02*
X23876000Y-157988000D01*
X23938000Y-108650000D02*
X24770000Y-108650000D01*
X34798000Y-153670000D02*
X30480000Y-157988000D01*
X3556000Y-129032000D02*
X23938000Y-108650000D01*
X34798000Y-127096630D02*
X34798000Y-153670000D01*
X3556000Y-137668000D02*
X3556000Y-129032000D01*
X32450000Y-125880000D02*
X33581370Y-125880000D01*
X33581370Y-125880000D02*
X34798000Y-127096630D01*
X29210000Y-118180000D02*
X29210000Y-122770000D01*
X29210000Y-122770000D02*
X27370000Y-124610000D01*
X24234000Y-142390000D02*
X22098000Y-144526000D01*
X27370000Y-142390000D02*
X24234000Y-142390000D01*
X22098000Y-144526000D02*
X22098000Y-148068000D01*
X22098000Y-148068000D02*
X28110001Y-154080001D01*
X28110001Y-154080001D02*
X29210000Y-155180000D01*
X27920000Y-145650000D02*
X24770000Y-145650000D01*
X32450000Y-141120000D02*
X27920000Y-145650000D01*
D55*
X32450000Y-130960000D02*
X24779000Y-130960000D01*
X24779000Y-130960000D02*
X23349500Y-132389500D01*
X23349500Y-132389500D02*
X23349500Y-133489500D01*
X25217001Y-135056999D02*
X25908000Y-134366000D01*
X21260501Y-135056999D02*
X25217001Y-135056999D01*
X20619500Y-135698000D02*
X21260501Y-135056999D01*
X15993500Y-135698000D02*
X20619500Y-135698000D01*
X14215500Y-136448000D02*
X15243500Y-136448000D01*
X15243500Y-136448000D02*
X15993500Y-135698000D01*
X25908000Y-134366000D02*
X25908000Y-133692000D01*
X25908000Y-133692000D02*
X27370000Y-132230000D01*
X11241500Y-136448000D02*
X10405500Y-135612000D01*
X14215500Y-136448000D02*
X11241500Y-136448000D01*
D56*
X27370000Y-137310000D02*
X29210000Y-137310000D01*
X32450000Y-138580000D02*
X30480000Y-138580000D01*
X30480000Y-138580000D02*
X29210000Y-137310000D01*
X27370000Y-137310000D02*
X24477000Y-137310000D01*
X24477000Y-137310000D02*
X23979500Y-137807500D01*
X17641500Y-137823000D02*
X17629500Y-137811000D01*
X22464000Y-137823000D02*
X22479500Y-137807500D01*
X19419500Y-137823000D02*
X22464000Y-137823000D01*
X19431500Y-137811000D02*
X19419500Y-137823000D01*
X19419500Y-137823000D02*
X17641500Y-137823000D01*
D58*
X32754000Y-51816000D02*
X33016000Y-51816000D01*
X33016000Y-51816000D02*
X34200000Y-53000000D01*
D56*
X21335500Y-76082700D02*
X19707300Y-76082700D01*
X19707300Y-76082700D02*
X17790000Y-78000000D01*
X28046200Y-75386100D02*
X28046200Y-74116100D01*
X25018500Y-76082700D02*
X25036300Y-76082700D01*
X28046200Y-72846100D02*
X28046200Y-71576100D01*
X21335500Y-76082700D02*
X25018500Y-76082700D01*
X28046200Y-75386100D02*
X25715100Y-75386100D01*
X25715100Y-75386100D02*
X25018500Y-76082700D01*
X28046200Y-74116100D02*
X28046200Y-72846100D01*
D58*
X19938143Y-55733228D02*
X19938143Y-55739683D01*
X19938143Y-55739683D02*
X19789702Y-55888124D01*
X19789702Y-55888124D02*
X19089702Y-55888124D01*
X19886371Y-55785000D02*
X19938143Y-55733228D01*
X20788143Y-55733228D02*
X19938143Y-55733228D01*
X17565702Y-55876124D02*
X17577702Y-55888124D01*
X17577702Y-55888124D02*
X19089702Y-55888124D01*
D55*
X29309535Y-49371793D02*
X30535191Y-49371793D01*
X29277956Y-49403372D02*
X29309535Y-49371793D01*
D58*
X31242000Y-24638000D02*
X31242000Y-18328000D01*
X31242000Y-18328000D02*
X34000000Y-15570000D01*
X28194000Y-27686000D02*
X31242000Y-24638000D01*
X32766000Y-30226000D02*
X31496000Y-31496000D01*
X37084000Y-13462000D02*
X37084000Y-17018000D01*
X32766000Y-21336000D02*
X32766000Y-30226000D01*
X37084000Y-17018000D02*
X32766000Y-21336000D01*
X29790000Y-8000000D02*
X31622000Y-8000000D01*
X31622000Y-8000000D02*
X37084000Y-13462000D01*
X31496000Y-31496000D02*
X29464000Y-31496000D01*
X29464000Y-31496000D02*
X28194000Y-32766000D01*
X32004000Y-28448000D02*
X31496000Y-28956000D01*
X27432000Y-31496000D02*
X26924000Y-32004000D01*
X32004000Y-21082000D02*
X32004000Y-28448000D01*
X36322000Y-16764000D02*
X32004000Y-21082000D01*
X27330401Y-34442401D02*
X28194000Y-35306000D01*
X36322000Y-13716000D02*
X36322000Y-16764000D01*
X26924000Y-34036000D02*
X27330401Y-34442401D01*
X29790000Y-10000000D02*
X32606000Y-10000000D01*
X29464000Y-29464000D02*
X29464000Y-30715130D01*
X32606000Y-10000000D02*
X36322000Y-13716000D01*
X29464000Y-30715130D02*
X28683130Y-31496000D01*
X31496000Y-28956000D02*
X29972000Y-28956000D01*
X29972000Y-28956000D02*
X29464000Y-29464000D01*
X28683130Y-31496000D02*
X27432000Y-31496000D01*
X26924000Y-32004000D02*
X26924000Y-34036000D01*
D57*
X29010000Y-12500000D02*
X27432000Y-10922000D01*
X29790000Y-12500000D02*
X29010000Y-12500000D01*
X27432000Y-10922000D02*
X27432000Y-9652000D01*
X27432000Y-9652000D02*
X26289000Y-8509000D01*
X26289000Y-8509000D02*
X26289000Y-7808000D01*
X26289000Y-6858000D02*
X26289000Y-7808000D01*
X26289000Y-7808000D02*
X25129000Y-7808000D01*
X26289000Y-6858000D02*
X27449000Y-6858000D01*
X25129000Y-6858000D02*
X26289000Y-6858000D01*
X27449000Y-7808000D02*
X26289000Y-7808000D01*
D58*
X11296000Y-58920500D02*
X9839500Y-58920500D01*
X9839500Y-58920500D02*
X9798000Y-58879000D01*
D56*
X40132000Y-106426000D02*
X39116000Y-105410000D01*
X40132000Y-109474000D02*
X40132000Y-106426000D01*
X39116000Y-105410000D02*
X39116000Y-100838000D01*
X38354000Y-111252000D02*
X40132000Y-109474000D01*
X40132000Y-99822000D02*
X40132000Y-91287500D01*
X30480000Y-111252000D02*
X38354000Y-111252000D01*
X16129500Y-129175000D02*
X16129500Y-125602500D01*
X16129500Y-125602500D02*
X30480000Y-111252000D01*
X39116000Y-100838000D02*
X40132000Y-99822000D01*
X40132000Y-91287500D02*
X38336499Y-89491999D01*
X38336499Y-89491999D02*
X36836500Y-87992000D01*
X8525000Y-137811000D02*
X7112000Y-136398000D01*
X16129500Y-137811000D02*
X8525000Y-137811000D01*
X7112000Y-136398000D02*
X7112000Y-130556000D01*
X7112000Y-130556000D02*
X34676000Y-102992000D01*
X34676000Y-102992000D02*
X36836500Y-102992000D01*
D57*
X24638000Y-19558000D02*
X25524000Y-18672000D01*
X25524000Y-18672000D02*
X25524000Y-15345000D01*
X20066000Y-19558000D02*
X24638000Y-19558000D01*
X19304000Y-20320000D02*
X20066000Y-19558000D01*
X19304000Y-20828000D02*
X19304000Y-20320000D01*
X19304000Y-20828000D02*
X19812000Y-21336000D01*
X19812000Y-21336000D02*
X20066000Y-21336000D01*
X18796000Y-21336000D02*
X19304000Y-20828000D01*
X17526000Y-21336000D02*
X18796000Y-21336000D01*
X20828000Y-22098000D02*
X20066000Y-21336000D01*
X20828000Y-23654000D02*
X20828000Y-22098000D01*
X17526000Y-21336000D02*
X16827000Y-22035000D01*
X16827000Y-22035000D02*
X16827000Y-23138000D01*
D58*
X24384000Y-31242000D02*
X23114000Y-29972000D01*
X24384000Y-36322000D02*
X24384000Y-31242000D01*
X27432000Y-39370000D02*
X24384000Y-36322000D01*
X11493500Y-38925500D02*
X13398500Y-38925500D01*
X30323600Y-39370000D02*
X27432000Y-39370000D01*
X30734000Y-37846000D02*
X30734000Y-38959600D01*
X30734000Y-38959600D02*
X30323600Y-39370000D01*
X23114000Y-29972000D02*
X12700000Y-29972000D01*
X12700000Y-29972000D02*
X10922000Y-31750000D01*
X10922000Y-31750000D02*
X10922000Y-38354000D01*
X13398500Y-38925500D02*
X14478000Y-37846000D01*
X10922000Y-38354000D02*
X11493500Y-38925500D01*
X14478000Y-37846000D02*
X14478000Y-34798000D01*
X14478000Y-34798000D02*
X14834000Y-34442000D01*
X14834000Y-34442000D02*
X15988000Y-34442000D01*
X15760000Y-32258000D02*
X15760000Y-34214000D01*
X15760000Y-34214000D02*
X15988000Y-34442000D01*
X5588000Y-37338000D02*
X3810000Y-39116000D01*
X10940000Y-18270000D02*
X7819998Y-18270000D01*
X15240000Y-58674000D02*
X16002000Y-59436000D01*
X5588000Y-33528000D02*
X5588000Y-37338000D01*
X4318000Y-32258000D02*
X5588000Y-33528000D01*
X4318000Y-21771998D02*
X4318000Y-32258000D01*
X7819998Y-18270000D02*
X4318000Y-21771998D01*
X3810000Y-39116000D02*
X3810000Y-44450000D01*
X16002000Y-59436000D02*
X17526000Y-59436000D01*
X27838143Y-58833228D02*
X27838143Y-57983228D01*
X3810000Y-44450000D02*
X15240000Y-55880000D01*
X15240000Y-55880000D02*
X15240000Y-58674000D01*
X17526000Y-59436000D02*
X18288000Y-60198000D01*
X18288000Y-60198000D02*
X26473371Y-60198000D01*
X26473371Y-60198000D02*
X27838143Y-58833228D01*
X29288143Y-58341857D02*
X26670000Y-60960000D01*
X29288143Y-56533228D02*
X29288143Y-58341857D01*
X26670000Y-60960000D02*
X18034000Y-60960000D01*
X18034000Y-60960000D02*
X17260000Y-60186000D01*
X17260000Y-60186000D02*
X16764000Y-60186000D01*
X14478000Y-58928000D02*
X15736000Y-60186000D01*
X15736000Y-60186000D02*
X16764000Y-60186000D01*
X5080000Y-36830000D02*
X5080000Y-34036000D01*
X3048000Y-38862000D02*
X5080000Y-36830000D01*
X3048000Y-44704000D02*
X3048000Y-38862000D01*
X14478000Y-56134000D02*
X3048000Y-44704000D01*
X3556000Y-19763998D02*
X7819998Y-15500000D01*
X14478000Y-58928000D02*
X14478000Y-56134000D01*
X5080000Y-34036000D02*
X3556000Y-32512000D01*
X3556000Y-32512000D02*
X3556000Y-19763998D01*
X7819998Y-15500000D02*
X10940000Y-15500000D01*
D54*
X37632000Y-69302000D02*
X37076000Y-69858000D01*
X37076000Y-69858000D02*
X37076000Y-72214000D01*
X37632000Y-66880000D02*
X37632000Y-69302000D01*
D59*
G36*
X8030354Y-738613D02*
X7806537Y-1111932D01*
X9520000Y-2825395D01*
X11233463Y-1111932D01*
X11009646Y-738613D01*
X10939061Y-710000D01*
X32559233Y-710000D01*
X32105259Y-1163974D01*
X31765000Y-1985431D01*
X31765000Y-2874569D01*
X32105259Y-3696026D01*
X32733974Y-4324741D01*
X33555431Y-4665000D01*
X34444569Y-4665000D01*
X35266026Y-4324741D01*
X35894741Y-3696026D01*
X36235000Y-2874569D01*
X36235000Y-1985431D01*
X35894741Y-1163974D01*
X35440767Y-710000D01*
X44290000Y-710000D01*
X44290000Y-70256744D01*
X44102310Y-70179000D01*
X42861750Y-70179000D01*
X42703000Y-70337750D01*
X42703000Y-72087000D01*
X42723000Y-72087000D01*
X42723000Y-72341000D01*
X42703000Y-72341000D01*
X42703000Y-74090250D01*
X42861750Y-74249000D01*
X44102310Y-74249000D01*
X44290000Y-74171256D01*
X44290000Y-75282177D01*
X44017724Y-75151882D01*
X42755605Y-76414000D01*
X44017724Y-77676118D01*
X44290000Y-77545823D01*
X44290001Y-84873000D01*
X38468805Y-84873000D01*
X38531916Y-84767022D01*
X36836500Y-83071605D01*
X35141084Y-84767022D01*
X35204195Y-84873000D01*
X31236000Y-84873000D01*
X31236000Y-84427475D01*
X31255787Y-84328000D01*
X31236000Y-84228524D01*
X31236000Y-83291850D01*
X32036200Y-83291850D01*
X32036200Y-83432410D01*
X32132873Y-83665799D01*
X32311502Y-83844427D01*
X32544891Y-83941100D01*
X33160450Y-83941100D01*
X33319200Y-83782350D01*
X33319200Y-83133100D01*
X32194950Y-83133100D01*
X32036200Y-83291850D01*
X31236000Y-83291850D01*
X31236000Y-82063027D01*
X31288169Y-82028169D01*
X31344518Y-81943837D01*
X31812256Y-81476100D01*
X32023760Y-81476100D01*
X32023760Y-82036100D01*
X32073043Y-82283865D01*
X32125968Y-82363072D01*
X32036200Y-82579790D01*
X32036200Y-82720350D01*
X32194950Y-82879100D01*
X33319200Y-82879100D01*
X33319200Y-82859100D01*
X33573200Y-82859100D01*
X33573200Y-82879100D01*
X33593200Y-82879100D01*
X33593200Y-83133100D01*
X33573200Y-83133100D01*
X33573200Y-83782350D01*
X33731950Y-83941100D01*
X34347509Y-83941100D01*
X34404681Y-83917419D01*
X34590757Y-84366647D01*
X34961478Y-84587416D01*
X36656895Y-82892000D01*
X37016105Y-82892000D01*
X38711522Y-84587416D01*
X39082243Y-84366647D01*
X39475619Y-83394988D01*
X39467213Y-82346753D01*
X39082243Y-81417353D01*
X38711522Y-81196584D01*
X37016105Y-82892000D01*
X36656895Y-82892000D01*
X36642752Y-82877858D01*
X36822358Y-82698252D01*
X36836500Y-82712395D01*
X38531916Y-81016978D01*
X38311147Y-80646257D01*
X37339488Y-80252881D01*
X36291253Y-80261287D01*
X35361853Y-80646257D01*
X35321200Y-80714523D01*
X35321200Y-79599046D01*
X35336088Y-79524199D01*
X35321200Y-79449352D01*
X35321200Y-79449348D01*
X35277104Y-79227663D01*
X35109129Y-78976271D01*
X35045672Y-78933870D01*
X34834061Y-78722260D01*
X34819357Y-78648335D01*
X34679009Y-78438291D01*
X34468965Y-78297943D01*
X34221200Y-78248660D01*
X32671200Y-78248660D01*
X32423435Y-78297943D01*
X32420624Y-78299821D01*
X32127878Y-78007077D01*
X32155940Y-77866000D01*
X32155940Y-76966000D01*
X32106657Y-76718235D01*
X32018500Y-76586300D01*
X32018500Y-75503301D01*
X32020700Y-75501101D01*
X32036200Y-75501101D01*
X32036200Y-75513102D01*
X32194948Y-75513102D01*
X32036200Y-75671850D01*
X32036200Y-75812410D01*
X32132873Y-76045799D01*
X32311502Y-76224427D01*
X32544891Y-76321100D01*
X33160450Y-76321100D01*
X33319200Y-76162350D01*
X33319200Y-75513100D01*
X33299200Y-75513100D01*
X33299200Y-75501101D01*
X33593200Y-75501101D01*
X33593200Y-75513100D01*
X33573200Y-75513100D01*
X33573200Y-76162350D01*
X33731950Y-76321100D01*
X34347509Y-76321100D01*
X34580898Y-76224427D01*
X34759527Y-76045799D01*
X34774681Y-76009213D01*
X35041000Y-76009213D01*
X35041000Y-76818787D01*
X35350810Y-77566735D01*
X35923265Y-78139190D01*
X36671213Y-78449000D01*
X37480787Y-78449000D01*
X38228735Y-78139190D01*
X38512201Y-77855724D01*
X41313882Y-77855724D01*
X41461455Y-78164106D01*
X42216031Y-78457405D01*
X43025409Y-78439614D01*
X43690545Y-78164106D01*
X43838118Y-77855724D01*
X42576000Y-76593605D01*
X41313882Y-77855724D01*
X38512201Y-77855724D01*
X38801190Y-77566735D01*
X39111000Y-76818787D01*
X39111000Y-76054031D01*
X40532595Y-76054031D01*
X40550386Y-76863409D01*
X40825894Y-77528545D01*
X41134276Y-77676118D01*
X42396395Y-76414000D01*
X41134276Y-75151882D01*
X40825894Y-75299455D01*
X40532595Y-76054031D01*
X39111000Y-76054031D01*
X39111000Y-76009213D01*
X38801190Y-75261265D01*
X38512201Y-74972276D01*
X41313882Y-74972276D01*
X42576000Y-76234395D01*
X43838118Y-74972276D01*
X43690545Y-74663894D01*
X42935969Y-74370595D01*
X42126591Y-74388386D01*
X41461455Y-74663894D01*
X41313882Y-74972276D01*
X38512201Y-74972276D01*
X38228735Y-74688810D01*
X37480787Y-74379000D01*
X36671213Y-74379000D01*
X35923265Y-74688810D01*
X35350810Y-75261265D01*
X35041000Y-76009213D01*
X34774681Y-76009213D01*
X34856200Y-75812410D01*
X34856200Y-75671850D01*
X34697452Y-75513102D01*
X34856200Y-75513102D01*
X34856200Y-75404578D01*
X35029130Y-75289030D01*
X35071532Y-75225571D01*
X35564973Y-74732131D01*
X35628429Y-74689731D01*
X35705160Y-74574895D01*
X35796404Y-74438340D01*
X35812720Y-74356314D01*
X35840500Y-74216654D01*
X35840500Y-74216650D01*
X35855388Y-74141802D01*
X35840500Y-74066954D01*
X35840500Y-73856425D01*
X35923265Y-73939190D01*
X36671213Y-74249000D01*
X37480787Y-74249000D01*
X38228735Y-73939190D01*
X38801190Y-73366735D01*
X39111000Y-72618787D01*
X39111000Y-72499750D01*
X40541000Y-72499750D01*
X40541000Y-73740309D01*
X40637673Y-73973698D01*
X40816301Y-74152327D01*
X41049690Y-74249000D01*
X42290250Y-74249000D01*
X42449000Y-74090250D01*
X42449000Y-72341000D01*
X40699750Y-72341000D01*
X40541000Y-72499750D01*
X39111000Y-72499750D01*
X39111000Y-71809213D01*
X38801190Y-71061265D01*
X38611000Y-70871075D01*
X38611000Y-70687691D01*
X40541000Y-70687691D01*
X40541000Y-71928250D01*
X40699750Y-72087000D01*
X42449000Y-72087000D01*
X42449000Y-70337750D01*
X42290250Y-70179000D01*
X41049690Y-70179000D01*
X40816301Y-70275673D01*
X40637673Y-70454302D01*
X40541000Y-70687691D01*
X38611000Y-70687691D01*
X38611000Y-70493981D01*
X38738673Y-70408673D01*
X39077938Y-69900927D01*
X39167000Y-69453182D01*
X39197072Y-69302000D01*
X39167000Y-69150818D01*
X39167000Y-68603277D01*
X39339809Y-68487809D01*
X39480157Y-68277765D01*
X39529440Y-68030000D01*
X39529440Y-67165750D01*
X40047000Y-67165750D01*
X40047000Y-68156310D01*
X40143673Y-68389699D01*
X40322302Y-68568327D01*
X40555691Y-68665000D01*
X41646250Y-68665000D01*
X41805000Y-68506250D01*
X41805000Y-67007000D01*
X42059000Y-67007000D01*
X42059000Y-68506250D01*
X42217750Y-68665000D01*
X43308309Y-68665000D01*
X43541698Y-68568327D01*
X43720327Y-68389699D01*
X43817000Y-68156310D01*
X43817000Y-67165750D01*
X43658250Y-67007000D01*
X42059000Y-67007000D01*
X41805000Y-67007000D01*
X40205750Y-67007000D01*
X40047000Y-67165750D01*
X39529440Y-67165750D01*
X39529440Y-65730000D01*
X39504316Y-65603690D01*
X40047000Y-65603690D01*
X40047000Y-66594250D01*
X40205750Y-66753000D01*
X41805000Y-66753000D01*
X41805000Y-65253750D01*
X42059000Y-65253750D01*
X42059000Y-66753000D01*
X43658250Y-66753000D01*
X43817000Y-66594250D01*
X43817000Y-65603690D01*
X43720327Y-65370301D01*
X43541698Y-65191673D01*
X43308309Y-65095000D01*
X42217750Y-65095000D01*
X42059000Y-65253750D01*
X41805000Y-65253750D01*
X41646250Y-65095000D01*
X40555691Y-65095000D01*
X40322302Y-65191673D01*
X40143673Y-65370301D01*
X40047000Y-65603690D01*
X39504316Y-65603690D01*
X39480157Y-65482235D01*
X39339809Y-65272191D01*
X39129765Y-65131843D01*
X38882000Y-65082560D01*
X36382000Y-65082560D01*
X36134235Y-65131843D01*
X35924191Y-65272191D01*
X35783843Y-65482235D01*
X35734560Y-65730000D01*
X35734560Y-68030000D01*
X35783843Y-68277765D01*
X35924191Y-68487809D01*
X36097001Y-68603278D01*
X36097001Y-68666018D01*
X35969327Y-68751327D01*
X35630062Y-69259074D01*
X35541000Y-69706819D01*
X35541000Y-69706823D01*
X35510929Y-69858000D01*
X35541000Y-70009178D01*
X35541000Y-70871075D01*
X35409938Y-71002137D01*
X35306201Y-70898400D01*
X35306201Y-69802045D01*
X35321089Y-69727198D01*
X35306201Y-69652351D01*
X35306201Y-69652347D01*
X35262105Y-69430662D01*
X35094130Y-69179270D01*
X35030674Y-69136870D01*
X33808333Y-67914530D01*
X33765931Y-67851071D01*
X33514539Y-67683096D01*
X33292854Y-67639000D01*
X33292849Y-67639000D01*
X33218002Y-67624112D01*
X33143155Y-67639000D01*
X31766558Y-67639000D01*
X31806440Y-67438500D01*
X31806440Y-66538500D01*
X31757157Y-66290735D01*
X31616809Y-66080691D01*
X31519000Y-66015337D01*
X31519000Y-60320401D01*
X32595163Y-59244240D01*
X33067800Y-59244240D01*
X33152560Y-59227380D01*
X33152560Y-59400000D01*
X33201843Y-59647765D01*
X33342191Y-59857809D01*
X33552235Y-59998157D01*
X33800000Y-60047440D01*
X34600000Y-60047440D01*
X34847765Y-59998157D01*
X34999047Y-59897073D01*
X35040302Y-59938327D01*
X35273691Y-60035000D01*
X35514250Y-60035000D01*
X35673000Y-59876250D01*
X35673000Y-59127000D01*
X35927000Y-59127000D01*
X35927000Y-59876250D01*
X36085750Y-60035000D01*
X36326309Y-60035000D01*
X36445208Y-59985750D01*
X41065000Y-59985750D01*
X41065000Y-60916309D01*
X41161673Y-61149698D01*
X41340301Y-61328327D01*
X41573690Y-61425000D01*
X42214250Y-61425000D01*
X42373000Y-61266250D01*
X42373000Y-59827000D01*
X42627000Y-59827000D01*
X42627000Y-61266250D01*
X42785750Y-61425000D01*
X43426310Y-61425000D01*
X43659699Y-61328327D01*
X43838327Y-61149698D01*
X43935000Y-60916309D01*
X43935000Y-59985750D01*
X43776250Y-59827000D01*
X42627000Y-59827000D01*
X42373000Y-59827000D01*
X41223750Y-59827000D01*
X41065000Y-59985750D01*
X36445208Y-59985750D01*
X36559698Y-59938327D01*
X36738327Y-59759699D01*
X36835000Y-59526310D01*
X36835000Y-59285750D01*
X36676250Y-59127000D01*
X35927000Y-59127000D01*
X35673000Y-59127000D01*
X35653000Y-59127000D01*
X35653000Y-58873000D01*
X35673000Y-58873000D01*
X35673000Y-58123750D01*
X35927000Y-58123750D01*
X35927000Y-58873000D01*
X36676250Y-58873000D01*
X36835000Y-58714250D01*
X36835000Y-58483691D01*
X41065000Y-58483691D01*
X41065000Y-59414250D01*
X41223750Y-59573000D01*
X42373000Y-59573000D01*
X42373000Y-58133750D01*
X42627000Y-58133750D01*
X42627000Y-59573000D01*
X43776250Y-59573000D01*
X43935000Y-59414250D01*
X43935000Y-58483691D01*
X43838327Y-58250302D01*
X43659699Y-58071673D01*
X43426310Y-57975000D01*
X42785750Y-57975000D01*
X42627000Y-58133750D01*
X42373000Y-58133750D01*
X42214250Y-57975000D01*
X41573690Y-57975000D01*
X41340301Y-58071673D01*
X41161673Y-58250302D01*
X41065000Y-58483691D01*
X36835000Y-58483691D01*
X36835000Y-58473690D01*
X36738327Y-58240301D01*
X36559698Y-58061673D01*
X36326309Y-57965000D01*
X36085750Y-57965000D01*
X35927000Y-58123750D01*
X35673000Y-58123750D01*
X35587683Y-58038433D01*
X35612132Y-58001843D01*
X35715904Y-57846538D01*
X35728829Y-57781560D01*
X35760000Y-57624852D01*
X35760000Y-57624848D01*
X35774888Y-57550000D01*
X35760000Y-57475152D01*
X35760000Y-56127000D01*
X35927000Y-56127000D01*
X35927000Y-56876250D01*
X36085750Y-57035000D01*
X36326309Y-57035000D01*
X36559698Y-56938327D01*
X36738327Y-56759699D01*
X36835000Y-56526310D01*
X36835000Y-56285750D01*
X36676250Y-56127000D01*
X35927000Y-56127000D01*
X35760000Y-56127000D01*
X35760000Y-55160847D01*
X35767379Y-55123750D01*
X35927000Y-55123750D01*
X35927000Y-55873000D01*
X36676250Y-55873000D01*
X36835000Y-55714250D01*
X36835000Y-55473690D01*
X36738327Y-55240301D01*
X36559698Y-55061673D01*
X36326309Y-54965000D01*
X36085750Y-54965000D01*
X35927000Y-55123750D01*
X35767379Y-55123750D01*
X35774888Y-55086000D01*
X35760000Y-55011153D01*
X35760000Y-55011148D01*
X35715904Y-54789463D01*
X35547929Y-54538071D01*
X35484473Y-54495671D01*
X34931205Y-53942404D01*
X34999047Y-53897073D01*
X35040302Y-53938327D01*
X35273691Y-54035000D01*
X35514250Y-54035000D01*
X35673000Y-53876250D01*
X35673000Y-53127000D01*
X35927000Y-53127000D01*
X35927000Y-53876250D01*
X36085750Y-54035000D01*
X36326309Y-54035000D01*
X36559698Y-53938327D01*
X36738327Y-53759699D01*
X36835000Y-53526310D01*
X36835000Y-53285750D01*
X36676250Y-53127000D01*
X35927000Y-53127000D01*
X35673000Y-53127000D01*
X35653000Y-53127000D01*
X35653000Y-52873000D01*
X35673000Y-52873000D01*
X35673000Y-52123750D01*
X35927000Y-52123750D01*
X35927000Y-52873000D01*
X36676250Y-52873000D01*
X36835000Y-52714250D01*
X36835000Y-52473690D01*
X36738327Y-52240301D01*
X36559698Y-52061673D01*
X36326309Y-51965000D01*
X36085750Y-51965000D01*
X35927000Y-52123750D01*
X35673000Y-52123750D01*
X35514250Y-51965000D01*
X35273691Y-51965000D01*
X35040302Y-52061673D01*
X34999047Y-52102927D01*
X34847765Y-52001843D01*
X34600000Y-51952560D01*
X34227362Y-51952560D01*
X33651440Y-51376639D01*
X33651440Y-51366000D01*
X33602157Y-51118235D01*
X33461809Y-50908191D01*
X33251765Y-50767843D01*
X33212335Y-50760000D01*
X40175199Y-50760000D01*
X41052560Y-51637362D01*
X41052560Y-53390000D01*
X41101843Y-53637765D01*
X41242191Y-53847809D01*
X41452235Y-53988157D01*
X41700000Y-54037440D01*
X43300000Y-54037440D01*
X43547765Y-53988157D01*
X43757809Y-53847809D01*
X43898157Y-53637765D01*
X43947440Y-53390000D01*
X43947440Y-51210000D01*
X43898157Y-50962235D01*
X43757809Y-50752191D01*
X43547765Y-50611843D01*
X43300000Y-50562560D01*
X42127362Y-50562560D01*
X41080331Y-49515530D01*
X41037929Y-49452071D01*
X40786537Y-49284096D01*
X40564852Y-49240000D01*
X40564847Y-49240000D01*
X40490000Y-49225112D01*
X40415153Y-49240000D01*
X31781221Y-49240000D01*
X31706373Y-49225112D01*
X31631525Y-49240000D01*
X31631521Y-49240000D01*
X31409836Y-49284096D01*
X31158444Y-49452071D01*
X31116044Y-49515527D01*
X30392256Y-50239315D01*
X30247841Y-50094901D01*
X30215968Y-50081699D01*
X30285800Y-49913109D01*
X30285800Y-49672550D01*
X30127050Y-49513800D01*
X29402800Y-49513800D01*
X29402800Y-50263050D01*
X29415143Y-50275393D01*
X29415143Y-50785788D01*
X29161143Y-50785788D01*
X29161143Y-50156978D01*
X29148800Y-50144635D01*
X29148800Y-49513800D01*
X29128800Y-49513800D01*
X29128800Y-49259800D01*
X29148800Y-49259800D01*
X29148800Y-49239800D01*
X29402800Y-49239800D01*
X29402800Y-49259800D01*
X30127050Y-49259800D01*
X30285800Y-49101050D01*
X30285800Y-48860491D01*
X30189127Y-48627102D01*
X30187927Y-48625902D01*
X30248957Y-48534565D01*
X30298240Y-48286800D01*
X30298240Y-47486800D01*
X30248957Y-47239035D01*
X30108609Y-47028991D01*
X29898565Y-46888643D01*
X29650800Y-46839360D01*
X28900800Y-46839360D01*
X28653035Y-46888643D01*
X28442991Y-47028991D01*
X28309593Y-47228634D01*
X28146784Y-47337420D01*
X28102988Y-47402965D01*
X27798143Y-47707810D01*
X27798143Y-45666658D01*
X29270803Y-44194000D01*
X31929153Y-44194000D01*
X32004000Y-44208888D01*
X32078847Y-44194000D01*
X32078852Y-44194000D01*
X32300537Y-44149904D01*
X32551929Y-43981929D01*
X32594331Y-43918470D01*
X36382802Y-40130000D01*
X40662753Y-40130000D01*
X40737600Y-40144888D01*
X40812447Y-40130000D01*
X40812452Y-40130000D01*
X41034137Y-40085904D01*
X41285529Y-39917929D01*
X41327931Y-39854470D01*
X41632470Y-39549931D01*
X41695929Y-39507529D01*
X41796483Y-39357040D01*
X42011600Y-39357040D01*
X42259365Y-39307757D01*
X42469409Y-39167409D01*
X42609757Y-38957365D01*
X42659040Y-38709600D01*
X42659040Y-36982400D01*
X42609757Y-36734635D01*
X42469409Y-36524591D01*
X42259365Y-36384243D01*
X42233349Y-36379068D01*
X42559650Y-35890725D01*
X42675959Y-35306000D01*
X42559650Y-34721275D01*
X42228430Y-34225570D01*
X41944719Y-34036000D01*
X42228430Y-33846430D01*
X42559650Y-33350725D01*
X42675959Y-32766000D01*
X42559650Y-32181275D01*
X42228430Y-31685570D01*
X41944719Y-31496000D01*
X42228430Y-31306430D01*
X42559650Y-30810725D01*
X42675959Y-30226000D01*
X42559650Y-29641275D01*
X42228430Y-29145570D01*
X41944719Y-28956000D01*
X42228430Y-28766430D01*
X42559650Y-28270725D01*
X42675959Y-27686000D01*
X42559650Y-27101275D01*
X42228430Y-26605570D01*
X41732725Y-26274350D01*
X41295598Y-26187400D01*
X41000402Y-26187400D01*
X40563275Y-26274350D01*
X40067570Y-26605570D01*
X39878000Y-26889281D01*
X39688430Y-26605570D01*
X39192725Y-26274350D01*
X38755598Y-26187400D01*
X38460402Y-26187400D01*
X38023275Y-26274350D01*
X37527570Y-26605570D01*
X37196350Y-27101275D01*
X37080041Y-27686000D01*
X37196350Y-28270725D01*
X37527570Y-28766430D01*
X37811281Y-28956000D01*
X37527570Y-29145570D01*
X37196350Y-29641275D01*
X37080041Y-30226000D01*
X37196350Y-30810725D01*
X37527570Y-31306430D01*
X37811281Y-31496000D01*
X37527570Y-31685570D01*
X37196350Y-32181275D01*
X37080041Y-32766000D01*
X37196350Y-33350725D01*
X37212793Y-33375334D01*
X37044071Y-33488071D01*
X37001672Y-33551526D01*
X35075528Y-35477671D01*
X35012072Y-35520071D01*
X34969672Y-35583527D01*
X34969671Y-35583528D01*
X34844097Y-35771463D01*
X34785112Y-36068000D01*
X34800001Y-36142851D01*
X34800000Y-38547198D01*
X34542000Y-38805198D01*
X34542000Y-21650801D01*
X38330473Y-17862329D01*
X38393929Y-17819929D01*
X38561904Y-17568537D01*
X38606000Y-17346852D01*
X38606000Y-17346847D01*
X38620888Y-17272000D01*
X38606000Y-17197153D01*
X38606000Y-13282846D01*
X38620888Y-13207999D01*
X38606000Y-13133152D01*
X38606000Y-13133148D01*
X38561904Y-12911463D01*
X38393929Y-12660071D01*
X38330473Y-12617671D01*
X31959331Y-6246530D01*
X31916929Y-6183071D01*
X31904835Y-6174990D01*
X31925000Y-6126309D01*
X31925000Y-5785750D01*
X31766250Y-5627000D01*
X29917000Y-5627000D01*
X29917000Y-5647000D01*
X29663000Y-5647000D01*
X29663000Y-5627000D01*
X29643000Y-5627000D01*
X29643000Y-5373000D01*
X29663000Y-5373000D01*
X29663000Y-4523750D01*
X29917000Y-4523750D01*
X29917000Y-5373000D01*
X31766250Y-5373000D01*
X31925000Y-5214250D01*
X31925000Y-4873691D01*
X31828327Y-4640302D01*
X31649699Y-4461673D01*
X31416310Y-4365000D01*
X30075750Y-4365000D01*
X29917000Y-4523750D01*
X29663000Y-4523750D01*
X29504250Y-4365000D01*
X28163690Y-4365000D01*
X27930301Y-4461673D01*
X27792423Y-4599552D01*
X27809440Y-4514000D01*
X27809440Y-3614000D01*
X27760157Y-3366235D01*
X27759610Y-3365416D01*
X27850327Y-3274699D01*
X27947000Y-3041310D01*
X27947000Y-2825750D01*
X27788250Y-2667000D01*
X27039000Y-2667000D01*
X27039000Y-2687000D01*
X26785000Y-2687000D01*
X26785000Y-2667000D01*
X26765000Y-2667000D01*
X26765000Y-2413000D01*
X26785000Y-2413000D01*
X26785000Y-1688750D01*
X27039000Y-1688750D01*
X27039000Y-2413000D01*
X27788250Y-2413000D01*
X27947000Y-2254250D01*
X27947000Y-2038690D01*
X27850327Y-1805301D01*
X27671698Y-1626673D01*
X27438309Y-1530000D01*
X27197750Y-1530000D01*
X27039000Y-1688750D01*
X26785000Y-1688750D01*
X26626250Y-1530000D01*
X26385691Y-1530000D01*
X26152302Y-1626673D01*
X26151102Y-1627873D01*
X26059765Y-1566843D01*
X25812000Y-1517560D01*
X25012000Y-1517560D01*
X24764235Y-1566843D01*
X24554191Y-1707191D01*
X24413843Y-1917235D01*
X24364560Y-2165000D01*
X24364560Y-2915000D01*
X24413843Y-3162765D01*
X24477000Y-3257286D01*
X24477001Y-3971911D01*
X24477000Y-3971915D01*
X24477000Y-4028711D01*
X24424261Y-3975972D01*
X24372097Y-3897903D01*
X24239440Y-3809264D01*
X24239440Y-3195000D01*
X24190157Y-2947235D01*
X24049809Y-2737191D01*
X23839765Y-2596843D01*
X23592000Y-2547560D01*
X19592000Y-2547560D01*
X19344235Y-2596843D01*
X19134191Y-2737191D01*
X18993843Y-2947235D01*
X18944560Y-3195000D01*
X18944560Y-5695000D01*
X18993843Y-5942765D01*
X19134191Y-6152809D01*
X19344235Y-6293157D01*
X19592000Y-6342440D01*
X20657000Y-6342440D01*
X20657000Y-7739711D01*
X16399151Y-11997560D01*
X14174000Y-11997560D01*
X13926235Y-12046843D01*
X13716191Y-12187191D01*
X13575843Y-12397235D01*
X13526560Y-12645000D01*
X13526560Y-18045000D01*
X13575843Y-18292765D01*
X13716191Y-18502809D01*
X13926235Y-18643157D01*
X14174000Y-18692440D01*
X14622001Y-18692440D01*
X14622000Y-21728000D01*
X14572750Y-21728000D01*
X14414000Y-21886750D01*
X14414000Y-23011000D01*
X14434000Y-23011000D01*
X14434000Y-23265000D01*
X14414000Y-23265000D01*
X14414000Y-23285000D01*
X14160000Y-23285000D01*
X14160000Y-23265000D01*
X13510750Y-23265000D01*
X13352000Y-23423750D01*
X13352000Y-23945000D01*
X12201355Y-23945000D01*
X11950000Y-23693645D01*
X11950000Y-22445669D01*
X11987765Y-22438157D01*
X12197809Y-22297809D01*
X12238647Y-22236691D01*
X13352000Y-22236691D01*
X13352000Y-22852250D01*
X13510750Y-23011000D01*
X14160000Y-23011000D01*
X14160000Y-21886750D01*
X14001250Y-21728000D01*
X13860690Y-21728000D01*
X13627301Y-21824673D01*
X13448673Y-22003302D01*
X13352000Y-22236691D01*
X12238647Y-22236691D01*
X12338157Y-22087765D01*
X12387440Y-21840000D01*
X12387440Y-20240000D01*
X12338157Y-19992235D01*
X12197809Y-19782191D01*
X11987765Y-19641843D01*
X11740000Y-19592560D01*
X11496893Y-19592560D01*
X11752862Y-19486534D01*
X12156534Y-19082862D01*
X12375000Y-18555439D01*
X12375000Y-17984561D01*
X12156534Y-17457138D01*
X11752862Y-17053466D01*
X11346150Y-16885000D01*
X11752862Y-16716534D01*
X12156534Y-16312862D01*
X12375000Y-15785439D01*
X12375000Y-15214561D01*
X12156534Y-14687138D01*
X11752862Y-14283466D01*
X11346150Y-14115000D01*
X11752862Y-13946534D01*
X12156534Y-13542862D01*
X12375000Y-13015439D01*
X12375000Y-12444561D01*
X12156534Y-11917138D01*
X11752862Y-11513466D01*
X11361782Y-11351475D01*
X11694005Y-11213864D01*
X11768139Y-10967745D01*
X10940000Y-10139605D01*
X10111861Y-10967745D01*
X10185995Y-11213864D01*
X10541739Y-11341732D01*
X10127138Y-11513466D01*
X9723466Y-11917138D01*
X9505000Y-12444561D01*
X9505000Y-13015439D01*
X9723466Y-13542862D01*
X10127138Y-13946534D01*
X10533850Y-14115000D01*
X10127138Y-14283466D01*
X9723466Y-14687138D01*
X9701570Y-14740000D01*
X9394349Y-14740000D01*
X9535000Y-14400439D01*
X9535000Y-13829561D01*
X9316534Y-13302138D01*
X8912862Y-12898466D01*
X8506150Y-12730000D01*
X8912862Y-12561534D01*
X9316534Y-12157862D01*
X9535000Y-11630439D01*
X9535000Y-11059561D01*
X9316534Y-10532138D01*
X8912862Y-10128466D01*
X8385439Y-9910000D01*
X7814561Y-9910000D01*
X7287138Y-10128466D01*
X6883466Y-10532138D01*
X6665000Y-11059561D01*
X6665000Y-11630439D01*
X6883466Y-12157862D01*
X7287138Y-12561534D01*
X7693850Y-12730000D01*
X7287138Y-12898466D01*
X6883466Y-13302138D01*
X6665000Y-13829561D01*
X6665000Y-14400439D01*
X6883466Y-14927862D01*
X7100400Y-15144796D01*
X3071528Y-19173669D01*
X3008072Y-19216069D01*
X2965672Y-19279525D01*
X2965671Y-19279526D01*
X2840097Y-19467461D01*
X2781112Y-19763998D01*
X2796001Y-19838850D01*
X2796000Y-32437153D01*
X2781112Y-32512000D01*
X2796000Y-32586847D01*
X2796000Y-32586851D01*
X2840096Y-32808536D01*
X3008071Y-33059929D01*
X3071530Y-33102331D01*
X3517198Y-33548000D01*
X2569750Y-33548000D01*
X2411000Y-33706750D01*
X2411000Y-35306000D01*
X2431000Y-35306000D01*
X2431000Y-35560000D01*
X2411000Y-35560000D01*
X2411000Y-35873000D01*
X2157000Y-35873000D01*
X2157000Y-35560000D01*
X2137000Y-35560000D01*
X2137000Y-35306000D01*
X2157000Y-35306000D01*
X2157000Y-33706750D01*
X1998250Y-33548000D01*
X710000Y-33548000D01*
X710000Y-9743223D01*
X9493035Y-9743223D01*
X9520222Y-10313454D01*
X9686136Y-10714005D01*
X9932255Y-10788139D01*
X10760395Y-9960000D01*
X11119605Y-9960000D01*
X11947745Y-10788139D01*
X12193864Y-10714005D01*
X12386965Y-10176777D01*
X12359778Y-9606546D01*
X12193864Y-9205995D01*
X11947745Y-9131861D01*
X11119605Y-9960000D01*
X10760395Y-9960000D01*
X9932255Y-9131861D01*
X9686136Y-9205995D01*
X9493035Y-9743223D01*
X710000Y-9743223D01*
X710000Y-8952255D01*
X10111861Y-8952255D01*
X10940000Y-9780395D01*
X11768139Y-8952255D01*
X11694005Y-8706136D01*
X11156777Y-8513035D01*
X10586546Y-8540222D01*
X10185995Y-8706136D01*
X10111861Y-8952255D01*
X710000Y-8952255D01*
X710000Y-4898068D01*
X7806537Y-4898068D01*
X8030354Y-5271387D01*
X9011056Y-5668931D01*
X10069239Y-5660916D01*
X11009646Y-5271387D01*
X11233463Y-4898068D01*
X11066145Y-4730750D01*
X12857000Y-4730750D01*
X12857000Y-5821310D01*
X12953673Y-6054699D01*
X13132302Y-6233327D01*
X13365691Y-6330000D01*
X15206250Y-6330000D01*
X15365000Y-6171250D01*
X15365000Y-4572000D01*
X15619000Y-4572000D01*
X15619000Y-6171250D01*
X15777750Y-6330000D01*
X17618309Y-6330000D01*
X17851698Y-6233327D01*
X18030327Y-6054699D01*
X18127000Y-5821310D01*
X18127000Y-4730750D01*
X17968250Y-4572000D01*
X15619000Y-4572000D01*
X15365000Y-4572000D01*
X13015750Y-4572000D01*
X12857000Y-4730750D01*
X11066145Y-4730750D01*
X9520000Y-3184605D01*
X7806537Y-4898068D01*
X710000Y-4898068D01*
X710000Y-2496056D01*
X6856069Y-2496056D01*
X6864084Y-3554239D01*
X7253613Y-4494646D01*
X7626932Y-4718463D01*
X9340395Y-3005000D01*
X9699605Y-3005000D01*
X11413068Y-4718463D01*
X11786387Y-4494646D01*
X12183931Y-3513944D01*
X12180559Y-3068690D01*
X12857000Y-3068690D01*
X12857000Y-4159250D01*
X13015750Y-4318000D01*
X15365000Y-4318000D01*
X15365000Y-2718750D01*
X15619000Y-2718750D01*
X15619000Y-4318000D01*
X17968250Y-4318000D01*
X18127000Y-4159250D01*
X18127000Y-3068690D01*
X18030327Y-2835301D01*
X17851698Y-2656673D01*
X17618309Y-2560000D01*
X15777750Y-2560000D01*
X15619000Y-2718750D01*
X15365000Y-2718750D01*
X15206250Y-2560000D01*
X13365691Y-2560000D01*
X13132302Y-2656673D01*
X12953673Y-2835301D01*
X12857000Y-3068690D01*
X12180559Y-3068690D01*
X12175916Y-2455761D01*
X11786387Y-1515354D01*
X11413068Y-1291537D01*
X9699605Y-3005000D01*
X9340395Y-3005000D01*
X7626932Y-1291537D01*
X7253613Y-1515354D01*
X6856069Y-2496056D01*
X710000Y-2496056D01*
X710000Y-710000D01*
X8099432Y-710000D01*
X8030354Y-738613D01*
X8030354Y-738613D01*
G37*
X8030354Y-738613D02*
X7806537Y-1111932D01*
X9520000Y-2825395D01*
X11233463Y-1111932D01*
X11009646Y-738613D01*
X10939061Y-710000D01*
X32559233Y-710000D01*
X32105259Y-1163974D01*
X31765000Y-1985431D01*
X31765000Y-2874569D01*
X32105259Y-3696026D01*
X32733974Y-4324741D01*
X33555431Y-4665000D01*
X34444569Y-4665000D01*
X35266026Y-4324741D01*
X35894741Y-3696026D01*
X36235000Y-2874569D01*
X36235000Y-1985431D01*
X35894741Y-1163974D01*
X35440767Y-710000D01*
X44290000Y-710000D01*
X44290000Y-70256744D01*
X44102310Y-70179000D01*
X42861750Y-70179000D01*
X42703000Y-70337750D01*
X42703000Y-72087000D01*
X42723000Y-72087000D01*
X42723000Y-72341000D01*
X42703000Y-72341000D01*
X42703000Y-74090250D01*
X42861750Y-74249000D01*
X44102310Y-74249000D01*
X44290000Y-74171256D01*
X44290000Y-75282177D01*
X44017724Y-75151882D01*
X42755605Y-76414000D01*
X44017724Y-77676118D01*
X44290000Y-77545823D01*
X44290001Y-84873000D01*
X38468805Y-84873000D01*
X38531916Y-84767022D01*
X36836500Y-83071605D01*
X35141084Y-84767022D01*
X35204195Y-84873000D01*
X31236000Y-84873000D01*
X31236000Y-84427475D01*
X31255787Y-84328000D01*
X31236000Y-84228524D01*
X31236000Y-83291850D01*
X32036200Y-83291850D01*
X32036200Y-83432410D01*
X32132873Y-83665799D01*
X32311502Y-83844427D01*
X32544891Y-83941100D01*
X33160450Y-83941100D01*
X33319200Y-83782350D01*
X33319200Y-83133100D01*
X32194950Y-83133100D01*
X32036200Y-83291850D01*
X31236000Y-83291850D01*
X31236000Y-82063027D01*
X31288169Y-82028169D01*
X31344518Y-81943837D01*
X31812256Y-81476100D01*
X32023760Y-81476100D01*
X32023760Y-82036100D01*
X32073043Y-82283865D01*
X32125968Y-82363072D01*
X32036200Y-82579790D01*
X32036200Y-82720350D01*
X32194950Y-82879100D01*
X33319200Y-82879100D01*
X33319200Y-82859100D01*
X33573200Y-82859100D01*
X33573200Y-82879100D01*
X33593200Y-82879100D01*
X33593200Y-83133100D01*
X33573200Y-83133100D01*
X33573200Y-83782350D01*
X33731950Y-83941100D01*
X34347509Y-83941100D01*
X34404681Y-83917419D01*
X34590757Y-84366647D01*
X34961478Y-84587416D01*
X36656895Y-82892000D01*
X37016105Y-82892000D01*
X38711522Y-84587416D01*
X39082243Y-84366647D01*
X39475619Y-83394988D01*
X39467213Y-82346753D01*
X39082243Y-81417353D01*
X38711522Y-81196584D01*
X37016105Y-82892000D01*
X36656895Y-82892000D01*
X36642752Y-82877858D01*
X36822358Y-82698252D01*
X36836500Y-82712395D01*
X38531916Y-81016978D01*
X38311147Y-80646257D01*
X37339488Y-80252881D01*
X36291253Y-80261287D01*
X35361853Y-80646257D01*
X35321200Y-80714523D01*
X35321200Y-79599046D01*
X35336088Y-79524199D01*
X35321200Y-79449352D01*
X35321200Y-79449348D01*
X35277104Y-79227663D01*
X35109129Y-78976271D01*
X35045672Y-78933870D01*
X34834061Y-78722260D01*
X34819357Y-78648335D01*
X34679009Y-78438291D01*
X34468965Y-78297943D01*
X34221200Y-78248660D01*
X32671200Y-78248660D01*
X32423435Y-78297943D01*
X32420624Y-78299821D01*
X32127878Y-78007077D01*
X32155940Y-77866000D01*
X32155940Y-76966000D01*
X32106657Y-76718235D01*
X32018500Y-76586300D01*
X32018500Y-75503301D01*
X32020700Y-75501101D01*
X32036200Y-75501101D01*
X32036200Y-75513102D01*
X32194948Y-75513102D01*
X32036200Y-75671850D01*
X32036200Y-75812410D01*
X32132873Y-76045799D01*
X32311502Y-76224427D01*
X32544891Y-76321100D01*
X33160450Y-76321100D01*
X33319200Y-76162350D01*
X33319200Y-75513100D01*
X33299200Y-75513100D01*
X33299200Y-75501101D01*
X33593200Y-75501101D01*
X33593200Y-75513100D01*
X33573200Y-75513100D01*
X33573200Y-76162350D01*
X33731950Y-76321100D01*
X34347509Y-76321100D01*
X34580898Y-76224427D01*
X34759527Y-76045799D01*
X34774681Y-76009213D01*
X35041000Y-76009213D01*
X35041000Y-76818787D01*
X35350810Y-77566735D01*
X35923265Y-78139190D01*
X36671213Y-78449000D01*
X37480787Y-78449000D01*
X38228735Y-78139190D01*
X38512201Y-77855724D01*
X41313882Y-77855724D01*
X41461455Y-78164106D01*
X42216031Y-78457405D01*
X43025409Y-78439614D01*
X43690545Y-78164106D01*
X43838118Y-77855724D01*
X42576000Y-76593605D01*
X41313882Y-77855724D01*
X38512201Y-77855724D01*
X38801190Y-77566735D01*
X39111000Y-76818787D01*
X39111000Y-76054031D01*
X40532595Y-76054031D01*
X40550386Y-76863409D01*
X40825894Y-77528545D01*
X41134276Y-77676118D01*
X42396395Y-76414000D01*
X41134276Y-75151882D01*
X40825894Y-75299455D01*
X40532595Y-76054031D01*
X39111000Y-76054031D01*
X39111000Y-76009213D01*
X38801190Y-75261265D01*
X38512201Y-74972276D01*
X41313882Y-74972276D01*
X42576000Y-76234395D01*
X43838118Y-74972276D01*
X43690545Y-74663894D01*
X42935969Y-74370595D01*
X42126591Y-74388386D01*
X41461455Y-74663894D01*
X41313882Y-74972276D01*
X38512201Y-74972276D01*
X38228735Y-74688810D01*
X37480787Y-74379000D01*
X36671213Y-74379000D01*
X35923265Y-74688810D01*
X35350810Y-75261265D01*
X35041000Y-76009213D01*
X34774681Y-76009213D01*
X34856200Y-75812410D01*
X34856200Y-75671850D01*
X34697452Y-75513102D01*
X34856200Y-75513102D01*
X34856200Y-75404578D01*
X35029130Y-75289030D01*
X35071532Y-75225571D01*
X35564973Y-74732131D01*
X35628429Y-74689731D01*
X35705160Y-74574895D01*
X35796404Y-74438340D01*
X35812720Y-74356314D01*
X35840500Y-74216654D01*
X35840500Y-74216650D01*
X35855388Y-74141802D01*
X35840500Y-74066954D01*
X35840500Y-73856425D01*
X35923265Y-73939190D01*
X36671213Y-74249000D01*
X37480787Y-74249000D01*
X38228735Y-73939190D01*
X38801190Y-73366735D01*
X39111000Y-72618787D01*
X39111000Y-72499750D01*
X40541000Y-72499750D01*
X40541000Y-73740309D01*
X40637673Y-73973698D01*
X40816301Y-74152327D01*
X41049690Y-74249000D01*
X42290250Y-74249000D01*
X42449000Y-74090250D01*
X42449000Y-72341000D01*
X40699750Y-72341000D01*
X40541000Y-72499750D01*
X39111000Y-72499750D01*
X39111000Y-71809213D01*
X38801190Y-71061265D01*
X38611000Y-70871075D01*
X38611000Y-70687691D01*
X40541000Y-70687691D01*
X40541000Y-71928250D01*
X40699750Y-72087000D01*
X42449000Y-72087000D01*
X42449000Y-70337750D01*
X42290250Y-70179000D01*
X41049690Y-70179000D01*
X40816301Y-70275673D01*
X40637673Y-70454302D01*
X40541000Y-70687691D01*
X38611000Y-70687691D01*
X38611000Y-70493981D01*
X38738673Y-70408673D01*
X39077938Y-69900927D01*
X39167000Y-69453182D01*
X39197072Y-69302000D01*
X39167000Y-69150818D01*
X39167000Y-68603277D01*
X39339809Y-68487809D01*
X39480157Y-68277765D01*
X39529440Y-68030000D01*
X39529440Y-67165750D01*
X40047000Y-67165750D01*
X40047000Y-68156310D01*
X40143673Y-68389699D01*
X40322302Y-68568327D01*
X40555691Y-68665000D01*
X41646250Y-68665000D01*
X41805000Y-68506250D01*
X41805000Y-67007000D01*
X42059000Y-67007000D01*
X42059000Y-68506250D01*
X42217750Y-68665000D01*
X43308309Y-68665000D01*
X43541698Y-68568327D01*
X43720327Y-68389699D01*
X43817000Y-68156310D01*
X43817000Y-67165750D01*
X43658250Y-67007000D01*
X42059000Y-67007000D01*
X41805000Y-67007000D01*
X40205750Y-67007000D01*
X40047000Y-67165750D01*
X39529440Y-67165750D01*
X39529440Y-65730000D01*
X39504316Y-65603690D01*
X40047000Y-65603690D01*
X40047000Y-66594250D01*
X40205750Y-66753000D01*
X41805000Y-66753000D01*
X41805000Y-65253750D01*
X42059000Y-65253750D01*
X42059000Y-66753000D01*
X43658250Y-66753000D01*
X43817000Y-66594250D01*
X43817000Y-65603690D01*
X43720327Y-65370301D01*
X43541698Y-65191673D01*
X43308309Y-65095000D01*
X42217750Y-65095000D01*
X42059000Y-65253750D01*
X41805000Y-65253750D01*
X41646250Y-65095000D01*
X40555691Y-65095000D01*
X40322302Y-65191673D01*
X40143673Y-65370301D01*
X40047000Y-65603690D01*
X39504316Y-65603690D01*
X39480157Y-65482235D01*
X39339809Y-65272191D01*
X39129765Y-65131843D01*
X38882000Y-65082560D01*
X36382000Y-65082560D01*
X36134235Y-65131843D01*
X35924191Y-65272191D01*
X35783843Y-65482235D01*
X35734560Y-65730000D01*
X35734560Y-68030000D01*
X35783843Y-68277765D01*
X35924191Y-68487809D01*
X36097001Y-68603278D01*
X36097001Y-68666018D01*
X35969327Y-68751327D01*
X35630062Y-69259074D01*
X35541000Y-69706819D01*
X35541000Y-69706823D01*
X35510929Y-69858000D01*
X35541000Y-70009178D01*
X35541000Y-70871075D01*
X35409938Y-71002137D01*
X35306201Y-70898400D01*
X35306201Y-69802045D01*
X35321089Y-69727198D01*
X35306201Y-69652351D01*
X35306201Y-69652347D01*
X35262105Y-69430662D01*
X35094130Y-69179270D01*
X35030674Y-69136870D01*
X33808333Y-67914530D01*
X33765931Y-67851071D01*
X33514539Y-67683096D01*
X33292854Y-67639000D01*
X33292849Y-67639000D01*
X33218002Y-67624112D01*
X33143155Y-67639000D01*
X31766558Y-67639000D01*
X31806440Y-67438500D01*
X31806440Y-66538500D01*
X31757157Y-66290735D01*
X31616809Y-66080691D01*
X31519000Y-66015337D01*
X31519000Y-60320401D01*
X32595163Y-59244240D01*
X33067800Y-59244240D01*
X33152560Y-59227380D01*
X33152560Y-59400000D01*
X33201843Y-59647765D01*
X33342191Y-59857809D01*
X33552235Y-59998157D01*
X33800000Y-60047440D01*
X34600000Y-60047440D01*
X34847765Y-59998157D01*
X34999047Y-59897073D01*
X35040302Y-59938327D01*
X35273691Y-60035000D01*
X35514250Y-60035000D01*
X35673000Y-59876250D01*
X35673000Y-59127000D01*
X35927000Y-59127000D01*
X35927000Y-59876250D01*
X36085750Y-60035000D01*
X36326309Y-60035000D01*
X36445208Y-59985750D01*
X41065000Y-59985750D01*
X41065000Y-60916309D01*
X41161673Y-61149698D01*
X41340301Y-61328327D01*
X41573690Y-61425000D01*
X42214250Y-61425000D01*
X42373000Y-61266250D01*
X42373000Y-59827000D01*
X42627000Y-59827000D01*
X42627000Y-61266250D01*
X42785750Y-61425000D01*
X43426310Y-61425000D01*
X43659699Y-61328327D01*
X43838327Y-61149698D01*
X43935000Y-60916309D01*
X43935000Y-59985750D01*
X43776250Y-59827000D01*
X42627000Y-59827000D01*
X42373000Y-59827000D01*
X41223750Y-59827000D01*
X41065000Y-59985750D01*
X36445208Y-59985750D01*
X36559698Y-59938327D01*
X36738327Y-59759699D01*
X36835000Y-59526310D01*
X36835000Y-59285750D01*
X36676250Y-59127000D01*
X35927000Y-59127000D01*
X35673000Y-59127000D01*
X35653000Y-59127000D01*
X35653000Y-58873000D01*
X35673000Y-58873000D01*
X35673000Y-58123750D01*
X35927000Y-58123750D01*
X35927000Y-58873000D01*
X36676250Y-58873000D01*
X36835000Y-58714250D01*
X36835000Y-58483691D01*
X41065000Y-58483691D01*
X41065000Y-59414250D01*
X41223750Y-59573000D01*
X42373000Y-59573000D01*
X42373000Y-58133750D01*
X42627000Y-58133750D01*
X42627000Y-59573000D01*
X43776250Y-59573000D01*
X43935000Y-59414250D01*
X43935000Y-58483691D01*
X43838327Y-58250302D01*
X43659699Y-58071673D01*
X43426310Y-57975000D01*
X42785750Y-57975000D01*
X42627000Y-58133750D01*
X42373000Y-58133750D01*
X42214250Y-57975000D01*
X41573690Y-57975000D01*
X41340301Y-58071673D01*
X41161673Y-58250302D01*
X41065000Y-58483691D01*
X36835000Y-58483691D01*
X36835000Y-58473690D01*
X36738327Y-58240301D01*
X36559698Y-58061673D01*
X36326309Y-57965000D01*
X36085750Y-57965000D01*
X35927000Y-58123750D01*
X35673000Y-58123750D01*
X35587683Y-58038433D01*
X35612132Y-58001843D01*
X35715904Y-57846538D01*
X35728829Y-57781560D01*
X35760000Y-57624852D01*
X35760000Y-57624848D01*
X35774888Y-57550000D01*
X35760000Y-57475152D01*
X35760000Y-56127000D01*
X35927000Y-56127000D01*
X35927000Y-56876250D01*
X36085750Y-57035000D01*
X36326309Y-57035000D01*
X36559698Y-56938327D01*
X36738327Y-56759699D01*
X36835000Y-56526310D01*
X36835000Y-56285750D01*
X36676250Y-56127000D01*
X35927000Y-56127000D01*
X35760000Y-56127000D01*
X35760000Y-55160847D01*
X35767379Y-55123750D01*
X35927000Y-55123750D01*
X35927000Y-55873000D01*
X36676250Y-55873000D01*
X36835000Y-55714250D01*
X36835000Y-55473690D01*
X36738327Y-55240301D01*
X36559698Y-55061673D01*
X36326309Y-54965000D01*
X36085750Y-54965000D01*
X35927000Y-55123750D01*
X35767379Y-55123750D01*
X35774888Y-55086000D01*
X35760000Y-55011153D01*
X35760000Y-55011148D01*
X35715904Y-54789463D01*
X35547929Y-54538071D01*
X35484473Y-54495671D01*
X34931205Y-53942404D01*
X34999047Y-53897073D01*
X35040302Y-53938327D01*
X35273691Y-54035000D01*
X35514250Y-54035000D01*
X35673000Y-53876250D01*
X35673000Y-53127000D01*
X35927000Y-53127000D01*
X35927000Y-53876250D01*
X36085750Y-54035000D01*
X36326309Y-54035000D01*
X36559698Y-53938327D01*
X36738327Y-53759699D01*
X36835000Y-53526310D01*
X36835000Y-53285750D01*
X36676250Y-53127000D01*
X35927000Y-53127000D01*
X35673000Y-53127000D01*
X35653000Y-53127000D01*
X35653000Y-52873000D01*
X35673000Y-52873000D01*
X35673000Y-52123750D01*
X35927000Y-52123750D01*
X35927000Y-52873000D01*
X36676250Y-52873000D01*
X36835000Y-52714250D01*
X36835000Y-52473690D01*
X36738327Y-52240301D01*
X36559698Y-52061673D01*
X36326309Y-51965000D01*
X36085750Y-51965000D01*
X35927000Y-52123750D01*
X35673000Y-52123750D01*
X35514250Y-51965000D01*
X35273691Y-51965000D01*
X35040302Y-52061673D01*
X34999047Y-52102927D01*
X34847765Y-52001843D01*
X34600000Y-51952560D01*
X34227362Y-51952560D01*
X33651440Y-51376639D01*
X33651440Y-51366000D01*
X33602157Y-51118235D01*
X33461809Y-50908191D01*
X33251765Y-50767843D01*
X33212335Y-50760000D01*
X40175199Y-50760000D01*
X41052560Y-51637362D01*
X41052560Y-53390000D01*
X41101843Y-53637765D01*
X41242191Y-53847809D01*
X41452235Y-53988157D01*
X41700000Y-54037440D01*
X43300000Y-54037440D01*
X43547765Y-53988157D01*
X43757809Y-53847809D01*
X43898157Y-53637765D01*
X43947440Y-53390000D01*
X43947440Y-51210000D01*
X43898157Y-50962235D01*
X43757809Y-50752191D01*
X43547765Y-50611843D01*
X43300000Y-50562560D01*
X42127362Y-50562560D01*
X41080331Y-49515530D01*
X41037929Y-49452071D01*
X40786537Y-49284096D01*
X40564852Y-49240000D01*
X40564847Y-49240000D01*
X40490000Y-49225112D01*
X40415153Y-49240000D01*
X31781221Y-49240000D01*
X31706373Y-49225112D01*
X31631525Y-49240000D01*
X31631521Y-49240000D01*
X31409836Y-49284096D01*
X31158444Y-49452071D01*
X31116044Y-49515527D01*
X30392256Y-50239315D01*
X30247841Y-50094901D01*
X30215968Y-50081699D01*
X30285800Y-49913109D01*
X30285800Y-49672550D01*
X30127050Y-49513800D01*
X29402800Y-49513800D01*
X29402800Y-50263050D01*
X29415143Y-50275393D01*
X29415143Y-50785788D01*
X29161143Y-50785788D01*
X29161143Y-50156978D01*
X29148800Y-50144635D01*
X29148800Y-49513800D01*
X29128800Y-49513800D01*
X29128800Y-49259800D01*
X29148800Y-49259800D01*
X29148800Y-49239800D01*
X29402800Y-49239800D01*
X29402800Y-49259800D01*
X30127050Y-49259800D01*
X30285800Y-49101050D01*
X30285800Y-48860491D01*
X30189127Y-48627102D01*
X30187927Y-48625902D01*
X30248957Y-48534565D01*
X30298240Y-48286800D01*
X30298240Y-47486800D01*
X30248957Y-47239035D01*
X30108609Y-47028991D01*
X29898565Y-46888643D01*
X29650800Y-46839360D01*
X28900800Y-46839360D01*
X28653035Y-46888643D01*
X28442991Y-47028991D01*
X28309593Y-47228634D01*
X28146784Y-47337420D01*
X28102988Y-47402965D01*
X27798143Y-47707810D01*
X27798143Y-45666658D01*
X29270803Y-44194000D01*
X31929153Y-44194000D01*
X32004000Y-44208888D01*
X32078847Y-44194000D01*
X32078852Y-44194000D01*
X32300537Y-44149904D01*
X32551929Y-43981929D01*
X32594331Y-43918470D01*
X36382802Y-40130000D01*
X40662753Y-40130000D01*
X40737600Y-40144888D01*
X40812447Y-40130000D01*
X40812452Y-40130000D01*
X41034137Y-40085904D01*
X41285529Y-39917929D01*
X41327931Y-39854470D01*
X41632470Y-39549931D01*
X41695929Y-39507529D01*
X41796483Y-39357040D01*
X42011600Y-39357040D01*
X42259365Y-39307757D01*
X42469409Y-39167409D01*
X42609757Y-38957365D01*
X42659040Y-38709600D01*
X42659040Y-36982400D01*
X42609757Y-36734635D01*
X42469409Y-36524591D01*
X42259365Y-36384243D01*
X42233349Y-36379068D01*
X42559650Y-35890725D01*
X42675959Y-35306000D01*
X42559650Y-34721275D01*
X42228430Y-34225570D01*
X41944719Y-34036000D01*
X42228430Y-33846430D01*
X42559650Y-33350725D01*
X42675959Y-32766000D01*
X42559650Y-32181275D01*
X42228430Y-31685570D01*
X41944719Y-31496000D01*
X42228430Y-31306430D01*
X42559650Y-30810725D01*
X42675959Y-30226000D01*
X42559650Y-29641275D01*
X42228430Y-29145570D01*
X41944719Y-28956000D01*
X42228430Y-28766430D01*
X42559650Y-28270725D01*
X42675959Y-27686000D01*
X42559650Y-27101275D01*
X42228430Y-26605570D01*
X41732725Y-26274350D01*
X41295598Y-26187400D01*
X41000402Y-26187400D01*
X40563275Y-26274350D01*
X40067570Y-26605570D01*
X39878000Y-26889281D01*
X39688430Y-26605570D01*
X39192725Y-26274350D01*
X38755598Y-26187400D01*
X38460402Y-26187400D01*
X38023275Y-26274350D01*
X37527570Y-26605570D01*
X37196350Y-27101275D01*
X37080041Y-27686000D01*
X37196350Y-28270725D01*
X37527570Y-28766430D01*
X37811281Y-28956000D01*
X37527570Y-29145570D01*
X37196350Y-29641275D01*
X37080041Y-30226000D01*
X37196350Y-30810725D01*
X37527570Y-31306430D01*
X37811281Y-31496000D01*
X37527570Y-31685570D01*
X37196350Y-32181275D01*
X37080041Y-32766000D01*
X37196350Y-33350725D01*
X37212793Y-33375334D01*
X37044071Y-33488071D01*
X37001672Y-33551526D01*
X35075528Y-35477671D01*
X35012072Y-35520071D01*
X34969672Y-35583527D01*
X34969671Y-35583528D01*
X34844097Y-35771463D01*
X34785112Y-36068000D01*
X34800001Y-36142851D01*
X34800000Y-38547198D01*
X34542000Y-38805198D01*
X34542000Y-21650801D01*
X38330473Y-17862329D01*
X38393929Y-17819929D01*
X38561904Y-17568537D01*
X38606000Y-17346852D01*
X38606000Y-17346847D01*
X38620888Y-17272000D01*
X38606000Y-17197153D01*
X38606000Y-13282846D01*
X38620888Y-13207999D01*
X38606000Y-13133152D01*
X38606000Y-13133148D01*
X38561904Y-12911463D01*
X38393929Y-12660071D01*
X38330473Y-12617671D01*
X31959331Y-6246530D01*
X31916929Y-6183071D01*
X31904835Y-6174990D01*
X31925000Y-6126309D01*
X31925000Y-5785750D01*
X31766250Y-5627000D01*
X29917000Y-5627000D01*
X29917000Y-5647000D01*
X29663000Y-5647000D01*
X29663000Y-5627000D01*
X29643000Y-5627000D01*
X29643000Y-5373000D01*
X29663000Y-5373000D01*
X29663000Y-4523750D01*
X29917000Y-4523750D01*
X29917000Y-5373000D01*
X31766250Y-5373000D01*
X31925000Y-5214250D01*
X31925000Y-4873691D01*
X31828327Y-4640302D01*
X31649699Y-4461673D01*
X31416310Y-4365000D01*
X30075750Y-4365000D01*
X29917000Y-4523750D01*
X29663000Y-4523750D01*
X29504250Y-4365000D01*
X28163690Y-4365000D01*
X27930301Y-4461673D01*
X27792423Y-4599552D01*
X27809440Y-4514000D01*
X27809440Y-3614000D01*
X27760157Y-3366235D01*
X27759610Y-3365416D01*
X27850327Y-3274699D01*
X27947000Y-3041310D01*
X27947000Y-2825750D01*
X27788250Y-2667000D01*
X27039000Y-2667000D01*
X27039000Y-2687000D01*
X26785000Y-2687000D01*
X26785000Y-2667000D01*
X26765000Y-2667000D01*
X26765000Y-2413000D01*
X26785000Y-2413000D01*
X26785000Y-1688750D01*
X27039000Y-1688750D01*
X27039000Y-2413000D01*
X27788250Y-2413000D01*
X27947000Y-2254250D01*
X27947000Y-2038690D01*
X27850327Y-1805301D01*
X27671698Y-1626673D01*
X27438309Y-1530000D01*
X27197750Y-1530000D01*
X27039000Y-1688750D01*
X26785000Y-1688750D01*
X26626250Y-1530000D01*
X26385691Y-1530000D01*
X26152302Y-1626673D01*
X26151102Y-1627873D01*
X26059765Y-1566843D01*
X25812000Y-1517560D01*
X25012000Y-1517560D01*
X24764235Y-1566843D01*
X24554191Y-1707191D01*
X24413843Y-1917235D01*
X24364560Y-2165000D01*
X24364560Y-2915000D01*
X24413843Y-3162765D01*
X24477000Y-3257286D01*
X24477001Y-3971911D01*
X24477000Y-3971915D01*
X24477000Y-4028711D01*
X24424261Y-3975972D01*
X24372097Y-3897903D01*
X24239440Y-3809264D01*
X24239440Y-3195000D01*
X24190157Y-2947235D01*
X24049809Y-2737191D01*
X23839765Y-2596843D01*
X23592000Y-2547560D01*
X19592000Y-2547560D01*
X19344235Y-2596843D01*
X19134191Y-2737191D01*
X18993843Y-2947235D01*
X18944560Y-3195000D01*
X18944560Y-5695000D01*
X18993843Y-5942765D01*
X19134191Y-6152809D01*
X19344235Y-6293157D01*
X19592000Y-6342440D01*
X20657000Y-6342440D01*
X20657000Y-7739711D01*
X16399151Y-11997560D01*
X14174000Y-11997560D01*
X13926235Y-12046843D01*
X13716191Y-12187191D01*
X13575843Y-12397235D01*
X13526560Y-12645000D01*
X13526560Y-18045000D01*
X13575843Y-18292765D01*
X13716191Y-18502809D01*
X13926235Y-18643157D01*
X14174000Y-18692440D01*
X14622001Y-18692440D01*
X14622000Y-21728000D01*
X14572750Y-21728000D01*
X14414000Y-21886750D01*
X14414000Y-23011000D01*
X14434000Y-23011000D01*
X14434000Y-23265000D01*
X14414000Y-23265000D01*
X14414000Y-23285000D01*
X14160000Y-23285000D01*
X14160000Y-23265000D01*
X13510750Y-23265000D01*
X13352000Y-23423750D01*
X13352000Y-23945000D01*
X12201355Y-23945000D01*
X11950000Y-23693645D01*
X11950000Y-22445669D01*
X11987765Y-22438157D01*
X12197809Y-22297809D01*
X12238647Y-22236691D01*
X13352000Y-22236691D01*
X13352000Y-22852250D01*
X13510750Y-23011000D01*
X14160000Y-23011000D01*
X14160000Y-21886750D01*
X14001250Y-21728000D01*
X13860690Y-21728000D01*
X13627301Y-21824673D01*
X13448673Y-22003302D01*
X13352000Y-22236691D01*
X12238647Y-22236691D01*
X12338157Y-22087765D01*
X12387440Y-21840000D01*
X12387440Y-20240000D01*
X12338157Y-19992235D01*
X12197809Y-19782191D01*
X11987765Y-19641843D01*
X11740000Y-19592560D01*
X11496893Y-19592560D01*
X11752862Y-19486534D01*
X12156534Y-19082862D01*
X12375000Y-18555439D01*
X12375000Y-17984561D01*
X12156534Y-17457138D01*
X11752862Y-17053466D01*
X11346150Y-16885000D01*
X11752862Y-16716534D01*
X12156534Y-16312862D01*
X12375000Y-15785439D01*
X12375000Y-15214561D01*
X12156534Y-14687138D01*
X11752862Y-14283466D01*
X11346150Y-14115000D01*
X11752862Y-13946534D01*
X12156534Y-13542862D01*
X12375000Y-13015439D01*
X12375000Y-12444561D01*
X12156534Y-11917138D01*
X11752862Y-11513466D01*
X11361782Y-11351475D01*
X11694005Y-11213864D01*
X11768139Y-10967745D01*
X10940000Y-10139605D01*
X10111861Y-10967745D01*
X10185995Y-11213864D01*
X10541739Y-11341732D01*
X10127138Y-11513466D01*
X9723466Y-11917138D01*
X9505000Y-12444561D01*
X9505000Y-13015439D01*
X9723466Y-13542862D01*
X10127138Y-13946534D01*
X10533850Y-14115000D01*
X10127138Y-14283466D01*
X9723466Y-14687138D01*
X9701570Y-14740000D01*
X9394349Y-14740000D01*
X9535000Y-14400439D01*
X9535000Y-13829561D01*
X9316534Y-13302138D01*
X8912862Y-12898466D01*
X8506150Y-12730000D01*
X8912862Y-12561534D01*
X9316534Y-12157862D01*
X9535000Y-11630439D01*
X9535000Y-11059561D01*
X9316534Y-10532138D01*
X8912862Y-10128466D01*
X8385439Y-9910000D01*
X7814561Y-9910000D01*
X7287138Y-10128466D01*
X6883466Y-10532138D01*
X6665000Y-11059561D01*
X6665000Y-11630439D01*
X6883466Y-12157862D01*
X7287138Y-12561534D01*
X7693850Y-12730000D01*
X7287138Y-12898466D01*
X6883466Y-13302138D01*
X6665000Y-13829561D01*
X6665000Y-14400439D01*
X6883466Y-14927862D01*
X7100400Y-15144796D01*
X3071528Y-19173669D01*
X3008072Y-19216069D01*
X2965672Y-19279525D01*
X2965671Y-19279526D01*
X2840097Y-19467461D01*
X2781112Y-19763998D01*
X2796001Y-19838850D01*
X2796000Y-32437153D01*
X2781112Y-32512000D01*
X2796000Y-32586847D01*
X2796000Y-32586851D01*
X2840096Y-32808536D01*
X3008071Y-33059929D01*
X3071530Y-33102331D01*
X3517198Y-33548000D01*
X2569750Y-33548000D01*
X2411000Y-33706750D01*
X2411000Y-35306000D01*
X2431000Y-35306000D01*
X2431000Y-35560000D01*
X2411000Y-35560000D01*
X2411000Y-35873000D01*
X2157000Y-35873000D01*
X2157000Y-35560000D01*
X2137000Y-35560000D01*
X2137000Y-35306000D01*
X2157000Y-35306000D01*
X2157000Y-33706750D01*
X1998250Y-33548000D01*
X710000Y-33548000D01*
X710000Y-9743223D01*
X9493035Y-9743223D01*
X9520222Y-10313454D01*
X9686136Y-10714005D01*
X9932255Y-10788139D01*
X10760395Y-9960000D01*
X11119605Y-9960000D01*
X11947745Y-10788139D01*
X12193864Y-10714005D01*
X12386965Y-10176777D01*
X12359778Y-9606546D01*
X12193864Y-9205995D01*
X11947745Y-9131861D01*
X11119605Y-9960000D01*
X10760395Y-9960000D01*
X9932255Y-9131861D01*
X9686136Y-9205995D01*
X9493035Y-9743223D01*
X710000Y-9743223D01*
X710000Y-8952255D01*
X10111861Y-8952255D01*
X10940000Y-9780395D01*
X11768139Y-8952255D01*
X11694005Y-8706136D01*
X11156777Y-8513035D01*
X10586546Y-8540222D01*
X10185995Y-8706136D01*
X10111861Y-8952255D01*
X710000Y-8952255D01*
X710000Y-4898068D01*
X7806537Y-4898068D01*
X8030354Y-5271387D01*
X9011056Y-5668931D01*
X10069239Y-5660916D01*
X11009646Y-5271387D01*
X11233463Y-4898068D01*
X11066145Y-4730750D01*
X12857000Y-4730750D01*
X12857000Y-5821310D01*
X12953673Y-6054699D01*
X13132302Y-6233327D01*
X13365691Y-6330000D01*
X15206250Y-6330000D01*
X15365000Y-6171250D01*
X15365000Y-4572000D01*
X15619000Y-4572000D01*
X15619000Y-6171250D01*
X15777750Y-6330000D01*
X17618309Y-6330000D01*
X17851698Y-6233327D01*
X18030327Y-6054699D01*
X18127000Y-5821310D01*
X18127000Y-4730750D01*
X17968250Y-4572000D01*
X15619000Y-4572000D01*
X15365000Y-4572000D01*
X13015750Y-4572000D01*
X12857000Y-4730750D01*
X11066145Y-4730750D01*
X9520000Y-3184605D01*
X7806537Y-4898068D01*
X710000Y-4898068D01*
X710000Y-2496056D01*
X6856069Y-2496056D01*
X6864084Y-3554239D01*
X7253613Y-4494646D01*
X7626932Y-4718463D01*
X9340395Y-3005000D01*
X9699605Y-3005000D01*
X11413068Y-4718463D01*
X11786387Y-4494646D01*
X12183931Y-3513944D01*
X12180559Y-3068690D01*
X12857000Y-3068690D01*
X12857000Y-4159250D01*
X13015750Y-4318000D01*
X15365000Y-4318000D01*
X15365000Y-2718750D01*
X15619000Y-2718750D01*
X15619000Y-4318000D01*
X17968250Y-4318000D01*
X18127000Y-4159250D01*
X18127000Y-3068690D01*
X18030327Y-2835301D01*
X17851698Y-2656673D01*
X17618309Y-2560000D01*
X15777750Y-2560000D01*
X15619000Y-2718750D01*
X15365000Y-2718750D01*
X15206250Y-2560000D01*
X13365691Y-2560000D01*
X13132302Y-2656673D01*
X12953673Y-2835301D01*
X12857000Y-3068690D01*
X12180559Y-3068690D01*
X12175916Y-2455761D01*
X11786387Y-1515354D01*
X11413068Y-1291537D01*
X9699605Y-3005000D01*
X9340395Y-3005000D01*
X7626932Y-1291537D01*
X7253613Y-1515354D01*
X6856069Y-2496056D01*
X710000Y-2496056D01*
X710000Y-710000D01*
X8099432Y-710000D01*
X8030354Y-738613D01*
G36*
X2411000Y-37159250D02*
X2569750Y-37318000D01*
X3517199Y-37318000D01*
X2563528Y-38271671D01*
X2500072Y-38314071D01*
X2457672Y-38377527D01*
X2457671Y-38377528D01*
X2332097Y-38565463D01*
X2273112Y-38862000D01*
X2288001Y-38936851D01*
X2288000Y-44629153D01*
X2273112Y-44704000D01*
X2288000Y-44778847D01*
X2288000Y-44778851D01*
X2332096Y-45000536D01*
X2500071Y-45251929D01*
X2563530Y-45294331D01*
X6698918Y-49429719D01*
X6243783Y-49618242D01*
X5868242Y-49993783D01*
X5665000Y-50484452D01*
X5665000Y-51015548D01*
X5868242Y-51506217D01*
X6243783Y-51881758D01*
X6734452Y-52085000D01*
X7265548Y-52085000D01*
X7756217Y-51881758D01*
X8131758Y-51506217D01*
X8320281Y-51051083D01*
X9734198Y-52465000D01*
X7865750Y-52465000D01*
X7707000Y-52623750D01*
X7707000Y-54673000D01*
X11076250Y-54673000D01*
X11235000Y-54514250D01*
X11235000Y-53965802D01*
X13718001Y-56448803D01*
X13718000Y-58044475D01*
X13655698Y-57982173D01*
X13422309Y-57885500D01*
X13181750Y-57885500D01*
X13023000Y-58044250D01*
X13023000Y-58793500D01*
X13043000Y-58793500D01*
X13043000Y-59047500D01*
X13023000Y-59047500D01*
X13023000Y-59796750D01*
X13181750Y-59955500D01*
X13422309Y-59955500D01*
X13655698Y-59858827D01*
X13834327Y-59680199D01*
X13923199Y-59465644D01*
X13930071Y-59475929D01*
X13993530Y-59518331D01*
X15145670Y-60670472D01*
X15188071Y-60733929D01*
X15251527Y-60776329D01*
X15439462Y-60901904D01*
X15487605Y-60911480D01*
X15661148Y-60946000D01*
X15661152Y-60946000D01*
X15736000Y-60960888D01*
X15810848Y-60946000D01*
X15934300Y-60946000D01*
X16066235Y-61034157D01*
X16314000Y-61083440D01*
X17082638Y-61083440D01*
X17443673Y-61444475D01*
X17486071Y-61507929D01*
X17549524Y-61550327D01*
X17549526Y-61550329D01*
X17643527Y-61613138D01*
X17737463Y-61675904D01*
X17959148Y-61720000D01*
X17959152Y-61720000D01*
X18033999Y-61734888D01*
X18108846Y-61720000D01*
X26293399Y-61720000D01*
X25779530Y-62233869D01*
X25716071Y-62276271D01*
X25548096Y-62527664D01*
X25504000Y-62749349D01*
X25504000Y-62749353D01*
X25489112Y-62824200D01*
X25504000Y-62899047D01*
X25504001Y-66392836D01*
X25406191Y-66458191D01*
X25316987Y-66591694D01*
X25302327Y-66556302D01*
X25123699Y-66377673D01*
X24890310Y-66281000D01*
X24649750Y-66281000D01*
X24491000Y-66439750D01*
X24491000Y-67239000D01*
X24511000Y-67239000D01*
X24511000Y-67493000D01*
X24491000Y-67493000D01*
X24491000Y-68292250D01*
X24576531Y-68377781D01*
X24456191Y-68458191D01*
X24315843Y-68668235D01*
X24266560Y-68916000D01*
X24266560Y-69816000D01*
X24315843Y-70063765D01*
X24397024Y-70185260D01*
X24118500Y-70185260D01*
X23870735Y-70234543D01*
X23660691Y-70374891D01*
X23520343Y-70584935D01*
X23471060Y-70832700D01*
X23471060Y-73332700D01*
X23520343Y-73580465D01*
X23660691Y-73790509D01*
X23870735Y-73930857D01*
X24118500Y-73980140D01*
X25918500Y-73980140D01*
X26166265Y-73930857D01*
X26376309Y-73790509D01*
X26516657Y-73580465D01*
X26565940Y-73332700D01*
X26565940Y-71663416D01*
X26610356Y-71619000D01*
X26623760Y-71619000D01*
X26623760Y-71876100D01*
X26673043Y-72123865D01*
X26731332Y-72211100D01*
X26673043Y-72298335D01*
X26623760Y-72546100D01*
X26623760Y-73146100D01*
X26673043Y-73393865D01*
X26731332Y-73481100D01*
X26673043Y-73568335D01*
X26623760Y-73816100D01*
X26623760Y-74376100D01*
X26377117Y-74376100D01*
X26376309Y-74374891D01*
X26166265Y-74234543D01*
X25918500Y-74185260D01*
X24118500Y-74185260D01*
X23870735Y-74234543D01*
X23660691Y-74374891D01*
X23520343Y-74584935D01*
X23471060Y-74832700D01*
X23471060Y-75072700D01*
X22882940Y-75072700D01*
X22882940Y-74832700D01*
X22833657Y-74584935D01*
X22693309Y-74374891D01*
X22483265Y-74234543D01*
X22235500Y-74185260D01*
X20435500Y-74185260D01*
X20187735Y-74234543D01*
X19977691Y-74374891D01*
X19837343Y-74584935D01*
X19788060Y-74832700D01*
X19788060Y-75068978D01*
X19707300Y-75052914D01*
X19607829Y-75072700D01*
X19607824Y-75072700D01*
X19510810Y-75091997D01*
X19725000Y-74574895D01*
X19725000Y-73805105D01*
X19430414Y-73093910D01*
X18886090Y-72549586D01*
X18448789Y-72368450D01*
X19800500Y-72368450D01*
X19800500Y-73459009D01*
X19897173Y-73692398D01*
X20075801Y-73871027D01*
X20309190Y-73967700D01*
X21049750Y-73967700D01*
X21208500Y-73808950D01*
X21208500Y-72209700D01*
X21462500Y-72209700D01*
X21462500Y-73808950D01*
X21621250Y-73967700D01*
X22361810Y-73967700D01*
X22595199Y-73871027D01*
X22773827Y-73692398D01*
X22870500Y-73459009D01*
X22870500Y-72368450D01*
X22711750Y-72209700D01*
X21462500Y-72209700D01*
X21208500Y-72209700D01*
X19959250Y-72209700D01*
X19800500Y-72368450D01*
X18448789Y-72368450D01*
X18174895Y-72255000D01*
X17405105Y-72255000D01*
X16693910Y-72549586D01*
X16149586Y-73093910D01*
X15855000Y-73805105D01*
X15855000Y-74574895D01*
X16149586Y-75286090D01*
X16693910Y-75830414D01*
X17405105Y-76125000D01*
X18174895Y-76125000D01*
X18280308Y-76081337D01*
X18096644Y-76265000D01*
X17444887Y-76265000D01*
X16807201Y-76529138D01*
X16319138Y-77017201D01*
X16055000Y-77654887D01*
X16055000Y-78345113D01*
X16319138Y-78982799D01*
X16807201Y-79470862D01*
X17444887Y-79735000D01*
X18135113Y-79735000D01*
X18649860Y-79521785D01*
X18260985Y-79910660D01*
X18174895Y-79875000D01*
X17405105Y-79875000D01*
X16693910Y-80169586D01*
X16149586Y-80713910D01*
X15855000Y-81425105D01*
X15855000Y-82194895D01*
X16149586Y-82906090D01*
X16693910Y-83450414D01*
X17405105Y-83745000D01*
X18174895Y-83745000D01*
X18886090Y-83450414D01*
X19430414Y-82906090D01*
X19617927Y-82453391D01*
X19800500Y-82453391D01*
X19800500Y-83543950D01*
X19959250Y-83702700D01*
X21208500Y-83702700D01*
X21208500Y-82103450D01*
X21462500Y-82103450D01*
X21462500Y-83702700D01*
X22711750Y-83702700D01*
X22870500Y-83543950D01*
X22870500Y-82453391D01*
X22773827Y-82220002D01*
X22595199Y-82041373D01*
X22361810Y-81944700D01*
X21621250Y-81944700D01*
X21462500Y-82103450D01*
X21208500Y-82103450D01*
X21049750Y-81944700D01*
X20309190Y-81944700D01*
X20075801Y-82041373D01*
X19897173Y-82220002D01*
X19800500Y-82453391D01*
X19617927Y-82453391D01*
X19725000Y-82194895D01*
X19725000Y-81425105D01*
X19689340Y-81339015D01*
X19814704Y-81213651D01*
X19837343Y-81327465D01*
X19977691Y-81537509D01*
X20187735Y-81677857D01*
X20435500Y-81727140D01*
X22235500Y-81727140D01*
X22483265Y-81677857D01*
X22693309Y-81537509D01*
X22833657Y-81327465D01*
X22882940Y-81079700D01*
X22882940Y-80839700D01*
X23471060Y-80839700D01*
X23471060Y-81079700D01*
X23520343Y-81327465D01*
X23660691Y-81537509D01*
X23870735Y-81677857D01*
X24118500Y-81727140D01*
X25918500Y-81727140D01*
X26166265Y-81677857D01*
X26376309Y-81537509D01*
X26417341Y-81476100D01*
X26623760Y-81476100D01*
X26623760Y-82036100D01*
X26673043Y-82283865D01*
X26731332Y-82371100D01*
X26673043Y-82458335D01*
X26623760Y-82706100D01*
X26623760Y-82839310D01*
X26565940Y-82827808D01*
X26565940Y-82579700D01*
X26516657Y-82331935D01*
X26376309Y-82121891D01*
X26166265Y-81981543D01*
X25918500Y-81932260D01*
X24118500Y-81932260D01*
X23870735Y-81981543D01*
X23660691Y-82121891D01*
X23520343Y-82331935D01*
X23471060Y-82579700D01*
X23471060Y-84873000D01*
X22870500Y-84873000D01*
X22870500Y-84115450D01*
X22711750Y-83956700D01*
X21462500Y-83956700D01*
X21462500Y-83976700D01*
X21208500Y-83976700D01*
X21208500Y-83956700D01*
X19959250Y-83956700D01*
X19800500Y-84115450D01*
X19800500Y-84873000D01*
X710000Y-84873000D01*
X710000Y-81524561D01*
X2385000Y-81524561D01*
X2385000Y-82095439D01*
X2603466Y-82622862D01*
X3007138Y-83026534D01*
X3534561Y-83245000D01*
X4105439Y-83245000D01*
X4632862Y-83026534D01*
X5036534Y-82622862D01*
X5255000Y-82095439D01*
X5255000Y-81524561D01*
X5036534Y-80997138D01*
X4632862Y-80593466D01*
X4105439Y-80375000D01*
X3534561Y-80375000D01*
X3007138Y-80593466D01*
X2603466Y-80997138D01*
X2385000Y-81524561D01*
X710000Y-81524561D01*
X710000Y-77654887D01*
X10975000Y-77654887D01*
X10975000Y-78345113D01*
X11239138Y-78982799D01*
X11727201Y-79470862D01*
X12364887Y-79735000D01*
X13055113Y-79735000D01*
X13692799Y-79470862D01*
X14180862Y-78982799D01*
X14445000Y-78345113D01*
X14445000Y-77654887D01*
X14180862Y-77017201D01*
X13692799Y-76529138D01*
X13055113Y-76265000D01*
X12364887Y-76265000D01*
X11727201Y-76529138D01*
X11239138Y-77017201D01*
X10975000Y-77654887D01*
X710000Y-77654887D01*
X710000Y-73904561D01*
X7465000Y-73904561D01*
X7465000Y-74475439D01*
X7683466Y-75002862D01*
X8087138Y-75406534D01*
X8614561Y-75625000D01*
X9185439Y-75625000D01*
X9712862Y-75406534D01*
X10116534Y-75002862D01*
X10335000Y-74475439D01*
X10335000Y-73904561D01*
X10116534Y-73377138D01*
X9712862Y-72973466D01*
X9185439Y-72755000D01*
X8614561Y-72755000D01*
X8087138Y-72973466D01*
X7683466Y-73377138D01*
X7465000Y-73904561D01*
X710000Y-73904561D01*
X710000Y-70706391D01*
X19800500Y-70706391D01*
X19800500Y-71796950D01*
X19959250Y-71955700D01*
X21208500Y-71955700D01*
X21208500Y-70356450D01*
X21462500Y-70356450D01*
X21462500Y-71955700D01*
X22711750Y-71955700D01*
X22870500Y-71796950D01*
X22870500Y-70706391D01*
X22773827Y-70473002D01*
X22595199Y-70294373D01*
X22361810Y-70197700D01*
X21621250Y-70197700D01*
X21462500Y-70356450D01*
X21208500Y-70356450D01*
X21049750Y-70197700D01*
X20309190Y-70197700D01*
X20075801Y-70294373D01*
X19897173Y-70473002D01*
X19800500Y-70706391D01*
X710000Y-70706391D01*
X710000Y-67651750D01*
X23329000Y-67651750D01*
X23329000Y-67942309D01*
X23425673Y-68175698D01*
X23604301Y-68354327D01*
X23837690Y-68451000D01*
X24078250Y-68451000D01*
X24237000Y-68292250D01*
X24237000Y-67493000D01*
X23487750Y-67493000D01*
X23329000Y-67651750D01*
X710000Y-67651750D01*
X710000Y-66789691D01*
X23329000Y-66789691D01*
X23329000Y-67080250D01*
X23487750Y-67239000D01*
X24237000Y-67239000D01*
X24237000Y-66439750D01*
X24078250Y-66281000D01*
X23837690Y-66281000D01*
X23604301Y-66377673D01*
X23425673Y-66556302D01*
X23329000Y-66789691D01*
X710000Y-66789691D01*
X710000Y-61538887D01*
X6891000Y-61538887D01*
X6891000Y-62229113D01*
X7155138Y-62866799D01*
X7643201Y-63354862D01*
X8280887Y-63619000D01*
X8971113Y-63619000D01*
X9608799Y-63354862D01*
X10096862Y-62866799D01*
X10149844Y-62738887D01*
X11991000Y-62738887D01*
X11991000Y-63429113D01*
X12255138Y-64066799D01*
X12743201Y-64554862D01*
X13380887Y-64819000D01*
X14071113Y-64819000D01*
X14708799Y-64554862D01*
X15196862Y-64066799D01*
X15461000Y-63429113D01*
X15461000Y-62738887D01*
X15196862Y-62101201D01*
X14708799Y-61613138D01*
X14071113Y-61349000D01*
X13380887Y-61349000D01*
X12743201Y-61613138D01*
X12255138Y-62101201D01*
X11991000Y-62738887D01*
X10149844Y-62738887D01*
X10361000Y-62229113D01*
X10361000Y-61538887D01*
X10096862Y-60901201D01*
X9608799Y-60413138D01*
X9252402Y-60265514D01*
X9173929Y-60148071D01*
X9110470Y-60105669D01*
X9058000Y-60053199D01*
X9058000Y-59738632D01*
X9090191Y-59786809D01*
X9300235Y-59927157D01*
X9548000Y-59976440D01*
X10048000Y-59976440D01*
X10295765Y-59927157D01*
X10478361Y-59805150D01*
X10648235Y-59918657D01*
X10896000Y-59967940D01*
X11696000Y-59967940D01*
X11943765Y-59918657D01*
X12095047Y-59817573D01*
X12136302Y-59858827D01*
X12369691Y-59955500D01*
X12610250Y-59955500D01*
X12769000Y-59796750D01*
X12769000Y-59047500D01*
X12749000Y-59047500D01*
X12749000Y-58793500D01*
X12769000Y-58793500D01*
X12769000Y-58044250D01*
X12610250Y-57885500D01*
X12369691Y-57885500D01*
X12136302Y-57982173D01*
X12095047Y-58023427D01*
X11943765Y-57922343D01*
X11696000Y-57873060D01*
X10896000Y-57873060D01*
X10648235Y-57922343D01*
X10527206Y-58003213D01*
X10505809Y-57971191D01*
X10295765Y-57830843D01*
X10048000Y-57781560D01*
X9548000Y-57781560D01*
X9300235Y-57830843D01*
X9090191Y-57971191D01*
X9048000Y-58034334D01*
X9005809Y-57971191D01*
X8795765Y-57830843D01*
X8548000Y-57781560D01*
X8048000Y-57781560D01*
X7800235Y-57830843D01*
X7590191Y-57971191D01*
X7449843Y-58181235D01*
X7400560Y-58429000D01*
X7400560Y-59329000D01*
X7449843Y-59576765D01*
X7538001Y-59708701D01*
X7538001Y-60293149D01*
X7523112Y-60368000D01*
X7550525Y-60505814D01*
X7155138Y-60901201D01*
X6891000Y-61538887D01*
X710000Y-61538887D01*
X710000Y-55085750D01*
X3925000Y-55085750D01*
X3925000Y-56626309D01*
X4021673Y-56859698D01*
X4200301Y-57038327D01*
X4433690Y-57135000D01*
X7294250Y-57135000D01*
X7453000Y-56976250D01*
X7453000Y-54927000D01*
X7707000Y-54927000D01*
X7707000Y-56976250D01*
X7865750Y-57135000D01*
X10726310Y-57135000D01*
X10959699Y-57038327D01*
X11138327Y-56859698D01*
X11235000Y-56626309D01*
X11235000Y-55085750D01*
X11076250Y-54927000D01*
X7707000Y-54927000D01*
X7453000Y-54927000D01*
X4083750Y-54927000D01*
X3925000Y-55085750D01*
X710000Y-55085750D01*
X710000Y-52973691D01*
X3925000Y-52973691D01*
X3925000Y-54514250D01*
X4083750Y-54673000D01*
X7453000Y-54673000D01*
X7453000Y-52623750D01*
X7294250Y-52465000D01*
X4433690Y-52465000D01*
X4200301Y-52561673D01*
X4021673Y-52740302D01*
X3925000Y-52973691D01*
X710000Y-52973691D01*
X710000Y-37318000D01*
X1998250Y-37318000D01*
X2157000Y-37159250D01*
X2157000Y-36127000D01*
X2411000Y-36127000D01*
X2411000Y-37159250D01*
X2411000Y-37159250D01*
G37*
X2411000Y-37159250D02*
X2569750Y-37318000D01*
X3517199Y-37318000D01*
X2563528Y-38271671D01*
X2500072Y-38314071D01*
X2457672Y-38377527D01*
X2457671Y-38377528D01*
X2332097Y-38565463D01*
X2273112Y-38862000D01*
X2288001Y-38936851D01*
X2288000Y-44629153D01*
X2273112Y-44704000D01*
X2288000Y-44778847D01*
X2288000Y-44778851D01*
X2332096Y-45000536D01*
X2500071Y-45251929D01*
X2563530Y-45294331D01*
X6698918Y-49429719D01*
X6243783Y-49618242D01*
X5868242Y-49993783D01*
X5665000Y-50484452D01*
X5665000Y-51015548D01*
X5868242Y-51506217D01*
X6243783Y-51881758D01*
X6734452Y-52085000D01*
X7265548Y-52085000D01*
X7756217Y-51881758D01*
X8131758Y-51506217D01*
X8320281Y-51051083D01*
X9734198Y-52465000D01*
X7865750Y-52465000D01*
X7707000Y-52623750D01*
X7707000Y-54673000D01*
X11076250Y-54673000D01*
X11235000Y-54514250D01*
X11235000Y-53965802D01*
X13718001Y-56448803D01*
X13718000Y-58044475D01*
X13655698Y-57982173D01*
X13422309Y-57885500D01*
X13181750Y-57885500D01*
X13023000Y-58044250D01*
X13023000Y-58793500D01*
X13043000Y-58793500D01*
X13043000Y-59047500D01*
X13023000Y-59047500D01*
X13023000Y-59796750D01*
X13181750Y-59955500D01*
X13422309Y-59955500D01*
X13655698Y-59858827D01*
X13834327Y-59680199D01*
X13923199Y-59465644D01*
X13930071Y-59475929D01*
X13993530Y-59518331D01*
X15145670Y-60670472D01*
X15188071Y-60733929D01*
X15251527Y-60776329D01*
X15439462Y-60901904D01*
X15487605Y-60911480D01*
X15661148Y-60946000D01*
X15661152Y-60946000D01*
X15736000Y-60960888D01*
X15810848Y-60946000D01*
X15934300Y-60946000D01*
X16066235Y-61034157D01*
X16314000Y-61083440D01*
X17082638Y-61083440D01*
X17443673Y-61444475D01*
X17486071Y-61507929D01*
X17549524Y-61550327D01*
X17549526Y-61550329D01*
X17643527Y-61613138D01*
X17737463Y-61675904D01*
X17959148Y-61720000D01*
X17959152Y-61720000D01*
X18033999Y-61734888D01*
X18108846Y-61720000D01*
X26293399Y-61720000D01*
X25779530Y-62233869D01*
X25716071Y-62276271D01*
X25548096Y-62527664D01*
X25504000Y-62749349D01*
X25504000Y-62749353D01*
X25489112Y-62824200D01*
X25504000Y-62899047D01*
X25504001Y-66392836D01*
X25406191Y-66458191D01*
X25316987Y-66591694D01*
X25302327Y-66556302D01*
X25123699Y-66377673D01*
X24890310Y-66281000D01*
X24649750Y-66281000D01*
X24491000Y-66439750D01*
X24491000Y-67239000D01*
X24511000Y-67239000D01*
X24511000Y-67493000D01*
X24491000Y-67493000D01*
X24491000Y-68292250D01*
X24576531Y-68377781D01*
X24456191Y-68458191D01*
X24315843Y-68668235D01*
X24266560Y-68916000D01*
X24266560Y-69816000D01*
X24315843Y-70063765D01*
X24397024Y-70185260D01*
X24118500Y-70185260D01*
X23870735Y-70234543D01*
X23660691Y-70374891D01*
X23520343Y-70584935D01*
X23471060Y-70832700D01*
X23471060Y-73332700D01*
X23520343Y-73580465D01*
X23660691Y-73790509D01*
X23870735Y-73930857D01*
X24118500Y-73980140D01*
X25918500Y-73980140D01*
X26166265Y-73930857D01*
X26376309Y-73790509D01*
X26516657Y-73580465D01*
X26565940Y-73332700D01*
X26565940Y-71663416D01*
X26610356Y-71619000D01*
X26623760Y-71619000D01*
X26623760Y-71876100D01*
X26673043Y-72123865D01*
X26731332Y-72211100D01*
X26673043Y-72298335D01*
X26623760Y-72546100D01*
X26623760Y-73146100D01*
X26673043Y-73393865D01*
X26731332Y-73481100D01*
X26673043Y-73568335D01*
X26623760Y-73816100D01*
X26623760Y-74376100D01*
X26377117Y-74376100D01*
X26376309Y-74374891D01*
X26166265Y-74234543D01*
X25918500Y-74185260D01*
X24118500Y-74185260D01*
X23870735Y-74234543D01*
X23660691Y-74374891D01*
X23520343Y-74584935D01*
X23471060Y-74832700D01*
X23471060Y-75072700D01*
X22882940Y-75072700D01*
X22882940Y-74832700D01*
X22833657Y-74584935D01*
X22693309Y-74374891D01*
X22483265Y-74234543D01*
X22235500Y-74185260D01*
X20435500Y-74185260D01*
X20187735Y-74234543D01*
X19977691Y-74374891D01*
X19837343Y-74584935D01*
X19788060Y-74832700D01*
X19788060Y-75068978D01*
X19707300Y-75052914D01*
X19607829Y-75072700D01*
X19607824Y-75072700D01*
X19510810Y-75091997D01*
X19725000Y-74574895D01*
X19725000Y-73805105D01*
X19430414Y-73093910D01*
X18886090Y-72549586D01*
X18448789Y-72368450D01*
X19800500Y-72368450D01*
X19800500Y-73459009D01*
X19897173Y-73692398D01*
X20075801Y-73871027D01*
X20309190Y-73967700D01*
X21049750Y-73967700D01*
X21208500Y-73808950D01*
X21208500Y-72209700D01*
X21462500Y-72209700D01*
X21462500Y-73808950D01*
X21621250Y-73967700D01*
X22361810Y-73967700D01*
X22595199Y-73871027D01*
X22773827Y-73692398D01*
X22870500Y-73459009D01*
X22870500Y-72368450D01*
X22711750Y-72209700D01*
X21462500Y-72209700D01*
X21208500Y-72209700D01*
X19959250Y-72209700D01*
X19800500Y-72368450D01*
X18448789Y-72368450D01*
X18174895Y-72255000D01*
X17405105Y-72255000D01*
X16693910Y-72549586D01*
X16149586Y-73093910D01*
X15855000Y-73805105D01*
X15855000Y-74574895D01*
X16149586Y-75286090D01*
X16693910Y-75830414D01*
X17405105Y-76125000D01*
X18174895Y-76125000D01*
X18280308Y-76081337D01*
X18096644Y-76265000D01*
X17444887Y-76265000D01*
X16807201Y-76529138D01*
X16319138Y-77017201D01*
X16055000Y-77654887D01*
X16055000Y-78345113D01*
X16319138Y-78982799D01*
X16807201Y-79470862D01*
X17444887Y-79735000D01*
X18135113Y-79735000D01*
X18649860Y-79521785D01*
X18260985Y-79910660D01*
X18174895Y-79875000D01*
X17405105Y-79875000D01*
X16693910Y-80169586D01*
X16149586Y-80713910D01*
X15855000Y-81425105D01*
X15855000Y-82194895D01*
X16149586Y-82906090D01*
X16693910Y-83450414D01*
X17405105Y-83745000D01*
X18174895Y-83745000D01*
X18886090Y-83450414D01*
X19430414Y-82906090D01*
X19617927Y-82453391D01*
X19800500Y-82453391D01*
X19800500Y-83543950D01*
X19959250Y-83702700D01*
X21208500Y-83702700D01*
X21208500Y-82103450D01*
X21462500Y-82103450D01*
X21462500Y-83702700D01*
X22711750Y-83702700D01*
X22870500Y-83543950D01*
X22870500Y-82453391D01*
X22773827Y-82220002D01*
X22595199Y-82041373D01*
X22361810Y-81944700D01*
X21621250Y-81944700D01*
X21462500Y-82103450D01*
X21208500Y-82103450D01*
X21049750Y-81944700D01*
X20309190Y-81944700D01*
X20075801Y-82041373D01*
X19897173Y-82220002D01*
X19800500Y-82453391D01*
X19617927Y-82453391D01*
X19725000Y-82194895D01*
X19725000Y-81425105D01*
X19689340Y-81339015D01*
X19814704Y-81213651D01*
X19837343Y-81327465D01*
X19977691Y-81537509D01*
X20187735Y-81677857D01*
X20435500Y-81727140D01*
X22235500Y-81727140D01*
X22483265Y-81677857D01*
X22693309Y-81537509D01*
X22833657Y-81327465D01*
X22882940Y-81079700D01*
X22882940Y-80839700D01*
X23471060Y-80839700D01*
X23471060Y-81079700D01*
X23520343Y-81327465D01*
X23660691Y-81537509D01*
X23870735Y-81677857D01*
X24118500Y-81727140D01*
X25918500Y-81727140D01*
X26166265Y-81677857D01*
X26376309Y-81537509D01*
X26417341Y-81476100D01*
X26623760Y-81476100D01*
X26623760Y-82036100D01*
X26673043Y-82283865D01*
X26731332Y-82371100D01*
X26673043Y-82458335D01*
X26623760Y-82706100D01*
X26623760Y-82839310D01*
X26565940Y-82827808D01*
X26565940Y-82579700D01*
X26516657Y-82331935D01*
X26376309Y-82121891D01*
X26166265Y-81981543D01*
X25918500Y-81932260D01*
X24118500Y-81932260D01*
X23870735Y-81981543D01*
X23660691Y-82121891D01*
X23520343Y-82331935D01*
X23471060Y-82579700D01*
X23471060Y-84873000D01*
X22870500Y-84873000D01*
X22870500Y-84115450D01*
X22711750Y-83956700D01*
X21462500Y-83956700D01*
X21462500Y-83976700D01*
X21208500Y-83976700D01*
X21208500Y-83956700D01*
X19959250Y-83956700D01*
X19800500Y-84115450D01*
X19800500Y-84873000D01*
X710000Y-84873000D01*
X710000Y-81524561D01*
X2385000Y-81524561D01*
X2385000Y-82095439D01*
X2603466Y-82622862D01*
X3007138Y-83026534D01*
X3534561Y-83245000D01*
X4105439Y-83245000D01*
X4632862Y-83026534D01*
X5036534Y-82622862D01*
X5255000Y-82095439D01*
X5255000Y-81524561D01*
X5036534Y-80997138D01*
X4632862Y-80593466D01*
X4105439Y-80375000D01*
X3534561Y-80375000D01*
X3007138Y-80593466D01*
X2603466Y-80997138D01*
X2385000Y-81524561D01*
X710000Y-81524561D01*
X710000Y-77654887D01*
X10975000Y-77654887D01*
X10975000Y-78345113D01*
X11239138Y-78982799D01*
X11727201Y-79470862D01*
X12364887Y-79735000D01*
X13055113Y-79735000D01*
X13692799Y-79470862D01*
X14180862Y-78982799D01*
X14445000Y-78345113D01*
X14445000Y-77654887D01*
X14180862Y-77017201D01*
X13692799Y-76529138D01*
X13055113Y-76265000D01*
X12364887Y-76265000D01*
X11727201Y-76529138D01*
X11239138Y-77017201D01*
X10975000Y-77654887D01*
X710000Y-77654887D01*
X710000Y-73904561D01*
X7465000Y-73904561D01*
X7465000Y-74475439D01*
X7683466Y-75002862D01*
X8087138Y-75406534D01*
X8614561Y-75625000D01*
X9185439Y-75625000D01*
X9712862Y-75406534D01*
X10116534Y-75002862D01*
X10335000Y-74475439D01*
X10335000Y-73904561D01*
X10116534Y-73377138D01*
X9712862Y-72973466D01*
X9185439Y-72755000D01*
X8614561Y-72755000D01*
X8087138Y-72973466D01*
X7683466Y-73377138D01*
X7465000Y-73904561D01*
X710000Y-73904561D01*
X710000Y-70706391D01*
X19800500Y-70706391D01*
X19800500Y-71796950D01*
X19959250Y-71955700D01*
X21208500Y-71955700D01*
X21208500Y-70356450D01*
X21462500Y-70356450D01*
X21462500Y-71955700D01*
X22711750Y-71955700D01*
X22870500Y-71796950D01*
X22870500Y-70706391D01*
X22773827Y-70473002D01*
X22595199Y-70294373D01*
X22361810Y-70197700D01*
X21621250Y-70197700D01*
X21462500Y-70356450D01*
X21208500Y-70356450D01*
X21049750Y-70197700D01*
X20309190Y-70197700D01*
X20075801Y-70294373D01*
X19897173Y-70473002D01*
X19800500Y-70706391D01*
X710000Y-70706391D01*
X710000Y-67651750D01*
X23329000Y-67651750D01*
X23329000Y-67942309D01*
X23425673Y-68175698D01*
X23604301Y-68354327D01*
X23837690Y-68451000D01*
X24078250Y-68451000D01*
X24237000Y-68292250D01*
X24237000Y-67493000D01*
X23487750Y-67493000D01*
X23329000Y-67651750D01*
X710000Y-67651750D01*
X710000Y-66789691D01*
X23329000Y-66789691D01*
X23329000Y-67080250D01*
X23487750Y-67239000D01*
X24237000Y-67239000D01*
X24237000Y-66439750D01*
X24078250Y-66281000D01*
X23837690Y-66281000D01*
X23604301Y-66377673D01*
X23425673Y-66556302D01*
X23329000Y-66789691D01*
X710000Y-66789691D01*
X710000Y-61538887D01*
X6891000Y-61538887D01*
X6891000Y-62229113D01*
X7155138Y-62866799D01*
X7643201Y-63354862D01*
X8280887Y-63619000D01*
X8971113Y-63619000D01*
X9608799Y-63354862D01*
X10096862Y-62866799D01*
X10149844Y-62738887D01*
X11991000Y-62738887D01*
X11991000Y-63429113D01*
X12255138Y-64066799D01*
X12743201Y-64554862D01*
X13380887Y-64819000D01*
X14071113Y-64819000D01*
X14708799Y-64554862D01*
X15196862Y-64066799D01*
X15461000Y-63429113D01*
X15461000Y-62738887D01*
X15196862Y-62101201D01*
X14708799Y-61613138D01*
X14071113Y-61349000D01*
X13380887Y-61349000D01*
X12743201Y-61613138D01*
X12255138Y-62101201D01*
X11991000Y-62738887D01*
X10149844Y-62738887D01*
X10361000Y-62229113D01*
X10361000Y-61538887D01*
X10096862Y-60901201D01*
X9608799Y-60413138D01*
X9252402Y-60265514D01*
X9173929Y-60148071D01*
X9110470Y-60105669D01*
X9058000Y-60053199D01*
X9058000Y-59738632D01*
X9090191Y-59786809D01*
X9300235Y-59927157D01*
X9548000Y-59976440D01*
X10048000Y-59976440D01*
X10295765Y-59927157D01*
X10478361Y-59805150D01*
X10648235Y-59918657D01*
X10896000Y-59967940D01*
X11696000Y-59967940D01*
X11943765Y-59918657D01*
X12095047Y-59817573D01*
X12136302Y-59858827D01*
X12369691Y-59955500D01*
X12610250Y-59955500D01*
X12769000Y-59796750D01*
X12769000Y-59047500D01*
X12749000Y-59047500D01*
X12749000Y-58793500D01*
X12769000Y-58793500D01*
X12769000Y-58044250D01*
X12610250Y-57885500D01*
X12369691Y-57885500D01*
X12136302Y-57982173D01*
X12095047Y-58023427D01*
X11943765Y-57922343D01*
X11696000Y-57873060D01*
X10896000Y-57873060D01*
X10648235Y-57922343D01*
X10527206Y-58003213D01*
X10505809Y-57971191D01*
X10295765Y-57830843D01*
X10048000Y-57781560D01*
X9548000Y-57781560D01*
X9300235Y-57830843D01*
X9090191Y-57971191D01*
X9048000Y-58034334D01*
X9005809Y-57971191D01*
X8795765Y-57830843D01*
X8548000Y-57781560D01*
X8048000Y-57781560D01*
X7800235Y-57830843D01*
X7590191Y-57971191D01*
X7449843Y-58181235D01*
X7400560Y-58429000D01*
X7400560Y-59329000D01*
X7449843Y-59576765D01*
X7538001Y-59708701D01*
X7538001Y-60293149D01*
X7523112Y-60368000D01*
X7550525Y-60505814D01*
X7155138Y-60901201D01*
X6891000Y-61538887D01*
X710000Y-61538887D01*
X710000Y-55085750D01*
X3925000Y-55085750D01*
X3925000Y-56626309D01*
X4021673Y-56859698D01*
X4200301Y-57038327D01*
X4433690Y-57135000D01*
X7294250Y-57135000D01*
X7453000Y-56976250D01*
X7453000Y-54927000D01*
X7707000Y-54927000D01*
X7707000Y-56976250D01*
X7865750Y-57135000D01*
X10726310Y-57135000D01*
X10959699Y-57038327D01*
X11138327Y-56859698D01*
X11235000Y-56626309D01*
X11235000Y-55085750D01*
X11076250Y-54927000D01*
X7707000Y-54927000D01*
X7453000Y-54927000D01*
X4083750Y-54927000D01*
X3925000Y-55085750D01*
X710000Y-55085750D01*
X710000Y-52973691D01*
X3925000Y-52973691D01*
X3925000Y-54514250D01*
X4083750Y-54673000D01*
X7453000Y-54673000D01*
X7453000Y-52623750D01*
X7294250Y-52465000D01*
X4433690Y-52465000D01*
X4200301Y-52561673D01*
X4021673Y-52740302D01*
X3925000Y-52973691D01*
X710000Y-52973691D01*
X710000Y-37318000D01*
X1998250Y-37318000D01*
X2157000Y-37159250D01*
X2157000Y-36127000D01*
X2411000Y-36127000D01*
X2411000Y-37159250D01*
G36*
X29999000Y-66015337D02*
X29901191Y-66080691D01*
X29811987Y-66214194D01*
X29797327Y-66178802D01*
X29618699Y-66000173D01*
X29385310Y-65903500D01*
X29144750Y-65903500D01*
X28986000Y-66062250D01*
X28986000Y-66861500D01*
X29006000Y-66861500D01*
X29006000Y-67115500D01*
X28986000Y-67115500D01*
X28986000Y-67914750D01*
X29071531Y-68000281D01*
X28951191Y-68080691D01*
X28810843Y-68290735D01*
X28761560Y-68538500D01*
X28761560Y-68598185D01*
X28726000Y-68591112D01*
X28651153Y-68606000D01*
X26270573Y-68606000D01*
X26175316Y-68463440D01*
X26664000Y-68463440D01*
X26911765Y-68414157D01*
X27121809Y-68273809D01*
X27262157Y-68063765D01*
X27311440Y-67816000D01*
X27311440Y-67274250D01*
X27824000Y-67274250D01*
X27824000Y-67564809D01*
X27920673Y-67798198D01*
X28099301Y-67976827D01*
X28332690Y-68073500D01*
X28573250Y-68073500D01*
X28732000Y-67914750D01*
X28732000Y-67115500D01*
X27982750Y-67115500D01*
X27824000Y-67274250D01*
X27311440Y-67274250D01*
X27311440Y-66916000D01*
X27262157Y-66668235D01*
X27121809Y-66458191D01*
X27052966Y-66412191D01*
X27824000Y-66412191D01*
X27824000Y-66702750D01*
X27982750Y-66861500D01*
X28732000Y-66861500D01*
X28732000Y-66062250D01*
X28573250Y-65903500D01*
X28332690Y-65903500D01*
X28099301Y-66000173D01*
X27920673Y-66178802D01*
X27824000Y-66412191D01*
X27052966Y-66412191D01*
X27024000Y-66392837D01*
X27024000Y-63139001D01*
X29999001Y-60164001D01*
X29999000Y-66015337D01*
X29999000Y-66015337D01*
G37*
X29999000Y-66015337D02*
X29901191Y-66080691D01*
X29811987Y-66214194D01*
X29797327Y-66178802D01*
X29618699Y-66000173D01*
X29385310Y-65903500D01*
X29144750Y-65903500D01*
X28986000Y-66062250D01*
X28986000Y-66861500D01*
X29006000Y-66861500D01*
X29006000Y-67115500D01*
X28986000Y-67115500D01*
X28986000Y-67914750D01*
X29071531Y-68000281D01*
X28951191Y-68080691D01*
X28810843Y-68290735D01*
X28761560Y-68538500D01*
X28761560Y-68598185D01*
X28726000Y-68591112D01*
X28651153Y-68606000D01*
X26270573Y-68606000D01*
X26175316Y-68463440D01*
X26664000Y-68463440D01*
X26911765Y-68414157D01*
X27121809Y-68273809D01*
X27262157Y-68063765D01*
X27311440Y-67816000D01*
X27311440Y-67274250D01*
X27824000Y-67274250D01*
X27824000Y-67564809D01*
X27920673Y-67798198D01*
X28099301Y-67976827D01*
X28332690Y-68073500D01*
X28573250Y-68073500D01*
X28732000Y-67914750D01*
X28732000Y-67115500D01*
X27982750Y-67115500D01*
X27824000Y-67274250D01*
X27311440Y-67274250D01*
X27311440Y-66916000D01*
X27262157Y-66668235D01*
X27121809Y-66458191D01*
X27052966Y-66412191D01*
X27824000Y-66412191D01*
X27824000Y-66702750D01*
X27982750Y-66861500D01*
X28732000Y-66861500D01*
X28732000Y-66062250D01*
X28573250Y-65903500D01*
X28332690Y-65903500D01*
X28099301Y-66000173D01*
X27920673Y-66178802D01*
X27824000Y-66412191D01*
X27052966Y-66412191D01*
X27024000Y-66392837D01*
X27024000Y-63139001D01*
X29999001Y-60164001D01*
X29999000Y-66015337D01*
G36*
X16543262Y-56276124D02*
X16592545Y-56523889D01*
X16653575Y-56615226D01*
X16652375Y-56616426D01*
X16555702Y-56849815D01*
X16555702Y-57090374D01*
X16714452Y-57249124D01*
X17438702Y-57249124D01*
X17438702Y-57229124D01*
X17692702Y-57229124D01*
X17692702Y-57249124D01*
X18149452Y-57249124D01*
X18163452Y-57263124D01*
X18962702Y-57263124D01*
X18962702Y-57241124D01*
X19216702Y-57241124D01*
X19216702Y-57263124D01*
X19236702Y-57263124D01*
X19236702Y-57513124D01*
X19216702Y-57513124D01*
X19216702Y-58114374D01*
X19375452Y-58273124D01*
X19666012Y-58273124D01*
X19782200Y-58224997D01*
X19782200Y-58446109D01*
X19860358Y-58634800D01*
X18850958Y-58634800D01*
X18472232Y-58256075D01*
X18513392Y-58273124D01*
X18803952Y-58273124D01*
X18962702Y-58114374D01*
X18962702Y-57513124D01*
X18426952Y-57513124D01*
X18416952Y-57503124D01*
X17692702Y-57503124D01*
X17692702Y-57523124D01*
X17438702Y-57523124D01*
X17438702Y-57503124D01*
X16714452Y-57503124D01*
X16555702Y-57661874D01*
X16555702Y-57788560D01*
X16314000Y-57788560D01*
X16066235Y-57837843D01*
X16000000Y-57882100D01*
X16000000Y-55954846D01*
X16014888Y-55879999D01*
X16000000Y-55805152D01*
X16000000Y-55805148D01*
X15977738Y-55693228D01*
X16543262Y-55693228D01*
X16543262Y-56276124D01*
X16543262Y-56276124D01*
G37*
X16543262Y-56276124D02*
X16592545Y-56523889D01*
X16653575Y-56615226D01*
X16652375Y-56616426D01*
X16555702Y-56849815D01*
X16555702Y-57090374D01*
X16714452Y-57249124D01*
X17438702Y-57249124D01*
X17438702Y-57229124D01*
X17692702Y-57229124D01*
X17692702Y-57249124D01*
X18149452Y-57249124D01*
X18163452Y-57263124D01*
X18962702Y-57263124D01*
X18962702Y-57241124D01*
X19216702Y-57241124D01*
X19216702Y-57263124D01*
X19236702Y-57263124D01*
X19236702Y-57513124D01*
X19216702Y-57513124D01*
X19216702Y-58114374D01*
X19375452Y-58273124D01*
X19666012Y-58273124D01*
X19782200Y-58224997D01*
X19782200Y-58446109D01*
X19860358Y-58634800D01*
X18850958Y-58634800D01*
X18472232Y-58256075D01*
X18513392Y-58273124D01*
X18803952Y-58273124D01*
X18962702Y-58114374D01*
X18962702Y-57513124D01*
X18426952Y-57513124D01*
X18416952Y-57503124D01*
X17692702Y-57503124D01*
X17692702Y-57523124D01*
X17438702Y-57523124D01*
X17438702Y-57503124D01*
X16714452Y-57503124D01*
X16555702Y-57661874D01*
X16555702Y-57788560D01*
X16314000Y-57788560D01*
X16066235Y-57837843D01*
X16000000Y-57882100D01*
X16000000Y-55954846D01*
X16014888Y-55879999D01*
X16000000Y-55805152D01*
X16000000Y-55805148D01*
X15977738Y-55693228D01*
X16543262Y-55693228D01*
X16543262Y-56276124D01*
G36*
X20915143Y-57309478D02*
X20919200Y-57313535D01*
X20919200Y-57792800D01*
X20939200Y-57792800D01*
X20939200Y-58046800D01*
X20919200Y-58046800D01*
X20919200Y-58066800D01*
X20665200Y-58066800D01*
X20665200Y-58046800D01*
X20645200Y-58046800D01*
X20645200Y-57792800D01*
X20665200Y-57792800D01*
X20665200Y-57043550D01*
X20661143Y-57039493D01*
X20661143Y-56680668D01*
X20915143Y-56680668D01*
X20915143Y-57309478D01*
X20915143Y-57309478D01*
G37*
X20915143Y-57309478D02*
X20919200Y-57313535D01*
X20919200Y-57792800D01*
X20939200Y-57792800D01*
X20939200Y-58046800D01*
X20919200Y-58046800D01*
X20919200Y-58066800D01*
X20665200Y-58066800D01*
X20665200Y-58046800D01*
X20645200Y-58046800D01*
X20645200Y-57792800D01*
X20665200Y-57792800D01*
X20665200Y-57043550D01*
X20661143Y-57039493D01*
X20661143Y-56680668D01*
X20915143Y-56680668D01*
X20915143Y-57309478D01*
G36*
X6384000Y-37330440D02*
X10162001Y-37330440D01*
X10162001Y-38279148D01*
X10147112Y-38354000D01*
X10206097Y-38650537D01*
X10320713Y-38822071D01*
X10349397Y-38865000D01*
X7865750Y-38865000D01*
X7707000Y-39023750D01*
X7707000Y-41073000D01*
X7727000Y-41073000D01*
X7727000Y-41327000D01*
X7707000Y-41327000D01*
X7707000Y-43376250D01*
X7865750Y-43535000D01*
X10726310Y-43535000D01*
X10959699Y-43438327D01*
X11138327Y-43259698D01*
X11235000Y-43026309D01*
X11235000Y-42127000D01*
X15881541Y-42127000D01*
X15930191Y-42199809D01*
X16140235Y-42340157D01*
X16388000Y-42389440D01*
X17096859Y-42389440D01*
X17094560Y-42401000D01*
X17094560Y-45401000D01*
X17143843Y-45648765D01*
X17284191Y-45858809D01*
X17494235Y-45999157D01*
X17742000Y-46048440D01*
X19342000Y-46048440D01*
X19589765Y-45999157D01*
X19799809Y-45858809D01*
X19940157Y-45648765D01*
X19989440Y-45401000D01*
X19989440Y-45358597D01*
X20363001Y-45732158D01*
X20363000Y-49765772D01*
X20347622Y-49843084D01*
X20363000Y-49920396D01*
X20363000Y-49920399D01*
X20376007Y-49985788D01*
X20188143Y-49985788D01*
X19940378Y-50035071D01*
X19929296Y-50042476D01*
X19977000Y-49927309D01*
X19977000Y-48586750D01*
X19818250Y-48428000D01*
X18669000Y-48428000D01*
X18669000Y-50277250D01*
X18827750Y-50436000D01*
X19468310Y-50436000D01*
X19589956Y-50385612D01*
X19540703Y-50633228D01*
X19540703Y-51233228D01*
X19560594Y-51333228D01*
X19540703Y-51433228D01*
X19540703Y-52033228D01*
X19560594Y-52133228D01*
X19540703Y-52233228D01*
X19540703Y-52573228D01*
X16056030Y-52573228D01*
X14760000Y-51277199D01*
X14760000Y-50872440D01*
X15500000Y-50872440D01*
X15747765Y-50823157D01*
X15957809Y-50682809D01*
X16098157Y-50472765D01*
X16147440Y-50225000D01*
X16147440Y-49525000D01*
X16098157Y-49277235D01*
X16075916Y-49243950D01*
X16135000Y-49101309D01*
X16135000Y-48910750D01*
X15976250Y-48752000D01*
X14127000Y-48752000D01*
X14127000Y-48772000D01*
X13873000Y-48772000D01*
X13873000Y-48752000D01*
X13853000Y-48752000D01*
X13853000Y-48586750D01*
X17107000Y-48586750D01*
X17107000Y-49927309D01*
X17203673Y-50160698D01*
X17382301Y-50339327D01*
X17615690Y-50436000D01*
X18256250Y-50436000D01*
X18415000Y-50277250D01*
X18415000Y-48428000D01*
X17265750Y-48428000D01*
X17107000Y-48586750D01*
X13853000Y-48586750D01*
X13853000Y-48498000D01*
X13873000Y-48498000D01*
X13873000Y-48478000D01*
X14127000Y-48478000D01*
X14127000Y-48498000D01*
X15976250Y-48498000D01*
X16135000Y-48339250D01*
X16135000Y-48148691D01*
X16075916Y-48006050D01*
X16098157Y-47972765D01*
X16147440Y-47725000D01*
X16147440Y-47025000D01*
X16098157Y-46777235D01*
X16079959Y-46750000D01*
X16098157Y-46722765D01*
X16107719Y-46674691D01*
X17107000Y-46674691D01*
X17107000Y-48015250D01*
X17265750Y-48174000D01*
X18415000Y-48174000D01*
X18415000Y-46324750D01*
X18669000Y-46324750D01*
X18669000Y-48174000D01*
X19818250Y-48174000D01*
X19977000Y-48015250D01*
X19977000Y-46674691D01*
X19880327Y-46441302D01*
X19701699Y-46262673D01*
X19468310Y-46166000D01*
X18827750Y-46166000D01*
X18669000Y-46324750D01*
X18415000Y-46324750D01*
X18256250Y-46166000D01*
X17615690Y-46166000D01*
X17382301Y-46262673D01*
X17203673Y-46441302D01*
X17107000Y-46674691D01*
X16107719Y-46674691D01*
X16147440Y-46475000D01*
X16147440Y-45775000D01*
X16098157Y-45527235D01*
X15957809Y-45317191D01*
X15747765Y-45176843D01*
X15500000Y-45127560D01*
X12500000Y-45127560D01*
X12252235Y-45176843D01*
X12042191Y-45317191D01*
X11966520Y-45430440D01*
X11747071Y-45577071D01*
X11704671Y-45640527D01*
X10691528Y-46653671D01*
X10628072Y-46696071D01*
X10585672Y-46759527D01*
X10585671Y-46759528D01*
X10460097Y-46947463D01*
X10401112Y-47244000D01*
X10416001Y-47318852D01*
X10416000Y-49981199D01*
X7019801Y-46585000D01*
X7265548Y-46585000D01*
X7756217Y-46381758D01*
X8131758Y-46006217D01*
X8335000Y-45515548D01*
X8335000Y-44984452D01*
X8131758Y-44493783D01*
X7756217Y-44118242D01*
X7265548Y-43915000D01*
X6734452Y-43915000D01*
X6243783Y-44118242D01*
X5868242Y-44493783D01*
X5665000Y-44984452D01*
X5665000Y-45230199D01*
X4570000Y-44135199D01*
X4570000Y-43535000D01*
X7294250Y-43535000D01*
X7453000Y-43376250D01*
X7453000Y-41327000D01*
X7433000Y-41327000D01*
X7433000Y-41073000D01*
X7453000Y-41073000D01*
X7453000Y-39023750D01*
X7294250Y-38865000D01*
X5135801Y-38865000D01*
X6072473Y-37928329D01*
X6135929Y-37885929D01*
X6178924Y-37821582D01*
X6303904Y-37634538D01*
X6321534Y-37545904D01*
X6348000Y-37412852D01*
X6348000Y-37412848D01*
X6362888Y-37338000D01*
X6360453Y-37325756D01*
X6384000Y-37330440D01*
X6384000Y-37330440D01*
G37*
X6384000Y-37330440D02*
X10162001Y-37330440D01*
X10162001Y-38279148D01*
X10147112Y-38354000D01*
X10206097Y-38650537D01*
X10320713Y-38822071D01*
X10349397Y-38865000D01*
X7865750Y-38865000D01*
X7707000Y-39023750D01*
X7707000Y-41073000D01*
X7727000Y-41073000D01*
X7727000Y-41327000D01*
X7707000Y-41327000D01*
X7707000Y-43376250D01*
X7865750Y-43535000D01*
X10726310Y-43535000D01*
X10959699Y-43438327D01*
X11138327Y-43259698D01*
X11235000Y-43026309D01*
X11235000Y-42127000D01*
X15881541Y-42127000D01*
X15930191Y-42199809D01*
X16140235Y-42340157D01*
X16388000Y-42389440D01*
X17096859Y-42389440D01*
X17094560Y-42401000D01*
X17094560Y-45401000D01*
X17143843Y-45648765D01*
X17284191Y-45858809D01*
X17494235Y-45999157D01*
X17742000Y-46048440D01*
X19342000Y-46048440D01*
X19589765Y-45999157D01*
X19799809Y-45858809D01*
X19940157Y-45648765D01*
X19989440Y-45401000D01*
X19989440Y-45358597D01*
X20363001Y-45732158D01*
X20363000Y-49765772D01*
X20347622Y-49843084D01*
X20363000Y-49920396D01*
X20363000Y-49920399D01*
X20376007Y-49985788D01*
X20188143Y-49985788D01*
X19940378Y-50035071D01*
X19929296Y-50042476D01*
X19977000Y-49927309D01*
X19977000Y-48586750D01*
X19818250Y-48428000D01*
X18669000Y-48428000D01*
X18669000Y-50277250D01*
X18827750Y-50436000D01*
X19468310Y-50436000D01*
X19589956Y-50385612D01*
X19540703Y-50633228D01*
X19540703Y-51233228D01*
X19560594Y-51333228D01*
X19540703Y-51433228D01*
X19540703Y-52033228D01*
X19560594Y-52133228D01*
X19540703Y-52233228D01*
X19540703Y-52573228D01*
X16056030Y-52573228D01*
X14760000Y-51277199D01*
X14760000Y-50872440D01*
X15500000Y-50872440D01*
X15747765Y-50823157D01*
X15957809Y-50682809D01*
X16098157Y-50472765D01*
X16147440Y-50225000D01*
X16147440Y-49525000D01*
X16098157Y-49277235D01*
X16075916Y-49243950D01*
X16135000Y-49101309D01*
X16135000Y-48910750D01*
X15976250Y-48752000D01*
X14127000Y-48752000D01*
X14127000Y-48772000D01*
X13873000Y-48772000D01*
X13873000Y-48752000D01*
X13853000Y-48752000D01*
X13853000Y-48586750D01*
X17107000Y-48586750D01*
X17107000Y-49927309D01*
X17203673Y-50160698D01*
X17382301Y-50339327D01*
X17615690Y-50436000D01*
X18256250Y-50436000D01*
X18415000Y-50277250D01*
X18415000Y-48428000D01*
X17265750Y-48428000D01*
X17107000Y-48586750D01*
X13853000Y-48586750D01*
X13853000Y-48498000D01*
X13873000Y-48498000D01*
X13873000Y-48478000D01*
X14127000Y-48478000D01*
X14127000Y-48498000D01*
X15976250Y-48498000D01*
X16135000Y-48339250D01*
X16135000Y-48148691D01*
X16075916Y-48006050D01*
X16098157Y-47972765D01*
X16147440Y-47725000D01*
X16147440Y-47025000D01*
X16098157Y-46777235D01*
X16079959Y-46750000D01*
X16098157Y-46722765D01*
X16107719Y-46674691D01*
X17107000Y-46674691D01*
X17107000Y-48015250D01*
X17265750Y-48174000D01*
X18415000Y-48174000D01*
X18415000Y-46324750D01*
X18669000Y-46324750D01*
X18669000Y-48174000D01*
X19818250Y-48174000D01*
X19977000Y-48015250D01*
X19977000Y-46674691D01*
X19880327Y-46441302D01*
X19701699Y-46262673D01*
X19468310Y-46166000D01*
X18827750Y-46166000D01*
X18669000Y-46324750D01*
X18415000Y-46324750D01*
X18256250Y-46166000D01*
X17615690Y-46166000D01*
X17382301Y-46262673D01*
X17203673Y-46441302D01*
X17107000Y-46674691D01*
X16107719Y-46674691D01*
X16147440Y-46475000D01*
X16147440Y-45775000D01*
X16098157Y-45527235D01*
X15957809Y-45317191D01*
X15747765Y-45176843D01*
X15500000Y-45127560D01*
X12500000Y-45127560D01*
X12252235Y-45176843D01*
X12042191Y-45317191D01*
X11966520Y-45430440D01*
X11747071Y-45577071D01*
X11704671Y-45640527D01*
X10691528Y-46653671D01*
X10628072Y-46696071D01*
X10585672Y-46759527D01*
X10585671Y-46759528D01*
X10460097Y-46947463D01*
X10401112Y-47244000D01*
X10416001Y-47318852D01*
X10416000Y-49981199D01*
X7019801Y-46585000D01*
X7265548Y-46585000D01*
X7756217Y-46381758D01*
X8131758Y-46006217D01*
X8335000Y-45515548D01*
X8335000Y-44984452D01*
X8131758Y-44493783D01*
X7756217Y-44118242D01*
X7265548Y-43915000D01*
X6734452Y-43915000D01*
X6243783Y-44118242D01*
X5868242Y-44493783D01*
X5665000Y-44984452D01*
X5665000Y-45230199D01*
X4570000Y-44135199D01*
X4570000Y-43535000D01*
X7294250Y-43535000D01*
X7453000Y-43376250D01*
X7453000Y-41327000D01*
X7433000Y-41327000D01*
X7433000Y-41073000D01*
X7453000Y-41073000D01*
X7453000Y-39023750D01*
X7294250Y-38865000D01*
X5135801Y-38865000D01*
X6072473Y-37928329D01*
X6135929Y-37885929D01*
X6178924Y-37821582D01*
X6303904Y-37634538D01*
X6321534Y-37545904D01*
X6348000Y-37412852D01*
X6348000Y-37412848D01*
X6362888Y-37338000D01*
X6360453Y-37325756D01*
X6384000Y-37330440D01*
G36*
X35164336Y-13633137D02*
X34444569Y-13335000D01*
X33555431Y-13335000D01*
X32733974Y-13675259D01*
X32105259Y-14303974D01*
X31765000Y-15125431D01*
X31765000Y-16014569D01*
X31974603Y-16520595D01*
X30757528Y-17737671D01*
X30694072Y-17780071D01*
X30651672Y-17843527D01*
X30651671Y-17843528D01*
X30526097Y-18031463D01*
X30467112Y-18328000D01*
X30482001Y-18402852D01*
X30482000Y-24323198D01*
X28571974Y-26233225D01*
X28341598Y-26187400D01*
X28046402Y-26187400D01*
X27609275Y-26274350D01*
X27113570Y-26605570D01*
X26782350Y-27101275D01*
X26666041Y-27686000D01*
X26782350Y-28270725D01*
X27113570Y-28766430D01*
X27401826Y-28959037D01*
X26987179Y-29337510D01*
X26739032Y-29866973D01*
X26859531Y-30099000D01*
X28067000Y-30099000D01*
X28067000Y-30079000D01*
X28321000Y-30079000D01*
X28321000Y-30099000D01*
X28341000Y-30099000D01*
X28341000Y-30353000D01*
X28321000Y-30353000D01*
X28321000Y-30373000D01*
X28067000Y-30373000D01*
X28067000Y-30353000D01*
X26859531Y-30353000D01*
X26739032Y-30585027D01*
X26903194Y-30935294D01*
X26884071Y-30948071D01*
X26841672Y-31011525D01*
X26439529Y-31413670D01*
X26376071Y-31456071D01*
X26208096Y-31707464D01*
X26164000Y-31929149D01*
X26164000Y-31929153D01*
X26149112Y-32004000D01*
X26164000Y-32078847D01*
X26164001Y-33961148D01*
X26149112Y-34036000D01*
X26208097Y-34332537D01*
X26281239Y-34442001D01*
X26376072Y-34583929D01*
X26439528Y-34626329D01*
X26741225Y-34928026D01*
X26666041Y-35306000D01*
X26782350Y-35890725D01*
X27113570Y-36386430D01*
X27397281Y-36576000D01*
X27113570Y-36765570D01*
X26782350Y-37261275D01*
X26718595Y-37581793D01*
X25144000Y-36007199D01*
X25144000Y-31316846D01*
X25158888Y-31241999D01*
X25144000Y-31167152D01*
X25144000Y-31167148D01*
X25099904Y-30945463D01*
X24931929Y-30694071D01*
X24868473Y-30651671D01*
X23704331Y-29487530D01*
X23661929Y-29424071D01*
X23410537Y-29256096D01*
X23188852Y-29212000D01*
X23188847Y-29212000D01*
X23114000Y-29197112D01*
X23039153Y-29212000D01*
X22287741Y-29212000D01*
X22363000Y-29030309D01*
X22363000Y-27939750D01*
X22204250Y-27781000D01*
X20955000Y-27781000D01*
X20955000Y-27801000D01*
X20701000Y-27801000D01*
X20701000Y-27781000D01*
X19451750Y-27781000D01*
X19293000Y-27939750D01*
X19293000Y-29030309D01*
X19368259Y-29212000D01*
X19032000Y-29212000D01*
X19032000Y-28823750D01*
X18873250Y-28665000D01*
X18224000Y-28665000D01*
X18224000Y-28685000D01*
X17970000Y-28685000D01*
X17970000Y-28665000D01*
X16954000Y-28665000D01*
X16954000Y-28685000D01*
X16700000Y-28685000D01*
X16700000Y-28665000D01*
X15684000Y-28665000D01*
X15684000Y-28685000D01*
X15430000Y-28685000D01*
X15430000Y-28665000D01*
X14414000Y-28665000D01*
X14414000Y-28685000D01*
X14160000Y-28685000D01*
X14160000Y-28665000D01*
X13510750Y-28665000D01*
X13352000Y-28823750D01*
X13352000Y-29212000D01*
X12774848Y-29212000D01*
X12700000Y-29197112D01*
X12625152Y-29212000D01*
X12625148Y-29212000D01*
X12451605Y-29246520D01*
X12403462Y-29256096D01*
X12217654Y-29380250D01*
X12152071Y-29424071D01*
X12109671Y-29487527D01*
X10437530Y-31159669D01*
X10374071Y-31202071D01*
X10206096Y-31453464D01*
X10162000Y-31675149D01*
X10162000Y-31675153D01*
X10147112Y-31750000D01*
X10162000Y-31824847D01*
X10162000Y-33535560D01*
X9333155Y-33535560D01*
X9112169Y-33204831D01*
X9027837Y-33148482D01*
X7360000Y-31480645D01*
X7360000Y-29888068D01*
X7806537Y-29888068D01*
X8030354Y-30261387D01*
X9011056Y-30658931D01*
X10069239Y-30650916D01*
X11009646Y-30261387D01*
X11233463Y-29888068D01*
X9520000Y-28174605D01*
X7806537Y-29888068D01*
X7360000Y-29888068D01*
X7360000Y-29548429D01*
X7626932Y-29708463D01*
X9340395Y-27995000D01*
X9699605Y-27995000D01*
X11413068Y-29708463D01*
X11786387Y-29484646D01*
X12183931Y-28503944D01*
X12177363Y-27636691D01*
X13352000Y-27636691D01*
X13352000Y-28252250D01*
X13510750Y-28411000D01*
X14160000Y-28411000D01*
X14160000Y-27286750D01*
X14414000Y-27286750D01*
X14414000Y-28411000D01*
X15430000Y-28411000D01*
X15430000Y-27286750D01*
X15684000Y-27286750D01*
X15684000Y-28411000D01*
X16700000Y-28411000D01*
X16700000Y-27286750D01*
X16954000Y-27286750D01*
X16954000Y-28411000D01*
X17970000Y-28411000D01*
X17970000Y-27286750D01*
X18224000Y-27286750D01*
X18224000Y-28411000D01*
X18873250Y-28411000D01*
X19032000Y-28252250D01*
X19032000Y-27636691D01*
X18935327Y-27403302D01*
X18756699Y-27224673D01*
X18523310Y-27128000D01*
X18382750Y-27128000D01*
X18224000Y-27286750D01*
X17970000Y-27286750D01*
X17811250Y-27128000D01*
X17670690Y-27128000D01*
X17462000Y-27214442D01*
X17253310Y-27128000D01*
X17112750Y-27128000D01*
X16954000Y-27286750D01*
X16700000Y-27286750D01*
X16541250Y-27128000D01*
X16400690Y-27128000D01*
X16192000Y-27214442D01*
X15983310Y-27128000D01*
X15842750Y-27128000D01*
X15684000Y-27286750D01*
X15430000Y-27286750D01*
X15271250Y-27128000D01*
X15130690Y-27128000D01*
X14922000Y-27214442D01*
X14713310Y-27128000D01*
X14572750Y-27128000D01*
X14414000Y-27286750D01*
X14160000Y-27286750D01*
X14001250Y-27128000D01*
X13860690Y-27128000D01*
X13627301Y-27224673D01*
X13448673Y-27403302D01*
X13352000Y-27636691D01*
X12177363Y-27636691D01*
X12175916Y-27445761D01*
X11786387Y-26505354D01*
X11413068Y-26281537D01*
X9699605Y-27995000D01*
X9340395Y-27995000D01*
X9326253Y-27980858D01*
X9505858Y-27801253D01*
X9520000Y-27815395D01*
X11233463Y-26101932D01*
X11009646Y-25728613D01*
X10840593Y-25660085D01*
X10881518Y-25598837D01*
X10940000Y-25540355D01*
X10998482Y-25598837D01*
X11054831Y-25683169D01*
X11388918Y-25906399D01*
X11683524Y-25965000D01*
X11683528Y-25965000D01*
X11782999Y-25984786D01*
X11882470Y-25965000D01*
X18032198Y-25965000D01*
X18205671Y-26138473D01*
X18248071Y-26201929D01*
X18499463Y-26369904D01*
X18721148Y-26414000D01*
X18721152Y-26414000D01*
X18795999Y-26428888D01*
X18870846Y-26414000D01*
X19293000Y-26414000D01*
X19293000Y-27368250D01*
X19451750Y-27527000D01*
X20701000Y-27527000D01*
X20701000Y-27507000D01*
X20955000Y-27507000D01*
X20955000Y-27527000D01*
X22204250Y-27527000D01*
X22363000Y-27368250D01*
X22363000Y-26414000D01*
X22785153Y-26414000D01*
X22860000Y-26428888D01*
X22934847Y-26414000D01*
X22934852Y-26414000D01*
X23156537Y-26369904D01*
X23407929Y-26201929D01*
X23450330Y-26138471D01*
X23852475Y-25736327D01*
X23915929Y-25693929D01*
X23958327Y-25630476D01*
X23958329Y-25630474D01*
X24083903Y-25442538D01*
X24083904Y-25442537D01*
X24114785Y-25287289D01*
X24200809Y-25229809D01*
X24341157Y-25019765D01*
X24390440Y-24772000D01*
X24390440Y-23972000D01*
X24341157Y-23724235D01*
X24280127Y-23632898D01*
X24281327Y-23631698D01*
X24378000Y-23398309D01*
X24378000Y-23157750D01*
X24219250Y-22999000D01*
X23495000Y-22999000D01*
X23495000Y-23019000D01*
X23241000Y-23019000D01*
X23241000Y-22999000D01*
X23221000Y-22999000D01*
X23221000Y-22745000D01*
X23241000Y-22745000D01*
X23241000Y-21995750D01*
X23495000Y-21995750D01*
X23495000Y-22745000D01*
X24219250Y-22745000D01*
X24378000Y-22586250D01*
X24378000Y-22345691D01*
X24281327Y-22112302D01*
X24102699Y-21933673D01*
X23869310Y-21837000D01*
X23653750Y-21837000D01*
X23495000Y-21995750D01*
X23241000Y-21995750D01*
X23082250Y-21837000D01*
X22866690Y-21837000D01*
X22633301Y-21933673D01*
X22454673Y-22112302D01*
X22361947Y-22336163D01*
X22326157Y-22156235D01*
X22185809Y-21946191D01*
X21975765Y-21805843D01*
X21728000Y-21756560D01*
X21713400Y-21756560D01*
X21708750Y-21733181D01*
X21502097Y-21423903D01*
X21424030Y-21371741D01*
X20792261Y-20739972D01*
X20740097Y-20661903D01*
X20487316Y-20493000D01*
X24545914Y-20493000D01*
X24638000Y-20511317D01*
X24730086Y-20493000D01*
X25002819Y-20438750D01*
X25312097Y-20232097D01*
X25364261Y-20154028D01*
X26120031Y-19398259D01*
X26198097Y-19346097D01*
X26404750Y-19036819D01*
X26459000Y-18764086D01*
X26459000Y-18764083D01*
X26473250Y-18692440D01*
X26974000Y-18692440D01*
X27221765Y-18643157D01*
X27431809Y-18502809D01*
X27572157Y-18292765D01*
X27621440Y-18045000D01*
X27621440Y-12645000D01*
X27572157Y-12397235D01*
X27546405Y-12358694D01*
X27642560Y-12454850D01*
X27642560Y-13000000D01*
X27691843Y-13247765D01*
X27832191Y-13457809D01*
X28042235Y-13598157D01*
X28290000Y-13647440D01*
X31290000Y-13647440D01*
X31537765Y-13598157D01*
X31747809Y-13457809D01*
X31888157Y-13247765D01*
X31937440Y-13000000D01*
X31937440Y-12000000D01*
X31888157Y-11752235D01*
X31747809Y-11542191D01*
X31537765Y-11401843D01*
X31290000Y-11352560D01*
X29184850Y-11352560D01*
X28979730Y-11147440D01*
X31290000Y-11147440D01*
X31537765Y-11098157D01*
X31747809Y-10957809D01*
X31879982Y-10760000D01*
X32291199Y-10760000D01*
X35164336Y-13633137D01*
X35164336Y-13633137D01*
G37*
X35164336Y-13633137D02*
X34444569Y-13335000D01*
X33555431Y-13335000D01*
X32733974Y-13675259D01*
X32105259Y-14303974D01*
X31765000Y-15125431D01*
X31765000Y-16014569D01*
X31974603Y-16520595D01*
X30757528Y-17737671D01*
X30694072Y-17780071D01*
X30651672Y-17843527D01*
X30651671Y-17843528D01*
X30526097Y-18031463D01*
X30467112Y-18328000D01*
X30482001Y-18402852D01*
X30482000Y-24323198D01*
X28571974Y-26233225D01*
X28341598Y-26187400D01*
X28046402Y-26187400D01*
X27609275Y-26274350D01*
X27113570Y-26605570D01*
X26782350Y-27101275D01*
X26666041Y-27686000D01*
X26782350Y-28270725D01*
X27113570Y-28766430D01*
X27401826Y-28959037D01*
X26987179Y-29337510D01*
X26739032Y-29866973D01*
X26859531Y-30099000D01*
X28067000Y-30099000D01*
X28067000Y-30079000D01*
X28321000Y-30079000D01*
X28321000Y-30099000D01*
X28341000Y-30099000D01*
X28341000Y-30353000D01*
X28321000Y-30353000D01*
X28321000Y-30373000D01*
X28067000Y-30373000D01*
X28067000Y-30353000D01*
X26859531Y-30353000D01*
X26739032Y-30585027D01*
X26903194Y-30935294D01*
X26884071Y-30948071D01*
X26841672Y-31011525D01*
X26439529Y-31413670D01*
X26376071Y-31456071D01*
X26208096Y-31707464D01*
X26164000Y-31929149D01*
X26164000Y-31929153D01*
X26149112Y-32004000D01*
X26164000Y-32078847D01*
X26164001Y-33961148D01*
X26149112Y-34036000D01*
X26208097Y-34332537D01*
X26281239Y-34442001D01*
X26376072Y-34583929D01*
X26439528Y-34626329D01*
X26741225Y-34928026D01*
X26666041Y-35306000D01*
X26782350Y-35890725D01*
X27113570Y-36386430D01*
X27397281Y-36576000D01*
X27113570Y-36765570D01*
X26782350Y-37261275D01*
X26718595Y-37581793D01*
X25144000Y-36007199D01*
X25144000Y-31316846D01*
X25158888Y-31241999D01*
X25144000Y-31167152D01*
X25144000Y-31167148D01*
X25099904Y-30945463D01*
X24931929Y-30694071D01*
X24868473Y-30651671D01*
X23704331Y-29487530D01*
X23661929Y-29424071D01*
X23410537Y-29256096D01*
X23188852Y-29212000D01*
X23188847Y-29212000D01*
X23114000Y-29197112D01*
X23039153Y-29212000D01*
X22287741Y-29212000D01*
X22363000Y-29030309D01*
X22363000Y-27939750D01*
X22204250Y-27781000D01*
X20955000Y-27781000D01*
X20955000Y-27801000D01*
X20701000Y-27801000D01*
X20701000Y-27781000D01*
X19451750Y-27781000D01*
X19293000Y-27939750D01*
X19293000Y-29030309D01*
X19368259Y-29212000D01*
X19032000Y-29212000D01*
X19032000Y-28823750D01*
X18873250Y-28665000D01*
X18224000Y-28665000D01*
X18224000Y-28685000D01*
X17970000Y-28685000D01*
X17970000Y-28665000D01*
X16954000Y-28665000D01*
X16954000Y-28685000D01*
X16700000Y-28685000D01*
X16700000Y-28665000D01*
X15684000Y-28665000D01*
X15684000Y-28685000D01*
X15430000Y-28685000D01*
X15430000Y-28665000D01*
X14414000Y-28665000D01*
X14414000Y-28685000D01*
X14160000Y-28685000D01*
X14160000Y-28665000D01*
X13510750Y-28665000D01*
X13352000Y-28823750D01*
X13352000Y-29212000D01*
X12774848Y-29212000D01*
X12700000Y-29197112D01*
X12625152Y-29212000D01*
X12625148Y-29212000D01*
X12451605Y-29246520D01*
X12403462Y-29256096D01*
X12217654Y-29380250D01*
X12152071Y-29424071D01*
X12109671Y-29487527D01*
X10437530Y-31159669D01*
X10374071Y-31202071D01*
X10206096Y-31453464D01*
X10162000Y-31675149D01*
X10162000Y-31675153D01*
X10147112Y-31750000D01*
X10162000Y-31824847D01*
X10162000Y-33535560D01*
X9333155Y-33535560D01*
X9112169Y-33204831D01*
X9027837Y-33148482D01*
X7360000Y-31480645D01*
X7360000Y-29888068D01*
X7806537Y-29888068D01*
X8030354Y-30261387D01*
X9011056Y-30658931D01*
X10069239Y-30650916D01*
X11009646Y-30261387D01*
X11233463Y-29888068D01*
X9520000Y-28174605D01*
X7806537Y-29888068D01*
X7360000Y-29888068D01*
X7360000Y-29548429D01*
X7626932Y-29708463D01*
X9340395Y-27995000D01*
X9699605Y-27995000D01*
X11413068Y-29708463D01*
X11786387Y-29484646D01*
X12183931Y-28503944D01*
X12177363Y-27636691D01*
X13352000Y-27636691D01*
X13352000Y-28252250D01*
X13510750Y-28411000D01*
X14160000Y-28411000D01*
X14160000Y-27286750D01*
X14414000Y-27286750D01*
X14414000Y-28411000D01*
X15430000Y-28411000D01*
X15430000Y-27286750D01*
X15684000Y-27286750D01*
X15684000Y-28411000D01*
X16700000Y-28411000D01*
X16700000Y-27286750D01*
X16954000Y-27286750D01*
X16954000Y-28411000D01*
X17970000Y-28411000D01*
X17970000Y-27286750D01*
X18224000Y-27286750D01*
X18224000Y-28411000D01*
X18873250Y-28411000D01*
X19032000Y-28252250D01*
X19032000Y-27636691D01*
X18935327Y-27403302D01*
X18756699Y-27224673D01*
X18523310Y-27128000D01*
X18382750Y-27128000D01*
X18224000Y-27286750D01*
X17970000Y-27286750D01*
X17811250Y-27128000D01*
X17670690Y-27128000D01*
X17462000Y-27214442D01*
X17253310Y-27128000D01*
X17112750Y-27128000D01*
X16954000Y-27286750D01*
X16700000Y-27286750D01*
X16541250Y-27128000D01*
X16400690Y-27128000D01*
X16192000Y-27214442D01*
X15983310Y-27128000D01*
X15842750Y-27128000D01*
X15684000Y-27286750D01*
X15430000Y-27286750D01*
X15271250Y-27128000D01*
X15130690Y-27128000D01*
X14922000Y-27214442D01*
X14713310Y-27128000D01*
X14572750Y-27128000D01*
X14414000Y-27286750D01*
X14160000Y-27286750D01*
X14001250Y-27128000D01*
X13860690Y-27128000D01*
X13627301Y-27224673D01*
X13448673Y-27403302D01*
X13352000Y-27636691D01*
X12177363Y-27636691D01*
X12175916Y-27445761D01*
X11786387Y-26505354D01*
X11413068Y-26281537D01*
X9699605Y-27995000D01*
X9340395Y-27995000D01*
X9326253Y-27980858D01*
X9505858Y-27801253D01*
X9520000Y-27815395D01*
X11233463Y-26101932D01*
X11009646Y-25728613D01*
X10840593Y-25660085D01*
X10881518Y-25598837D01*
X10940000Y-25540355D01*
X10998482Y-25598837D01*
X11054831Y-25683169D01*
X11388918Y-25906399D01*
X11683524Y-25965000D01*
X11683528Y-25965000D01*
X11782999Y-25984786D01*
X11882470Y-25965000D01*
X18032198Y-25965000D01*
X18205671Y-26138473D01*
X18248071Y-26201929D01*
X18499463Y-26369904D01*
X18721148Y-26414000D01*
X18721152Y-26414000D01*
X18795999Y-26428888D01*
X18870846Y-26414000D01*
X19293000Y-26414000D01*
X19293000Y-27368250D01*
X19451750Y-27527000D01*
X20701000Y-27527000D01*
X20701000Y-27507000D01*
X20955000Y-27507000D01*
X20955000Y-27527000D01*
X22204250Y-27527000D01*
X22363000Y-27368250D01*
X22363000Y-26414000D01*
X22785153Y-26414000D01*
X22860000Y-26428888D01*
X22934847Y-26414000D01*
X22934852Y-26414000D01*
X23156537Y-26369904D01*
X23407929Y-26201929D01*
X23450330Y-26138471D01*
X23852475Y-25736327D01*
X23915929Y-25693929D01*
X23958327Y-25630476D01*
X23958329Y-25630474D01*
X24083903Y-25442538D01*
X24083904Y-25442537D01*
X24114785Y-25287289D01*
X24200809Y-25229809D01*
X24341157Y-25019765D01*
X24390440Y-24772000D01*
X24390440Y-23972000D01*
X24341157Y-23724235D01*
X24280127Y-23632898D01*
X24281327Y-23631698D01*
X24378000Y-23398309D01*
X24378000Y-23157750D01*
X24219250Y-22999000D01*
X23495000Y-22999000D01*
X23495000Y-23019000D01*
X23241000Y-23019000D01*
X23241000Y-22999000D01*
X23221000Y-22999000D01*
X23221000Y-22745000D01*
X23241000Y-22745000D01*
X23241000Y-21995750D01*
X23495000Y-21995750D01*
X23495000Y-22745000D01*
X24219250Y-22745000D01*
X24378000Y-22586250D01*
X24378000Y-22345691D01*
X24281327Y-22112302D01*
X24102699Y-21933673D01*
X23869310Y-21837000D01*
X23653750Y-21837000D01*
X23495000Y-21995750D01*
X23241000Y-21995750D01*
X23082250Y-21837000D01*
X22866690Y-21837000D01*
X22633301Y-21933673D01*
X22454673Y-22112302D01*
X22361947Y-22336163D01*
X22326157Y-22156235D01*
X22185809Y-21946191D01*
X21975765Y-21805843D01*
X21728000Y-21756560D01*
X21713400Y-21756560D01*
X21708750Y-21733181D01*
X21502097Y-21423903D01*
X21424030Y-21371741D01*
X20792261Y-20739972D01*
X20740097Y-20661903D01*
X20487316Y-20493000D01*
X24545914Y-20493000D01*
X24638000Y-20511317D01*
X24730086Y-20493000D01*
X25002819Y-20438750D01*
X25312097Y-20232097D01*
X25364261Y-20154028D01*
X26120031Y-19398259D01*
X26198097Y-19346097D01*
X26404750Y-19036819D01*
X26459000Y-18764086D01*
X26459000Y-18764083D01*
X26473250Y-18692440D01*
X26974000Y-18692440D01*
X27221765Y-18643157D01*
X27431809Y-18502809D01*
X27572157Y-18292765D01*
X27621440Y-18045000D01*
X27621440Y-12645000D01*
X27572157Y-12397235D01*
X27546405Y-12358694D01*
X27642560Y-12454850D01*
X27642560Y-13000000D01*
X27691843Y-13247765D01*
X27832191Y-13457809D01*
X28042235Y-13598157D01*
X28290000Y-13647440D01*
X31290000Y-13647440D01*
X31537765Y-13598157D01*
X31747809Y-13457809D01*
X31888157Y-13247765D01*
X31937440Y-13000000D01*
X31937440Y-12000000D01*
X31888157Y-11752235D01*
X31747809Y-11542191D01*
X31537765Y-11401843D01*
X31290000Y-11352560D01*
X29184850Y-11352560D01*
X28979730Y-11147440D01*
X31290000Y-11147440D01*
X31537765Y-11098157D01*
X31747809Y-10957809D01*
X31879982Y-10760000D01*
X32291199Y-10760000D01*
X35164336Y-13633137D01*
G36*
X30861000Y-30099000D02*
X30881000Y-30099000D01*
X30881000Y-30353000D01*
X30861000Y-30353000D01*
X30861000Y-30373000D01*
X30607000Y-30373000D01*
X30607000Y-30353000D01*
X30587000Y-30353000D01*
X30587000Y-30099000D01*
X30607000Y-30099000D01*
X30607000Y-30079000D01*
X30861000Y-30079000D01*
X30861000Y-30099000D01*
X30861000Y-30099000D01*
G37*
X30861000Y-30099000D02*
X30881000Y-30099000D01*
X30881000Y-30353000D01*
X30861000Y-30353000D01*
X30861000Y-30373000D01*
X30607000Y-30373000D01*
X30607000Y-30353000D01*
X30587000Y-30353000D01*
X30587000Y-30099000D01*
X30607000Y-30099000D01*
X30607000Y-30079000D01*
X30861000Y-30079000D01*
X30861000Y-30099000D01*
G36*
X29216000Y-92894560D02*
X29026000Y-92894560D01*
X28778235Y-92943843D01*
X28568191Y-93084191D01*
X28427843Y-93294235D01*
X28378560Y-93542000D01*
X28378560Y-95942000D01*
X28427843Y-96189765D01*
X28568191Y-96399809D01*
X28778235Y-96540157D01*
X29026000Y-96589440D01*
X31426000Y-96589440D01*
X31673765Y-96540157D01*
X31883809Y-96399809D01*
X32024157Y-96189765D01*
X32073440Y-95942000D01*
X32073440Y-94967022D01*
X35141084Y-94967022D01*
X35361853Y-95337743D01*
X35738520Y-95490237D01*
X35361853Y-95646257D01*
X35141084Y-96016978D01*
X36836500Y-97712395D01*
X38531916Y-96016978D01*
X38311147Y-95646257D01*
X37934480Y-95493763D01*
X38311147Y-95337743D01*
X38531916Y-94967022D01*
X36836500Y-93271605D01*
X35141084Y-94967022D01*
X32073440Y-94967022D01*
X32073440Y-93542000D01*
X32024157Y-93294235D01*
X31883809Y-93084191D01*
X31673765Y-92943843D01*
X31426000Y-92894560D01*
X31236000Y-92894560D01*
X31236000Y-92589012D01*
X34197381Y-92589012D01*
X34205787Y-93637247D01*
X34590757Y-94566647D01*
X34961478Y-94787416D01*
X36656895Y-93092000D01*
X34961478Y-91396584D01*
X34590757Y-91617353D01*
X34197381Y-92589012D01*
X31236000Y-92589012D01*
X31236000Y-86127000D01*
X35759984Y-86127000D01*
X35627120Y-86182034D01*
X35026534Y-86782620D01*
X34701500Y-87567322D01*
X34701500Y-88416678D01*
X35026534Y-89201380D01*
X35627120Y-89801966D01*
X36411822Y-90127000D01*
X37261178Y-90127000D01*
X37460558Y-90044414D01*
X37692661Y-90276517D01*
X37692664Y-90276519D01*
X38229243Y-90813098D01*
X37339488Y-90452881D01*
X36291253Y-90461287D01*
X35361853Y-90846257D01*
X35141084Y-91216978D01*
X36836500Y-92912395D01*
X36850642Y-92898252D01*
X37030248Y-93077858D01*
X37016105Y-93092000D01*
X38711522Y-94787416D01*
X39082243Y-94566647D01*
X39122001Y-94468444D01*
X39122000Y-96513336D01*
X39082243Y-96417353D01*
X38711522Y-96196584D01*
X37016105Y-97892000D01*
X38711522Y-99587416D01*
X39082243Y-99366647D01*
X39122000Y-99268445D01*
X39122000Y-99403644D01*
X38472160Y-100053485D01*
X38387832Y-100109831D01*
X38331485Y-100194160D01*
X38331482Y-100194163D01*
X38164602Y-100443918D01*
X38086214Y-100838000D01*
X38106001Y-100937475D01*
X38106001Y-101242155D01*
X38045880Y-101182034D01*
X37261178Y-100857000D01*
X36411822Y-100857000D01*
X35627120Y-101182034D01*
X35026534Y-101782620D01*
X34943948Y-101982000D01*
X34775471Y-101982000D01*
X34676000Y-101962214D01*
X34576529Y-101982000D01*
X34576524Y-101982000D01*
X34281918Y-102040601D01*
X34281916Y-102040602D01*
X34281917Y-102040602D01*
X34032162Y-102207482D01*
X34032160Y-102207484D01*
X33947831Y-102263831D01*
X33891484Y-102348160D01*
X6468161Y-129771484D01*
X6383832Y-129827831D01*
X6327485Y-129912160D01*
X6327482Y-129912163D01*
X6285203Y-129975439D01*
X6160602Y-130161918D01*
X6114429Y-130394047D01*
X6082214Y-130556000D01*
X6102001Y-130655476D01*
X6102000Y-136298529D01*
X6082214Y-136398000D01*
X6102000Y-136497471D01*
X6102000Y-136497475D01*
X6160601Y-136792081D01*
X6383831Y-137126169D01*
X6468162Y-137182517D01*
X7740484Y-138454840D01*
X7796831Y-138539169D01*
X7881160Y-138595516D01*
X7881162Y-138595518D01*
X7995252Y-138671750D01*
X8130918Y-138762399D01*
X8425524Y-138821000D01*
X8425529Y-138821000D01*
X8525000Y-138840786D01*
X8624471Y-138821000D01*
X15574629Y-138821000D01*
X15631735Y-138859157D01*
X15879500Y-138908440D01*
X16379500Y-138908440D01*
X16627265Y-138859157D01*
X16837309Y-138718809D01*
X16879500Y-138655666D01*
X16921691Y-138718809D01*
X17131735Y-138859157D01*
X17379500Y-138908440D01*
X17879500Y-138908440D01*
X18127265Y-138859157D01*
X18166411Y-138833000D01*
X18381592Y-138833000D01*
X18334500Y-138946691D01*
X18334500Y-139039250D01*
X18493250Y-139198000D01*
X19292500Y-139198000D01*
X19292500Y-139176000D01*
X19546500Y-139176000D01*
X19546500Y-139198000D01*
X20345750Y-139198000D01*
X20504500Y-139039250D01*
X20504500Y-138946691D01*
X20457408Y-138833000D01*
X21522658Y-138833000D01*
X21444500Y-139021690D01*
X21444500Y-139237250D01*
X21603250Y-139396000D01*
X22352500Y-139396000D01*
X22352500Y-139376000D01*
X22606500Y-139376000D01*
X22606500Y-139396000D01*
X22626500Y-139396000D01*
X22626500Y-139650000D01*
X22606500Y-139650000D01*
X22606500Y-140374250D01*
X22765250Y-140533000D01*
X23005809Y-140533000D01*
X23239198Y-140436327D01*
X23240398Y-140435127D01*
X23331735Y-140496157D01*
X23579500Y-140545440D01*
X24379500Y-140545440D01*
X24627265Y-140496157D01*
X24837309Y-140355809D01*
X24885959Y-140283000D01*
X25162199Y-140283000D01*
X25213669Y-140334470D01*
X25256071Y-140397929D01*
X25403079Y-140496157D01*
X25507462Y-140565904D01*
X25555605Y-140575480D01*
X25729148Y-140610000D01*
X25729152Y-140610000D01*
X25804000Y-140624888D01*
X25878848Y-140610000D01*
X26131570Y-140610000D01*
X26153466Y-140662862D01*
X26345604Y-140855000D01*
X24385176Y-140855000D01*
X24233999Y-140824929D01*
X24082822Y-140855000D01*
X24082818Y-140855000D01*
X23635073Y-140944062D01*
X23127327Y-141283327D01*
X23041689Y-141411493D01*
X21119495Y-143333688D01*
X20991327Y-143419327D01*
X20652062Y-143927074D01*
X20563000Y-144374819D01*
X20563000Y-144374823D01*
X20532929Y-144526000D01*
X20563000Y-144677178D01*
X20563001Y-147916818D01*
X20532929Y-148068000D01*
X20563001Y-148219182D01*
X20652063Y-148666927D01*
X20991328Y-149174673D01*
X21119493Y-149260310D01*
X27131493Y-155272311D01*
X27131496Y-155272313D01*
X27539138Y-155679955D01*
X27739138Y-156162799D01*
X28029339Y-156453000D01*
X24511818Y-156453000D01*
X7665568Y-139606750D01*
X18334500Y-139606750D01*
X18334500Y-139699309D01*
X18431173Y-139932698D01*
X18609801Y-140111327D01*
X18843190Y-140208000D01*
X19133750Y-140208000D01*
X19292500Y-140049250D01*
X19292500Y-139448000D01*
X19546500Y-139448000D01*
X19546500Y-140049250D01*
X19705250Y-140208000D01*
X19995810Y-140208000D01*
X20229199Y-140111327D01*
X20407827Y-139932698D01*
X20459168Y-139808750D01*
X21444500Y-139808750D01*
X21444500Y-140024310D01*
X21541173Y-140257699D01*
X21719802Y-140436327D01*
X21953191Y-140533000D01*
X22193750Y-140533000D01*
X22352500Y-140374250D01*
X22352500Y-139650000D01*
X21603250Y-139650000D01*
X21444500Y-139808750D01*
X20459168Y-139808750D01*
X20504500Y-139699309D01*
X20504500Y-139606750D01*
X20345750Y-139448000D01*
X19546500Y-139448000D01*
X19292500Y-139448000D01*
X18493250Y-139448000D01*
X18334500Y-139606750D01*
X7665568Y-139606750D01*
X5091000Y-137032183D01*
X5091000Y-129667817D01*
X24388775Y-110370042D01*
X24424887Y-110385000D01*
X25115113Y-110385000D01*
X25752799Y-110120862D01*
X26240862Y-109632799D01*
X26505000Y-108995113D01*
X26505000Y-108304887D01*
X26240862Y-107667201D01*
X25752799Y-107179138D01*
X25115113Y-106915000D01*
X24424887Y-106915000D01*
X23989779Y-107095227D01*
X23938000Y-107084928D01*
X23339072Y-107204062D01*
X23163399Y-107321444D01*
X22831327Y-107543327D01*
X22745688Y-107671495D01*
X2577493Y-127839690D01*
X2449328Y-127925327D01*
X2363691Y-128053492D01*
X2363690Y-128053493D01*
X2110063Y-128433073D01*
X1990929Y-129032000D01*
X2021001Y-129183182D01*
X2021000Y-137516823D01*
X1990929Y-137668000D01*
X2021000Y-137819177D01*
X2021000Y-137819181D01*
X2110062Y-138266926D01*
X2449327Y-138774673D01*
X2577495Y-138860312D01*
X22683690Y-158966508D01*
X22769327Y-159094673D01*
X22897492Y-159180310D01*
X22897493Y-159180311D01*
X23277073Y-159433938D01*
X23876000Y-159553072D01*
X24027182Y-159523000D01*
X30328823Y-159523000D01*
X30480000Y-159553071D01*
X30631177Y-159523000D01*
X30631182Y-159523000D01*
X31078927Y-159433938D01*
X31586673Y-159094673D01*
X31672312Y-158966505D01*
X35776508Y-154862310D01*
X35904673Y-154776673D01*
X36243938Y-154268927D01*
X36333000Y-153821182D01*
X36333000Y-153821178D01*
X36363071Y-153670001D01*
X36333000Y-153518824D01*
X36333000Y-152250704D01*
X36478095Y-152600994D01*
X37149006Y-153271905D01*
X38025594Y-153635000D01*
X38974406Y-153635000D01*
X39850994Y-153271905D01*
X40521905Y-152600994D01*
X40885000Y-151724406D01*
X40885000Y-150775594D01*
X40521905Y-149899006D01*
X39850994Y-149228095D01*
X38974406Y-148865000D01*
X38025594Y-148865000D01*
X37149006Y-149228095D01*
X36478095Y-149899006D01*
X36333000Y-150249296D01*
X36333000Y-127247812D01*
X36363072Y-127096630D01*
X36243938Y-126497703D01*
X36171973Y-126390000D01*
X35904673Y-125989957D01*
X35776505Y-125904318D01*
X34773682Y-124901495D01*
X34688043Y-124773327D01*
X34180297Y-124434062D01*
X33732552Y-124345000D01*
X33732547Y-124345000D01*
X33581370Y-124314929D01*
X33430193Y-124345000D01*
X32298818Y-124345000D01*
X31851073Y-124434062D01*
X31343327Y-124773327D01*
X31004062Y-125281073D01*
X30884928Y-125880000D01*
X31004062Y-126478927D01*
X31343327Y-126986673D01*
X31656054Y-127195631D01*
X31637138Y-127203466D01*
X31430604Y-127410000D01*
X30683470Y-127410000D01*
X30583999Y-127390214D01*
X30484528Y-127410000D01*
X30484524Y-127410000D01*
X30189918Y-127468601D01*
X29855831Y-127691831D01*
X29799482Y-127776163D01*
X28895645Y-128680000D01*
X28389396Y-128680000D01*
X28182862Y-128473466D01*
X28053784Y-128420000D01*
X28182862Y-128366534D01*
X28586534Y-127962862D01*
X28805000Y-127435439D01*
X28805000Y-126864561D01*
X28586534Y-126337138D01*
X28182862Y-125933466D01*
X28163945Y-125925630D01*
X28348507Y-125802310D01*
X30188507Y-123962311D01*
X30316673Y-123876673D01*
X30655938Y-123368927D01*
X30745000Y-122921182D01*
X30745000Y-122921177D01*
X30775071Y-122770000D01*
X30745000Y-122618823D01*
X30745000Y-119007956D01*
X30945000Y-118525113D01*
X30945000Y-117834887D01*
X30680862Y-117197201D01*
X30192799Y-116709138D01*
X29555113Y-116445000D01*
X28864887Y-116445000D01*
X28227201Y-116709138D01*
X27739138Y-117197201D01*
X27475000Y-117834887D01*
X27475000Y-118525113D01*
X27675000Y-119007957D01*
X27675001Y-122134181D01*
X26177690Y-123631493D01*
X25924063Y-124011073D01*
X25804929Y-124610000D01*
X25924063Y-125208927D01*
X26263327Y-125716673D01*
X26576055Y-125925630D01*
X26557138Y-125933466D01*
X26153466Y-126337138D01*
X26131570Y-126390000D01*
X25832847Y-126390000D01*
X25758000Y-126375112D01*
X25683153Y-126390000D01*
X25683148Y-126390000D01*
X25461463Y-126434096D01*
X25210071Y-126602071D01*
X25167669Y-126665530D01*
X25008199Y-126825000D01*
X24885959Y-126825000D01*
X24837309Y-126752191D01*
X24627265Y-126611843D01*
X24379500Y-126562560D01*
X23579500Y-126562560D01*
X23331735Y-126611843D01*
X23240398Y-126672873D01*
X23239198Y-126671673D01*
X23005809Y-126575000D01*
X22765250Y-126575000D01*
X22606500Y-126733750D01*
X22606500Y-127458000D01*
X22626500Y-127458000D01*
X22626500Y-127712000D01*
X22606500Y-127712000D01*
X22606500Y-127732000D01*
X22352500Y-127732000D01*
X22352500Y-127712000D01*
X21603250Y-127712000D01*
X21444500Y-127870750D01*
X21444500Y-128086310D01*
X21477095Y-128165000D01*
X20452437Y-128165000D01*
X20504500Y-128039309D01*
X20504500Y-127946750D01*
X20345750Y-127788000D01*
X19546500Y-127788000D01*
X19546500Y-127810000D01*
X19292500Y-127810000D01*
X19292500Y-127788000D01*
X18493250Y-127788000D01*
X18334500Y-127946750D01*
X18334500Y-128039309D01*
X18381592Y-128153000D01*
X18166411Y-128153000D01*
X18127265Y-128126843D01*
X17879500Y-128077560D01*
X17379500Y-128077560D01*
X17139500Y-128125298D01*
X17139500Y-127286691D01*
X18334500Y-127286691D01*
X18334500Y-127379250D01*
X18493250Y-127538000D01*
X19292500Y-127538000D01*
X19292500Y-126936750D01*
X19546500Y-126936750D01*
X19546500Y-127538000D01*
X20345750Y-127538000D01*
X20504500Y-127379250D01*
X20504500Y-127286691D01*
X20420415Y-127083690D01*
X21444500Y-127083690D01*
X21444500Y-127299250D01*
X21603250Y-127458000D01*
X22352500Y-127458000D01*
X22352500Y-126733750D01*
X22193750Y-126575000D01*
X21953191Y-126575000D01*
X21719802Y-126671673D01*
X21541173Y-126850301D01*
X21444500Y-127083690D01*
X20420415Y-127083690D01*
X20407827Y-127053302D01*
X20229199Y-126874673D01*
X19995810Y-126778000D01*
X19705250Y-126778000D01*
X19546500Y-126936750D01*
X19292500Y-126936750D01*
X19133750Y-126778000D01*
X18843190Y-126778000D01*
X18609801Y-126874673D01*
X18431173Y-127053302D01*
X18334500Y-127286691D01*
X17139500Y-127286691D01*
X17139500Y-126020855D01*
X27884761Y-115275594D01*
X36115000Y-115275594D01*
X36115000Y-116224406D01*
X36478095Y-117100994D01*
X37149006Y-117771905D01*
X38025594Y-118135000D01*
X38974406Y-118135000D01*
X39850994Y-117771905D01*
X40521905Y-117100994D01*
X40885000Y-116224406D01*
X40885000Y-115275594D01*
X40521905Y-114399006D01*
X39850994Y-113728095D01*
X38974406Y-113365000D01*
X38025594Y-113365000D01*
X37149006Y-113728095D01*
X36478095Y-114399006D01*
X36115000Y-115275594D01*
X27884761Y-115275594D01*
X30898356Y-112262000D01*
X38254529Y-112262000D01*
X38354000Y-112281786D01*
X38453471Y-112262000D01*
X38453476Y-112262000D01*
X38748082Y-112203399D01*
X39082169Y-111980169D01*
X39138518Y-111895838D01*
X40775841Y-110258515D01*
X40860169Y-110202169D01*
X40916516Y-110117840D01*
X40916518Y-110117838D01*
X41083398Y-109868083D01*
X41083399Y-109868082D01*
X41142000Y-109573476D01*
X41142000Y-109573471D01*
X41161786Y-109474000D01*
X41142000Y-109374529D01*
X41142000Y-106525471D01*
X41161786Y-106426000D01*
X41142000Y-106326529D01*
X41142000Y-106326524D01*
X41083399Y-106031918D01*
X41033411Y-105957105D01*
X40916518Y-105782162D01*
X40916516Y-105782160D01*
X40860169Y-105697831D01*
X40775840Y-105641484D01*
X40126000Y-104991645D01*
X40126000Y-104977440D01*
X40128334Y-104979774D01*
X40241085Y-104867023D01*
X40461853Y-105237743D01*
X41433512Y-105631119D01*
X42481747Y-105622713D01*
X43411147Y-105237743D01*
X43631916Y-104867022D01*
X41936500Y-103171605D01*
X41922358Y-103185748D01*
X41742752Y-103006142D01*
X41756895Y-102992000D01*
X41742752Y-102977858D01*
X41922358Y-102798252D01*
X41936500Y-102812395D01*
X43631916Y-101116978D01*
X43411147Y-100746257D01*
X42439488Y-100352881D01*
X41391253Y-100361287D01*
X40759309Y-100623047D01*
X40775840Y-100606515D01*
X40860169Y-100550169D01*
X40916516Y-100465840D01*
X40916518Y-100465838D01*
X41083398Y-100216083D01*
X41083399Y-100216082D01*
X41142000Y-99921476D01*
X41142000Y-99921471D01*
X41161786Y-99822000D01*
X41142000Y-99722529D01*
X41142000Y-91386971D01*
X41161786Y-91287500D01*
X41142000Y-91188029D01*
X41142000Y-91188024D01*
X41083399Y-90893418D01*
X41033411Y-90818605D01*
X40916518Y-90643662D01*
X40916516Y-90643660D01*
X40860169Y-90559331D01*
X40775840Y-90502984D01*
X40543758Y-90270902D01*
X41433512Y-90631119D01*
X42481747Y-90622713D01*
X43411147Y-90237743D01*
X43631916Y-89867022D01*
X41936500Y-88171605D01*
X41922358Y-88185748D01*
X41742752Y-88006142D01*
X41756895Y-87992000D01*
X41742752Y-87977858D01*
X41922358Y-87798252D01*
X41936500Y-87812395D01*
X41950642Y-87798252D01*
X42130248Y-87977858D01*
X42116105Y-87992000D01*
X43811522Y-89687416D01*
X44182243Y-89466647D01*
X44290001Y-89200480D01*
X44290001Y-101777503D01*
X44182243Y-101517353D01*
X43811522Y-101296584D01*
X42116105Y-102992000D01*
X43811522Y-104687416D01*
X44182243Y-104466647D01*
X44290001Y-104200480D01*
X44290001Y-164290000D01*
X710000Y-164290000D01*
X710000Y-99767022D01*
X35141084Y-99767022D01*
X35361853Y-100137743D01*
X36333512Y-100531119D01*
X37381747Y-100522713D01*
X38311147Y-100137743D01*
X38531916Y-99767022D01*
X36836500Y-98071605D01*
X35141084Y-99767022D01*
X710000Y-99767022D01*
X710000Y-97389012D01*
X34197381Y-97389012D01*
X34205787Y-98437247D01*
X34590757Y-99366647D01*
X34961478Y-99587416D01*
X36656895Y-97892000D01*
X34961478Y-96196584D01*
X34590757Y-96417353D01*
X34197381Y-97389012D01*
X710000Y-97389012D01*
X710000Y-96039175D01*
X21608430Y-96039175D01*
X21731565Y-96326788D01*
X22413734Y-96586707D01*
X23143443Y-96565786D01*
X23720435Y-96326788D01*
X23843570Y-96039175D01*
X22726000Y-94921605D01*
X21608430Y-96039175D01*
X710000Y-96039175D01*
X710000Y-94429734D01*
X20881293Y-94429734D01*
X20902214Y-95159443D01*
X21141212Y-95736435D01*
X21428825Y-95859570D01*
X22546395Y-94742000D01*
X22905605Y-94742000D01*
X24023175Y-95859570D01*
X24310788Y-95736435D01*
X24570707Y-95054266D01*
X24549786Y-94324557D01*
X24310788Y-93747565D01*
X24023175Y-93624430D01*
X22905605Y-94742000D01*
X22546395Y-94742000D01*
X21428825Y-93624430D01*
X21141212Y-93747565D01*
X20881293Y-94429734D01*
X710000Y-94429734D01*
X710000Y-93444825D01*
X21608430Y-93444825D01*
X22726000Y-94562395D01*
X23843570Y-93444825D01*
X23720435Y-93157212D01*
X23038266Y-92897293D01*
X22308557Y-92918214D01*
X21731565Y-93157212D01*
X21608430Y-93444825D01*
X710000Y-93444825D01*
X710000Y-86127000D01*
X29216001Y-86127000D01*
X29216000Y-92894560D01*
X29216000Y-92894560D01*
G37*
X29216000Y-92894560D02*
X29026000Y-92894560D01*
X28778235Y-92943843D01*
X28568191Y-93084191D01*
X28427843Y-93294235D01*
X28378560Y-93542000D01*
X28378560Y-95942000D01*
X28427843Y-96189765D01*
X28568191Y-96399809D01*
X28778235Y-96540157D01*
X29026000Y-96589440D01*
X31426000Y-96589440D01*
X31673765Y-96540157D01*
X31883809Y-96399809D01*
X32024157Y-96189765D01*
X32073440Y-95942000D01*
X32073440Y-94967022D01*
X35141084Y-94967022D01*
X35361853Y-95337743D01*
X35738520Y-95490237D01*
X35361853Y-95646257D01*
X35141084Y-96016978D01*
X36836500Y-97712395D01*
X38531916Y-96016978D01*
X38311147Y-95646257D01*
X37934480Y-95493763D01*
X38311147Y-95337743D01*
X38531916Y-94967022D01*
X36836500Y-93271605D01*
X35141084Y-94967022D01*
X32073440Y-94967022D01*
X32073440Y-93542000D01*
X32024157Y-93294235D01*
X31883809Y-93084191D01*
X31673765Y-92943843D01*
X31426000Y-92894560D01*
X31236000Y-92894560D01*
X31236000Y-92589012D01*
X34197381Y-92589012D01*
X34205787Y-93637247D01*
X34590757Y-94566647D01*
X34961478Y-94787416D01*
X36656895Y-93092000D01*
X34961478Y-91396584D01*
X34590757Y-91617353D01*
X34197381Y-92589012D01*
X31236000Y-92589012D01*
X31236000Y-86127000D01*
X35759984Y-86127000D01*
X35627120Y-86182034D01*
X35026534Y-86782620D01*
X34701500Y-87567322D01*
X34701500Y-88416678D01*
X35026534Y-89201380D01*
X35627120Y-89801966D01*
X36411822Y-90127000D01*
X37261178Y-90127000D01*
X37460558Y-90044414D01*
X37692661Y-90276517D01*
X37692664Y-90276519D01*
X38229243Y-90813098D01*
X37339488Y-90452881D01*
X36291253Y-90461287D01*
X35361853Y-90846257D01*
X35141084Y-91216978D01*
X36836500Y-92912395D01*
X36850642Y-92898252D01*
X37030248Y-93077858D01*
X37016105Y-93092000D01*
X38711522Y-94787416D01*
X39082243Y-94566647D01*
X39122001Y-94468444D01*
X39122000Y-96513336D01*
X39082243Y-96417353D01*
X38711522Y-96196584D01*
X37016105Y-97892000D01*
X38711522Y-99587416D01*
X39082243Y-99366647D01*
X39122000Y-99268445D01*
X39122000Y-99403644D01*
X38472160Y-100053485D01*
X38387832Y-100109831D01*
X38331485Y-100194160D01*
X38331482Y-100194163D01*
X38164602Y-100443918D01*
X38086214Y-100838000D01*
X38106001Y-100937475D01*
X38106001Y-101242155D01*
X38045880Y-101182034D01*
X37261178Y-100857000D01*
X36411822Y-100857000D01*
X35627120Y-101182034D01*
X35026534Y-101782620D01*
X34943948Y-101982000D01*
X34775471Y-101982000D01*
X34676000Y-101962214D01*
X34576529Y-101982000D01*
X34576524Y-101982000D01*
X34281918Y-102040601D01*
X34281916Y-102040602D01*
X34281917Y-102040602D01*
X34032162Y-102207482D01*
X34032160Y-102207484D01*
X33947831Y-102263831D01*
X33891484Y-102348160D01*
X6468161Y-129771484D01*
X6383832Y-129827831D01*
X6327485Y-129912160D01*
X6327482Y-129912163D01*
X6285203Y-129975439D01*
X6160602Y-130161918D01*
X6114429Y-130394047D01*
X6082214Y-130556000D01*
X6102001Y-130655476D01*
X6102000Y-136298529D01*
X6082214Y-136398000D01*
X6102000Y-136497471D01*
X6102000Y-136497475D01*
X6160601Y-136792081D01*
X6383831Y-137126169D01*
X6468162Y-137182517D01*
X7740484Y-138454840D01*
X7796831Y-138539169D01*
X7881160Y-138595516D01*
X7881162Y-138595518D01*
X7995252Y-138671750D01*
X8130918Y-138762399D01*
X8425524Y-138821000D01*
X8425529Y-138821000D01*
X8525000Y-138840786D01*
X8624471Y-138821000D01*
X15574629Y-138821000D01*
X15631735Y-138859157D01*
X15879500Y-138908440D01*
X16379500Y-138908440D01*
X16627265Y-138859157D01*
X16837309Y-138718809D01*
X16879500Y-138655666D01*
X16921691Y-138718809D01*
X17131735Y-138859157D01*
X17379500Y-138908440D01*
X17879500Y-138908440D01*
X18127265Y-138859157D01*
X18166411Y-138833000D01*
X18381592Y-138833000D01*
X18334500Y-138946691D01*
X18334500Y-139039250D01*
X18493250Y-139198000D01*
X19292500Y-139198000D01*
X19292500Y-139176000D01*
X19546500Y-139176000D01*
X19546500Y-139198000D01*
X20345750Y-139198000D01*
X20504500Y-139039250D01*
X20504500Y-138946691D01*
X20457408Y-138833000D01*
X21522658Y-138833000D01*
X21444500Y-139021690D01*
X21444500Y-139237250D01*
X21603250Y-139396000D01*
X22352500Y-139396000D01*
X22352500Y-139376000D01*
X22606500Y-139376000D01*
X22606500Y-139396000D01*
X22626500Y-139396000D01*
X22626500Y-139650000D01*
X22606500Y-139650000D01*
X22606500Y-140374250D01*
X22765250Y-140533000D01*
X23005809Y-140533000D01*
X23239198Y-140436327D01*
X23240398Y-140435127D01*
X23331735Y-140496157D01*
X23579500Y-140545440D01*
X24379500Y-140545440D01*
X24627265Y-140496157D01*
X24837309Y-140355809D01*
X24885959Y-140283000D01*
X25162199Y-140283000D01*
X25213669Y-140334470D01*
X25256071Y-140397929D01*
X25403079Y-140496157D01*
X25507462Y-140565904D01*
X25555605Y-140575480D01*
X25729148Y-140610000D01*
X25729152Y-140610000D01*
X25804000Y-140624888D01*
X25878848Y-140610000D01*
X26131570Y-140610000D01*
X26153466Y-140662862D01*
X26345604Y-140855000D01*
X24385176Y-140855000D01*
X24233999Y-140824929D01*
X24082822Y-140855000D01*
X24082818Y-140855000D01*
X23635073Y-140944062D01*
X23127327Y-141283327D01*
X23041689Y-141411493D01*
X21119495Y-143333688D01*
X20991327Y-143419327D01*
X20652062Y-143927074D01*
X20563000Y-144374819D01*
X20563000Y-144374823D01*
X20532929Y-144526000D01*
X20563000Y-144677178D01*
X20563001Y-147916818D01*
X20532929Y-148068000D01*
X20563001Y-148219182D01*
X20652063Y-148666927D01*
X20991328Y-149174673D01*
X21119493Y-149260310D01*
X27131493Y-155272311D01*
X27131496Y-155272313D01*
X27539138Y-155679955D01*
X27739138Y-156162799D01*
X28029339Y-156453000D01*
X24511818Y-156453000D01*
X7665568Y-139606750D01*
X18334500Y-139606750D01*
X18334500Y-139699309D01*
X18431173Y-139932698D01*
X18609801Y-140111327D01*
X18843190Y-140208000D01*
X19133750Y-140208000D01*
X19292500Y-140049250D01*
X19292500Y-139448000D01*
X19546500Y-139448000D01*
X19546500Y-140049250D01*
X19705250Y-140208000D01*
X19995810Y-140208000D01*
X20229199Y-140111327D01*
X20407827Y-139932698D01*
X20459168Y-139808750D01*
X21444500Y-139808750D01*
X21444500Y-140024310D01*
X21541173Y-140257699D01*
X21719802Y-140436327D01*
X21953191Y-140533000D01*
X22193750Y-140533000D01*
X22352500Y-140374250D01*
X22352500Y-139650000D01*
X21603250Y-139650000D01*
X21444500Y-139808750D01*
X20459168Y-139808750D01*
X20504500Y-139699309D01*
X20504500Y-139606750D01*
X20345750Y-139448000D01*
X19546500Y-139448000D01*
X19292500Y-139448000D01*
X18493250Y-139448000D01*
X18334500Y-139606750D01*
X7665568Y-139606750D01*
X5091000Y-137032183D01*
X5091000Y-129667817D01*
X24388775Y-110370042D01*
X24424887Y-110385000D01*
X25115113Y-110385000D01*
X25752799Y-110120862D01*
X26240862Y-109632799D01*
X26505000Y-108995113D01*
X26505000Y-108304887D01*
X26240862Y-107667201D01*
X25752799Y-107179138D01*
X25115113Y-106915000D01*
X24424887Y-106915000D01*
X23989779Y-107095227D01*
X23938000Y-107084928D01*
X23339072Y-107204062D01*
X23163399Y-107321444D01*
X22831327Y-107543327D01*
X22745688Y-107671495D01*
X2577493Y-127839690D01*
X2449328Y-127925327D01*
X2363691Y-128053492D01*
X2363690Y-128053493D01*
X2110063Y-128433073D01*
X1990929Y-129032000D01*
X2021001Y-129183182D01*
X2021000Y-137516823D01*
X1990929Y-137668000D01*
X2021000Y-137819177D01*
X2021000Y-137819181D01*
X2110062Y-138266926D01*
X2449327Y-138774673D01*
X2577495Y-138860312D01*
X22683690Y-158966508D01*
X22769327Y-159094673D01*
X22897492Y-159180310D01*
X22897493Y-159180311D01*
X23277073Y-159433938D01*
X23876000Y-159553072D01*
X24027182Y-159523000D01*
X30328823Y-159523000D01*
X30480000Y-159553071D01*
X30631177Y-159523000D01*
X30631182Y-159523000D01*
X31078927Y-159433938D01*
X31586673Y-159094673D01*
X31672312Y-158966505D01*
X35776508Y-154862310D01*
X35904673Y-154776673D01*
X36243938Y-154268927D01*
X36333000Y-153821182D01*
X36333000Y-153821178D01*
X36363071Y-153670001D01*
X36333000Y-153518824D01*
X36333000Y-152250704D01*
X36478095Y-152600994D01*
X37149006Y-153271905D01*
X38025594Y-153635000D01*
X38974406Y-153635000D01*
X39850994Y-153271905D01*
X40521905Y-152600994D01*
X40885000Y-151724406D01*
X40885000Y-150775594D01*
X40521905Y-149899006D01*
X39850994Y-149228095D01*
X38974406Y-148865000D01*
X38025594Y-148865000D01*
X37149006Y-149228095D01*
X36478095Y-149899006D01*
X36333000Y-150249296D01*
X36333000Y-127247812D01*
X36363072Y-127096630D01*
X36243938Y-126497703D01*
X36171973Y-126390000D01*
X35904673Y-125989957D01*
X35776505Y-125904318D01*
X34773682Y-124901495D01*
X34688043Y-124773327D01*
X34180297Y-124434062D01*
X33732552Y-124345000D01*
X33732547Y-124345000D01*
X33581370Y-124314929D01*
X33430193Y-124345000D01*
X32298818Y-124345000D01*
X31851073Y-124434062D01*
X31343327Y-124773327D01*
X31004062Y-125281073D01*
X30884928Y-125880000D01*
X31004062Y-126478927D01*
X31343327Y-126986673D01*
X31656054Y-127195631D01*
X31637138Y-127203466D01*
X31430604Y-127410000D01*
X30683470Y-127410000D01*
X30583999Y-127390214D01*
X30484528Y-127410000D01*
X30484524Y-127410000D01*
X30189918Y-127468601D01*
X29855831Y-127691831D01*
X29799482Y-127776163D01*
X28895645Y-128680000D01*
X28389396Y-128680000D01*
X28182862Y-128473466D01*
X28053784Y-128420000D01*
X28182862Y-128366534D01*
X28586534Y-127962862D01*
X28805000Y-127435439D01*
X28805000Y-126864561D01*
X28586534Y-126337138D01*
X28182862Y-125933466D01*
X28163945Y-125925630D01*
X28348507Y-125802310D01*
X30188507Y-123962311D01*
X30316673Y-123876673D01*
X30655938Y-123368927D01*
X30745000Y-122921182D01*
X30745000Y-122921177D01*
X30775071Y-122770000D01*
X30745000Y-122618823D01*
X30745000Y-119007956D01*
X30945000Y-118525113D01*
X30945000Y-117834887D01*
X30680862Y-117197201D01*
X30192799Y-116709138D01*
X29555113Y-116445000D01*
X28864887Y-116445000D01*
X28227201Y-116709138D01*
X27739138Y-117197201D01*
X27475000Y-117834887D01*
X27475000Y-118525113D01*
X27675000Y-119007957D01*
X27675001Y-122134181D01*
X26177690Y-123631493D01*
X25924063Y-124011073D01*
X25804929Y-124610000D01*
X25924063Y-125208927D01*
X26263327Y-125716673D01*
X26576055Y-125925630D01*
X26557138Y-125933466D01*
X26153466Y-126337138D01*
X26131570Y-126390000D01*
X25832847Y-126390000D01*
X25758000Y-126375112D01*
X25683153Y-126390000D01*
X25683148Y-126390000D01*
X25461463Y-126434096D01*
X25210071Y-126602071D01*
X25167669Y-126665530D01*
X25008199Y-126825000D01*
X24885959Y-126825000D01*
X24837309Y-126752191D01*
X24627265Y-126611843D01*
X24379500Y-126562560D01*
X23579500Y-126562560D01*
X23331735Y-126611843D01*
X23240398Y-126672873D01*
X23239198Y-126671673D01*
X23005809Y-126575000D01*
X22765250Y-126575000D01*
X22606500Y-126733750D01*
X22606500Y-127458000D01*
X22626500Y-127458000D01*
X22626500Y-127712000D01*
X22606500Y-127712000D01*
X22606500Y-127732000D01*
X22352500Y-127732000D01*
X22352500Y-127712000D01*
X21603250Y-127712000D01*
X21444500Y-127870750D01*
X21444500Y-128086310D01*
X21477095Y-128165000D01*
X20452437Y-128165000D01*
X20504500Y-128039309D01*
X20504500Y-127946750D01*
X20345750Y-127788000D01*
X19546500Y-127788000D01*
X19546500Y-127810000D01*
X19292500Y-127810000D01*
X19292500Y-127788000D01*
X18493250Y-127788000D01*
X18334500Y-127946750D01*
X18334500Y-128039309D01*
X18381592Y-128153000D01*
X18166411Y-128153000D01*
X18127265Y-128126843D01*
X17879500Y-128077560D01*
X17379500Y-128077560D01*
X17139500Y-128125298D01*
X17139500Y-127286691D01*
X18334500Y-127286691D01*
X18334500Y-127379250D01*
X18493250Y-127538000D01*
X19292500Y-127538000D01*
X19292500Y-126936750D01*
X19546500Y-126936750D01*
X19546500Y-127538000D01*
X20345750Y-127538000D01*
X20504500Y-127379250D01*
X20504500Y-127286691D01*
X20420415Y-127083690D01*
X21444500Y-127083690D01*
X21444500Y-127299250D01*
X21603250Y-127458000D01*
X22352500Y-127458000D01*
X22352500Y-126733750D01*
X22193750Y-126575000D01*
X21953191Y-126575000D01*
X21719802Y-126671673D01*
X21541173Y-126850301D01*
X21444500Y-127083690D01*
X20420415Y-127083690D01*
X20407827Y-127053302D01*
X20229199Y-126874673D01*
X19995810Y-126778000D01*
X19705250Y-126778000D01*
X19546500Y-126936750D01*
X19292500Y-126936750D01*
X19133750Y-126778000D01*
X18843190Y-126778000D01*
X18609801Y-126874673D01*
X18431173Y-127053302D01*
X18334500Y-127286691D01*
X17139500Y-127286691D01*
X17139500Y-126020855D01*
X27884761Y-115275594D01*
X36115000Y-115275594D01*
X36115000Y-116224406D01*
X36478095Y-117100994D01*
X37149006Y-117771905D01*
X38025594Y-118135000D01*
X38974406Y-118135000D01*
X39850994Y-117771905D01*
X40521905Y-117100994D01*
X40885000Y-116224406D01*
X40885000Y-115275594D01*
X40521905Y-114399006D01*
X39850994Y-113728095D01*
X38974406Y-113365000D01*
X38025594Y-113365000D01*
X37149006Y-113728095D01*
X36478095Y-114399006D01*
X36115000Y-115275594D01*
X27884761Y-115275594D01*
X30898356Y-112262000D01*
X38254529Y-112262000D01*
X38354000Y-112281786D01*
X38453471Y-112262000D01*
X38453476Y-112262000D01*
X38748082Y-112203399D01*
X39082169Y-111980169D01*
X39138518Y-111895838D01*
X40775841Y-110258515D01*
X40860169Y-110202169D01*
X40916516Y-110117840D01*
X40916518Y-110117838D01*
X41083398Y-109868083D01*
X41083399Y-109868082D01*
X41142000Y-109573476D01*
X41142000Y-109573471D01*
X41161786Y-109474000D01*
X41142000Y-109374529D01*
X41142000Y-106525471D01*
X41161786Y-106426000D01*
X41142000Y-106326529D01*
X41142000Y-106326524D01*
X41083399Y-106031918D01*
X41033411Y-105957105D01*
X40916518Y-105782162D01*
X40916516Y-105782160D01*
X40860169Y-105697831D01*
X40775840Y-105641484D01*
X40126000Y-104991645D01*
X40126000Y-104977440D01*
X40128334Y-104979774D01*
X40241085Y-104867023D01*
X40461853Y-105237743D01*
X41433512Y-105631119D01*
X42481747Y-105622713D01*
X43411147Y-105237743D01*
X43631916Y-104867022D01*
X41936500Y-103171605D01*
X41922358Y-103185748D01*
X41742752Y-103006142D01*
X41756895Y-102992000D01*
X41742752Y-102977858D01*
X41922358Y-102798252D01*
X41936500Y-102812395D01*
X43631916Y-101116978D01*
X43411147Y-100746257D01*
X42439488Y-100352881D01*
X41391253Y-100361287D01*
X40759309Y-100623047D01*
X40775840Y-100606515D01*
X40860169Y-100550169D01*
X40916516Y-100465840D01*
X40916518Y-100465838D01*
X41083398Y-100216083D01*
X41083399Y-100216082D01*
X41142000Y-99921476D01*
X41142000Y-99921471D01*
X41161786Y-99822000D01*
X41142000Y-99722529D01*
X41142000Y-91386971D01*
X41161786Y-91287500D01*
X41142000Y-91188029D01*
X41142000Y-91188024D01*
X41083399Y-90893418D01*
X41033411Y-90818605D01*
X40916518Y-90643662D01*
X40916516Y-90643660D01*
X40860169Y-90559331D01*
X40775840Y-90502984D01*
X40543758Y-90270902D01*
X41433512Y-90631119D01*
X42481747Y-90622713D01*
X43411147Y-90237743D01*
X43631916Y-89867022D01*
X41936500Y-88171605D01*
X41922358Y-88185748D01*
X41742752Y-88006142D01*
X41756895Y-87992000D01*
X41742752Y-87977858D01*
X41922358Y-87798252D01*
X41936500Y-87812395D01*
X41950642Y-87798252D01*
X42130248Y-87977858D01*
X42116105Y-87992000D01*
X43811522Y-89687416D01*
X44182243Y-89466647D01*
X44290001Y-89200480D01*
X44290001Y-101777503D01*
X44182243Y-101517353D01*
X43811522Y-101296584D01*
X42116105Y-102992000D01*
X43811522Y-104687416D01*
X44182243Y-104466647D01*
X44290001Y-104200480D01*
X44290001Y-164290000D01*
X710000Y-164290000D01*
X710000Y-99767022D01*
X35141084Y-99767022D01*
X35361853Y-100137743D01*
X36333512Y-100531119D01*
X37381747Y-100522713D01*
X38311147Y-100137743D01*
X38531916Y-99767022D01*
X36836500Y-98071605D01*
X35141084Y-99767022D01*
X710000Y-99767022D01*
X710000Y-97389012D01*
X34197381Y-97389012D01*
X34205787Y-98437247D01*
X34590757Y-99366647D01*
X34961478Y-99587416D01*
X36656895Y-97892000D01*
X34961478Y-96196584D01*
X34590757Y-96417353D01*
X34197381Y-97389012D01*
X710000Y-97389012D01*
X710000Y-96039175D01*
X21608430Y-96039175D01*
X21731565Y-96326788D01*
X22413734Y-96586707D01*
X23143443Y-96565786D01*
X23720435Y-96326788D01*
X23843570Y-96039175D01*
X22726000Y-94921605D01*
X21608430Y-96039175D01*
X710000Y-96039175D01*
X710000Y-94429734D01*
X20881293Y-94429734D01*
X20902214Y-95159443D01*
X21141212Y-95736435D01*
X21428825Y-95859570D01*
X22546395Y-94742000D01*
X22905605Y-94742000D01*
X24023175Y-95859570D01*
X24310788Y-95736435D01*
X24570707Y-95054266D01*
X24549786Y-94324557D01*
X24310788Y-93747565D01*
X24023175Y-93624430D01*
X22905605Y-94742000D01*
X22546395Y-94742000D01*
X21428825Y-93624430D01*
X21141212Y-93747565D01*
X20881293Y-94429734D01*
X710000Y-94429734D01*
X710000Y-93444825D01*
X21608430Y-93444825D01*
X22726000Y-94562395D01*
X23843570Y-93444825D01*
X23720435Y-93157212D01*
X23038266Y-92897293D01*
X22308557Y-92918214D01*
X21731565Y-93157212D01*
X21608430Y-93444825D01*
X710000Y-93444825D01*
X710000Y-86127000D01*
X29216001Y-86127000D01*
X29216000Y-92894560D01*
G36*
X31233466Y-131772862D02*
X31637138Y-132176534D01*
X31750583Y-132223525D01*
X31695995Y-132246136D01*
X31621861Y-132492255D01*
X32450000Y-133320395D01*
X32464142Y-133306252D01*
X32643748Y-133485858D01*
X32629605Y-133500000D01*
X32643748Y-133514143D01*
X32464142Y-133693748D01*
X32450000Y-133679605D01*
X31621861Y-134507745D01*
X31695995Y-134753864D01*
X31754448Y-134774874D01*
X31637138Y-134823466D01*
X31233466Y-135227138D01*
X31015000Y-135754561D01*
X31015000Y-136325439D01*
X31233466Y-136852862D01*
X31637138Y-137256534D01*
X31766216Y-137310000D01*
X31637138Y-137363466D01*
X31430604Y-137570000D01*
X30898355Y-137570000D01*
X29994518Y-136666163D01*
X29938169Y-136581831D01*
X29604082Y-136358601D01*
X29309476Y-136300000D01*
X29309471Y-136300000D01*
X29210000Y-136280214D01*
X29110529Y-136300000D01*
X28389396Y-136300000D01*
X28182862Y-136093466D01*
X28069417Y-136046475D01*
X28124005Y-136023864D01*
X28198139Y-135777745D01*
X27370000Y-134949605D01*
X26541861Y-135777745D01*
X26615995Y-136023864D01*
X26674448Y-136044874D01*
X26557138Y-136093466D01*
X26350604Y-136300000D01*
X24576470Y-136300000D01*
X24476999Y-136280214D01*
X24377528Y-136300000D01*
X24377524Y-136300000D01*
X24082918Y-136358601D01*
X23748831Y-136581831D01*
X23692481Y-136666165D01*
X23572117Y-136786529D01*
X23331735Y-136834343D01*
X23229500Y-136902655D01*
X23127265Y-136834343D01*
X22879500Y-136785060D01*
X22516430Y-136785060D01*
X22479499Y-136777714D01*
X22442568Y-136785060D01*
X22079500Y-136785060D01*
X21939035Y-136813000D01*
X19591301Y-136813000D01*
X19431500Y-136781214D01*
X19271699Y-136813000D01*
X18202330Y-136813000D01*
X18127265Y-136762843D01*
X17879500Y-136713560D01*
X17379500Y-136713560D01*
X17131735Y-136762843D01*
X16921691Y-136903191D01*
X16879500Y-136966334D01*
X16837309Y-136903191D01*
X16627265Y-136762843D01*
X16379500Y-136713560D01*
X16088097Y-136713560D01*
X16318658Y-136483000D01*
X20542188Y-136483000D01*
X20619500Y-136498378D01*
X20696812Y-136483000D01*
X20696816Y-136483000D01*
X20925792Y-136437454D01*
X21185453Y-136263953D01*
X21229249Y-136198408D01*
X21585659Y-135841999D01*
X25139689Y-135841999D01*
X25217001Y-135857377D01*
X25294313Y-135841999D01*
X25294317Y-135841999D01*
X25523293Y-135796453D01*
X25782954Y-135622952D01*
X25826750Y-135557407D01*
X26041160Y-135342997D01*
X26116136Y-135524005D01*
X26362255Y-135598139D01*
X27190395Y-134770000D01*
X27549605Y-134770000D01*
X28377745Y-135598139D01*
X28623864Y-135524005D01*
X28816965Y-134986777D01*
X28789778Y-134416546D01*
X28623864Y-134015995D01*
X28377745Y-133941861D01*
X27549605Y-134770000D01*
X27190395Y-134770000D01*
X27176252Y-134755858D01*
X27355858Y-134576253D01*
X27370000Y-134590395D01*
X28198139Y-133762255D01*
X28124005Y-133516136D01*
X28065552Y-133495126D01*
X28182862Y-133446534D01*
X28346173Y-133283223D01*
X31003035Y-133283223D01*
X31030222Y-133853454D01*
X31196136Y-134254005D01*
X31442255Y-134328139D01*
X32270395Y-133500000D01*
X31442255Y-132671861D01*
X31196136Y-132745995D01*
X31003035Y-133283223D01*
X28346173Y-133283223D01*
X28586534Y-133042862D01*
X28805000Y-132515439D01*
X28805000Y-131944561D01*
X28722339Y-131745000D01*
X31221925Y-131745000D01*
X31233466Y-131772862D01*
X31233466Y-131772862D01*
G37*
X31233466Y-131772862D02*
X31637138Y-132176534D01*
X31750583Y-132223525D01*
X31695995Y-132246136D01*
X31621861Y-132492255D01*
X32450000Y-133320395D01*
X32464142Y-133306252D01*
X32643748Y-133485858D01*
X32629605Y-133500000D01*
X32643748Y-133514143D01*
X32464142Y-133693748D01*
X32450000Y-133679605D01*
X31621861Y-134507745D01*
X31695995Y-134753864D01*
X31754448Y-134774874D01*
X31637138Y-134823466D01*
X31233466Y-135227138D01*
X31015000Y-135754561D01*
X31015000Y-136325439D01*
X31233466Y-136852862D01*
X31637138Y-137256534D01*
X31766216Y-137310000D01*
X31637138Y-137363466D01*
X31430604Y-137570000D01*
X30898355Y-137570000D01*
X29994518Y-136666163D01*
X29938169Y-136581831D01*
X29604082Y-136358601D01*
X29309476Y-136300000D01*
X29309471Y-136300000D01*
X29210000Y-136280214D01*
X29110529Y-136300000D01*
X28389396Y-136300000D01*
X28182862Y-136093466D01*
X28069417Y-136046475D01*
X28124005Y-136023864D01*
X28198139Y-135777745D01*
X27370000Y-134949605D01*
X26541861Y-135777745D01*
X26615995Y-136023864D01*
X26674448Y-136044874D01*
X26557138Y-136093466D01*
X26350604Y-136300000D01*
X24576470Y-136300000D01*
X24476999Y-136280214D01*
X24377528Y-136300000D01*
X24377524Y-136300000D01*
X24082918Y-136358601D01*
X23748831Y-136581831D01*
X23692481Y-136666165D01*
X23572117Y-136786529D01*
X23331735Y-136834343D01*
X23229500Y-136902655D01*
X23127265Y-136834343D01*
X22879500Y-136785060D01*
X22516430Y-136785060D01*
X22479499Y-136777714D01*
X22442568Y-136785060D01*
X22079500Y-136785060D01*
X21939035Y-136813000D01*
X19591301Y-136813000D01*
X19431500Y-136781214D01*
X19271699Y-136813000D01*
X18202330Y-136813000D01*
X18127265Y-136762843D01*
X17879500Y-136713560D01*
X17379500Y-136713560D01*
X17131735Y-136762843D01*
X16921691Y-136903191D01*
X16879500Y-136966334D01*
X16837309Y-136903191D01*
X16627265Y-136762843D01*
X16379500Y-136713560D01*
X16088097Y-136713560D01*
X16318658Y-136483000D01*
X20542188Y-136483000D01*
X20619500Y-136498378D01*
X20696812Y-136483000D01*
X20696816Y-136483000D01*
X20925792Y-136437454D01*
X21185453Y-136263953D01*
X21229249Y-136198408D01*
X21585659Y-135841999D01*
X25139689Y-135841999D01*
X25217001Y-135857377D01*
X25294313Y-135841999D01*
X25294317Y-135841999D01*
X25523293Y-135796453D01*
X25782954Y-135622952D01*
X25826750Y-135557407D01*
X26041160Y-135342997D01*
X26116136Y-135524005D01*
X26362255Y-135598139D01*
X27190395Y-134770000D01*
X27549605Y-134770000D01*
X28377745Y-135598139D01*
X28623864Y-135524005D01*
X28816965Y-134986777D01*
X28789778Y-134416546D01*
X28623864Y-134015995D01*
X28377745Y-133941861D01*
X27549605Y-134770000D01*
X27190395Y-134770000D01*
X27176252Y-134755858D01*
X27355858Y-134576253D01*
X27370000Y-134590395D01*
X28198139Y-133762255D01*
X28124005Y-133516136D01*
X28065552Y-133495126D01*
X28182862Y-133446534D01*
X28346173Y-133283223D01*
X31003035Y-133283223D01*
X31030222Y-133853454D01*
X31196136Y-134254005D01*
X31442255Y-134328139D01*
X32270395Y-133500000D01*
X31442255Y-132671861D01*
X31196136Y-132745995D01*
X31003035Y-133283223D01*
X28346173Y-133283223D01*
X28586534Y-133042862D01*
X28805000Y-132515439D01*
X28805000Y-131944561D01*
X28722339Y-131745000D01*
X31221925Y-131745000D01*
X31233466Y-131772862D01*
G36*
X35026534Y-104201380D02*
X35627120Y-104801966D01*
X36411822Y-105127000D01*
X37261178Y-105127000D01*
X38045880Y-104801966D01*
X38106000Y-104741846D01*
X38106000Y-105310529D01*
X38086214Y-105410000D01*
X38106000Y-105509471D01*
X38106000Y-105509475D01*
X38160890Y-105785426D01*
X37339488Y-105452881D01*
X36291253Y-105461287D01*
X35361853Y-105846257D01*
X35141084Y-106216978D01*
X36836500Y-107912395D01*
X36850642Y-107898252D01*
X37030248Y-108077858D01*
X37016105Y-108092000D01*
X37030248Y-108106142D01*
X36850642Y-108285748D01*
X36836500Y-108271605D01*
X35141084Y-109967022D01*
X35304837Y-110242000D01*
X30579471Y-110242000D01*
X30480000Y-110222214D01*
X30380529Y-110242000D01*
X30380524Y-110242000D01*
X30085918Y-110300601D01*
X30085916Y-110300602D01*
X30085917Y-110300602D01*
X29836162Y-110467482D01*
X29836160Y-110467484D01*
X29751831Y-110523831D01*
X29695484Y-110608160D01*
X15485661Y-124817984D01*
X15401332Y-124874331D01*
X15344985Y-124958660D01*
X15344982Y-124958663D01*
X15178102Y-125208418D01*
X15099714Y-125602500D01*
X15119501Y-125701975D01*
X15119500Y-129274475D01*
X15178101Y-129569081D01*
X15239094Y-129660364D01*
X15281343Y-129872765D01*
X15421691Y-130082809D01*
X15631735Y-130223157D01*
X15879500Y-130272440D01*
X16379500Y-130272440D01*
X16627265Y-130223157D01*
X16837309Y-130082809D01*
X16879500Y-130019666D01*
X16921691Y-130082809D01*
X17131735Y-130223157D01*
X17379500Y-130272440D01*
X17879500Y-130272440D01*
X18127265Y-130223157D01*
X18202330Y-130173000D01*
X19271696Y-130173000D01*
X19332024Y-130185000D01*
X19332028Y-130185000D01*
X19431500Y-130204786D01*
X19530972Y-130185000D01*
X22004959Y-130185000D01*
X22067500Y-130197440D01*
X22227258Y-130197440D01*
X20166362Y-132258337D01*
X20059198Y-132151173D01*
X19825809Y-132054500D01*
X18235250Y-132054500D01*
X18076500Y-132213250D01*
X18076500Y-133362500D01*
X18096500Y-133362500D01*
X18096500Y-133616500D01*
X18076500Y-133616500D01*
X18076500Y-133636500D01*
X17822500Y-133636500D01*
X17822500Y-133616500D01*
X15723250Y-133616500D01*
X15564500Y-133775250D01*
X15564500Y-134188000D01*
X15045200Y-134188000D01*
X14913265Y-134099843D01*
X14665500Y-134050560D01*
X13765500Y-134050560D01*
X13517735Y-134099843D01*
X13307691Y-134240191D01*
X13167343Y-134450235D01*
X13118060Y-134698000D01*
X13118060Y-135198000D01*
X13167343Y-135445765D01*
X13307691Y-135655809D01*
X13318453Y-135663000D01*
X11852940Y-135663000D01*
X11852940Y-134112000D01*
X11803657Y-133864235D01*
X11663309Y-133654191D01*
X11453265Y-133513843D01*
X11205500Y-133464560D01*
X9605500Y-133464560D01*
X9357735Y-133513843D01*
X9147691Y-133654191D01*
X9007343Y-133864235D01*
X8958060Y-134112000D01*
X8958060Y-136801000D01*
X8943356Y-136801000D01*
X8122000Y-135979645D01*
X8122000Y-131497750D01*
X8970500Y-131497750D01*
X8970500Y-132838309D01*
X9067173Y-133071698D01*
X9245801Y-133250327D01*
X9479190Y-133347000D01*
X10119750Y-133347000D01*
X10278500Y-133188250D01*
X10278500Y-131339000D01*
X10532500Y-131339000D01*
X10532500Y-133188250D01*
X10691250Y-133347000D01*
X11331810Y-133347000D01*
X11565199Y-133250327D01*
X11743827Y-133071698D01*
X11840500Y-132838309D01*
X11840500Y-132563190D01*
X15564500Y-132563190D01*
X15564500Y-133203750D01*
X15723250Y-133362500D01*
X17822500Y-133362500D01*
X17822500Y-132213250D01*
X17663750Y-132054500D01*
X16073191Y-132054500D01*
X15839802Y-132151173D01*
X15661173Y-132329801D01*
X15564500Y-132563190D01*
X11840500Y-132563190D01*
X11840500Y-131497750D01*
X11681750Y-131339000D01*
X10532500Y-131339000D01*
X10278500Y-131339000D01*
X9129250Y-131339000D01*
X8970500Y-131497750D01*
X8122000Y-131497750D01*
X8122000Y-130974355D01*
X8970500Y-130125855D01*
X8970500Y-130926250D01*
X9129250Y-131085000D01*
X10278500Y-131085000D01*
X10278500Y-129235750D01*
X10532500Y-129235750D01*
X10532500Y-131085000D01*
X11681750Y-131085000D01*
X11840500Y-130926250D01*
X11840500Y-129585691D01*
X11743827Y-129352302D01*
X11565199Y-129173673D01*
X11331810Y-129077000D01*
X10691250Y-129077000D01*
X10532500Y-129235750D01*
X10278500Y-129235750D01*
X10119750Y-129077000D01*
X10019355Y-129077000D01*
X31507343Y-107589012D01*
X34197381Y-107589012D01*
X34205787Y-108637247D01*
X34590757Y-109566647D01*
X34961478Y-109787416D01*
X36656895Y-108092000D01*
X34961478Y-106396584D01*
X34590757Y-106617353D01*
X34197381Y-107589012D01*
X31507343Y-107589012D01*
X34988002Y-104108354D01*
X35026534Y-104201380D01*
X35026534Y-104201380D01*
G37*
X35026534Y-104201380D02*
X35627120Y-104801966D01*
X36411822Y-105127000D01*
X37261178Y-105127000D01*
X38045880Y-104801966D01*
X38106000Y-104741846D01*
X38106000Y-105310529D01*
X38086214Y-105410000D01*
X38106000Y-105509471D01*
X38106000Y-105509475D01*
X38160890Y-105785426D01*
X37339488Y-105452881D01*
X36291253Y-105461287D01*
X35361853Y-105846257D01*
X35141084Y-106216978D01*
X36836500Y-107912395D01*
X36850642Y-107898252D01*
X37030248Y-108077858D01*
X37016105Y-108092000D01*
X37030248Y-108106142D01*
X36850642Y-108285748D01*
X36836500Y-108271605D01*
X35141084Y-109967022D01*
X35304837Y-110242000D01*
X30579471Y-110242000D01*
X30480000Y-110222214D01*
X30380529Y-110242000D01*
X30380524Y-110242000D01*
X30085918Y-110300601D01*
X30085916Y-110300602D01*
X30085917Y-110300602D01*
X29836162Y-110467482D01*
X29836160Y-110467484D01*
X29751831Y-110523831D01*
X29695484Y-110608160D01*
X15485661Y-124817984D01*
X15401332Y-124874331D01*
X15344985Y-124958660D01*
X15344982Y-124958663D01*
X15178102Y-125208418D01*
X15099714Y-125602500D01*
X15119501Y-125701975D01*
X15119500Y-129274475D01*
X15178101Y-129569081D01*
X15239094Y-129660364D01*
X15281343Y-129872765D01*
X15421691Y-130082809D01*
X15631735Y-130223157D01*
X15879500Y-130272440D01*
X16379500Y-130272440D01*
X16627265Y-130223157D01*
X16837309Y-130082809D01*
X16879500Y-130019666D01*
X16921691Y-130082809D01*
X17131735Y-130223157D01*
X17379500Y-130272440D01*
X17879500Y-130272440D01*
X18127265Y-130223157D01*
X18202330Y-130173000D01*
X19271696Y-130173000D01*
X19332024Y-130185000D01*
X19332028Y-130185000D01*
X19431500Y-130204786D01*
X19530972Y-130185000D01*
X22004959Y-130185000D01*
X22067500Y-130197440D01*
X22227258Y-130197440D01*
X20166362Y-132258337D01*
X20059198Y-132151173D01*
X19825809Y-132054500D01*
X18235250Y-132054500D01*
X18076500Y-132213250D01*
X18076500Y-133362500D01*
X18096500Y-133362500D01*
X18096500Y-133616500D01*
X18076500Y-133616500D01*
X18076500Y-133636500D01*
X17822500Y-133636500D01*
X17822500Y-133616500D01*
X15723250Y-133616500D01*
X15564500Y-133775250D01*
X15564500Y-134188000D01*
X15045200Y-134188000D01*
X14913265Y-134099843D01*
X14665500Y-134050560D01*
X13765500Y-134050560D01*
X13517735Y-134099843D01*
X13307691Y-134240191D01*
X13167343Y-134450235D01*
X13118060Y-134698000D01*
X13118060Y-135198000D01*
X13167343Y-135445765D01*
X13307691Y-135655809D01*
X13318453Y-135663000D01*
X11852940Y-135663000D01*
X11852940Y-134112000D01*
X11803657Y-133864235D01*
X11663309Y-133654191D01*
X11453265Y-133513843D01*
X11205500Y-133464560D01*
X9605500Y-133464560D01*
X9357735Y-133513843D01*
X9147691Y-133654191D01*
X9007343Y-133864235D01*
X8958060Y-134112000D01*
X8958060Y-136801000D01*
X8943356Y-136801000D01*
X8122000Y-135979645D01*
X8122000Y-131497750D01*
X8970500Y-131497750D01*
X8970500Y-132838309D01*
X9067173Y-133071698D01*
X9245801Y-133250327D01*
X9479190Y-133347000D01*
X10119750Y-133347000D01*
X10278500Y-133188250D01*
X10278500Y-131339000D01*
X10532500Y-131339000D01*
X10532500Y-133188250D01*
X10691250Y-133347000D01*
X11331810Y-133347000D01*
X11565199Y-133250327D01*
X11743827Y-133071698D01*
X11840500Y-132838309D01*
X11840500Y-132563190D01*
X15564500Y-132563190D01*
X15564500Y-133203750D01*
X15723250Y-133362500D01*
X17822500Y-133362500D01*
X17822500Y-132213250D01*
X17663750Y-132054500D01*
X16073191Y-132054500D01*
X15839802Y-132151173D01*
X15661173Y-132329801D01*
X15564500Y-132563190D01*
X11840500Y-132563190D01*
X11840500Y-131497750D01*
X11681750Y-131339000D01*
X10532500Y-131339000D01*
X10278500Y-131339000D01*
X9129250Y-131339000D01*
X8970500Y-131497750D01*
X8122000Y-131497750D01*
X8122000Y-130974355D01*
X8970500Y-130125855D01*
X8970500Y-130926250D01*
X9129250Y-131085000D01*
X10278500Y-131085000D01*
X10278500Y-129235750D01*
X10532500Y-129235750D01*
X10532500Y-131085000D01*
X11681750Y-131085000D01*
X11840500Y-130926250D01*
X11840500Y-129585691D01*
X11743827Y-129352302D01*
X11565199Y-129173673D01*
X11331810Y-129077000D01*
X10691250Y-129077000D01*
X10532500Y-129235750D01*
X10278500Y-129235750D01*
X10119750Y-129077000D01*
X10019355Y-129077000D01*
X31507343Y-107589012D01*
X34197381Y-107589012D01*
X34205787Y-108637247D01*
X34590757Y-109566647D01*
X34961478Y-109787416D01*
X36656895Y-108092000D01*
X34961478Y-106396584D01*
X34590757Y-106617353D01*
X34197381Y-107589012D01*
X31507343Y-107589012D01*
X34988002Y-104108354D01*
X35026534Y-104201380D01*
G36*
X22293000Y-37465198D02*
X21613528Y-38144671D01*
X21550072Y-38187071D01*
X21382096Y-38438463D01*
X21338000Y-38660148D01*
X21338000Y-38660153D01*
X21323112Y-38735000D01*
X21338000Y-38809847D01*
X21338000Y-39295153D01*
X21323112Y-39370000D01*
X21338000Y-39444847D01*
X21338000Y-39444851D01*
X21382096Y-39666536D01*
X21550071Y-39917929D01*
X21613530Y-39960331D01*
X22172544Y-40519346D01*
X22091227Y-40600664D01*
X22077084Y-40586521D01*
X22061528Y-40602078D01*
X21881923Y-40422473D01*
X21897479Y-40406916D01*
X21332324Y-39841761D01*
X21107818Y-39841761D01*
X21042368Y-39907210D01*
X20945696Y-40140599D01*
X20945695Y-40393218D01*
X21042368Y-40626607D01*
X21247825Y-40832064D01*
X21472329Y-40832064D01*
X21431393Y-40873000D01*
X20668250Y-40873000D01*
X20664250Y-40869000D01*
X18415000Y-40869000D01*
X18415000Y-40873000D01*
X18161000Y-40873000D01*
X18161000Y-40869000D01*
X15911750Y-40869000D01*
X15907750Y-40873000D01*
X13931000Y-40873000D01*
X13931000Y-40489750D01*
X13772250Y-40331000D01*
X12573000Y-40331000D01*
X12573000Y-40351000D01*
X12319000Y-40351000D01*
X12319000Y-40331000D01*
X12299000Y-40331000D01*
X12299000Y-40077000D01*
X12319000Y-40077000D01*
X12319000Y-40057000D01*
X12573000Y-40057000D01*
X12573000Y-40077000D01*
X13772250Y-40077000D01*
X13931000Y-39918250D01*
X13931000Y-39615691D01*
X15753000Y-39615691D01*
X15753000Y-40456250D01*
X15911750Y-40615000D01*
X18161000Y-40615000D01*
X18161000Y-39265750D01*
X18415000Y-39265750D01*
X18415000Y-40615000D01*
X20664250Y-40615000D01*
X20823000Y-40456250D01*
X20823000Y-39615691D01*
X20726327Y-39382302D01*
X20547699Y-39203673D01*
X20314310Y-39107000D01*
X18573750Y-39107000D01*
X18415000Y-39265750D01*
X18161000Y-39265750D01*
X18002250Y-39107000D01*
X16261690Y-39107000D01*
X16028301Y-39203673D01*
X15849673Y-39382302D01*
X15753000Y-39615691D01*
X13931000Y-39615691D01*
X13931000Y-39483738D01*
X13946429Y-39473429D01*
X13988831Y-39409970D01*
X14962473Y-38436329D01*
X15025929Y-38393929D01*
X15193904Y-38142537D01*
X15238000Y-37920852D01*
X15238000Y-37920848D01*
X15252888Y-37846000D01*
X15238000Y-37771152D01*
X15238000Y-36089440D01*
X16738000Y-36089440D01*
X16985765Y-36040157D01*
X17137047Y-35939073D01*
X17178301Y-35980327D01*
X17411690Y-36077000D01*
X18002250Y-36077000D01*
X18161000Y-35918250D01*
X18161000Y-34569000D01*
X18141000Y-34569000D01*
X18141000Y-34315000D01*
X18161000Y-34315000D01*
X18161000Y-34295000D01*
X18415000Y-34295000D01*
X18415000Y-34315000D01*
X18435000Y-34315000D01*
X18435000Y-34569000D01*
X18415000Y-34569000D01*
X18415000Y-35918250D01*
X18573750Y-36077000D01*
X19164310Y-36077000D01*
X19397699Y-35980327D01*
X19438953Y-35939073D01*
X19590235Y-36040157D01*
X19838000Y-36089440D01*
X21338000Y-36089440D01*
X21585765Y-36040157D01*
X21795809Y-35899809D01*
X21936157Y-35689765D01*
X21985440Y-35442000D01*
X21985440Y-33543000D01*
X22293001Y-33543000D01*
X22293000Y-37465198D01*
X22293000Y-37465198D01*
G37*
X22293000Y-37465198D02*
X21613528Y-38144671D01*
X21550072Y-38187071D01*
X21382096Y-38438463D01*
X21338000Y-38660148D01*
X21338000Y-38660153D01*
X21323112Y-38735000D01*
X21338000Y-38809847D01*
X21338000Y-39295153D01*
X21323112Y-39370000D01*
X21338000Y-39444847D01*
X21338000Y-39444851D01*
X21382096Y-39666536D01*
X21550071Y-39917929D01*
X21613530Y-39960331D01*
X22172544Y-40519346D01*
X22091227Y-40600664D01*
X22077084Y-40586521D01*
X22061528Y-40602078D01*
X21881923Y-40422473D01*
X21897479Y-40406916D01*
X21332324Y-39841761D01*
X21107818Y-39841761D01*
X21042368Y-39907210D01*
X20945696Y-40140599D01*
X20945695Y-40393218D01*
X21042368Y-40626607D01*
X21247825Y-40832064D01*
X21472329Y-40832064D01*
X21431393Y-40873000D01*
X20668250Y-40873000D01*
X20664250Y-40869000D01*
X18415000Y-40869000D01*
X18415000Y-40873000D01*
X18161000Y-40873000D01*
X18161000Y-40869000D01*
X15911750Y-40869000D01*
X15907750Y-40873000D01*
X13931000Y-40873000D01*
X13931000Y-40489750D01*
X13772250Y-40331000D01*
X12573000Y-40331000D01*
X12573000Y-40351000D01*
X12319000Y-40351000D01*
X12319000Y-40331000D01*
X12299000Y-40331000D01*
X12299000Y-40077000D01*
X12319000Y-40077000D01*
X12319000Y-40057000D01*
X12573000Y-40057000D01*
X12573000Y-40077000D01*
X13772250Y-40077000D01*
X13931000Y-39918250D01*
X13931000Y-39615691D01*
X15753000Y-39615691D01*
X15753000Y-40456250D01*
X15911750Y-40615000D01*
X18161000Y-40615000D01*
X18161000Y-39265750D01*
X18415000Y-39265750D01*
X18415000Y-40615000D01*
X20664250Y-40615000D01*
X20823000Y-40456250D01*
X20823000Y-39615691D01*
X20726327Y-39382302D01*
X20547699Y-39203673D01*
X20314310Y-39107000D01*
X18573750Y-39107000D01*
X18415000Y-39265750D01*
X18161000Y-39265750D01*
X18002250Y-39107000D01*
X16261690Y-39107000D01*
X16028301Y-39203673D01*
X15849673Y-39382302D01*
X15753000Y-39615691D01*
X13931000Y-39615691D01*
X13931000Y-39483738D01*
X13946429Y-39473429D01*
X13988831Y-39409970D01*
X14962473Y-38436329D01*
X15025929Y-38393929D01*
X15193904Y-38142537D01*
X15238000Y-37920852D01*
X15238000Y-37920848D01*
X15252888Y-37846000D01*
X15238000Y-37771152D01*
X15238000Y-36089440D01*
X16738000Y-36089440D01*
X16985765Y-36040157D01*
X17137047Y-35939073D01*
X17178301Y-35980327D01*
X17411690Y-36077000D01*
X18002250Y-36077000D01*
X18161000Y-35918250D01*
X18161000Y-34569000D01*
X18141000Y-34569000D01*
X18141000Y-34315000D01*
X18161000Y-34315000D01*
X18161000Y-34295000D01*
X18415000Y-34295000D01*
X18415000Y-34315000D01*
X18435000Y-34315000D01*
X18435000Y-34569000D01*
X18415000Y-34569000D01*
X18415000Y-35918250D01*
X18573750Y-36077000D01*
X19164310Y-36077000D01*
X19397699Y-35980327D01*
X19438953Y-35939073D01*
X19590235Y-36040157D01*
X19838000Y-36089440D01*
X21338000Y-36089440D01*
X21585765Y-36040157D01*
X21795809Y-35899809D01*
X21936157Y-35689765D01*
X21985440Y-35442000D01*
X21985440Y-33543000D01*
X22293001Y-33543000D01*
X22293000Y-37465198D01*
M02*
