G04 #@! TF.FileFunction,Copper,L2,Bot,Signal*
%FSLAX46Y46*%
G04 Gerber Fmt 4.6, Leading zero omitted, Abs format (unit mm)*
G04 Created by KiCad (PCBNEW 4.0.7) date 01/15/18 15:17:09*
%MOMM*%
%LPD*%
G01*
G04 APERTURE LIST*
%ADD10C,0.100000*%
%ADD11C,0.150000*%
%ADD12R,1.700000X1.700000*%
%ADD13O,1.700000X1.700000*%
%ADD14R,2.000000X2.000000*%
%ADD15C,2.000000*%
%ADD16C,2.100000*%
%ADD17C,1.750000*%
%ADD18C,0.600000*%
%ADD19C,0.304800*%
%ADD20C,0.254000*%
G04 APERTURE END LIST*
D10*
D11*
X132080000Y-30480000D02*
X132080000Y-55372000D01*
X129540000Y-27940000D02*
X132080000Y-30480000D01*
X124460000Y-27940000D02*
X129540000Y-27940000D01*
X121920000Y-30480000D02*
X124460000Y-27940000D01*
X121920000Y-30988000D02*
X121920000Y-30480000D01*
X121920000Y-31496000D02*
X121920000Y-30988000D01*
X121920000Y-48260000D02*
X121920000Y-31496000D01*
X121920000Y-55372000D02*
X121920000Y-48260000D01*
X118872000Y-141224000D02*
X118872000Y-20828000D01*
X135128000Y-20828000D02*
X135128000Y-141224000D01*
X118872000Y-20828000D02*
X135128000Y-20828000D01*
X132080000Y-55372000D02*
X121920000Y-55372000D01*
X118872000Y-141224000D02*
X134620000Y-141224000D01*
X135128000Y-141224000D02*
X134620000Y-141224000D01*
D12*
X127762000Y-82042000D03*
D13*
X130302000Y-82042000D03*
D12*
X132080000Y-135890000D03*
D13*
X132080000Y-138430000D03*
X129540000Y-135890000D03*
X129540000Y-138430000D03*
D14*
X126492000Y-86360000D03*
D15*
X126492000Y-131060000D03*
D12*
X126365000Y-135890000D03*
D13*
X126365000Y-138430000D03*
X123825000Y-135890000D03*
X123825000Y-138430000D03*
X121285000Y-135890000D03*
X121285000Y-138430000D03*
D16*
X130728000Y-25858000D03*
D17*
X129468000Y-23368000D03*
X124968000Y-23368000D03*
D16*
X123718000Y-25858000D03*
D18*
X127000000Y-60960000D03*
X120396000Y-41148000D03*
X133096000Y-41148000D03*
X125984000Y-76708000D03*
X133604000Y-80264000D03*
X133604000Y-70104000D03*
X132080000Y-134162800D03*
X124460000Y-67945000D03*
X125730000Y-69215000D03*
X127000000Y-70485000D03*
X129540000Y-62865000D03*
X132334000Y-81534000D03*
X133604000Y-35052000D03*
D19*
X126492000Y-86360000D02*
X126492000Y-83312000D01*
X126492000Y-83312000D02*
X127762000Y-82042000D01*
X127000000Y-60452000D02*
X127000000Y-60960000D01*
X120396000Y-41148000D02*
X120396000Y-40640000D01*
X133096000Y-41148000D02*
X133096000Y-40640000D01*
X125984000Y-76708000D02*
X126492000Y-76708000D01*
X126492000Y-131060000D02*
X126492000Y-129540000D01*
X133604000Y-80264000D02*
X133604000Y-80772000D01*
X133604000Y-70104000D02*
X133604000Y-69088000D01*
X132080000Y-135890000D02*
X132080000Y-134162800D01*
X124460000Y-67945000D02*
X124460000Y-73660000D01*
X122555599Y-137160599D02*
X122975001Y-137580001D01*
X124460000Y-73660000D02*
X120967810Y-77152190D01*
X120967810Y-77152190D02*
X120967810Y-133694096D01*
X120967810Y-133694096D02*
X122555599Y-135281885D01*
X122555599Y-135281885D02*
X122555599Y-137160599D01*
X122975001Y-137580001D02*
X123825000Y-138430000D01*
X126365000Y-135890000D02*
X125095000Y-134620000D01*
X125095000Y-134620000D02*
X122702374Y-134620000D01*
X121539620Y-77389041D02*
X125031810Y-73896851D01*
X122702374Y-134620000D02*
X121539620Y-133457246D01*
X121539620Y-133457246D02*
X121539620Y-77389041D01*
X125031810Y-73896851D02*
X125031810Y-70548190D01*
X125031810Y-70548190D02*
X125730000Y-69850000D01*
X125730000Y-69850000D02*
X125730000Y-69215000D01*
X127000000Y-70485000D02*
X127000000Y-71120000D01*
X127000000Y-71120000D02*
X125603620Y-72516380D01*
X125603620Y-72516380D02*
X125603620Y-74133702D01*
X125603620Y-74133702D02*
X122111430Y-77625891D01*
X122111430Y-77625891D02*
X122111430Y-133220396D01*
X122111430Y-133220396D02*
X122939224Y-134048190D01*
X122939224Y-134048190D02*
X127698190Y-134048190D01*
X127698190Y-134048190D02*
X129540000Y-135890000D01*
X120396000Y-64135000D02*
X120396000Y-63754000D01*
X129540000Y-62865000D02*
X121285000Y-62865000D01*
X121285000Y-62865000D02*
X120650000Y-63500000D01*
X120396000Y-63754000D02*
X120650000Y-63500000D01*
X121285000Y-135890000D02*
X120396000Y-135001000D01*
X120396000Y-64008000D02*
X120396000Y-64135000D01*
X120396000Y-64135000D02*
X120396000Y-135001000D01*
X130302000Y-82042000D02*
X131826000Y-82042000D01*
X131826000Y-82042000D02*
X132334000Y-81534000D01*
X126365000Y-138430000D02*
X127634401Y-139699401D01*
X127634401Y-139699401D02*
X130810599Y-139699401D01*
X130810599Y-139699401D02*
X131230001Y-139279999D01*
X131230001Y-139279999D02*
X132080000Y-138430000D01*
X129540000Y-138430000D02*
X128270000Y-137160000D01*
X128270000Y-137160000D02*
X125095000Y-137160000D01*
X125095000Y-137160000D02*
X123825000Y-135890000D01*
X131572000Y-23368000D02*
X129468000Y-23368000D01*
X133604000Y-35052000D02*
X133604000Y-25400000D01*
X133604000Y-25400000D02*
X131572000Y-23368000D01*
D20*
G36*
X134418000Y-34417000D02*
X134391400Y-34417000D01*
X134391400Y-25400000D01*
X134331463Y-25098675D01*
X134160776Y-24843224D01*
X132128776Y-22811224D01*
X131873325Y-22640537D01*
X131572000Y-22580600D01*
X130776475Y-22580600D01*
X130748862Y-22513771D01*
X130324463Y-22088630D01*
X129769675Y-21858262D01*
X129168960Y-21857738D01*
X128613771Y-22087138D01*
X128188630Y-22511537D01*
X127958262Y-23066325D01*
X127957738Y-23667040D01*
X128187138Y-24222229D01*
X128611537Y-24647370D01*
X129166325Y-24877738D01*
X129324804Y-24877876D01*
X129300360Y-24902278D01*
X129043293Y-25521362D01*
X129042708Y-26191697D01*
X129298694Y-26811229D01*
X129760524Y-27273865D01*
X129540000Y-27230000D01*
X124728635Y-27230000D01*
X125145640Y-26813722D01*
X125402707Y-26194638D01*
X125403292Y-25524303D01*
X125147306Y-24904771D01*
X125115611Y-24873021D01*
X125333458Y-24863579D01*
X125767116Y-24683953D01*
X125850455Y-24430060D01*
X124968000Y-23547605D01*
X124953858Y-23561748D01*
X124774253Y-23382143D01*
X124788395Y-23368000D01*
X125147605Y-23368000D01*
X126030060Y-24250455D01*
X126283953Y-24167116D01*
X126489590Y-23602694D01*
X126463579Y-23002542D01*
X126283953Y-22568884D01*
X126030060Y-22485545D01*
X125147605Y-23368000D01*
X124788395Y-23368000D01*
X123905940Y-22485545D01*
X123652047Y-22568884D01*
X123446410Y-23133306D01*
X123472421Y-23733458D01*
X123652047Y-24167116D01*
X123669842Y-24172957D01*
X123384303Y-24172708D01*
X122764771Y-24428694D01*
X122290360Y-24902278D01*
X122033293Y-25521362D01*
X122032708Y-26191697D01*
X122288694Y-26811229D01*
X122762278Y-27285640D01*
X123381362Y-27542707D01*
X123852791Y-27543118D01*
X121417954Y-29977954D01*
X121264046Y-30208295D01*
X121210000Y-30480000D01*
X121210000Y-55372000D01*
X121264046Y-55643705D01*
X121417954Y-55874046D01*
X121648295Y-56027954D01*
X121920000Y-56082000D01*
X132080000Y-56082000D01*
X132351705Y-56027954D01*
X132582046Y-55874046D01*
X132735954Y-55643705D01*
X132790000Y-55372000D01*
X132790000Y-35687000D01*
X132916755Y-35687000D01*
X133073673Y-35844192D01*
X133417201Y-35986838D01*
X133789167Y-35987162D01*
X134132943Y-35845117D01*
X134291336Y-35687000D01*
X134418000Y-35687000D01*
X134418000Y-140514000D01*
X119582000Y-140514000D01*
X119582000Y-138786892D01*
X119843514Y-138786892D01*
X120089817Y-139311358D01*
X120518076Y-139701645D01*
X120928110Y-139871476D01*
X121158000Y-139750155D01*
X121158000Y-138557000D01*
X119964181Y-138557000D01*
X119843514Y-138786892D01*
X119582000Y-138786892D01*
X119582000Y-63754000D01*
X119608600Y-63754000D01*
X119608600Y-135001000D01*
X119668537Y-135302325D01*
X119839224Y-135557776D01*
X119856800Y-135575352D01*
X119800000Y-135860907D01*
X119800000Y-135919093D01*
X119913039Y-136487378D01*
X120234946Y-136969147D01*
X120518101Y-137158345D01*
X120518076Y-137158355D01*
X120089817Y-137548642D01*
X119843514Y-138073108D01*
X119964181Y-138303000D01*
X121158000Y-138303000D01*
X121158000Y-138283000D01*
X121412000Y-138283000D01*
X121412000Y-138303000D01*
X121432000Y-138303000D01*
X121432000Y-138557000D01*
X121412000Y-138557000D01*
X121412000Y-139750155D01*
X121641890Y-139871476D01*
X122051924Y-139701645D01*
X122480183Y-139311358D01*
X122547298Y-139168447D01*
X122774946Y-139509147D01*
X123256715Y-139831054D01*
X123825000Y-139944093D01*
X124393285Y-139831054D01*
X124875054Y-139509147D01*
X125095000Y-139179974D01*
X125314946Y-139509147D01*
X125796715Y-139831054D01*
X126365000Y-139944093D01*
X126699087Y-139877639D01*
X127077625Y-140256177D01*
X127333076Y-140426864D01*
X127634401Y-140486801D01*
X130810599Y-140486801D01*
X131111924Y-140426864D01*
X131367375Y-140256177D01*
X131745913Y-139877639D01*
X132080000Y-139944093D01*
X132648285Y-139831054D01*
X133130054Y-139509147D01*
X133451961Y-139027378D01*
X133565000Y-138459093D01*
X133565000Y-138400907D01*
X133451961Y-137832622D01*
X133130054Y-137350853D01*
X133128821Y-137350029D01*
X133165317Y-137343162D01*
X133381441Y-137204090D01*
X133526431Y-136991890D01*
X133577440Y-136740000D01*
X133577440Y-135040000D01*
X133533162Y-134804683D01*
X133394090Y-134588559D01*
X133181890Y-134443569D01*
X132991802Y-134405075D01*
X133014838Y-134349599D01*
X133015162Y-133977633D01*
X132873117Y-133633857D01*
X132610327Y-133370608D01*
X132266799Y-133227962D01*
X131894833Y-133227638D01*
X131551057Y-133369683D01*
X131287808Y-133632473D01*
X131145162Y-133976001D01*
X131144838Y-134347967D01*
X131168078Y-134404211D01*
X130994683Y-134436838D01*
X130778559Y-134575910D01*
X130633569Y-134788110D01*
X130619914Y-134855541D01*
X130590054Y-134810853D01*
X130108285Y-134488946D01*
X129540000Y-134375907D01*
X129205913Y-134442361D01*
X128254966Y-133491414D01*
X127999515Y-133320727D01*
X127698190Y-133260790D01*
X123265376Y-133260790D01*
X122898830Y-132894244D01*
X122898830Y-132212532D01*
X125519073Y-132212532D01*
X125617736Y-132479387D01*
X126227461Y-132705908D01*
X126877460Y-132681856D01*
X127366264Y-132479387D01*
X127464927Y-132212532D01*
X126492000Y-131239605D01*
X125519073Y-132212532D01*
X122898830Y-132212532D01*
X122898830Y-130795461D01*
X124846092Y-130795461D01*
X124870144Y-131445460D01*
X125072613Y-131934264D01*
X125339468Y-132032927D01*
X126312395Y-131060000D01*
X126671605Y-131060000D01*
X127644532Y-132032927D01*
X127911387Y-131934264D01*
X128137908Y-131324539D01*
X128113856Y-130674540D01*
X127911387Y-130185736D01*
X127644532Y-130087073D01*
X126671605Y-131060000D01*
X126312395Y-131060000D01*
X125339468Y-130087073D01*
X125072613Y-130185736D01*
X124846092Y-130795461D01*
X122898830Y-130795461D01*
X122898830Y-129907468D01*
X125519073Y-129907468D01*
X126492000Y-130880395D01*
X127464927Y-129907468D01*
X127366264Y-129640613D01*
X126756539Y-129414092D01*
X126106540Y-129438144D01*
X125617736Y-129640613D01*
X125519073Y-129907468D01*
X122898830Y-129907468D01*
X122898830Y-85360000D01*
X124844560Y-85360000D01*
X124844560Y-87360000D01*
X124888838Y-87595317D01*
X125027910Y-87811441D01*
X125240110Y-87956431D01*
X125492000Y-88007440D01*
X127492000Y-88007440D01*
X127727317Y-87963162D01*
X127943441Y-87824090D01*
X128088431Y-87611890D01*
X128139440Y-87360000D01*
X128139440Y-85360000D01*
X128095162Y-85124683D01*
X127956090Y-84908559D01*
X127743890Y-84763569D01*
X127492000Y-84712560D01*
X127279400Y-84712560D01*
X127279400Y-83638152D01*
X127378112Y-83539440D01*
X128612000Y-83539440D01*
X128847317Y-83495162D01*
X129063441Y-83356090D01*
X129208431Y-83143890D01*
X129222086Y-83076459D01*
X129251946Y-83121147D01*
X129733715Y-83443054D01*
X130302000Y-83556093D01*
X130870285Y-83443054D01*
X131352054Y-83121147D01*
X131546993Y-82829400D01*
X131826000Y-82829400D01*
X132127325Y-82769463D01*
X132382776Y-82598776D01*
X132512396Y-82469156D01*
X132519167Y-82469162D01*
X132862943Y-82327117D01*
X133126192Y-82064327D01*
X133268838Y-81720799D01*
X133269162Y-81348833D01*
X133127117Y-81005057D01*
X132864327Y-80741808D01*
X132520799Y-80599162D01*
X132148833Y-80598838D01*
X131805057Y-80740883D01*
X131541808Y-81003673D01*
X131479535Y-81153642D01*
X131352054Y-80962853D01*
X130870285Y-80640946D01*
X130302000Y-80527907D01*
X129733715Y-80640946D01*
X129251946Y-80962853D01*
X129224150Y-81004452D01*
X129215162Y-80956683D01*
X129076090Y-80740559D01*
X128863890Y-80595569D01*
X128612000Y-80544560D01*
X126912000Y-80544560D01*
X126676683Y-80588838D01*
X126460559Y-80727910D01*
X126315569Y-80940110D01*
X126264560Y-81192000D01*
X126264560Y-82425888D01*
X125935224Y-82755224D01*
X125764537Y-83010675D01*
X125704600Y-83312000D01*
X125704600Y-84712560D01*
X125492000Y-84712560D01*
X125256683Y-84756838D01*
X125040559Y-84895910D01*
X124895569Y-85108110D01*
X124844560Y-85360000D01*
X122898830Y-85360000D01*
X122898830Y-77952043D01*
X126160396Y-74690478D01*
X126331083Y-74435027D01*
X126391020Y-74133702D01*
X126391020Y-72842532D01*
X127556776Y-71676776D01*
X127727463Y-71421325D01*
X127787400Y-71120000D01*
X127787400Y-71020111D01*
X127792192Y-71015327D01*
X127934838Y-70671799D01*
X127935162Y-70299833D01*
X127793117Y-69956057D01*
X127530327Y-69692808D01*
X127186799Y-69550162D01*
X126814833Y-69549838D01*
X126559570Y-69655310D01*
X126664838Y-69401799D01*
X126665162Y-69029833D01*
X126523117Y-68686057D01*
X126260327Y-68422808D01*
X125916799Y-68280162D01*
X125544833Y-68279838D01*
X125289570Y-68385310D01*
X125394838Y-68131799D01*
X125395162Y-67759833D01*
X125253117Y-67416057D01*
X124990327Y-67152808D01*
X124646799Y-67010162D01*
X124274833Y-67009838D01*
X123931057Y-67151883D01*
X123667808Y-67414673D01*
X123525162Y-67758201D01*
X123524838Y-68130167D01*
X123666883Y-68473943D01*
X123672600Y-68479670D01*
X123672600Y-73333848D01*
X121183400Y-75823048D01*
X121183400Y-64080152D01*
X121611152Y-63652400D01*
X129004889Y-63652400D01*
X129009673Y-63657192D01*
X129353201Y-63799838D01*
X129725167Y-63800162D01*
X130068943Y-63658117D01*
X130332192Y-63395327D01*
X130474838Y-63051799D01*
X130475162Y-62679833D01*
X130333117Y-62336057D01*
X130070327Y-62072808D01*
X129726799Y-61930162D01*
X129354833Y-61929838D01*
X129011057Y-62071883D01*
X129005330Y-62077600D01*
X121285000Y-62077600D01*
X120983675Y-62137537D01*
X120728224Y-62308224D01*
X119839224Y-63197224D01*
X119668537Y-63452675D01*
X119608600Y-63754000D01*
X119582000Y-63754000D01*
X119582000Y-22305940D01*
X124085545Y-22305940D01*
X124968000Y-23188395D01*
X125850455Y-22305940D01*
X125767116Y-22052047D01*
X125202694Y-21846410D01*
X124602542Y-21872421D01*
X124168884Y-22052047D01*
X124085545Y-22305940D01*
X119582000Y-22305940D01*
X119582000Y-21538000D01*
X134418000Y-21538000D01*
X134418000Y-34417000D01*
X134418000Y-34417000D01*
G37*
X134418000Y-34417000D02*
X134391400Y-34417000D01*
X134391400Y-25400000D01*
X134331463Y-25098675D01*
X134160776Y-24843224D01*
X132128776Y-22811224D01*
X131873325Y-22640537D01*
X131572000Y-22580600D01*
X130776475Y-22580600D01*
X130748862Y-22513771D01*
X130324463Y-22088630D01*
X129769675Y-21858262D01*
X129168960Y-21857738D01*
X128613771Y-22087138D01*
X128188630Y-22511537D01*
X127958262Y-23066325D01*
X127957738Y-23667040D01*
X128187138Y-24222229D01*
X128611537Y-24647370D01*
X129166325Y-24877738D01*
X129324804Y-24877876D01*
X129300360Y-24902278D01*
X129043293Y-25521362D01*
X129042708Y-26191697D01*
X129298694Y-26811229D01*
X129760524Y-27273865D01*
X129540000Y-27230000D01*
X124728635Y-27230000D01*
X125145640Y-26813722D01*
X125402707Y-26194638D01*
X125403292Y-25524303D01*
X125147306Y-24904771D01*
X125115611Y-24873021D01*
X125333458Y-24863579D01*
X125767116Y-24683953D01*
X125850455Y-24430060D01*
X124968000Y-23547605D01*
X124953858Y-23561748D01*
X124774253Y-23382143D01*
X124788395Y-23368000D01*
X125147605Y-23368000D01*
X126030060Y-24250455D01*
X126283953Y-24167116D01*
X126489590Y-23602694D01*
X126463579Y-23002542D01*
X126283953Y-22568884D01*
X126030060Y-22485545D01*
X125147605Y-23368000D01*
X124788395Y-23368000D01*
X123905940Y-22485545D01*
X123652047Y-22568884D01*
X123446410Y-23133306D01*
X123472421Y-23733458D01*
X123652047Y-24167116D01*
X123669842Y-24172957D01*
X123384303Y-24172708D01*
X122764771Y-24428694D01*
X122290360Y-24902278D01*
X122033293Y-25521362D01*
X122032708Y-26191697D01*
X122288694Y-26811229D01*
X122762278Y-27285640D01*
X123381362Y-27542707D01*
X123852791Y-27543118D01*
X121417954Y-29977954D01*
X121264046Y-30208295D01*
X121210000Y-30480000D01*
X121210000Y-55372000D01*
X121264046Y-55643705D01*
X121417954Y-55874046D01*
X121648295Y-56027954D01*
X121920000Y-56082000D01*
X132080000Y-56082000D01*
X132351705Y-56027954D01*
X132582046Y-55874046D01*
X132735954Y-55643705D01*
X132790000Y-55372000D01*
X132790000Y-35687000D01*
X132916755Y-35687000D01*
X133073673Y-35844192D01*
X133417201Y-35986838D01*
X133789167Y-35987162D01*
X134132943Y-35845117D01*
X134291336Y-35687000D01*
X134418000Y-35687000D01*
X134418000Y-140514000D01*
X119582000Y-140514000D01*
X119582000Y-138786892D01*
X119843514Y-138786892D01*
X120089817Y-139311358D01*
X120518076Y-139701645D01*
X120928110Y-139871476D01*
X121158000Y-139750155D01*
X121158000Y-138557000D01*
X119964181Y-138557000D01*
X119843514Y-138786892D01*
X119582000Y-138786892D01*
X119582000Y-63754000D01*
X119608600Y-63754000D01*
X119608600Y-135001000D01*
X119668537Y-135302325D01*
X119839224Y-135557776D01*
X119856800Y-135575352D01*
X119800000Y-135860907D01*
X119800000Y-135919093D01*
X119913039Y-136487378D01*
X120234946Y-136969147D01*
X120518101Y-137158345D01*
X120518076Y-137158355D01*
X120089817Y-137548642D01*
X119843514Y-138073108D01*
X119964181Y-138303000D01*
X121158000Y-138303000D01*
X121158000Y-138283000D01*
X121412000Y-138283000D01*
X121412000Y-138303000D01*
X121432000Y-138303000D01*
X121432000Y-138557000D01*
X121412000Y-138557000D01*
X121412000Y-139750155D01*
X121641890Y-139871476D01*
X122051924Y-139701645D01*
X122480183Y-139311358D01*
X122547298Y-139168447D01*
X122774946Y-139509147D01*
X123256715Y-139831054D01*
X123825000Y-139944093D01*
X124393285Y-139831054D01*
X124875054Y-139509147D01*
X125095000Y-139179974D01*
X125314946Y-139509147D01*
X125796715Y-139831054D01*
X126365000Y-139944093D01*
X126699087Y-139877639D01*
X127077625Y-140256177D01*
X127333076Y-140426864D01*
X127634401Y-140486801D01*
X130810599Y-140486801D01*
X131111924Y-140426864D01*
X131367375Y-140256177D01*
X131745913Y-139877639D01*
X132080000Y-139944093D01*
X132648285Y-139831054D01*
X133130054Y-139509147D01*
X133451961Y-139027378D01*
X133565000Y-138459093D01*
X133565000Y-138400907D01*
X133451961Y-137832622D01*
X133130054Y-137350853D01*
X133128821Y-137350029D01*
X133165317Y-137343162D01*
X133381441Y-137204090D01*
X133526431Y-136991890D01*
X133577440Y-136740000D01*
X133577440Y-135040000D01*
X133533162Y-134804683D01*
X133394090Y-134588559D01*
X133181890Y-134443569D01*
X132991802Y-134405075D01*
X133014838Y-134349599D01*
X133015162Y-133977633D01*
X132873117Y-133633857D01*
X132610327Y-133370608D01*
X132266799Y-133227962D01*
X131894833Y-133227638D01*
X131551057Y-133369683D01*
X131287808Y-133632473D01*
X131145162Y-133976001D01*
X131144838Y-134347967D01*
X131168078Y-134404211D01*
X130994683Y-134436838D01*
X130778559Y-134575910D01*
X130633569Y-134788110D01*
X130619914Y-134855541D01*
X130590054Y-134810853D01*
X130108285Y-134488946D01*
X129540000Y-134375907D01*
X129205913Y-134442361D01*
X128254966Y-133491414D01*
X127999515Y-133320727D01*
X127698190Y-133260790D01*
X123265376Y-133260790D01*
X122898830Y-132894244D01*
X122898830Y-132212532D01*
X125519073Y-132212532D01*
X125617736Y-132479387D01*
X126227461Y-132705908D01*
X126877460Y-132681856D01*
X127366264Y-132479387D01*
X127464927Y-132212532D01*
X126492000Y-131239605D01*
X125519073Y-132212532D01*
X122898830Y-132212532D01*
X122898830Y-130795461D01*
X124846092Y-130795461D01*
X124870144Y-131445460D01*
X125072613Y-131934264D01*
X125339468Y-132032927D01*
X126312395Y-131060000D01*
X126671605Y-131060000D01*
X127644532Y-132032927D01*
X127911387Y-131934264D01*
X128137908Y-131324539D01*
X128113856Y-130674540D01*
X127911387Y-130185736D01*
X127644532Y-130087073D01*
X126671605Y-131060000D01*
X126312395Y-131060000D01*
X125339468Y-130087073D01*
X125072613Y-130185736D01*
X124846092Y-130795461D01*
X122898830Y-130795461D01*
X122898830Y-129907468D01*
X125519073Y-129907468D01*
X126492000Y-130880395D01*
X127464927Y-129907468D01*
X127366264Y-129640613D01*
X126756539Y-129414092D01*
X126106540Y-129438144D01*
X125617736Y-129640613D01*
X125519073Y-129907468D01*
X122898830Y-129907468D01*
X122898830Y-85360000D01*
X124844560Y-85360000D01*
X124844560Y-87360000D01*
X124888838Y-87595317D01*
X125027910Y-87811441D01*
X125240110Y-87956431D01*
X125492000Y-88007440D01*
X127492000Y-88007440D01*
X127727317Y-87963162D01*
X127943441Y-87824090D01*
X128088431Y-87611890D01*
X128139440Y-87360000D01*
X128139440Y-85360000D01*
X128095162Y-85124683D01*
X127956090Y-84908559D01*
X127743890Y-84763569D01*
X127492000Y-84712560D01*
X127279400Y-84712560D01*
X127279400Y-83638152D01*
X127378112Y-83539440D01*
X128612000Y-83539440D01*
X128847317Y-83495162D01*
X129063441Y-83356090D01*
X129208431Y-83143890D01*
X129222086Y-83076459D01*
X129251946Y-83121147D01*
X129733715Y-83443054D01*
X130302000Y-83556093D01*
X130870285Y-83443054D01*
X131352054Y-83121147D01*
X131546993Y-82829400D01*
X131826000Y-82829400D01*
X132127325Y-82769463D01*
X132382776Y-82598776D01*
X132512396Y-82469156D01*
X132519167Y-82469162D01*
X132862943Y-82327117D01*
X133126192Y-82064327D01*
X133268838Y-81720799D01*
X133269162Y-81348833D01*
X133127117Y-81005057D01*
X132864327Y-80741808D01*
X132520799Y-80599162D01*
X132148833Y-80598838D01*
X131805057Y-80740883D01*
X131541808Y-81003673D01*
X131479535Y-81153642D01*
X131352054Y-80962853D01*
X130870285Y-80640946D01*
X130302000Y-80527907D01*
X129733715Y-80640946D01*
X129251946Y-80962853D01*
X129224150Y-81004452D01*
X129215162Y-80956683D01*
X129076090Y-80740559D01*
X128863890Y-80595569D01*
X128612000Y-80544560D01*
X126912000Y-80544560D01*
X126676683Y-80588838D01*
X126460559Y-80727910D01*
X126315569Y-80940110D01*
X126264560Y-81192000D01*
X126264560Y-82425888D01*
X125935224Y-82755224D01*
X125764537Y-83010675D01*
X125704600Y-83312000D01*
X125704600Y-84712560D01*
X125492000Y-84712560D01*
X125256683Y-84756838D01*
X125040559Y-84895910D01*
X124895569Y-85108110D01*
X124844560Y-85360000D01*
X122898830Y-85360000D01*
X122898830Y-77952043D01*
X126160396Y-74690478D01*
X126331083Y-74435027D01*
X126391020Y-74133702D01*
X126391020Y-72842532D01*
X127556776Y-71676776D01*
X127727463Y-71421325D01*
X127787400Y-71120000D01*
X127787400Y-71020111D01*
X127792192Y-71015327D01*
X127934838Y-70671799D01*
X127935162Y-70299833D01*
X127793117Y-69956057D01*
X127530327Y-69692808D01*
X127186799Y-69550162D01*
X126814833Y-69549838D01*
X126559570Y-69655310D01*
X126664838Y-69401799D01*
X126665162Y-69029833D01*
X126523117Y-68686057D01*
X126260327Y-68422808D01*
X125916799Y-68280162D01*
X125544833Y-68279838D01*
X125289570Y-68385310D01*
X125394838Y-68131799D01*
X125395162Y-67759833D01*
X125253117Y-67416057D01*
X124990327Y-67152808D01*
X124646799Y-67010162D01*
X124274833Y-67009838D01*
X123931057Y-67151883D01*
X123667808Y-67414673D01*
X123525162Y-67758201D01*
X123524838Y-68130167D01*
X123666883Y-68473943D01*
X123672600Y-68479670D01*
X123672600Y-73333848D01*
X121183400Y-75823048D01*
X121183400Y-64080152D01*
X121611152Y-63652400D01*
X129004889Y-63652400D01*
X129009673Y-63657192D01*
X129353201Y-63799838D01*
X129725167Y-63800162D01*
X130068943Y-63658117D01*
X130332192Y-63395327D01*
X130474838Y-63051799D01*
X130475162Y-62679833D01*
X130333117Y-62336057D01*
X130070327Y-62072808D01*
X129726799Y-61930162D01*
X129354833Y-61929838D01*
X129011057Y-62071883D01*
X129005330Y-62077600D01*
X121285000Y-62077600D01*
X120983675Y-62137537D01*
X120728224Y-62308224D01*
X119839224Y-63197224D01*
X119668537Y-63452675D01*
X119608600Y-63754000D01*
X119582000Y-63754000D01*
X119582000Y-22305940D01*
X124085545Y-22305940D01*
X124968000Y-23188395D01*
X125850455Y-22305940D01*
X125767116Y-22052047D01*
X125202694Y-21846410D01*
X124602542Y-21872421D01*
X124168884Y-22052047D01*
X124085545Y-22305940D01*
X119582000Y-22305940D01*
X119582000Y-21538000D01*
X134418000Y-21538000D01*
X134418000Y-34417000D01*
M02*
