G04 #@! TF.GenerationSoftware,KiCad,Pcbnew,(5.0.0-rc2-dev-311-g1dd4af297)*
G04 #@! TF.CreationDate,2018-07-03T13:58:45+02:00*
G04 #@! TF.ProjectId,resetUSB,72657365745553422E6B696361645F70,1.0*
G04 #@! TF.SameCoordinates,PX29ff57cPY2521014*
G04 #@! TF.FileFunction,Legend,Top*
G04 #@! TF.FilePolarity,Positive*
%FSLAX46Y46*%
G04 Gerber Fmt 4.6, Leading zero omitted, Abs format (unit mm)*
G04 Created by KiCad (PCBNEW (5.0.0-rc2-dev-311-g1dd4af297)) date 07/03/18 13:58:45*
%MOMM*%
%LPD*%
G01*
G04 APERTURE LIST*
%ADD10C,0.150000*%
%ADD11C,0.250000*%
%ADD12C,0.300000*%
%ADD13C,0.100000*%
%ADD14C,0.200000*%
%ADD15C,0.120000*%
G04 APERTURE END LIST*
D10*
X35452380Y-67119047D02*
X35452380Y-67690476D01*
X35452380Y-67404761D02*
X34452380Y-67404761D01*
X34595238Y-67500000D01*
X34690476Y-67595238D01*
X34738095Y-67690476D01*
X34547619Y-66738095D02*
X34500000Y-66690476D01*
X34452380Y-66595238D01*
X34452380Y-66357142D01*
X34500000Y-66261904D01*
X34547619Y-66214285D01*
X34642857Y-66166666D01*
X34738095Y-66166666D01*
X34880952Y-66214285D01*
X35452380Y-66785714D01*
X35452380Y-66166666D01*
X34452380Y-65880952D02*
X35452380Y-65547619D01*
X34452380Y-65214285D01*
D11*
X36274761Y-16438571D02*
X36417619Y-16486190D01*
X36465238Y-16533809D01*
X36512857Y-16629047D01*
X36512857Y-16771904D01*
X36465238Y-16867142D01*
X36417619Y-16914761D01*
X36322380Y-16962380D01*
X35941428Y-16962380D01*
X35941428Y-15962380D01*
X36274761Y-15962380D01*
X36370000Y-16010000D01*
X36417619Y-16057619D01*
X36465238Y-16152857D01*
X36465238Y-16248095D01*
X36417619Y-16343333D01*
X36370000Y-16390952D01*
X36274761Y-16438571D01*
X35941428Y-16438571D01*
X36941428Y-16438571D02*
X37274761Y-16438571D01*
X37417619Y-16962380D02*
X36941428Y-16962380D01*
X36941428Y-15962380D01*
X37417619Y-15962380D01*
X38417619Y-16962380D02*
X38084285Y-16486190D01*
X37846190Y-16962380D02*
X37846190Y-15962380D01*
X38227142Y-15962380D01*
X38322380Y-16010000D01*
X38370000Y-16057619D01*
X38417619Y-16152857D01*
X38417619Y-16295714D01*
X38370000Y-16390952D01*
X38322380Y-16438571D01*
X38227142Y-16486190D01*
X37846190Y-16486190D01*
X38846190Y-16962380D02*
X38846190Y-15962380D01*
X39322380Y-16962380D02*
X39322380Y-15962380D01*
X39893809Y-16962380D01*
X39893809Y-15962380D01*
X40893809Y-16010000D02*
X40798571Y-15962380D01*
X40655714Y-15962380D01*
X40512857Y-16010000D01*
X40417619Y-16105238D01*
X40370000Y-16200476D01*
X40322380Y-16390952D01*
X40322380Y-16533809D01*
X40370000Y-16724285D01*
X40417619Y-16819523D01*
X40512857Y-16914761D01*
X40655714Y-16962380D01*
X40750952Y-16962380D01*
X40893809Y-16914761D01*
X40941428Y-16867142D01*
X40941428Y-16533809D01*
X40750952Y-16533809D01*
X41370000Y-16438571D02*
X41703333Y-16438571D01*
X41846190Y-16962380D02*
X41370000Y-16962380D01*
X41370000Y-15962380D01*
X41846190Y-15962380D01*
X42846190Y-16962380D02*
X42512857Y-16486190D01*
X42274761Y-16962380D02*
X42274761Y-15962380D01*
X42655714Y-15962380D01*
X42750952Y-16010000D01*
X42798571Y-16057619D01*
X42846190Y-16152857D01*
X42846190Y-16295714D01*
X42798571Y-16390952D01*
X42750952Y-16438571D01*
X42655714Y-16486190D01*
X42274761Y-16486190D01*
D12*
X27571142Y-43628571D02*
X27571142Y-44842857D01*
X27642571Y-44985714D01*
X27714000Y-45057142D01*
X27856857Y-45128571D01*
X28142571Y-45128571D01*
X28285428Y-45057142D01*
X28356857Y-44985714D01*
X28428285Y-44842857D01*
X28428285Y-43628571D01*
X29071142Y-45057142D02*
X29285428Y-45128571D01*
X29642571Y-45128571D01*
X29785428Y-45057142D01*
X29856857Y-44985714D01*
X29928285Y-44842857D01*
X29928285Y-44700000D01*
X29856857Y-44557142D01*
X29785428Y-44485714D01*
X29642571Y-44414285D01*
X29356857Y-44342857D01*
X29214000Y-44271428D01*
X29142571Y-44200000D01*
X29071142Y-44057142D01*
X29071142Y-43914285D01*
X29142571Y-43771428D01*
X29214000Y-43700000D01*
X29356857Y-43628571D01*
X29714000Y-43628571D01*
X29928285Y-43700000D01*
X31071142Y-44342857D02*
X31285428Y-44414285D01*
X31356857Y-44485714D01*
X31428285Y-44628571D01*
X31428285Y-44842857D01*
X31356857Y-44985714D01*
X31285428Y-45057142D01*
X31142571Y-45128571D01*
X30571142Y-45128571D01*
X30571142Y-43628571D01*
X31071142Y-43628571D01*
X31214000Y-43700000D01*
X31285428Y-43771428D01*
X31356857Y-43914285D01*
X31356857Y-44057142D01*
X31285428Y-44200000D01*
X31214000Y-44271428D01*
X31071142Y-44342857D01*
X30571142Y-44342857D01*
X38735142Y-45128571D02*
X38735142Y-43628571D01*
X39306571Y-43628571D01*
X39449428Y-43700000D01*
X39520857Y-43771428D01*
X39592285Y-43914285D01*
X39592285Y-44128571D01*
X39520857Y-44271428D01*
X39449428Y-44342857D01*
X39306571Y-44414285D01*
X38735142Y-44414285D01*
X41092285Y-44985714D02*
X41020857Y-45057142D01*
X40806571Y-45128571D01*
X40663714Y-45128571D01*
X40449428Y-45057142D01*
X40306571Y-44914285D01*
X40235142Y-44771428D01*
X40163714Y-44485714D01*
X40163714Y-44271428D01*
X40235142Y-43985714D01*
X40306571Y-43842857D01*
X40449428Y-43700000D01*
X40663714Y-43628571D01*
X40806571Y-43628571D01*
X41020857Y-43700000D01*
X41092285Y-43771428D01*
D13*
X14622428Y-32953285D02*
X14022428Y-32953285D01*
X14022428Y-32553285D02*
X14022428Y-32439000D01*
X14051000Y-32381857D01*
X14108142Y-32324714D01*
X14222428Y-32296142D01*
X14422428Y-32296142D01*
X14536714Y-32324714D01*
X14593857Y-32381857D01*
X14622428Y-32439000D01*
X14622428Y-32553285D01*
X14593857Y-32610428D01*
X14536714Y-32667571D01*
X14422428Y-32696142D01*
X14222428Y-32696142D01*
X14108142Y-32667571D01*
X14051000Y-32610428D01*
X14022428Y-32553285D01*
X14051000Y-35636142D02*
X14022428Y-35693285D01*
X14022428Y-35779000D01*
X14051000Y-35864714D01*
X14108142Y-35921857D01*
X14165285Y-35950428D01*
X14279571Y-35979000D01*
X14365285Y-35979000D01*
X14479571Y-35950428D01*
X14536714Y-35921857D01*
X14593857Y-35864714D01*
X14622428Y-35779000D01*
X14622428Y-35721857D01*
X14593857Y-35636142D01*
X14565285Y-35607571D01*
X14365285Y-35607571D01*
X14365285Y-35721857D01*
X14622428Y-35350428D02*
X14022428Y-35350428D01*
X14622428Y-35007571D01*
X14022428Y-35007571D01*
X14622428Y-34721857D02*
X14022428Y-34721857D01*
X14022428Y-34579000D01*
X14051000Y-34493285D01*
X14108142Y-34436142D01*
X14165285Y-34407571D01*
X14279571Y-34379000D01*
X14365285Y-34379000D01*
X14479571Y-34407571D01*
X14536714Y-34436142D01*
X14593857Y-34493285D01*
X14622428Y-34579000D01*
X14622428Y-34721857D01*
X14565285Y-38076142D02*
X14593857Y-38104714D01*
X14622428Y-38190428D01*
X14622428Y-38247571D01*
X14593857Y-38333285D01*
X14536714Y-38390428D01*
X14479571Y-38419000D01*
X14365285Y-38447571D01*
X14279571Y-38447571D01*
X14165285Y-38419000D01*
X14108142Y-38390428D01*
X14051000Y-38333285D01*
X14022428Y-38247571D01*
X14022428Y-38190428D01*
X14051000Y-38104714D01*
X14079571Y-38076142D01*
X14622428Y-37533285D02*
X14622428Y-37819000D01*
X14022428Y-37819000D01*
X14622428Y-37333285D02*
X14022428Y-37333285D01*
X14622428Y-36990428D02*
X14279571Y-37247571D01*
X14022428Y-36990428D02*
X14365285Y-37333285D01*
X14022428Y-40874857D02*
X14022428Y-40503428D01*
X14251000Y-40703428D01*
X14251000Y-40617714D01*
X14279571Y-40560571D01*
X14308142Y-40532000D01*
X14365285Y-40503428D01*
X14508142Y-40503428D01*
X14565285Y-40532000D01*
X14593857Y-40560571D01*
X14622428Y-40617714D01*
X14622428Y-40789142D01*
X14593857Y-40846285D01*
X14565285Y-40874857D01*
X14022428Y-40332000D02*
X14622428Y-40132000D01*
X14022428Y-39932000D01*
X14022428Y-39789142D02*
X14022428Y-39417714D01*
X14251000Y-39617714D01*
X14251000Y-39532000D01*
X14279571Y-39474857D01*
X14308142Y-39446285D01*
X14365285Y-39417714D01*
X14508142Y-39417714D01*
X14565285Y-39446285D01*
X14593857Y-39474857D01*
X14622428Y-39532000D01*
X14622428Y-39703428D01*
X14593857Y-39760571D01*
X14565285Y-39789142D01*
D10*
X0Y-165000000D02*
X0Y0D01*
X45000000Y-165000000D02*
X0Y-165000000D01*
X45000000Y0D02*
X45000000Y-165000000D01*
X0Y0D02*
X45000000Y0D01*
D12*
X27571142Y-20260571D02*
X27571142Y-21474857D01*
X27642571Y-21617714D01*
X27714000Y-21689142D01*
X27856857Y-21760571D01*
X28142571Y-21760571D01*
X28285428Y-21689142D01*
X28356857Y-21617714D01*
X28428285Y-21474857D01*
X28428285Y-20260571D01*
X29071142Y-21689142D02*
X29285428Y-21760571D01*
X29642571Y-21760571D01*
X29785428Y-21689142D01*
X29856857Y-21617714D01*
X29928285Y-21474857D01*
X29928285Y-21332000D01*
X29856857Y-21189142D01*
X29785428Y-21117714D01*
X29642571Y-21046285D01*
X29356857Y-20974857D01*
X29214000Y-20903428D01*
X29142571Y-20832000D01*
X29071142Y-20689142D01*
X29071142Y-20546285D01*
X29142571Y-20403428D01*
X29214000Y-20332000D01*
X29356857Y-20260571D01*
X29714000Y-20260571D01*
X29928285Y-20332000D01*
X31071142Y-20974857D02*
X31285428Y-21046285D01*
X31356857Y-21117714D01*
X31428285Y-21260571D01*
X31428285Y-21474857D01*
X31356857Y-21617714D01*
X31285428Y-21689142D01*
X31142571Y-21760571D01*
X30571142Y-21760571D01*
X30571142Y-20260571D01*
X31071142Y-20260571D01*
X31214000Y-20332000D01*
X31285428Y-20403428D01*
X31356857Y-20546285D01*
X31356857Y-20689142D01*
X31285428Y-20832000D01*
X31214000Y-20903428D01*
X31071142Y-20974857D01*
X30571142Y-20974857D01*
X26544000Y-152999714D02*
X26486857Y-153114000D01*
X26486857Y-153285428D01*
X26544000Y-153456857D01*
X26658285Y-153571142D01*
X26772571Y-153628285D01*
X27001142Y-153685428D01*
X27172571Y-153685428D01*
X27401142Y-153628285D01*
X27515428Y-153571142D01*
X27629714Y-153456857D01*
X27686857Y-153285428D01*
X27686857Y-153171142D01*
X27629714Y-152999714D01*
X27572571Y-152942571D01*
X27172571Y-152942571D01*
X27172571Y-153171142D01*
X27686857Y-151856857D02*
X27686857Y-152428285D01*
X26486857Y-152428285D01*
X27115428Y-152599714D02*
X26886857Y-152256857D01*
X26486857Y-151228285D02*
X26486857Y-150999714D01*
X26544000Y-150885428D01*
X26658285Y-150771142D01*
X26886857Y-150714000D01*
X27286857Y-150714000D01*
X27515428Y-150771142D01*
X27629714Y-150885428D01*
X27686857Y-150999714D01*
X27686857Y-151228285D01*
X27629714Y-151342571D01*
X27515428Y-151456857D01*
X27286857Y-151514000D01*
X26886857Y-151514000D01*
X26658285Y-151456857D01*
X26544000Y-151342571D01*
X26486857Y-151228285D01*
X27629714Y-150256857D02*
X27686857Y-150085428D01*
X27686857Y-149799714D01*
X27629714Y-149685428D01*
X27572571Y-149628285D01*
X27458285Y-149571142D01*
X27344000Y-149571142D01*
X27229714Y-149628285D01*
X27172571Y-149685428D01*
X27115428Y-149799714D01*
X27058285Y-150028285D01*
X27001142Y-150142571D01*
X26944000Y-150199714D01*
X26829714Y-150256857D01*
X26715428Y-150256857D01*
X26601142Y-150199714D01*
X26544000Y-150142571D01*
X26486857Y-150028285D01*
X26486857Y-149742571D01*
X26544000Y-149571142D01*
X26029714Y-149799714D02*
X26201142Y-149971142D01*
X27686857Y-149056857D02*
X26486857Y-149056857D01*
X27686857Y-148371142D01*
X26486857Y-148371142D01*
X27686857Y-147799714D02*
X26486857Y-147799714D01*
X27686857Y-147228285D02*
X26486857Y-147228285D01*
X27686857Y-146542571D02*
X27001142Y-147056857D01*
X26486857Y-146542571D02*
X27172571Y-147228285D01*
X29786857Y-151485428D02*
X29786857Y-152056857D01*
X28586857Y-152056857D01*
X29158285Y-151085428D02*
X29158285Y-150685428D01*
X29786857Y-150514000D02*
X29786857Y-151085428D01*
X28586857Y-151085428D01*
X28586857Y-150514000D01*
X28586857Y-150114000D02*
X29786857Y-149828285D01*
X28929714Y-149599714D01*
X29786857Y-149371142D01*
X28586857Y-149085428D01*
X29215428Y-148399714D02*
X29786857Y-148399714D01*
X28586857Y-148799714D02*
X29215428Y-148399714D01*
X28586857Y-147999714D01*
D14*
X44298380Y-78468476D02*
X43298380Y-78468476D01*
X43298380Y-78087523D01*
X43346000Y-77992285D01*
X43393619Y-77944666D01*
X43488857Y-77897047D01*
X43631714Y-77897047D01*
X43726952Y-77944666D01*
X43774571Y-77992285D01*
X43822190Y-78087523D01*
X43822190Y-78468476D01*
X44298380Y-76897047D02*
X43822190Y-77230380D01*
X44298380Y-77468476D02*
X43298380Y-77468476D01*
X43298380Y-77087523D01*
X43346000Y-76992285D01*
X43393619Y-76944666D01*
X43488857Y-76897047D01*
X43631714Y-76897047D01*
X43726952Y-76944666D01*
X43774571Y-76992285D01*
X43822190Y-77087523D01*
X43822190Y-77468476D01*
X44012666Y-76516095D02*
X44012666Y-76039904D01*
X44298380Y-76611333D02*
X43298380Y-76278000D01*
X44298380Y-75944666D01*
X43298380Y-75706571D02*
X44298380Y-75468476D01*
X43584095Y-75278000D01*
X44298380Y-75087523D01*
X43298380Y-74849428D01*
X43822190Y-74278000D02*
X44298380Y-74278000D01*
X43298380Y-74611333D02*
X43822190Y-74278000D01*
X43298380Y-73944666D01*
D12*
X26290000Y-116423714D02*
X26232857Y-116538000D01*
X26232857Y-116709428D01*
X26290000Y-116880857D01*
X26404285Y-116995142D01*
X26518571Y-117052285D01*
X26747142Y-117109428D01*
X26918571Y-117109428D01*
X27147142Y-117052285D01*
X27261428Y-116995142D01*
X27375714Y-116880857D01*
X27432857Y-116709428D01*
X27432857Y-116595142D01*
X27375714Y-116423714D01*
X27318571Y-116366571D01*
X26918571Y-116366571D01*
X26918571Y-116595142D01*
X27432857Y-115280857D02*
X27432857Y-115852285D01*
X26232857Y-115852285D01*
X26861428Y-116023714D02*
X26632857Y-115680857D01*
X26232857Y-114652285D02*
X26232857Y-114423714D01*
X26290000Y-114309428D01*
X26404285Y-114195142D01*
X26632857Y-114138000D01*
X27032857Y-114138000D01*
X27261428Y-114195142D01*
X27375714Y-114309428D01*
X27432857Y-114423714D01*
X27432857Y-114652285D01*
X27375714Y-114766571D01*
X27261428Y-114880857D01*
X27032857Y-114938000D01*
X26632857Y-114938000D01*
X26404285Y-114880857D01*
X26290000Y-114766571D01*
X26232857Y-114652285D01*
X27375714Y-113680857D02*
X27432857Y-113509428D01*
X27432857Y-113223714D01*
X27375714Y-113109428D01*
X27318571Y-113052285D01*
X27204285Y-112995142D01*
X27090000Y-112995142D01*
X26975714Y-113052285D01*
X26918571Y-113109428D01*
X26861428Y-113223714D01*
X26804285Y-113452285D01*
X26747142Y-113566571D01*
X26690000Y-113623714D01*
X26575714Y-113680857D01*
X26461428Y-113680857D01*
X26347142Y-113623714D01*
X26290000Y-113566571D01*
X26232857Y-113452285D01*
X26232857Y-113166571D01*
X26290000Y-112995142D01*
X25775714Y-113223714D02*
X25947142Y-113395142D01*
X27432857Y-112480857D02*
X26232857Y-112480857D01*
X27432857Y-111795142D01*
X26232857Y-111795142D01*
X27432857Y-111223714D02*
X26232857Y-111223714D01*
X27432857Y-110652285D02*
X26232857Y-110652285D01*
X27432857Y-109966571D02*
X26747142Y-110480857D01*
X26232857Y-109966571D02*
X26918571Y-110652285D01*
X29532857Y-116166571D02*
X28332857Y-116166571D01*
X28332857Y-115709428D01*
X28390000Y-115595142D01*
X28447142Y-115538000D01*
X28561428Y-115480857D01*
X28732857Y-115480857D01*
X28847142Y-115538000D01*
X28904285Y-115595142D01*
X28961428Y-115709428D01*
X28961428Y-116166571D01*
X29532857Y-114280857D02*
X28961428Y-114680857D01*
X29532857Y-114966571D02*
X28332857Y-114966571D01*
X28332857Y-114509428D01*
X28390000Y-114395142D01*
X28447142Y-114338000D01*
X28561428Y-114280857D01*
X28732857Y-114280857D01*
X28847142Y-114338000D01*
X28904285Y-114395142D01*
X28961428Y-114509428D01*
X28961428Y-114966571D01*
X29190000Y-113823714D02*
X29190000Y-113252285D01*
X29532857Y-113938000D02*
X28332857Y-113538000D01*
X29532857Y-113138000D01*
X28332857Y-112852285D02*
X29532857Y-112566571D01*
X28675714Y-112338000D01*
X29532857Y-112109428D01*
X28332857Y-111823714D01*
X28961428Y-111138000D02*
X29532857Y-111138000D01*
X28332857Y-111538000D02*
X28961428Y-111138000D01*
X28332857Y-110738000D01*
D10*
X14803380Y-59547047D02*
X14803380Y-60118476D01*
X14803380Y-59832761D02*
X13803380Y-59832761D01*
X13946238Y-59928000D01*
X14041476Y-60023238D01*
X14089095Y-60118476D01*
X13898619Y-59166095D02*
X13851000Y-59118476D01*
X13803380Y-59023238D01*
X13803380Y-58785142D01*
X13851000Y-58689904D01*
X13898619Y-58642285D01*
X13993857Y-58594666D01*
X14089095Y-58594666D01*
X14231952Y-58642285D01*
X14803380Y-59213714D01*
X14803380Y-58594666D01*
X13803380Y-58308952D02*
X14803380Y-57975619D01*
X13803380Y-57642285D01*
D15*
X37572904Y-53366666D02*
X37191952Y-53633333D01*
X37572904Y-53823809D02*
X36772904Y-53823809D01*
X36772904Y-53519047D01*
X36811000Y-53442857D01*
X36849095Y-53404761D01*
X36925285Y-53366666D01*
X37039571Y-53366666D01*
X37115761Y-53404761D01*
X37153857Y-53442857D01*
X37191952Y-53519047D01*
X37191952Y-53823809D01*
X36772904Y-53100000D02*
X36772904Y-52566666D01*
X37572904Y-53100000D01*
X37572904Y-52566666D01*
X36772904Y-52261904D02*
X37420523Y-52261904D01*
X37496714Y-52223809D01*
X37534809Y-52185714D01*
X37572904Y-52109523D01*
X37572904Y-51957142D01*
X37534809Y-51880952D01*
X37496714Y-51842857D01*
X37420523Y-51804761D01*
X36772904Y-51804761D01*
X36772904Y-51538095D02*
X36772904Y-51080952D01*
X37572904Y-51309523D02*
X36772904Y-51309523D01*
X37572904Y-50814285D02*
X36772904Y-50814285D01*
X37572904Y-50357142D01*
X36772904Y-50357142D01*
X37572904Y-49976190D02*
X36772904Y-49976190D01*
X37572904Y-49595238D02*
X36772904Y-49595238D01*
X37572904Y-49138095D02*
X37115761Y-49480952D01*
X36772904Y-49138095D02*
X37230047Y-49595238D01*
X37572904Y-56609523D02*
X36772904Y-56609523D01*
X36772904Y-56304761D01*
X36811000Y-56228571D01*
X36849095Y-56190476D01*
X36925285Y-56152380D01*
X37039571Y-56152380D01*
X37115761Y-56190476D01*
X37153857Y-56228571D01*
X37191952Y-56304761D01*
X37191952Y-56609523D01*
X37496714Y-55352380D02*
X37534809Y-55390476D01*
X37572904Y-55504761D01*
X37572904Y-55580952D01*
X37534809Y-55695238D01*
X37458619Y-55771428D01*
X37382428Y-55809523D01*
X37230047Y-55847619D01*
X37115761Y-55847619D01*
X36963380Y-55809523D01*
X36887190Y-55771428D01*
X36811000Y-55695238D01*
X36772904Y-55580952D01*
X36772904Y-55504761D01*
X36811000Y-55390476D01*
X36849095Y-55352380D01*
X37572904Y-60066666D02*
X36772904Y-60066666D01*
X36772904Y-59761904D01*
X36811000Y-59685714D01*
X36849095Y-59647619D01*
X36925285Y-59609523D01*
X37039571Y-59609523D01*
X37115761Y-59647619D01*
X37153857Y-59685714D01*
X37191952Y-59761904D01*
X37191952Y-60066666D01*
X36772904Y-59342857D02*
X37572904Y-59152380D01*
X37001476Y-59000000D01*
X37572904Y-58847619D01*
X36772904Y-58657142D01*
X37572904Y-57895238D02*
X37191952Y-58161904D01*
X37572904Y-58352380D02*
X36772904Y-58352380D01*
X36772904Y-58047619D01*
X36811000Y-57971428D01*
X36849095Y-57933333D01*
X36925285Y-57895238D01*
X37039571Y-57895238D01*
X37115761Y-57933333D01*
X37153857Y-57971428D01*
X37191952Y-58047619D01*
X37191952Y-58352380D01*
D12*
X38735142Y-21760571D02*
X38735142Y-20260571D01*
X39306571Y-20260571D01*
X39449428Y-20332000D01*
X39520857Y-20403428D01*
X39592285Y-20546285D01*
X39592285Y-20760571D01*
X39520857Y-20903428D01*
X39449428Y-20974857D01*
X39306571Y-21046285D01*
X38735142Y-21046285D01*
X41092285Y-21617714D02*
X41020857Y-21689142D01*
X40806571Y-21760571D01*
X40663714Y-21760571D01*
X40449428Y-21689142D01*
X40306571Y-21546285D01*
X40235142Y-21403428D01*
X40163714Y-21117714D01*
X40163714Y-20903428D01*
X40235142Y-20617714D01*
X40306571Y-20474857D01*
X40449428Y-20332000D01*
X40663714Y-20260571D01*
X40806571Y-20260571D01*
X41020857Y-20332000D01*
X41092285Y-20403428D01*
D10*
X19426000Y-60984000D02*
X2926000Y-60984000D01*
X2926000Y-60984000D02*
X2926000Y-63984000D01*
X2926000Y-63984000D02*
X19426000Y-63984000D01*
X19426000Y-63984000D02*
X19426000Y-60984000D01*
D15*
X16084000Y-59936000D02*
X16084000Y-58936000D01*
X17444000Y-58936000D02*
X17444000Y-59936000D01*
X34566000Y-94742000D02*
G75*
G03X34566000Y-94742000I-8090000J0D01*
G01*
X26476000Y-102793000D02*
X26476000Y-86691000D01*
X26436000Y-102792000D02*
X26436000Y-86692000D01*
X26396000Y-102792000D02*
X26396000Y-86692000D01*
X26356000Y-102792000D02*
X26356000Y-86692000D01*
X26316000Y-102791000D02*
X26316000Y-86693000D01*
X26276000Y-102790000D02*
X26276000Y-86694000D01*
X26236000Y-102789000D02*
X26236000Y-86695000D01*
X26196000Y-102788000D02*
X26196000Y-86696000D01*
X26156000Y-102786000D02*
X26156000Y-86698000D01*
X26116000Y-102784000D02*
X26116000Y-86700000D01*
X26076000Y-102783000D02*
X26076000Y-86701000D01*
X26036000Y-102781000D02*
X26036000Y-86703000D01*
X25996000Y-102778000D02*
X25996000Y-86706000D01*
X25956000Y-102776000D02*
X25956000Y-86708000D01*
X25916000Y-102773000D02*
X25916000Y-86711000D01*
X25876000Y-102770000D02*
X25876000Y-86714000D01*
X25836000Y-102767000D02*
X25836000Y-86717000D01*
X25796000Y-102764000D02*
X25796000Y-86720000D01*
X25755000Y-102760000D02*
X25755000Y-86724000D01*
X25715000Y-102757000D02*
X25715000Y-86727000D01*
X25675000Y-102753000D02*
X25675000Y-86731000D01*
X25635000Y-102749000D02*
X25635000Y-86735000D01*
X25595000Y-102744000D02*
X25595000Y-86740000D01*
X25555000Y-102740000D02*
X25555000Y-86744000D01*
X25515000Y-102735000D02*
X25515000Y-86749000D01*
X25475000Y-102730000D02*
X25475000Y-86754000D01*
X25435000Y-102725000D02*
X25435000Y-86759000D01*
X25395000Y-102720000D02*
X25395000Y-86764000D01*
X25355000Y-102715000D02*
X25355000Y-86769000D01*
X25315000Y-102709000D02*
X25315000Y-86775000D01*
X25275000Y-102703000D02*
X25275000Y-86781000D01*
X25235000Y-102697000D02*
X25235000Y-86787000D01*
X25195000Y-102691000D02*
X25195000Y-86793000D01*
X25155000Y-102684000D02*
X25155000Y-86800000D01*
X25115000Y-102677000D02*
X25115000Y-86807000D01*
X25075000Y-102670000D02*
X25075000Y-86814000D01*
X25035000Y-102663000D02*
X25035000Y-86821000D01*
X24995000Y-102656000D02*
X24995000Y-86828000D01*
X24955000Y-102648000D02*
X24955000Y-86836000D01*
X24915000Y-102641000D02*
X24915000Y-86843000D01*
X24875000Y-102633000D02*
X24875000Y-86851000D01*
X24835000Y-102625000D02*
X24835000Y-86859000D01*
X24795000Y-102616000D02*
X24795000Y-86868000D01*
X24755000Y-102608000D02*
X24755000Y-86876000D01*
X24715000Y-102599000D02*
X24715000Y-86885000D01*
X24675000Y-102590000D02*
X24675000Y-86894000D01*
X24635000Y-102580000D02*
X24635000Y-86904000D01*
X24595000Y-102571000D02*
X24595000Y-86913000D01*
X24555000Y-102561000D02*
X24555000Y-86923000D01*
X24515000Y-102551000D02*
X24515000Y-86933000D01*
X24475000Y-102541000D02*
X24475000Y-86943000D01*
X24435000Y-102531000D02*
X24435000Y-86953000D01*
X24395000Y-102521000D02*
X24395000Y-86963000D01*
X24355000Y-102510000D02*
X24355000Y-86974000D01*
X24315000Y-102499000D02*
X24315000Y-86985000D01*
X24275000Y-102488000D02*
X24275000Y-86996000D01*
X24235000Y-102476000D02*
X24235000Y-87008000D01*
X24195000Y-102465000D02*
X24195000Y-87019000D01*
X24155000Y-102453000D02*
X24155000Y-87031000D01*
X24115000Y-102441000D02*
X24115000Y-87043000D01*
X24075000Y-102428000D02*
X24075000Y-96122000D01*
X24075000Y-93362000D02*
X24075000Y-87056000D01*
X24035000Y-102416000D02*
X24035000Y-96122000D01*
X24035000Y-93362000D02*
X24035000Y-87068000D01*
X23995000Y-102403000D02*
X23995000Y-96122000D01*
X23995000Y-93362000D02*
X23995000Y-87081000D01*
X23955000Y-102390000D02*
X23955000Y-96122000D01*
X23955000Y-93362000D02*
X23955000Y-87094000D01*
X23915000Y-102377000D02*
X23915000Y-96122000D01*
X23915000Y-93362000D02*
X23915000Y-87107000D01*
X23875000Y-102363000D02*
X23875000Y-96122000D01*
X23875000Y-93362000D02*
X23875000Y-87121000D01*
X23835000Y-102350000D02*
X23835000Y-96122000D01*
X23835000Y-93362000D02*
X23835000Y-87134000D01*
X23795000Y-102336000D02*
X23795000Y-96122000D01*
X23795000Y-93362000D02*
X23795000Y-87148000D01*
X23755000Y-102322000D02*
X23755000Y-96122000D01*
X23755000Y-93362000D02*
X23755000Y-87162000D01*
X23715000Y-102307000D02*
X23715000Y-96122000D01*
X23715000Y-93362000D02*
X23715000Y-87177000D01*
X23675000Y-102292000D02*
X23675000Y-96122000D01*
X23675000Y-93362000D02*
X23675000Y-87192000D01*
X23635000Y-102278000D02*
X23635000Y-96122000D01*
X23635000Y-93362000D02*
X23635000Y-87206000D01*
X23595000Y-102263000D02*
X23595000Y-96122000D01*
X23595000Y-93362000D02*
X23595000Y-87221000D01*
X23555000Y-102247000D02*
X23555000Y-96122000D01*
X23555000Y-93362000D02*
X23555000Y-87237000D01*
X23515000Y-102232000D02*
X23515000Y-96122000D01*
X23515000Y-93362000D02*
X23515000Y-87252000D01*
X23475000Y-102216000D02*
X23475000Y-96122000D01*
X23475000Y-93362000D02*
X23475000Y-87268000D01*
X23435000Y-102200000D02*
X23435000Y-96122000D01*
X23435000Y-93362000D02*
X23435000Y-87284000D01*
X23395000Y-102183000D02*
X23395000Y-96122000D01*
X23395000Y-93362000D02*
X23395000Y-87301000D01*
X23355000Y-102167000D02*
X23355000Y-96122000D01*
X23355000Y-93362000D02*
X23355000Y-87317000D01*
X23315000Y-102150000D02*
X23315000Y-96122000D01*
X23315000Y-93362000D02*
X23315000Y-87334000D01*
X23275000Y-102133000D02*
X23275000Y-96122000D01*
X23275000Y-93362000D02*
X23275000Y-87351000D01*
X23235000Y-102115000D02*
X23235000Y-96122000D01*
X23235000Y-93362000D02*
X23235000Y-87369000D01*
X23195000Y-102098000D02*
X23195000Y-96122000D01*
X23195000Y-93362000D02*
X23195000Y-87386000D01*
X23155000Y-102080000D02*
X23155000Y-96122000D01*
X23155000Y-93362000D02*
X23155000Y-87404000D01*
X23115000Y-102062000D02*
X23115000Y-96122000D01*
X23115000Y-93362000D02*
X23115000Y-87422000D01*
X23075000Y-102043000D02*
X23075000Y-96122000D01*
X23075000Y-93362000D02*
X23075000Y-87441000D01*
X23035000Y-102025000D02*
X23035000Y-96122000D01*
X23035000Y-93362000D02*
X23035000Y-87459000D01*
X22995000Y-102006000D02*
X22995000Y-96122000D01*
X22995000Y-93362000D02*
X22995000Y-87478000D01*
X22955000Y-101987000D02*
X22955000Y-96122000D01*
X22955000Y-93362000D02*
X22955000Y-87497000D01*
X22915000Y-101967000D02*
X22915000Y-96122000D01*
X22915000Y-93362000D02*
X22915000Y-87517000D01*
X22875000Y-101947000D02*
X22875000Y-96122000D01*
X22875000Y-93362000D02*
X22875000Y-87537000D01*
X22835000Y-101927000D02*
X22835000Y-96122000D01*
X22835000Y-93362000D02*
X22835000Y-87557000D01*
X22795000Y-101907000D02*
X22795000Y-96122000D01*
X22795000Y-93362000D02*
X22795000Y-87577000D01*
X22755000Y-101886000D02*
X22755000Y-96122000D01*
X22755000Y-93362000D02*
X22755000Y-87598000D01*
X22715000Y-101866000D02*
X22715000Y-96122000D01*
X22715000Y-93362000D02*
X22715000Y-87618000D01*
X22675000Y-101844000D02*
X22675000Y-96122000D01*
X22675000Y-93362000D02*
X22675000Y-87640000D01*
X22635000Y-101823000D02*
X22635000Y-96122000D01*
X22635000Y-93362000D02*
X22635000Y-87661000D01*
X22595000Y-101801000D02*
X22595000Y-96122000D01*
X22595000Y-93362000D02*
X22595000Y-87683000D01*
X22555000Y-101779000D02*
X22555000Y-96122000D01*
X22555000Y-93362000D02*
X22555000Y-87705000D01*
X22515000Y-101757000D02*
X22515000Y-96122000D01*
X22515000Y-93362000D02*
X22515000Y-87727000D01*
X22475000Y-101734000D02*
X22475000Y-96122000D01*
X22475000Y-93362000D02*
X22475000Y-87750000D01*
X22435000Y-101712000D02*
X22435000Y-96122000D01*
X22435000Y-93362000D02*
X22435000Y-87772000D01*
X22395000Y-101688000D02*
X22395000Y-96122000D01*
X22395000Y-93362000D02*
X22395000Y-87796000D01*
X22355000Y-101665000D02*
X22355000Y-96122000D01*
X22355000Y-93362000D02*
X22355000Y-87819000D01*
X22315000Y-101641000D02*
X22315000Y-96122000D01*
X22315000Y-93362000D02*
X22315000Y-87843000D01*
X22275000Y-101617000D02*
X22275000Y-96122000D01*
X22275000Y-93362000D02*
X22275000Y-87867000D01*
X22235000Y-101592000D02*
X22235000Y-96122000D01*
X22235000Y-93362000D02*
X22235000Y-87892000D01*
X22195000Y-101568000D02*
X22195000Y-96122000D01*
X22195000Y-93362000D02*
X22195000Y-87916000D01*
X22155000Y-101543000D02*
X22155000Y-96122000D01*
X22155000Y-93362000D02*
X22155000Y-87941000D01*
X22115000Y-101517000D02*
X22115000Y-96122000D01*
X22115000Y-93362000D02*
X22115000Y-87967000D01*
X22075000Y-101491000D02*
X22075000Y-96122000D01*
X22075000Y-93362000D02*
X22075000Y-87993000D01*
X22035000Y-101465000D02*
X22035000Y-96122000D01*
X22035000Y-93362000D02*
X22035000Y-88019000D01*
X21995000Y-101439000D02*
X21995000Y-96122000D01*
X21995000Y-93362000D02*
X21995000Y-88045000D01*
X21955000Y-101412000D02*
X21955000Y-96122000D01*
X21955000Y-93362000D02*
X21955000Y-88072000D01*
X21915000Y-101385000D02*
X21915000Y-96122000D01*
X21915000Y-93362000D02*
X21915000Y-88099000D01*
X21875000Y-101357000D02*
X21875000Y-96122000D01*
X21875000Y-93362000D02*
X21875000Y-88127000D01*
X21835000Y-101330000D02*
X21835000Y-96122000D01*
X21835000Y-93362000D02*
X21835000Y-88154000D01*
X21795000Y-101301000D02*
X21795000Y-96122000D01*
X21795000Y-93362000D02*
X21795000Y-88183000D01*
X21755000Y-101273000D02*
X21755000Y-96122000D01*
X21755000Y-93362000D02*
X21755000Y-88211000D01*
X21715000Y-101244000D02*
X21715000Y-96122000D01*
X21715000Y-93362000D02*
X21715000Y-88240000D01*
X21675000Y-101215000D02*
X21675000Y-96122000D01*
X21675000Y-93362000D02*
X21675000Y-88269000D01*
X21635000Y-101185000D02*
X21635000Y-96122000D01*
X21635000Y-93362000D02*
X21635000Y-88299000D01*
X21595000Y-101155000D02*
X21595000Y-96122000D01*
X21595000Y-93362000D02*
X21595000Y-88329000D01*
X21555000Y-101124000D02*
X21555000Y-96122000D01*
X21555000Y-93362000D02*
X21555000Y-88360000D01*
X21515000Y-101094000D02*
X21515000Y-96122000D01*
X21515000Y-93362000D02*
X21515000Y-88390000D01*
X21475000Y-101062000D02*
X21475000Y-96122000D01*
X21475000Y-93362000D02*
X21475000Y-88422000D01*
X21435000Y-101031000D02*
X21435000Y-96122000D01*
X21435000Y-93362000D02*
X21435000Y-88453000D01*
X21395000Y-100999000D02*
X21395000Y-96122000D01*
X21395000Y-93362000D02*
X21395000Y-88485000D01*
X21355000Y-100966000D02*
X21355000Y-96122000D01*
X21355000Y-93362000D02*
X21355000Y-88518000D01*
X21315000Y-100933000D02*
X21315000Y-88551000D01*
X21275000Y-100900000D02*
X21275000Y-88584000D01*
X21235000Y-100866000D02*
X21235000Y-88618000D01*
X21195000Y-100832000D02*
X21195000Y-88652000D01*
X21155000Y-100797000D02*
X21155000Y-88687000D01*
X21115000Y-100762000D02*
X21115000Y-88722000D01*
X21075000Y-100726000D02*
X21075000Y-88758000D01*
X21035000Y-100690000D02*
X21035000Y-88794000D01*
X20995000Y-100654000D02*
X20995000Y-88830000D01*
X20955000Y-100617000D02*
X20955000Y-88867000D01*
X20915000Y-100579000D02*
X20915000Y-88905000D01*
X20875000Y-100541000D02*
X20875000Y-88943000D01*
X20835000Y-100502000D02*
X20835000Y-88982000D01*
X20795000Y-100463000D02*
X20795000Y-89021000D01*
X20755000Y-100423000D02*
X20755000Y-89061000D01*
X20715000Y-100383000D02*
X20715000Y-89101000D01*
X20675000Y-100342000D02*
X20675000Y-89142000D01*
X20635000Y-100301000D02*
X20635000Y-89183000D01*
X20595000Y-100259000D02*
X20595000Y-89225000D01*
X20555000Y-100216000D02*
X20555000Y-89268000D01*
X20515000Y-100173000D02*
X20515000Y-89311000D01*
X20475000Y-100129000D02*
X20475000Y-89355000D01*
X20435000Y-100085000D02*
X20435000Y-89399000D01*
X20395000Y-100039000D02*
X20395000Y-89445000D01*
X20355000Y-99993000D02*
X20355000Y-89491000D01*
X20315000Y-99947000D02*
X20315000Y-89537000D01*
X20275000Y-99899000D02*
X20275000Y-89585000D01*
X20235000Y-99851000D02*
X20235000Y-89633000D01*
X20195000Y-99802000D02*
X20195000Y-89682000D01*
X20155000Y-99753000D02*
X20155000Y-89731000D01*
X20115000Y-99702000D02*
X20115000Y-89782000D01*
X20075000Y-99651000D02*
X20075000Y-89833000D01*
X20035000Y-99599000D02*
X20035000Y-89885000D01*
X19995000Y-99546000D02*
X19995000Y-89938000D01*
X19955000Y-99492000D02*
X19955000Y-89992000D01*
X19915000Y-99437000D02*
X19915000Y-90047000D01*
X19875000Y-99381000D02*
X19875000Y-90103000D01*
X19835000Y-99324000D02*
X19835000Y-90160000D01*
X19795000Y-99266000D02*
X19795000Y-90218000D01*
X19755000Y-99207000D02*
X19755000Y-90277000D01*
X19715000Y-99147000D02*
X19715000Y-90337000D01*
X19675000Y-99085000D02*
X19675000Y-90399000D01*
X19635000Y-99023000D02*
X19635000Y-90461000D01*
X19595000Y-98959000D02*
X19595000Y-90525000D01*
X19555000Y-98893000D02*
X19555000Y-90591000D01*
X19515000Y-98826000D02*
X19515000Y-90658000D01*
X19475000Y-98758000D02*
X19475000Y-90726000D01*
X19435000Y-98688000D02*
X19435000Y-90796000D01*
X19395000Y-98617000D02*
X19395000Y-90867000D01*
X19355000Y-98544000D02*
X19355000Y-90940000D01*
X19315000Y-98468000D02*
X19315000Y-91016000D01*
X19275000Y-98391000D02*
X19275000Y-91093000D01*
X19235000Y-98312000D02*
X19235000Y-91172000D01*
X19195000Y-98231000D02*
X19195000Y-91253000D01*
X19155000Y-98147000D02*
X19155000Y-91337000D01*
X19115000Y-98061000D02*
X19115000Y-91423000D01*
X19075000Y-97972000D02*
X19075000Y-91512000D01*
X19035000Y-97880000D02*
X19035000Y-91604000D01*
X18995000Y-97784000D02*
X18995000Y-91700000D01*
X18955000Y-97685000D02*
X18955000Y-91799000D01*
X18915000Y-97583000D02*
X18915000Y-91901000D01*
X18875000Y-97475000D02*
X18875000Y-92009000D01*
X18835000Y-97363000D02*
X18835000Y-92121000D01*
X18795000Y-97245000D02*
X18795000Y-92239000D01*
X18755000Y-97121000D02*
X18755000Y-92363000D01*
X18715000Y-96990000D02*
X18715000Y-92494000D01*
X18675000Y-96849000D02*
X18675000Y-92635000D01*
X18635000Y-96698000D02*
X18635000Y-92786000D01*
X18595000Y-96534000D02*
X18595000Y-92950000D01*
X18555000Y-96352000D02*
X18555000Y-93132000D01*
X18515000Y-96147000D02*
X18515000Y-93337000D01*
X18475000Y-95906000D02*
X18475000Y-93578000D01*
X18435000Y-95601000D02*
X18435000Y-93883000D01*
X18395000Y-95105000D02*
X18395000Y-94379000D01*
X33426000Y-94742000D02*
X31626000Y-94742000D01*
X32526000Y-95642000D02*
X32526000Y-93842000D01*
X25662000Y-3384000D02*
X26662000Y-3384000D01*
X26662000Y-4744000D02*
X25662000Y-4744000D01*
X31504000Y-54184000D02*
X32504000Y-54184000D01*
X32504000Y-55544000D02*
X31504000Y-55544000D01*
X31504000Y-51136000D02*
X32504000Y-51136000D01*
X32504000Y-52496000D02*
X31504000Y-52496000D01*
X31504000Y-52660000D02*
X32504000Y-52660000D01*
X32504000Y-54020000D02*
X31504000Y-54020000D01*
D10*
X-5800000Y-7335000D02*
X0Y-7335000D01*
X-5800000Y-23665000D02*
X-5800000Y-7335000D01*
X0Y-23665000D02*
X-5800000Y-23665000D01*
X12700000Y-30905000D02*
X0Y-30905000D01*
X12700000Y-95000D02*
X12700000Y-30905000D01*
X0Y-95000D02*
X12700000Y-95000D01*
X0Y-30905000D02*
X0Y-95000D01*
D15*
X16860000Y-32858000D02*
X16160000Y-32858000D01*
X16160000Y-31658000D02*
X16860000Y-31658000D01*
X21698000Y-33492000D02*
X21698000Y-39502000D01*
X14878000Y-35742000D02*
X14878000Y-39502000D01*
X21698000Y-39502000D02*
X20438000Y-39502000D01*
X14878000Y-39502000D02*
X16138000Y-39502000D01*
X35078000Y-43176000D02*
X35078000Y-22356000D01*
X35078000Y-22356000D02*
X44678000Y-22356000D01*
X44678000Y-22356000D02*
X44678000Y-43176000D01*
X44678000Y-43176000D02*
X35078000Y-43176000D01*
X34264000Y-43176000D02*
X24664000Y-43176000D01*
X34264000Y-22356000D02*
X34264000Y-43176000D01*
X24664000Y-22356000D02*
X34264000Y-22356000D01*
X24664000Y-43176000D02*
X24664000Y-22356000D01*
X25812000Y-1940000D02*
X26512000Y-1940000D01*
X26512000Y-3140000D02*
X25812000Y-3140000D01*
X25489000Y-8458000D02*
X27789000Y-8458000D01*
X27089000Y-5258000D02*
X25489000Y-5258000D01*
X22478000Y-22254000D02*
X22478000Y-27654000D01*
X19178000Y-22254000D02*
X19178000Y-27654000D01*
X22478000Y-22254000D02*
X19178000Y-22254000D01*
D10*
X18717000Y-23763000D02*
X18717000Y-22363000D01*
X13617000Y-23763000D02*
X13617000Y-27913000D01*
X18767000Y-23763000D02*
X18767000Y-27913000D01*
X13617000Y-23763000D02*
X13762000Y-23763000D01*
X13617000Y-27913000D02*
X13762000Y-27913000D01*
X18767000Y-27913000D02*
X18622000Y-27913000D01*
X18767000Y-23763000D02*
X18717000Y-23763000D01*
D15*
X23968000Y-23272000D02*
X23968000Y-23972000D01*
X22768000Y-23972000D02*
X22768000Y-23272000D01*
X22732000Y-1015000D02*
X22732000Y-2935000D01*
X22732000Y-7875000D02*
X22732000Y-5955000D01*
X14352000Y-255000D02*
X14352000Y-2935000D01*
X14352000Y-8635000D02*
X14352000Y-5955000D01*
X14352000Y-255000D02*
X21972000Y-255000D01*
X21972000Y-255000D02*
X22732000Y-1015000D01*
X22732000Y-7875000D02*
X21972000Y-8635000D01*
X21972000Y-8635000D02*
X14352000Y-8635000D01*
X14274000Y-21645000D02*
X14274000Y-18645000D01*
X26874000Y-21645000D02*
X14274000Y-21645000D01*
X26874000Y-18645000D02*
X26874000Y-21645000D01*
X26874000Y-9045000D02*
X26874000Y-12045000D01*
X14274000Y-9045000D02*
X26874000Y-9045000D01*
X14274000Y-12045000D02*
X14274000Y-9045000D01*
X8764000Y-39623000D02*
X1144000Y-39623000D01*
X9524000Y-38863000D02*
X8764000Y-39623000D01*
X8764000Y-31243000D02*
X9524000Y-32003000D01*
X1144000Y-31243000D02*
X8764000Y-31243000D01*
X1144000Y-39623000D02*
X1144000Y-36943000D01*
X1144000Y-31243000D02*
X1144000Y-33923000D01*
X9524000Y-38863000D02*
X9524000Y-36943000D01*
X9524000Y-32003000D02*
X9524000Y-33923000D01*
D10*
X32100000Y-111000000D02*
X44900000Y-111000000D01*
X32100000Y-120400000D02*
X32100000Y-111000000D01*
X44900000Y-120400000D02*
X44900000Y-111000000D01*
X32100000Y-156000000D02*
X44900000Y-156000000D01*
X44900000Y-146600000D02*
X44900000Y-156000000D01*
X32100000Y-146600000D02*
X32100000Y-156000000D01*
X41500000Y-120400000D02*
X44900000Y-120400000D01*
X35500000Y-120400000D02*
X32100000Y-120400000D01*
X41500000Y-146600000D02*
X44900000Y-146600000D01*
X35500000Y-146600000D02*
X32100000Y-146600000D01*
X41500000Y-146600000D02*
X35500000Y-146600000D01*
X35500000Y-120400000D02*
X41500000Y-120400000D01*
X37000000Y-146600000D02*
X37000000Y-120400000D01*
X40000000Y-146600000D02*
X40000000Y-120400000D01*
X37000000Y-133500000D02*
X37500000Y-133500000D01*
X10000Y-90700000D02*
X10000Y-65300000D01*
X-2000000Y-42000000D02*
X-2000000Y-54000000D01*
X51036500Y-83842000D02*
X41936500Y-83842000D01*
X51036500Y-92142000D02*
X51036500Y-83842000D01*
X41936500Y-92142000D02*
X51036500Y-92142000D01*
X41936500Y-82392000D02*
X41936500Y-93592000D01*
X35336500Y-82392000D02*
X41936500Y-82392000D01*
X35336500Y-93592000D02*
X35336500Y-82392000D01*
X41936500Y-93592000D02*
X35336500Y-93592000D01*
D15*
X16379500Y-137131000D02*
X17379500Y-137131000D01*
X17379500Y-138491000D02*
X16379500Y-138491000D01*
X23189500Y-136789500D02*
X17349500Y-136789500D01*
X23949500Y-136029500D02*
X23189500Y-136789500D01*
X23189500Y-130189500D02*
X23949500Y-130949500D01*
X17349500Y-130189500D02*
X23189500Y-130189500D01*
X23949500Y-136029500D02*
X23949500Y-134609500D01*
X23949500Y-130949500D02*
X23949500Y-132369500D01*
X17349500Y-136789500D02*
X17349500Y-134609500D01*
X17349500Y-130189500D02*
X17349500Y-132369500D01*
X18739500Y-128913000D02*
X18739500Y-127913000D01*
X20099500Y-127913000D02*
X20099500Y-128913000D01*
D10*
X41936500Y-108592000D02*
X35336500Y-108592000D01*
X35336500Y-108592000D02*
X35336500Y-97392000D01*
X35336500Y-97392000D02*
X41936500Y-97392000D01*
X41936500Y-97392000D02*
X41936500Y-108592000D01*
X41936500Y-107142000D02*
X51036500Y-107142000D01*
X51036500Y-107142000D02*
X51036500Y-98842000D01*
X51036500Y-98842000D02*
X41936500Y-98842000D01*
D15*
X13045500Y-135322000D02*
X13045500Y-130742000D01*
X12285500Y-136082000D02*
X13045500Y-135322000D01*
X7715500Y-135322000D02*
X8475500Y-136082000D01*
X7715500Y-130742000D02*
X7715500Y-135322000D01*
X8475500Y-136082000D02*
X9265500Y-136082000D01*
X12285500Y-136082000D02*
X11495500Y-136082000D01*
X13045500Y-130742000D02*
X11495500Y-130742000D01*
X7715500Y-130742000D02*
X9265500Y-130742000D01*
X20099500Y-138073000D02*
X20099500Y-139073000D01*
X18739500Y-139073000D02*
X18739500Y-138073000D01*
X22879500Y-137207500D02*
X23579500Y-137207500D01*
X23579500Y-138407500D02*
X22879500Y-138407500D01*
X22867500Y-128575000D02*
X23567500Y-128575000D01*
X23567500Y-129775000D02*
X22867500Y-129775000D01*
X23579500Y-128185000D02*
X22879500Y-128185000D01*
X22879500Y-126985000D02*
X23579500Y-126985000D01*
X23579500Y-140123000D02*
X22879500Y-140123000D01*
X22879500Y-138923000D02*
X23579500Y-138923000D01*
X16379500Y-128495000D02*
X17379500Y-128495000D01*
X17379500Y-129855000D02*
X16379500Y-129855000D01*
D10*
X31996200Y-123700000D02*
X37000000Y-123700000D01*
X31996200Y-143300000D02*
X31996200Y-123700000D01*
X37000000Y-143300000D02*
X31996200Y-143300000D01*
X37000000Y-123700000D02*
X37000000Y-143300000D01*
D15*
X14895500Y-135198000D02*
X14895500Y-136198000D01*
X13535500Y-136198000D02*
X13535500Y-135198000D01*
D10*
X0Y-115000000D02*
X0Y-128000000D01*
X0Y-128000000D02*
X24000000Y-128000000D01*
X24000000Y-128000000D02*
X24000000Y-115000000D01*
X24000000Y-115000000D02*
X24000000Y-102000000D01*
X24000000Y-102000000D02*
X0Y-102000000D01*
X0Y-102000000D02*
X0Y-115000000D01*
X0Y-103100000D02*
X-7300000Y-103100000D01*
X-7300000Y-103100000D02*
X-7300000Y-126900000D01*
X-7300000Y-126900000D02*
X0Y-126900000D01*
X0Y-152000000D02*
X0Y-165000000D01*
X0Y-165000000D02*
X24000000Y-165000000D01*
X24000000Y-165000000D02*
X24000000Y-152000000D01*
X24000000Y-152000000D02*
X24000000Y-139000000D01*
X24000000Y-139000000D02*
X0Y-139000000D01*
X0Y-139000000D02*
X0Y-152000000D01*
X0Y-140100000D02*
X-7300000Y-140100000D01*
X-7300000Y-140100000D02*
X-7300000Y-163900000D01*
X-7300000Y-163900000D02*
X0Y-163900000D01*
D15*
X45176000Y-69164000D02*
X42326000Y-69164000D01*
X45176000Y-72014000D02*
X45176000Y-69164000D01*
X33626000Y-76114000D02*
X33626000Y-74314000D01*
X35026000Y-76114000D02*
X33626000Y-76114000D01*
X35026000Y-79214000D02*
X35026000Y-76114000D01*
X44926000Y-79214000D02*
X35026000Y-79214000D01*
X44926000Y-74314000D02*
X44926000Y-79214000D01*
X33626000Y-72514000D02*
X33626000Y-74314000D01*
X35026000Y-72514000D02*
X33626000Y-72514000D01*
X35026000Y-69414000D02*
X35026000Y-72514000D01*
X44926000Y-69414000D02*
X35026000Y-69414000D01*
X44926000Y-74314000D02*
X44926000Y-69414000D01*
X19685500Y-77482700D02*
X19685500Y-72082700D01*
X22985500Y-77482700D02*
X22985500Y-72082700D01*
X19685500Y-77482700D02*
X22985500Y-77482700D01*
X26668500Y-70682700D02*
X26668500Y-76082700D01*
X23368500Y-70682700D02*
X23368500Y-76082700D01*
X26668500Y-70682700D02*
X23368500Y-70682700D01*
X22985500Y-78429700D02*
X22985500Y-83829700D01*
X19685500Y-78429700D02*
X19685500Y-83829700D01*
X22985500Y-78429700D02*
X19685500Y-78429700D01*
X23734000Y-69126000D02*
X23734000Y-67666000D01*
X26894000Y-69126000D02*
X26894000Y-66966000D01*
X26894000Y-69126000D02*
X25964000Y-69126000D01*
X23734000Y-69126000D02*
X24664000Y-69126000D01*
X28229000Y-68748500D02*
X28229000Y-67288500D01*
X31389000Y-68748500D02*
X31389000Y-66588500D01*
X31389000Y-68748500D02*
X30459000Y-68748500D01*
X28229000Y-68748500D02*
X29159000Y-68748500D01*
X23368500Y-85229700D02*
X23368500Y-79829700D01*
X26668500Y-85229700D02*
X26668500Y-79829700D01*
X23368500Y-85229700D02*
X26668500Y-85229700D01*
D10*
X32821200Y-76006100D02*
X34221200Y-76006100D01*
X32821200Y-70906100D02*
X28671200Y-70906100D01*
X32821200Y-76056100D02*
X28671200Y-76056100D01*
X32821200Y-70906100D02*
X32821200Y-71051100D01*
X28671200Y-70906100D02*
X28671200Y-71051100D01*
X28671200Y-76056100D02*
X28671200Y-75911100D01*
X32821200Y-76056100D02*
X32821200Y-76006100D01*
X32821200Y-83626100D02*
X34221200Y-83626100D01*
X32821200Y-78526100D02*
X28671200Y-78526100D01*
X32821200Y-83676100D02*
X28671200Y-83676100D01*
X32821200Y-78526100D02*
X32821200Y-78671100D01*
X28671200Y-78526100D02*
X28671200Y-78671100D01*
X28671200Y-83676100D02*
X28671200Y-83531100D01*
X32821200Y-83676100D02*
X32821200Y-83626100D01*
D15*
X31008500Y-78096000D02*
X30008500Y-78096000D01*
X30008500Y-76736000D02*
X31008500Y-76736000D01*
X33130800Y-70526800D02*
X32130800Y-70526800D01*
X32130800Y-69166800D02*
X33130800Y-69166800D01*
X13396000Y-59420500D02*
X11296000Y-59420500D01*
X13396000Y-58420500D02*
X11296000Y-58420500D01*
X13396000Y-59420500D02*
X13396000Y-58420500D01*
X8548000Y-58199000D02*
X9548000Y-58199000D01*
X9548000Y-59559000D02*
X8548000Y-59559000D01*
D10*
X21413143Y-57358228D02*
X21638143Y-57358228D01*
X21413143Y-50108228D02*
X21713143Y-50108228D01*
X28663143Y-50108228D02*
X28363143Y-50108228D01*
X28663143Y-57358228D02*
X28363143Y-57358228D01*
X21413143Y-57358228D02*
X21413143Y-57058228D01*
X28663143Y-57358228D02*
X28663143Y-57058228D01*
X28663143Y-50108228D02*
X28663143Y-50408228D01*
X21413143Y-50108228D02*
X21413143Y-50408228D01*
X21638143Y-57358228D02*
X21638143Y-58583228D01*
D15*
X19769702Y-56138124D02*
X19769702Y-57138124D01*
X18409702Y-57138124D02*
X18409702Y-56138124D01*
X16965702Y-56976124D02*
X16965702Y-56276124D01*
X18165702Y-56276124D02*
X18165702Y-56976124D01*
X15902000Y-44191000D02*
X15902000Y-48771000D01*
X16662000Y-43431000D02*
X15902000Y-44191000D01*
X21232000Y-44191000D02*
X20472000Y-43431000D01*
X21232000Y-48771000D02*
X21232000Y-44191000D01*
X20472000Y-43431000D02*
X19682000Y-43431000D01*
X16662000Y-43431000D02*
X17452000Y-43431000D01*
X15902000Y-48771000D02*
X17452000Y-48771000D01*
X21232000Y-48771000D02*
X19682000Y-48771000D01*
D10*
X40650000Y-59000000D02*
X40650000Y-56000000D01*
X44350000Y-59000000D02*
X40650000Y-59000000D01*
X44350000Y-53000000D02*
X44350000Y-59000000D01*
X40650000Y-53000000D02*
X44350000Y-53000000D01*
X40650000Y-56000000D02*
X40650000Y-53000000D01*
D15*
X23440386Y-40005279D02*
X22733279Y-40712386D01*
X21771614Y-39750721D02*
X22478721Y-39043614D01*
X36300000Y-59500000D02*
X34200000Y-59500000D01*
X36300000Y-58500000D02*
X34200000Y-58500000D01*
X36300000Y-59500000D02*
X36300000Y-58500000D01*
X36300000Y-53500000D02*
X34200000Y-53500000D01*
X36300000Y-52500000D02*
X34200000Y-52500000D01*
X36300000Y-53500000D02*
X36300000Y-52500000D01*
X33297800Y-57096800D02*
X33297800Y-58096800D01*
X31937800Y-58096800D02*
X31937800Y-57096800D01*
X21392200Y-58319800D02*
X21392200Y-59019800D01*
X20192200Y-59019800D02*
X20192200Y-58319800D01*
X29875800Y-48286800D02*
X29875800Y-48986800D01*
X28675800Y-48986800D02*
X28675800Y-48286800D01*
X36300000Y-56500000D02*
X36300000Y-55500000D01*
X36300000Y-55500000D02*
X34200000Y-55500000D01*
X36300000Y-56500000D02*
X34200000Y-56500000D01*
X36232000Y-64730000D02*
X36232000Y-69030000D01*
X36232000Y-69030000D02*
X41932000Y-69030000D01*
X36232000Y-64730000D02*
X41932000Y-64730000D01*
X13776000Y-31254000D02*
X11116000Y-31254000D01*
X13776000Y-38934000D02*
X13776000Y-31254000D01*
X11116000Y-38934000D02*
X11116000Y-31254000D01*
X13776000Y-38934000D02*
X11116000Y-38934000D01*
X13776000Y-40204000D02*
X13776000Y-41534000D01*
X13776000Y-41534000D02*
X12446000Y-41534000D01*
X30261400Y-58096800D02*
X30261400Y-57096800D01*
X31621400Y-57096800D02*
X31621400Y-58096800D01*
X43320380Y-37540285D02*
X43320380Y-38111714D01*
X43320380Y-37826000D02*
X42320380Y-37826000D01*
X42463238Y-37921238D01*
X42558476Y-38016476D01*
X42606095Y-38111714D01*
X32906380Y-37540285D02*
X32906380Y-38111714D01*
X32906380Y-37826000D02*
X31906380Y-37826000D01*
X32049238Y-37921238D01*
X32144476Y-38016476D01*
X32192095Y-38111714D01*
D10*
X22941047Y-606428D02*
X23702952Y-606428D01*
X23322000Y-987380D02*
X23322000Y-225476D01*
X9733047Y-31594428D02*
X10494952Y-31594428D01*
X10114000Y-31975380D02*
X10114000Y-31213476D01*
X24548547Y-130550928D02*
X25310452Y-130550928D01*
X24929500Y-130931880D02*
X24929500Y-130169976D01*
X12816928Y-137172952D02*
X12816928Y-136411047D01*
X13197880Y-136792000D02*
X12435976Y-136792000D01*
X27828857Y-120457904D02*
X27828857Y-118934095D01*
X28590761Y-119696000D02*
X27066952Y-119696000D01*
X25034857Y-111951904D02*
X25034857Y-110428095D01*
X27828857Y-157541904D02*
X27828857Y-156018095D01*
X28590761Y-156780000D02*
X27066952Y-156780000D01*
X25034857Y-148951904D02*
X25034857Y-147428095D01*
X16273428Y-43101952D02*
X16273428Y-42340047D01*
X16654380Y-42721000D02*
X15892476Y-42721000D01*
M02*
