G04 #@! TF.GenerationSoftware,KiCad,Pcbnew,(5.0.0-rc2-dev-311-g1dd4af297)*
G04 #@! TF.CreationDate,2018-07-03T13:58:45+02:00*
G04 #@! TF.ProjectId,resetUSB,72657365745553422E6B696361645F70,1.0*
G04 #@! TF.SameCoordinates,PX29ff57cPY2521014*
G04 #@! TF.FileFunction,Copper,L2,Bot,Signal*
G04 #@! TF.FilePolarity,Positive*
%FSLAX46Y46*%
G04 Gerber Fmt 4.6, Leading zero omitted, Abs format (unit mm)*
G04 Created by KiCad (PCBNEW (5.0.0-rc2-dev-311-g1dd4af297)) date 07/03/18 13:58:45*
%MOMM*%
%LPD*%
G01*
G04 APERTURE LIST*
%ADD10C,0.150000*%
%ADD11C,0.200000*%
%ADD12C,2.200000*%
%ADD13R,2.400000X2.400000*%
%ADD14C,2.400000*%
%ADD15C,1.600000*%
%ADD16R,1.600000X1.600000*%
%ADD17C,4.050000*%
%ADD18R,1.727200X1.727200*%
%ADD19O,1.727200X1.727200*%
%ADD20C,3.500000*%
%ADD21C,3.200000*%
%ADD22C,2.600000*%
%ADD23C,4.000000*%
%ADD24C,3.000000*%
%ADD25C,2.800000*%
%ADD26R,2.800000X2.800000*%
%ADD27R,1.700000X1.700000*%
%ADD28O,1.700000X1.700000*%
%ADD29C,1.300000*%
%ADD30C,1.800000*%
%ADD31C,0.254000*%
G04 APERTURE END LIST*
D10*
X0Y-165000000D02*
X0Y0D01*
X45000000Y-165000000D02*
X0Y-165000000D01*
X45000000Y0D02*
X45000000Y-165000000D01*
X0Y0D02*
X45000000Y0D01*
D11*
X3892857Y-92234285D02*
X2692857Y-92234285D01*
X3892857Y-92920000D02*
X3207142Y-92405714D01*
X2692857Y-92920000D02*
X3378571Y-92234285D01*
X3092857Y-93434285D02*
X3892857Y-93434285D01*
X3207142Y-93434285D02*
X3150000Y-93491428D01*
X3092857Y-93605714D01*
X3092857Y-93777142D01*
X3150000Y-93891428D01*
X3264285Y-93948571D01*
X3892857Y-93948571D01*
X3892857Y-94691428D02*
X3835714Y-94577142D01*
X3778571Y-94520000D01*
X3664285Y-94462857D01*
X3321428Y-94462857D01*
X3207142Y-94520000D01*
X3150000Y-94577142D01*
X3092857Y-94691428D01*
X3092857Y-94862857D01*
X3150000Y-94977142D01*
X3207142Y-95034285D01*
X3321428Y-95091428D01*
X3664285Y-95091428D01*
X3778571Y-95034285D01*
X3835714Y-94977142D01*
X3892857Y-94862857D01*
X3892857Y-94691428D01*
X3892857Y-95777142D02*
X3835714Y-95662857D01*
X3778571Y-95605714D01*
X3664285Y-95548571D01*
X3321428Y-95548571D01*
X3207142Y-95605714D01*
X3150000Y-95662857D01*
X3092857Y-95777142D01*
X3092857Y-95948571D01*
X3150000Y-96062857D01*
X3207142Y-96120000D01*
X3321428Y-96177142D01*
X3664285Y-96177142D01*
X3778571Y-96120000D01*
X3835714Y-96062857D01*
X3892857Y-95948571D01*
X3892857Y-95777142D01*
X3835714Y-97205714D02*
X3892857Y-97091428D01*
X3892857Y-96862857D01*
X3835714Y-96748571D01*
X3778571Y-96691428D01*
X3664285Y-96634285D01*
X3321428Y-96634285D01*
X3207142Y-96691428D01*
X3150000Y-96748571D01*
X3092857Y-96862857D01*
X3092857Y-97091428D01*
X3150000Y-97205714D01*
X3892857Y-97720000D02*
X2692857Y-97720000D01*
X3435714Y-97834285D02*
X3892857Y-98177142D01*
X3092857Y-98177142D02*
X3550000Y-97720000D01*
X3835714Y-99148571D02*
X3892857Y-99034285D01*
X3892857Y-98805714D01*
X3835714Y-98691428D01*
X3721428Y-98634285D01*
X3264285Y-98634285D01*
X3150000Y-98691428D01*
X3092857Y-98805714D01*
X3092857Y-99034285D01*
X3150000Y-99148571D01*
X3264285Y-99205714D01*
X3378571Y-99205714D01*
X3492857Y-98634285D01*
X3892857Y-99720000D02*
X3092857Y-99720000D01*
X3321428Y-99720000D02*
X3207142Y-99777142D01*
X3150000Y-99834285D01*
X3092857Y-99948571D01*
X3092857Y-100062857D01*
X5892857Y-91748571D02*
X5092857Y-91748571D01*
X5321428Y-91748571D02*
X5207142Y-91805714D01*
X5150000Y-91862857D01*
X5092857Y-91977142D01*
X5092857Y-92091428D01*
X5835714Y-92948571D02*
X5892857Y-92834285D01*
X5892857Y-92605714D01*
X5835714Y-92491428D01*
X5721428Y-92434285D01*
X5264285Y-92434285D01*
X5150000Y-92491428D01*
X5092857Y-92605714D01*
X5092857Y-92834285D01*
X5150000Y-92948571D01*
X5264285Y-93005714D01*
X5378571Y-93005714D01*
X5492857Y-92434285D01*
X5835714Y-93462857D02*
X5892857Y-93577142D01*
X5892857Y-93805714D01*
X5835714Y-93920000D01*
X5721428Y-93977142D01*
X5664285Y-93977142D01*
X5550000Y-93920000D01*
X5492857Y-93805714D01*
X5492857Y-93634285D01*
X5435714Y-93520000D01*
X5321428Y-93462857D01*
X5264285Y-93462857D01*
X5150000Y-93520000D01*
X5092857Y-93634285D01*
X5092857Y-93805714D01*
X5150000Y-93920000D01*
X5835714Y-94948571D02*
X5892857Y-94834285D01*
X5892857Y-94605714D01*
X5835714Y-94491428D01*
X5721428Y-94434285D01*
X5264285Y-94434285D01*
X5150000Y-94491428D01*
X5092857Y-94605714D01*
X5092857Y-94834285D01*
X5150000Y-94948571D01*
X5264285Y-95005714D01*
X5378571Y-95005714D01*
X5492857Y-94434285D01*
X5092857Y-95348571D02*
X5092857Y-95805714D01*
X4692857Y-95520000D02*
X5721428Y-95520000D01*
X5835714Y-95577142D01*
X5892857Y-95691428D01*
X5892857Y-95805714D01*
X4692857Y-96205714D02*
X5664285Y-96205714D01*
X5778571Y-96262857D01*
X5835714Y-96320000D01*
X5892857Y-96434285D01*
X5892857Y-96662857D01*
X5835714Y-96777142D01*
X5778571Y-96834285D01*
X5664285Y-96891428D01*
X4692857Y-96891428D01*
X5835714Y-97405714D02*
X5892857Y-97577142D01*
X5892857Y-97862857D01*
X5835714Y-97977142D01*
X5778571Y-98034285D01*
X5664285Y-98091428D01*
X5550000Y-98091428D01*
X5435714Y-98034285D01*
X5378571Y-97977142D01*
X5321428Y-97862857D01*
X5264285Y-97634285D01*
X5207142Y-97520000D01*
X5150000Y-97462857D01*
X5035714Y-97405714D01*
X4921428Y-97405714D01*
X4807142Y-97462857D01*
X4750000Y-97520000D01*
X4692857Y-97634285D01*
X4692857Y-97920000D01*
X4750000Y-98091428D01*
X5264285Y-99005714D02*
X5321428Y-99177142D01*
X5378571Y-99234285D01*
X5492857Y-99291428D01*
X5664285Y-99291428D01*
X5778571Y-99234285D01*
X5835714Y-99177142D01*
X5892857Y-99062857D01*
X5892857Y-98605714D01*
X4692857Y-98605714D01*
X4692857Y-99005714D01*
X4750000Y-99120000D01*
X4807142Y-99177142D01*
X4921428Y-99234285D01*
X5035714Y-99234285D01*
X5150000Y-99177142D01*
X5207142Y-99120000D01*
X5264285Y-99005714D01*
X5264285Y-98605714D01*
X5092857Y-99691428D02*
X5892857Y-99977142D01*
X5092857Y-100262857D01*
X5092857Y-101234285D02*
X5892857Y-101234285D01*
X4635714Y-100948571D02*
X5492857Y-100662857D01*
X5492857Y-101405714D01*
X7892857Y-91634285D02*
X7092857Y-91634285D01*
X7207142Y-91634285D02*
X7150000Y-91691428D01*
X7092857Y-91805714D01*
X7092857Y-91977142D01*
X7150000Y-92091428D01*
X7264285Y-92148571D01*
X7892857Y-92148571D01*
X7264285Y-92148571D02*
X7150000Y-92205714D01*
X7092857Y-92320000D01*
X7092857Y-92491428D01*
X7150000Y-92605714D01*
X7264285Y-92662857D01*
X7892857Y-92662857D01*
X7892857Y-93748571D02*
X7264285Y-93748571D01*
X7150000Y-93691428D01*
X7092857Y-93577142D01*
X7092857Y-93348571D01*
X7150000Y-93234285D01*
X7835714Y-93748571D02*
X7892857Y-93634285D01*
X7892857Y-93348571D01*
X7835714Y-93234285D01*
X7721428Y-93177142D01*
X7607142Y-93177142D01*
X7492857Y-93234285D01*
X7435714Y-93348571D01*
X7435714Y-93634285D01*
X7378571Y-93748571D01*
X7892857Y-94320000D02*
X7092857Y-94320000D01*
X7321428Y-94320000D02*
X7207142Y-94377142D01*
X7150000Y-94434285D01*
X7092857Y-94548571D01*
X7092857Y-94662857D01*
X7835714Y-95520000D02*
X7892857Y-95405714D01*
X7892857Y-95177142D01*
X7835714Y-95062857D01*
X7721428Y-95005714D01*
X7264285Y-95005714D01*
X7150000Y-95062857D01*
X7092857Y-95177142D01*
X7092857Y-95405714D01*
X7150000Y-95520000D01*
X7264285Y-95577142D01*
X7378571Y-95577142D01*
X7492857Y-95005714D01*
X7892857Y-96091428D02*
X6692857Y-96091428D01*
X7435714Y-96205714D02*
X7892857Y-96548571D01*
X7092857Y-96548571D02*
X7550000Y-96091428D01*
X7092857Y-97062857D02*
X8292857Y-97062857D01*
X7150000Y-97062857D02*
X7092857Y-97177142D01*
X7092857Y-97405714D01*
X7150000Y-97520000D01*
X7207142Y-97577142D01*
X7321428Y-97634285D01*
X7664285Y-97634285D01*
X7778571Y-97577142D01*
X7835714Y-97520000D01*
X7892857Y-97405714D01*
X7892857Y-97177142D01*
X7835714Y-97062857D01*
X7892857Y-98777142D02*
X7892857Y-98091428D01*
X7892857Y-98434285D02*
X6692857Y-98434285D01*
X6864285Y-98320000D01*
X6978571Y-98205714D01*
X7035714Y-98091428D01*
X7207142Y-99462857D02*
X7150000Y-99348571D01*
X7092857Y-99291428D01*
X6978571Y-99234285D01*
X6921428Y-99234285D01*
X6807142Y-99291428D01*
X6750000Y-99348571D01*
X6692857Y-99462857D01*
X6692857Y-99691428D01*
X6750000Y-99805714D01*
X6807142Y-99862857D01*
X6921428Y-99920000D01*
X6978571Y-99920000D01*
X7092857Y-99862857D01*
X7150000Y-99805714D01*
X7207142Y-99691428D01*
X7207142Y-99462857D01*
X7264285Y-99348571D01*
X7321428Y-99291428D01*
X7435714Y-99234285D01*
X7664285Y-99234285D01*
X7778571Y-99291428D01*
X7835714Y-99348571D01*
X7892857Y-99462857D01*
X7892857Y-99691428D01*
X7835714Y-99805714D01*
X7778571Y-99862857D01*
X7664285Y-99920000D01*
X7435714Y-99920000D01*
X7321428Y-99862857D01*
X7264285Y-99805714D01*
X7207142Y-99691428D01*
X7321428Y-101177142D02*
X7264285Y-101120000D01*
X7207142Y-101005714D01*
X7207142Y-100891428D01*
X7264285Y-100777142D01*
X7321428Y-100720000D01*
X7435714Y-100662857D01*
X7550000Y-100662857D01*
X7664285Y-100720000D01*
X7721428Y-100777142D01*
X7778571Y-100891428D01*
X7778571Y-101005714D01*
X7721428Y-101120000D01*
X7664285Y-101177142D01*
X7207142Y-101177142D02*
X7664285Y-101177142D01*
X7721428Y-101234285D01*
X7721428Y-101291428D01*
X7664285Y-101405714D01*
X7550000Y-101462857D01*
X7264285Y-101462857D01*
X7092857Y-101348571D01*
X6978571Y-101177142D01*
X6921428Y-100948571D01*
X6978571Y-100720000D01*
X7092857Y-100548571D01*
X7264285Y-100434285D01*
X7492857Y-100377142D01*
X7721428Y-100434285D01*
X7892857Y-100548571D01*
X8007142Y-100720000D01*
X8064285Y-100948571D01*
X8007142Y-101177142D01*
X7892857Y-101348571D01*
X9092857Y-92691428D02*
X10064285Y-92691428D01*
X10178571Y-92634285D01*
X10235714Y-92577142D01*
X10292857Y-92462857D01*
X10292857Y-92291428D01*
X10235714Y-92177142D01*
X9835714Y-92691428D02*
X9892857Y-92577142D01*
X9892857Y-92348571D01*
X9835714Y-92234285D01*
X9778571Y-92177142D01*
X9664285Y-92120000D01*
X9321428Y-92120000D01*
X9207142Y-92177142D01*
X9150000Y-92234285D01*
X9092857Y-92348571D01*
X9092857Y-92577142D01*
X9150000Y-92691428D01*
X9892857Y-93262857D02*
X9092857Y-93262857D01*
X9207142Y-93262857D02*
X9150000Y-93320000D01*
X9092857Y-93434285D01*
X9092857Y-93605714D01*
X9150000Y-93720000D01*
X9264285Y-93777142D01*
X9892857Y-93777142D01*
X9264285Y-93777142D02*
X9150000Y-93834285D01*
X9092857Y-93948571D01*
X9092857Y-94120000D01*
X9150000Y-94234285D01*
X9264285Y-94291428D01*
X9892857Y-94291428D01*
X9892857Y-95377142D02*
X9264285Y-95377142D01*
X9150000Y-95320000D01*
X9092857Y-95205714D01*
X9092857Y-94977142D01*
X9150000Y-94862857D01*
X9835714Y-95377142D02*
X9892857Y-95262857D01*
X9892857Y-94977142D01*
X9835714Y-94862857D01*
X9721428Y-94805714D01*
X9607142Y-94805714D01*
X9492857Y-94862857D01*
X9435714Y-94977142D01*
X9435714Y-95262857D01*
X9378571Y-95377142D01*
X9892857Y-95948571D02*
X9092857Y-95948571D01*
X8692857Y-95948571D02*
X8750000Y-95891428D01*
X8807142Y-95948571D01*
X8750000Y-96005714D01*
X8692857Y-95948571D01*
X8807142Y-95948571D01*
X9892857Y-96691428D02*
X9835714Y-96577142D01*
X9721428Y-96520000D01*
X8692857Y-96520000D01*
X9778571Y-97148571D02*
X9835714Y-97205714D01*
X9892857Y-97148571D01*
X9835714Y-97091428D01*
X9778571Y-97148571D01*
X9892857Y-97148571D01*
X9835714Y-98234285D02*
X9892857Y-98120000D01*
X9892857Y-97891428D01*
X9835714Y-97777142D01*
X9778571Y-97720000D01*
X9664285Y-97662857D01*
X9321428Y-97662857D01*
X9207142Y-97720000D01*
X9150000Y-97777142D01*
X9092857Y-97891428D01*
X9092857Y-98120000D01*
X9150000Y-98234285D01*
X9892857Y-98920000D02*
X9835714Y-98805714D01*
X9778571Y-98748571D01*
X9664285Y-98691428D01*
X9321428Y-98691428D01*
X9207142Y-98748571D01*
X9150000Y-98805714D01*
X9092857Y-98920000D01*
X9092857Y-99091428D01*
X9150000Y-99205714D01*
X9207142Y-99262857D01*
X9321428Y-99320000D01*
X9664285Y-99320000D01*
X9778571Y-99262857D01*
X9835714Y-99205714D01*
X9892857Y-99091428D01*
X9892857Y-98920000D01*
X9892857Y-99834285D02*
X9092857Y-99834285D01*
X9207142Y-99834285D02*
X9150000Y-99891428D01*
X9092857Y-100005714D01*
X9092857Y-100177142D01*
X9150000Y-100291428D01*
X9264285Y-100348571D01*
X9892857Y-100348571D01*
X9264285Y-100348571D02*
X9150000Y-100405714D01*
X9092857Y-100520000D01*
X9092857Y-100691428D01*
X9150000Y-100805714D01*
X9264285Y-100862857D01*
X9892857Y-100862857D01*
D12*
X8626000Y-61884000D03*
X13726000Y-63084000D03*
D13*
X30226000Y-94742000D03*
D14*
X22726000Y-94742000D03*
D15*
X8100000Y-11345000D03*
X8100000Y-14115000D03*
X8100000Y-16885000D03*
X8100000Y-19655000D03*
X10940000Y-9960000D03*
X10940000Y-12730000D03*
D16*
X10940000Y-21040000D03*
D15*
X10940000Y-18270000D03*
X10940000Y-15500000D03*
D17*
X9520000Y-3005000D03*
X9520000Y-27995000D03*
D18*
X41148000Y-37846000D03*
D19*
X38608000Y-37846000D03*
X41148000Y-35306000D03*
X38608000Y-35306000D03*
X41148000Y-32766000D03*
X38608000Y-32766000D03*
X41148000Y-30226000D03*
X38608000Y-30226000D03*
X41148000Y-27686000D03*
X38608000Y-27686000D03*
X28194000Y-27686000D03*
X30734000Y-27686000D03*
X28194000Y-30226000D03*
X30734000Y-30226000D03*
X28194000Y-32766000D03*
X30734000Y-32766000D03*
X28194000Y-35306000D03*
X30734000Y-35306000D03*
X28194000Y-37846000D03*
D18*
X30734000Y-37846000D03*
D20*
X38500000Y-115750000D03*
X38500000Y-151250000D03*
D21*
X34000000Y-2430000D03*
X34000000Y-15570000D03*
D12*
X12710000Y-78000000D03*
X17790000Y-78000000D03*
D22*
X17790000Y-81810000D03*
X17790000Y-74190000D03*
D23*
X36836500Y-82892000D03*
X36836500Y-93092000D03*
D24*
X36836500Y-87992000D03*
D23*
X41936500Y-87992000D03*
X41936500Y-102992000D03*
D24*
X36836500Y-102992000D03*
D23*
X36836500Y-108092000D03*
X36836500Y-97892000D03*
D15*
X27370000Y-142390000D03*
X27370000Y-139850000D03*
X27370000Y-137310000D03*
X27370000Y-134770000D03*
X27370000Y-132230000D03*
X27370000Y-129690000D03*
X27370000Y-127150000D03*
X27370000Y-124610000D03*
X32450000Y-141120000D03*
X32450000Y-138580000D03*
X32450000Y-136040000D03*
X32450000Y-125880000D03*
X32450000Y-128420000D03*
X32450000Y-130960000D03*
X32450000Y-133500000D03*
D12*
X24770000Y-108650000D03*
X29210000Y-118180000D03*
X24770000Y-145650000D03*
X29210000Y-155180000D03*
D25*
X37076000Y-76414000D03*
X37076000Y-72214000D03*
X42576000Y-76414000D03*
D26*
X42576000Y-72214000D03*
D27*
X12446000Y-40204000D03*
D28*
X12446000Y-37664000D03*
X12446000Y-35124000D03*
X12446000Y-32584000D03*
D29*
X22606000Y-67310000D03*
X15875000Y-51562000D03*
X17399000Y-51562000D03*
X18923000Y-51562000D03*
X22078000Y-32258000D03*
X19050000Y-32258000D03*
X20574000Y-32258000D03*
X19090400Y-58415800D03*
X30535191Y-49371793D03*
D30*
X41936500Y-87992000D02*
X41936500Y-94461500D01*
X42576000Y-76414000D02*
X42576000Y-80614000D01*
X42576000Y-80614000D02*
X41936500Y-81253500D01*
X41936500Y-81253500D02*
X41936500Y-87992000D01*
X8866000Y-23114000D02*
X5334000Y-23114000D01*
X10940000Y-21040000D02*
X8866000Y-23114000D01*
X5334000Y-23114000D02*
X2794000Y-25654000D01*
X2794000Y-25654000D02*
X2794000Y-56052000D01*
X2794000Y-56052000D02*
X8626000Y-61884000D01*
X29972000Y-124714000D02*
X32512000Y-122174000D01*
X29972000Y-127000000D02*
X29972000Y-124714000D01*
X32512000Y-122174000D02*
X32512000Y-105410000D01*
X32512000Y-105410000D02*
X30226000Y-103124000D01*
X30226000Y-103124000D02*
X30226000Y-94742000D01*
X5080000Y-76454000D02*
X5080000Y-65430000D01*
X11684000Y-83058000D02*
X5080000Y-76454000D01*
X11684000Y-87122000D02*
X11684000Y-83058000D01*
X13716000Y-89154000D02*
X11684000Y-87122000D01*
X30226000Y-94742000D02*
X24638000Y-89154000D01*
X24638000Y-89154000D02*
X13716000Y-89154000D01*
X5080000Y-65430000D02*
X8626000Y-61884000D01*
X29972000Y-138684000D02*
X29972000Y-127000000D01*
X27370000Y-127150000D02*
X29822000Y-127150000D01*
X29822000Y-127150000D02*
X29972000Y-127000000D01*
X28806000Y-139850000D02*
X29972000Y-138684000D01*
X27370000Y-139850000D02*
X28806000Y-139850000D01*
X37076000Y-68572000D02*
X31588000Y-63084000D01*
X37076000Y-72214000D02*
X37076000Y-68572000D01*
X31588000Y-63084000D02*
X13726000Y-63084000D01*
X37076000Y-76414000D02*
X37076000Y-72214000D01*
D31*
G36*
X10149000Y-86970823D02*
X10118929Y-87122000D01*
X10149000Y-87273177D01*
X10149000Y-87273181D01*
X10238062Y-87720926D01*
X10577327Y-88228673D01*
X10705495Y-88314312D01*
X12523689Y-90132507D01*
X12609327Y-90260673D01*
X13117073Y-90599938D01*
X13564818Y-90689000D01*
X13564823Y-90689000D01*
X13716000Y-90719071D01*
X13867177Y-90689000D01*
X24002183Y-90689000D01*
X28378560Y-95065378D01*
X28378560Y-95942000D01*
X28427843Y-96189765D01*
X28568191Y-96399809D01*
X28691001Y-96481869D01*
X28691000Y-102972823D01*
X28660929Y-103124000D01*
X28691000Y-103275177D01*
X28691000Y-103275181D01*
X28780062Y-103722926D01*
X29119327Y-104230673D01*
X29247495Y-104316312D01*
X30977001Y-106045819D01*
X30977000Y-121538182D01*
X28993493Y-123521690D01*
X28865328Y-123607327D01*
X28779691Y-123735492D01*
X28779690Y-123735493D01*
X28644689Y-123937536D01*
X28586534Y-123797138D01*
X28182862Y-123393466D01*
X27655439Y-123175000D01*
X27084561Y-123175000D01*
X26557138Y-123393466D01*
X26153466Y-123797138D01*
X25935000Y-124324561D01*
X25935000Y-124895439D01*
X26153466Y-125422862D01*
X26557138Y-125826534D01*
X26576054Y-125834369D01*
X26263327Y-126043327D01*
X25924062Y-126551073D01*
X25804928Y-127150000D01*
X25924062Y-127748927D01*
X26263327Y-128256673D01*
X26576054Y-128465631D01*
X26557138Y-128473466D01*
X26153466Y-128877138D01*
X25935000Y-129404561D01*
X25935000Y-129975439D01*
X26153466Y-130502862D01*
X26557138Y-130906534D01*
X26686216Y-130960000D01*
X26557138Y-131013466D01*
X26153466Y-131417138D01*
X25935000Y-131944561D01*
X25935000Y-132515439D01*
X26153466Y-133042862D01*
X26557138Y-133446534D01*
X26670583Y-133493525D01*
X26615995Y-133516136D01*
X26541861Y-133762255D01*
X27370000Y-134590395D01*
X28198139Y-133762255D01*
X28124005Y-133516136D01*
X28065552Y-133495126D01*
X28182862Y-133446534D01*
X28437000Y-133192396D01*
X28437000Y-133959709D01*
X28377745Y-133941861D01*
X27549605Y-134770000D01*
X28377745Y-135598139D01*
X28437000Y-135580291D01*
X28437000Y-136347604D01*
X28182862Y-136093466D01*
X28069417Y-136046475D01*
X28124005Y-136023864D01*
X28198139Y-135777745D01*
X27370000Y-134949605D01*
X26541861Y-135777745D01*
X26615995Y-136023864D01*
X26674448Y-136044874D01*
X26557138Y-136093466D01*
X26153466Y-136497138D01*
X25935000Y-137024561D01*
X25935000Y-137595439D01*
X26153466Y-138122862D01*
X26557138Y-138526534D01*
X26576054Y-138534369D01*
X26263327Y-138743327D01*
X25924062Y-139251073D01*
X25804928Y-139850000D01*
X25924062Y-140448927D01*
X26263327Y-140956673D01*
X26576054Y-141165631D01*
X26557138Y-141173466D01*
X26153466Y-141577138D01*
X25935000Y-142104561D01*
X25935000Y-142675439D01*
X26153466Y-143202862D01*
X26557138Y-143606534D01*
X27084561Y-143825000D01*
X27655439Y-143825000D01*
X28182862Y-143606534D01*
X28586534Y-143202862D01*
X28805000Y-142675439D01*
X28805000Y-142104561D01*
X28586534Y-141577138D01*
X28394396Y-141385000D01*
X28654823Y-141385000D01*
X28806000Y-141415071D01*
X28957177Y-141385000D01*
X28957182Y-141385000D01*
X29404927Y-141295938D01*
X29912673Y-140956673D01*
X29998312Y-140828505D01*
X30950508Y-139876310D01*
X31078673Y-139790673D01*
X31300015Y-139459411D01*
X31637138Y-139796534D01*
X31766216Y-139850000D01*
X31637138Y-139903466D01*
X31233466Y-140307138D01*
X31015000Y-140834561D01*
X31015000Y-141405439D01*
X31233466Y-141932862D01*
X31637138Y-142336534D01*
X32164561Y-142555000D01*
X32735439Y-142555000D01*
X33262862Y-142336534D01*
X33666534Y-141932862D01*
X33885000Y-141405439D01*
X33885000Y-140834561D01*
X33666534Y-140307138D01*
X33262862Y-139903466D01*
X33133784Y-139850000D01*
X33262862Y-139796534D01*
X33666534Y-139392862D01*
X33885000Y-138865439D01*
X33885000Y-138294561D01*
X33666534Y-137767138D01*
X33262862Y-137363466D01*
X33133784Y-137310000D01*
X33262862Y-137256534D01*
X33666534Y-136852862D01*
X33885000Y-136325439D01*
X33885000Y-135754561D01*
X33666534Y-135227138D01*
X33262862Y-134823466D01*
X33149417Y-134776475D01*
X33204005Y-134753864D01*
X33278139Y-134507745D01*
X32450000Y-133679605D01*
X32435858Y-133693748D01*
X32256252Y-133514142D01*
X32270395Y-133500000D01*
X32629605Y-133500000D01*
X33457745Y-134328139D01*
X33703864Y-134254005D01*
X33896965Y-133716777D01*
X33869778Y-133146546D01*
X33703864Y-132745995D01*
X33457745Y-132671861D01*
X32629605Y-133500000D01*
X32270395Y-133500000D01*
X32256252Y-133485858D01*
X32435858Y-133306252D01*
X32450000Y-133320395D01*
X33278139Y-132492255D01*
X33204005Y-132246136D01*
X33145552Y-132225126D01*
X33262862Y-132176534D01*
X33666534Y-131772862D01*
X33885000Y-131245439D01*
X33885000Y-130674561D01*
X33666534Y-130147138D01*
X33262862Y-129743466D01*
X33133784Y-129690000D01*
X33262862Y-129636534D01*
X33666534Y-129232862D01*
X33885000Y-128705439D01*
X33885000Y-128134561D01*
X33666534Y-127607138D01*
X33262862Y-127203466D01*
X33133784Y-127150000D01*
X33262862Y-127096534D01*
X33666534Y-126692862D01*
X33885000Y-126165439D01*
X33885000Y-125594561D01*
X33666534Y-125067138D01*
X33262862Y-124663466D01*
X32735439Y-124445000D01*
X32411818Y-124445000D01*
X33490508Y-123366310D01*
X33618673Y-123280673D01*
X33957938Y-122772927D01*
X34047000Y-122325182D01*
X34047000Y-122325178D01*
X34077071Y-122174001D01*
X34047000Y-122022824D01*
X34047000Y-115275594D01*
X36115000Y-115275594D01*
X36115000Y-116224406D01*
X36478095Y-117100994D01*
X37149006Y-117771905D01*
X38025594Y-118135000D01*
X38974406Y-118135000D01*
X39850994Y-117771905D01*
X40521905Y-117100994D01*
X40885000Y-116224406D01*
X40885000Y-115275594D01*
X40521905Y-114399006D01*
X39850994Y-113728095D01*
X38974406Y-113365000D01*
X38025594Y-113365000D01*
X37149006Y-113728095D01*
X36478095Y-114399006D01*
X36115000Y-115275594D01*
X34047000Y-115275594D01*
X34047000Y-109967022D01*
X35141084Y-109967022D01*
X35361853Y-110337743D01*
X36333512Y-110731119D01*
X37381747Y-110722713D01*
X38311147Y-110337743D01*
X38531916Y-109967022D01*
X36836500Y-108271605D01*
X35141084Y-109967022D01*
X34047000Y-109967022D01*
X34047000Y-107589012D01*
X34197381Y-107589012D01*
X34205787Y-108637247D01*
X34590757Y-109566647D01*
X34961478Y-109787416D01*
X36656895Y-108092000D01*
X37016105Y-108092000D01*
X38711522Y-109787416D01*
X39082243Y-109566647D01*
X39475619Y-108594988D01*
X39467213Y-107546753D01*
X39082243Y-106617353D01*
X38711522Y-106396584D01*
X37016105Y-108092000D01*
X36656895Y-108092000D01*
X34961478Y-106396584D01*
X34590757Y-106617353D01*
X34197381Y-107589012D01*
X34047000Y-107589012D01*
X34047000Y-106216978D01*
X35141084Y-106216978D01*
X36836500Y-107912395D01*
X38531916Y-106216978D01*
X38311147Y-105846257D01*
X37339488Y-105452881D01*
X36291253Y-105461287D01*
X35361853Y-105846257D01*
X35141084Y-106216978D01*
X34047000Y-106216978D01*
X34047000Y-105561176D01*
X34077071Y-105409999D01*
X34047000Y-105258822D01*
X34047000Y-105258818D01*
X33957938Y-104811073D01*
X33618673Y-104303327D01*
X33490507Y-104217690D01*
X31840139Y-102567322D01*
X34701500Y-102567322D01*
X34701500Y-103416678D01*
X35026534Y-104201380D01*
X35627120Y-104801966D01*
X36411822Y-105127000D01*
X37261178Y-105127000D01*
X37888820Y-104867022D01*
X40241084Y-104867022D01*
X40461853Y-105237743D01*
X41433512Y-105631119D01*
X42481747Y-105622713D01*
X43411147Y-105237743D01*
X43631916Y-104867022D01*
X41936500Y-103171605D01*
X40241084Y-104867022D01*
X37888820Y-104867022D01*
X38045880Y-104801966D01*
X38646466Y-104201380D01*
X38971500Y-103416678D01*
X38971500Y-102567322D01*
X38939063Y-102489012D01*
X39297381Y-102489012D01*
X39305787Y-103537247D01*
X39690757Y-104466647D01*
X40061478Y-104687416D01*
X41756895Y-102992000D01*
X40061478Y-101296584D01*
X39690757Y-101517353D01*
X39297381Y-102489012D01*
X38939063Y-102489012D01*
X38646466Y-101782620D01*
X38045880Y-101182034D01*
X37888821Y-101116978D01*
X40241084Y-101116978D01*
X41936500Y-102812395D01*
X43631916Y-101116978D01*
X43411147Y-100746257D01*
X42439488Y-100352881D01*
X41391253Y-100361287D01*
X40461853Y-100746257D01*
X40241084Y-101116978D01*
X37888821Y-101116978D01*
X37261178Y-100857000D01*
X36411822Y-100857000D01*
X35627120Y-101182034D01*
X35026534Y-101782620D01*
X34701500Y-102567322D01*
X31840139Y-102567322D01*
X31761000Y-102488183D01*
X31761000Y-99767022D01*
X35141084Y-99767022D01*
X35361853Y-100137743D01*
X36333512Y-100531119D01*
X37381747Y-100522713D01*
X38311147Y-100137743D01*
X38531916Y-99767022D01*
X36836500Y-98071605D01*
X35141084Y-99767022D01*
X31761000Y-99767022D01*
X31761000Y-97389012D01*
X34197381Y-97389012D01*
X34205787Y-98437247D01*
X34590757Y-99366647D01*
X34961478Y-99587416D01*
X36656895Y-97892000D01*
X37016105Y-97892000D01*
X38711522Y-99587416D01*
X39082243Y-99366647D01*
X39475619Y-98394988D01*
X39467213Y-97346753D01*
X39082243Y-96417353D01*
X38711522Y-96196584D01*
X37016105Y-97892000D01*
X36656895Y-97892000D01*
X34961478Y-96196584D01*
X34590757Y-96417353D01*
X34197381Y-97389012D01*
X31761000Y-97389012D01*
X31761000Y-96481868D01*
X31883809Y-96399809D01*
X32024157Y-96189765D01*
X32073440Y-95942000D01*
X32073440Y-94967022D01*
X35141084Y-94967022D01*
X35361853Y-95337743D01*
X35738520Y-95490237D01*
X35361853Y-95646257D01*
X35141084Y-96016978D01*
X36836500Y-97712395D01*
X38531916Y-96016978D01*
X38311147Y-95646257D01*
X37934480Y-95493763D01*
X38311147Y-95337743D01*
X38531916Y-94967022D01*
X36836500Y-93271605D01*
X35141084Y-94967022D01*
X32073440Y-94967022D01*
X32073440Y-93542000D01*
X32024157Y-93294235D01*
X31883809Y-93084191D01*
X31673765Y-92943843D01*
X31426000Y-92894560D01*
X30549378Y-92894560D01*
X30243830Y-92589012D01*
X34197381Y-92589012D01*
X34205787Y-93637247D01*
X34590757Y-94566647D01*
X34961478Y-94787416D01*
X36656895Y-93092000D01*
X37016105Y-93092000D01*
X38711522Y-94787416D01*
X39082243Y-94566647D01*
X39475619Y-93594988D01*
X39467213Y-92546753D01*
X39082243Y-91617353D01*
X38711522Y-91396584D01*
X37016105Y-93092000D01*
X36656895Y-93092000D01*
X34961478Y-91396584D01*
X34590757Y-91617353D01*
X34197381Y-92589012D01*
X30243830Y-92589012D01*
X28871796Y-91216978D01*
X35141084Y-91216978D01*
X36836500Y-92912395D01*
X38531916Y-91216978D01*
X38311147Y-90846257D01*
X37339488Y-90452881D01*
X36291253Y-90461287D01*
X35361853Y-90846257D01*
X35141084Y-91216978D01*
X28871796Y-91216978D01*
X25830312Y-88175495D01*
X25744673Y-88047327D01*
X25236927Y-87708062D01*
X24789182Y-87619000D01*
X24789177Y-87619000D01*
X24638000Y-87588929D01*
X24486823Y-87619000D01*
X14351818Y-87619000D01*
X13219000Y-86486183D01*
X13219000Y-86127000D01*
X35759984Y-86127000D01*
X35627120Y-86182034D01*
X35026534Y-86782620D01*
X34701500Y-87567322D01*
X34701500Y-88416678D01*
X35026534Y-89201380D01*
X35627120Y-89801966D01*
X36411822Y-90127000D01*
X37261178Y-90127000D01*
X37888820Y-89867022D01*
X40241084Y-89867022D01*
X40461853Y-90237743D01*
X41433512Y-90631119D01*
X42481747Y-90622713D01*
X43411147Y-90237743D01*
X43631916Y-89867022D01*
X41936500Y-88171605D01*
X40241084Y-89867022D01*
X37888820Y-89867022D01*
X38045880Y-89801966D01*
X38646466Y-89201380D01*
X38971500Y-88416678D01*
X38971500Y-87567322D01*
X38646466Y-86782620D01*
X38045880Y-86182034D01*
X37913016Y-86127000D01*
X40005560Y-86127000D01*
X39948726Y-86183834D01*
X40061477Y-86296585D01*
X39690757Y-86517353D01*
X39297381Y-87489012D01*
X39305787Y-88537247D01*
X39690757Y-89466647D01*
X40061478Y-89687416D01*
X41756895Y-87992000D01*
X41742752Y-87977858D01*
X41922358Y-87798252D01*
X41936500Y-87812395D01*
X41950642Y-87798252D01*
X42130248Y-87977858D01*
X42116105Y-87992000D01*
X43811522Y-89687416D01*
X44182243Y-89466647D01*
X44290001Y-89200480D01*
X44290001Y-101777503D01*
X44182243Y-101517353D01*
X43811522Y-101296584D01*
X42116105Y-102992000D01*
X43811522Y-104687416D01*
X44182243Y-104466647D01*
X44290001Y-104200480D01*
X44290001Y-164290000D01*
X710000Y-164290000D01*
X710000Y-154834887D01*
X27475000Y-154834887D01*
X27475000Y-155525113D01*
X27739138Y-156162799D01*
X28227201Y-156650862D01*
X28864887Y-156915000D01*
X29555113Y-156915000D01*
X30192799Y-156650862D01*
X30680862Y-156162799D01*
X30945000Y-155525113D01*
X30945000Y-154834887D01*
X30680862Y-154197201D01*
X30192799Y-153709138D01*
X29555113Y-153445000D01*
X28864887Y-153445000D01*
X28227201Y-153709138D01*
X27739138Y-154197201D01*
X27475000Y-154834887D01*
X710000Y-154834887D01*
X710000Y-150775594D01*
X36115000Y-150775594D01*
X36115000Y-151724406D01*
X36478095Y-152600994D01*
X37149006Y-153271905D01*
X38025594Y-153635000D01*
X38974406Y-153635000D01*
X39850994Y-153271905D01*
X40521905Y-152600994D01*
X40885000Y-151724406D01*
X40885000Y-150775594D01*
X40521905Y-149899006D01*
X39850994Y-149228095D01*
X38974406Y-148865000D01*
X38025594Y-148865000D01*
X37149006Y-149228095D01*
X36478095Y-149899006D01*
X36115000Y-150775594D01*
X710000Y-150775594D01*
X710000Y-145304887D01*
X23035000Y-145304887D01*
X23035000Y-145995113D01*
X23299138Y-146632799D01*
X23787201Y-147120862D01*
X24424887Y-147385000D01*
X25115113Y-147385000D01*
X25752799Y-147120862D01*
X26240862Y-146632799D01*
X26505000Y-145995113D01*
X26505000Y-145304887D01*
X26240862Y-144667201D01*
X25752799Y-144179138D01*
X25115113Y-143915000D01*
X24424887Y-143915000D01*
X23787201Y-144179138D01*
X23299138Y-144667201D01*
X23035000Y-145304887D01*
X710000Y-145304887D01*
X710000Y-134553223D01*
X25923035Y-134553223D01*
X25950222Y-135123454D01*
X26116136Y-135524005D01*
X26362255Y-135598139D01*
X27190395Y-134770000D01*
X26362255Y-133941861D01*
X26116136Y-134015995D01*
X25923035Y-134553223D01*
X710000Y-134553223D01*
X710000Y-117834887D01*
X27475000Y-117834887D01*
X27475000Y-118525113D01*
X27739138Y-119162799D01*
X28227201Y-119650862D01*
X28864887Y-119915000D01*
X29555113Y-119915000D01*
X30192799Y-119650862D01*
X30680862Y-119162799D01*
X30945000Y-118525113D01*
X30945000Y-117834887D01*
X30680862Y-117197201D01*
X30192799Y-116709138D01*
X29555113Y-116445000D01*
X28864887Y-116445000D01*
X28227201Y-116709138D01*
X27739138Y-117197201D01*
X27475000Y-117834887D01*
X710000Y-117834887D01*
X710000Y-108304887D01*
X23035000Y-108304887D01*
X23035000Y-108995113D01*
X23299138Y-109632799D01*
X23787201Y-110120862D01*
X24424887Y-110385000D01*
X25115113Y-110385000D01*
X25752799Y-110120862D01*
X26240862Y-109632799D01*
X26505000Y-108995113D01*
X26505000Y-108304887D01*
X26240862Y-107667201D01*
X25752799Y-107179138D01*
X25115113Y-106915000D01*
X24424887Y-106915000D01*
X23787201Y-107179138D01*
X23299138Y-107667201D01*
X23035000Y-108304887D01*
X710000Y-108304887D01*
X710000Y-90613571D01*
X1801000Y-90613571D01*
X1801000Y-102426428D01*
X11071000Y-102426428D01*
X11071000Y-96039175D01*
X21608430Y-96039175D01*
X21731565Y-96326788D01*
X22413734Y-96586707D01*
X23143443Y-96565786D01*
X23720435Y-96326788D01*
X23843570Y-96039175D01*
X22726000Y-94921605D01*
X21608430Y-96039175D01*
X11071000Y-96039175D01*
X11071000Y-94429734D01*
X20881293Y-94429734D01*
X20902214Y-95159443D01*
X21141212Y-95736435D01*
X21428825Y-95859570D01*
X22546395Y-94742000D01*
X22905605Y-94742000D01*
X24023175Y-95859570D01*
X24310788Y-95736435D01*
X24570707Y-95054266D01*
X24549786Y-94324557D01*
X24310788Y-93747565D01*
X24023175Y-93624430D01*
X22905605Y-94742000D01*
X22546395Y-94742000D01*
X21428825Y-93624430D01*
X21141212Y-93747565D01*
X20881293Y-94429734D01*
X11071000Y-94429734D01*
X11071000Y-93444825D01*
X21608430Y-93444825D01*
X22726000Y-94562395D01*
X23843570Y-93444825D01*
X23720435Y-93157212D01*
X23038266Y-92897293D01*
X22308557Y-92918214D01*
X21731565Y-93157212D01*
X21608430Y-93444825D01*
X11071000Y-93444825D01*
X11071000Y-90613571D01*
X1801000Y-90613571D01*
X710000Y-90613571D01*
X710000Y-86127000D01*
X10149000Y-86127000D01*
X10149000Y-86970823D01*
X10149000Y-86970823D01*
G37*
X10149000Y-86970823D02*
X10118929Y-87122000D01*
X10149000Y-87273177D01*
X10149000Y-87273181D01*
X10238062Y-87720926D01*
X10577327Y-88228673D01*
X10705495Y-88314312D01*
X12523689Y-90132507D01*
X12609327Y-90260673D01*
X13117073Y-90599938D01*
X13564818Y-90689000D01*
X13564823Y-90689000D01*
X13716000Y-90719071D01*
X13867177Y-90689000D01*
X24002183Y-90689000D01*
X28378560Y-95065378D01*
X28378560Y-95942000D01*
X28427843Y-96189765D01*
X28568191Y-96399809D01*
X28691001Y-96481869D01*
X28691000Y-102972823D01*
X28660929Y-103124000D01*
X28691000Y-103275177D01*
X28691000Y-103275181D01*
X28780062Y-103722926D01*
X29119327Y-104230673D01*
X29247495Y-104316312D01*
X30977001Y-106045819D01*
X30977000Y-121538182D01*
X28993493Y-123521690D01*
X28865328Y-123607327D01*
X28779691Y-123735492D01*
X28779690Y-123735493D01*
X28644689Y-123937536D01*
X28586534Y-123797138D01*
X28182862Y-123393466D01*
X27655439Y-123175000D01*
X27084561Y-123175000D01*
X26557138Y-123393466D01*
X26153466Y-123797138D01*
X25935000Y-124324561D01*
X25935000Y-124895439D01*
X26153466Y-125422862D01*
X26557138Y-125826534D01*
X26576054Y-125834369D01*
X26263327Y-126043327D01*
X25924062Y-126551073D01*
X25804928Y-127150000D01*
X25924062Y-127748927D01*
X26263327Y-128256673D01*
X26576054Y-128465631D01*
X26557138Y-128473466D01*
X26153466Y-128877138D01*
X25935000Y-129404561D01*
X25935000Y-129975439D01*
X26153466Y-130502862D01*
X26557138Y-130906534D01*
X26686216Y-130960000D01*
X26557138Y-131013466D01*
X26153466Y-131417138D01*
X25935000Y-131944561D01*
X25935000Y-132515439D01*
X26153466Y-133042862D01*
X26557138Y-133446534D01*
X26670583Y-133493525D01*
X26615995Y-133516136D01*
X26541861Y-133762255D01*
X27370000Y-134590395D01*
X28198139Y-133762255D01*
X28124005Y-133516136D01*
X28065552Y-133495126D01*
X28182862Y-133446534D01*
X28437000Y-133192396D01*
X28437000Y-133959709D01*
X28377745Y-133941861D01*
X27549605Y-134770000D01*
X28377745Y-135598139D01*
X28437000Y-135580291D01*
X28437000Y-136347604D01*
X28182862Y-136093466D01*
X28069417Y-136046475D01*
X28124005Y-136023864D01*
X28198139Y-135777745D01*
X27370000Y-134949605D01*
X26541861Y-135777745D01*
X26615995Y-136023864D01*
X26674448Y-136044874D01*
X26557138Y-136093466D01*
X26153466Y-136497138D01*
X25935000Y-137024561D01*
X25935000Y-137595439D01*
X26153466Y-138122862D01*
X26557138Y-138526534D01*
X26576054Y-138534369D01*
X26263327Y-138743327D01*
X25924062Y-139251073D01*
X25804928Y-139850000D01*
X25924062Y-140448927D01*
X26263327Y-140956673D01*
X26576054Y-141165631D01*
X26557138Y-141173466D01*
X26153466Y-141577138D01*
X25935000Y-142104561D01*
X25935000Y-142675439D01*
X26153466Y-143202862D01*
X26557138Y-143606534D01*
X27084561Y-143825000D01*
X27655439Y-143825000D01*
X28182862Y-143606534D01*
X28586534Y-143202862D01*
X28805000Y-142675439D01*
X28805000Y-142104561D01*
X28586534Y-141577138D01*
X28394396Y-141385000D01*
X28654823Y-141385000D01*
X28806000Y-141415071D01*
X28957177Y-141385000D01*
X28957182Y-141385000D01*
X29404927Y-141295938D01*
X29912673Y-140956673D01*
X29998312Y-140828505D01*
X30950508Y-139876310D01*
X31078673Y-139790673D01*
X31300015Y-139459411D01*
X31637138Y-139796534D01*
X31766216Y-139850000D01*
X31637138Y-139903466D01*
X31233466Y-140307138D01*
X31015000Y-140834561D01*
X31015000Y-141405439D01*
X31233466Y-141932862D01*
X31637138Y-142336534D01*
X32164561Y-142555000D01*
X32735439Y-142555000D01*
X33262862Y-142336534D01*
X33666534Y-141932862D01*
X33885000Y-141405439D01*
X33885000Y-140834561D01*
X33666534Y-140307138D01*
X33262862Y-139903466D01*
X33133784Y-139850000D01*
X33262862Y-139796534D01*
X33666534Y-139392862D01*
X33885000Y-138865439D01*
X33885000Y-138294561D01*
X33666534Y-137767138D01*
X33262862Y-137363466D01*
X33133784Y-137310000D01*
X33262862Y-137256534D01*
X33666534Y-136852862D01*
X33885000Y-136325439D01*
X33885000Y-135754561D01*
X33666534Y-135227138D01*
X33262862Y-134823466D01*
X33149417Y-134776475D01*
X33204005Y-134753864D01*
X33278139Y-134507745D01*
X32450000Y-133679605D01*
X32435858Y-133693748D01*
X32256252Y-133514142D01*
X32270395Y-133500000D01*
X32629605Y-133500000D01*
X33457745Y-134328139D01*
X33703864Y-134254005D01*
X33896965Y-133716777D01*
X33869778Y-133146546D01*
X33703864Y-132745995D01*
X33457745Y-132671861D01*
X32629605Y-133500000D01*
X32270395Y-133500000D01*
X32256252Y-133485858D01*
X32435858Y-133306252D01*
X32450000Y-133320395D01*
X33278139Y-132492255D01*
X33204005Y-132246136D01*
X33145552Y-132225126D01*
X33262862Y-132176534D01*
X33666534Y-131772862D01*
X33885000Y-131245439D01*
X33885000Y-130674561D01*
X33666534Y-130147138D01*
X33262862Y-129743466D01*
X33133784Y-129690000D01*
X33262862Y-129636534D01*
X33666534Y-129232862D01*
X33885000Y-128705439D01*
X33885000Y-128134561D01*
X33666534Y-127607138D01*
X33262862Y-127203466D01*
X33133784Y-127150000D01*
X33262862Y-127096534D01*
X33666534Y-126692862D01*
X33885000Y-126165439D01*
X33885000Y-125594561D01*
X33666534Y-125067138D01*
X33262862Y-124663466D01*
X32735439Y-124445000D01*
X32411818Y-124445000D01*
X33490508Y-123366310D01*
X33618673Y-123280673D01*
X33957938Y-122772927D01*
X34047000Y-122325182D01*
X34047000Y-122325178D01*
X34077071Y-122174001D01*
X34047000Y-122022824D01*
X34047000Y-115275594D01*
X36115000Y-115275594D01*
X36115000Y-116224406D01*
X36478095Y-117100994D01*
X37149006Y-117771905D01*
X38025594Y-118135000D01*
X38974406Y-118135000D01*
X39850994Y-117771905D01*
X40521905Y-117100994D01*
X40885000Y-116224406D01*
X40885000Y-115275594D01*
X40521905Y-114399006D01*
X39850994Y-113728095D01*
X38974406Y-113365000D01*
X38025594Y-113365000D01*
X37149006Y-113728095D01*
X36478095Y-114399006D01*
X36115000Y-115275594D01*
X34047000Y-115275594D01*
X34047000Y-109967022D01*
X35141084Y-109967022D01*
X35361853Y-110337743D01*
X36333512Y-110731119D01*
X37381747Y-110722713D01*
X38311147Y-110337743D01*
X38531916Y-109967022D01*
X36836500Y-108271605D01*
X35141084Y-109967022D01*
X34047000Y-109967022D01*
X34047000Y-107589012D01*
X34197381Y-107589012D01*
X34205787Y-108637247D01*
X34590757Y-109566647D01*
X34961478Y-109787416D01*
X36656895Y-108092000D01*
X37016105Y-108092000D01*
X38711522Y-109787416D01*
X39082243Y-109566647D01*
X39475619Y-108594988D01*
X39467213Y-107546753D01*
X39082243Y-106617353D01*
X38711522Y-106396584D01*
X37016105Y-108092000D01*
X36656895Y-108092000D01*
X34961478Y-106396584D01*
X34590757Y-106617353D01*
X34197381Y-107589012D01*
X34047000Y-107589012D01*
X34047000Y-106216978D01*
X35141084Y-106216978D01*
X36836500Y-107912395D01*
X38531916Y-106216978D01*
X38311147Y-105846257D01*
X37339488Y-105452881D01*
X36291253Y-105461287D01*
X35361853Y-105846257D01*
X35141084Y-106216978D01*
X34047000Y-106216978D01*
X34047000Y-105561176D01*
X34077071Y-105409999D01*
X34047000Y-105258822D01*
X34047000Y-105258818D01*
X33957938Y-104811073D01*
X33618673Y-104303327D01*
X33490507Y-104217690D01*
X31840139Y-102567322D01*
X34701500Y-102567322D01*
X34701500Y-103416678D01*
X35026534Y-104201380D01*
X35627120Y-104801966D01*
X36411822Y-105127000D01*
X37261178Y-105127000D01*
X37888820Y-104867022D01*
X40241084Y-104867022D01*
X40461853Y-105237743D01*
X41433512Y-105631119D01*
X42481747Y-105622713D01*
X43411147Y-105237743D01*
X43631916Y-104867022D01*
X41936500Y-103171605D01*
X40241084Y-104867022D01*
X37888820Y-104867022D01*
X38045880Y-104801966D01*
X38646466Y-104201380D01*
X38971500Y-103416678D01*
X38971500Y-102567322D01*
X38939063Y-102489012D01*
X39297381Y-102489012D01*
X39305787Y-103537247D01*
X39690757Y-104466647D01*
X40061478Y-104687416D01*
X41756895Y-102992000D01*
X40061478Y-101296584D01*
X39690757Y-101517353D01*
X39297381Y-102489012D01*
X38939063Y-102489012D01*
X38646466Y-101782620D01*
X38045880Y-101182034D01*
X37888821Y-101116978D01*
X40241084Y-101116978D01*
X41936500Y-102812395D01*
X43631916Y-101116978D01*
X43411147Y-100746257D01*
X42439488Y-100352881D01*
X41391253Y-100361287D01*
X40461853Y-100746257D01*
X40241084Y-101116978D01*
X37888821Y-101116978D01*
X37261178Y-100857000D01*
X36411822Y-100857000D01*
X35627120Y-101182034D01*
X35026534Y-101782620D01*
X34701500Y-102567322D01*
X31840139Y-102567322D01*
X31761000Y-102488183D01*
X31761000Y-99767022D01*
X35141084Y-99767022D01*
X35361853Y-100137743D01*
X36333512Y-100531119D01*
X37381747Y-100522713D01*
X38311147Y-100137743D01*
X38531916Y-99767022D01*
X36836500Y-98071605D01*
X35141084Y-99767022D01*
X31761000Y-99767022D01*
X31761000Y-97389012D01*
X34197381Y-97389012D01*
X34205787Y-98437247D01*
X34590757Y-99366647D01*
X34961478Y-99587416D01*
X36656895Y-97892000D01*
X37016105Y-97892000D01*
X38711522Y-99587416D01*
X39082243Y-99366647D01*
X39475619Y-98394988D01*
X39467213Y-97346753D01*
X39082243Y-96417353D01*
X38711522Y-96196584D01*
X37016105Y-97892000D01*
X36656895Y-97892000D01*
X34961478Y-96196584D01*
X34590757Y-96417353D01*
X34197381Y-97389012D01*
X31761000Y-97389012D01*
X31761000Y-96481868D01*
X31883809Y-96399809D01*
X32024157Y-96189765D01*
X32073440Y-95942000D01*
X32073440Y-94967022D01*
X35141084Y-94967022D01*
X35361853Y-95337743D01*
X35738520Y-95490237D01*
X35361853Y-95646257D01*
X35141084Y-96016978D01*
X36836500Y-97712395D01*
X38531916Y-96016978D01*
X38311147Y-95646257D01*
X37934480Y-95493763D01*
X38311147Y-95337743D01*
X38531916Y-94967022D01*
X36836500Y-93271605D01*
X35141084Y-94967022D01*
X32073440Y-94967022D01*
X32073440Y-93542000D01*
X32024157Y-93294235D01*
X31883809Y-93084191D01*
X31673765Y-92943843D01*
X31426000Y-92894560D01*
X30549378Y-92894560D01*
X30243830Y-92589012D01*
X34197381Y-92589012D01*
X34205787Y-93637247D01*
X34590757Y-94566647D01*
X34961478Y-94787416D01*
X36656895Y-93092000D01*
X37016105Y-93092000D01*
X38711522Y-94787416D01*
X39082243Y-94566647D01*
X39475619Y-93594988D01*
X39467213Y-92546753D01*
X39082243Y-91617353D01*
X38711522Y-91396584D01*
X37016105Y-93092000D01*
X36656895Y-93092000D01*
X34961478Y-91396584D01*
X34590757Y-91617353D01*
X34197381Y-92589012D01*
X30243830Y-92589012D01*
X28871796Y-91216978D01*
X35141084Y-91216978D01*
X36836500Y-92912395D01*
X38531916Y-91216978D01*
X38311147Y-90846257D01*
X37339488Y-90452881D01*
X36291253Y-90461287D01*
X35361853Y-90846257D01*
X35141084Y-91216978D01*
X28871796Y-91216978D01*
X25830312Y-88175495D01*
X25744673Y-88047327D01*
X25236927Y-87708062D01*
X24789182Y-87619000D01*
X24789177Y-87619000D01*
X24638000Y-87588929D01*
X24486823Y-87619000D01*
X14351818Y-87619000D01*
X13219000Y-86486183D01*
X13219000Y-86127000D01*
X35759984Y-86127000D01*
X35627120Y-86182034D01*
X35026534Y-86782620D01*
X34701500Y-87567322D01*
X34701500Y-88416678D01*
X35026534Y-89201380D01*
X35627120Y-89801966D01*
X36411822Y-90127000D01*
X37261178Y-90127000D01*
X37888820Y-89867022D01*
X40241084Y-89867022D01*
X40461853Y-90237743D01*
X41433512Y-90631119D01*
X42481747Y-90622713D01*
X43411147Y-90237743D01*
X43631916Y-89867022D01*
X41936500Y-88171605D01*
X40241084Y-89867022D01*
X37888820Y-89867022D01*
X38045880Y-89801966D01*
X38646466Y-89201380D01*
X38971500Y-88416678D01*
X38971500Y-87567322D01*
X38646466Y-86782620D01*
X38045880Y-86182034D01*
X37913016Y-86127000D01*
X40005560Y-86127000D01*
X39948726Y-86183834D01*
X40061477Y-86296585D01*
X39690757Y-86517353D01*
X39297381Y-87489012D01*
X39305787Y-88537247D01*
X39690757Y-89466647D01*
X40061478Y-89687416D01*
X41756895Y-87992000D01*
X41742752Y-87977858D01*
X41922358Y-87798252D01*
X41936500Y-87812395D01*
X41950642Y-87798252D01*
X42130248Y-87977858D01*
X42116105Y-87992000D01*
X43811522Y-89687416D01*
X44182243Y-89466647D01*
X44290001Y-89200480D01*
X44290001Y-101777503D01*
X44182243Y-101517353D01*
X43811522Y-101296584D01*
X42116105Y-102992000D01*
X43811522Y-104687416D01*
X44182243Y-104466647D01*
X44290001Y-104200480D01*
X44290001Y-164290000D01*
X710000Y-164290000D01*
X710000Y-154834887D01*
X27475000Y-154834887D01*
X27475000Y-155525113D01*
X27739138Y-156162799D01*
X28227201Y-156650862D01*
X28864887Y-156915000D01*
X29555113Y-156915000D01*
X30192799Y-156650862D01*
X30680862Y-156162799D01*
X30945000Y-155525113D01*
X30945000Y-154834887D01*
X30680862Y-154197201D01*
X30192799Y-153709138D01*
X29555113Y-153445000D01*
X28864887Y-153445000D01*
X28227201Y-153709138D01*
X27739138Y-154197201D01*
X27475000Y-154834887D01*
X710000Y-154834887D01*
X710000Y-150775594D01*
X36115000Y-150775594D01*
X36115000Y-151724406D01*
X36478095Y-152600994D01*
X37149006Y-153271905D01*
X38025594Y-153635000D01*
X38974406Y-153635000D01*
X39850994Y-153271905D01*
X40521905Y-152600994D01*
X40885000Y-151724406D01*
X40885000Y-150775594D01*
X40521905Y-149899006D01*
X39850994Y-149228095D01*
X38974406Y-148865000D01*
X38025594Y-148865000D01*
X37149006Y-149228095D01*
X36478095Y-149899006D01*
X36115000Y-150775594D01*
X710000Y-150775594D01*
X710000Y-145304887D01*
X23035000Y-145304887D01*
X23035000Y-145995113D01*
X23299138Y-146632799D01*
X23787201Y-147120862D01*
X24424887Y-147385000D01*
X25115113Y-147385000D01*
X25752799Y-147120862D01*
X26240862Y-146632799D01*
X26505000Y-145995113D01*
X26505000Y-145304887D01*
X26240862Y-144667201D01*
X25752799Y-144179138D01*
X25115113Y-143915000D01*
X24424887Y-143915000D01*
X23787201Y-144179138D01*
X23299138Y-144667201D01*
X23035000Y-145304887D01*
X710000Y-145304887D01*
X710000Y-134553223D01*
X25923035Y-134553223D01*
X25950222Y-135123454D01*
X26116136Y-135524005D01*
X26362255Y-135598139D01*
X27190395Y-134770000D01*
X26362255Y-133941861D01*
X26116136Y-134015995D01*
X25923035Y-134553223D01*
X710000Y-134553223D01*
X710000Y-117834887D01*
X27475000Y-117834887D01*
X27475000Y-118525113D01*
X27739138Y-119162799D01*
X28227201Y-119650862D01*
X28864887Y-119915000D01*
X29555113Y-119915000D01*
X30192799Y-119650862D01*
X30680862Y-119162799D01*
X30945000Y-118525113D01*
X30945000Y-117834887D01*
X30680862Y-117197201D01*
X30192799Y-116709138D01*
X29555113Y-116445000D01*
X28864887Y-116445000D01*
X28227201Y-116709138D01*
X27739138Y-117197201D01*
X27475000Y-117834887D01*
X710000Y-117834887D01*
X710000Y-108304887D01*
X23035000Y-108304887D01*
X23035000Y-108995113D01*
X23299138Y-109632799D01*
X23787201Y-110120862D01*
X24424887Y-110385000D01*
X25115113Y-110385000D01*
X25752799Y-110120862D01*
X26240862Y-109632799D01*
X26505000Y-108995113D01*
X26505000Y-108304887D01*
X26240862Y-107667201D01*
X25752799Y-107179138D01*
X25115113Y-106915000D01*
X24424887Y-106915000D01*
X23787201Y-107179138D01*
X23299138Y-107667201D01*
X23035000Y-108304887D01*
X710000Y-108304887D01*
X710000Y-90613571D01*
X1801000Y-90613571D01*
X1801000Y-102426428D01*
X11071000Y-102426428D01*
X11071000Y-96039175D01*
X21608430Y-96039175D01*
X21731565Y-96326788D01*
X22413734Y-96586707D01*
X23143443Y-96565786D01*
X23720435Y-96326788D01*
X23843570Y-96039175D01*
X22726000Y-94921605D01*
X21608430Y-96039175D01*
X11071000Y-96039175D01*
X11071000Y-94429734D01*
X20881293Y-94429734D01*
X20902214Y-95159443D01*
X21141212Y-95736435D01*
X21428825Y-95859570D01*
X22546395Y-94742000D01*
X22905605Y-94742000D01*
X24023175Y-95859570D01*
X24310788Y-95736435D01*
X24570707Y-95054266D01*
X24549786Y-94324557D01*
X24310788Y-93747565D01*
X24023175Y-93624430D01*
X22905605Y-94742000D01*
X22546395Y-94742000D01*
X21428825Y-93624430D01*
X21141212Y-93747565D01*
X20881293Y-94429734D01*
X11071000Y-94429734D01*
X11071000Y-93444825D01*
X21608430Y-93444825D01*
X22726000Y-94562395D01*
X23843570Y-93444825D01*
X23720435Y-93157212D01*
X23038266Y-92897293D01*
X22308557Y-92918214D01*
X21731565Y-93157212D01*
X21608430Y-93444825D01*
X11071000Y-93444825D01*
X11071000Y-90613571D01*
X1801000Y-90613571D01*
X710000Y-90613571D01*
X710000Y-86127000D01*
X10149000Y-86127000D01*
X10149000Y-86970823D01*
G36*
X8030354Y-738613D02*
X7806537Y-1111932D01*
X9520000Y-2825395D01*
X11233463Y-1111932D01*
X11009646Y-738613D01*
X10939061Y-710000D01*
X32559233Y-710000D01*
X32105259Y-1163974D01*
X31765000Y-1985431D01*
X31765000Y-2874569D01*
X32105259Y-3696026D01*
X32733974Y-4324741D01*
X33555431Y-4665000D01*
X34444569Y-4665000D01*
X35266026Y-4324741D01*
X35894741Y-3696026D01*
X36235000Y-2874569D01*
X36235000Y-1985431D01*
X35894741Y-1163974D01*
X35440767Y-710000D01*
X44290000Y-710000D01*
X44290000Y-70256744D01*
X44102310Y-70179000D01*
X42861750Y-70179000D01*
X42703000Y-70337750D01*
X42703000Y-72087000D01*
X42723000Y-72087000D01*
X42723000Y-72341000D01*
X42703000Y-72341000D01*
X42703000Y-74090250D01*
X42861750Y-74249000D01*
X44102310Y-74249000D01*
X44290000Y-74171256D01*
X44290000Y-75282177D01*
X44017724Y-75151882D01*
X42755605Y-76414000D01*
X44017724Y-77676118D01*
X44290000Y-77545823D01*
X44290001Y-84873000D01*
X38468805Y-84873000D01*
X38531916Y-84767022D01*
X36836500Y-83071605D01*
X35141084Y-84767022D01*
X35204195Y-84873000D01*
X13219000Y-84873000D01*
X13219000Y-83209176D01*
X13249071Y-83057999D01*
X13219000Y-82906822D01*
X13219000Y-82906818D01*
X13129938Y-82459073D01*
X12790673Y-81951327D01*
X12662508Y-81865690D01*
X12221923Y-81425105D01*
X15855000Y-81425105D01*
X15855000Y-82194895D01*
X16149586Y-82906090D01*
X16693910Y-83450414D01*
X17405105Y-83745000D01*
X18174895Y-83745000D01*
X18886090Y-83450414D01*
X19430414Y-82906090D01*
X19644594Y-82389012D01*
X34197381Y-82389012D01*
X34205787Y-83437247D01*
X34590757Y-84366647D01*
X34961478Y-84587416D01*
X36656895Y-82892000D01*
X37016105Y-82892000D01*
X38711522Y-84587416D01*
X39082243Y-84366647D01*
X39475619Y-83394988D01*
X39467213Y-82346753D01*
X39082243Y-81417353D01*
X38711522Y-81196584D01*
X37016105Y-82892000D01*
X36656895Y-82892000D01*
X34961478Y-81196584D01*
X34590757Y-81417353D01*
X34197381Y-82389012D01*
X19644594Y-82389012D01*
X19725000Y-82194895D01*
X19725000Y-81425105D01*
X19555949Y-81016978D01*
X35141084Y-81016978D01*
X36836500Y-82712395D01*
X38531916Y-81016978D01*
X38311147Y-80646257D01*
X37339488Y-80252881D01*
X36291253Y-80261287D01*
X35361853Y-80646257D01*
X35141084Y-81016978D01*
X19555949Y-81016978D01*
X19430414Y-80713910D01*
X18886090Y-80169586D01*
X18174895Y-79875000D01*
X17405105Y-79875000D01*
X16693910Y-80169586D01*
X16149586Y-80713910D01*
X15855000Y-81425105D01*
X12221923Y-81425105D01*
X8451705Y-77654887D01*
X10975000Y-77654887D01*
X10975000Y-78345113D01*
X11239138Y-78982799D01*
X11727201Y-79470862D01*
X12364887Y-79735000D01*
X13055113Y-79735000D01*
X13692799Y-79470862D01*
X14180862Y-78982799D01*
X14445000Y-78345113D01*
X14445000Y-77654887D01*
X16055000Y-77654887D01*
X16055000Y-78345113D01*
X16319138Y-78982799D01*
X16807201Y-79470862D01*
X17444887Y-79735000D01*
X18135113Y-79735000D01*
X18772799Y-79470862D01*
X19260862Y-78982799D01*
X19525000Y-78345113D01*
X19525000Y-77654887D01*
X19260862Y-77017201D01*
X18772799Y-76529138D01*
X18135113Y-76265000D01*
X17444887Y-76265000D01*
X16807201Y-76529138D01*
X16319138Y-77017201D01*
X16055000Y-77654887D01*
X14445000Y-77654887D01*
X14180862Y-77017201D01*
X13692799Y-76529138D01*
X13055113Y-76265000D01*
X12364887Y-76265000D01*
X11727201Y-76529138D01*
X11239138Y-77017201D01*
X10975000Y-77654887D01*
X8451705Y-77654887D01*
X6615000Y-75818183D01*
X6615000Y-73904561D01*
X7465000Y-73904561D01*
X7465000Y-74475439D01*
X7683466Y-75002862D01*
X8087138Y-75406534D01*
X8614561Y-75625000D01*
X9185439Y-75625000D01*
X9712862Y-75406534D01*
X10116534Y-75002862D01*
X10335000Y-74475439D01*
X10335000Y-73904561D01*
X10293804Y-73805105D01*
X15855000Y-73805105D01*
X15855000Y-74574895D01*
X16149586Y-75286090D01*
X16693910Y-75830414D01*
X17405105Y-76125000D01*
X18174895Y-76125000D01*
X18886090Y-75830414D01*
X19430414Y-75286090D01*
X19725000Y-74574895D01*
X19725000Y-73805105D01*
X19430414Y-73093910D01*
X18886090Y-72549586D01*
X18174895Y-72255000D01*
X17405105Y-72255000D01*
X16693910Y-72549586D01*
X16149586Y-73093910D01*
X15855000Y-73805105D01*
X10293804Y-73805105D01*
X10116534Y-73377138D01*
X9712862Y-72973466D01*
X9185439Y-72755000D01*
X8614561Y-72755000D01*
X8087138Y-72973466D01*
X7683466Y-73377138D01*
X7465000Y-73904561D01*
X6615000Y-73904561D01*
X6615000Y-66065817D01*
X9125956Y-63554862D01*
X9608799Y-63354862D01*
X10096862Y-62866799D01*
X10149844Y-62738887D01*
X11991000Y-62738887D01*
X11991000Y-63429113D01*
X12255138Y-64066799D01*
X12743201Y-64554862D01*
X13380887Y-64819000D01*
X14071113Y-64819000D01*
X14553956Y-64619000D01*
X30952183Y-64619000D01*
X35541001Y-69207819D01*
X35541000Y-70871075D01*
X35350810Y-71061265D01*
X35041000Y-71809213D01*
X35041000Y-72618787D01*
X35350810Y-73366735D01*
X35541001Y-73556926D01*
X35541000Y-75071075D01*
X35350810Y-75261265D01*
X35041000Y-76009213D01*
X35041000Y-76818787D01*
X35350810Y-77566735D01*
X35923265Y-78139190D01*
X36671213Y-78449000D01*
X37480787Y-78449000D01*
X38228735Y-78139190D01*
X38512201Y-77855724D01*
X41313882Y-77855724D01*
X41461455Y-78164106D01*
X42216031Y-78457405D01*
X43025409Y-78439614D01*
X43690545Y-78164106D01*
X43838118Y-77855724D01*
X42576000Y-76593605D01*
X41313882Y-77855724D01*
X38512201Y-77855724D01*
X38801190Y-77566735D01*
X39111000Y-76818787D01*
X39111000Y-76054031D01*
X40532595Y-76054031D01*
X40550386Y-76863409D01*
X40825894Y-77528545D01*
X41134276Y-77676118D01*
X42396395Y-76414000D01*
X41134276Y-75151882D01*
X40825894Y-75299455D01*
X40532595Y-76054031D01*
X39111000Y-76054031D01*
X39111000Y-76009213D01*
X38801190Y-75261265D01*
X38611000Y-75071075D01*
X38611000Y-74972276D01*
X41313882Y-74972276D01*
X42576000Y-76234395D01*
X43838118Y-74972276D01*
X43690545Y-74663894D01*
X42935969Y-74370595D01*
X42126591Y-74388386D01*
X41461455Y-74663894D01*
X41313882Y-74972276D01*
X38611000Y-74972276D01*
X38611000Y-73556925D01*
X38801190Y-73366735D01*
X39111000Y-72618787D01*
X39111000Y-72499750D01*
X40541000Y-72499750D01*
X40541000Y-73740309D01*
X40637673Y-73973698D01*
X40816301Y-74152327D01*
X41049690Y-74249000D01*
X42290250Y-74249000D01*
X42449000Y-74090250D01*
X42449000Y-72341000D01*
X40699750Y-72341000D01*
X40541000Y-72499750D01*
X39111000Y-72499750D01*
X39111000Y-71809213D01*
X38801190Y-71061265D01*
X38611000Y-70871075D01*
X38611000Y-70687691D01*
X40541000Y-70687691D01*
X40541000Y-71928250D01*
X40699750Y-72087000D01*
X42449000Y-72087000D01*
X42449000Y-70337750D01*
X42290250Y-70179000D01*
X41049690Y-70179000D01*
X40816301Y-70275673D01*
X40637673Y-70454302D01*
X40541000Y-70687691D01*
X38611000Y-70687691D01*
X38611000Y-68723176D01*
X38641071Y-68571999D01*
X38611000Y-68420822D01*
X38611000Y-68420818D01*
X38521938Y-67973073D01*
X38182673Y-67465327D01*
X38054508Y-67379690D01*
X32780312Y-62105495D01*
X32694673Y-61977327D01*
X32186927Y-61638062D01*
X31739182Y-61549000D01*
X31739177Y-61549000D01*
X31588000Y-61518929D01*
X31436823Y-61549000D01*
X14553956Y-61549000D01*
X14071113Y-61349000D01*
X13380887Y-61349000D01*
X12743201Y-61613138D01*
X12255138Y-62101201D01*
X11991000Y-62738887D01*
X10149844Y-62738887D01*
X10361000Y-62229113D01*
X10361000Y-61538887D01*
X10096862Y-60901201D01*
X9608799Y-60413138D01*
X9125956Y-60213138D01*
X4329000Y-55416183D01*
X4329000Y-50484452D01*
X5665000Y-50484452D01*
X5665000Y-51015548D01*
X5868242Y-51506217D01*
X6243783Y-51881758D01*
X6734452Y-52085000D01*
X7265548Y-52085000D01*
X7756217Y-51881758D01*
X8131758Y-51506217D01*
X8335000Y-51015548D01*
X8335000Y-50484452D01*
X8131758Y-49993783D01*
X7756217Y-49618242D01*
X7265548Y-49415000D01*
X6734452Y-49415000D01*
X6243783Y-49618242D01*
X5868242Y-49993783D01*
X5665000Y-50484452D01*
X4329000Y-50484452D01*
X4329000Y-44984452D01*
X5665000Y-44984452D01*
X5665000Y-45515548D01*
X5868242Y-46006217D01*
X6243783Y-46381758D01*
X6734452Y-46585000D01*
X7265548Y-46585000D01*
X7756217Y-46381758D01*
X8131758Y-46006217D01*
X8335000Y-45515548D01*
X8335000Y-44984452D01*
X8131758Y-44493783D01*
X7756217Y-44118242D01*
X7265548Y-43915000D01*
X6734452Y-43915000D01*
X6243783Y-44118242D01*
X5868242Y-44493783D01*
X5665000Y-44984452D01*
X4329000Y-44984452D01*
X4329000Y-37664000D01*
X10931908Y-37664000D01*
X11047161Y-38243418D01*
X11375375Y-38734625D01*
X11393619Y-38746816D01*
X11348235Y-38755843D01*
X11138191Y-38896191D01*
X10997843Y-39106235D01*
X10948560Y-39354000D01*
X10948560Y-41054000D01*
X10997843Y-41301765D01*
X11138191Y-41511809D01*
X11348235Y-41652157D01*
X11596000Y-41701440D01*
X13296000Y-41701440D01*
X13543765Y-41652157D01*
X13753809Y-41511809D01*
X13894157Y-41301765D01*
X13943440Y-41054000D01*
X13943440Y-39354000D01*
X13894157Y-39106235D01*
X13753809Y-38896191D01*
X13543765Y-38755843D01*
X13498381Y-38746816D01*
X13516625Y-38734625D01*
X13844839Y-38243418D01*
X13960092Y-37664000D01*
X13844839Y-37084582D01*
X13516625Y-36593375D01*
X13197522Y-36380157D01*
X13327358Y-36319183D01*
X13717645Y-35890924D01*
X13887476Y-35480890D01*
X13766155Y-35251000D01*
X12573000Y-35251000D01*
X12573000Y-35271000D01*
X12319000Y-35271000D01*
X12319000Y-35251000D01*
X11125845Y-35251000D01*
X11004524Y-35480890D01*
X11174355Y-35890924D01*
X11564642Y-36319183D01*
X11694478Y-36380157D01*
X11375375Y-36593375D01*
X11047161Y-37084582D01*
X10931908Y-37664000D01*
X4329000Y-37664000D01*
X4329000Y-32584000D01*
X10931908Y-32584000D01*
X11047161Y-33163418D01*
X11375375Y-33654625D01*
X11694478Y-33867843D01*
X11564642Y-33928817D01*
X11174355Y-34357076D01*
X11004524Y-34767110D01*
X11125845Y-34997000D01*
X12319000Y-34997000D01*
X12319000Y-34977000D01*
X12573000Y-34977000D01*
X12573000Y-34997000D01*
X13766155Y-34997000D01*
X13887476Y-34767110D01*
X13717645Y-34357076D01*
X13327358Y-33928817D01*
X13197522Y-33867843D01*
X13516625Y-33654625D01*
X13844839Y-33163418D01*
X13923890Y-32766000D01*
X26666041Y-32766000D01*
X26782350Y-33350725D01*
X27113570Y-33846430D01*
X27397281Y-34036000D01*
X27113570Y-34225570D01*
X26782350Y-34721275D01*
X26666041Y-35306000D01*
X26782350Y-35890725D01*
X27113570Y-36386430D01*
X27397281Y-36576000D01*
X27113570Y-36765570D01*
X26782350Y-37261275D01*
X26666041Y-37846000D01*
X26782350Y-38430725D01*
X27113570Y-38926430D01*
X27609275Y-39257650D01*
X28046402Y-39344600D01*
X28341598Y-39344600D01*
X28778725Y-39257650D01*
X29267068Y-38931349D01*
X29272243Y-38957365D01*
X29412591Y-39167409D01*
X29622635Y-39307757D01*
X29870400Y-39357040D01*
X31597600Y-39357040D01*
X31845365Y-39307757D01*
X32055409Y-39167409D01*
X32195757Y-38957365D01*
X32245040Y-38709600D01*
X32245040Y-36982400D01*
X32195757Y-36734635D01*
X32055409Y-36524591D01*
X31845365Y-36384243D01*
X31819349Y-36379068D01*
X32145650Y-35890725D01*
X32261959Y-35306000D01*
X32145650Y-34721275D01*
X31814430Y-34225570D01*
X31530719Y-34036000D01*
X31814430Y-33846430D01*
X32145650Y-33350725D01*
X32261959Y-32766000D01*
X32145650Y-32181275D01*
X31814430Y-31685570D01*
X31526174Y-31492963D01*
X31940821Y-31114490D01*
X32188968Y-30585027D01*
X32068469Y-30353000D01*
X30861000Y-30353000D01*
X30861000Y-30373000D01*
X30607000Y-30373000D01*
X30607000Y-30353000D01*
X28321000Y-30353000D01*
X28321000Y-30373000D01*
X28067000Y-30373000D01*
X28067000Y-30353000D01*
X26859531Y-30353000D01*
X26739032Y-30585027D01*
X26987179Y-31114490D01*
X27401826Y-31492963D01*
X27113570Y-31685570D01*
X26782350Y-32181275D01*
X26666041Y-32766000D01*
X13923890Y-32766000D01*
X13960092Y-32584000D01*
X13844839Y-32004582D01*
X13516625Y-31513375D01*
X13025418Y-31185161D01*
X12592256Y-31099000D01*
X12299744Y-31099000D01*
X11866582Y-31185161D01*
X11375375Y-31513375D01*
X11047161Y-32004582D01*
X10931908Y-32584000D01*
X4329000Y-32584000D01*
X4329000Y-29888068D01*
X7806537Y-29888068D01*
X8030354Y-30261387D01*
X9011056Y-30658931D01*
X10069239Y-30650916D01*
X11009646Y-30261387D01*
X11233463Y-29888068D01*
X9520000Y-28174605D01*
X7806537Y-29888068D01*
X4329000Y-29888068D01*
X4329000Y-27486056D01*
X6856069Y-27486056D01*
X6864084Y-28544239D01*
X7253613Y-29484646D01*
X7626932Y-29708463D01*
X9340395Y-27995000D01*
X9699605Y-27995000D01*
X11413068Y-29708463D01*
X11786387Y-29484646D01*
X12183931Y-28503944D01*
X12177736Y-27686000D01*
X26666041Y-27686000D01*
X26782350Y-28270725D01*
X27113570Y-28766430D01*
X27401826Y-28959037D01*
X26987179Y-29337510D01*
X26739032Y-29866973D01*
X26859531Y-30099000D01*
X28067000Y-30099000D01*
X28067000Y-30079000D01*
X28321000Y-30079000D01*
X28321000Y-30099000D01*
X30607000Y-30099000D01*
X30607000Y-30079000D01*
X30861000Y-30079000D01*
X30861000Y-30099000D01*
X32068469Y-30099000D01*
X32188968Y-29866973D01*
X31940821Y-29337510D01*
X31526174Y-28959037D01*
X31814430Y-28766430D01*
X32145650Y-28270725D01*
X32261959Y-27686000D01*
X37080041Y-27686000D01*
X37196350Y-28270725D01*
X37527570Y-28766430D01*
X37811281Y-28956000D01*
X37527570Y-29145570D01*
X37196350Y-29641275D01*
X37080041Y-30226000D01*
X37196350Y-30810725D01*
X37527570Y-31306430D01*
X37811281Y-31496000D01*
X37527570Y-31685570D01*
X37196350Y-32181275D01*
X37080041Y-32766000D01*
X37196350Y-33350725D01*
X37527570Y-33846430D01*
X37811281Y-34036000D01*
X37527570Y-34225570D01*
X37196350Y-34721275D01*
X37080041Y-35306000D01*
X37196350Y-35890725D01*
X37527570Y-36386430D01*
X37811281Y-36576000D01*
X37527570Y-36765570D01*
X37196350Y-37261275D01*
X37080041Y-37846000D01*
X37196350Y-38430725D01*
X37527570Y-38926430D01*
X38023275Y-39257650D01*
X38460402Y-39344600D01*
X38755598Y-39344600D01*
X39192725Y-39257650D01*
X39681068Y-38931349D01*
X39686243Y-38957365D01*
X39826591Y-39167409D01*
X40036635Y-39307757D01*
X40284400Y-39357040D01*
X42011600Y-39357040D01*
X42259365Y-39307757D01*
X42469409Y-39167409D01*
X42609757Y-38957365D01*
X42659040Y-38709600D01*
X42659040Y-36982400D01*
X42609757Y-36734635D01*
X42469409Y-36524591D01*
X42259365Y-36384243D01*
X42233349Y-36379068D01*
X42559650Y-35890725D01*
X42675959Y-35306000D01*
X42559650Y-34721275D01*
X42228430Y-34225570D01*
X41944719Y-34036000D01*
X42228430Y-33846430D01*
X42559650Y-33350725D01*
X42675959Y-32766000D01*
X42559650Y-32181275D01*
X42228430Y-31685570D01*
X41944719Y-31496000D01*
X42228430Y-31306430D01*
X42559650Y-30810725D01*
X42675959Y-30226000D01*
X42559650Y-29641275D01*
X42228430Y-29145570D01*
X41944719Y-28956000D01*
X42228430Y-28766430D01*
X42559650Y-28270725D01*
X42675959Y-27686000D01*
X42559650Y-27101275D01*
X42228430Y-26605570D01*
X41732725Y-26274350D01*
X41295598Y-26187400D01*
X41000402Y-26187400D01*
X40563275Y-26274350D01*
X40067570Y-26605570D01*
X39878000Y-26889281D01*
X39688430Y-26605570D01*
X39192725Y-26274350D01*
X38755598Y-26187400D01*
X38460402Y-26187400D01*
X38023275Y-26274350D01*
X37527570Y-26605570D01*
X37196350Y-27101275D01*
X37080041Y-27686000D01*
X32261959Y-27686000D01*
X32145650Y-27101275D01*
X31814430Y-26605570D01*
X31318725Y-26274350D01*
X30881598Y-26187400D01*
X30586402Y-26187400D01*
X30149275Y-26274350D01*
X29653570Y-26605570D01*
X29464000Y-26889281D01*
X29274430Y-26605570D01*
X28778725Y-26274350D01*
X28341598Y-26187400D01*
X28046402Y-26187400D01*
X27609275Y-26274350D01*
X27113570Y-26605570D01*
X26782350Y-27101275D01*
X26666041Y-27686000D01*
X12177736Y-27686000D01*
X12175916Y-27445761D01*
X11786387Y-26505354D01*
X11413068Y-26281537D01*
X9699605Y-27995000D01*
X9340395Y-27995000D01*
X7626932Y-26281537D01*
X7253613Y-26505354D01*
X6856069Y-27486056D01*
X4329000Y-27486056D01*
X4329000Y-26289817D01*
X4516885Y-26101932D01*
X7806537Y-26101932D01*
X9520000Y-27815395D01*
X11233463Y-26101932D01*
X11009646Y-25728613D01*
X10028944Y-25331069D01*
X8970761Y-25339084D01*
X8030354Y-25728613D01*
X7806537Y-26101932D01*
X4516885Y-26101932D01*
X5969818Y-24649000D01*
X8714823Y-24649000D01*
X8866000Y-24679071D01*
X9017177Y-24649000D01*
X9017182Y-24649000D01*
X9464927Y-24559938D01*
X9972673Y-24220673D01*
X10058312Y-24092505D01*
X11663378Y-22487440D01*
X11740000Y-22487440D01*
X11987765Y-22438157D01*
X12197809Y-22297809D01*
X12338157Y-22087765D01*
X12387440Y-21840000D01*
X12387440Y-21631372D01*
X12505072Y-21040000D01*
X12387440Y-20448629D01*
X12387440Y-20240000D01*
X12338157Y-19992235D01*
X12197809Y-19782191D01*
X11987765Y-19641843D01*
X11740000Y-19592560D01*
X11531371Y-19592560D01*
X11508078Y-19587927D01*
X11752862Y-19486534D01*
X12156534Y-19082862D01*
X12375000Y-18555439D01*
X12375000Y-17984561D01*
X12156534Y-17457138D01*
X11752862Y-17053466D01*
X11346150Y-16885000D01*
X11752862Y-16716534D01*
X12156534Y-16312862D01*
X12375000Y-15785439D01*
X12375000Y-15214561D01*
X12338082Y-15125431D01*
X31765000Y-15125431D01*
X31765000Y-16014569D01*
X32105259Y-16836026D01*
X32733974Y-17464741D01*
X33555431Y-17805000D01*
X34444569Y-17805000D01*
X35266026Y-17464741D01*
X35894741Y-16836026D01*
X36235000Y-16014569D01*
X36235000Y-15125431D01*
X35894741Y-14303974D01*
X35266026Y-13675259D01*
X34444569Y-13335000D01*
X33555431Y-13335000D01*
X32733974Y-13675259D01*
X32105259Y-14303974D01*
X31765000Y-15125431D01*
X12338082Y-15125431D01*
X12156534Y-14687138D01*
X11752862Y-14283466D01*
X11346150Y-14115000D01*
X11752862Y-13946534D01*
X12156534Y-13542862D01*
X12375000Y-13015439D01*
X12375000Y-12444561D01*
X12156534Y-11917138D01*
X11752862Y-11513466D01*
X11361782Y-11351475D01*
X11694005Y-11213864D01*
X11768139Y-10967745D01*
X10940000Y-10139605D01*
X10111861Y-10967745D01*
X10185995Y-11213864D01*
X10541739Y-11341732D01*
X10127138Y-11513466D01*
X9723466Y-11917138D01*
X9505000Y-12444561D01*
X9505000Y-13015439D01*
X9723466Y-13542862D01*
X10127138Y-13946534D01*
X10533850Y-14115000D01*
X10127138Y-14283466D01*
X9723466Y-14687138D01*
X9505000Y-15214561D01*
X9505000Y-15785439D01*
X9723466Y-16312862D01*
X10127138Y-16716534D01*
X10533850Y-16885000D01*
X10127138Y-17053466D01*
X9723466Y-17457138D01*
X9505000Y-17984561D01*
X9505000Y-18555439D01*
X9723466Y-19082862D01*
X10127138Y-19486534D01*
X10371921Y-19587927D01*
X10348628Y-19592560D01*
X10140000Y-19592560D01*
X9892235Y-19641843D01*
X9682191Y-19782191D01*
X9541843Y-19992235D01*
X9492560Y-20240000D01*
X9492560Y-20316622D01*
X8230183Y-21579000D01*
X5485176Y-21579000D01*
X5333999Y-21548929D01*
X5182822Y-21579000D01*
X5182818Y-21579000D01*
X4735073Y-21668062D01*
X4227327Y-22007327D01*
X4141690Y-22135493D01*
X1815495Y-24461688D01*
X1687327Y-24547327D01*
X1348062Y-25055074D01*
X1259000Y-25502819D01*
X1259000Y-25502823D01*
X1228929Y-25654000D01*
X1259000Y-25805177D01*
X1259001Y-55900818D01*
X1228929Y-56052000D01*
X1259001Y-56203182D01*
X1348063Y-56650927D01*
X1687328Y-57158673D01*
X1815493Y-57244310D01*
X6455182Y-61884000D01*
X4101493Y-64237690D01*
X3973328Y-64323327D01*
X3887691Y-64451492D01*
X3887690Y-64451493D01*
X3634063Y-64831073D01*
X3514929Y-65430000D01*
X3545001Y-65581182D01*
X3545000Y-76302823D01*
X3514929Y-76454000D01*
X3545000Y-76605177D01*
X3545000Y-76605181D01*
X3634062Y-77052926D01*
X3973327Y-77560673D01*
X4101495Y-77646312D01*
X10149001Y-83693819D01*
X10149001Y-84873000D01*
X710000Y-84873000D01*
X710000Y-81524561D01*
X2385000Y-81524561D01*
X2385000Y-82095439D01*
X2603466Y-82622862D01*
X3007138Y-83026534D01*
X3534561Y-83245000D01*
X4105439Y-83245000D01*
X4632862Y-83026534D01*
X5036534Y-82622862D01*
X5255000Y-82095439D01*
X5255000Y-81524561D01*
X5036534Y-80997138D01*
X4632862Y-80593466D01*
X4105439Y-80375000D01*
X3534561Y-80375000D01*
X3007138Y-80593466D01*
X2603466Y-80997138D01*
X2385000Y-81524561D01*
X710000Y-81524561D01*
X710000Y-11059561D01*
X6665000Y-11059561D01*
X6665000Y-11630439D01*
X6883466Y-12157862D01*
X7287138Y-12561534D01*
X7693850Y-12730000D01*
X7287138Y-12898466D01*
X6883466Y-13302138D01*
X6665000Y-13829561D01*
X6665000Y-14400439D01*
X6883466Y-14927862D01*
X7287138Y-15331534D01*
X7693850Y-15500000D01*
X7287138Y-15668466D01*
X6883466Y-16072138D01*
X6665000Y-16599561D01*
X6665000Y-17170439D01*
X6883466Y-17697862D01*
X7287138Y-18101534D01*
X7693850Y-18270000D01*
X7287138Y-18438466D01*
X6883466Y-18842138D01*
X6665000Y-19369561D01*
X6665000Y-19940439D01*
X6883466Y-20467862D01*
X7287138Y-20871534D01*
X7814561Y-21090000D01*
X8385439Y-21090000D01*
X8912862Y-20871534D01*
X9316534Y-20467862D01*
X9535000Y-19940439D01*
X9535000Y-19369561D01*
X9316534Y-18842138D01*
X8912862Y-18438466D01*
X8506150Y-18270000D01*
X8912862Y-18101534D01*
X9316534Y-17697862D01*
X9535000Y-17170439D01*
X9535000Y-16599561D01*
X9316534Y-16072138D01*
X8912862Y-15668466D01*
X8506150Y-15500000D01*
X8912862Y-15331534D01*
X9316534Y-14927862D01*
X9535000Y-14400439D01*
X9535000Y-13829561D01*
X9316534Y-13302138D01*
X8912862Y-12898466D01*
X8506150Y-12730000D01*
X8912862Y-12561534D01*
X9316534Y-12157862D01*
X9535000Y-11630439D01*
X9535000Y-11059561D01*
X9316534Y-10532138D01*
X8912862Y-10128466D01*
X8385439Y-9910000D01*
X7814561Y-9910000D01*
X7287138Y-10128466D01*
X6883466Y-10532138D01*
X6665000Y-11059561D01*
X710000Y-11059561D01*
X710000Y-9743223D01*
X9493035Y-9743223D01*
X9520222Y-10313454D01*
X9686136Y-10714005D01*
X9932255Y-10788139D01*
X10760395Y-9960000D01*
X11119605Y-9960000D01*
X11947745Y-10788139D01*
X12193864Y-10714005D01*
X12386965Y-10176777D01*
X12359778Y-9606546D01*
X12193864Y-9205995D01*
X11947745Y-9131861D01*
X11119605Y-9960000D01*
X10760395Y-9960000D01*
X9932255Y-9131861D01*
X9686136Y-9205995D01*
X9493035Y-9743223D01*
X710000Y-9743223D01*
X710000Y-8952255D01*
X10111861Y-8952255D01*
X10940000Y-9780395D01*
X11768139Y-8952255D01*
X11694005Y-8706136D01*
X11156777Y-8513035D01*
X10586546Y-8540222D01*
X10185995Y-8706136D01*
X10111861Y-8952255D01*
X710000Y-8952255D01*
X710000Y-4898068D01*
X7806537Y-4898068D01*
X8030354Y-5271387D01*
X9011056Y-5668931D01*
X10069239Y-5660916D01*
X11009646Y-5271387D01*
X11233463Y-4898068D01*
X9520000Y-3184605D01*
X7806537Y-4898068D01*
X710000Y-4898068D01*
X710000Y-2496056D01*
X6856069Y-2496056D01*
X6864084Y-3554239D01*
X7253613Y-4494646D01*
X7626932Y-4718463D01*
X9340395Y-3005000D01*
X9699605Y-3005000D01*
X11413068Y-4718463D01*
X11786387Y-4494646D01*
X12183931Y-3513944D01*
X12175916Y-2455761D01*
X11786387Y-1515354D01*
X11413068Y-1291537D01*
X9699605Y-3005000D01*
X9340395Y-3005000D01*
X7626932Y-1291537D01*
X7253613Y-1515354D01*
X6856069Y-2496056D01*
X710000Y-2496056D01*
X710000Y-710000D01*
X8099432Y-710000D01*
X8030354Y-738613D01*
X8030354Y-738613D01*
G37*
X8030354Y-738613D02*
X7806537Y-1111932D01*
X9520000Y-2825395D01*
X11233463Y-1111932D01*
X11009646Y-738613D01*
X10939061Y-710000D01*
X32559233Y-710000D01*
X32105259Y-1163974D01*
X31765000Y-1985431D01*
X31765000Y-2874569D01*
X32105259Y-3696026D01*
X32733974Y-4324741D01*
X33555431Y-4665000D01*
X34444569Y-4665000D01*
X35266026Y-4324741D01*
X35894741Y-3696026D01*
X36235000Y-2874569D01*
X36235000Y-1985431D01*
X35894741Y-1163974D01*
X35440767Y-710000D01*
X44290000Y-710000D01*
X44290000Y-70256744D01*
X44102310Y-70179000D01*
X42861750Y-70179000D01*
X42703000Y-70337750D01*
X42703000Y-72087000D01*
X42723000Y-72087000D01*
X42723000Y-72341000D01*
X42703000Y-72341000D01*
X42703000Y-74090250D01*
X42861750Y-74249000D01*
X44102310Y-74249000D01*
X44290000Y-74171256D01*
X44290000Y-75282177D01*
X44017724Y-75151882D01*
X42755605Y-76414000D01*
X44017724Y-77676118D01*
X44290000Y-77545823D01*
X44290001Y-84873000D01*
X38468805Y-84873000D01*
X38531916Y-84767022D01*
X36836500Y-83071605D01*
X35141084Y-84767022D01*
X35204195Y-84873000D01*
X13219000Y-84873000D01*
X13219000Y-83209176D01*
X13249071Y-83057999D01*
X13219000Y-82906822D01*
X13219000Y-82906818D01*
X13129938Y-82459073D01*
X12790673Y-81951327D01*
X12662508Y-81865690D01*
X12221923Y-81425105D01*
X15855000Y-81425105D01*
X15855000Y-82194895D01*
X16149586Y-82906090D01*
X16693910Y-83450414D01*
X17405105Y-83745000D01*
X18174895Y-83745000D01*
X18886090Y-83450414D01*
X19430414Y-82906090D01*
X19644594Y-82389012D01*
X34197381Y-82389012D01*
X34205787Y-83437247D01*
X34590757Y-84366647D01*
X34961478Y-84587416D01*
X36656895Y-82892000D01*
X37016105Y-82892000D01*
X38711522Y-84587416D01*
X39082243Y-84366647D01*
X39475619Y-83394988D01*
X39467213Y-82346753D01*
X39082243Y-81417353D01*
X38711522Y-81196584D01*
X37016105Y-82892000D01*
X36656895Y-82892000D01*
X34961478Y-81196584D01*
X34590757Y-81417353D01*
X34197381Y-82389012D01*
X19644594Y-82389012D01*
X19725000Y-82194895D01*
X19725000Y-81425105D01*
X19555949Y-81016978D01*
X35141084Y-81016978D01*
X36836500Y-82712395D01*
X38531916Y-81016978D01*
X38311147Y-80646257D01*
X37339488Y-80252881D01*
X36291253Y-80261287D01*
X35361853Y-80646257D01*
X35141084Y-81016978D01*
X19555949Y-81016978D01*
X19430414Y-80713910D01*
X18886090Y-80169586D01*
X18174895Y-79875000D01*
X17405105Y-79875000D01*
X16693910Y-80169586D01*
X16149586Y-80713910D01*
X15855000Y-81425105D01*
X12221923Y-81425105D01*
X8451705Y-77654887D01*
X10975000Y-77654887D01*
X10975000Y-78345113D01*
X11239138Y-78982799D01*
X11727201Y-79470862D01*
X12364887Y-79735000D01*
X13055113Y-79735000D01*
X13692799Y-79470862D01*
X14180862Y-78982799D01*
X14445000Y-78345113D01*
X14445000Y-77654887D01*
X16055000Y-77654887D01*
X16055000Y-78345113D01*
X16319138Y-78982799D01*
X16807201Y-79470862D01*
X17444887Y-79735000D01*
X18135113Y-79735000D01*
X18772799Y-79470862D01*
X19260862Y-78982799D01*
X19525000Y-78345113D01*
X19525000Y-77654887D01*
X19260862Y-77017201D01*
X18772799Y-76529138D01*
X18135113Y-76265000D01*
X17444887Y-76265000D01*
X16807201Y-76529138D01*
X16319138Y-77017201D01*
X16055000Y-77654887D01*
X14445000Y-77654887D01*
X14180862Y-77017201D01*
X13692799Y-76529138D01*
X13055113Y-76265000D01*
X12364887Y-76265000D01*
X11727201Y-76529138D01*
X11239138Y-77017201D01*
X10975000Y-77654887D01*
X8451705Y-77654887D01*
X6615000Y-75818183D01*
X6615000Y-73904561D01*
X7465000Y-73904561D01*
X7465000Y-74475439D01*
X7683466Y-75002862D01*
X8087138Y-75406534D01*
X8614561Y-75625000D01*
X9185439Y-75625000D01*
X9712862Y-75406534D01*
X10116534Y-75002862D01*
X10335000Y-74475439D01*
X10335000Y-73904561D01*
X10293804Y-73805105D01*
X15855000Y-73805105D01*
X15855000Y-74574895D01*
X16149586Y-75286090D01*
X16693910Y-75830414D01*
X17405105Y-76125000D01*
X18174895Y-76125000D01*
X18886090Y-75830414D01*
X19430414Y-75286090D01*
X19725000Y-74574895D01*
X19725000Y-73805105D01*
X19430414Y-73093910D01*
X18886090Y-72549586D01*
X18174895Y-72255000D01*
X17405105Y-72255000D01*
X16693910Y-72549586D01*
X16149586Y-73093910D01*
X15855000Y-73805105D01*
X10293804Y-73805105D01*
X10116534Y-73377138D01*
X9712862Y-72973466D01*
X9185439Y-72755000D01*
X8614561Y-72755000D01*
X8087138Y-72973466D01*
X7683466Y-73377138D01*
X7465000Y-73904561D01*
X6615000Y-73904561D01*
X6615000Y-66065817D01*
X9125956Y-63554862D01*
X9608799Y-63354862D01*
X10096862Y-62866799D01*
X10149844Y-62738887D01*
X11991000Y-62738887D01*
X11991000Y-63429113D01*
X12255138Y-64066799D01*
X12743201Y-64554862D01*
X13380887Y-64819000D01*
X14071113Y-64819000D01*
X14553956Y-64619000D01*
X30952183Y-64619000D01*
X35541001Y-69207819D01*
X35541000Y-70871075D01*
X35350810Y-71061265D01*
X35041000Y-71809213D01*
X35041000Y-72618787D01*
X35350810Y-73366735D01*
X35541001Y-73556926D01*
X35541000Y-75071075D01*
X35350810Y-75261265D01*
X35041000Y-76009213D01*
X35041000Y-76818787D01*
X35350810Y-77566735D01*
X35923265Y-78139190D01*
X36671213Y-78449000D01*
X37480787Y-78449000D01*
X38228735Y-78139190D01*
X38512201Y-77855724D01*
X41313882Y-77855724D01*
X41461455Y-78164106D01*
X42216031Y-78457405D01*
X43025409Y-78439614D01*
X43690545Y-78164106D01*
X43838118Y-77855724D01*
X42576000Y-76593605D01*
X41313882Y-77855724D01*
X38512201Y-77855724D01*
X38801190Y-77566735D01*
X39111000Y-76818787D01*
X39111000Y-76054031D01*
X40532595Y-76054031D01*
X40550386Y-76863409D01*
X40825894Y-77528545D01*
X41134276Y-77676118D01*
X42396395Y-76414000D01*
X41134276Y-75151882D01*
X40825894Y-75299455D01*
X40532595Y-76054031D01*
X39111000Y-76054031D01*
X39111000Y-76009213D01*
X38801190Y-75261265D01*
X38611000Y-75071075D01*
X38611000Y-74972276D01*
X41313882Y-74972276D01*
X42576000Y-76234395D01*
X43838118Y-74972276D01*
X43690545Y-74663894D01*
X42935969Y-74370595D01*
X42126591Y-74388386D01*
X41461455Y-74663894D01*
X41313882Y-74972276D01*
X38611000Y-74972276D01*
X38611000Y-73556925D01*
X38801190Y-73366735D01*
X39111000Y-72618787D01*
X39111000Y-72499750D01*
X40541000Y-72499750D01*
X40541000Y-73740309D01*
X40637673Y-73973698D01*
X40816301Y-74152327D01*
X41049690Y-74249000D01*
X42290250Y-74249000D01*
X42449000Y-74090250D01*
X42449000Y-72341000D01*
X40699750Y-72341000D01*
X40541000Y-72499750D01*
X39111000Y-72499750D01*
X39111000Y-71809213D01*
X38801190Y-71061265D01*
X38611000Y-70871075D01*
X38611000Y-70687691D01*
X40541000Y-70687691D01*
X40541000Y-71928250D01*
X40699750Y-72087000D01*
X42449000Y-72087000D01*
X42449000Y-70337750D01*
X42290250Y-70179000D01*
X41049690Y-70179000D01*
X40816301Y-70275673D01*
X40637673Y-70454302D01*
X40541000Y-70687691D01*
X38611000Y-70687691D01*
X38611000Y-68723176D01*
X38641071Y-68571999D01*
X38611000Y-68420822D01*
X38611000Y-68420818D01*
X38521938Y-67973073D01*
X38182673Y-67465327D01*
X38054508Y-67379690D01*
X32780312Y-62105495D01*
X32694673Y-61977327D01*
X32186927Y-61638062D01*
X31739182Y-61549000D01*
X31739177Y-61549000D01*
X31588000Y-61518929D01*
X31436823Y-61549000D01*
X14553956Y-61549000D01*
X14071113Y-61349000D01*
X13380887Y-61349000D01*
X12743201Y-61613138D01*
X12255138Y-62101201D01*
X11991000Y-62738887D01*
X10149844Y-62738887D01*
X10361000Y-62229113D01*
X10361000Y-61538887D01*
X10096862Y-60901201D01*
X9608799Y-60413138D01*
X9125956Y-60213138D01*
X4329000Y-55416183D01*
X4329000Y-50484452D01*
X5665000Y-50484452D01*
X5665000Y-51015548D01*
X5868242Y-51506217D01*
X6243783Y-51881758D01*
X6734452Y-52085000D01*
X7265548Y-52085000D01*
X7756217Y-51881758D01*
X8131758Y-51506217D01*
X8335000Y-51015548D01*
X8335000Y-50484452D01*
X8131758Y-49993783D01*
X7756217Y-49618242D01*
X7265548Y-49415000D01*
X6734452Y-49415000D01*
X6243783Y-49618242D01*
X5868242Y-49993783D01*
X5665000Y-50484452D01*
X4329000Y-50484452D01*
X4329000Y-44984452D01*
X5665000Y-44984452D01*
X5665000Y-45515548D01*
X5868242Y-46006217D01*
X6243783Y-46381758D01*
X6734452Y-46585000D01*
X7265548Y-46585000D01*
X7756217Y-46381758D01*
X8131758Y-46006217D01*
X8335000Y-45515548D01*
X8335000Y-44984452D01*
X8131758Y-44493783D01*
X7756217Y-44118242D01*
X7265548Y-43915000D01*
X6734452Y-43915000D01*
X6243783Y-44118242D01*
X5868242Y-44493783D01*
X5665000Y-44984452D01*
X4329000Y-44984452D01*
X4329000Y-37664000D01*
X10931908Y-37664000D01*
X11047161Y-38243418D01*
X11375375Y-38734625D01*
X11393619Y-38746816D01*
X11348235Y-38755843D01*
X11138191Y-38896191D01*
X10997843Y-39106235D01*
X10948560Y-39354000D01*
X10948560Y-41054000D01*
X10997843Y-41301765D01*
X11138191Y-41511809D01*
X11348235Y-41652157D01*
X11596000Y-41701440D01*
X13296000Y-41701440D01*
X13543765Y-41652157D01*
X13753809Y-41511809D01*
X13894157Y-41301765D01*
X13943440Y-41054000D01*
X13943440Y-39354000D01*
X13894157Y-39106235D01*
X13753809Y-38896191D01*
X13543765Y-38755843D01*
X13498381Y-38746816D01*
X13516625Y-38734625D01*
X13844839Y-38243418D01*
X13960092Y-37664000D01*
X13844839Y-37084582D01*
X13516625Y-36593375D01*
X13197522Y-36380157D01*
X13327358Y-36319183D01*
X13717645Y-35890924D01*
X13887476Y-35480890D01*
X13766155Y-35251000D01*
X12573000Y-35251000D01*
X12573000Y-35271000D01*
X12319000Y-35271000D01*
X12319000Y-35251000D01*
X11125845Y-35251000D01*
X11004524Y-35480890D01*
X11174355Y-35890924D01*
X11564642Y-36319183D01*
X11694478Y-36380157D01*
X11375375Y-36593375D01*
X11047161Y-37084582D01*
X10931908Y-37664000D01*
X4329000Y-37664000D01*
X4329000Y-32584000D01*
X10931908Y-32584000D01*
X11047161Y-33163418D01*
X11375375Y-33654625D01*
X11694478Y-33867843D01*
X11564642Y-33928817D01*
X11174355Y-34357076D01*
X11004524Y-34767110D01*
X11125845Y-34997000D01*
X12319000Y-34997000D01*
X12319000Y-34977000D01*
X12573000Y-34977000D01*
X12573000Y-34997000D01*
X13766155Y-34997000D01*
X13887476Y-34767110D01*
X13717645Y-34357076D01*
X13327358Y-33928817D01*
X13197522Y-33867843D01*
X13516625Y-33654625D01*
X13844839Y-33163418D01*
X13923890Y-32766000D01*
X26666041Y-32766000D01*
X26782350Y-33350725D01*
X27113570Y-33846430D01*
X27397281Y-34036000D01*
X27113570Y-34225570D01*
X26782350Y-34721275D01*
X26666041Y-35306000D01*
X26782350Y-35890725D01*
X27113570Y-36386430D01*
X27397281Y-36576000D01*
X27113570Y-36765570D01*
X26782350Y-37261275D01*
X26666041Y-37846000D01*
X26782350Y-38430725D01*
X27113570Y-38926430D01*
X27609275Y-39257650D01*
X28046402Y-39344600D01*
X28341598Y-39344600D01*
X28778725Y-39257650D01*
X29267068Y-38931349D01*
X29272243Y-38957365D01*
X29412591Y-39167409D01*
X29622635Y-39307757D01*
X29870400Y-39357040D01*
X31597600Y-39357040D01*
X31845365Y-39307757D01*
X32055409Y-39167409D01*
X32195757Y-38957365D01*
X32245040Y-38709600D01*
X32245040Y-36982400D01*
X32195757Y-36734635D01*
X32055409Y-36524591D01*
X31845365Y-36384243D01*
X31819349Y-36379068D01*
X32145650Y-35890725D01*
X32261959Y-35306000D01*
X32145650Y-34721275D01*
X31814430Y-34225570D01*
X31530719Y-34036000D01*
X31814430Y-33846430D01*
X32145650Y-33350725D01*
X32261959Y-32766000D01*
X32145650Y-32181275D01*
X31814430Y-31685570D01*
X31526174Y-31492963D01*
X31940821Y-31114490D01*
X32188968Y-30585027D01*
X32068469Y-30353000D01*
X30861000Y-30353000D01*
X30861000Y-30373000D01*
X30607000Y-30373000D01*
X30607000Y-30353000D01*
X28321000Y-30353000D01*
X28321000Y-30373000D01*
X28067000Y-30373000D01*
X28067000Y-30353000D01*
X26859531Y-30353000D01*
X26739032Y-30585027D01*
X26987179Y-31114490D01*
X27401826Y-31492963D01*
X27113570Y-31685570D01*
X26782350Y-32181275D01*
X26666041Y-32766000D01*
X13923890Y-32766000D01*
X13960092Y-32584000D01*
X13844839Y-32004582D01*
X13516625Y-31513375D01*
X13025418Y-31185161D01*
X12592256Y-31099000D01*
X12299744Y-31099000D01*
X11866582Y-31185161D01*
X11375375Y-31513375D01*
X11047161Y-32004582D01*
X10931908Y-32584000D01*
X4329000Y-32584000D01*
X4329000Y-29888068D01*
X7806537Y-29888068D01*
X8030354Y-30261387D01*
X9011056Y-30658931D01*
X10069239Y-30650916D01*
X11009646Y-30261387D01*
X11233463Y-29888068D01*
X9520000Y-28174605D01*
X7806537Y-29888068D01*
X4329000Y-29888068D01*
X4329000Y-27486056D01*
X6856069Y-27486056D01*
X6864084Y-28544239D01*
X7253613Y-29484646D01*
X7626932Y-29708463D01*
X9340395Y-27995000D01*
X9699605Y-27995000D01*
X11413068Y-29708463D01*
X11786387Y-29484646D01*
X12183931Y-28503944D01*
X12177736Y-27686000D01*
X26666041Y-27686000D01*
X26782350Y-28270725D01*
X27113570Y-28766430D01*
X27401826Y-28959037D01*
X26987179Y-29337510D01*
X26739032Y-29866973D01*
X26859531Y-30099000D01*
X28067000Y-30099000D01*
X28067000Y-30079000D01*
X28321000Y-30079000D01*
X28321000Y-30099000D01*
X30607000Y-30099000D01*
X30607000Y-30079000D01*
X30861000Y-30079000D01*
X30861000Y-30099000D01*
X32068469Y-30099000D01*
X32188968Y-29866973D01*
X31940821Y-29337510D01*
X31526174Y-28959037D01*
X31814430Y-28766430D01*
X32145650Y-28270725D01*
X32261959Y-27686000D01*
X37080041Y-27686000D01*
X37196350Y-28270725D01*
X37527570Y-28766430D01*
X37811281Y-28956000D01*
X37527570Y-29145570D01*
X37196350Y-29641275D01*
X37080041Y-30226000D01*
X37196350Y-30810725D01*
X37527570Y-31306430D01*
X37811281Y-31496000D01*
X37527570Y-31685570D01*
X37196350Y-32181275D01*
X37080041Y-32766000D01*
X37196350Y-33350725D01*
X37527570Y-33846430D01*
X37811281Y-34036000D01*
X37527570Y-34225570D01*
X37196350Y-34721275D01*
X37080041Y-35306000D01*
X37196350Y-35890725D01*
X37527570Y-36386430D01*
X37811281Y-36576000D01*
X37527570Y-36765570D01*
X37196350Y-37261275D01*
X37080041Y-37846000D01*
X37196350Y-38430725D01*
X37527570Y-38926430D01*
X38023275Y-39257650D01*
X38460402Y-39344600D01*
X38755598Y-39344600D01*
X39192725Y-39257650D01*
X39681068Y-38931349D01*
X39686243Y-38957365D01*
X39826591Y-39167409D01*
X40036635Y-39307757D01*
X40284400Y-39357040D01*
X42011600Y-39357040D01*
X42259365Y-39307757D01*
X42469409Y-39167409D01*
X42609757Y-38957365D01*
X42659040Y-38709600D01*
X42659040Y-36982400D01*
X42609757Y-36734635D01*
X42469409Y-36524591D01*
X42259365Y-36384243D01*
X42233349Y-36379068D01*
X42559650Y-35890725D01*
X42675959Y-35306000D01*
X42559650Y-34721275D01*
X42228430Y-34225570D01*
X41944719Y-34036000D01*
X42228430Y-33846430D01*
X42559650Y-33350725D01*
X42675959Y-32766000D01*
X42559650Y-32181275D01*
X42228430Y-31685570D01*
X41944719Y-31496000D01*
X42228430Y-31306430D01*
X42559650Y-30810725D01*
X42675959Y-30226000D01*
X42559650Y-29641275D01*
X42228430Y-29145570D01*
X41944719Y-28956000D01*
X42228430Y-28766430D01*
X42559650Y-28270725D01*
X42675959Y-27686000D01*
X42559650Y-27101275D01*
X42228430Y-26605570D01*
X41732725Y-26274350D01*
X41295598Y-26187400D01*
X41000402Y-26187400D01*
X40563275Y-26274350D01*
X40067570Y-26605570D01*
X39878000Y-26889281D01*
X39688430Y-26605570D01*
X39192725Y-26274350D01*
X38755598Y-26187400D01*
X38460402Y-26187400D01*
X38023275Y-26274350D01*
X37527570Y-26605570D01*
X37196350Y-27101275D01*
X37080041Y-27686000D01*
X32261959Y-27686000D01*
X32145650Y-27101275D01*
X31814430Y-26605570D01*
X31318725Y-26274350D01*
X30881598Y-26187400D01*
X30586402Y-26187400D01*
X30149275Y-26274350D01*
X29653570Y-26605570D01*
X29464000Y-26889281D01*
X29274430Y-26605570D01*
X28778725Y-26274350D01*
X28341598Y-26187400D01*
X28046402Y-26187400D01*
X27609275Y-26274350D01*
X27113570Y-26605570D01*
X26782350Y-27101275D01*
X26666041Y-27686000D01*
X12177736Y-27686000D01*
X12175916Y-27445761D01*
X11786387Y-26505354D01*
X11413068Y-26281537D01*
X9699605Y-27995000D01*
X9340395Y-27995000D01*
X7626932Y-26281537D01*
X7253613Y-26505354D01*
X6856069Y-27486056D01*
X4329000Y-27486056D01*
X4329000Y-26289817D01*
X4516885Y-26101932D01*
X7806537Y-26101932D01*
X9520000Y-27815395D01*
X11233463Y-26101932D01*
X11009646Y-25728613D01*
X10028944Y-25331069D01*
X8970761Y-25339084D01*
X8030354Y-25728613D01*
X7806537Y-26101932D01*
X4516885Y-26101932D01*
X5969818Y-24649000D01*
X8714823Y-24649000D01*
X8866000Y-24679071D01*
X9017177Y-24649000D01*
X9017182Y-24649000D01*
X9464927Y-24559938D01*
X9972673Y-24220673D01*
X10058312Y-24092505D01*
X11663378Y-22487440D01*
X11740000Y-22487440D01*
X11987765Y-22438157D01*
X12197809Y-22297809D01*
X12338157Y-22087765D01*
X12387440Y-21840000D01*
X12387440Y-21631372D01*
X12505072Y-21040000D01*
X12387440Y-20448629D01*
X12387440Y-20240000D01*
X12338157Y-19992235D01*
X12197809Y-19782191D01*
X11987765Y-19641843D01*
X11740000Y-19592560D01*
X11531371Y-19592560D01*
X11508078Y-19587927D01*
X11752862Y-19486534D01*
X12156534Y-19082862D01*
X12375000Y-18555439D01*
X12375000Y-17984561D01*
X12156534Y-17457138D01*
X11752862Y-17053466D01*
X11346150Y-16885000D01*
X11752862Y-16716534D01*
X12156534Y-16312862D01*
X12375000Y-15785439D01*
X12375000Y-15214561D01*
X12338082Y-15125431D01*
X31765000Y-15125431D01*
X31765000Y-16014569D01*
X32105259Y-16836026D01*
X32733974Y-17464741D01*
X33555431Y-17805000D01*
X34444569Y-17805000D01*
X35266026Y-17464741D01*
X35894741Y-16836026D01*
X36235000Y-16014569D01*
X36235000Y-15125431D01*
X35894741Y-14303974D01*
X35266026Y-13675259D01*
X34444569Y-13335000D01*
X33555431Y-13335000D01*
X32733974Y-13675259D01*
X32105259Y-14303974D01*
X31765000Y-15125431D01*
X12338082Y-15125431D01*
X12156534Y-14687138D01*
X11752862Y-14283466D01*
X11346150Y-14115000D01*
X11752862Y-13946534D01*
X12156534Y-13542862D01*
X12375000Y-13015439D01*
X12375000Y-12444561D01*
X12156534Y-11917138D01*
X11752862Y-11513466D01*
X11361782Y-11351475D01*
X11694005Y-11213864D01*
X11768139Y-10967745D01*
X10940000Y-10139605D01*
X10111861Y-10967745D01*
X10185995Y-11213864D01*
X10541739Y-11341732D01*
X10127138Y-11513466D01*
X9723466Y-11917138D01*
X9505000Y-12444561D01*
X9505000Y-13015439D01*
X9723466Y-13542862D01*
X10127138Y-13946534D01*
X10533850Y-14115000D01*
X10127138Y-14283466D01*
X9723466Y-14687138D01*
X9505000Y-15214561D01*
X9505000Y-15785439D01*
X9723466Y-16312862D01*
X10127138Y-16716534D01*
X10533850Y-16885000D01*
X10127138Y-17053466D01*
X9723466Y-17457138D01*
X9505000Y-17984561D01*
X9505000Y-18555439D01*
X9723466Y-19082862D01*
X10127138Y-19486534D01*
X10371921Y-19587927D01*
X10348628Y-19592560D01*
X10140000Y-19592560D01*
X9892235Y-19641843D01*
X9682191Y-19782191D01*
X9541843Y-19992235D01*
X9492560Y-20240000D01*
X9492560Y-20316622D01*
X8230183Y-21579000D01*
X5485176Y-21579000D01*
X5333999Y-21548929D01*
X5182822Y-21579000D01*
X5182818Y-21579000D01*
X4735073Y-21668062D01*
X4227327Y-22007327D01*
X4141690Y-22135493D01*
X1815495Y-24461688D01*
X1687327Y-24547327D01*
X1348062Y-25055074D01*
X1259000Y-25502819D01*
X1259000Y-25502823D01*
X1228929Y-25654000D01*
X1259000Y-25805177D01*
X1259001Y-55900818D01*
X1228929Y-56052000D01*
X1259001Y-56203182D01*
X1348063Y-56650927D01*
X1687328Y-57158673D01*
X1815493Y-57244310D01*
X6455182Y-61884000D01*
X4101493Y-64237690D01*
X3973328Y-64323327D01*
X3887691Y-64451492D01*
X3887690Y-64451493D01*
X3634063Y-64831073D01*
X3514929Y-65430000D01*
X3545001Y-65581182D01*
X3545000Y-76302823D01*
X3514929Y-76454000D01*
X3545000Y-76605177D01*
X3545000Y-76605181D01*
X3634062Y-77052926D01*
X3973327Y-77560673D01*
X4101495Y-77646312D01*
X10149001Y-83693819D01*
X10149001Y-84873000D01*
X710000Y-84873000D01*
X710000Y-81524561D01*
X2385000Y-81524561D01*
X2385000Y-82095439D01*
X2603466Y-82622862D01*
X3007138Y-83026534D01*
X3534561Y-83245000D01*
X4105439Y-83245000D01*
X4632862Y-83026534D01*
X5036534Y-82622862D01*
X5255000Y-82095439D01*
X5255000Y-81524561D01*
X5036534Y-80997138D01*
X4632862Y-80593466D01*
X4105439Y-80375000D01*
X3534561Y-80375000D01*
X3007138Y-80593466D01*
X2603466Y-80997138D01*
X2385000Y-81524561D01*
X710000Y-81524561D01*
X710000Y-11059561D01*
X6665000Y-11059561D01*
X6665000Y-11630439D01*
X6883466Y-12157862D01*
X7287138Y-12561534D01*
X7693850Y-12730000D01*
X7287138Y-12898466D01*
X6883466Y-13302138D01*
X6665000Y-13829561D01*
X6665000Y-14400439D01*
X6883466Y-14927862D01*
X7287138Y-15331534D01*
X7693850Y-15500000D01*
X7287138Y-15668466D01*
X6883466Y-16072138D01*
X6665000Y-16599561D01*
X6665000Y-17170439D01*
X6883466Y-17697862D01*
X7287138Y-18101534D01*
X7693850Y-18270000D01*
X7287138Y-18438466D01*
X6883466Y-18842138D01*
X6665000Y-19369561D01*
X6665000Y-19940439D01*
X6883466Y-20467862D01*
X7287138Y-20871534D01*
X7814561Y-21090000D01*
X8385439Y-21090000D01*
X8912862Y-20871534D01*
X9316534Y-20467862D01*
X9535000Y-19940439D01*
X9535000Y-19369561D01*
X9316534Y-18842138D01*
X8912862Y-18438466D01*
X8506150Y-18270000D01*
X8912862Y-18101534D01*
X9316534Y-17697862D01*
X9535000Y-17170439D01*
X9535000Y-16599561D01*
X9316534Y-16072138D01*
X8912862Y-15668466D01*
X8506150Y-15500000D01*
X8912862Y-15331534D01*
X9316534Y-14927862D01*
X9535000Y-14400439D01*
X9535000Y-13829561D01*
X9316534Y-13302138D01*
X8912862Y-12898466D01*
X8506150Y-12730000D01*
X8912862Y-12561534D01*
X9316534Y-12157862D01*
X9535000Y-11630439D01*
X9535000Y-11059561D01*
X9316534Y-10532138D01*
X8912862Y-10128466D01*
X8385439Y-9910000D01*
X7814561Y-9910000D01*
X7287138Y-10128466D01*
X6883466Y-10532138D01*
X6665000Y-11059561D01*
X710000Y-11059561D01*
X710000Y-9743223D01*
X9493035Y-9743223D01*
X9520222Y-10313454D01*
X9686136Y-10714005D01*
X9932255Y-10788139D01*
X10760395Y-9960000D01*
X11119605Y-9960000D01*
X11947745Y-10788139D01*
X12193864Y-10714005D01*
X12386965Y-10176777D01*
X12359778Y-9606546D01*
X12193864Y-9205995D01*
X11947745Y-9131861D01*
X11119605Y-9960000D01*
X10760395Y-9960000D01*
X9932255Y-9131861D01*
X9686136Y-9205995D01*
X9493035Y-9743223D01*
X710000Y-9743223D01*
X710000Y-8952255D01*
X10111861Y-8952255D01*
X10940000Y-9780395D01*
X11768139Y-8952255D01*
X11694005Y-8706136D01*
X11156777Y-8513035D01*
X10586546Y-8540222D01*
X10185995Y-8706136D01*
X10111861Y-8952255D01*
X710000Y-8952255D01*
X710000Y-4898068D01*
X7806537Y-4898068D01*
X8030354Y-5271387D01*
X9011056Y-5668931D01*
X10069239Y-5660916D01*
X11009646Y-5271387D01*
X11233463Y-4898068D01*
X9520000Y-3184605D01*
X7806537Y-4898068D01*
X710000Y-4898068D01*
X710000Y-2496056D01*
X6856069Y-2496056D01*
X6864084Y-3554239D01*
X7253613Y-4494646D01*
X7626932Y-4718463D01*
X9340395Y-3005000D01*
X9699605Y-3005000D01*
X11413068Y-4718463D01*
X11786387Y-4494646D01*
X12183931Y-3513944D01*
X12175916Y-2455761D01*
X11786387Y-1515354D01*
X11413068Y-1291537D01*
X9699605Y-3005000D01*
X9340395Y-3005000D01*
X7626932Y-1291537D01*
X7253613Y-1515354D01*
X6856069Y-2496056D01*
X710000Y-2496056D01*
X710000Y-710000D01*
X8099432Y-710000D01*
X8030354Y-738613D01*
M02*
