G04 #@! TF.GenerationSoftware,KiCad,Pcbnew,(5.0.0-rc2-dev-311-g1dd4af297)*
G04 #@! TF.CreationDate,2018-06-04T15:35:21+02:00*
G04 #@! TF.ProjectId,resetUSB,72657365745553422E6B696361645F70,1.0*
G04 #@! TF.SameCoordinates,PX6ad8e7cPY2bcdfd4*
G04 #@! TF.FileFunction,Copper,L2,Bot,Signal*
G04 #@! TF.FilePolarity,Positive*
%FSLAX46Y46*%
G04 Gerber Fmt 4.6, Leading zero omitted, Abs format (unit mm)*
G04 Created by KiCad (PCBNEW (5.0.0-rc2-dev-311-g1dd4af297)) date 06/04/18 15:35:21*
%MOMM*%
%LPD*%
G01*
G04 APERTURE LIST*
%ADD10C,0.200000*%
%ADD11C,0.150000*%
%ADD12C,1.600000*%
%ADD13C,2.200000*%
%ADD14O,1.727200X1.727200*%
%ADD15R,1.727200X1.727200*%
%ADD16C,4.000000*%
%ADD17C,3.000000*%
%ADD18C,2.800000*%
%ADD19R,2.800000X2.800000*%
%ADD20C,2.600000*%
%ADD21C,3.200000*%
%ADD22C,2.400000*%
%ADD23R,2.400000X2.400000*%
%ADD24O,1.700000X1.700000*%
%ADD25R,1.700000X1.700000*%
%ADD26C,1.300000*%
%ADD27C,1.800000*%
%ADD28C,0.254000*%
G04 APERTURE END LIST*
D10*
X39000000Y-167000000D02*
X39000000Y0D01*
X0Y-167000000D02*
X39000000Y-167000000D01*
X0Y0D02*
X0Y-167000000D01*
D11*
X39000000Y0D02*
X0Y0D01*
D12*
X12305000Y-157300000D03*
X14845000Y-157300000D03*
X17385000Y-157300000D03*
X19925000Y-157300000D03*
X22465000Y-157300000D03*
X25005000Y-157300000D03*
X27545000Y-157300000D03*
X30085000Y-157300000D03*
X13575000Y-162380000D03*
X16115000Y-162380000D03*
X18655000Y-162380000D03*
X28815000Y-162380000D03*
X26275000Y-162380000D03*
X23735000Y-162380000D03*
X21195000Y-162380000D03*
D13*
X24770000Y-96650000D03*
X29210000Y-106180000D03*
D14*
X32460000Y-91840000D03*
X35000000Y-91840000D03*
X32460000Y-94380000D03*
X35000000Y-94380000D03*
X32460000Y-96920000D03*
X35000000Y-96920000D03*
X32460000Y-99460000D03*
X35000000Y-99460000D03*
X32460000Y-102000000D03*
D15*
X35000000Y-102000000D03*
D16*
X30658500Y-128705500D03*
X30658500Y-138905500D03*
D17*
X30658500Y-133805500D03*
D16*
X35758500Y-133805500D03*
D18*
X29158000Y-68361000D03*
X29158000Y-64161000D03*
X34658000Y-68361000D03*
D19*
X34658000Y-64161000D03*
D16*
X30658500Y-112449500D03*
X30658500Y-122649500D03*
D17*
X30658500Y-117549500D03*
D16*
X35758500Y-117549500D03*
D13*
X12810000Y-43000000D03*
X17890000Y-43000000D03*
D20*
X17890000Y-46810000D03*
X17890000Y-39190000D03*
D21*
X28043500Y-1853500D03*
X28043500Y-14993500D03*
D22*
X16500000Y-81280000D03*
D23*
X24000000Y-81280000D03*
D13*
X24770000Y-133650000D03*
X29210000Y-143180000D03*
D14*
X15774000Y-3989000D03*
X15774000Y-6529000D03*
X13234000Y-3989000D03*
X13234000Y-6529000D03*
X10694000Y-3989000D03*
X10694000Y-6529000D03*
X8154000Y-3989000D03*
X8154000Y-6529000D03*
X5614000Y-3989000D03*
D15*
X5614000Y-6529000D03*
D14*
X15774000Y-14149000D03*
X15774000Y-16689000D03*
X13234000Y-14149000D03*
X13234000Y-16689000D03*
X10694000Y-14149000D03*
X10694000Y-16689000D03*
X8154000Y-14149000D03*
X8154000Y-16689000D03*
X5614000Y-14149000D03*
D15*
X5614000Y-16689000D03*
D24*
X30760000Y-18761000D03*
X28220000Y-18761000D03*
X25680000Y-18761000D03*
D25*
X23140000Y-18761000D03*
D26*
X36917498Y-33701500D03*
X14518000Y-73618000D03*
X5293802Y-21854010D03*
X17348800Y-20853600D03*
X31748859Y-25547541D03*
X14454207Y-34838191D03*
D27*
X23876000Y-145050000D02*
X23876000Y-134544000D01*
X31008000Y-162380000D02*
X32670000Y-160718000D01*
X28815000Y-162380000D02*
X31008000Y-162380000D01*
X32670000Y-160718000D02*
X32670000Y-149526000D01*
X32670000Y-149526000D02*
X30734000Y-147590000D01*
X30734000Y-147590000D02*
X26416000Y-147590000D01*
X26416000Y-147590000D02*
X23876000Y-145050000D01*
X23876000Y-134544000D02*
X24770000Y-133650000D01*
D28*
G36*
X25808500Y-1408931D02*
X25808500Y-2298069D01*
X26148759Y-3119526D01*
X26777474Y-3748241D01*
X27598931Y-4088500D01*
X28488069Y-4088500D01*
X29309526Y-3748241D01*
X29938241Y-3119526D01*
X30278500Y-2298069D01*
X30278500Y-1408931D01*
X29988993Y-710000D01*
X38265001Y-710000D01*
X38265001Y-48245395D01*
X36703000Y-46683394D01*
X36703000Y-41910000D01*
X36693333Y-41861399D01*
X36665803Y-41820197D01*
X36195000Y-41349394D01*
X36195000Y-39878000D01*
X36185333Y-39829399D01*
X36157803Y-39788197D01*
X34125803Y-37756197D01*
X34084601Y-37728667D01*
X34036000Y-37719000D01*
X19812000Y-37719000D01*
X19763399Y-37728667D01*
X19722197Y-37756197D01*
X19457449Y-38020945D01*
X18986090Y-37549586D01*
X18274895Y-37255000D01*
X17505105Y-37255000D01*
X16793910Y-37549586D01*
X16249586Y-38093910D01*
X15955000Y-38805105D01*
X15955000Y-38989000D01*
X10435000Y-38989000D01*
X10435000Y-38904561D01*
X10216534Y-38377138D01*
X9812862Y-37973466D01*
X9285439Y-37755000D01*
X8714561Y-37755000D01*
X8187138Y-37973466D01*
X7783466Y-38377138D01*
X7565000Y-38904561D01*
X7565000Y-39475439D01*
X7572016Y-39492378D01*
X6768197Y-40296197D01*
X6740667Y-40337399D01*
X6731000Y-40386000D01*
X6731000Y-58420000D01*
X6740667Y-58468601D01*
X6768197Y-58509803D01*
X15621000Y-67362606D01*
X15621000Y-74877394D01*
X8837394Y-81661000D01*
X735000Y-81661000D01*
X735000Y-75484452D01*
X3665000Y-75484452D01*
X3665000Y-76015548D01*
X3868242Y-76506217D01*
X4243783Y-76881758D01*
X4734452Y-77085000D01*
X5265548Y-77085000D01*
X5756217Y-76881758D01*
X6131758Y-76506217D01*
X6335000Y-76015548D01*
X6335000Y-75484452D01*
X6131758Y-74993783D01*
X5756217Y-74618242D01*
X5265548Y-74415000D01*
X4734452Y-74415000D01*
X4243783Y-74618242D01*
X3868242Y-74993783D01*
X3665000Y-75484452D01*
X735000Y-75484452D01*
X735000Y-69984452D01*
X3665000Y-69984452D01*
X3665000Y-70515548D01*
X3868242Y-71006217D01*
X4243783Y-71381758D01*
X4734452Y-71585000D01*
X5265548Y-71585000D01*
X5756217Y-71381758D01*
X6131758Y-71006217D01*
X6335000Y-70515548D01*
X6335000Y-69984452D01*
X6131758Y-69493783D01*
X5756217Y-69118242D01*
X5265548Y-68915000D01*
X4734452Y-68915000D01*
X4243783Y-69118242D01*
X3868242Y-69493783D01*
X3665000Y-69984452D01*
X735000Y-69984452D01*
X735000Y-46524561D01*
X2485000Y-46524561D01*
X2485000Y-47095439D01*
X2703466Y-47622862D01*
X3107138Y-48026534D01*
X3634561Y-48245000D01*
X4205439Y-48245000D01*
X4732862Y-48026534D01*
X5136534Y-47622862D01*
X5355000Y-47095439D01*
X5355000Y-46524561D01*
X5136534Y-45997138D01*
X4732862Y-45593466D01*
X4205439Y-45375000D01*
X3634561Y-45375000D01*
X3107138Y-45593466D01*
X2703466Y-45997138D01*
X2485000Y-46524561D01*
X735000Y-46524561D01*
X735000Y-14149000D01*
X4086041Y-14149000D01*
X4202350Y-14733725D01*
X4528651Y-15222068D01*
X4502635Y-15227243D01*
X4292591Y-15367591D01*
X4152243Y-15577635D01*
X4102960Y-15825400D01*
X4102960Y-17552600D01*
X4152243Y-17800365D01*
X4292591Y-18010409D01*
X4502635Y-18150757D01*
X4750400Y-18200040D01*
X6477600Y-18200040D01*
X6725365Y-18150757D01*
X6935409Y-18010409D01*
X7075757Y-17800365D01*
X7080932Y-17774349D01*
X7569275Y-18100650D01*
X8006402Y-18187600D01*
X8301598Y-18187600D01*
X8738725Y-18100650D01*
X9234430Y-17769430D01*
X9424000Y-17485719D01*
X9613570Y-17769430D01*
X10109275Y-18100650D01*
X10546402Y-18187600D01*
X10841598Y-18187600D01*
X11278725Y-18100650D01*
X11774430Y-17769430D01*
X11964000Y-17485719D01*
X12153570Y-17769430D01*
X12649275Y-18100650D01*
X13086402Y-18187600D01*
X13381598Y-18187600D01*
X13818725Y-18100650D01*
X14314430Y-17769430D01*
X14504000Y-17485719D01*
X14693570Y-17769430D01*
X15189275Y-18100650D01*
X15626402Y-18187600D01*
X15921598Y-18187600D01*
X16358725Y-18100650D01*
X16642555Y-17911000D01*
X21642560Y-17911000D01*
X21642560Y-19611000D01*
X21691843Y-19858765D01*
X21832191Y-20068809D01*
X22042235Y-20209157D01*
X22290000Y-20258440D01*
X23990000Y-20258440D01*
X24237765Y-20209157D01*
X24447809Y-20068809D01*
X24588157Y-19858765D01*
X24597184Y-19813381D01*
X24609375Y-19831625D01*
X25100582Y-20159839D01*
X25533744Y-20246000D01*
X25826256Y-20246000D01*
X26259418Y-20159839D01*
X26750625Y-19831625D01*
X26963843Y-19512522D01*
X27024817Y-19642358D01*
X27453076Y-20032645D01*
X27863110Y-20202476D01*
X28093000Y-20081155D01*
X28093000Y-18888000D01*
X28073000Y-18888000D01*
X28073000Y-18634000D01*
X28093000Y-18634000D01*
X28093000Y-17440845D01*
X28347000Y-17440845D01*
X28347000Y-18634000D01*
X28367000Y-18634000D01*
X28367000Y-18888000D01*
X28347000Y-18888000D01*
X28347000Y-20081155D01*
X28576890Y-20202476D01*
X28986924Y-20032645D01*
X29415183Y-19642358D01*
X29476157Y-19512522D01*
X29689375Y-19831625D01*
X30180582Y-20159839D01*
X30613744Y-20246000D01*
X30906256Y-20246000D01*
X31339418Y-20159839D01*
X31830625Y-19831625D01*
X32158839Y-19340418D01*
X32274092Y-18761000D01*
X32158839Y-18181582D01*
X31830625Y-17690375D01*
X31339418Y-17362161D01*
X30906256Y-17276000D01*
X30613744Y-17276000D01*
X30180582Y-17362161D01*
X29689375Y-17690375D01*
X29476157Y-18009478D01*
X29415183Y-17879642D01*
X28986924Y-17489355D01*
X28576890Y-17319524D01*
X28347000Y-17440845D01*
X28093000Y-17440845D01*
X27863110Y-17319524D01*
X27453076Y-17489355D01*
X27024817Y-17879642D01*
X26963843Y-18009478D01*
X26750625Y-17690375D01*
X26259418Y-17362161D01*
X25826256Y-17276000D01*
X25533744Y-17276000D01*
X25100582Y-17362161D01*
X24609375Y-17690375D01*
X24597184Y-17708619D01*
X24588157Y-17663235D01*
X24447809Y-17453191D01*
X24237765Y-17312843D01*
X23990000Y-17263560D01*
X22290000Y-17263560D01*
X22042235Y-17312843D01*
X21832191Y-17453191D01*
X21691843Y-17663235D01*
X21642560Y-17911000D01*
X16642555Y-17911000D01*
X16854430Y-17769430D01*
X17185650Y-17273725D01*
X17301959Y-16689000D01*
X17185650Y-16104275D01*
X16854430Y-15608570D01*
X16570719Y-15419000D01*
X16854430Y-15229430D01*
X17185650Y-14733725D01*
X17222407Y-14548931D01*
X25808500Y-14548931D01*
X25808500Y-15438069D01*
X26148759Y-16259526D01*
X26777474Y-16888241D01*
X27598931Y-17228500D01*
X28488069Y-17228500D01*
X29309526Y-16888241D01*
X29938241Y-16259526D01*
X30278500Y-15438069D01*
X30278500Y-14548931D01*
X29938241Y-13727474D01*
X29309526Y-13098759D01*
X28488069Y-12758500D01*
X27598931Y-12758500D01*
X26777474Y-13098759D01*
X26148759Y-13727474D01*
X25808500Y-14548931D01*
X17222407Y-14548931D01*
X17301959Y-14149000D01*
X17185650Y-13564275D01*
X16854430Y-13068570D01*
X16358725Y-12737350D01*
X15921598Y-12650400D01*
X15626402Y-12650400D01*
X15189275Y-12737350D01*
X14693570Y-13068570D01*
X14504000Y-13352281D01*
X14314430Y-13068570D01*
X13818725Y-12737350D01*
X13381598Y-12650400D01*
X13086402Y-12650400D01*
X12649275Y-12737350D01*
X12153570Y-13068570D01*
X11964000Y-13352281D01*
X11774430Y-13068570D01*
X11278725Y-12737350D01*
X10841598Y-12650400D01*
X10546402Y-12650400D01*
X10109275Y-12737350D01*
X9613570Y-13068570D01*
X9424000Y-13352281D01*
X9234430Y-13068570D01*
X8738725Y-12737350D01*
X8301598Y-12650400D01*
X8006402Y-12650400D01*
X7569275Y-12737350D01*
X7073570Y-13068570D01*
X6884000Y-13352281D01*
X6694430Y-13068570D01*
X6198725Y-12737350D01*
X5761598Y-12650400D01*
X5466402Y-12650400D01*
X5029275Y-12737350D01*
X4533570Y-13068570D01*
X4202350Y-13564275D01*
X4086041Y-14149000D01*
X735000Y-14149000D01*
X735000Y-3989000D01*
X4086041Y-3989000D01*
X4202350Y-4573725D01*
X4528651Y-5062068D01*
X4502635Y-5067243D01*
X4292591Y-5207591D01*
X4152243Y-5417635D01*
X4102960Y-5665400D01*
X4102960Y-7392600D01*
X4152243Y-7640365D01*
X4292591Y-7850409D01*
X4502635Y-7990757D01*
X4750400Y-8040040D01*
X6477600Y-8040040D01*
X6725365Y-7990757D01*
X6935409Y-7850409D01*
X7075757Y-7640365D01*
X7080932Y-7614349D01*
X7569275Y-7940650D01*
X8006402Y-8027600D01*
X8301598Y-8027600D01*
X8738725Y-7940650D01*
X9234430Y-7609430D01*
X9424000Y-7325719D01*
X9613570Y-7609430D01*
X10109275Y-7940650D01*
X10546402Y-8027600D01*
X10841598Y-8027600D01*
X11278725Y-7940650D01*
X11774430Y-7609430D01*
X11967037Y-7321174D01*
X12345510Y-7735821D01*
X12874973Y-7983968D01*
X13107000Y-7863469D01*
X13107000Y-6656000D01*
X13087000Y-6656000D01*
X13087000Y-6402000D01*
X13107000Y-6402000D01*
X13107000Y-6382000D01*
X13361000Y-6382000D01*
X13361000Y-6402000D01*
X13381000Y-6402000D01*
X13381000Y-6656000D01*
X13361000Y-6656000D01*
X13361000Y-7863469D01*
X13593027Y-7983968D01*
X14122490Y-7735821D01*
X14500963Y-7321174D01*
X14693570Y-7609430D01*
X15189275Y-7940650D01*
X15626402Y-8027600D01*
X15921598Y-8027600D01*
X16358725Y-7940650D01*
X16854430Y-7609430D01*
X17185650Y-7113725D01*
X17301959Y-6529000D01*
X17185650Y-5944275D01*
X16854430Y-5448570D01*
X16570719Y-5259000D01*
X16854430Y-5069430D01*
X17185650Y-4573725D01*
X17301959Y-3989000D01*
X17185650Y-3404275D01*
X16854430Y-2908570D01*
X16358725Y-2577350D01*
X15921598Y-2490400D01*
X15626402Y-2490400D01*
X15189275Y-2577350D01*
X14693570Y-2908570D01*
X14504000Y-3192281D01*
X14314430Y-2908570D01*
X13818725Y-2577350D01*
X13381598Y-2490400D01*
X13086402Y-2490400D01*
X12649275Y-2577350D01*
X12153570Y-2908570D01*
X11964000Y-3192281D01*
X11774430Y-2908570D01*
X11278725Y-2577350D01*
X10841598Y-2490400D01*
X10546402Y-2490400D01*
X10109275Y-2577350D01*
X9613570Y-2908570D01*
X9424000Y-3192281D01*
X9234430Y-2908570D01*
X8738725Y-2577350D01*
X8301598Y-2490400D01*
X8006402Y-2490400D01*
X7569275Y-2577350D01*
X7073570Y-2908570D01*
X6884000Y-3192281D01*
X6694430Y-2908570D01*
X6198725Y-2577350D01*
X5761598Y-2490400D01*
X5466402Y-2490400D01*
X5029275Y-2577350D01*
X4533570Y-2908570D01*
X4202350Y-3404275D01*
X4086041Y-3989000D01*
X735000Y-3989000D01*
X735000Y-710000D01*
X26098007Y-710000D01*
X25808500Y-1408931D01*
X25808500Y-1408931D01*
G37*
X25808500Y-1408931D02*
X25808500Y-2298069D01*
X26148759Y-3119526D01*
X26777474Y-3748241D01*
X27598931Y-4088500D01*
X28488069Y-4088500D01*
X29309526Y-3748241D01*
X29938241Y-3119526D01*
X30278500Y-2298069D01*
X30278500Y-1408931D01*
X29988993Y-710000D01*
X38265001Y-710000D01*
X38265001Y-48245395D01*
X36703000Y-46683394D01*
X36703000Y-41910000D01*
X36693333Y-41861399D01*
X36665803Y-41820197D01*
X36195000Y-41349394D01*
X36195000Y-39878000D01*
X36185333Y-39829399D01*
X36157803Y-39788197D01*
X34125803Y-37756197D01*
X34084601Y-37728667D01*
X34036000Y-37719000D01*
X19812000Y-37719000D01*
X19763399Y-37728667D01*
X19722197Y-37756197D01*
X19457449Y-38020945D01*
X18986090Y-37549586D01*
X18274895Y-37255000D01*
X17505105Y-37255000D01*
X16793910Y-37549586D01*
X16249586Y-38093910D01*
X15955000Y-38805105D01*
X15955000Y-38989000D01*
X10435000Y-38989000D01*
X10435000Y-38904561D01*
X10216534Y-38377138D01*
X9812862Y-37973466D01*
X9285439Y-37755000D01*
X8714561Y-37755000D01*
X8187138Y-37973466D01*
X7783466Y-38377138D01*
X7565000Y-38904561D01*
X7565000Y-39475439D01*
X7572016Y-39492378D01*
X6768197Y-40296197D01*
X6740667Y-40337399D01*
X6731000Y-40386000D01*
X6731000Y-58420000D01*
X6740667Y-58468601D01*
X6768197Y-58509803D01*
X15621000Y-67362606D01*
X15621000Y-74877394D01*
X8837394Y-81661000D01*
X735000Y-81661000D01*
X735000Y-75484452D01*
X3665000Y-75484452D01*
X3665000Y-76015548D01*
X3868242Y-76506217D01*
X4243783Y-76881758D01*
X4734452Y-77085000D01*
X5265548Y-77085000D01*
X5756217Y-76881758D01*
X6131758Y-76506217D01*
X6335000Y-76015548D01*
X6335000Y-75484452D01*
X6131758Y-74993783D01*
X5756217Y-74618242D01*
X5265548Y-74415000D01*
X4734452Y-74415000D01*
X4243783Y-74618242D01*
X3868242Y-74993783D01*
X3665000Y-75484452D01*
X735000Y-75484452D01*
X735000Y-69984452D01*
X3665000Y-69984452D01*
X3665000Y-70515548D01*
X3868242Y-71006217D01*
X4243783Y-71381758D01*
X4734452Y-71585000D01*
X5265548Y-71585000D01*
X5756217Y-71381758D01*
X6131758Y-71006217D01*
X6335000Y-70515548D01*
X6335000Y-69984452D01*
X6131758Y-69493783D01*
X5756217Y-69118242D01*
X5265548Y-68915000D01*
X4734452Y-68915000D01*
X4243783Y-69118242D01*
X3868242Y-69493783D01*
X3665000Y-69984452D01*
X735000Y-69984452D01*
X735000Y-46524561D01*
X2485000Y-46524561D01*
X2485000Y-47095439D01*
X2703466Y-47622862D01*
X3107138Y-48026534D01*
X3634561Y-48245000D01*
X4205439Y-48245000D01*
X4732862Y-48026534D01*
X5136534Y-47622862D01*
X5355000Y-47095439D01*
X5355000Y-46524561D01*
X5136534Y-45997138D01*
X4732862Y-45593466D01*
X4205439Y-45375000D01*
X3634561Y-45375000D01*
X3107138Y-45593466D01*
X2703466Y-45997138D01*
X2485000Y-46524561D01*
X735000Y-46524561D01*
X735000Y-14149000D01*
X4086041Y-14149000D01*
X4202350Y-14733725D01*
X4528651Y-15222068D01*
X4502635Y-15227243D01*
X4292591Y-15367591D01*
X4152243Y-15577635D01*
X4102960Y-15825400D01*
X4102960Y-17552600D01*
X4152243Y-17800365D01*
X4292591Y-18010409D01*
X4502635Y-18150757D01*
X4750400Y-18200040D01*
X6477600Y-18200040D01*
X6725365Y-18150757D01*
X6935409Y-18010409D01*
X7075757Y-17800365D01*
X7080932Y-17774349D01*
X7569275Y-18100650D01*
X8006402Y-18187600D01*
X8301598Y-18187600D01*
X8738725Y-18100650D01*
X9234430Y-17769430D01*
X9424000Y-17485719D01*
X9613570Y-17769430D01*
X10109275Y-18100650D01*
X10546402Y-18187600D01*
X10841598Y-18187600D01*
X11278725Y-18100650D01*
X11774430Y-17769430D01*
X11964000Y-17485719D01*
X12153570Y-17769430D01*
X12649275Y-18100650D01*
X13086402Y-18187600D01*
X13381598Y-18187600D01*
X13818725Y-18100650D01*
X14314430Y-17769430D01*
X14504000Y-17485719D01*
X14693570Y-17769430D01*
X15189275Y-18100650D01*
X15626402Y-18187600D01*
X15921598Y-18187600D01*
X16358725Y-18100650D01*
X16642555Y-17911000D01*
X21642560Y-17911000D01*
X21642560Y-19611000D01*
X21691843Y-19858765D01*
X21832191Y-20068809D01*
X22042235Y-20209157D01*
X22290000Y-20258440D01*
X23990000Y-20258440D01*
X24237765Y-20209157D01*
X24447809Y-20068809D01*
X24588157Y-19858765D01*
X24597184Y-19813381D01*
X24609375Y-19831625D01*
X25100582Y-20159839D01*
X25533744Y-20246000D01*
X25826256Y-20246000D01*
X26259418Y-20159839D01*
X26750625Y-19831625D01*
X26963843Y-19512522D01*
X27024817Y-19642358D01*
X27453076Y-20032645D01*
X27863110Y-20202476D01*
X28093000Y-20081155D01*
X28093000Y-18888000D01*
X28073000Y-18888000D01*
X28073000Y-18634000D01*
X28093000Y-18634000D01*
X28093000Y-17440845D01*
X28347000Y-17440845D01*
X28347000Y-18634000D01*
X28367000Y-18634000D01*
X28367000Y-18888000D01*
X28347000Y-18888000D01*
X28347000Y-20081155D01*
X28576890Y-20202476D01*
X28986924Y-20032645D01*
X29415183Y-19642358D01*
X29476157Y-19512522D01*
X29689375Y-19831625D01*
X30180582Y-20159839D01*
X30613744Y-20246000D01*
X30906256Y-20246000D01*
X31339418Y-20159839D01*
X31830625Y-19831625D01*
X32158839Y-19340418D01*
X32274092Y-18761000D01*
X32158839Y-18181582D01*
X31830625Y-17690375D01*
X31339418Y-17362161D01*
X30906256Y-17276000D01*
X30613744Y-17276000D01*
X30180582Y-17362161D01*
X29689375Y-17690375D01*
X29476157Y-18009478D01*
X29415183Y-17879642D01*
X28986924Y-17489355D01*
X28576890Y-17319524D01*
X28347000Y-17440845D01*
X28093000Y-17440845D01*
X27863110Y-17319524D01*
X27453076Y-17489355D01*
X27024817Y-17879642D01*
X26963843Y-18009478D01*
X26750625Y-17690375D01*
X26259418Y-17362161D01*
X25826256Y-17276000D01*
X25533744Y-17276000D01*
X25100582Y-17362161D01*
X24609375Y-17690375D01*
X24597184Y-17708619D01*
X24588157Y-17663235D01*
X24447809Y-17453191D01*
X24237765Y-17312843D01*
X23990000Y-17263560D01*
X22290000Y-17263560D01*
X22042235Y-17312843D01*
X21832191Y-17453191D01*
X21691843Y-17663235D01*
X21642560Y-17911000D01*
X16642555Y-17911000D01*
X16854430Y-17769430D01*
X17185650Y-17273725D01*
X17301959Y-16689000D01*
X17185650Y-16104275D01*
X16854430Y-15608570D01*
X16570719Y-15419000D01*
X16854430Y-15229430D01*
X17185650Y-14733725D01*
X17222407Y-14548931D01*
X25808500Y-14548931D01*
X25808500Y-15438069D01*
X26148759Y-16259526D01*
X26777474Y-16888241D01*
X27598931Y-17228500D01*
X28488069Y-17228500D01*
X29309526Y-16888241D01*
X29938241Y-16259526D01*
X30278500Y-15438069D01*
X30278500Y-14548931D01*
X29938241Y-13727474D01*
X29309526Y-13098759D01*
X28488069Y-12758500D01*
X27598931Y-12758500D01*
X26777474Y-13098759D01*
X26148759Y-13727474D01*
X25808500Y-14548931D01*
X17222407Y-14548931D01*
X17301959Y-14149000D01*
X17185650Y-13564275D01*
X16854430Y-13068570D01*
X16358725Y-12737350D01*
X15921598Y-12650400D01*
X15626402Y-12650400D01*
X15189275Y-12737350D01*
X14693570Y-13068570D01*
X14504000Y-13352281D01*
X14314430Y-13068570D01*
X13818725Y-12737350D01*
X13381598Y-12650400D01*
X13086402Y-12650400D01*
X12649275Y-12737350D01*
X12153570Y-13068570D01*
X11964000Y-13352281D01*
X11774430Y-13068570D01*
X11278725Y-12737350D01*
X10841598Y-12650400D01*
X10546402Y-12650400D01*
X10109275Y-12737350D01*
X9613570Y-13068570D01*
X9424000Y-13352281D01*
X9234430Y-13068570D01*
X8738725Y-12737350D01*
X8301598Y-12650400D01*
X8006402Y-12650400D01*
X7569275Y-12737350D01*
X7073570Y-13068570D01*
X6884000Y-13352281D01*
X6694430Y-13068570D01*
X6198725Y-12737350D01*
X5761598Y-12650400D01*
X5466402Y-12650400D01*
X5029275Y-12737350D01*
X4533570Y-13068570D01*
X4202350Y-13564275D01*
X4086041Y-14149000D01*
X735000Y-14149000D01*
X735000Y-3989000D01*
X4086041Y-3989000D01*
X4202350Y-4573725D01*
X4528651Y-5062068D01*
X4502635Y-5067243D01*
X4292591Y-5207591D01*
X4152243Y-5417635D01*
X4102960Y-5665400D01*
X4102960Y-7392600D01*
X4152243Y-7640365D01*
X4292591Y-7850409D01*
X4502635Y-7990757D01*
X4750400Y-8040040D01*
X6477600Y-8040040D01*
X6725365Y-7990757D01*
X6935409Y-7850409D01*
X7075757Y-7640365D01*
X7080932Y-7614349D01*
X7569275Y-7940650D01*
X8006402Y-8027600D01*
X8301598Y-8027600D01*
X8738725Y-7940650D01*
X9234430Y-7609430D01*
X9424000Y-7325719D01*
X9613570Y-7609430D01*
X10109275Y-7940650D01*
X10546402Y-8027600D01*
X10841598Y-8027600D01*
X11278725Y-7940650D01*
X11774430Y-7609430D01*
X11967037Y-7321174D01*
X12345510Y-7735821D01*
X12874973Y-7983968D01*
X13107000Y-7863469D01*
X13107000Y-6656000D01*
X13087000Y-6656000D01*
X13087000Y-6402000D01*
X13107000Y-6402000D01*
X13107000Y-6382000D01*
X13361000Y-6382000D01*
X13361000Y-6402000D01*
X13381000Y-6402000D01*
X13381000Y-6656000D01*
X13361000Y-6656000D01*
X13361000Y-7863469D01*
X13593027Y-7983968D01*
X14122490Y-7735821D01*
X14500963Y-7321174D01*
X14693570Y-7609430D01*
X15189275Y-7940650D01*
X15626402Y-8027600D01*
X15921598Y-8027600D01*
X16358725Y-7940650D01*
X16854430Y-7609430D01*
X17185650Y-7113725D01*
X17301959Y-6529000D01*
X17185650Y-5944275D01*
X16854430Y-5448570D01*
X16570719Y-5259000D01*
X16854430Y-5069430D01*
X17185650Y-4573725D01*
X17301959Y-3989000D01*
X17185650Y-3404275D01*
X16854430Y-2908570D01*
X16358725Y-2577350D01*
X15921598Y-2490400D01*
X15626402Y-2490400D01*
X15189275Y-2577350D01*
X14693570Y-2908570D01*
X14504000Y-3192281D01*
X14314430Y-2908570D01*
X13818725Y-2577350D01*
X13381598Y-2490400D01*
X13086402Y-2490400D01*
X12649275Y-2577350D01*
X12153570Y-2908570D01*
X11964000Y-3192281D01*
X11774430Y-2908570D01*
X11278725Y-2577350D01*
X10841598Y-2490400D01*
X10546402Y-2490400D01*
X10109275Y-2577350D01*
X9613570Y-2908570D01*
X9424000Y-3192281D01*
X9234430Y-2908570D01*
X8738725Y-2577350D01*
X8301598Y-2490400D01*
X8006402Y-2490400D01*
X7569275Y-2577350D01*
X7073570Y-2908570D01*
X6884000Y-3192281D01*
X6694430Y-2908570D01*
X6198725Y-2577350D01*
X5761598Y-2490400D01*
X5466402Y-2490400D01*
X5029275Y-2577350D01*
X4533570Y-2908570D01*
X4202350Y-3404275D01*
X4086041Y-3989000D01*
X735000Y-3989000D01*
X735000Y-710000D01*
X26098007Y-710000D01*
X25808500Y-1408931D01*
G36*
X35180571Y-40184606D02*
X35180571Y-41656000D01*
X35190238Y-41704601D01*
X35217768Y-41745803D01*
X35688571Y-42216606D01*
X35688571Y-46990000D01*
X35698238Y-47038601D01*
X35725768Y-47079803D01*
X38265001Y-49619036D01*
X38265000Y-116704377D01*
X38004243Y-116074853D01*
X37633522Y-115854084D01*
X35938105Y-117549500D01*
X37633522Y-119244916D01*
X38004243Y-119024147D01*
X38265000Y-118380063D01*
X38265000Y-132960377D01*
X38004243Y-132330853D01*
X37633522Y-132110084D01*
X35938105Y-133805500D01*
X37633522Y-135500916D01*
X38004243Y-135280147D01*
X38265000Y-134636063D01*
X38265000Y-166265000D01*
X735000Y-166265000D01*
X735000Y-162094561D01*
X12140000Y-162094561D01*
X12140000Y-162665439D01*
X12358466Y-163192862D01*
X12762138Y-163596534D01*
X13289561Y-163815000D01*
X13860439Y-163815000D01*
X14387862Y-163596534D01*
X14791534Y-163192862D01*
X14845000Y-163063784D01*
X14898466Y-163192862D01*
X15302138Y-163596534D01*
X15829561Y-163815000D01*
X16400439Y-163815000D01*
X16927862Y-163596534D01*
X17331534Y-163192862D01*
X17385000Y-163063784D01*
X17438466Y-163192862D01*
X17842138Y-163596534D01*
X18369561Y-163815000D01*
X18940439Y-163815000D01*
X19467862Y-163596534D01*
X19676651Y-163387745D01*
X20366861Y-163387745D01*
X20440995Y-163633864D01*
X20978223Y-163826965D01*
X21548454Y-163799778D01*
X21949005Y-163633864D01*
X22023139Y-163387745D01*
X21195000Y-162559605D01*
X20366861Y-163387745D01*
X19676651Y-163387745D01*
X19871534Y-163192862D01*
X19918525Y-163079417D01*
X19941136Y-163134005D01*
X20187255Y-163208139D01*
X21015395Y-162380000D01*
X20187255Y-161551861D01*
X19941136Y-161625995D01*
X19920126Y-161684448D01*
X19871534Y-161567138D01*
X19676651Y-161372255D01*
X20366861Y-161372255D01*
X21195000Y-162200395D01*
X22023139Y-161372255D01*
X21949005Y-161126136D01*
X21411777Y-160933035D01*
X20841546Y-160960222D01*
X20440995Y-161126136D01*
X20366861Y-161372255D01*
X19676651Y-161372255D01*
X19467862Y-161163466D01*
X18940439Y-160945000D01*
X18369561Y-160945000D01*
X17842138Y-161163466D01*
X17438466Y-161567138D01*
X17385000Y-161696216D01*
X17331534Y-161567138D01*
X16927862Y-161163466D01*
X16400439Y-160945000D01*
X15829561Y-160945000D01*
X15302138Y-161163466D01*
X14898466Y-161567138D01*
X14845000Y-161696216D01*
X14791534Y-161567138D01*
X14387862Y-161163466D01*
X13860439Y-160945000D01*
X13289561Y-160945000D01*
X12762138Y-161163466D01*
X12358466Y-161567138D01*
X12140000Y-162094561D01*
X735000Y-162094561D01*
X735000Y-157014561D01*
X10870000Y-157014561D01*
X10870000Y-157585439D01*
X11088466Y-158112862D01*
X11492138Y-158516534D01*
X12019561Y-158735000D01*
X12590439Y-158735000D01*
X13117862Y-158516534D01*
X13521534Y-158112862D01*
X13575000Y-157983784D01*
X13628466Y-158112862D01*
X14032138Y-158516534D01*
X14559561Y-158735000D01*
X15130439Y-158735000D01*
X15657862Y-158516534D01*
X16061534Y-158112862D01*
X16115000Y-157983784D01*
X16168466Y-158112862D01*
X16572138Y-158516534D01*
X17099561Y-158735000D01*
X17670439Y-158735000D01*
X18197862Y-158516534D01*
X18406651Y-158307745D01*
X19096861Y-158307745D01*
X19170995Y-158553864D01*
X19708223Y-158746965D01*
X20278454Y-158719778D01*
X20679005Y-158553864D01*
X20753139Y-158307745D01*
X19925000Y-157479605D01*
X19096861Y-158307745D01*
X18406651Y-158307745D01*
X18601534Y-158112862D01*
X18648525Y-157999417D01*
X18671136Y-158054005D01*
X18917255Y-158128139D01*
X19745395Y-157300000D01*
X20104605Y-157300000D01*
X20932745Y-158128139D01*
X21178864Y-158054005D01*
X21199874Y-157995552D01*
X21248466Y-158112862D01*
X21652138Y-158516534D01*
X22179561Y-158735000D01*
X22750439Y-158735000D01*
X23277862Y-158516534D01*
X23681534Y-158112862D01*
X23735000Y-157983784D01*
X23788466Y-158112862D01*
X24192138Y-158516534D01*
X24719561Y-158735000D01*
X25290439Y-158735000D01*
X25817862Y-158516534D01*
X26221534Y-158112862D01*
X26275000Y-157983784D01*
X26328466Y-158112862D01*
X26732138Y-158516534D01*
X27259561Y-158735000D01*
X27830439Y-158735000D01*
X28357862Y-158516534D01*
X28761534Y-158112862D01*
X28815000Y-157983784D01*
X28868466Y-158112862D01*
X29272138Y-158516534D01*
X29799561Y-158735000D01*
X30370439Y-158735000D01*
X30897862Y-158516534D01*
X31135000Y-158279396D01*
X31135000Y-160082182D01*
X30372183Y-160845000D01*
X28663818Y-160845000D01*
X28216073Y-160934062D01*
X27708327Y-161273327D01*
X27499369Y-161586054D01*
X27491534Y-161567138D01*
X27087862Y-161163466D01*
X26560439Y-160945000D01*
X25989561Y-160945000D01*
X25462138Y-161163466D01*
X25058466Y-161567138D01*
X25005000Y-161696216D01*
X24951534Y-161567138D01*
X24547862Y-161163466D01*
X24020439Y-160945000D01*
X23449561Y-160945000D01*
X22922138Y-161163466D01*
X22518466Y-161567138D01*
X22471475Y-161680583D01*
X22448864Y-161625995D01*
X22202745Y-161551861D01*
X21374605Y-162380000D01*
X22202745Y-163208139D01*
X22448864Y-163134005D01*
X22469874Y-163075552D01*
X22518466Y-163192862D01*
X22922138Y-163596534D01*
X23449561Y-163815000D01*
X24020439Y-163815000D01*
X24547862Y-163596534D01*
X24951534Y-163192862D01*
X25005000Y-163063784D01*
X25058466Y-163192862D01*
X25462138Y-163596534D01*
X25989561Y-163815000D01*
X26560439Y-163815000D01*
X27087862Y-163596534D01*
X27491534Y-163192862D01*
X27499369Y-163173946D01*
X27708327Y-163486673D01*
X28216073Y-163825938D01*
X28663818Y-163915000D01*
X30856823Y-163915000D01*
X31008000Y-163945071D01*
X31159177Y-163915000D01*
X31159182Y-163915000D01*
X31606927Y-163825938D01*
X32114673Y-163486673D01*
X32200312Y-163358505D01*
X33648508Y-161910310D01*
X33776673Y-161824673D01*
X34115938Y-161316927D01*
X34205000Y-160869182D01*
X34205000Y-160869181D01*
X34235072Y-160718000D01*
X34205000Y-160566819D01*
X34205000Y-149677176D01*
X34235071Y-149525999D01*
X34205000Y-149374822D01*
X34205000Y-149374818D01*
X34115938Y-148927073D01*
X33776673Y-148419327D01*
X33648507Y-148333689D01*
X31926312Y-146611495D01*
X31840673Y-146483327D01*
X31332927Y-146144062D01*
X30885182Y-146055000D01*
X30885177Y-146055000D01*
X30734000Y-146024929D01*
X30582823Y-146055000D01*
X27051818Y-146055000D01*
X25411000Y-144414183D01*
X25411000Y-142834887D01*
X27475000Y-142834887D01*
X27475000Y-143525113D01*
X27739138Y-144162799D01*
X28227201Y-144650862D01*
X28864887Y-144915000D01*
X29555113Y-144915000D01*
X30192799Y-144650862D01*
X30680862Y-144162799D01*
X30945000Y-143525113D01*
X30945000Y-142834887D01*
X30680862Y-142197201D01*
X30192799Y-141709138D01*
X29555113Y-141445000D01*
X28864887Y-141445000D01*
X28227201Y-141709138D01*
X27739138Y-142197201D01*
X27475000Y-142834887D01*
X25411000Y-142834887D01*
X25411000Y-140780522D01*
X28963084Y-140780522D01*
X29183853Y-141151243D01*
X30155512Y-141544619D01*
X31203747Y-141536213D01*
X32133147Y-141151243D01*
X32353916Y-140780522D01*
X30658500Y-139085105D01*
X28963084Y-140780522D01*
X25411000Y-140780522D01*
X25411000Y-138402512D01*
X28019381Y-138402512D01*
X28027787Y-139450747D01*
X28412757Y-140380147D01*
X28783478Y-140600916D01*
X30478895Y-138905500D01*
X30838105Y-138905500D01*
X32533522Y-140600916D01*
X32904243Y-140380147D01*
X33297619Y-139408488D01*
X33289213Y-138360253D01*
X32904243Y-137430853D01*
X32533522Y-137210084D01*
X30838105Y-138905500D01*
X30478895Y-138905500D01*
X28783478Y-137210084D01*
X28412757Y-137430853D01*
X28019381Y-138402512D01*
X25411000Y-138402512D01*
X25411000Y-137030478D01*
X28963084Y-137030478D01*
X30658500Y-138725895D01*
X32353916Y-137030478D01*
X32133147Y-136659757D01*
X31161488Y-136266381D01*
X30113253Y-136274787D01*
X29183853Y-136659757D01*
X28963084Y-137030478D01*
X25411000Y-137030478D01*
X25411000Y-135262440D01*
X25752799Y-135120862D01*
X26240862Y-134632799D01*
X26505000Y-133995113D01*
X26505000Y-133380822D01*
X28523500Y-133380822D01*
X28523500Y-134230178D01*
X28848534Y-135014880D01*
X29449120Y-135615466D01*
X30233822Y-135940500D01*
X31083178Y-135940500D01*
X31710820Y-135680522D01*
X34063084Y-135680522D01*
X34283853Y-136051243D01*
X35255512Y-136444619D01*
X36303747Y-136436213D01*
X37233147Y-136051243D01*
X37453916Y-135680522D01*
X35758500Y-133985105D01*
X34063084Y-135680522D01*
X31710820Y-135680522D01*
X31867880Y-135615466D01*
X32468466Y-135014880D01*
X32793500Y-134230178D01*
X32793500Y-133380822D01*
X32761063Y-133302512D01*
X33119381Y-133302512D01*
X33127787Y-134350747D01*
X33512757Y-135280147D01*
X33883478Y-135500916D01*
X35578895Y-133805500D01*
X33883478Y-132110084D01*
X33512757Y-132330853D01*
X33119381Y-133302512D01*
X32761063Y-133302512D01*
X32468466Y-132596120D01*
X31867880Y-131995534D01*
X31710821Y-131930478D01*
X34063084Y-131930478D01*
X35758500Y-133625895D01*
X37453916Y-131930478D01*
X37233147Y-131559757D01*
X36261488Y-131166381D01*
X35213253Y-131174787D01*
X34283853Y-131559757D01*
X34063084Y-131930478D01*
X31710821Y-131930478D01*
X31083178Y-131670500D01*
X30233822Y-131670500D01*
X29449120Y-131995534D01*
X28848534Y-132596120D01*
X28523500Y-133380822D01*
X26505000Y-133380822D01*
X26505000Y-133304887D01*
X26240862Y-132667201D01*
X25752799Y-132179138D01*
X25115113Y-131915000D01*
X24424887Y-131915000D01*
X23787201Y-132179138D01*
X23299138Y-132667201D01*
X23099137Y-133150046D01*
X22897493Y-133351690D01*
X22769328Y-133437327D01*
X22683691Y-133565492D01*
X22683690Y-133565493D01*
X22430063Y-133945073D01*
X22310929Y-134544000D01*
X22341001Y-134695182D01*
X22341000Y-144898823D01*
X22310929Y-145050000D01*
X22341000Y-145201177D01*
X22341000Y-145201181D01*
X22430062Y-145648926D01*
X22769327Y-146156673D01*
X22897495Y-146242312D01*
X25223690Y-148568507D01*
X25309327Y-148696673D01*
X25817073Y-149035938D01*
X26264818Y-149125000D01*
X26264822Y-149125000D01*
X26415999Y-149155071D01*
X26567176Y-149125000D01*
X30098183Y-149125000D01*
X31135001Y-150161819D01*
X31135000Y-156320604D01*
X30897862Y-156083466D01*
X30370439Y-155865000D01*
X29799561Y-155865000D01*
X29272138Y-156083466D01*
X28868466Y-156487138D01*
X28815000Y-156616216D01*
X28761534Y-156487138D01*
X28357862Y-156083466D01*
X27830439Y-155865000D01*
X27259561Y-155865000D01*
X26732138Y-156083466D01*
X26328466Y-156487138D01*
X26275000Y-156616216D01*
X26221534Y-156487138D01*
X25817862Y-156083466D01*
X25290439Y-155865000D01*
X24719561Y-155865000D01*
X24192138Y-156083466D01*
X23788466Y-156487138D01*
X23735000Y-156616216D01*
X23681534Y-156487138D01*
X23277862Y-156083466D01*
X22750439Y-155865000D01*
X22179561Y-155865000D01*
X21652138Y-156083466D01*
X21248466Y-156487138D01*
X21201475Y-156600583D01*
X21178864Y-156545995D01*
X20932745Y-156471861D01*
X20104605Y-157300000D01*
X19745395Y-157300000D01*
X18917255Y-156471861D01*
X18671136Y-156545995D01*
X18650126Y-156604448D01*
X18601534Y-156487138D01*
X18406651Y-156292255D01*
X19096861Y-156292255D01*
X19925000Y-157120395D01*
X20753139Y-156292255D01*
X20679005Y-156046136D01*
X20141777Y-155853035D01*
X19571546Y-155880222D01*
X19170995Y-156046136D01*
X19096861Y-156292255D01*
X18406651Y-156292255D01*
X18197862Y-156083466D01*
X17670439Y-155865000D01*
X17099561Y-155865000D01*
X16572138Y-156083466D01*
X16168466Y-156487138D01*
X16115000Y-156616216D01*
X16061534Y-156487138D01*
X15657862Y-156083466D01*
X15130439Y-155865000D01*
X14559561Y-155865000D01*
X14032138Y-156083466D01*
X13628466Y-156487138D01*
X13575000Y-156616216D01*
X13521534Y-156487138D01*
X13117862Y-156083466D01*
X12590439Y-155865000D01*
X12019561Y-155865000D01*
X11492138Y-156083466D01*
X11088466Y-156487138D01*
X10870000Y-157014561D01*
X735000Y-157014561D01*
X735000Y-130580522D01*
X28963084Y-130580522D01*
X29183853Y-130951243D01*
X30155512Y-131344619D01*
X31203747Y-131336213D01*
X32133147Y-130951243D01*
X32353916Y-130580522D01*
X30658500Y-128885105D01*
X28963084Y-130580522D01*
X735000Y-130580522D01*
X735000Y-128202512D01*
X28019381Y-128202512D01*
X28027787Y-129250747D01*
X28412757Y-130180147D01*
X28783478Y-130400916D01*
X30478895Y-128705500D01*
X30838105Y-128705500D01*
X32533522Y-130400916D01*
X32904243Y-130180147D01*
X33297619Y-129208488D01*
X33289213Y-128160253D01*
X32904243Y-127230853D01*
X32533522Y-127010084D01*
X30838105Y-128705500D01*
X30478895Y-128705500D01*
X28783478Y-127010084D01*
X28412757Y-127230853D01*
X28019381Y-128202512D01*
X735000Y-128202512D01*
X735000Y-126830478D01*
X28963084Y-126830478D01*
X30658500Y-128525895D01*
X32353916Y-126830478D01*
X32133147Y-126459757D01*
X31161488Y-126066381D01*
X30113253Y-126074787D01*
X29183853Y-126459757D01*
X28963084Y-126830478D01*
X735000Y-126830478D01*
X735000Y-124524522D01*
X28963084Y-124524522D01*
X29183853Y-124895243D01*
X30155512Y-125288619D01*
X31203747Y-125280213D01*
X32133147Y-124895243D01*
X32353916Y-124524522D01*
X30658500Y-122829105D01*
X28963084Y-124524522D01*
X735000Y-124524522D01*
X735000Y-122146512D01*
X28019381Y-122146512D01*
X28027787Y-123194747D01*
X28412757Y-124124147D01*
X28783478Y-124344916D01*
X30478895Y-122649500D01*
X30838105Y-122649500D01*
X32533522Y-124344916D01*
X32904243Y-124124147D01*
X33297619Y-123152488D01*
X33289213Y-122104253D01*
X32904243Y-121174853D01*
X32533522Y-120954084D01*
X30838105Y-122649500D01*
X30478895Y-122649500D01*
X28783478Y-120954084D01*
X28412757Y-121174853D01*
X28019381Y-122146512D01*
X735000Y-122146512D01*
X735000Y-120774478D01*
X28963084Y-120774478D01*
X30658500Y-122469895D01*
X32353916Y-120774478D01*
X32133147Y-120403757D01*
X31161488Y-120010381D01*
X30113253Y-120018787D01*
X29183853Y-120403757D01*
X28963084Y-120774478D01*
X735000Y-120774478D01*
X735000Y-117124822D01*
X28523500Y-117124822D01*
X28523500Y-117974178D01*
X28848534Y-118758880D01*
X29449120Y-119359466D01*
X30233822Y-119684500D01*
X31083178Y-119684500D01*
X31710820Y-119424522D01*
X34063084Y-119424522D01*
X34283853Y-119795243D01*
X35255512Y-120188619D01*
X36303747Y-120180213D01*
X37233147Y-119795243D01*
X37453916Y-119424522D01*
X35758500Y-117729105D01*
X34063084Y-119424522D01*
X31710820Y-119424522D01*
X31867880Y-119359466D01*
X32468466Y-118758880D01*
X32793500Y-117974178D01*
X32793500Y-117124822D01*
X32761063Y-117046512D01*
X33119381Y-117046512D01*
X33127787Y-118094747D01*
X33512757Y-119024147D01*
X33883478Y-119244916D01*
X35578895Y-117549500D01*
X33883478Y-115854084D01*
X33512757Y-116074853D01*
X33119381Y-117046512D01*
X32761063Y-117046512D01*
X32468466Y-116340120D01*
X31867880Y-115739534D01*
X31710821Y-115674478D01*
X34063084Y-115674478D01*
X35758500Y-117369895D01*
X37453916Y-115674478D01*
X37233147Y-115303757D01*
X36261488Y-114910381D01*
X35213253Y-114918787D01*
X34283853Y-115303757D01*
X34063084Y-115674478D01*
X31710821Y-115674478D01*
X31083178Y-115414500D01*
X30233822Y-115414500D01*
X29449120Y-115739534D01*
X28848534Y-116340120D01*
X28523500Y-117124822D01*
X735000Y-117124822D01*
X735000Y-114324522D01*
X28963084Y-114324522D01*
X29183853Y-114695243D01*
X30155512Y-115088619D01*
X31203747Y-115080213D01*
X32133147Y-114695243D01*
X32353916Y-114324522D01*
X30658500Y-112629105D01*
X28963084Y-114324522D01*
X735000Y-114324522D01*
X735000Y-111946512D01*
X28019381Y-111946512D01*
X28027787Y-112994747D01*
X28412757Y-113924147D01*
X28783478Y-114144916D01*
X30478895Y-112449500D01*
X30838105Y-112449500D01*
X32533522Y-114144916D01*
X32904243Y-113924147D01*
X33297619Y-112952488D01*
X33289213Y-111904253D01*
X32904243Y-110974853D01*
X32533522Y-110754084D01*
X30838105Y-112449500D01*
X30478895Y-112449500D01*
X28783478Y-110754084D01*
X28412757Y-110974853D01*
X28019381Y-111946512D01*
X735000Y-111946512D01*
X735000Y-110574478D01*
X28963084Y-110574478D01*
X30658500Y-112269895D01*
X32353916Y-110574478D01*
X32133147Y-110203757D01*
X31161488Y-109810381D01*
X30113253Y-109818787D01*
X29183853Y-110203757D01*
X28963084Y-110574478D01*
X735000Y-110574478D01*
X735000Y-105834887D01*
X27475000Y-105834887D01*
X27475000Y-106525113D01*
X27739138Y-107162799D01*
X28227201Y-107650862D01*
X28864887Y-107915000D01*
X29555113Y-107915000D01*
X30192799Y-107650862D01*
X30680862Y-107162799D01*
X30945000Y-106525113D01*
X30945000Y-105834887D01*
X30680862Y-105197201D01*
X30192799Y-104709138D01*
X29555113Y-104445000D01*
X28864887Y-104445000D01*
X28227201Y-104709138D01*
X27739138Y-105197201D01*
X27475000Y-105834887D01*
X735000Y-105834887D01*
X735000Y-102359027D01*
X31005032Y-102359027D01*
X31253179Y-102888490D01*
X31685053Y-103282688D01*
X32100974Y-103454958D01*
X32333000Y-103333817D01*
X32333000Y-102127000D01*
X31125531Y-102127000D01*
X31005032Y-102359027D01*
X735000Y-102359027D01*
X735000Y-96304887D01*
X23035000Y-96304887D01*
X23035000Y-96995113D01*
X23299138Y-97632799D01*
X23787201Y-98120862D01*
X24424887Y-98385000D01*
X25115113Y-98385000D01*
X25752799Y-98120862D01*
X26240862Y-97632799D01*
X26505000Y-96995113D01*
X26505000Y-96304887D01*
X26240862Y-95667201D01*
X25752799Y-95179138D01*
X25115113Y-94915000D01*
X24424887Y-94915000D01*
X23787201Y-95179138D01*
X23299138Y-95667201D01*
X23035000Y-96304887D01*
X735000Y-96304887D01*
X735000Y-91840000D01*
X30932041Y-91840000D01*
X31048350Y-92424725D01*
X31379570Y-92920430D01*
X31663281Y-93110000D01*
X31379570Y-93299570D01*
X31048350Y-93795275D01*
X30932041Y-94380000D01*
X31048350Y-94964725D01*
X31379570Y-95460430D01*
X31663281Y-95650000D01*
X31379570Y-95839570D01*
X31048350Y-96335275D01*
X30932041Y-96920000D01*
X31048350Y-97504725D01*
X31379570Y-98000430D01*
X31663281Y-98190000D01*
X31379570Y-98379570D01*
X31048350Y-98875275D01*
X30932041Y-99460000D01*
X31048350Y-100044725D01*
X31379570Y-100540430D01*
X31667826Y-100733037D01*
X31253179Y-101111510D01*
X31005032Y-101640973D01*
X31125531Y-101873000D01*
X32333000Y-101873000D01*
X32333000Y-101853000D01*
X32587000Y-101853000D01*
X32587000Y-101873000D01*
X32607000Y-101873000D01*
X32607000Y-102127000D01*
X32587000Y-102127000D01*
X32587000Y-103333817D01*
X32819026Y-103454958D01*
X33234947Y-103282688D01*
X33520480Y-103022064D01*
X33538243Y-103111365D01*
X33678591Y-103321409D01*
X33888635Y-103461757D01*
X34136400Y-103511040D01*
X35863600Y-103511040D01*
X36111365Y-103461757D01*
X36321409Y-103321409D01*
X36461757Y-103111365D01*
X36511040Y-102863600D01*
X36511040Y-101136400D01*
X36461757Y-100888635D01*
X36321409Y-100678591D01*
X36111365Y-100538243D01*
X36085349Y-100533068D01*
X36411650Y-100044725D01*
X36527959Y-99460000D01*
X36411650Y-98875275D01*
X36080430Y-98379570D01*
X35796719Y-98190000D01*
X36080430Y-98000430D01*
X36411650Y-97504725D01*
X36527959Y-96920000D01*
X36411650Y-96335275D01*
X36080430Y-95839570D01*
X35796719Y-95650000D01*
X36080430Y-95460430D01*
X36411650Y-94964725D01*
X36527959Y-94380000D01*
X36411650Y-93795275D01*
X36080430Y-93299570D01*
X35796719Y-93110000D01*
X36080430Y-92920430D01*
X36411650Y-92424725D01*
X36527959Y-91840000D01*
X36411650Y-91255275D01*
X36080430Y-90759570D01*
X35584725Y-90428350D01*
X35147598Y-90341400D01*
X34852402Y-90341400D01*
X34415275Y-90428350D01*
X33919570Y-90759570D01*
X33730000Y-91043281D01*
X33540430Y-90759570D01*
X33044725Y-90428350D01*
X32607598Y-90341400D01*
X32312402Y-90341400D01*
X31875275Y-90428350D01*
X31379570Y-90759570D01*
X31048350Y-91255275D01*
X30932041Y-91840000D01*
X735000Y-91840000D01*
X735000Y-83185000D01*
X9144000Y-83185000D01*
X9192601Y-83175333D01*
X9233803Y-83147803D01*
X9804431Y-82577175D01*
X15382430Y-82577175D01*
X15505565Y-82864788D01*
X16187734Y-83124707D01*
X16917443Y-83103786D01*
X17494435Y-82864788D01*
X17617570Y-82577175D01*
X16500000Y-81459605D01*
X15382430Y-82577175D01*
X9804431Y-82577175D01*
X11413872Y-80967734D01*
X14655293Y-80967734D01*
X14676214Y-81697443D01*
X14915212Y-82274435D01*
X15202825Y-82397570D01*
X16320395Y-81280000D01*
X16679605Y-81280000D01*
X17797175Y-82397570D01*
X18084788Y-82274435D01*
X18344707Y-81592266D01*
X18323786Y-80862557D01*
X18084788Y-80285565D01*
X17797175Y-80162430D01*
X16679605Y-81280000D01*
X16320395Y-81280000D01*
X15202825Y-80162430D01*
X14915212Y-80285565D01*
X14655293Y-80967734D01*
X11413872Y-80967734D01*
X12398781Y-79982825D01*
X15382430Y-79982825D01*
X16500000Y-81100395D01*
X17520395Y-80080000D01*
X22152560Y-80080000D01*
X22152560Y-82480000D01*
X22201843Y-82727765D01*
X22342191Y-82937809D01*
X22552235Y-83078157D01*
X22800000Y-83127440D01*
X25200000Y-83127440D01*
X25447765Y-83078157D01*
X25657809Y-82937809D01*
X25798157Y-82727765D01*
X25847440Y-82480000D01*
X25847440Y-80080000D01*
X25798157Y-79832235D01*
X25657809Y-79622191D01*
X25447765Y-79481843D01*
X25200000Y-79432560D01*
X22800000Y-79432560D01*
X22552235Y-79481843D01*
X22342191Y-79622191D01*
X22201843Y-79832235D01*
X22152560Y-80080000D01*
X17520395Y-80080000D01*
X17617570Y-79982825D01*
X17494435Y-79695212D01*
X16812266Y-79435293D01*
X16082557Y-79456214D01*
X15505565Y-79695212D01*
X15382430Y-79982825D01*
X12398781Y-79982825D01*
X17107803Y-75273803D01*
X17135333Y-75232601D01*
X17145000Y-75184000D01*
X17145000Y-67956213D01*
X27123000Y-67956213D01*
X27123000Y-68765787D01*
X27432810Y-69513735D01*
X28005265Y-70086190D01*
X28753213Y-70396000D01*
X29562787Y-70396000D01*
X30310735Y-70086190D01*
X30594201Y-69802724D01*
X33395882Y-69802724D01*
X33543455Y-70111106D01*
X34298031Y-70404405D01*
X35107409Y-70386614D01*
X35772545Y-70111106D01*
X35920118Y-69802724D01*
X34658000Y-68540605D01*
X33395882Y-69802724D01*
X30594201Y-69802724D01*
X30883190Y-69513735D01*
X31193000Y-68765787D01*
X31193000Y-68001031D01*
X32614595Y-68001031D01*
X32632386Y-68810409D01*
X32907894Y-69475545D01*
X33216276Y-69623118D01*
X34478395Y-68361000D01*
X34837605Y-68361000D01*
X36099724Y-69623118D01*
X36408106Y-69475545D01*
X36701405Y-68720969D01*
X36683614Y-67911591D01*
X36408106Y-67246455D01*
X36099724Y-67098882D01*
X34837605Y-68361000D01*
X34478395Y-68361000D01*
X33216276Y-67098882D01*
X32907894Y-67246455D01*
X32614595Y-68001031D01*
X31193000Y-68001031D01*
X31193000Y-67956213D01*
X30883190Y-67208265D01*
X30594201Y-66919276D01*
X33395882Y-66919276D01*
X34658000Y-68181395D01*
X35920118Y-66919276D01*
X35772545Y-66610894D01*
X35017969Y-66317595D01*
X34208591Y-66335386D01*
X33543455Y-66610894D01*
X33395882Y-66919276D01*
X30594201Y-66919276D01*
X30310735Y-66635810D01*
X29562787Y-66326000D01*
X28753213Y-66326000D01*
X28005265Y-66635810D01*
X27432810Y-67208265D01*
X27123000Y-67956213D01*
X17145000Y-67956213D01*
X17145000Y-66802000D01*
X17135333Y-66753399D01*
X17107803Y-66712197D01*
X14151819Y-63756213D01*
X27123000Y-63756213D01*
X27123000Y-64565787D01*
X27432810Y-65313735D01*
X28005265Y-65886190D01*
X28753213Y-66196000D01*
X29562787Y-66196000D01*
X30310735Y-65886190D01*
X30883190Y-65313735D01*
X31193000Y-64565787D01*
X31193000Y-64446750D01*
X32623000Y-64446750D01*
X32623000Y-65687309D01*
X32719673Y-65920698D01*
X32898301Y-66099327D01*
X33131690Y-66196000D01*
X34372250Y-66196000D01*
X34531000Y-66037250D01*
X34531000Y-64288000D01*
X34785000Y-64288000D01*
X34785000Y-66037250D01*
X34943750Y-66196000D01*
X36184310Y-66196000D01*
X36417699Y-66099327D01*
X36596327Y-65920698D01*
X36693000Y-65687309D01*
X36693000Y-64446750D01*
X36534250Y-64288000D01*
X34785000Y-64288000D01*
X34531000Y-64288000D01*
X32781750Y-64288000D01*
X32623000Y-64446750D01*
X31193000Y-64446750D01*
X31193000Y-63756213D01*
X30883190Y-63008265D01*
X30509616Y-62634691D01*
X32623000Y-62634691D01*
X32623000Y-63875250D01*
X32781750Y-64034000D01*
X34531000Y-64034000D01*
X34531000Y-62284750D01*
X34785000Y-62284750D01*
X34785000Y-64034000D01*
X36534250Y-64034000D01*
X36693000Y-63875250D01*
X36693000Y-62634691D01*
X36596327Y-62401302D01*
X36417699Y-62222673D01*
X36184310Y-62126000D01*
X34943750Y-62126000D01*
X34785000Y-62284750D01*
X34531000Y-62284750D01*
X34372250Y-62126000D01*
X33131690Y-62126000D01*
X32898301Y-62222673D01*
X32719673Y-62401302D01*
X32623000Y-62634691D01*
X30509616Y-62634691D01*
X30310735Y-62435810D01*
X29562787Y-62126000D01*
X28753213Y-62126000D01*
X28005265Y-62435810D01*
X27432810Y-63008265D01*
X27123000Y-63756213D01*
X14151819Y-63756213D01*
X8255000Y-57859394D01*
X8255000Y-46425105D01*
X15955000Y-46425105D01*
X15955000Y-47194895D01*
X16249586Y-47906090D01*
X16793910Y-48450414D01*
X17505105Y-48745000D01*
X18274895Y-48745000D01*
X18986090Y-48450414D01*
X19530414Y-47906090D01*
X19825000Y-47194895D01*
X19825000Y-46425105D01*
X19530414Y-45713910D01*
X18986090Y-45169586D01*
X18274895Y-44875000D01*
X17505105Y-44875000D01*
X16793910Y-45169586D01*
X16249586Y-45713910D01*
X15955000Y-46425105D01*
X8255000Y-46425105D01*
X8255000Y-42654887D01*
X11075000Y-42654887D01*
X11075000Y-43345113D01*
X11339138Y-43982799D01*
X11827201Y-44470862D01*
X12464887Y-44735000D01*
X13155113Y-44735000D01*
X13792799Y-44470862D01*
X14280862Y-43982799D01*
X14545000Y-43345113D01*
X14545000Y-42654887D01*
X16155000Y-42654887D01*
X16155000Y-43345113D01*
X16419138Y-43982799D01*
X16907201Y-44470862D01*
X17544887Y-44735000D01*
X18235113Y-44735000D01*
X18872799Y-44470862D01*
X19360862Y-43982799D01*
X19625000Y-43345113D01*
X19625000Y-42654887D01*
X19360862Y-42017201D01*
X18872799Y-41529138D01*
X18235113Y-41265000D01*
X17544887Y-41265000D01*
X16907201Y-41529138D01*
X16419138Y-42017201D01*
X16155000Y-42654887D01*
X14545000Y-42654887D01*
X14280862Y-42017201D01*
X13792799Y-41529138D01*
X13155113Y-41265000D01*
X12464887Y-41265000D01*
X11827201Y-41529138D01*
X11339138Y-42017201D01*
X11075000Y-42654887D01*
X8255000Y-42654887D01*
X8255000Y-40946606D01*
X8617012Y-40584594D01*
X8714561Y-40625000D01*
X9285439Y-40625000D01*
X9812862Y-40406534D01*
X9960396Y-40259000D01*
X16238365Y-40259000D01*
X16249586Y-40286090D01*
X16793910Y-40830414D01*
X17505105Y-41125000D01*
X18274895Y-41125000D01*
X18986090Y-40830414D01*
X19530414Y-40286090D01*
X19671359Y-39945818D01*
X20628177Y-38989000D01*
X33984965Y-38989000D01*
X35180571Y-40184606D01*
X35180571Y-40184606D01*
G37*
X35180571Y-40184606D02*
X35180571Y-41656000D01*
X35190238Y-41704601D01*
X35217768Y-41745803D01*
X35688571Y-42216606D01*
X35688571Y-46990000D01*
X35698238Y-47038601D01*
X35725768Y-47079803D01*
X38265001Y-49619036D01*
X38265000Y-116704377D01*
X38004243Y-116074853D01*
X37633522Y-115854084D01*
X35938105Y-117549500D01*
X37633522Y-119244916D01*
X38004243Y-119024147D01*
X38265000Y-118380063D01*
X38265000Y-132960377D01*
X38004243Y-132330853D01*
X37633522Y-132110084D01*
X35938105Y-133805500D01*
X37633522Y-135500916D01*
X38004243Y-135280147D01*
X38265000Y-134636063D01*
X38265000Y-166265000D01*
X735000Y-166265000D01*
X735000Y-162094561D01*
X12140000Y-162094561D01*
X12140000Y-162665439D01*
X12358466Y-163192862D01*
X12762138Y-163596534D01*
X13289561Y-163815000D01*
X13860439Y-163815000D01*
X14387862Y-163596534D01*
X14791534Y-163192862D01*
X14845000Y-163063784D01*
X14898466Y-163192862D01*
X15302138Y-163596534D01*
X15829561Y-163815000D01*
X16400439Y-163815000D01*
X16927862Y-163596534D01*
X17331534Y-163192862D01*
X17385000Y-163063784D01*
X17438466Y-163192862D01*
X17842138Y-163596534D01*
X18369561Y-163815000D01*
X18940439Y-163815000D01*
X19467862Y-163596534D01*
X19676651Y-163387745D01*
X20366861Y-163387745D01*
X20440995Y-163633864D01*
X20978223Y-163826965D01*
X21548454Y-163799778D01*
X21949005Y-163633864D01*
X22023139Y-163387745D01*
X21195000Y-162559605D01*
X20366861Y-163387745D01*
X19676651Y-163387745D01*
X19871534Y-163192862D01*
X19918525Y-163079417D01*
X19941136Y-163134005D01*
X20187255Y-163208139D01*
X21015395Y-162380000D01*
X20187255Y-161551861D01*
X19941136Y-161625995D01*
X19920126Y-161684448D01*
X19871534Y-161567138D01*
X19676651Y-161372255D01*
X20366861Y-161372255D01*
X21195000Y-162200395D01*
X22023139Y-161372255D01*
X21949005Y-161126136D01*
X21411777Y-160933035D01*
X20841546Y-160960222D01*
X20440995Y-161126136D01*
X20366861Y-161372255D01*
X19676651Y-161372255D01*
X19467862Y-161163466D01*
X18940439Y-160945000D01*
X18369561Y-160945000D01*
X17842138Y-161163466D01*
X17438466Y-161567138D01*
X17385000Y-161696216D01*
X17331534Y-161567138D01*
X16927862Y-161163466D01*
X16400439Y-160945000D01*
X15829561Y-160945000D01*
X15302138Y-161163466D01*
X14898466Y-161567138D01*
X14845000Y-161696216D01*
X14791534Y-161567138D01*
X14387862Y-161163466D01*
X13860439Y-160945000D01*
X13289561Y-160945000D01*
X12762138Y-161163466D01*
X12358466Y-161567138D01*
X12140000Y-162094561D01*
X735000Y-162094561D01*
X735000Y-157014561D01*
X10870000Y-157014561D01*
X10870000Y-157585439D01*
X11088466Y-158112862D01*
X11492138Y-158516534D01*
X12019561Y-158735000D01*
X12590439Y-158735000D01*
X13117862Y-158516534D01*
X13521534Y-158112862D01*
X13575000Y-157983784D01*
X13628466Y-158112862D01*
X14032138Y-158516534D01*
X14559561Y-158735000D01*
X15130439Y-158735000D01*
X15657862Y-158516534D01*
X16061534Y-158112862D01*
X16115000Y-157983784D01*
X16168466Y-158112862D01*
X16572138Y-158516534D01*
X17099561Y-158735000D01*
X17670439Y-158735000D01*
X18197862Y-158516534D01*
X18406651Y-158307745D01*
X19096861Y-158307745D01*
X19170995Y-158553864D01*
X19708223Y-158746965D01*
X20278454Y-158719778D01*
X20679005Y-158553864D01*
X20753139Y-158307745D01*
X19925000Y-157479605D01*
X19096861Y-158307745D01*
X18406651Y-158307745D01*
X18601534Y-158112862D01*
X18648525Y-157999417D01*
X18671136Y-158054005D01*
X18917255Y-158128139D01*
X19745395Y-157300000D01*
X20104605Y-157300000D01*
X20932745Y-158128139D01*
X21178864Y-158054005D01*
X21199874Y-157995552D01*
X21248466Y-158112862D01*
X21652138Y-158516534D01*
X22179561Y-158735000D01*
X22750439Y-158735000D01*
X23277862Y-158516534D01*
X23681534Y-158112862D01*
X23735000Y-157983784D01*
X23788466Y-158112862D01*
X24192138Y-158516534D01*
X24719561Y-158735000D01*
X25290439Y-158735000D01*
X25817862Y-158516534D01*
X26221534Y-158112862D01*
X26275000Y-157983784D01*
X26328466Y-158112862D01*
X26732138Y-158516534D01*
X27259561Y-158735000D01*
X27830439Y-158735000D01*
X28357862Y-158516534D01*
X28761534Y-158112862D01*
X28815000Y-157983784D01*
X28868466Y-158112862D01*
X29272138Y-158516534D01*
X29799561Y-158735000D01*
X30370439Y-158735000D01*
X30897862Y-158516534D01*
X31135000Y-158279396D01*
X31135000Y-160082182D01*
X30372183Y-160845000D01*
X28663818Y-160845000D01*
X28216073Y-160934062D01*
X27708327Y-161273327D01*
X27499369Y-161586054D01*
X27491534Y-161567138D01*
X27087862Y-161163466D01*
X26560439Y-160945000D01*
X25989561Y-160945000D01*
X25462138Y-161163466D01*
X25058466Y-161567138D01*
X25005000Y-161696216D01*
X24951534Y-161567138D01*
X24547862Y-161163466D01*
X24020439Y-160945000D01*
X23449561Y-160945000D01*
X22922138Y-161163466D01*
X22518466Y-161567138D01*
X22471475Y-161680583D01*
X22448864Y-161625995D01*
X22202745Y-161551861D01*
X21374605Y-162380000D01*
X22202745Y-163208139D01*
X22448864Y-163134005D01*
X22469874Y-163075552D01*
X22518466Y-163192862D01*
X22922138Y-163596534D01*
X23449561Y-163815000D01*
X24020439Y-163815000D01*
X24547862Y-163596534D01*
X24951534Y-163192862D01*
X25005000Y-163063784D01*
X25058466Y-163192862D01*
X25462138Y-163596534D01*
X25989561Y-163815000D01*
X26560439Y-163815000D01*
X27087862Y-163596534D01*
X27491534Y-163192862D01*
X27499369Y-163173946D01*
X27708327Y-163486673D01*
X28216073Y-163825938D01*
X28663818Y-163915000D01*
X30856823Y-163915000D01*
X31008000Y-163945071D01*
X31159177Y-163915000D01*
X31159182Y-163915000D01*
X31606927Y-163825938D01*
X32114673Y-163486673D01*
X32200312Y-163358505D01*
X33648508Y-161910310D01*
X33776673Y-161824673D01*
X34115938Y-161316927D01*
X34205000Y-160869182D01*
X34205000Y-160869181D01*
X34235072Y-160718000D01*
X34205000Y-160566819D01*
X34205000Y-149677176D01*
X34235071Y-149525999D01*
X34205000Y-149374822D01*
X34205000Y-149374818D01*
X34115938Y-148927073D01*
X33776673Y-148419327D01*
X33648507Y-148333689D01*
X31926312Y-146611495D01*
X31840673Y-146483327D01*
X31332927Y-146144062D01*
X30885182Y-146055000D01*
X30885177Y-146055000D01*
X30734000Y-146024929D01*
X30582823Y-146055000D01*
X27051818Y-146055000D01*
X25411000Y-144414183D01*
X25411000Y-142834887D01*
X27475000Y-142834887D01*
X27475000Y-143525113D01*
X27739138Y-144162799D01*
X28227201Y-144650862D01*
X28864887Y-144915000D01*
X29555113Y-144915000D01*
X30192799Y-144650862D01*
X30680862Y-144162799D01*
X30945000Y-143525113D01*
X30945000Y-142834887D01*
X30680862Y-142197201D01*
X30192799Y-141709138D01*
X29555113Y-141445000D01*
X28864887Y-141445000D01*
X28227201Y-141709138D01*
X27739138Y-142197201D01*
X27475000Y-142834887D01*
X25411000Y-142834887D01*
X25411000Y-140780522D01*
X28963084Y-140780522D01*
X29183853Y-141151243D01*
X30155512Y-141544619D01*
X31203747Y-141536213D01*
X32133147Y-141151243D01*
X32353916Y-140780522D01*
X30658500Y-139085105D01*
X28963084Y-140780522D01*
X25411000Y-140780522D01*
X25411000Y-138402512D01*
X28019381Y-138402512D01*
X28027787Y-139450747D01*
X28412757Y-140380147D01*
X28783478Y-140600916D01*
X30478895Y-138905500D01*
X30838105Y-138905500D01*
X32533522Y-140600916D01*
X32904243Y-140380147D01*
X33297619Y-139408488D01*
X33289213Y-138360253D01*
X32904243Y-137430853D01*
X32533522Y-137210084D01*
X30838105Y-138905500D01*
X30478895Y-138905500D01*
X28783478Y-137210084D01*
X28412757Y-137430853D01*
X28019381Y-138402512D01*
X25411000Y-138402512D01*
X25411000Y-137030478D01*
X28963084Y-137030478D01*
X30658500Y-138725895D01*
X32353916Y-137030478D01*
X32133147Y-136659757D01*
X31161488Y-136266381D01*
X30113253Y-136274787D01*
X29183853Y-136659757D01*
X28963084Y-137030478D01*
X25411000Y-137030478D01*
X25411000Y-135262440D01*
X25752799Y-135120862D01*
X26240862Y-134632799D01*
X26505000Y-133995113D01*
X26505000Y-133380822D01*
X28523500Y-133380822D01*
X28523500Y-134230178D01*
X28848534Y-135014880D01*
X29449120Y-135615466D01*
X30233822Y-135940500D01*
X31083178Y-135940500D01*
X31710820Y-135680522D01*
X34063084Y-135680522D01*
X34283853Y-136051243D01*
X35255512Y-136444619D01*
X36303747Y-136436213D01*
X37233147Y-136051243D01*
X37453916Y-135680522D01*
X35758500Y-133985105D01*
X34063084Y-135680522D01*
X31710820Y-135680522D01*
X31867880Y-135615466D01*
X32468466Y-135014880D01*
X32793500Y-134230178D01*
X32793500Y-133380822D01*
X32761063Y-133302512D01*
X33119381Y-133302512D01*
X33127787Y-134350747D01*
X33512757Y-135280147D01*
X33883478Y-135500916D01*
X35578895Y-133805500D01*
X33883478Y-132110084D01*
X33512757Y-132330853D01*
X33119381Y-133302512D01*
X32761063Y-133302512D01*
X32468466Y-132596120D01*
X31867880Y-131995534D01*
X31710821Y-131930478D01*
X34063084Y-131930478D01*
X35758500Y-133625895D01*
X37453916Y-131930478D01*
X37233147Y-131559757D01*
X36261488Y-131166381D01*
X35213253Y-131174787D01*
X34283853Y-131559757D01*
X34063084Y-131930478D01*
X31710821Y-131930478D01*
X31083178Y-131670500D01*
X30233822Y-131670500D01*
X29449120Y-131995534D01*
X28848534Y-132596120D01*
X28523500Y-133380822D01*
X26505000Y-133380822D01*
X26505000Y-133304887D01*
X26240862Y-132667201D01*
X25752799Y-132179138D01*
X25115113Y-131915000D01*
X24424887Y-131915000D01*
X23787201Y-132179138D01*
X23299138Y-132667201D01*
X23099137Y-133150046D01*
X22897493Y-133351690D01*
X22769328Y-133437327D01*
X22683691Y-133565492D01*
X22683690Y-133565493D01*
X22430063Y-133945073D01*
X22310929Y-134544000D01*
X22341001Y-134695182D01*
X22341000Y-144898823D01*
X22310929Y-145050000D01*
X22341000Y-145201177D01*
X22341000Y-145201181D01*
X22430062Y-145648926D01*
X22769327Y-146156673D01*
X22897495Y-146242312D01*
X25223690Y-148568507D01*
X25309327Y-148696673D01*
X25817073Y-149035938D01*
X26264818Y-149125000D01*
X26264822Y-149125000D01*
X26415999Y-149155071D01*
X26567176Y-149125000D01*
X30098183Y-149125000D01*
X31135001Y-150161819D01*
X31135000Y-156320604D01*
X30897862Y-156083466D01*
X30370439Y-155865000D01*
X29799561Y-155865000D01*
X29272138Y-156083466D01*
X28868466Y-156487138D01*
X28815000Y-156616216D01*
X28761534Y-156487138D01*
X28357862Y-156083466D01*
X27830439Y-155865000D01*
X27259561Y-155865000D01*
X26732138Y-156083466D01*
X26328466Y-156487138D01*
X26275000Y-156616216D01*
X26221534Y-156487138D01*
X25817862Y-156083466D01*
X25290439Y-155865000D01*
X24719561Y-155865000D01*
X24192138Y-156083466D01*
X23788466Y-156487138D01*
X23735000Y-156616216D01*
X23681534Y-156487138D01*
X23277862Y-156083466D01*
X22750439Y-155865000D01*
X22179561Y-155865000D01*
X21652138Y-156083466D01*
X21248466Y-156487138D01*
X21201475Y-156600583D01*
X21178864Y-156545995D01*
X20932745Y-156471861D01*
X20104605Y-157300000D01*
X19745395Y-157300000D01*
X18917255Y-156471861D01*
X18671136Y-156545995D01*
X18650126Y-156604448D01*
X18601534Y-156487138D01*
X18406651Y-156292255D01*
X19096861Y-156292255D01*
X19925000Y-157120395D01*
X20753139Y-156292255D01*
X20679005Y-156046136D01*
X20141777Y-155853035D01*
X19571546Y-155880222D01*
X19170995Y-156046136D01*
X19096861Y-156292255D01*
X18406651Y-156292255D01*
X18197862Y-156083466D01*
X17670439Y-155865000D01*
X17099561Y-155865000D01*
X16572138Y-156083466D01*
X16168466Y-156487138D01*
X16115000Y-156616216D01*
X16061534Y-156487138D01*
X15657862Y-156083466D01*
X15130439Y-155865000D01*
X14559561Y-155865000D01*
X14032138Y-156083466D01*
X13628466Y-156487138D01*
X13575000Y-156616216D01*
X13521534Y-156487138D01*
X13117862Y-156083466D01*
X12590439Y-155865000D01*
X12019561Y-155865000D01*
X11492138Y-156083466D01*
X11088466Y-156487138D01*
X10870000Y-157014561D01*
X735000Y-157014561D01*
X735000Y-130580522D01*
X28963084Y-130580522D01*
X29183853Y-130951243D01*
X30155512Y-131344619D01*
X31203747Y-131336213D01*
X32133147Y-130951243D01*
X32353916Y-130580522D01*
X30658500Y-128885105D01*
X28963084Y-130580522D01*
X735000Y-130580522D01*
X735000Y-128202512D01*
X28019381Y-128202512D01*
X28027787Y-129250747D01*
X28412757Y-130180147D01*
X28783478Y-130400916D01*
X30478895Y-128705500D01*
X30838105Y-128705500D01*
X32533522Y-130400916D01*
X32904243Y-130180147D01*
X33297619Y-129208488D01*
X33289213Y-128160253D01*
X32904243Y-127230853D01*
X32533522Y-127010084D01*
X30838105Y-128705500D01*
X30478895Y-128705500D01*
X28783478Y-127010084D01*
X28412757Y-127230853D01*
X28019381Y-128202512D01*
X735000Y-128202512D01*
X735000Y-126830478D01*
X28963084Y-126830478D01*
X30658500Y-128525895D01*
X32353916Y-126830478D01*
X32133147Y-126459757D01*
X31161488Y-126066381D01*
X30113253Y-126074787D01*
X29183853Y-126459757D01*
X28963084Y-126830478D01*
X735000Y-126830478D01*
X735000Y-124524522D01*
X28963084Y-124524522D01*
X29183853Y-124895243D01*
X30155512Y-125288619D01*
X31203747Y-125280213D01*
X32133147Y-124895243D01*
X32353916Y-124524522D01*
X30658500Y-122829105D01*
X28963084Y-124524522D01*
X735000Y-124524522D01*
X735000Y-122146512D01*
X28019381Y-122146512D01*
X28027787Y-123194747D01*
X28412757Y-124124147D01*
X28783478Y-124344916D01*
X30478895Y-122649500D01*
X30838105Y-122649500D01*
X32533522Y-124344916D01*
X32904243Y-124124147D01*
X33297619Y-123152488D01*
X33289213Y-122104253D01*
X32904243Y-121174853D01*
X32533522Y-120954084D01*
X30838105Y-122649500D01*
X30478895Y-122649500D01*
X28783478Y-120954084D01*
X28412757Y-121174853D01*
X28019381Y-122146512D01*
X735000Y-122146512D01*
X735000Y-120774478D01*
X28963084Y-120774478D01*
X30658500Y-122469895D01*
X32353916Y-120774478D01*
X32133147Y-120403757D01*
X31161488Y-120010381D01*
X30113253Y-120018787D01*
X29183853Y-120403757D01*
X28963084Y-120774478D01*
X735000Y-120774478D01*
X735000Y-117124822D01*
X28523500Y-117124822D01*
X28523500Y-117974178D01*
X28848534Y-118758880D01*
X29449120Y-119359466D01*
X30233822Y-119684500D01*
X31083178Y-119684500D01*
X31710820Y-119424522D01*
X34063084Y-119424522D01*
X34283853Y-119795243D01*
X35255512Y-120188619D01*
X36303747Y-120180213D01*
X37233147Y-119795243D01*
X37453916Y-119424522D01*
X35758500Y-117729105D01*
X34063084Y-119424522D01*
X31710820Y-119424522D01*
X31867880Y-119359466D01*
X32468466Y-118758880D01*
X32793500Y-117974178D01*
X32793500Y-117124822D01*
X32761063Y-117046512D01*
X33119381Y-117046512D01*
X33127787Y-118094747D01*
X33512757Y-119024147D01*
X33883478Y-119244916D01*
X35578895Y-117549500D01*
X33883478Y-115854084D01*
X33512757Y-116074853D01*
X33119381Y-117046512D01*
X32761063Y-117046512D01*
X32468466Y-116340120D01*
X31867880Y-115739534D01*
X31710821Y-115674478D01*
X34063084Y-115674478D01*
X35758500Y-117369895D01*
X37453916Y-115674478D01*
X37233147Y-115303757D01*
X36261488Y-114910381D01*
X35213253Y-114918787D01*
X34283853Y-115303757D01*
X34063084Y-115674478D01*
X31710821Y-115674478D01*
X31083178Y-115414500D01*
X30233822Y-115414500D01*
X29449120Y-115739534D01*
X28848534Y-116340120D01*
X28523500Y-117124822D01*
X735000Y-117124822D01*
X735000Y-114324522D01*
X28963084Y-114324522D01*
X29183853Y-114695243D01*
X30155512Y-115088619D01*
X31203747Y-115080213D01*
X32133147Y-114695243D01*
X32353916Y-114324522D01*
X30658500Y-112629105D01*
X28963084Y-114324522D01*
X735000Y-114324522D01*
X735000Y-111946512D01*
X28019381Y-111946512D01*
X28027787Y-112994747D01*
X28412757Y-113924147D01*
X28783478Y-114144916D01*
X30478895Y-112449500D01*
X30838105Y-112449500D01*
X32533522Y-114144916D01*
X32904243Y-113924147D01*
X33297619Y-112952488D01*
X33289213Y-111904253D01*
X32904243Y-110974853D01*
X32533522Y-110754084D01*
X30838105Y-112449500D01*
X30478895Y-112449500D01*
X28783478Y-110754084D01*
X28412757Y-110974853D01*
X28019381Y-111946512D01*
X735000Y-111946512D01*
X735000Y-110574478D01*
X28963084Y-110574478D01*
X30658500Y-112269895D01*
X32353916Y-110574478D01*
X32133147Y-110203757D01*
X31161488Y-109810381D01*
X30113253Y-109818787D01*
X29183853Y-110203757D01*
X28963084Y-110574478D01*
X735000Y-110574478D01*
X735000Y-105834887D01*
X27475000Y-105834887D01*
X27475000Y-106525113D01*
X27739138Y-107162799D01*
X28227201Y-107650862D01*
X28864887Y-107915000D01*
X29555113Y-107915000D01*
X30192799Y-107650862D01*
X30680862Y-107162799D01*
X30945000Y-106525113D01*
X30945000Y-105834887D01*
X30680862Y-105197201D01*
X30192799Y-104709138D01*
X29555113Y-104445000D01*
X28864887Y-104445000D01*
X28227201Y-104709138D01*
X27739138Y-105197201D01*
X27475000Y-105834887D01*
X735000Y-105834887D01*
X735000Y-102359027D01*
X31005032Y-102359027D01*
X31253179Y-102888490D01*
X31685053Y-103282688D01*
X32100974Y-103454958D01*
X32333000Y-103333817D01*
X32333000Y-102127000D01*
X31125531Y-102127000D01*
X31005032Y-102359027D01*
X735000Y-102359027D01*
X735000Y-96304887D01*
X23035000Y-96304887D01*
X23035000Y-96995113D01*
X23299138Y-97632799D01*
X23787201Y-98120862D01*
X24424887Y-98385000D01*
X25115113Y-98385000D01*
X25752799Y-98120862D01*
X26240862Y-97632799D01*
X26505000Y-96995113D01*
X26505000Y-96304887D01*
X26240862Y-95667201D01*
X25752799Y-95179138D01*
X25115113Y-94915000D01*
X24424887Y-94915000D01*
X23787201Y-95179138D01*
X23299138Y-95667201D01*
X23035000Y-96304887D01*
X735000Y-96304887D01*
X735000Y-91840000D01*
X30932041Y-91840000D01*
X31048350Y-92424725D01*
X31379570Y-92920430D01*
X31663281Y-93110000D01*
X31379570Y-93299570D01*
X31048350Y-93795275D01*
X30932041Y-94380000D01*
X31048350Y-94964725D01*
X31379570Y-95460430D01*
X31663281Y-95650000D01*
X31379570Y-95839570D01*
X31048350Y-96335275D01*
X30932041Y-96920000D01*
X31048350Y-97504725D01*
X31379570Y-98000430D01*
X31663281Y-98190000D01*
X31379570Y-98379570D01*
X31048350Y-98875275D01*
X30932041Y-99460000D01*
X31048350Y-100044725D01*
X31379570Y-100540430D01*
X31667826Y-100733037D01*
X31253179Y-101111510D01*
X31005032Y-101640973D01*
X31125531Y-101873000D01*
X32333000Y-101873000D01*
X32333000Y-101853000D01*
X32587000Y-101853000D01*
X32587000Y-101873000D01*
X32607000Y-101873000D01*
X32607000Y-102127000D01*
X32587000Y-102127000D01*
X32587000Y-103333817D01*
X32819026Y-103454958D01*
X33234947Y-103282688D01*
X33520480Y-103022064D01*
X33538243Y-103111365D01*
X33678591Y-103321409D01*
X33888635Y-103461757D01*
X34136400Y-103511040D01*
X35863600Y-103511040D01*
X36111365Y-103461757D01*
X36321409Y-103321409D01*
X36461757Y-103111365D01*
X36511040Y-102863600D01*
X36511040Y-101136400D01*
X36461757Y-100888635D01*
X36321409Y-100678591D01*
X36111365Y-100538243D01*
X36085349Y-100533068D01*
X36411650Y-100044725D01*
X36527959Y-99460000D01*
X36411650Y-98875275D01*
X36080430Y-98379570D01*
X35796719Y-98190000D01*
X36080430Y-98000430D01*
X36411650Y-97504725D01*
X36527959Y-96920000D01*
X36411650Y-96335275D01*
X36080430Y-95839570D01*
X35796719Y-95650000D01*
X36080430Y-95460430D01*
X36411650Y-94964725D01*
X36527959Y-94380000D01*
X36411650Y-93795275D01*
X36080430Y-93299570D01*
X35796719Y-93110000D01*
X36080430Y-92920430D01*
X36411650Y-92424725D01*
X36527959Y-91840000D01*
X36411650Y-91255275D01*
X36080430Y-90759570D01*
X35584725Y-90428350D01*
X35147598Y-90341400D01*
X34852402Y-90341400D01*
X34415275Y-90428350D01*
X33919570Y-90759570D01*
X33730000Y-91043281D01*
X33540430Y-90759570D01*
X33044725Y-90428350D01*
X32607598Y-90341400D01*
X32312402Y-90341400D01*
X31875275Y-90428350D01*
X31379570Y-90759570D01*
X31048350Y-91255275D01*
X30932041Y-91840000D01*
X735000Y-91840000D01*
X735000Y-83185000D01*
X9144000Y-83185000D01*
X9192601Y-83175333D01*
X9233803Y-83147803D01*
X9804431Y-82577175D01*
X15382430Y-82577175D01*
X15505565Y-82864788D01*
X16187734Y-83124707D01*
X16917443Y-83103786D01*
X17494435Y-82864788D01*
X17617570Y-82577175D01*
X16500000Y-81459605D01*
X15382430Y-82577175D01*
X9804431Y-82577175D01*
X11413872Y-80967734D01*
X14655293Y-80967734D01*
X14676214Y-81697443D01*
X14915212Y-82274435D01*
X15202825Y-82397570D01*
X16320395Y-81280000D01*
X16679605Y-81280000D01*
X17797175Y-82397570D01*
X18084788Y-82274435D01*
X18344707Y-81592266D01*
X18323786Y-80862557D01*
X18084788Y-80285565D01*
X17797175Y-80162430D01*
X16679605Y-81280000D01*
X16320395Y-81280000D01*
X15202825Y-80162430D01*
X14915212Y-80285565D01*
X14655293Y-80967734D01*
X11413872Y-80967734D01*
X12398781Y-79982825D01*
X15382430Y-79982825D01*
X16500000Y-81100395D01*
X17520395Y-80080000D01*
X22152560Y-80080000D01*
X22152560Y-82480000D01*
X22201843Y-82727765D01*
X22342191Y-82937809D01*
X22552235Y-83078157D01*
X22800000Y-83127440D01*
X25200000Y-83127440D01*
X25447765Y-83078157D01*
X25657809Y-82937809D01*
X25798157Y-82727765D01*
X25847440Y-82480000D01*
X25847440Y-80080000D01*
X25798157Y-79832235D01*
X25657809Y-79622191D01*
X25447765Y-79481843D01*
X25200000Y-79432560D01*
X22800000Y-79432560D01*
X22552235Y-79481843D01*
X22342191Y-79622191D01*
X22201843Y-79832235D01*
X22152560Y-80080000D01*
X17520395Y-80080000D01*
X17617570Y-79982825D01*
X17494435Y-79695212D01*
X16812266Y-79435293D01*
X16082557Y-79456214D01*
X15505565Y-79695212D01*
X15382430Y-79982825D01*
X12398781Y-79982825D01*
X17107803Y-75273803D01*
X17135333Y-75232601D01*
X17145000Y-75184000D01*
X17145000Y-67956213D01*
X27123000Y-67956213D01*
X27123000Y-68765787D01*
X27432810Y-69513735D01*
X28005265Y-70086190D01*
X28753213Y-70396000D01*
X29562787Y-70396000D01*
X30310735Y-70086190D01*
X30594201Y-69802724D01*
X33395882Y-69802724D01*
X33543455Y-70111106D01*
X34298031Y-70404405D01*
X35107409Y-70386614D01*
X35772545Y-70111106D01*
X35920118Y-69802724D01*
X34658000Y-68540605D01*
X33395882Y-69802724D01*
X30594201Y-69802724D01*
X30883190Y-69513735D01*
X31193000Y-68765787D01*
X31193000Y-68001031D01*
X32614595Y-68001031D01*
X32632386Y-68810409D01*
X32907894Y-69475545D01*
X33216276Y-69623118D01*
X34478395Y-68361000D01*
X34837605Y-68361000D01*
X36099724Y-69623118D01*
X36408106Y-69475545D01*
X36701405Y-68720969D01*
X36683614Y-67911591D01*
X36408106Y-67246455D01*
X36099724Y-67098882D01*
X34837605Y-68361000D01*
X34478395Y-68361000D01*
X33216276Y-67098882D01*
X32907894Y-67246455D01*
X32614595Y-68001031D01*
X31193000Y-68001031D01*
X31193000Y-67956213D01*
X30883190Y-67208265D01*
X30594201Y-66919276D01*
X33395882Y-66919276D01*
X34658000Y-68181395D01*
X35920118Y-66919276D01*
X35772545Y-66610894D01*
X35017969Y-66317595D01*
X34208591Y-66335386D01*
X33543455Y-66610894D01*
X33395882Y-66919276D01*
X30594201Y-66919276D01*
X30310735Y-66635810D01*
X29562787Y-66326000D01*
X28753213Y-66326000D01*
X28005265Y-66635810D01*
X27432810Y-67208265D01*
X27123000Y-67956213D01*
X17145000Y-67956213D01*
X17145000Y-66802000D01*
X17135333Y-66753399D01*
X17107803Y-66712197D01*
X14151819Y-63756213D01*
X27123000Y-63756213D01*
X27123000Y-64565787D01*
X27432810Y-65313735D01*
X28005265Y-65886190D01*
X28753213Y-66196000D01*
X29562787Y-66196000D01*
X30310735Y-65886190D01*
X30883190Y-65313735D01*
X31193000Y-64565787D01*
X31193000Y-64446750D01*
X32623000Y-64446750D01*
X32623000Y-65687309D01*
X32719673Y-65920698D01*
X32898301Y-66099327D01*
X33131690Y-66196000D01*
X34372250Y-66196000D01*
X34531000Y-66037250D01*
X34531000Y-64288000D01*
X34785000Y-64288000D01*
X34785000Y-66037250D01*
X34943750Y-66196000D01*
X36184310Y-66196000D01*
X36417699Y-66099327D01*
X36596327Y-65920698D01*
X36693000Y-65687309D01*
X36693000Y-64446750D01*
X36534250Y-64288000D01*
X34785000Y-64288000D01*
X34531000Y-64288000D01*
X32781750Y-64288000D01*
X32623000Y-64446750D01*
X31193000Y-64446750D01*
X31193000Y-63756213D01*
X30883190Y-63008265D01*
X30509616Y-62634691D01*
X32623000Y-62634691D01*
X32623000Y-63875250D01*
X32781750Y-64034000D01*
X34531000Y-64034000D01*
X34531000Y-62284750D01*
X34785000Y-62284750D01*
X34785000Y-64034000D01*
X36534250Y-64034000D01*
X36693000Y-63875250D01*
X36693000Y-62634691D01*
X36596327Y-62401302D01*
X36417699Y-62222673D01*
X36184310Y-62126000D01*
X34943750Y-62126000D01*
X34785000Y-62284750D01*
X34531000Y-62284750D01*
X34372250Y-62126000D01*
X33131690Y-62126000D01*
X32898301Y-62222673D01*
X32719673Y-62401302D01*
X32623000Y-62634691D01*
X30509616Y-62634691D01*
X30310735Y-62435810D01*
X29562787Y-62126000D01*
X28753213Y-62126000D01*
X28005265Y-62435810D01*
X27432810Y-63008265D01*
X27123000Y-63756213D01*
X14151819Y-63756213D01*
X8255000Y-57859394D01*
X8255000Y-46425105D01*
X15955000Y-46425105D01*
X15955000Y-47194895D01*
X16249586Y-47906090D01*
X16793910Y-48450414D01*
X17505105Y-48745000D01*
X18274895Y-48745000D01*
X18986090Y-48450414D01*
X19530414Y-47906090D01*
X19825000Y-47194895D01*
X19825000Y-46425105D01*
X19530414Y-45713910D01*
X18986090Y-45169586D01*
X18274895Y-44875000D01*
X17505105Y-44875000D01*
X16793910Y-45169586D01*
X16249586Y-45713910D01*
X15955000Y-46425105D01*
X8255000Y-46425105D01*
X8255000Y-42654887D01*
X11075000Y-42654887D01*
X11075000Y-43345113D01*
X11339138Y-43982799D01*
X11827201Y-44470862D01*
X12464887Y-44735000D01*
X13155113Y-44735000D01*
X13792799Y-44470862D01*
X14280862Y-43982799D01*
X14545000Y-43345113D01*
X14545000Y-42654887D01*
X16155000Y-42654887D01*
X16155000Y-43345113D01*
X16419138Y-43982799D01*
X16907201Y-44470862D01*
X17544887Y-44735000D01*
X18235113Y-44735000D01*
X18872799Y-44470862D01*
X19360862Y-43982799D01*
X19625000Y-43345113D01*
X19625000Y-42654887D01*
X19360862Y-42017201D01*
X18872799Y-41529138D01*
X18235113Y-41265000D01*
X17544887Y-41265000D01*
X16907201Y-41529138D01*
X16419138Y-42017201D01*
X16155000Y-42654887D01*
X14545000Y-42654887D01*
X14280862Y-42017201D01*
X13792799Y-41529138D01*
X13155113Y-41265000D01*
X12464887Y-41265000D01*
X11827201Y-41529138D01*
X11339138Y-42017201D01*
X11075000Y-42654887D01*
X8255000Y-42654887D01*
X8255000Y-40946606D01*
X8617012Y-40584594D01*
X8714561Y-40625000D01*
X9285439Y-40625000D01*
X9812862Y-40406534D01*
X9960396Y-40259000D01*
X16238365Y-40259000D01*
X16249586Y-40286090D01*
X16793910Y-40830414D01*
X17505105Y-41125000D01*
X18274895Y-41125000D01*
X18986090Y-40830414D01*
X19530414Y-40286090D01*
X19671359Y-39945818D01*
X20628177Y-38989000D01*
X33984965Y-38989000D01*
X35180571Y-40184606D01*
M02*
