G04 #@! TF.GenerationSoftware,KiCad,Pcbnew,(5.0.0-rc2-dev-311-g1dd4af297)*
G04 #@! TF.CreationDate,2018-06-04T15:35:21+02:00*
G04 #@! TF.ProjectId,resetUSB,72657365745553422E6B696361645F70,1.0*
G04 #@! TF.SameCoordinates,PX6ad8e7cPY2bcdfd4*
G04 #@! TF.FileFunction,Legend,Top*
G04 #@! TF.FilePolarity,Positive*
%FSLAX46Y46*%
G04 Gerber Fmt 4.6, Leading zero omitted, Abs format (unit mm)*
G04 Created by KiCad (PCBNEW (5.0.0-rc2-dev-311-g1dd4af297)) date 06/04/18 15:35:21*
%MOMM*%
%LPD*%
G01*
G04 APERTURE LIST*
%ADD10C,0.200000*%
%ADD11C,0.150000*%
%ADD12C,0.300000*%
%ADD13C,0.250000*%
%ADD14C,0.120000*%
G04 APERTURE END LIST*
D10*
X39000000Y-167000000D02*
X39000000Y0D01*
X0Y-167000000D02*
X39000000Y-167000000D01*
X0Y0D02*
X0Y-167000000D01*
X52912500Y-167067500D02*
X52912500Y-170067500D01*
X12500Y-167067500D02*
X52912500Y-167067500D01*
X12500Y-172067500D02*
X12500Y-169067500D01*
X12500Y-170067500D02*
X52912500Y-170067500D01*
X15162500Y-170067500D02*
X15162500Y-171867500D01*
X12500Y-172067500D02*
X12500Y-183067500D01*
X6512500Y-170067500D02*
X6512500Y-181067500D01*
X47112500Y-170067500D02*
X47112500Y-181067500D01*
X35512500Y-170067500D02*
X35512500Y-181067500D01*
X29712500Y-170067500D02*
X29712500Y-181067500D01*
X41312500Y-170067500D02*
X41312500Y-181067500D01*
X52912500Y-170067500D02*
X52912500Y-181067500D01*
X23912500Y-170067500D02*
X23912500Y-181067500D01*
X12312500Y-170067500D02*
X12312500Y-181067500D01*
X32812500Y-167067500D02*
X32812500Y-170067500D01*
X18112500Y-170067500D02*
X18112500Y-181067500D01*
D11*
X39000000Y0D02*
X0Y0D01*
X38552380Y-59039047D02*
X38552380Y-59610476D01*
X38552380Y-59324761D02*
X37552380Y-59324761D01*
X37695238Y-59420000D01*
X37790476Y-59515238D01*
X37838095Y-59610476D01*
X37647619Y-58658095D02*
X37600000Y-58610476D01*
X37552380Y-58515238D01*
X37552380Y-58277142D01*
X37600000Y-58181904D01*
X37647619Y-58134285D01*
X37742857Y-58086666D01*
X37838095Y-58086666D01*
X37980952Y-58134285D01*
X38552380Y-58705714D01*
X38552380Y-58086666D01*
X37552380Y-57800952D02*
X38552380Y-57467619D01*
X37552380Y-57134285D01*
D10*
X26097000Y-37755500D02*
X25335000Y-37755500D01*
D11*
X36012380Y-40941333D02*
X35536190Y-41274666D01*
X36012380Y-41512761D02*
X35012380Y-41512761D01*
X35012380Y-41131809D01*
X35060000Y-41036571D01*
X35107619Y-40988952D01*
X35202857Y-40941333D01*
X35345714Y-40941333D01*
X35440952Y-40988952D01*
X35488571Y-41036571D01*
X35536190Y-41131809D01*
X35536190Y-41512761D01*
X35012380Y-40608000D02*
X35012380Y-39941333D01*
X36012380Y-40608000D01*
X36012380Y-39941333D01*
X35012380Y-39560380D02*
X35821904Y-39560380D01*
X35917142Y-39512761D01*
X35964761Y-39465142D01*
X36012380Y-39369904D01*
X36012380Y-39179428D01*
X35964761Y-39084190D01*
X35917142Y-39036571D01*
X35821904Y-38988952D01*
X35012380Y-38988952D01*
X35012380Y-38655619D02*
X35012380Y-38084190D01*
X36012380Y-38369904D02*
X35012380Y-38369904D01*
X36012380Y-37750857D02*
X35012380Y-37750857D01*
X36012380Y-37179428D01*
X35012380Y-37179428D01*
X36012380Y-36703238D02*
X35012380Y-36703238D01*
X36012380Y-36227047D02*
X35012380Y-36227047D01*
X36012380Y-35655619D02*
X35440952Y-36084190D01*
X35012380Y-35655619D02*
X35583809Y-36227047D01*
D12*
X24554571Y-66968571D02*
X24554571Y-67825714D01*
X24554571Y-67397142D02*
X23054571Y-67397142D01*
X23268857Y-67540000D01*
X23411714Y-67682857D01*
X23483142Y-67825714D01*
X23197428Y-66397142D02*
X23126000Y-66325714D01*
X23054571Y-66182857D01*
X23054571Y-65825714D01*
X23126000Y-65682857D01*
X23197428Y-65611428D01*
X23340285Y-65540000D01*
X23483142Y-65540000D01*
X23697428Y-65611428D01*
X24554571Y-66468571D01*
X24554571Y-65540000D01*
X23054571Y-65111428D02*
X24554571Y-64611428D01*
X23054571Y-64111428D01*
X21721071Y-7290357D02*
X22935357Y-7290357D01*
X23078214Y-7218928D01*
X23149642Y-7147500D01*
X23221071Y-7004642D01*
X23221071Y-6718928D01*
X23149642Y-6576071D01*
X23078214Y-6504642D01*
X22935357Y-6433214D01*
X21721071Y-6433214D01*
X23149642Y-5790357D02*
X23221071Y-5576071D01*
X23221071Y-5218928D01*
X23149642Y-5076071D01*
X23078214Y-5004642D01*
X22935357Y-4933214D01*
X22792500Y-4933214D01*
X22649642Y-5004642D01*
X22578214Y-5076071D01*
X22506785Y-5218928D01*
X22435357Y-5504642D01*
X22363928Y-5647500D01*
X22292500Y-5718928D01*
X22149642Y-5790357D01*
X22006785Y-5790357D01*
X21863928Y-5718928D01*
X21792500Y-5647500D01*
X21721071Y-5504642D01*
X21721071Y-5147500D01*
X21792500Y-4933214D01*
X22435357Y-3790357D02*
X22506785Y-3576071D01*
X22578214Y-3504642D01*
X22721071Y-3433214D01*
X22935357Y-3433214D01*
X23078214Y-3504642D01*
X23149642Y-3576071D01*
X23221071Y-3718928D01*
X23221071Y-4290357D01*
X21721071Y-4290357D01*
X21721071Y-3790357D01*
X21792500Y-3647500D01*
X21863928Y-3576071D01*
X22006785Y-3504642D01*
X22149642Y-3504642D01*
X22292500Y-3576071D01*
X22363928Y-3647500D01*
X22435357Y-3790357D01*
X22435357Y-4290357D01*
D11*
X36012380Y-44195904D02*
X35012380Y-44195904D01*
X35012380Y-43814952D01*
X35060000Y-43719714D01*
X35107619Y-43672095D01*
X35202857Y-43624476D01*
X35345714Y-43624476D01*
X35440952Y-43672095D01*
X35488571Y-43719714D01*
X35536190Y-43814952D01*
X35536190Y-44195904D01*
X35917142Y-42624476D02*
X35964761Y-42672095D01*
X36012380Y-42814952D01*
X36012380Y-42910190D01*
X35964761Y-43053047D01*
X35869523Y-43148285D01*
X35774285Y-43195904D01*
X35583809Y-43243523D01*
X35440952Y-43243523D01*
X35250476Y-43195904D01*
X35155238Y-43148285D01*
X35060000Y-43053047D01*
X35012380Y-42910190D01*
X35012380Y-42814952D01*
X35060000Y-42672095D01*
X35107619Y-42624476D01*
X35012380Y-46164476D02*
X35012380Y-46640666D01*
X35488571Y-46688285D01*
X35440952Y-46640666D01*
X35393333Y-46545428D01*
X35393333Y-46307333D01*
X35440952Y-46212095D01*
X35488571Y-46164476D01*
X35583809Y-46116857D01*
X35821904Y-46116857D01*
X35917142Y-46164476D01*
X35964761Y-46212095D01*
X36012380Y-46307333D01*
X36012380Y-46545428D01*
X35964761Y-46640666D01*
X35917142Y-46688285D01*
X35012380Y-45831142D02*
X36012380Y-45497809D01*
X35012380Y-45164476D01*
D12*
X28110571Y-101972428D02*
X26610571Y-101972428D01*
X27324857Y-101972428D02*
X27324857Y-101115285D01*
X28110571Y-101115285D02*
X26610571Y-101115285D01*
X28110571Y-100401000D02*
X26610571Y-100401000D01*
X26610571Y-100043857D01*
X26682000Y-99829571D01*
X26824857Y-99686714D01*
X26967714Y-99615285D01*
X27253428Y-99543857D01*
X27467714Y-99543857D01*
X27753428Y-99615285D01*
X27896285Y-99686714D01*
X28039142Y-99829571D01*
X28110571Y-100043857D01*
X28110571Y-100401000D01*
X28253428Y-99258142D02*
X28253428Y-98115285D01*
X27682000Y-97829571D02*
X27682000Y-97115285D01*
X28110571Y-97972428D02*
X26610571Y-97472428D01*
X28110571Y-96972428D01*
X26610571Y-96472428D02*
X27824857Y-96472428D01*
X27967714Y-96401000D01*
X28039142Y-96329571D01*
X28110571Y-96186714D01*
X28110571Y-95901000D01*
X28039142Y-95758142D01*
X27967714Y-95686714D01*
X27824857Y-95615285D01*
X26610571Y-95615285D01*
X28110571Y-94901000D02*
X26610571Y-94901000D01*
X26610571Y-94543857D01*
X26682000Y-94329571D01*
X26824857Y-94186714D01*
X26967714Y-94115285D01*
X27253428Y-94043857D01*
X27467714Y-94043857D01*
X27753428Y-94115285D01*
X27896285Y-94186714D01*
X28039142Y-94329571D01*
X28110571Y-94543857D01*
X28110571Y-94901000D01*
X28110571Y-93401000D02*
X26610571Y-93401000D01*
X26610571Y-92401000D02*
X26610571Y-92115285D01*
X26682000Y-91972428D01*
X26824857Y-91829571D01*
X27110571Y-91758142D01*
X27610571Y-91758142D01*
X27896285Y-91829571D01*
X28039142Y-91972428D01*
X28110571Y-92115285D01*
X28110571Y-92401000D01*
X28039142Y-92543857D01*
X27896285Y-92686714D01*
X27610571Y-92758142D01*
X27110571Y-92758142D01*
X26824857Y-92686714D01*
X26682000Y-92543857D01*
X26610571Y-92401000D01*
X27856571Y-125141714D02*
X26356571Y-125141714D01*
X26356571Y-124570285D01*
X26428000Y-124427428D01*
X26499428Y-124356000D01*
X26642285Y-124284571D01*
X26856571Y-124284571D01*
X26999428Y-124356000D01*
X27070857Y-124427428D01*
X27142285Y-124570285D01*
X27142285Y-125141714D01*
X27856571Y-122784571D02*
X27142285Y-123284571D01*
X27856571Y-123641714D02*
X26356571Y-123641714D01*
X26356571Y-123070285D01*
X26428000Y-122927428D01*
X26499428Y-122856000D01*
X26642285Y-122784571D01*
X26856571Y-122784571D01*
X26999428Y-122856000D01*
X27070857Y-122927428D01*
X27142285Y-123070285D01*
X27142285Y-123641714D01*
X27428000Y-122213142D02*
X27428000Y-121498857D01*
X27856571Y-122356000D02*
X26356571Y-121856000D01*
X27856571Y-121356000D01*
X26356571Y-120998857D02*
X27856571Y-120641714D01*
X26785142Y-120356000D01*
X27856571Y-120070285D01*
X26356571Y-119713142D01*
X27142285Y-118856000D02*
X27856571Y-118856000D01*
X26356571Y-119356000D02*
X27142285Y-118856000D01*
X26356571Y-118356000D01*
X27856571Y-116713142D02*
X26356571Y-116713142D01*
X27856571Y-115856000D02*
X26999428Y-116498857D01*
X26356571Y-115856000D02*
X27213714Y-116713142D01*
X27428000Y-115284571D02*
X27428000Y-114570285D01*
X27856571Y-115427428D02*
X26356571Y-114927428D01*
X27856571Y-114427428D01*
X27856571Y-113927428D02*
X26356571Y-113927428D01*
X27856571Y-113070285D01*
X26356571Y-113070285D01*
X27428000Y-112427428D02*
X27428000Y-111713142D01*
X27856571Y-112570285D02*
X26356571Y-112070285D01*
X27856571Y-111570285D01*
X27856571Y-110356000D02*
X27856571Y-111070285D01*
X26356571Y-111070285D01*
X27142285Y-111284571D02*
X26856571Y-110856000D01*
X27944071Y-139572285D02*
X27944071Y-140286571D01*
X26444071Y-140286571D01*
X27158357Y-139072285D02*
X27158357Y-138572285D01*
X27944071Y-138358000D02*
X27944071Y-139072285D01*
X26444071Y-139072285D01*
X26444071Y-138358000D01*
X26444071Y-137858000D02*
X27944071Y-137500857D01*
X26872642Y-137215142D01*
X27944071Y-136929428D01*
X26444071Y-136572285D01*
X27229785Y-135715142D02*
X27944071Y-135715142D01*
X26444071Y-136215142D02*
X27229785Y-135715142D01*
X26444071Y-135215142D01*
X27944071Y-133572285D02*
X26444071Y-133572285D01*
X27944071Y-132715142D02*
X27086928Y-133358000D01*
X26444071Y-132715142D02*
X27301214Y-133572285D01*
X27515500Y-132143714D02*
X27515500Y-131429428D01*
X27944071Y-132286571D02*
X26444071Y-131786571D01*
X27944071Y-131286571D01*
X27944071Y-130786571D02*
X26444071Y-130786571D01*
X27944071Y-129929428D01*
X26444071Y-129929428D01*
X27515500Y-129286571D02*
X27515500Y-128572285D01*
X27944071Y-129429428D02*
X26444071Y-128929428D01*
X27944071Y-128429428D01*
X27944071Y-127215142D02*
X27944071Y-127929428D01*
X26444071Y-127929428D01*
X27229785Y-128143714D02*
X26944071Y-127715142D01*
X16641071Y-70567500D02*
X15926785Y-71067500D01*
X16641071Y-71424642D02*
X15141071Y-71424642D01*
X15141071Y-70853214D01*
X15212500Y-70710357D01*
X15283928Y-70638928D01*
X15426785Y-70567500D01*
X15641071Y-70567500D01*
X15783928Y-70638928D01*
X15855357Y-70710357D01*
X15926785Y-70853214D01*
X15926785Y-71424642D01*
X15141071Y-70067500D02*
X15141071Y-69067500D01*
X16641071Y-70067500D01*
X16641071Y-69067500D01*
X15141071Y-68496071D02*
X16355357Y-68496071D01*
X16498214Y-68424642D01*
X16569642Y-68353214D01*
X16641071Y-68210357D01*
X16641071Y-67924642D01*
X16569642Y-67781785D01*
X16498214Y-67710357D01*
X16355357Y-67638928D01*
X15141071Y-67638928D01*
X15141071Y-67138928D02*
X15141071Y-66281785D01*
X16641071Y-66710357D02*
X15141071Y-66710357D01*
X16641071Y-65781785D02*
X15141071Y-65781785D01*
X16641071Y-64924642D01*
X15141071Y-64924642D01*
X16641071Y-64210357D02*
X15141071Y-64210357D01*
X16641071Y-63496071D02*
X15141071Y-63496071D01*
X16641071Y-62638928D02*
X15783928Y-63281785D01*
X15141071Y-62638928D02*
X15998214Y-63496071D01*
D13*
X37647571Y-7921238D02*
X37695190Y-7778380D01*
X37742809Y-7730761D01*
X37838047Y-7683142D01*
X37980904Y-7683142D01*
X38076142Y-7730761D01*
X38123761Y-7778380D01*
X38171380Y-7873619D01*
X38171380Y-8254571D01*
X37171380Y-8254571D01*
X37171380Y-7921238D01*
X37219000Y-7826000D01*
X37266619Y-7778380D01*
X37361857Y-7730761D01*
X37457095Y-7730761D01*
X37552333Y-7778380D01*
X37599952Y-7826000D01*
X37647571Y-7921238D01*
X37647571Y-8254571D01*
X37647571Y-7254571D02*
X37647571Y-6921238D01*
X38171380Y-6778380D02*
X38171380Y-7254571D01*
X37171380Y-7254571D01*
X37171380Y-6778380D01*
X38171380Y-5778380D02*
X37695190Y-6111714D01*
X38171380Y-6349809D02*
X37171380Y-6349809D01*
X37171380Y-5968857D01*
X37219000Y-5873619D01*
X37266619Y-5826000D01*
X37361857Y-5778380D01*
X37504714Y-5778380D01*
X37599952Y-5826000D01*
X37647571Y-5873619D01*
X37695190Y-5968857D01*
X37695190Y-6349809D01*
X38171380Y-5349809D02*
X37171380Y-5349809D01*
X38171380Y-4873619D02*
X37171380Y-4873619D01*
X38171380Y-4302190D01*
X37171380Y-4302190D01*
X37219000Y-3302190D02*
X37171380Y-3397428D01*
X37171380Y-3540285D01*
X37219000Y-3683142D01*
X37314238Y-3778380D01*
X37409476Y-3826000D01*
X37599952Y-3873619D01*
X37742809Y-3873619D01*
X37933285Y-3826000D01*
X38028523Y-3778380D01*
X38123761Y-3683142D01*
X38171380Y-3540285D01*
X38171380Y-3445047D01*
X38123761Y-3302190D01*
X38076142Y-3254571D01*
X37742809Y-3254571D01*
X37742809Y-3445047D01*
X37647571Y-2826000D02*
X37647571Y-2492666D01*
X38171380Y-2349809D02*
X38171380Y-2826000D01*
X37171380Y-2826000D01*
X37171380Y-2349809D01*
X38171380Y-1349809D02*
X37695190Y-1683142D01*
X38171380Y-1921238D02*
X37171380Y-1921238D01*
X37171380Y-1540285D01*
X37219000Y-1445047D01*
X37266619Y-1397428D01*
X37361857Y-1349809D01*
X37504714Y-1349809D01*
X37599952Y-1397428D01*
X37647571Y-1445047D01*
X37695190Y-1540285D01*
X37695190Y-1921238D01*
D12*
X21787642Y-40488571D02*
X21859071Y-40274285D01*
X21859071Y-39917142D01*
X21787642Y-39774285D01*
X21716214Y-39702857D01*
X21573357Y-39631428D01*
X21430500Y-39631428D01*
X21287642Y-39702857D01*
X21216214Y-39774285D01*
X21144785Y-39917142D01*
X21073357Y-40202857D01*
X21001928Y-40345714D01*
X20930500Y-40417142D01*
X20787642Y-40488571D01*
X20644785Y-40488571D01*
X20501928Y-40417142D01*
X20430500Y-40345714D01*
X20359071Y-40202857D01*
X20359071Y-39845714D01*
X20430500Y-39631428D01*
X21859071Y-38988571D02*
X20359071Y-38988571D01*
X21859071Y-37560000D02*
X21859071Y-38274285D01*
X20359071Y-38274285D01*
X21144785Y-38488571D02*
X20859071Y-38060000D01*
X20359071Y-36774285D02*
X20359071Y-36488571D01*
X20430500Y-36345714D01*
X20573357Y-36202857D01*
X20859071Y-36131428D01*
X21359071Y-36131428D01*
X21644785Y-36202857D01*
X21787642Y-36345714D01*
X21859071Y-36488571D01*
X21859071Y-36774285D01*
X21787642Y-36917142D01*
X21644785Y-37060000D01*
X21359071Y-37131428D01*
X20859071Y-37131428D01*
X20573357Y-37060000D01*
X20430500Y-36917142D01*
X20359071Y-36774285D01*
X20359071Y-35631428D02*
X21859071Y-35274285D01*
X20787642Y-34988571D01*
X21859071Y-34702857D01*
X20359071Y-34345714D01*
X21859071Y-33774285D02*
X20359071Y-33774285D01*
X21859071Y-32917142D01*
X20359071Y-32917142D01*
X21859071Y-32202857D02*
X20359071Y-32202857D01*
X21859071Y-31488571D02*
X20359071Y-31488571D01*
X21859071Y-30631428D02*
X21001928Y-31274285D01*
X20359071Y-30631428D02*
X21216214Y-31488571D01*
X24409071Y-38881428D02*
X24409071Y-39595714D01*
X22909071Y-39595714D01*
X24409071Y-38381428D02*
X22909071Y-38381428D01*
X24409071Y-37667142D02*
X22909071Y-37667142D01*
X24409071Y-36810000D01*
X22909071Y-36810000D01*
X24409071Y-36095714D02*
X22909071Y-36095714D01*
X22909071Y-35095714D02*
X22909071Y-34810000D01*
X22980500Y-34667142D01*
X23123357Y-34524285D01*
X23409071Y-34452857D01*
X23909071Y-34452857D01*
X24194785Y-34524285D01*
X24337642Y-34667142D01*
X24409071Y-34810000D01*
X24409071Y-35095714D01*
X24337642Y-35238571D01*
X24194785Y-35381428D01*
X23909071Y-35452857D01*
X23409071Y-35452857D01*
X23123357Y-35381428D01*
X22980500Y-35238571D01*
X22909071Y-35095714D01*
X22909071Y-33952857D02*
X24409071Y-33595714D01*
X23337642Y-33310000D01*
X24409071Y-33024285D01*
X22909071Y-32667142D01*
X23694785Y-31810000D02*
X24409071Y-31810000D01*
X22909071Y-32310000D02*
X23694785Y-31810000D01*
X22909071Y-31310000D01*
X23221071Y-16128857D02*
X21721071Y-16128857D01*
X21721071Y-15557428D01*
X21792500Y-15414571D01*
X21863928Y-15343142D01*
X22006785Y-15271714D01*
X22221071Y-15271714D01*
X22363928Y-15343142D01*
X22435357Y-15414571D01*
X22506785Y-15557428D01*
X22506785Y-16128857D01*
X23078214Y-13771714D02*
X23149642Y-13843142D01*
X23221071Y-14057428D01*
X23221071Y-14200285D01*
X23149642Y-14414571D01*
X23006785Y-14557428D01*
X22863928Y-14628857D01*
X22578214Y-14700285D01*
X22363928Y-14700285D01*
X22078214Y-14628857D01*
X21935357Y-14557428D01*
X21792500Y-14414571D01*
X21721071Y-14200285D01*
X21721071Y-14057428D01*
X21792500Y-13843142D01*
X21863928Y-13771714D01*
D14*
X27809000Y-149486000D02*
X28809000Y-149486000D01*
X28809000Y-150846000D02*
X27809000Y-150846000D01*
X19932500Y-153936000D02*
X19932500Y-148096000D01*
X20692500Y-154696000D02*
X19932500Y-153936000D01*
X26532500Y-153936000D02*
X25772500Y-154696000D01*
X26532500Y-148096000D02*
X26532500Y-153936000D01*
X20692500Y-154696000D02*
X22112500Y-154696000D01*
X25772500Y-154696000D02*
X24352500Y-154696000D01*
X19932500Y-148096000D02*
X22112500Y-148096000D01*
X26532500Y-148096000D02*
X24352500Y-148096000D01*
X28227000Y-147126000D02*
X28227000Y-148126000D01*
X26867000Y-148126000D02*
X26867000Y-147126000D01*
X19514500Y-153626000D02*
X19514500Y-154326000D01*
X18314500Y-154326000D02*
X18314500Y-153626000D01*
X16599000Y-154326000D02*
X16599000Y-153626000D01*
X17799000Y-153626000D02*
X17799000Y-154326000D01*
X28147000Y-153614000D02*
X28147000Y-154314000D01*
X26947000Y-154314000D02*
X26947000Y-153614000D01*
X19591000Y-147126000D02*
X19591000Y-148126000D01*
X18231000Y-148126000D02*
X18231000Y-147126000D01*
D11*
X30995000Y-161926200D02*
X30995000Y-166930000D01*
X11395000Y-161926200D02*
X30995000Y-161926200D01*
X11395000Y-166930000D02*
X11395000Y-161926200D01*
X30995000Y-166930000D02*
X11395000Y-166930000D01*
D14*
X28537000Y-154326000D02*
X28537000Y-153626000D01*
X29737000Y-153626000D02*
X29737000Y-154326000D01*
X18649000Y-150846000D02*
X17649000Y-150846000D01*
X17649000Y-149486000D02*
X18649000Y-149486000D01*
X22013500Y-128990500D02*
X22013500Y-127990500D01*
X23373500Y-127990500D02*
X23373500Y-128990500D01*
X19650500Y-124326500D02*
X15070500Y-124326500D01*
X20410500Y-125086500D02*
X19650500Y-124326500D01*
X19650500Y-129656500D02*
X20410500Y-128896500D01*
X15070500Y-129656500D02*
X19650500Y-129656500D01*
X20410500Y-128896500D02*
X20410500Y-128106500D01*
X20410500Y-125086500D02*
X20410500Y-125876500D01*
X15070500Y-124326500D02*
X15070500Y-125876500D01*
X15070500Y-129656500D02*
X15070500Y-128106500D01*
D11*
X-4000000Y-67000000D02*
X-4000000Y-79000000D01*
X0Y-103000000D02*
X0Y-116000000D01*
X0Y-116000000D02*
X24000000Y-116000000D01*
X24000000Y-116000000D02*
X24000000Y-103000000D01*
X24000000Y-103000000D02*
X24000000Y-90000000D01*
X24000000Y-90000000D02*
X0Y-90000000D01*
X0Y-90000000D02*
X0Y-103000000D01*
X0Y-91100000D02*
X-7300000Y-91100000D01*
X-7300000Y-91100000D02*
X-7300000Y-114900000D01*
X-7300000Y-114900000D02*
X0Y-114900000D01*
D14*
X20125500Y-47945700D02*
X20125500Y-42545700D01*
X23425500Y-47945700D02*
X23425500Y-42545700D01*
X20125500Y-47945700D02*
X23425500Y-47945700D01*
X27108500Y-41145700D02*
X27108500Y-46545700D01*
X23808500Y-41145700D02*
X23808500Y-46545700D01*
X27108500Y-41145700D02*
X23808500Y-41145700D01*
X23425500Y-48892700D02*
X23425500Y-54292700D01*
X20125500Y-48892700D02*
X20125500Y-54292700D01*
X23425500Y-48892700D02*
X20125500Y-48892700D01*
X24986000Y-39211500D02*
X24986000Y-37751500D01*
X28146000Y-39211500D02*
X28146000Y-37051500D01*
X28146000Y-39211500D02*
X27216000Y-39211500D01*
X24986000Y-39211500D02*
X25916000Y-39211500D01*
X28669000Y-39211500D02*
X28669000Y-37751500D01*
X31829000Y-39211500D02*
X31829000Y-37051500D01*
X31829000Y-39211500D02*
X30899000Y-39211500D01*
X28669000Y-39211500D02*
X29599000Y-39211500D01*
X23808500Y-55692700D02*
X23808500Y-50292700D01*
X27108500Y-55692700D02*
X27108500Y-50292700D01*
X23808500Y-55692700D02*
X27108500Y-55692700D01*
D11*
X33261200Y-46469100D02*
X34661200Y-46469100D01*
X33261200Y-41369100D02*
X29111200Y-41369100D01*
X33261200Y-46519100D02*
X29111200Y-46519100D01*
X33261200Y-41369100D02*
X33261200Y-41514100D01*
X29111200Y-41369100D02*
X29111200Y-41514100D01*
X29111200Y-46519100D02*
X29111200Y-46374100D01*
X33261200Y-46519100D02*
X33261200Y-46469100D01*
X33261200Y-54089100D02*
X34661200Y-54089100D01*
X33261200Y-48989100D02*
X29111200Y-48989100D01*
X33261200Y-54139100D02*
X29111200Y-54139100D01*
X33261200Y-48989100D02*
X33261200Y-49134100D01*
X29111200Y-48989100D02*
X29111200Y-49134100D01*
X29111200Y-54139100D02*
X29111200Y-53994100D01*
X33261200Y-54139100D02*
X33261200Y-54089100D01*
D14*
X31448500Y-48559000D02*
X30448500Y-48559000D01*
X30448500Y-47199000D02*
X31448500Y-47199000D01*
X33570800Y-40989800D02*
X32570800Y-40989800D01*
X32570800Y-39629800D02*
X33570800Y-39629800D01*
X38530000Y-107330000D02*
X28930000Y-107330000D01*
X38530000Y-86510000D02*
X38530000Y-107330000D01*
X28930000Y-86510000D02*
X38530000Y-86510000D01*
X28930000Y-107330000D02*
X28930000Y-86510000D01*
D11*
X44858500Y-129655500D02*
X35758500Y-129655500D01*
X44858500Y-137955500D02*
X44858500Y-129655500D01*
X35758500Y-137955500D02*
X44858500Y-137955500D01*
X35758500Y-128205500D02*
X35758500Y-139405500D01*
X29158500Y-128205500D02*
X35758500Y-128205500D01*
X29158500Y-139405500D02*
X29158500Y-128205500D01*
X35758500Y-139405500D02*
X29158500Y-139405500D01*
D14*
X36860000Y-58961500D02*
X34760000Y-58961500D01*
X36860000Y-57961500D02*
X34760000Y-57961500D01*
X36860000Y-58961500D02*
X36860000Y-57961500D01*
X32012000Y-57740000D02*
X33012000Y-57740000D01*
X33012000Y-59100000D02*
X32012000Y-59100000D01*
X37258000Y-61111000D02*
X34408000Y-61111000D01*
X37258000Y-63961000D02*
X37258000Y-61111000D01*
X25708000Y-68061000D02*
X25708000Y-66261000D01*
X27108000Y-68061000D02*
X25708000Y-68061000D01*
X27108000Y-71161000D02*
X27108000Y-68061000D01*
X37008000Y-71161000D02*
X27108000Y-71161000D01*
X37008000Y-66261000D02*
X37008000Y-71161000D01*
X25708000Y-64461000D02*
X25708000Y-66261000D01*
X27108000Y-64461000D02*
X25708000Y-64461000D01*
X27108000Y-61361000D02*
X27108000Y-64461000D01*
X37008000Y-61361000D02*
X27108000Y-61361000D01*
X37008000Y-66261000D02*
X37008000Y-61361000D01*
D11*
X44858500Y-113399500D02*
X35758500Y-113399500D01*
X44858500Y-121699500D02*
X44858500Y-113399500D01*
X35758500Y-121699500D02*
X44858500Y-121699500D01*
X35758500Y-111949500D02*
X35758500Y-123149500D01*
X29158500Y-111949500D02*
X35758500Y-111949500D01*
X29158500Y-123149500D02*
X29158500Y-111949500D01*
X35758500Y-123149500D02*
X29158500Y-123149500D01*
D14*
X30559500Y-33619500D02*
X29559500Y-33619500D01*
X29559500Y-32259500D02*
X30559500Y-32259500D01*
D11*
X110000Y-55700000D02*
X110000Y-30300000D01*
X6467772Y-25941143D02*
X5242772Y-25941143D01*
X13717772Y-25716143D02*
X13417772Y-25716143D01*
X13717772Y-32966143D02*
X13417772Y-32966143D01*
X6467772Y-32966143D02*
X6767772Y-32966143D01*
X6467772Y-25716143D02*
X6767772Y-25716143D01*
X6467772Y-32966143D02*
X6467772Y-32666143D01*
X13717772Y-32966143D02*
X13717772Y-32666143D01*
X13717772Y-25716143D02*
X13717772Y-26016143D01*
X6467772Y-25716143D02*
X6467772Y-25941143D01*
D14*
X6687876Y-22712702D02*
X7687876Y-22712702D01*
X7687876Y-24072702D02*
X6687876Y-24072702D01*
X4803631Y-24520423D02*
X5503631Y-24520423D01*
X5503631Y-25720423D02*
X4803631Y-25720423D01*
X7549876Y-22468702D02*
X6849876Y-22468702D01*
X6849876Y-21268702D02*
X7549876Y-21268702D01*
X26300000Y-82180000D02*
X26300000Y-80380000D01*
X27200000Y-81280000D02*
X25400000Y-81280000D01*
X12169000Y-81643000D02*
X12169000Y-80917000D01*
X12209000Y-82139000D02*
X12209000Y-80421000D01*
X12249000Y-82444000D02*
X12249000Y-80116000D01*
X12289000Y-82685000D02*
X12289000Y-79875000D01*
X12329000Y-82890000D02*
X12329000Y-79670000D01*
X12369000Y-83072000D02*
X12369000Y-79488000D01*
X12409000Y-83236000D02*
X12409000Y-79324000D01*
X12449000Y-83387000D02*
X12449000Y-79173000D01*
X12489000Y-83528000D02*
X12489000Y-79032000D01*
X12529000Y-83659000D02*
X12529000Y-78901000D01*
X12569000Y-83783000D02*
X12569000Y-78777000D01*
X12609000Y-83901000D02*
X12609000Y-78659000D01*
X12649000Y-84013000D02*
X12649000Y-78547000D01*
X12689000Y-84121000D02*
X12689000Y-78439000D01*
X12729000Y-84223000D02*
X12729000Y-78337000D01*
X12769000Y-84322000D02*
X12769000Y-78238000D01*
X12809000Y-84418000D02*
X12809000Y-78142000D01*
X12849000Y-84510000D02*
X12849000Y-78050000D01*
X12889000Y-84599000D02*
X12889000Y-77961000D01*
X12929000Y-84685000D02*
X12929000Y-77875000D01*
X12969000Y-84769000D02*
X12969000Y-77791000D01*
X13009000Y-84850000D02*
X13009000Y-77710000D01*
X13049000Y-84929000D02*
X13049000Y-77631000D01*
X13089000Y-85006000D02*
X13089000Y-77554000D01*
X13129000Y-85082000D02*
X13129000Y-77478000D01*
X13169000Y-85155000D02*
X13169000Y-77405000D01*
X13209000Y-85226000D02*
X13209000Y-77334000D01*
X13249000Y-85296000D02*
X13249000Y-77264000D01*
X13289000Y-85364000D02*
X13289000Y-77196000D01*
X13329000Y-85431000D02*
X13329000Y-77129000D01*
X13369000Y-85497000D02*
X13369000Y-77063000D01*
X13409000Y-85561000D02*
X13409000Y-76999000D01*
X13449000Y-85623000D02*
X13449000Y-76937000D01*
X13489000Y-85685000D02*
X13489000Y-76875000D01*
X13529000Y-85745000D02*
X13529000Y-76815000D01*
X13569000Y-85804000D02*
X13569000Y-76756000D01*
X13609000Y-85862000D02*
X13609000Y-76698000D01*
X13649000Y-85919000D02*
X13649000Y-76641000D01*
X13689000Y-85975000D02*
X13689000Y-76585000D01*
X13729000Y-86030000D02*
X13729000Y-76530000D01*
X13769000Y-86084000D02*
X13769000Y-76476000D01*
X13809000Y-86137000D02*
X13809000Y-76423000D01*
X13849000Y-86189000D02*
X13849000Y-76371000D01*
X13889000Y-86240000D02*
X13889000Y-76320000D01*
X13929000Y-86291000D02*
X13929000Y-76269000D01*
X13969000Y-86340000D02*
X13969000Y-76220000D01*
X14009000Y-86389000D02*
X14009000Y-76171000D01*
X14049000Y-86437000D02*
X14049000Y-76123000D01*
X14089000Y-86485000D02*
X14089000Y-76075000D01*
X14129000Y-86531000D02*
X14129000Y-76029000D01*
X14169000Y-86577000D02*
X14169000Y-75983000D01*
X14209000Y-86623000D02*
X14209000Y-75937000D01*
X14249000Y-86667000D02*
X14249000Y-75893000D01*
X14289000Y-86711000D02*
X14289000Y-75849000D01*
X14329000Y-86754000D02*
X14329000Y-75806000D01*
X14369000Y-86797000D02*
X14369000Y-75763000D01*
X14409000Y-86839000D02*
X14409000Y-75721000D01*
X14449000Y-86880000D02*
X14449000Y-75680000D01*
X14489000Y-86921000D02*
X14489000Y-75639000D01*
X14529000Y-86961000D02*
X14529000Y-75599000D01*
X14569000Y-87001000D02*
X14569000Y-75559000D01*
X14609000Y-87040000D02*
X14609000Y-75520000D01*
X14649000Y-87079000D02*
X14649000Y-75481000D01*
X14689000Y-87117000D02*
X14689000Y-75443000D01*
X14729000Y-87155000D02*
X14729000Y-75405000D01*
X14769000Y-87192000D02*
X14769000Y-75368000D01*
X14809000Y-87228000D02*
X14809000Y-75332000D01*
X14849000Y-87264000D02*
X14849000Y-75296000D01*
X14889000Y-87300000D02*
X14889000Y-75260000D01*
X14929000Y-87335000D02*
X14929000Y-75225000D01*
X14969000Y-87370000D02*
X14969000Y-75190000D01*
X15009000Y-87404000D02*
X15009000Y-75156000D01*
X15049000Y-87438000D02*
X15049000Y-75122000D01*
X15089000Y-87471000D02*
X15089000Y-75089000D01*
X15129000Y-79900000D02*
X15129000Y-75056000D01*
X15129000Y-87504000D02*
X15129000Y-82660000D01*
X15169000Y-79900000D02*
X15169000Y-75023000D01*
X15169000Y-87537000D02*
X15169000Y-82660000D01*
X15209000Y-79900000D02*
X15209000Y-74991000D01*
X15209000Y-87569000D02*
X15209000Y-82660000D01*
X15249000Y-79900000D02*
X15249000Y-74960000D01*
X15249000Y-87600000D02*
X15249000Y-82660000D01*
X15289000Y-79900000D02*
X15289000Y-74928000D01*
X15289000Y-87632000D02*
X15289000Y-82660000D01*
X15329000Y-79900000D02*
X15329000Y-74898000D01*
X15329000Y-87662000D02*
X15329000Y-82660000D01*
X15369000Y-79900000D02*
X15369000Y-74867000D01*
X15369000Y-87693000D02*
X15369000Y-82660000D01*
X15409000Y-79900000D02*
X15409000Y-74837000D01*
X15409000Y-87723000D02*
X15409000Y-82660000D01*
X15449000Y-79900000D02*
X15449000Y-74807000D01*
X15449000Y-87753000D02*
X15449000Y-82660000D01*
X15489000Y-79900000D02*
X15489000Y-74778000D01*
X15489000Y-87782000D02*
X15489000Y-82660000D01*
X15529000Y-79900000D02*
X15529000Y-74749000D01*
X15529000Y-87811000D02*
X15529000Y-82660000D01*
X15569000Y-79900000D02*
X15569000Y-74721000D01*
X15569000Y-87839000D02*
X15569000Y-82660000D01*
X15609000Y-79900000D02*
X15609000Y-74692000D01*
X15609000Y-87868000D02*
X15609000Y-82660000D01*
X15649000Y-79900000D02*
X15649000Y-74665000D01*
X15649000Y-87895000D02*
X15649000Y-82660000D01*
X15689000Y-79900000D02*
X15689000Y-74637000D01*
X15689000Y-87923000D02*
X15689000Y-82660000D01*
X15729000Y-79900000D02*
X15729000Y-74610000D01*
X15729000Y-87950000D02*
X15729000Y-82660000D01*
X15769000Y-79900000D02*
X15769000Y-74583000D01*
X15769000Y-87977000D02*
X15769000Y-82660000D01*
X15809000Y-79900000D02*
X15809000Y-74557000D01*
X15809000Y-88003000D02*
X15809000Y-82660000D01*
X15849000Y-79900000D02*
X15849000Y-74531000D01*
X15849000Y-88029000D02*
X15849000Y-82660000D01*
X15889000Y-79900000D02*
X15889000Y-74505000D01*
X15889000Y-88055000D02*
X15889000Y-82660000D01*
X15929000Y-79900000D02*
X15929000Y-74479000D01*
X15929000Y-88081000D02*
X15929000Y-82660000D01*
X15969000Y-79900000D02*
X15969000Y-74454000D01*
X15969000Y-88106000D02*
X15969000Y-82660000D01*
X16009000Y-79900000D02*
X16009000Y-74430000D01*
X16009000Y-88130000D02*
X16009000Y-82660000D01*
X16049000Y-79900000D02*
X16049000Y-74405000D01*
X16049000Y-88155000D02*
X16049000Y-82660000D01*
X16089000Y-79900000D02*
X16089000Y-74381000D01*
X16089000Y-88179000D02*
X16089000Y-82660000D01*
X16129000Y-79900000D02*
X16129000Y-74357000D01*
X16129000Y-88203000D02*
X16129000Y-82660000D01*
X16169000Y-79900000D02*
X16169000Y-74334000D01*
X16169000Y-88226000D02*
X16169000Y-82660000D01*
X16209000Y-79900000D02*
X16209000Y-74310000D01*
X16209000Y-88250000D02*
X16209000Y-82660000D01*
X16249000Y-79900000D02*
X16249000Y-74288000D01*
X16249000Y-88272000D02*
X16249000Y-82660000D01*
X16289000Y-79900000D02*
X16289000Y-74265000D01*
X16289000Y-88295000D02*
X16289000Y-82660000D01*
X16329000Y-79900000D02*
X16329000Y-74243000D01*
X16329000Y-88317000D02*
X16329000Y-82660000D01*
X16369000Y-79900000D02*
X16369000Y-74221000D01*
X16369000Y-88339000D02*
X16369000Y-82660000D01*
X16409000Y-79900000D02*
X16409000Y-74199000D01*
X16409000Y-88361000D02*
X16409000Y-82660000D01*
X16449000Y-79900000D02*
X16449000Y-74178000D01*
X16449000Y-88382000D02*
X16449000Y-82660000D01*
X16489000Y-79900000D02*
X16489000Y-74156000D01*
X16489000Y-88404000D02*
X16489000Y-82660000D01*
X16529000Y-79900000D02*
X16529000Y-74136000D01*
X16529000Y-88424000D02*
X16529000Y-82660000D01*
X16569000Y-79900000D02*
X16569000Y-74115000D01*
X16569000Y-88445000D02*
X16569000Y-82660000D01*
X16609000Y-79900000D02*
X16609000Y-74095000D01*
X16609000Y-88465000D02*
X16609000Y-82660000D01*
X16649000Y-79900000D02*
X16649000Y-74075000D01*
X16649000Y-88485000D02*
X16649000Y-82660000D01*
X16689000Y-79900000D02*
X16689000Y-74055000D01*
X16689000Y-88505000D02*
X16689000Y-82660000D01*
X16729000Y-79900000D02*
X16729000Y-74035000D01*
X16729000Y-88525000D02*
X16729000Y-82660000D01*
X16769000Y-79900000D02*
X16769000Y-74016000D01*
X16769000Y-88544000D02*
X16769000Y-82660000D01*
X16809000Y-79900000D02*
X16809000Y-73997000D01*
X16809000Y-88563000D02*
X16809000Y-82660000D01*
X16849000Y-79900000D02*
X16849000Y-73979000D01*
X16849000Y-88581000D02*
X16849000Y-82660000D01*
X16889000Y-79900000D02*
X16889000Y-73960000D01*
X16889000Y-88600000D02*
X16889000Y-82660000D01*
X16929000Y-79900000D02*
X16929000Y-73942000D01*
X16929000Y-88618000D02*
X16929000Y-82660000D01*
X16969000Y-79900000D02*
X16969000Y-73924000D01*
X16969000Y-88636000D02*
X16969000Y-82660000D01*
X17009000Y-79900000D02*
X17009000Y-73907000D01*
X17009000Y-88653000D02*
X17009000Y-82660000D01*
X17049000Y-79900000D02*
X17049000Y-73889000D01*
X17049000Y-88671000D02*
X17049000Y-82660000D01*
X17089000Y-79900000D02*
X17089000Y-73872000D01*
X17089000Y-88688000D02*
X17089000Y-82660000D01*
X17129000Y-79900000D02*
X17129000Y-73855000D01*
X17129000Y-88705000D02*
X17129000Y-82660000D01*
X17169000Y-79900000D02*
X17169000Y-73839000D01*
X17169000Y-88721000D02*
X17169000Y-82660000D01*
X17209000Y-79900000D02*
X17209000Y-73822000D01*
X17209000Y-88738000D02*
X17209000Y-82660000D01*
X17249000Y-79900000D02*
X17249000Y-73806000D01*
X17249000Y-88754000D02*
X17249000Y-82660000D01*
X17289000Y-79900000D02*
X17289000Y-73790000D01*
X17289000Y-88770000D02*
X17289000Y-82660000D01*
X17329000Y-79900000D02*
X17329000Y-73775000D01*
X17329000Y-88785000D02*
X17329000Y-82660000D01*
X17369000Y-79900000D02*
X17369000Y-73759000D01*
X17369000Y-88801000D02*
X17369000Y-82660000D01*
X17409000Y-79900000D02*
X17409000Y-73744000D01*
X17409000Y-88816000D02*
X17409000Y-82660000D01*
X17449000Y-79900000D02*
X17449000Y-73730000D01*
X17449000Y-88830000D02*
X17449000Y-82660000D01*
X17489000Y-79900000D02*
X17489000Y-73715000D01*
X17489000Y-88845000D02*
X17489000Y-82660000D01*
X17529000Y-79900000D02*
X17529000Y-73700000D01*
X17529000Y-88860000D02*
X17529000Y-82660000D01*
X17569000Y-79900000D02*
X17569000Y-73686000D01*
X17569000Y-88874000D02*
X17569000Y-82660000D01*
X17609000Y-79900000D02*
X17609000Y-73672000D01*
X17609000Y-88888000D02*
X17609000Y-82660000D01*
X17649000Y-79900000D02*
X17649000Y-73659000D01*
X17649000Y-88901000D02*
X17649000Y-82660000D01*
X17689000Y-79900000D02*
X17689000Y-73645000D01*
X17689000Y-88915000D02*
X17689000Y-82660000D01*
X17729000Y-79900000D02*
X17729000Y-73632000D01*
X17729000Y-88928000D02*
X17729000Y-82660000D01*
X17769000Y-79900000D02*
X17769000Y-73619000D01*
X17769000Y-88941000D02*
X17769000Y-82660000D01*
X17809000Y-79900000D02*
X17809000Y-73606000D01*
X17809000Y-88954000D02*
X17809000Y-82660000D01*
X17849000Y-79900000D02*
X17849000Y-73594000D01*
X17849000Y-88966000D02*
X17849000Y-82660000D01*
X17889000Y-88979000D02*
X17889000Y-73581000D01*
X17929000Y-88991000D02*
X17929000Y-73569000D01*
X17969000Y-89003000D02*
X17969000Y-73557000D01*
X18009000Y-89014000D02*
X18009000Y-73546000D01*
X18049000Y-89026000D02*
X18049000Y-73534000D01*
X18089000Y-89037000D02*
X18089000Y-73523000D01*
X18129000Y-89048000D02*
X18129000Y-73512000D01*
X18169000Y-89059000D02*
X18169000Y-73501000D01*
X18209000Y-89069000D02*
X18209000Y-73491000D01*
X18249000Y-89079000D02*
X18249000Y-73481000D01*
X18289000Y-89089000D02*
X18289000Y-73471000D01*
X18329000Y-89099000D02*
X18329000Y-73461000D01*
X18369000Y-89109000D02*
X18369000Y-73451000D01*
X18409000Y-89118000D02*
X18409000Y-73442000D01*
X18449000Y-89128000D02*
X18449000Y-73432000D01*
X18489000Y-89137000D02*
X18489000Y-73423000D01*
X18529000Y-89146000D02*
X18529000Y-73414000D01*
X18569000Y-89154000D02*
X18569000Y-73406000D01*
X18609000Y-89163000D02*
X18609000Y-73397000D01*
X18649000Y-89171000D02*
X18649000Y-73389000D01*
X18689000Y-89179000D02*
X18689000Y-73381000D01*
X18729000Y-89186000D02*
X18729000Y-73374000D01*
X18769000Y-89194000D02*
X18769000Y-73366000D01*
X18809000Y-89201000D02*
X18809000Y-73359000D01*
X18849000Y-89208000D02*
X18849000Y-73352000D01*
X18889000Y-89215000D02*
X18889000Y-73345000D01*
X18929000Y-89222000D02*
X18929000Y-73338000D01*
X18969000Y-89229000D02*
X18969000Y-73331000D01*
X19009000Y-89235000D02*
X19009000Y-73325000D01*
X19049000Y-89241000D02*
X19049000Y-73319000D01*
X19089000Y-89247000D02*
X19089000Y-73313000D01*
X19129000Y-89253000D02*
X19129000Y-73307000D01*
X19169000Y-89258000D02*
X19169000Y-73302000D01*
X19209000Y-89263000D02*
X19209000Y-73297000D01*
X19249000Y-89268000D02*
X19249000Y-73292000D01*
X19289000Y-89273000D02*
X19289000Y-73287000D01*
X19329000Y-89278000D02*
X19329000Y-73282000D01*
X19369000Y-89282000D02*
X19369000Y-73278000D01*
X19409000Y-89287000D02*
X19409000Y-73273000D01*
X19449000Y-89291000D02*
X19449000Y-73269000D01*
X19489000Y-89295000D02*
X19489000Y-73265000D01*
X19529000Y-89298000D02*
X19529000Y-73262000D01*
X19570000Y-89302000D02*
X19570000Y-73258000D01*
X19610000Y-89305000D02*
X19610000Y-73255000D01*
X19650000Y-89308000D02*
X19650000Y-73252000D01*
X19690000Y-89311000D02*
X19690000Y-73249000D01*
X19730000Y-89314000D02*
X19730000Y-73246000D01*
X19770000Y-89316000D02*
X19770000Y-73244000D01*
X19810000Y-89319000D02*
X19810000Y-73241000D01*
X19850000Y-89321000D02*
X19850000Y-73239000D01*
X19890000Y-89322000D02*
X19890000Y-73238000D01*
X19930000Y-89324000D02*
X19930000Y-73236000D01*
X19970000Y-89326000D02*
X19970000Y-73234000D01*
X20010000Y-89327000D02*
X20010000Y-73233000D01*
X20050000Y-89328000D02*
X20050000Y-73232000D01*
X20090000Y-89329000D02*
X20090000Y-73231000D01*
X20130000Y-89330000D02*
X20130000Y-73230000D01*
X20170000Y-89330000D02*
X20170000Y-73230000D01*
X20210000Y-89330000D02*
X20210000Y-73230000D01*
X20250000Y-89331000D02*
X20250000Y-73229000D01*
X28340000Y-81280000D02*
G75*
G03X28340000Y-81280000I-8090000J0D01*
G01*
D11*
X0Y-140000000D02*
X0Y-153000000D01*
X0Y-153000000D02*
X24000000Y-153000000D01*
X24000000Y-153000000D02*
X24000000Y-140000000D01*
X24000000Y-140000000D02*
X24000000Y-127000000D01*
X24000000Y-127000000D02*
X0Y-127000000D01*
X0Y-127000000D02*
X0Y-140000000D01*
X0Y-128100000D02*
X-7300000Y-128100000D01*
X-7300000Y-128100000D02*
X-7300000Y-151900000D01*
X-7300000Y-151900000D02*
X0Y-151900000D01*
D14*
X32348859Y-22657541D02*
X32348859Y-23357541D01*
X31148859Y-23357541D02*
X31148859Y-22657541D01*
X22020800Y-25852600D02*
X22020800Y-21272600D01*
X21260800Y-26612600D02*
X22020800Y-25852600D01*
X16690800Y-25852600D02*
X17450800Y-26612600D01*
X16690800Y-21272600D02*
X16690800Y-25852600D01*
X17450800Y-26612600D02*
X18240800Y-26612600D01*
X21260800Y-26612600D02*
X20470800Y-26612600D01*
X22020800Y-21272600D02*
X20470800Y-21272600D01*
X16690800Y-21272600D02*
X18240800Y-21272600D01*
X30768859Y-27687541D02*
X24758859Y-27687541D01*
X28518859Y-20867541D02*
X24758859Y-20867541D01*
X24758859Y-27687541D02*
X24758859Y-26427541D01*
X24758859Y-20867541D02*
X24758859Y-22127541D01*
D11*
X35006000Y-30651000D02*
X35006000Y-27651000D01*
X38706000Y-30651000D02*
X35006000Y-30651000D01*
X38706000Y-24651000D02*
X38706000Y-30651000D01*
X35006000Y-24651000D02*
X38706000Y-24651000D01*
X35006000Y-27651000D02*
X35006000Y-24651000D01*
D14*
X15522627Y-34180956D02*
X14822627Y-34180956D01*
X14822627Y-32980956D02*
X15522627Y-32980956D01*
X24282721Y-29247386D02*
X23575614Y-28540279D01*
X24537279Y-27578614D02*
X25244386Y-28285721D01*
X4196000Y-27291000D02*
X4196000Y-29141000D01*
X2996000Y-27291000D02*
X2996000Y-29141000D01*
X2996000Y-29141000D02*
X4196000Y-29141000D01*
X38725500Y-46520500D02*
X36625500Y-46520500D01*
X38725500Y-45520500D02*
X36625500Y-45520500D01*
X38725500Y-46520500D02*
X38725500Y-45520500D01*
X38725500Y-43980500D02*
X36625500Y-43980500D01*
X38725500Y-42980500D02*
X36625500Y-42980500D01*
X38725500Y-43980500D02*
X38725500Y-42980500D01*
X38725500Y-41440500D02*
X36625500Y-41440500D01*
X38725500Y-40440500D02*
X36625500Y-40440500D01*
X38725500Y-41440500D02*
X38725500Y-40440500D01*
X38552000Y-18261000D02*
X38552000Y-19261000D01*
X37192000Y-19261000D02*
X37192000Y-18261000D01*
X284000Y-10059000D02*
X284000Y-459000D01*
X21104000Y-10059000D02*
X284000Y-10059000D01*
X21104000Y-459000D02*
X21104000Y-10059000D01*
X284000Y-459000D02*
X21104000Y-459000D01*
X284000Y-20219000D02*
X284000Y-10619000D01*
X21104000Y-20219000D02*
X284000Y-20219000D01*
X21104000Y-10619000D02*
X21104000Y-20219000D01*
X284000Y-10619000D02*
X21104000Y-10619000D01*
X21810000Y-20091000D02*
X21810000Y-18761000D01*
X23140000Y-20091000D02*
X21810000Y-20091000D01*
X24410000Y-20091000D02*
X24410000Y-17431000D01*
X24410000Y-17431000D02*
X32090000Y-17431000D01*
X24410000Y-20091000D02*
X32090000Y-20091000D01*
X32090000Y-20091000D02*
X32090000Y-17431000D01*
X33566900Y-17924300D02*
X33566900Y-20224300D01*
X36766900Y-19524300D02*
X36766900Y-17924300D01*
X30559500Y-35143500D02*
X29559500Y-35143500D01*
X29559500Y-33783500D02*
X30559500Y-33783500D01*
X30559500Y-32095500D02*
X29559500Y-32095500D01*
X29559500Y-30735500D02*
X30559500Y-30735500D01*
X3434800Y-34967800D02*
X3434800Y-33967800D01*
X4794800Y-33967800D02*
X4794800Y-34967800D01*
X5085800Y-34967800D02*
X5085800Y-33967800D01*
X6445800Y-33967800D02*
X6445800Y-34967800D01*
D11*
X26313928Y-156056952D02*
X26313928Y-155295047D01*
X26694880Y-155676000D02*
X25932976Y-155676000D01*
X20739547Y-124697928D02*
X21501452Y-124697928D01*
X21120500Y-125078880D02*
X21120500Y-124316976D01*
X29606857Y-104523904D02*
X29606857Y-103000095D01*
X30368761Y-103762000D02*
X28844952Y-103762000D01*
X25034857Y-99951904D02*
X25034857Y-98428095D01*
D14*
X37172380Y-101694285D02*
X37172380Y-102265714D01*
X37172380Y-101980000D02*
X36172380Y-101980000D01*
X36315238Y-102075238D01*
X36410476Y-102170476D01*
X36458095Y-102265714D01*
D11*
X29606857Y-141523904D02*
X29606857Y-140000095D01*
X30368761Y-140762000D02*
X28844952Y-140762000D01*
X25034857Y-136951904D02*
X25034857Y-135428095D01*
X21792228Y-27703552D02*
X21792228Y-26941647D01*
X22173180Y-27322600D02*
X21411276Y-27322600D01*
D14*
X5919714Y-8701380D02*
X5348285Y-8701380D01*
X5634000Y-8701380D02*
X5634000Y-7701380D01*
X5538761Y-7844238D01*
X5443523Y-7939476D01*
X5348285Y-7987095D01*
X5919714Y-18861380D02*
X5348285Y-18861380D01*
X5634000Y-18861380D02*
X5634000Y-17861380D01*
X5538761Y-18004238D01*
X5443523Y-18099476D01*
X5348285Y-18147095D01*
M02*
