G04 #@! TF.GenerationSoftware,KiCad,Pcbnew,(5.0.0-rc2-dev-311-g1dd4af297)*
G04 #@! TF.CreationDate,2018-06-04T15:35:21+02:00*
G04 #@! TF.ProjectId,resetUSB,72657365745553422E6B696361645F70,1.0*
G04 #@! TF.SameCoordinates,PX6ad8e7cPY2bcdfd4*
G04 #@! TF.FileFunction,Soldermask,Bot*
G04 #@! TF.FilePolarity,Negative*
%FSLAX46Y46*%
G04 Gerber Fmt 4.6, Leading zero omitted, Abs format (unit mm)*
G04 Created by KiCad (PCBNEW (5.0.0-rc2-dev-311-g1dd4af297)) date 06/04/18 15:35:21*
%MOMM*%
%LPD*%
G01*
G04 APERTURE LIST*
%ADD10C,0.200000*%
%ADD11C,0.150000*%
%ADD12C,1.800000*%
%ADD13C,1.600000*%
%ADD14C,2.400000*%
%ADD15O,1.927200X1.927200*%
%ADD16R,1.927200X1.927200*%
%ADD17C,4.200000*%
%ADD18C,3.200000*%
%ADD19C,3.000000*%
%ADD20R,3.000000X3.000000*%
%ADD21C,2.800000*%
%ADD22C,3.400000*%
%ADD23C,2.600000*%
%ADD24R,2.600000X2.600000*%
%ADD25O,1.900000X1.900000*%
%ADD26R,1.900000X1.900000*%
G04 APERTURE END LIST*
D10*
X39000000Y-167000000D02*
X39000000Y0D01*
X0Y-167000000D02*
X39000000Y-167000000D01*
X0Y0D02*
X0Y-167000000D01*
D11*
X39000000Y0D02*
X0Y0D01*
D12*
X12305000Y-157300000D03*
X14845000Y-157300000D03*
X17385000Y-157300000D03*
X19925000Y-157300000D03*
X22465000Y-157300000D03*
X25005000Y-157300000D03*
X27545000Y-157300000D03*
X30085000Y-157300000D03*
X13575000Y-162380000D03*
X16115000Y-162380000D03*
X18655000Y-162380000D03*
X28815000Y-162380000D03*
X26275000Y-162380000D03*
X23735000Y-162380000D03*
X21195000Y-162380000D03*
D13*
X5000000Y-75750000D03*
X5000000Y-70250000D03*
D14*
X24770000Y-96650000D03*
X29210000Y-106180000D03*
D15*
X32460000Y-91840000D03*
X35000000Y-91840000D03*
X32460000Y-94380000D03*
X35000000Y-94380000D03*
X32460000Y-96920000D03*
X35000000Y-96920000D03*
X32460000Y-99460000D03*
X35000000Y-99460000D03*
X32460000Y-102000000D03*
D16*
X35000000Y-102000000D03*
D17*
X30658500Y-128705500D03*
X30658500Y-138905500D03*
D18*
X30658500Y-133805500D03*
D17*
X35758500Y-133805500D03*
D19*
X29158000Y-68361000D03*
X29158000Y-64161000D03*
X34658000Y-68361000D03*
D20*
X34658000Y-64161000D03*
D17*
X30658500Y-112449500D03*
X30658500Y-122649500D03*
D18*
X30658500Y-117549500D03*
D17*
X35758500Y-117549500D03*
D12*
X3920000Y-46810000D03*
X9000000Y-39190000D03*
D14*
X12810000Y-43000000D03*
X17890000Y-43000000D03*
D21*
X17890000Y-46810000D03*
X17890000Y-39190000D03*
D22*
X28043500Y-1853500D03*
X28043500Y-14993500D03*
D23*
X16500000Y-81280000D03*
D24*
X24000000Y-81280000D03*
D14*
X24770000Y-133650000D03*
X29210000Y-143180000D03*
D15*
X15774000Y-3989000D03*
X15774000Y-6529000D03*
X13234000Y-3989000D03*
X13234000Y-6529000D03*
X10694000Y-3989000D03*
X10694000Y-6529000D03*
X8154000Y-3989000D03*
X8154000Y-6529000D03*
X5614000Y-3989000D03*
D16*
X5614000Y-6529000D03*
D15*
X15774000Y-14149000D03*
X15774000Y-16689000D03*
X13234000Y-14149000D03*
X13234000Y-16689000D03*
X10694000Y-14149000D03*
X10694000Y-16689000D03*
X8154000Y-14149000D03*
X8154000Y-16689000D03*
X5614000Y-14149000D03*
D16*
X5614000Y-16689000D03*
D25*
X30760000Y-18761000D03*
X28220000Y-18761000D03*
X25680000Y-18761000D03*
D26*
X23140000Y-18761000D03*
M02*
