M48
;DRILL file {KiCad (5.0.0-rc2-dev-311-g1dd4af297)} date 06/04/18 15:35:22
;FORMAT={-:-/ absolute / inch / decimal}
FMAT,2
INCH,TZ
T1C0.0197
T2C0.0394
T3C0.0400
T4C0.0433
T5C0.0472
T6C0.0551
T7C0.0630
T8C0.0906
T9C0.1102
%
G90
G05
M72
T1
X0.2084Y-0.8604
X0.5691Y-1.3716
X0.5716Y-2.8983
X0.683Y-0.821
X1.25Y-1.0058
X1.4534Y-1.3268
T2
X0.911Y-0.7386
X1.011Y-0.7386
X1.111Y-0.7386
X1.211Y-0.7386
T3
X0.321Y-0.257
X1.278Y-3.6157
X1.278Y-3.7157
X1.278Y-3.8157
X1.278Y-3.9157
X1.278Y-4.0157
X1.378Y-3.6157
X0.321Y-0.157
X0.621Y-0.657
X0.221Y-0.157
X0.221Y-0.257
X0.621Y-0.557
X1.378Y-3.7157
X0.421Y-0.157
X0.421Y-0.257
X0.521Y-0.157
X0.521Y-0.257
X0.621Y-0.157
X0.621Y-0.257
X1.378Y-3.8157
X1.378Y-3.9157
X1.378Y-4.0157
X0.221Y-0.557
X0.221Y-0.657
X0.321Y-0.557
X0.321Y-0.657
X0.421Y-0.557
X0.421Y-0.657
X0.521Y-0.557
X0.521Y-0.657
T4
X0.4844Y-6.1929
X0.5344Y-6.3929
X0.5844Y-6.1929
X0.6344Y-6.3929
X0.6844Y-6.1929
X0.7344Y-6.3929
X0.7844Y-6.1929
X0.8344Y-6.3929
X0.8844Y-6.1929
X0.9344Y-6.3929
X0.9844Y-6.1929
X1.0344Y-6.3929
X1.0844Y-6.1929
X1.1344Y-6.3929
X1.1844Y-6.1929
T5
X0.6496Y-3.2
X0.9449Y-3.2
X0.5043Y-1.6929
X0.7043Y-1.6929
T6
X0.9752Y-3.8051
X1.15Y-4.1803
X0.9752Y-5.2618
X1.15Y-5.637
X1.148Y-2.526
X1.148Y-2.6914
X1.3645Y-2.526
X1.3645Y-2.6914
T7
X0.7043Y-1.5429
X1.207Y-5.2679
X1.207Y-4.6279
X0.7043Y-1.8429
T8
X1.1041Y-0.073
X1.1041Y-0.5903
T9
X1.207Y-4.4271
X1.207Y-4.8287
X1.4078Y-4.6279
X1.207Y-5.0671
X1.207Y-5.4687
X1.4078Y-5.2679
T0
M30
