G04 #@! TF.GenerationSoftware,KiCad,Pcbnew,(5.0.0-rc2-dev-311-g1dd4af297)*
G04 #@! TF.CreationDate,2018-06-04T15:35:21+02:00*
G04 #@! TF.ProjectId,resetUSB,72657365745553422E6B696361645F70,1.0*
G04 #@! TF.SameCoordinates,PX6ad8e7cPY2bcdfd4*
G04 #@! TF.FileFunction,Copper,L1,Top,Signal*
G04 #@! TF.FilePolarity,Positive*
%FSLAX46Y46*%
G04 Gerber Fmt 4.6, Leading zero omitted, Abs format (unit mm)*
G04 Created by KiCad (PCBNEW (5.0.0-rc2-dev-311-g1dd4af297)) date 06/04/18 15:35:21*
%MOMM*%
%LPD*%
G01*
G04 APERTURE LIST*
%ADD10C,0.200000*%
%ADD11C,0.150000*%
%ADD12C,0.300000*%
%ADD13R,0.500000X0.900000*%
%ADD14R,1.600000X3.500000*%
%ADD15R,0.900000X0.500000*%
%ADD16R,0.750000X0.800000*%
%ADD17C,1.600000*%
%ADD18R,3.000000X1.600000*%
%ADD19R,3.000000X0.700000*%
%ADD20R,6.040000X3.400000*%
%ADD21C,2.200000*%
%ADD22R,1.800000X2.500000*%
%ADD23R,0.800000X0.900000*%
%ADD24R,1.550000X0.600000*%
%ADD25O,1.727200X1.727200*%
%ADD26R,1.727200X1.727200*%
%ADD27C,4.000000*%
%ADD28C,3.000000*%
%ADD29R,0.800000X0.800000*%
%ADD30C,2.800000*%
%ADD31R,2.800000X2.800000*%
%ADD32C,2.600000*%
%ADD33R,0.600000X1.200000*%
%ADD34R,1.200000X0.600000*%
%ADD35R,0.800000X0.750000*%
%ADD36R,3.000000X1.000000*%
%ADD37C,3.200000*%
%ADD38C,2.400000*%
%ADD39R,2.400000X2.400000*%
%ADD40R,1.600000X3.000000*%
%ADD41R,2.000000X1.500000*%
%ADD42R,2.000000X3.800000*%
%ADD43R,1.600000X2.180000*%
%ADD44C,0.500000*%
%ADD45C,0.100000*%
%ADD46R,0.700000X0.600000*%
%ADD47O,1.700000X1.700000*%
%ADD48R,1.700000X1.700000*%
%ADD49R,0.510000X0.700000*%
%ADD50C,1.300000*%
%ADD51C,1.800000*%
%ADD52C,0.250000*%
%ADD53C,0.750000*%
%ADD54C,0.254000*%
G04 APERTURE END LIST*
D10*
X39000000Y-167000000D02*
X39000000Y0D01*
X0Y-167000000D02*
X39000000Y-167000000D01*
X0Y0D02*
X0Y-167000000D01*
D11*
X39000000Y0D02*
X0Y0D01*
D12*
X29853571Y-84097142D02*
X28353571Y-84097142D01*
X29853571Y-83240000D02*
X28996428Y-83882857D01*
X28353571Y-83240000D02*
X29210714Y-84097142D01*
X28853571Y-82597142D02*
X29853571Y-82597142D01*
X28996428Y-82597142D02*
X28925000Y-82525714D01*
X28853571Y-82382857D01*
X28853571Y-82168571D01*
X28925000Y-82025714D01*
X29067857Y-81954285D01*
X29853571Y-81954285D01*
X29853571Y-81025714D02*
X29782142Y-81168571D01*
X29710714Y-81240000D01*
X29567857Y-81311428D01*
X29139285Y-81311428D01*
X28996428Y-81240000D01*
X28925000Y-81168571D01*
X28853571Y-81025714D01*
X28853571Y-80811428D01*
X28925000Y-80668571D01*
X28996428Y-80597142D01*
X29139285Y-80525714D01*
X29567857Y-80525714D01*
X29710714Y-80597142D01*
X29782142Y-80668571D01*
X29853571Y-80811428D01*
X29853571Y-81025714D01*
X29853571Y-79668571D02*
X29782142Y-79811428D01*
X29710714Y-79882857D01*
X29567857Y-79954285D01*
X29139285Y-79954285D01*
X28996428Y-79882857D01*
X28925000Y-79811428D01*
X28853571Y-79668571D01*
X28853571Y-79454285D01*
X28925000Y-79311428D01*
X28996428Y-79240000D01*
X29139285Y-79168571D01*
X29567857Y-79168571D01*
X29710714Y-79240000D01*
X29782142Y-79311428D01*
X29853571Y-79454285D01*
X29853571Y-79668571D01*
X29782142Y-77882857D02*
X29853571Y-78025714D01*
X29853571Y-78311428D01*
X29782142Y-78454285D01*
X29710714Y-78525714D01*
X29567857Y-78597142D01*
X29139285Y-78597142D01*
X28996428Y-78525714D01*
X28925000Y-78454285D01*
X28853571Y-78311428D01*
X28853571Y-78025714D01*
X28925000Y-77882857D01*
X29853571Y-77240000D02*
X28353571Y-77240000D01*
X29282142Y-77097142D02*
X29853571Y-76668571D01*
X28853571Y-76668571D02*
X29425000Y-77240000D01*
X29782142Y-75454285D02*
X29853571Y-75597142D01*
X29853571Y-75882857D01*
X29782142Y-76025714D01*
X29639285Y-76097142D01*
X29067857Y-76097142D01*
X28925000Y-76025714D01*
X28853571Y-75882857D01*
X28853571Y-75597142D01*
X28925000Y-75454285D01*
X29067857Y-75382857D01*
X29210714Y-75382857D01*
X29353571Y-76097142D01*
X29853571Y-74740000D02*
X28853571Y-74740000D01*
X29139285Y-74740000D02*
X28996428Y-74668571D01*
X28925000Y-74597142D01*
X28853571Y-74454285D01*
X28853571Y-74311428D01*
X32403571Y-84704285D02*
X31403571Y-84704285D01*
X31689285Y-84704285D02*
X31546428Y-84632857D01*
X31475000Y-84561428D01*
X31403571Y-84418571D01*
X31403571Y-84275714D01*
X32332142Y-83204285D02*
X32403571Y-83347142D01*
X32403571Y-83632857D01*
X32332142Y-83775714D01*
X32189285Y-83847142D01*
X31617857Y-83847142D01*
X31475000Y-83775714D01*
X31403571Y-83632857D01*
X31403571Y-83347142D01*
X31475000Y-83204285D01*
X31617857Y-83132857D01*
X31760714Y-83132857D01*
X31903571Y-83847142D01*
X32332142Y-82561428D02*
X32403571Y-82418571D01*
X32403571Y-82132857D01*
X32332142Y-81990000D01*
X32189285Y-81918571D01*
X32117857Y-81918571D01*
X31975000Y-81990000D01*
X31903571Y-82132857D01*
X31903571Y-82347142D01*
X31832142Y-82490000D01*
X31689285Y-82561428D01*
X31617857Y-82561428D01*
X31475000Y-82490000D01*
X31403571Y-82347142D01*
X31403571Y-82132857D01*
X31475000Y-81990000D01*
X32332142Y-80704285D02*
X32403571Y-80847142D01*
X32403571Y-81132857D01*
X32332142Y-81275714D01*
X32189285Y-81347142D01*
X31617857Y-81347142D01*
X31475000Y-81275714D01*
X31403571Y-81132857D01*
X31403571Y-80847142D01*
X31475000Y-80704285D01*
X31617857Y-80632857D01*
X31760714Y-80632857D01*
X31903571Y-81347142D01*
X31403571Y-80204285D02*
X31403571Y-79632857D01*
X30903571Y-79990000D02*
X32189285Y-79990000D01*
X32332142Y-79918571D01*
X32403571Y-79775714D01*
X32403571Y-79632857D01*
X30903571Y-79132857D02*
X32117857Y-79132857D01*
X32260714Y-79061428D01*
X32332142Y-78990000D01*
X32403571Y-78847142D01*
X32403571Y-78561428D01*
X32332142Y-78418571D01*
X32260714Y-78347142D01*
X32117857Y-78275714D01*
X30903571Y-78275714D01*
X32332142Y-77632857D02*
X32403571Y-77418571D01*
X32403571Y-77061428D01*
X32332142Y-76918571D01*
X32260714Y-76847142D01*
X32117857Y-76775714D01*
X31975000Y-76775714D01*
X31832142Y-76847142D01*
X31760714Y-76918571D01*
X31689285Y-77061428D01*
X31617857Y-77347142D01*
X31546428Y-77490000D01*
X31475000Y-77561428D01*
X31332142Y-77632857D01*
X31189285Y-77632857D01*
X31046428Y-77561428D01*
X30975000Y-77490000D01*
X30903571Y-77347142D01*
X30903571Y-76990000D01*
X30975000Y-76775714D01*
X31617857Y-75632857D02*
X31689285Y-75418571D01*
X31760714Y-75347142D01*
X31903571Y-75275714D01*
X32117857Y-75275714D01*
X32260714Y-75347142D01*
X32332142Y-75418571D01*
X32403571Y-75561428D01*
X32403571Y-76132857D01*
X30903571Y-76132857D01*
X30903571Y-75632857D01*
X30975000Y-75490000D01*
X31046428Y-75418571D01*
X31189285Y-75347142D01*
X31332142Y-75347142D01*
X31475000Y-75418571D01*
X31546428Y-75490000D01*
X31617857Y-75632857D01*
X31617857Y-76132857D01*
X31403571Y-74775714D02*
X32403571Y-74418571D01*
X31403571Y-74061428D01*
X31403571Y-72847142D02*
X32403571Y-72847142D01*
X30832142Y-73204285D02*
X31903571Y-73561428D01*
X31903571Y-72632857D01*
X34953571Y-84847142D02*
X33953571Y-84847142D01*
X34096428Y-84847142D02*
X34025000Y-84775714D01*
X33953571Y-84632857D01*
X33953571Y-84418571D01*
X34025000Y-84275714D01*
X34167857Y-84204285D01*
X34953571Y-84204285D01*
X34167857Y-84204285D02*
X34025000Y-84132857D01*
X33953571Y-83990000D01*
X33953571Y-83775714D01*
X34025000Y-83632857D01*
X34167857Y-83561428D01*
X34953571Y-83561428D01*
X34953571Y-82204285D02*
X34167857Y-82204285D01*
X34025000Y-82275714D01*
X33953571Y-82418571D01*
X33953571Y-82704285D01*
X34025000Y-82847142D01*
X34882142Y-82204285D02*
X34953571Y-82347142D01*
X34953571Y-82704285D01*
X34882142Y-82847142D01*
X34739285Y-82918571D01*
X34596428Y-82918571D01*
X34453571Y-82847142D01*
X34382142Y-82704285D01*
X34382142Y-82347142D01*
X34310714Y-82204285D01*
X34953571Y-81490000D02*
X33953571Y-81490000D01*
X34239285Y-81490000D02*
X34096428Y-81418571D01*
X34025000Y-81347142D01*
X33953571Y-81204285D01*
X33953571Y-81061428D01*
X34882142Y-79990000D02*
X34953571Y-80132857D01*
X34953571Y-80418571D01*
X34882142Y-80561428D01*
X34739285Y-80632857D01*
X34167857Y-80632857D01*
X34025000Y-80561428D01*
X33953571Y-80418571D01*
X33953571Y-80132857D01*
X34025000Y-79990000D01*
X34167857Y-79918571D01*
X34310714Y-79918571D01*
X34453571Y-80632857D01*
X34953571Y-79275714D02*
X33453571Y-79275714D01*
X34382142Y-79132857D02*
X34953571Y-78704285D01*
X33953571Y-78704285D02*
X34525000Y-79275714D01*
X33953571Y-78061428D02*
X35453571Y-78061428D01*
X34025000Y-78061428D02*
X33953571Y-77918571D01*
X33953571Y-77632857D01*
X34025000Y-77490000D01*
X34096428Y-77418571D01*
X34239285Y-77347142D01*
X34667857Y-77347142D01*
X34810714Y-77418571D01*
X34882142Y-77490000D01*
X34953571Y-77632857D01*
X34953571Y-77918571D01*
X34882142Y-78061428D01*
X34953571Y-75918571D02*
X34953571Y-76775714D01*
X34953571Y-76347142D02*
X33453571Y-76347142D01*
X33667857Y-76490000D01*
X33810714Y-76632857D01*
X33882142Y-76775714D01*
X34096428Y-75061428D02*
X34025000Y-75204285D01*
X33953571Y-75275714D01*
X33810714Y-75347142D01*
X33739285Y-75347142D01*
X33596428Y-75275714D01*
X33525000Y-75204285D01*
X33453571Y-75061428D01*
X33453571Y-74775714D01*
X33525000Y-74632857D01*
X33596428Y-74561428D01*
X33739285Y-74490000D01*
X33810714Y-74490000D01*
X33953571Y-74561428D01*
X34025000Y-74632857D01*
X34096428Y-74775714D01*
X34096428Y-75061428D01*
X34167857Y-75204285D01*
X34239285Y-75275714D01*
X34382142Y-75347142D01*
X34667857Y-75347142D01*
X34810714Y-75275714D01*
X34882142Y-75204285D01*
X34953571Y-75061428D01*
X34953571Y-74775714D01*
X34882142Y-74632857D01*
X34810714Y-74561428D01*
X34667857Y-74490000D01*
X34382142Y-74490000D01*
X34239285Y-74561428D01*
X34167857Y-74632857D01*
X34096428Y-74775714D01*
X34239285Y-72918571D02*
X34167857Y-72990000D01*
X34096428Y-73132857D01*
X34096428Y-73275714D01*
X34167857Y-73418571D01*
X34239285Y-73490000D01*
X34382142Y-73561428D01*
X34525000Y-73561428D01*
X34667857Y-73490000D01*
X34739285Y-73418571D01*
X34810714Y-73275714D01*
X34810714Y-73132857D01*
X34739285Y-72990000D01*
X34667857Y-72918571D01*
X34096428Y-72918571D02*
X34667857Y-72918571D01*
X34739285Y-72847142D01*
X34739285Y-72775714D01*
X34667857Y-72632857D01*
X34525000Y-72561428D01*
X34167857Y-72561428D01*
X33953571Y-72704285D01*
X33810714Y-72918571D01*
X33739285Y-73204285D01*
X33810714Y-73490000D01*
X33953571Y-73704285D01*
X34167857Y-73847142D01*
X34453571Y-73918571D01*
X34739285Y-73847142D01*
X34953571Y-73704285D01*
X35096428Y-73490000D01*
X35167857Y-73204285D01*
X35096428Y-72918571D01*
X34953571Y-72704285D01*
X36503571Y-83525714D02*
X37717857Y-83525714D01*
X37860714Y-83597142D01*
X37932142Y-83668571D01*
X38003571Y-83811428D01*
X38003571Y-84025714D01*
X37932142Y-84168571D01*
X37432142Y-83525714D02*
X37503571Y-83668571D01*
X37503571Y-83954285D01*
X37432142Y-84097142D01*
X37360714Y-84168571D01*
X37217857Y-84240000D01*
X36789285Y-84240000D01*
X36646428Y-84168571D01*
X36575000Y-84097142D01*
X36503571Y-83954285D01*
X36503571Y-83668571D01*
X36575000Y-83525714D01*
X37503571Y-82811428D02*
X36503571Y-82811428D01*
X36646428Y-82811428D02*
X36575000Y-82740000D01*
X36503571Y-82597142D01*
X36503571Y-82382857D01*
X36575000Y-82240000D01*
X36717857Y-82168571D01*
X37503571Y-82168571D01*
X36717857Y-82168571D02*
X36575000Y-82097142D01*
X36503571Y-81954285D01*
X36503571Y-81740000D01*
X36575000Y-81597142D01*
X36717857Y-81525714D01*
X37503571Y-81525714D01*
X37503571Y-80168571D02*
X36717857Y-80168571D01*
X36575000Y-80240000D01*
X36503571Y-80382857D01*
X36503571Y-80668571D01*
X36575000Y-80811428D01*
X37432142Y-80168571D02*
X37503571Y-80311428D01*
X37503571Y-80668571D01*
X37432142Y-80811428D01*
X37289285Y-80882857D01*
X37146428Y-80882857D01*
X37003571Y-80811428D01*
X36932142Y-80668571D01*
X36932142Y-80311428D01*
X36860714Y-80168571D01*
X37503571Y-79454285D02*
X36503571Y-79454285D01*
X36003571Y-79454285D02*
X36075000Y-79525714D01*
X36146428Y-79454285D01*
X36075000Y-79382857D01*
X36003571Y-79454285D01*
X36146428Y-79454285D01*
X37503571Y-78525714D02*
X37432142Y-78668571D01*
X37289285Y-78740000D01*
X36003571Y-78740000D01*
X37360714Y-77954285D02*
X37432142Y-77882857D01*
X37503571Y-77954285D01*
X37432142Y-78025714D01*
X37360714Y-77954285D01*
X37503571Y-77954285D01*
X37432142Y-76597142D02*
X37503571Y-76740000D01*
X37503571Y-77025714D01*
X37432142Y-77168571D01*
X37360714Y-77240000D01*
X37217857Y-77311428D01*
X36789285Y-77311428D01*
X36646428Y-77240000D01*
X36575000Y-77168571D01*
X36503571Y-77025714D01*
X36503571Y-76740000D01*
X36575000Y-76597142D01*
X37503571Y-75740000D02*
X37432142Y-75882857D01*
X37360714Y-75954285D01*
X37217857Y-76025714D01*
X36789285Y-76025714D01*
X36646428Y-75954285D01*
X36575000Y-75882857D01*
X36503571Y-75740000D01*
X36503571Y-75525714D01*
X36575000Y-75382857D01*
X36646428Y-75311428D01*
X36789285Y-75240000D01*
X37217857Y-75240000D01*
X37360714Y-75311428D01*
X37432142Y-75382857D01*
X37503571Y-75525714D01*
X37503571Y-75740000D01*
X37503571Y-74597142D02*
X36503571Y-74597142D01*
X36646428Y-74597142D02*
X36575000Y-74525714D01*
X36503571Y-74382857D01*
X36503571Y-74168571D01*
X36575000Y-74025714D01*
X36717857Y-73954285D01*
X37503571Y-73954285D01*
X36717857Y-73954285D02*
X36575000Y-73882857D01*
X36503571Y-73740000D01*
X36503571Y-73525714D01*
X36575000Y-73382857D01*
X36717857Y-73311428D01*
X37503571Y-73311428D01*
D13*
X29059000Y-150166000D03*
X27559000Y-150166000D03*
D14*
X23232500Y-148696000D03*
X23232500Y-154096000D03*
D15*
X27547000Y-148376000D03*
X27547000Y-146876000D03*
D16*
X18914500Y-153226000D03*
X18914500Y-154726000D03*
X17199000Y-154726000D03*
X17199000Y-153226000D03*
X27547000Y-153214000D03*
X27547000Y-154714000D03*
D15*
X18911000Y-148376000D03*
X18911000Y-146876000D03*
D17*
X12305000Y-157300000D03*
X14845000Y-157300000D03*
X17385000Y-157300000D03*
X19925000Y-157300000D03*
X22465000Y-157300000D03*
X25005000Y-157300000D03*
X27545000Y-157300000D03*
X30085000Y-157300000D03*
X13575000Y-162380000D03*
X16115000Y-162380000D03*
X18655000Y-162380000D03*
X28815000Y-162380000D03*
X26275000Y-162380000D03*
X23735000Y-162380000D03*
X21195000Y-162380000D03*
D16*
X29137000Y-154726000D03*
X29137000Y-153226000D03*
D13*
X17399000Y-150166000D03*
X18899000Y-150166000D03*
D15*
X22693500Y-127740500D03*
X22693500Y-129240500D03*
D18*
X15540500Y-126966500D03*
X19940500Y-126966500D03*
D19*
X12000000Y-74875000D03*
X12000000Y-71125000D03*
X12000000Y-73625000D03*
X12000000Y-72375000D03*
D20*
X5580000Y-79800000D03*
X5580000Y-66200000D03*
D21*
X24770000Y-96650000D03*
X29210000Y-106180000D03*
D22*
X21775500Y-42545700D03*
X21775500Y-46545700D03*
X25458500Y-46545700D03*
X25458500Y-42545700D03*
X21775500Y-54292700D03*
X21775500Y-50292700D03*
D23*
X26566000Y-39451500D03*
X25616000Y-37451500D03*
X27516000Y-37451500D03*
X30249000Y-39451500D03*
X29299000Y-37451500D03*
X31199000Y-37451500D03*
D22*
X25458500Y-50292700D03*
X25458500Y-54292700D03*
D24*
X28486200Y-45849100D03*
X28486200Y-44579100D03*
X28486200Y-43309100D03*
X28486200Y-42039100D03*
X33886200Y-42039100D03*
X33886200Y-43309100D03*
X33886200Y-44579100D03*
X33886200Y-45849100D03*
X28486200Y-53469100D03*
X28486200Y-52199100D03*
X28486200Y-50929100D03*
X28486200Y-49659100D03*
X33886200Y-49659100D03*
X33886200Y-50929100D03*
X33886200Y-52199100D03*
X33886200Y-53469100D03*
D13*
X30198500Y-47879000D03*
X31698500Y-47879000D03*
X32320800Y-40309800D03*
X33820800Y-40309800D03*
D25*
X32460000Y-91840000D03*
X35000000Y-91840000D03*
X32460000Y-94380000D03*
X35000000Y-94380000D03*
X32460000Y-96920000D03*
X35000000Y-96920000D03*
X32460000Y-99460000D03*
X35000000Y-99460000D03*
X32460000Y-102000000D03*
D26*
X35000000Y-102000000D03*
D27*
X30658500Y-128705500D03*
X30658500Y-138905500D03*
D28*
X30658500Y-133805500D03*
D27*
X35758500Y-133805500D03*
D29*
X36360000Y-58461500D03*
X34760000Y-58461500D03*
D13*
X33262000Y-58420000D03*
X31762000Y-58420000D03*
D30*
X29158000Y-68361000D03*
X29158000Y-64161000D03*
X34658000Y-68361000D03*
D31*
X34658000Y-64161000D03*
D27*
X30658500Y-112449500D03*
X30658500Y-122649500D03*
D28*
X30658500Y-117549500D03*
D27*
X35758500Y-117549500D03*
D13*
X29309500Y-32939500D03*
X30809500Y-32939500D03*
D21*
X12810000Y-43000000D03*
X17890000Y-43000000D03*
D32*
X17890000Y-46810000D03*
X17890000Y-39190000D03*
D33*
X7292772Y-25091143D03*
X8092772Y-25091143D03*
X8892772Y-25091143D03*
X9692772Y-25091143D03*
X10492772Y-25091143D03*
X11292772Y-25091143D03*
X12092772Y-25091143D03*
X12892772Y-25091143D03*
D34*
X14342772Y-26541143D03*
X14342772Y-27341143D03*
X14342772Y-28141143D03*
X14342772Y-28941143D03*
X14342772Y-29741143D03*
X14342772Y-30541143D03*
X14342772Y-31341143D03*
X14342772Y-32141143D03*
D33*
X12892772Y-33591143D03*
X12092772Y-33591143D03*
X11292772Y-33591143D03*
X10492772Y-33591143D03*
X9692772Y-33591143D03*
X8892772Y-33591143D03*
X8092772Y-33591143D03*
X7292772Y-33591143D03*
D34*
X5842772Y-32141143D03*
X5842772Y-31341143D03*
X5842772Y-30541143D03*
X5842772Y-29741143D03*
X5842772Y-28941143D03*
X5842772Y-28141143D03*
X5842772Y-27341143D03*
X5842772Y-26541143D03*
D13*
X7937876Y-23392702D03*
X6437876Y-23392702D03*
D35*
X4403631Y-25120423D03*
X5903631Y-25120423D03*
X7949876Y-21868702D03*
X6449876Y-21868702D03*
D36*
X23833500Y-11923500D03*
X23833500Y-9423500D03*
X23833500Y-4923500D03*
X23833500Y-7423500D03*
D37*
X28043500Y-1853500D03*
X28043500Y-14993500D03*
D38*
X16500000Y-81280000D03*
D39*
X24000000Y-81280000D03*
D21*
X24770000Y-133650000D03*
X29210000Y-143180000D03*
D16*
X31748859Y-22257541D03*
X31748859Y-23757541D03*
D40*
X19380800Y-21742600D03*
X19380800Y-26142600D03*
D41*
X29818859Y-26577541D03*
X29818859Y-21977541D03*
X29818859Y-24277541D03*
D42*
X23518859Y-24277541D03*
D43*
X36856000Y-23951000D03*
X36856000Y-31351000D03*
D35*
X15922627Y-33580956D03*
X14422627Y-33580956D03*
D44*
X23879670Y-27882670D03*
D45*
G36*
X24374645Y-27741249D02*
X23738249Y-28377645D01*
X23384695Y-28024091D01*
X24021091Y-27387695D01*
X24374645Y-27741249D01*
X24374645Y-27741249D01*
G37*
D44*
X24940330Y-28943330D03*
D45*
G36*
X25435305Y-28801909D02*
X24798909Y-29438305D01*
X24445355Y-29084751D01*
X25081751Y-28448355D01*
X25435305Y-28801909D01*
X25435305Y-28801909D01*
G37*
D46*
X3596000Y-28691000D03*
X3596000Y-27291000D03*
D29*
X38225500Y-46020500D03*
X36625500Y-46020500D03*
X38225500Y-43480500D03*
X36625500Y-43480500D03*
X38225500Y-40940500D03*
X36625500Y-40940500D03*
D15*
X37872000Y-19511000D03*
X37872000Y-18011000D03*
D25*
X15774000Y-3989000D03*
X15774000Y-6529000D03*
X13234000Y-3989000D03*
X13234000Y-6529000D03*
X10694000Y-3989000D03*
X10694000Y-6529000D03*
X8154000Y-3989000D03*
X8154000Y-6529000D03*
X5614000Y-3989000D03*
D26*
X5614000Y-6529000D03*
D25*
X15774000Y-14149000D03*
X15774000Y-16689000D03*
X13234000Y-14149000D03*
X13234000Y-16689000D03*
X10694000Y-14149000D03*
X10694000Y-16689000D03*
X8154000Y-14149000D03*
X8154000Y-16689000D03*
X5614000Y-14149000D03*
D26*
X5614000Y-16689000D03*
D47*
X30760000Y-18761000D03*
X28220000Y-18761000D03*
X25680000Y-18761000D03*
D48*
X23140000Y-18761000D03*
D49*
X34216900Y-17564300D03*
X35166900Y-17564300D03*
X36116900Y-17564300D03*
X36116900Y-19884300D03*
X35166900Y-19884300D03*
X34216900Y-19884300D03*
D13*
X29309500Y-34463500D03*
X30809500Y-34463500D03*
X29309500Y-31415500D03*
X30809500Y-31415500D03*
D15*
X4114800Y-33717800D03*
X4114800Y-35217800D03*
X5765800Y-33717800D03*
X5765800Y-35217800D03*
D50*
X36917498Y-33701500D03*
X14518000Y-73618000D03*
X5293802Y-21854010D03*
X17348800Y-20853600D03*
X31748859Y-25547541D03*
X14454207Y-34838191D03*
D12*
X36856000Y-31351000D02*
X36856000Y-33640002D01*
X36856000Y-33640002D02*
X36917498Y-33701500D01*
X37567497Y-34351499D02*
X36917498Y-33701500D01*
X38225500Y-35009502D02*
X37567497Y-34351499D01*
X38225500Y-40940500D02*
X38225500Y-35009502D01*
X38225500Y-43480500D02*
X38225500Y-46020500D01*
X38225500Y-40940500D02*
X38225500Y-43480500D01*
X12000000Y-73625000D02*
X14511000Y-73625000D01*
X5308494Y-21868702D02*
X5293802Y-21854010D01*
X6449876Y-21868702D02*
X5308494Y-21868702D01*
X5903631Y-24667369D02*
X6437876Y-24133124D01*
X5903631Y-25120423D02*
X5903631Y-24667369D01*
X6437876Y-24133124D02*
X6437876Y-23392702D01*
X5903631Y-25120423D02*
X5932911Y-25091143D01*
X5932911Y-25091143D02*
X7292772Y-25091143D01*
X12892772Y-33591144D02*
X12902960Y-33580956D01*
X12902960Y-33580956D02*
X14422628Y-33580956D01*
X6437876Y-21880702D02*
X6449876Y-21868702D01*
X6437877Y-23392702D02*
X6437876Y-21880702D01*
X23869008Y-16950008D02*
X24410000Y-17491000D01*
X22654008Y-16950008D02*
X23869008Y-16950008D01*
X8176000Y-11176000D02*
X16880000Y-11176000D01*
X16880000Y-11176000D02*
X22654008Y-16950008D01*
X5614000Y-6529000D02*
X5614000Y-8614000D01*
X5614000Y-8614000D02*
X8176000Y-11176000D01*
X24410000Y-17491000D02*
X24410000Y-19523000D01*
X24410000Y-19523000D02*
X25426000Y-20539000D01*
X25426000Y-20539000D02*
X29430318Y-20539000D01*
X29430318Y-20539000D02*
X29818859Y-20927541D01*
X29818859Y-20927541D02*
X29818859Y-21977541D01*
X12892772Y-32141143D02*
X14342772Y-32141143D01*
X14342772Y-32141143D02*
X15048034Y-32141143D01*
X11080600Y-30328972D02*
X12892772Y-32141143D01*
X11080600Y-28353315D02*
X11080600Y-30328972D01*
X15048034Y-32141143D02*
X15922627Y-33015737D01*
X15922627Y-33015737D02*
X15922627Y-33580956D01*
X18280800Y-26142600D02*
X17589200Y-25451000D01*
X19380800Y-26142600D02*
X18280800Y-26142600D01*
X17589200Y-25451000D02*
X13982916Y-25451000D01*
X13982916Y-25451000D02*
X12248034Y-27185882D01*
X5137511Y-26541143D02*
X4403632Y-25807264D01*
X5842772Y-26541143D02*
X5137511Y-26541143D01*
X4403632Y-25807264D02*
X4403632Y-25120423D01*
X9104944Y-28353315D02*
X7292772Y-26541143D01*
X11080600Y-28353315D02*
X9104944Y-28353315D01*
X7292772Y-26541143D02*
X5842772Y-26541143D01*
X12248034Y-27185882D02*
X11080600Y-28353315D01*
X12248034Y-27185882D02*
X9692772Y-29741144D01*
X9692772Y-29741144D02*
X5842772Y-29741144D01*
X19471000Y-26340000D02*
X19344000Y-26213000D01*
X19344000Y-26213000D02*
X19380800Y-26176200D01*
X19380800Y-26176200D02*
X19380800Y-26142600D01*
D51*
X24000000Y-81280000D02*
X24000000Y-73519000D01*
X24000000Y-73519000D02*
X29158000Y-68361000D01*
X12096000Y-164782000D02*
X29876000Y-164782000D01*
X29972000Y-159766000D02*
X28879630Y-159766000D01*
X1270000Y-153956000D02*
X12096000Y-164782000D01*
X19812000Y-93974000D02*
X19812000Y-102108000D01*
X1270000Y-120650000D02*
X1270000Y-153956000D01*
X19812000Y-102108000D02*
X1270000Y-120650000D01*
X24000000Y-89786000D02*
X19812000Y-93974000D01*
X29876000Y-164782000D02*
X31146000Y-163512000D01*
X31146000Y-160940000D02*
X29972000Y-159766000D01*
X28879630Y-159766000D02*
X27545000Y-158431370D01*
X31146000Y-163512000D02*
X31146000Y-160940000D01*
X27545000Y-158431370D02*
X27545000Y-157300000D01*
X24000000Y-81280000D02*
X24000000Y-89786000D01*
X24000000Y-89786000D02*
X28000000Y-93786000D01*
D52*
X20574000Y-141240000D02*
X20574000Y-132080000D01*
D51*
X30288000Y-108712000D02*
X31750000Y-107250000D01*
X31750000Y-107250000D02*
X31750000Y-105156000D01*
X24130000Y-108712000D02*
X30288000Y-108712000D01*
X8914500Y-123927500D02*
X24130000Y-108712000D01*
X8914500Y-143042500D02*
X8914500Y-123927500D01*
X14914500Y-154726000D02*
X14914500Y-149042500D01*
X14914500Y-149042500D02*
X8914500Y-143042500D01*
X31750000Y-105156000D02*
X28000000Y-101406000D01*
X28000000Y-101406000D02*
X28000000Y-93786000D01*
D53*
X17199000Y-154726000D02*
X14914500Y-154726000D01*
X29137000Y-155708000D02*
X29074500Y-155770500D01*
X27545000Y-157300000D02*
X29074500Y-155770500D01*
X29137000Y-154726000D02*
X29137000Y-155708000D01*
X27613000Y-157232000D02*
X27545000Y-157300000D01*
D51*
X14845000Y-154795500D02*
X14914500Y-154726000D01*
X14845000Y-157300000D02*
X14845000Y-154795500D01*
D52*
X29137000Y-154726000D02*
X29137000Y-154701000D01*
X25400000Y-152924000D02*
X25400000Y-146066000D01*
X29137000Y-154701000D02*
X28424999Y-153988999D01*
X28424999Y-153988999D02*
X26464999Y-153988999D01*
X26464999Y-153988999D02*
X25400000Y-152924000D01*
X25400000Y-146066000D02*
X20574000Y-141240000D01*
X20574000Y-132080000D02*
X22693500Y-129960500D01*
X22693500Y-129960500D02*
X22693500Y-129240500D01*
D53*
X30186500Y-49281700D02*
X31000000Y-50095200D01*
X31000000Y-50095200D02*
X31808500Y-50903700D01*
X30948500Y-51814500D02*
X31000000Y-51763000D01*
X31000000Y-51763000D02*
X31833900Y-50929100D01*
X31000000Y-50095200D02*
X31000000Y-51763000D01*
X30186500Y-48646700D02*
X30186500Y-49281700D01*
D52*
X31566500Y-41864500D02*
X32320800Y-41110200D01*
X32320800Y-41110200D02*
X32320800Y-40309800D01*
D53*
X30948500Y-58339500D02*
X30948500Y-51814500D01*
X30948500Y-62370500D02*
X30948500Y-58339500D01*
D52*
X31762000Y-58420000D02*
X31029000Y-58420000D01*
X31029000Y-58420000D02*
X30948500Y-58339500D01*
D53*
X25458500Y-58610700D02*
X25458500Y-54292700D01*
X29158000Y-64161000D02*
X30948500Y-62370500D01*
X30198500Y-47879000D02*
X30198500Y-48634700D01*
X30198500Y-48634700D02*
X30186500Y-48646700D01*
X32087900Y-50929100D02*
X31833900Y-50929100D01*
X25458500Y-42245500D02*
X25458500Y-42545700D01*
X30774000Y-41072000D02*
X26632000Y-41072000D01*
X26632000Y-41072000D02*
X25458500Y-42245500D01*
X31566500Y-43271700D02*
X31566500Y-41864500D01*
X31566500Y-41864500D02*
X30774000Y-41072000D01*
X32087900Y-50929100D02*
X33886200Y-50929100D01*
X31603900Y-43309100D02*
X33886200Y-43309100D01*
X31566500Y-43271700D02*
X31603900Y-43309100D01*
X30186500Y-44651700D02*
X30186500Y-48646700D01*
X31566500Y-43271700D02*
X30186500Y-44651700D01*
X31808500Y-50903700D02*
X31833900Y-50929100D01*
X25458500Y-58610700D02*
X25458500Y-60461500D01*
X25458500Y-60461500D02*
X29158000Y-64161000D01*
D51*
X29158000Y-64161000D02*
X29158000Y-68361000D01*
D52*
X31964500Y-31415500D02*
X37425500Y-36876500D01*
X30809500Y-31415500D02*
X31964500Y-31415500D01*
X37425500Y-36876500D02*
X37425500Y-45220500D01*
X37425500Y-45220500D02*
X36625500Y-46020500D01*
X31964500Y-34463500D02*
X35774500Y-38273500D01*
X30809500Y-34463500D02*
X31964500Y-34463500D01*
X35774500Y-38273500D02*
X35774500Y-41575500D01*
X35774500Y-41575500D02*
X36625500Y-42426500D01*
X36625500Y-42426500D02*
X36625500Y-43480500D01*
D53*
X17890000Y-46810000D02*
X18292800Y-46810000D01*
X18292800Y-46810000D02*
X21775500Y-50292700D01*
X26094900Y-50929100D02*
X25458500Y-50292700D01*
X28486200Y-50675100D02*
X28486200Y-51945100D01*
X28486200Y-52580100D02*
X28486200Y-53215100D01*
X28486200Y-50929100D02*
X28486200Y-49659100D01*
X21775500Y-50292700D02*
X25458500Y-50292700D01*
X28486200Y-50929100D02*
X26094900Y-50929100D01*
X28486200Y-51945100D02*
X28486200Y-52580100D01*
D52*
X15379243Y-9136479D02*
X15446000Y-9144000D01*
X15175709Y-8974166D02*
X15211450Y-9031047D01*
X15146000Y-8762536D02*
X15146000Y-8844000D01*
X15080549Y-8575490D02*
X15116290Y-8632371D01*
X14846000Y-8462536D02*
X14912756Y-8470058D01*
X14715834Y-8492246D02*
X14779243Y-8470058D01*
X14658953Y-8527987D02*
X14715834Y-8492246D01*
X14611450Y-8575490D02*
X14658953Y-8527987D01*
X14575709Y-8632371D02*
X14611450Y-8575490D01*
X14553521Y-8695780D02*
X14575709Y-8632371D01*
X14546000Y-8762536D02*
X14553521Y-8695780D01*
X14546000Y-9675464D02*
X14546000Y-8762536D01*
X15258953Y-9078550D02*
X15315834Y-9114291D01*
X14538478Y-9742220D02*
X14546000Y-9675464D01*
X14516290Y-9805629D02*
X14538478Y-9742220D01*
X14480549Y-9862510D02*
X14516290Y-9805629D01*
X14433046Y-9910013D02*
X14480549Y-9862510D01*
X14376165Y-9945754D02*
X14433046Y-9910013D01*
X14312756Y-9967942D02*
X14376165Y-9945754D01*
X14246000Y-9975464D02*
X14312756Y-9967942D01*
X14179243Y-9967942D02*
X14246000Y-9975464D01*
X14115834Y-9945754D02*
X14179243Y-9967942D01*
X15211450Y-9031047D02*
X15258953Y-9078550D01*
X14058953Y-9910013D02*
X14115834Y-9945754D01*
X14011450Y-9862510D02*
X14058953Y-9910013D01*
X13975709Y-9805629D02*
X14011450Y-9862510D01*
X13953521Y-9742220D02*
X13975709Y-9805629D01*
X15033046Y-8527987D02*
X15080549Y-8575490D01*
X13946000Y-9675464D02*
X13953521Y-9742220D01*
X13946000Y-8762536D02*
X13946000Y-9675464D01*
X13938478Y-8695780D02*
X13946000Y-8762536D01*
X14779243Y-8470058D02*
X14846000Y-8462536D01*
X13916290Y-8632371D02*
X13938478Y-8695780D01*
X13880549Y-8575490D02*
X13916290Y-8632371D01*
X13833046Y-8527987D02*
X13880549Y-8575490D01*
X14912756Y-8470058D02*
X14976165Y-8492246D01*
X12858953Y-9910013D02*
X12915834Y-9945754D01*
X13458953Y-8527987D02*
X13515834Y-8492246D01*
X12811450Y-9862510D02*
X12858953Y-9910013D01*
X12746000Y-9675464D02*
X12753521Y-9742220D01*
X12775709Y-9805629D02*
X12811450Y-9862510D01*
X12746000Y-9444000D02*
X12746000Y-9675464D01*
X15315834Y-9114291D02*
X15379243Y-9136479D01*
X12716290Y-9313834D02*
X12738478Y-9377243D01*
X12738478Y-9377243D02*
X12746000Y-9444000D01*
X12680549Y-9256953D02*
X12716290Y-9313834D01*
X10694000Y-8408000D02*
X11430000Y-9144000D01*
X12633046Y-9209450D02*
X12680549Y-9256953D01*
X13112756Y-9967942D02*
X13176165Y-9945754D01*
X15138478Y-8695780D02*
X15146000Y-8762536D01*
X10694000Y-6529000D02*
X10694000Y-8408000D01*
X13046000Y-9975464D02*
X13112756Y-9967942D01*
X11430000Y-9144000D02*
X12446000Y-9144000D01*
X12446000Y-9144000D02*
X12512756Y-9151521D01*
X13515834Y-8492246D02*
X13579243Y-8470058D01*
X12753521Y-9742220D02*
X12775709Y-9805629D01*
X12512756Y-9151521D02*
X12576165Y-9173709D01*
X13411450Y-8575490D02*
X13458953Y-8527987D01*
X15116290Y-8632371D02*
X15138478Y-8695780D01*
X12576165Y-9173709D02*
X12633046Y-9209450D01*
X13280549Y-9862510D02*
X13316290Y-9805629D01*
X12915834Y-9945754D02*
X12979243Y-9967942D01*
X12979243Y-9967942D02*
X13046000Y-9975464D01*
X13176165Y-9945754D02*
X13233046Y-9910013D01*
X13233046Y-9910013D02*
X13280549Y-9862510D01*
X15146000Y-8844000D02*
X15153521Y-8910757D01*
X13316290Y-9805629D02*
X13338478Y-9742220D01*
X13338478Y-9742220D02*
X13346000Y-9675464D01*
X13346000Y-9675464D02*
X13346000Y-8762536D01*
X13346000Y-8762536D02*
X13353521Y-8695780D01*
X14976165Y-8492246D02*
X15033046Y-8527987D01*
X13353521Y-8695780D02*
X13375709Y-8632371D01*
X13579243Y-8470058D02*
X13646000Y-8462536D01*
X13375709Y-8632371D02*
X13411450Y-8575490D01*
X13646000Y-8462536D02*
X13712756Y-8470058D01*
X13712756Y-8470058D02*
X13776165Y-8492246D01*
X15153521Y-8910757D02*
X15175709Y-8974166D01*
X13776165Y-8492246D02*
X13833046Y-8527987D01*
X15446000Y-9144000D02*
X16317000Y-9144000D01*
X16317000Y-9144000D02*
X23394000Y-16221000D01*
X23394000Y-16221000D02*
X24410000Y-16221000D01*
X24410000Y-16221000D02*
X25680000Y-17491000D01*
X25680000Y-17491000D02*
X31775002Y-17491000D01*
X31775002Y-17491000D02*
X32792000Y-18507998D01*
X32792000Y-18507998D02*
X32792000Y-20285000D01*
X32792000Y-20285000D02*
X33808000Y-21301000D01*
X33808000Y-21301000D02*
X33808000Y-27143000D01*
X33808000Y-27143000D02*
X32071000Y-28880000D01*
X32071000Y-28880000D02*
X26075000Y-28880000D01*
X26075000Y-28880000D02*
X25059000Y-29896000D01*
X25059000Y-29896000D02*
X18582000Y-29896000D01*
X18582000Y-29896000D02*
X16827143Y-28141143D01*
X16827143Y-28141143D02*
X14342772Y-28141143D01*
X12507000Y-7874000D02*
X11964000Y-7331000D01*
X15809000Y-7874000D02*
X12507000Y-7874000D01*
X23648000Y-15713000D02*
X15809000Y-7874000D01*
X11964000Y-5807000D02*
X11456000Y-5299000D01*
X24792411Y-15713000D02*
X23648000Y-15713000D01*
X16865143Y-28941143D02*
X18328000Y-30404000D01*
X26087412Y-17008001D02*
X24792411Y-15713000D01*
X32055001Y-17008001D02*
X26087412Y-17008001D01*
X33300000Y-20156590D02*
X33300000Y-18253000D01*
X34316000Y-21172590D02*
X33300000Y-20156590D01*
X34316000Y-27397000D02*
X34316000Y-21172590D01*
X33300000Y-18253000D02*
X32055001Y-17008001D01*
X18328000Y-30404000D02*
X25187411Y-30404000D01*
X25187411Y-30404000D02*
X26203411Y-29388000D01*
X26203411Y-29388000D02*
X32325000Y-29388000D01*
X14342772Y-28941143D02*
X16865143Y-28941143D01*
X32325000Y-29388000D02*
X34316000Y-27397000D01*
X11964000Y-7331000D02*
X11964000Y-5807000D01*
X11456000Y-5299000D02*
X9384000Y-5299000D01*
X9384000Y-5299000D02*
X8154000Y-6529000D01*
X11898500Y-37003500D02*
X12919000Y-38024000D01*
X8342500Y-37003500D02*
X11898500Y-37003500D01*
X4104000Y-35738000D02*
X4358000Y-35992000D01*
X7331000Y-35992000D02*
X8342500Y-37003500D01*
X4358000Y-35992000D02*
X7331000Y-35992000D01*
X4104000Y-35218000D02*
X4104000Y-35738000D01*
X12919000Y-38024000D02*
X16296000Y-38024000D01*
X16296000Y-38024000D02*
X17643501Y-36676499D01*
X17643501Y-36676499D02*
X26790999Y-36676499D01*
X26790999Y-36676499D02*
X27516000Y-37401500D01*
X27516000Y-37401500D02*
X27516000Y-37451500D01*
X30810000Y-40310000D02*
X28234000Y-40310000D01*
X33810000Y-41962900D02*
X33810000Y-39906000D01*
X31750000Y-39370000D02*
X30810000Y-40310000D01*
X33274000Y-39370000D02*
X31750000Y-39370000D01*
X33810000Y-39906000D02*
X33274000Y-39370000D01*
X33886200Y-42039100D02*
X33810000Y-41962900D01*
X28234000Y-40310000D02*
X27375500Y-39451500D01*
X27375500Y-39451500D02*
X26566000Y-39451500D01*
X34361200Y-44579100D02*
X34986201Y-43954099D01*
X34361200Y-42039100D02*
X33886200Y-42039100D01*
X34986201Y-42664101D02*
X34361200Y-42039100D01*
X34986201Y-43309100D02*
X34986201Y-42664101D01*
X34986201Y-43954099D02*
X34986201Y-43309100D01*
X33886200Y-44579100D02*
X34361200Y-44579100D01*
X34986201Y-41676201D02*
X35520500Y-42210500D01*
X34986201Y-40190199D02*
X34986201Y-41676201D01*
X30249000Y-39451500D02*
X30906500Y-39451500D01*
X33658002Y-38862000D02*
X34986201Y-40190199D01*
X31496000Y-38862000D02*
X33658002Y-38862000D01*
X30906500Y-39451500D02*
X31496000Y-38862000D01*
X35520500Y-42210500D02*
X35520500Y-44604802D01*
X35520500Y-44604802D02*
X34921201Y-45204101D01*
X31698500Y-45651500D02*
X31698500Y-47179000D01*
X34921201Y-45204101D02*
X32145899Y-45204101D01*
X32145899Y-45204101D02*
X31698500Y-45651500D01*
X31698500Y-47179000D02*
X31698500Y-47879000D01*
X34802900Y-52199100D02*
X35266500Y-51735500D01*
X33886200Y-52199100D02*
X34802900Y-52199100D01*
X35266500Y-51735500D02*
X35266500Y-50073898D01*
X35266500Y-50073898D02*
X34851702Y-49659100D01*
X34851702Y-49659100D02*
X33886200Y-49659100D01*
X34361200Y-49659100D02*
X33886200Y-49659100D01*
X33886200Y-49659100D02*
X33860800Y-49633700D01*
X33860800Y-49633700D02*
X32656700Y-49633700D01*
X31698500Y-48675500D02*
X31698500Y-48579000D01*
X31698500Y-48579000D02*
X31698500Y-47879000D01*
X32656700Y-49633700D02*
X31698500Y-48675500D01*
X16042000Y-37516000D02*
X17331511Y-36226489D01*
X13173000Y-37516000D02*
X16042000Y-37516000D01*
X12152500Y-36495500D02*
X13173000Y-37516000D01*
X8596500Y-36495500D02*
X12152500Y-36495500D01*
X31199000Y-37401500D02*
X31199000Y-37451500D01*
X5755000Y-35218000D02*
X7319000Y-35218000D01*
X7319000Y-35218000D02*
X8596500Y-36495500D01*
X17331511Y-36226489D02*
X30023989Y-36226489D01*
X30023989Y-36226489D02*
X31199000Y-37401500D01*
X2453000Y-36373000D02*
X6350000Y-40270000D01*
X2453000Y-23292000D02*
X2453000Y-36373000D01*
X4866000Y-20879000D02*
X2453000Y-23292000D01*
X8422000Y-20879000D02*
X4866000Y-20879000D01*
X8892772Y-25091143D02*
X8892772Y-21349772D01*
X8892772Y-21349772D02*
X8422000Y-20879000D01*
X6350000Y-40270000D02*
X6350000Y-58674000D01*
X6350000Y-58674000D02*
X14732000Y-67056000D01*
X14732000Y-67056000D02*
X14732000Y-72294000D01*
X14732000Y-72294000D02*
X15493001Y-73055001D01*
X15493001Y-73055001D02*
X15493001Y-74086001D01*
X15493001Y-74086001D02*
X14704002Y-74875000D01*
X14704002Y-74875000D02*
X12000000Y-74875000D01*
X1437000Y-36881000D02*
X5334000Y-40778000D01*
X4242022Y-19978978D02*
X1437000Y-22784000D01*
X1437000Y-22784000D02*
X1437000Y-36881000D01*
X8794800Y-19978978D02*
X4242022Y-19978978D01*
X10492772Y-25091143D02*
X10492772Y-21676950D01*
X10492772Y-21676950D02*
X8794800Y-19978978D01*
X5334000Y-40778000D02*
X5334000Y-59182000D01*
X5334000Y-59182000D02*
X13750000Y-67598000D01*
X13150000Y-71125000D02*
X12000000Y-71125000D01*
X13750000Y-67598000D02*
X13750000Y-70525000D01*
X13750000Y-70525000D02*
X13150000Y-71125000D01*
X1945000Y-36627000D02*
X5842000Y-40524000D01*
X1945000Y-23038000D02*
X1945000Y-36627000D01*
X4554011Y-20428989D02*
X1945000Y-23038000D01*
X13150000Y-72375000D02*
X12000000Y-72375000D01*
X8608400Y-20428989D02*
X4554011Y-20428989D01*
X9692772Y-25091143D02*
X9692772Y-21513361D01*
X9692772Y-21513361D02*
X8608400Y-20428989D01*
X14224000Y-71301000D02*
X13150000Y-72375000D01*
X5842000Y-40524000D02*
X5842000Y-58928000D01*
X5842000Y-58928000D02*
X14224000Y-67310000D01*
X14224000Y-67310000D02*
X14224000Y-71301000D01*
X12092772Y-22567818D02*
X12092772Y-24241143D01*
X17298000Y-17362590D02*
X12092772Y-22567818D01*
X17298000Y-13681000D02*
X17298000Y-17362590D01*
X16236500Y-12619500D02*
X17298000Y-13681000D01*
X12223500Y-12619500D02*
X16236500Y-12619500D01*
X10694000Y-14149000D02*
X12223500Y-12619500D01*
X12092772Y-24241143D02*
X12092772Y-25091143D01*
X7651500Y-12111500D02*
X16470500Y-12111500D01*
X5614000Y-14149000D02*
X7651500Y-12111500D01*
X16470500Y-12111500D02*
X17806000Y-13447000D01*
X17806000Y-13447000D02*
X17806000Y-17634000D01*
X17806000Y-17634000D02*
X12892772Y-22547228D01*
X12892772Y-22547228D02*
X12892772Y-25091143D01*
X15280000Y-35992000D02*
X19344000Y-31928000D01*
X13930500Y-35992000D02*
X15280000Y-35992000D01*
X12910000Y-34971500D02*
X13930500Y-35992000D01*
X9358500Y-34971500D02*
X12910000Y-34971500D01*
X8892772Y-33591143D02*
X8892772Y-34505772D01*
X8892772Y-34505772D02*
X9358500Y-34971500D01*
X19344000Y-31928000D02*
X28254000Y-31928000D01*
X28254000Y-31928000D02*
X28766500Y-31415500D01*
X28766500Y-31415500D02*
X29309500Y-31415500D01*
X15788000Y-37008000D02*
X19852000Y-32944000D01*
X27218000Y-32944000D02*
X28737500Y-34463500D01*
X13427000Y-37008000D02*
X15788000Y-37008000D01*
X7292772Y-34429772D02*
X8861871Y-35998871D01*
X12417871Y-35998871D02*
X13427000Y-37008000D01*
X8861871Y-35998871D02*
X12417871Y-35998871D01*
X7292772Y-33591143D02*
X7292772Y-34429772D01*
X19852000Y-32944000D02*
X27218000Y-32944000D01*
X28737500Y-34463500D02*
X28809500Y-34463500D01*
X28809500Y-34463500D02*
X29309500Y-34463500D01*
X15534000Y-36500000D02*
X19598000Y-32436000D01*
X13676500Y-36500000D02*
X15534000Y-36500000D01*
X12719781Y-35543281D02*
X13676500Y-36500000D01*
X8092772Y-34467772D02*
X9168281Y-35543281D01*
X9168281Y-35543281D02*
X12719781Y-35543281D01*
X8092772Y-33591143D02*
X8092772Y-34467772D01*
X19598000Y-32436000D02*
X28254000Y-32436000D01*
X28254000Y-32436000D02*
X28762000Y-32944000D01*
X28762000Y-32944000D02*
X28766500Y-32939500D01*
X28766500Y-32939500D02*
X29309500Y-32939500D01*
D12*
X23240300Y-42545700D02*
X23582500Y-42203500D01*
X21775500Y-42545700D02*
X23240300Y-42545700D01*
X23582500Y-42203500D02*
X23582500Y-39797500D01*
X23582500Y-39797500D02*
X24090500Y-39289500D01*
X24090500Y-39289500D02*
X24852500Y-39289500D01*
X24852500Y-39289500D02*
X25614500Y-38527500D01*
X34658000Y-61996000D02*
X35774500Y-60879500D01*
X34658000Y-64161000D02*
X34658000Y-61996000D01*
X35774500Y-60879500D02*
X37044500Y-60879500D01*
X37044500Y-60879500D02*
X37806500Y-60117500D01*
X37806500Y-60117500D02*
X37806500Y-57831500D01*
D52*
X37806500Y-57831500D02*
X37806500Y-53259500D01*
X37806500Y-53259500D02*
X36790500Y-52243500D01*
D12*
X35520500Y-47925500D02*
X36790500Y-49195500D01*
X36790500Y-49195500D02*
X36790500Y-52243500D01*
X25614500Y-38527500D02*
X25616000Y-38526000D01*
X28916500Y-38527500D02*
X25614500Y-38527500D01*
X28986000Y-38458000D02*
X29299000Y-38145000D01*
X29299000Y-37501500D02*
X29299000Y-38145000D01*
X28986000Y-38458000D02*
X28916500Y-38527500D01*
X25616000Y-38526000D02*
X25616000Y-37451500D01*
D52*
X32472500Y-46909500D02*
X32472500Y-46147500D01*
X32472500Y-46147500D02*
X32770900Y-45849100D01*
X33488500Y-47925500D02*
X32472500Y-46909500D01*
X35222100Y-45849100D02*
X35520500Y-46147500D01*
X35520500Y-47925500D02*
X33488500Y-47925500D01*
X35520500Y-46147500D02*
X35520500Y-47925500D01*
X33886200Y-45849100D02*
X35222100Y-45849100D01*
X32770900Y-45849100D02*
X33886200Y-45849100D01*
D53*
X26362000Y-154714000D02*
X27547000Y-154714000D01*
X25005000Y-157300000D02*
X25005000Y-156071000D01*
X25005000Y-156071000D02*
X26362000Y-154714000D01*
X26275000Y-161010000D02*
X25005000Y-159740000D01*
X26275000Y-162380000D02*
X26275000Y-161010000D01*
X25005000Y-159740000D02*
X25005000Y-157300000D01*
X27547000Y-150178000D02*
X27559000Y-150166000D01*
X27559000Y-148388000D02*
X27547000Y-148376000D01*
X27547000Y-153214000D02*
X27547000Y-150178000D01*
X27559000Y-150166000D02*
X27559000Y-148388000D01*
D51*
X33700000Y-157300000D02*
X35210000Y-155790000D01*
X30085000Y-157300000D02*
X33700000Y-157300000D01*
X35210000Y-155790000D02*
X35210000Y-147210000D01*
X35210000Y-147210000D02*
X31180000Y-143180000D01*
X31180000Y-143180000D02*
X29210000Y-143180000D01*
X6305000Y-151300000D02*
X6305000Y-122981000D01*
X12305000Y-157300000D02*
X6305000Y-151300000D01*
X6305000Y-122981000D02*
X23106000Y-106180000D01*
X23106000Y-106180000D02*
X29210000Y-106180000D01*
X3770500Y-152575500D02*
X3770500Y-121959500D01*
X13575000Y-162380000D02*
X3770500Y-152575500D01*
X3770500Y-121959500D02*
X24770000Y-100960000D01*
X24770000Y-100960000D02*
X24770000Y-96650000D01*
D12*
X23735000Y-162380000D02*
X23735000Y-154598500D01*
X23735000Y-154598500D02*
X23232500Y-154096000D01*
X23909500Y-151366500D02*
X24638000Y-150638000D01*
X22470500Y-151366500D02*
X23909500Y-151366500D01*
X21665001Y-152171999D02*
X22470500Y-151366500D01*
X21665001Y-155665001D02*
X21665001Y-152171999D01*
X22465000Y-156465000D02*
X21665001Y-155665001D01*
X22465000Y-157300000D02*
X22465000Y-156465000D01*
X24638000Y-150638000D02*
X24638000Y-146320000D01*
X24638000Y-146320000D02*
X19940500Y-141622500D01*
X19940500Y-141622500D02*
X19940500Y-126966500D01*
X22312500Y-126966500D02*
X22693500Y-127347500D01*
X22693500Y-127347500D02*
X22693500Y-127740500D01*
X19940500Y-126966500D02*
X22312500Y-126966500D01*
D53*
X18914500Y-155684500D02*
X18914500Y-154726000D01*
X17385000Y-157214000D02*
X18914500Y-155684500D01*
X17385000Y-157300000D02*
X17385000Y-157214000D01*
X16115000Y-161010000D02*
X17385000Y-159740000D01*
X16115000Y-162380000D02*
X16115000Y-161010000D01*
X17385000Y-159740000D02*
X17385000Y-157300000D01*
X18899000Y-148388000D02*
X18911000Y-148376000D01*
X18899000Y-150166000D02*
X18899000Y-148388000D01*
X18911000Y-150178000D02*
X18899000Y-150166000D01*
X18899000Y-153210500D02*
X18914500Y-153226000D01*
X18899000Y-150166000D02*
X18899000Y-153210500D01*
D52*
X30809500Y-32939500D02*
X32053502Y-32939500D01*
X36625500Y-38108500D02*
X36625500Y-37511498D01*
X36625500Y-37511498D02*
X32053502Y-32939500D01*
X36625500Y-40940500D02*
X36625500Y-38108500D01*
X8088500Y-37511500D02*
X7072500Y-36495500D01*
X11644500Y-37511500D02*
X8088500Y-37511500D01*
X15454500Y-38527500D02*
X12660500Y-38527500D01*
X2961000Y-30023000D02*
X3596000Y-29388000D01*
X12660500Y-38527500D02*
X11644500Y-37511500D01*
X17890000Y-39190000D02*
X16117000Y-39190000D01*
X16117000Y-39190000D02*
X15454500Y-38527500D01*
X7072500Y-36495500D02*
X3723000Y-36495500D01*
X3723000Y-36495500D02*
X2961000Y-35733500D01*
X2961000Y-35733500D02*
X2961000Y-30023000D01*
X3596000Y-29388000D02*
X3596000Y-28691000D01*
D53*
X17890000Y-43000000D02*
X18229800Y-43000000D01*
X18229800Y-43000000D02*
X21775500Y-46545700D01*
X28486200Y-45849100D02*
X28486200Y-44579100D01*
X25458500Y-46545700D02*
X25476300Y-46545700D01*
X28486200Y-43309100D02*
X28486200Y-42039100D01*
X21775500Y-46545700D02*
X25458500Y-46545700D01*
X28486200Y-45849100D02*
X26155100Y-45849100D01*
X26155100Y-45849100D02*
X25458500Y-46545700D01*
X28486200Y-44579100D02*
X28486200Y-43309100D01*
D52*
X24495660Y-29388000D02*
X18836000Y-29388000D01*
X24940330Y-28943330D02*
X24495660Y-29388000D01*
X18836000Y-29388000D02*
X16789143Y-27341143D01*
X16789143Y-27341143D02*
X15192772Y-27341143D01*
X15192772Y-27341143D02*
X14342772Y-27341143D01*
X31776000Y-20031000D02*
X31776000Y-19777000D01*
X33300000Y-21555000D02*
X31776000Y-20031000D01*
X33300000Y-26889000D02*
X33300000Y-21555000D01*
X25511660Y-28372000D02*
X31817000Y-28372000D01*
X31817000Y-28372000D02*
X33300000Y-26889000D01*
X24940330Y-28943330D02*
X25511660Y-28372000D01*
X31776000Y-19777000D02*
X30760000Y-18761000D01*
X15192772Y-29741143D02*
X14342772Y-29741143D01*
X16903143Y-29741143D02*
X15192772Y-29741143D01*
X18074000Y-30912000D02*
X16903143Y-29741143D01*
X25567000Y-30912000D02*
X18074000Y-30912000D01*
X36116900Y-20516100D02*
X34824000Y-21809000D01*
X26583000Y-29896000D02*
X25567000Y-30912000D01*
X36116900Y-19884300D02*
X36116900Y-20516100D01*
X34824000Y-21809000D02*
X34824000Y-27651000D01*
X34824000Y-27651000D02*
X32579000Y-29896000D01*
X32579000Y-29896000D02*
X26583000Y-29896000D01*
X31563000Y-27864000D02*
X24932000Y-27864000D01*
X32792000Y-26635000D02*
X31563000Y-27864000D01*
X32792000Y-21809000D02*
X32792000Y-26635000D01*
X31014000Y-20031000D02*
X32792000Y-21809000D01*
X25680000Y-18761000D02*
X26950000Y-20031000D01*
X26950000Y-20031000D02*
X31014000Y-20031000D01*
X24932000Y-27864000D02*
X23916000Y-28880000D01*
X23916000Y-28880000D02*
X19091410Y-28880000D01*
X19091410Y-28880000D02*
X16752553Y-26541143D01*
X16752553Y-26541143D02*
X15192772Y-26541143D01*
X15192772Y-26541143D02*
X14342772Y-26541143D01*
X8092772Y-24241143D02*
X8086317Y-24241143D01*
X8086317Y-24241143D02*
X7937876Y-24092702D01*
X7937876Y-24092702D02*
X7937876Y-23392702D01*
X8041000Y-24189371D02*
X8092772Y-24241143D01*
X8092772Y-25091143D02*
X8092772Y-24241143D01*
X7949876Y-21868702D02*
X7937876Y-21880702D01*
X7937876Y-21880702D02*
X7937876Y-23392702D01*
D12*
X19380800Y-21742600D02*
X18237800Y-21742600D01*
D53*
X31748859Y-23757541D02*
X31748859Y-25547541D01*
D12*
X18237800Y-21742600D02*
X17348800Y-20853600D01*
D53*
X30718859Y-26577541D02*
X31748859Y-25547541D01*
X30718859Y-26577541D02*
X29818859Y-26577541D01*
D12*
X14454207Y-33612535D02*
X14454207Y-34838191D01*
X14422628Y-33580956D02*
X14454207Y-33612535D01*
D52*
X5842772Y-27341143D02*
X3646143Y-27341143D01*
X3646143Y-27341143D02*
X3596000Y-27291000D01*
X4104000Y-31429915D02*
X4104000Y-33718000D01*
X5842772Y-30541143D02*
X4992772Y-30541143D01*
X4992772Y-30541143D02*
X4104000Y-31429915D01*
X4612000Y-31801000D02*
X4612000Y-32775000D01*
X4612000Y-32775000D02*
X5555000Y-33718000D01*
X5555000Y-33718000D02*
X5755000Y-33718000D01*
X5071857Y-31341143D02*
X4612000Y-31801000D01*
X5842772Y-31341143D02*
X5071857Y-31341143D01*
X36856000Y-26381000D02*
X32833000Y-30404000D01*
X17820000Y-31420000D02*
X16941143Y-30541143D01*
X32833000Y-30404000D02*
X26837000Y-30404000D01*
X26837000Y-30404000D02*
X25821000Y-31420000D01*
X25821000Y-31420000D02*
X17820000Y-31420000D01*
X16941143Y-30541143D02*
X14342772Y-30541143D01*
X36856000Y-23951000D02*
X36856000Y-26381000D01*
D12*
X30098859Y-22257541D02*
X31748859Y-22257541D01*
X29818859Y-21977541D02*
X30098859Y-22257541D01*
X31748859Y-22257541D02*
X31748859Y-22282541D01*
X23632183Y-27635183D02*
X23140000Y-27143000D01*
X23879670Y-27882670D02*
X23632183Y-27635183D01*
X23518859Y-24277541D02*
X24818859Y-24277541D01*
X24818859Y-24277541D02*
X29818859Y-24277541D01*
X23518859Y-20409859D02*
X23140000Y-20031000D01*
X23140000Y-20031000D02*
X23140000Y-18761000D01*
X23518859Y-24277541D02*
X23518859Y-20409859D01*
X23518859Y-24277541D02*
X20545859Y-24277541D01*
X20545859Y-24277541D02*
X19380800Y-25442600D01*
X19380800Y-25442600D02*
X19380800Y-26142600D01*
X23140000Y-27143000D02*
X23518859Y-26764141D01*
X23518859Y-26764141D02*
X23518859Y-24277541D01*
D52*
X17526000Y-5741000D02*
X17526000Y-8201002D01*
X15774000Y-3989000D02*
X17526000Y-5741000D01*
X17526000Y-8201002D02*
X24318498Y-14993500D01*
X24318498Y-14993500D02*
X28043500Y-14993500D01*
X12432000Y-2251000D02*
X23746002Y-2251000D01*
X10694000Y-3989000D02*
X12432000Y-2251000D01*
X23746002Y-2251000D02*
X26138500Y-4643498D01*
X26138500Y-4643498D02*
X26138500Y-6899500D01*
X26138500Y-6899500D02*
X25614500Y-7423500D01*
X25614500Y-7423500D02*
X23833500Y-7423500D01*
X13234000Y-3989000D02*
X14464000Y-2759000D01*
X14464000Y-2759000D02*
X22419000Y-2759000D01*
X22419000Y-2759000D02*
X23833500Y-4173500D01*
X23833500Y-4173500D02*
X23833500Y-4923500D01*
X10400000Y-1743000D02*
X24030000Y-1743000D01*
X8154000Y-3989000D02*
X10400000Y-1743000D01*
X24030000Y-1743000D02*
X26646500Y-4359500D01*
X26646500Y-4359500D02*
X26646500Y-8423500D01*
X26646500Y-8423500D02*
X25646500Y-9423500D01*
X25646500Y-9423500D02*
X23833500Y-9423500D01*
X30654500Y-11923500D02*
X34216900Y-15485900D01*
X34216900Y-15485900D02*
X34216900Y-17564300D01*
X23833500Y-11923500D02*
X30654500Y-11923500D01*
X5614000Y-3013000D02*
X7392000Y-1235000D01*
X5614000Y-3989000D02*
X5614000Y-3013000D01*
X7392000Y-1235000D02*
X24284000Y-1235000D01*
X24284000Y-1235000D02*
X36116900Y-13067900D01*
X36116900Y-13067900D02*
X36116900Y-17564300D01*
X37872000Y-18011000D02*
X36563600Y-18011000D01*
X36563600Y-18011000D02*
X36116900Y-17564300D01*
X37872000Y-19511000D02*
X36490200Y-19511000D01*
X36490200Y-19511000D02*
X36116900Y-19884300D01*
X35166900Y-18724300D02*
X35166900Y-19884300D01*
X35166900Y-18724300D02*
X35166900Y-17564300D01*
X34216900Y-18536300D02*
X34216900Y-17564300D01*
X34404900Y-18724300D02*
X34216900Y-18536300D01*
X34216900Y-18912300D02*
X34216900Y-19884300D01*
X34404900Y-18724300D02*
X34216900Y-18912300D01*
X35166900Y-18724300D02*
X34404900Y-18724300D01*
D53*
X20372500Y-117549500D02*
X12911000Y-125011000D01*
X30658500Y-117549500D02*
X20372500Y-117549500D01*
X12911000Y-125011000D02*
X12911000Y-140165000D01*
X12911000Y-140165000D02*
X18911000Y-146165000D01*
X18911000Y-146165000D02*
X18911000Y-146876000D01*
X36917500Y-110410500D02*
X36917500Y-98837500D01*
X36917500Y-98837500D02*
X35000000Y-96920000D01*
X30658500Y-116669500D02*
X36917500Y-110410500D01*
X30658500Y-117549500D02*
X30658500Y-116669500D01*
X27547000Y-146419000D02*
X25908000Y-144780000D01*
X27547000Y-146876000D02*
X27547000Y-146419000D01*
X25908000Y-144780000D02*
X25908000Y-138556000D01*
X25908000Y-138556000D02*
X30658500Y-133805500D01*
X38060500Y-110918500D02*
X38060500Y-97851370D01*
X32980500Y-115998500D02*
X38060500Y-110918500D01*
X32980500Y-119935500D02*
X32980500Y-115998500D01*
X33996500Y-120951500D02*
X32980500Y-119935500D01*
X30658500Y-133805500D02*
X33996500Y-130467500D01*
X33996500Y-130467500D02*
X33996500Y-120951500D01*
X38060500Y-97851370D02*
X37000000Y-96790870D01*
X37000000Y-96790870D02*
X37000000Y-93840000D01*
X37000000Y-93840000D02*
X35863599Y-92703599D01*
X35863599Y-92703599D02*
X35000000Y-91840000D01*
D52*
X34760000Y-58461500D02*
X33303500Y-58461500D01*
X33303500Y-58461500D02*
X33262000Y-58420000D01*
D54*
G36*
X24816253Y-21039411D02*
X24860047Y-21104953D01*
X24925589Y-21148747D01*
X24925591Y-21148749D01*
X25052927Y-21233832D01*
X25119708Y-21278454D01*
X25348684Y-21324000D01*
X25348688Y-21324000D01*
X25426000Y-21339378D01*
X25503312Y-21324000D01*
X28171419Y-21324000D01*
X28171419Y-22727541D01*
X28220702Y-22975306D01*
X28321786Y-23126588D01*
X28280532Y-23167842D01*
X28183859Y-23401231D01*
X28183859Y-23991791D01*
X28342609Y-24150541D01*
X29691859Y-24150541D01*
X29691859Y-24130541D01*
X29945859Y-24130541D01*
X29945859Y-24150541D01*
X29965859Y-24150541D01*
X29965859Y-24404541D01*
X29945859Y-24404541D01*
X29945859Y-24424541D01*
X29691859Y-24424541D01*
X29691859Y-24404541D01*
X28342609Y-24404541D01*
X28183859Y-24563291D01*
X28183859Y-25153851D01*
X28280532Y-25387240D01*
X28321786Y-25428494D01*
X28220702Y-25579776D01*
X28171419Y-25827541D01*
X28171419Y-27104000D01*
X25006847Y-27104000D01*
X24932000Y-27089112D01*
X24857153Y-27104000D01*
X24857148Y-27104000D01*
X24635463Y-27148096D01*
X24384071Y-27316071D01*
X24341671Y-27379527D01*
X23755154Y-27966044D01*
X23687337Y-27898227D01*
X23701479Y-27884084D01*
X23276331Y-27458936D01*
X23051825Y-27458936D01*
X22846368Y-27664393D01*
X22749695Y-27897782D01*
X22749696Y-28032000D01*
X21997000Y-28032000D01*
X21997000Y-27054825D01*
X23455936Y-27054825D01*
X23455936Y-27279331D01*
X23881084Y-27704479D01*
X24446239Y-27139324D01*
X24446239Y-26914818D01*
X24380790Y-26849368D01*
X24291881Y-26812541D01*
X24645168Y-26812541D01*
X24878557Y-26715868D01*
X25057186Y-26537240D01*
X25153859Y-26303851D01*
X25153859Y-24563291D01*
X24995109Y-24404541D01*
X23645859Y-24404541D01*
X23645859Y-26653791D01*
X23788703Y-26796635D01*
X23661393Y-26849368D01*
X23455936Y-27054825D01*
X21997000Y-27054825D01*
X21997000Y-26553708D01*
X22159161Y-26715868D01*
X22392550Y-26812541D01*
X23233109Y-26812541D01*
X23391859Y-26653791D01*
X23391859Y-24404541D01*
X23371859Y-24404541D01*
X23371859Y-24150541D01*
X23391859Y-24150541D01*
X23391859Y-21901291D01*
X23645859Y-21901291D01*
X23645859Y-24150541D01*
X24995109Y-24150541D01*
X25153859Y-23991791D01*
X25153859Y-22251231D01*
X25057186Y-22017842D01*
X24878557Y-21839214D01*
X24645168Y-21742541D01*
X23804609Y-21742541D01*
X23645859Y-21901291D01*
X23391859Y-21901291D01*
X23233109Y-21742541D01*
X22392550Y-21742541D01*
X22159161Y-21839214D01*
X21997000Y-22001374D01*
X21997000Y-20412000D01*
X24188843Y-20412000D01*
X24816253Y-21039411D01*
X24816253Y-21039411D01*
G37*
X24816253Y-21039411D02*
X24860047Y-21104953D01*
X24925589Y-21148747D01*
X24925591Y-21148749D01*
X25052927Y-21233832D01*
X25119708Y-21278454D01*
X25348684Y-21324000D01*
X25348688Y-21324000D01*
X25426000Y-21339378D01*
X25503312Y-21324000D01*
X28171419Y-21324000D01*
X28171419Y-22727541D01*
X28220702Y-22975306D01*
X28321786Y-23126588D01*
X28280532Y-23167842D01*
X28183859Y-23401231D01*
X28183859Y-23991791D01*
X28342609Y-24150541D01*
X29691859Y-24150541D01*
X29691859Y-24130541D01*
X29945859Y-24130541D01*
X29945859Y-24150541D01*
X29965859Y-24150541D01*
X29965859Y-24404541D01*
X29945859Y-24404541D01*
X29945859Y-24424541D01*
X29691859Y-24424541D01*
X29691859Y-24404541D01*
X28342609Y-24404541D01*
X28183859Y-24563291D01*
X28183859Y-25153851D01*
X28280532Y-25387240D01*
X28321786Y-25428494D01*
X28220702Y-25579776D01*
X28171419Y-25827541D01*
X28171419Y-27104000D01*
X25006847Y-27104000D01*
X24932000Y-27089112D01*
X24857153Y-27104000D01*
X24857148Y-27104000D01*
X24635463Y-27148096D01*
X24384071Y-27316071D01*
X24341671Y-27379527D01*
X23755154Y-27966044D01*
X23687337Y-27898227D01*
X23701479Y-27884084D01*
X23276331Y-27458936D01*
X23051825Y-27458936D01*
X22846368Y-27664393D01*
X22749695Y-27897782D01*
X22749696Y-28032000D01*
X21997000Y-28032000D01*
X21997000Y-27054825D01*
X23455936Y-27054825D01*
X23455936Y-27279331D01*
X23881084Y-27704479D01*
X24446239Y-27139324D01*
X24446239Y-26914818D01*
X24380790Y-26849368D01*
X24291881Y-26812541D01*
X24645168Y-26812541D01*
X24878557Y-26715868D01*
X25057186Y-26537240D01*
X25153859Y-26303851D01*
X25153859Y-24563291D01*
X24995109Y-24404541D01*
X23645859Y-24404541D01*
X23645859Y-26653791D01*
X23788703Y-26796635D01*
X23661393Y-26849368D01*
X23455936Y-27054825D01*
X21997000Y-27054825D01*
X21997000Y-26553708D01*
X22159161Y-26715868D01*
X22392550Y-26812541D01*
X23233109Y-26812541D01*
X23391859Y-26653791D01*
X23391859Y-24404541D01*
X23371859Y-24404541D01*
X23371859Y-24150541D01*
X23391859Y-24150541D01*
X23391859Y-21901291D01*
X23645859Y-21901291D01*
X23645859Y-24150541D01*
X24995109Y-24150541D01*
X25153859Y-23991791D01*
X25153859Y-22251231D01*
X25057186Y-22017842D01*
X24878557Y-21839214D01*
X24645168Y-21742541D01*
X23804609Y-21742541D01*
X23645859Y-21901291D01*
X23391859Y-21901291D01*
X23233109Y-21742541D01*
X22392550Y-21742541D01*
X22159161Y-21839214D01*
X21997000Y-22001374D01*
X21997000Y-20412000D01*
X24188843Y-20412000D01*
X24816253Y-21039411D01*
G36*
X38265000Y-116704377D02*
X38004243Y-116074853D01*
X37633522Y-115854084D01*
X35938105Y-117549500D01*
X37633522Y-119244916D01*
X38004243Y-119024147D01*
X38265000Y-118380063D01*
X38265000Y-132960377D01*
X38004243Y-132330853D01*
X37633522Y-132110084D01*
X35938105Y-133805500D01*
X37633522Y-135500916D01*
X38004243Y-135280147D01*
X38265000Y-134636063D01*
X38265000Y-166265000D01*
X30288604Y-166265000D01*
X30474927Y-166227938D01*
X30982673Y-165888673D01*
X31068312Y-165760505D01*
X32124508Y-164704310D01*
X32252673Y-164618673D01*
X32591938Y-164110927D01*
X32681000Y-163663182D01*
X32681000Y-163663178D01*
X32711071Y-163512001D01*
X32681000Y-163360824D01*
X32681000Y-161091182D01*
X32711072Y-160940000D01*
X32591938Y-160341072D01*
X32403196Y-160058601D01*
X32252673Y-159833327D01*
X32124505Y-159747688D01*
X31211817Y-158835000D01*
X33548823Y-158835000D01*
X33700000Y-158865071D01*
X33851177Y-158835000D01*
X33851182Y-158835000D01*
X34298927Y-158745938D01*
X34806673Y-158406673D01*
X34892312Y-158278505D01*
X36188508Y-156982310D01*
X36316673Y-156896673D01*
X36655938Y-156388927D01*
X36745000Y-155941182D01*
X36745000Y-155941178D01*
X36775071Y-155790001D01*
X36745000Y-155638824D01*
X36745000Y-147361182D01*
X36775072Y-147210000D01*
X36655938Y-146611073D01*
X36316673Y-146103327D01*
X36188505Y-146017688D01*
X32372312Y-142201495D01*
X32286673Y-142073327D01*
X31778927Y-141734062D01*
X31331182Y-141645000D01*
X31331177Y-141645000D01*
X31180000Y-141614929D01*
X31028823Y-141645000D01*
X30037956Y-141645000D01*
X29555113Y-141445000D01*
X28864887Y-141445000D01*
X28227201Y-141709138D01*
X27739138Y-142197201D01*
X27475000Y-142834887D01*
X27475000Y-143525113D01*
X27739138Y-144162799D01*
X28227201Y-144650862D01*
X28864887Y-144915000D01*
X29555113Y-144915000D01*
X30037956Y-144715000D01*
X30544183Y-144715000D01*
X33675001Y-147845818D01*
X33675000Y-155154182D01*
X33064183Y-155765000D01*
X30155448Y-155765000D01*
X30166786Y-155708001D01*
X30147000Y-155608530D01*
X30147000Y-155188541D01*
X30159440Y-155126000D01*
X30159440Y-154326000D01*
X30110157Y-154078235D01*
X30049127Y-153986898D01*
X30050327Y-153985698D01*
X30147000Y-153752309D01*
X30147000Y-153511750D01*
X29988250Y-153353000D01*
X29264000Y-153353000D01*
X29264000Y-153373000D01*
X29010000Y-153373000D01*
X29010000Y-153353000D01*
X28990000Y-153353000D01*
X28990000Y-153099000D01*
X29010000Y-153099000D01*
X29010000Y-152349750D01*
X29264000Y-152349750D01*
X29264000Y-153099000D01*
X29988250Y-153099000D01*
X30147000Y-152940250D01*
X30147000Y-152699691D01*
X30050327Y-152466302D01*
X29871699Y-152287673D01*
X29638310Y-152191000D01*
X29422750Y-152191000D01*
X29264000Y-152349750D01*
X29010000Y-152349750D01*
X28851250Y-152191000D01*
X28635690Y-152191000D01*
X28557000Y-152223595D01*
X28557000Y-151198937D01*
X28682691Y-151251000D01*
X28775250Y-151251000D01*
X28934000Y-151092250D01*
X28934000Y-150293000D01*
X29184000Y-150293000D01*
X29184000Y-151092250D01*
X29342750Y-151251000D01*
X29435309Y-151251000D01*
X29668698Y-151154327D01*
X29847327Y-150975699D01*
X29944000Y-150742310D01*
X29944000Y-150451750D01*
X29785250Y-150293000D01*
X29184000Y-150293000D01*
X28934000Y-150293000D01*
X28912000Y-150293000D01*
X28912000Y-150039000D01*
X28934000Y-150039000D01*
X28934000Y-149239750D01*
X29184000Y-149239750D01*
X29184000Y-150039000D01*
X29785250Y-150039000D01*
X29944000Y-149880250D01*
X29944000Y-149589690D01*
X29847327Y-149356301D01*
X29668698Y-149177673D01*
X29435309Y-149081000D01*
X29342750Y-149081000D01*
X29184000Y-149239750D01*
X28934000Y-149239750D01*
X28775250Y-149081000D01*
X28682691Y-149081000D01*
X28569000Y-149128092D01*
X28569000Y-148912911D01*
X28595157Y-148873765D01*
X28644440Y-148626000D01*
X28644440Y-148126000D01*
X28595157Y-147878235D01*
X28454809Y-147668191D01*
X28391666Y-147626000D01*
X28454809Y-147583809D01*
X28595157Y-147373765D01*
X28644440Y-147126000D01*
X28644440Y-146626000D01*
X28595157Y-146378235D01*
X28557453Y-146321808D01*
X28557000Y-146319528D01*
X28557000Y-146319525D01*
X28498399Y-146024919D01*
X28275169Y-145690831D01*
X28190837Y-145634482D01*
X26918000Y-144361645D01*
X26918000Y-140780522D01*
X28963084Y-140780522D01*
X29183853Y-141151243D01*
X30155512Y-141544619D01*
X31203747Y-141536213D01*
X32133147Y-141151243D01*
X32353916Y-140780522D01*
X30658500Y-139085105D01*
X28963084Y-140780522D01*
X26918000Y-140780522D01*
X26918000Y-138974355D01*
X28379598Y-137512757D01*
X28019381Y-138402512D01*
X28027787Y-139450747D01*
X28412757Y-140380147D01*
X28783478Y-140600916D01*
X30478895Y-138905500D01*
X30838105Y-138905500D01*
X32533522Y-140600916D01*
X32904243Y-140380147D01*
X33297619Y-139408488D01*
X33289213Y-138360253D01*
X32904243Y-137430853D01*
X32533522Y-137210084D01*
X30838105Y-138905500D01*
X30478895Y-138905500D01*
X30464752Y-138891358D01*
X30644358Y-138711752D01*
X30658500Y-138725895D01*
X32353916Y-137030478D01*
X32133147Y-136659757D01*
X31161488Y-136266381D01*
X30113253Y-136274787D01*
X29267067Y-136625289D01*
X30034442Y-135857914D01*
X30233822Y-135940500D01*
X31083178Y-135940500D01*
X31710820Y-135680522D01*
X34063084Y-135680522D01*
X34283853Y-136051243D01*
X35255512Y-136444619D01*
X36303747Y-136436213D01*
X37233147Y-136051243D01*
X37453916Y-135680522D01*
X35758500Y-133985105D01*
X34063084Y-135680522D01*
X31710820Y-135680522D01*
X31867880Y-135615466D01*
X32468466Y-135014880D01*
X32793500Y-134230178D01*
X32793500Y-133380822D01*
X32710914Y-133181441D01*
X33479598Y-132412758D01*
X33119381Y-133302512D01*
X33127787Y-134350747D01*
X33512757Y-135280147D01*
X33883478Y-135500916D01*
X35578895Y-133805500D01*
X35564752Y-133791358D01*
X35744358Y-133611752D01*
X35758500Y-133625895D01*
X37453916Y-131930478D01*
X37233147Y-131559757D01*
X36261488Y-131166381D01*
X35213253Y-131174787D01*
X34367067Y-131525288D01*
X34640341Y-131252015D01*
X34724669Y-131195669D01*
X34781016Y-131111340D01*
X34781018Y-131111338D01*
X34947898Y-130861583D01*
X34947899Y-130861582D01*
X35006500Y-130566976D01*
X35006500Y-130566971D01*
X35026286Y-130467500D01*
X35006500Y-130368029D01*
X35006500Y-121050971D01*
X35026286Y-120951500D01*
X35006500Y-120852029D01*
X35006500Y-120852024D01*
X34947899Y-120557418D01*
X34845226Y-120403757D01*
X34781018Y-120307662D01*
X34781016Y-120307660D01*
X34724669Y-120223331D01*
X34640340Y-120166984D01*
X33990500Y-119517145D01*
X33990500Y-119497108D01*
X34063085Y-119424523D01*
X34283853Y-119795243D01*
X35255512Y-120188619D01*
X36303747Y-120180213D01*
X37233147Y-119795243D01*
X37453916Y-119424522D01*
X35758500Y-117729105D01*
X35744358Y-117743248D01*
X35564752Y-117563642D01*
X35578895Y-117549500D01*
X35564753Y-117535358D01*
X35744358Y-117355753D01*
X35758500Y-117369895D01*
X37453916Y-115674478D01*
X37233147Y-115303757D01*
X36261488Y-114910381D01*
X35490794Y-114916561D01*
X38265000Y-112142356D01*
X38265000Y-116704377D01*
X38265000Y-116704377D01*
G37*
X38265000Y-116704377D02*
X38004243Y-116074853D01*
X37633522Y-115854084D01*
X35938105Y-117549500D01*
X37633522Y-119244916D01*
X38004243Y-119024147D01*
X38265000Y-118380063D01*
X38265000Y-132960377D01*
X38004243Y-132330853D01*
X37633522Y-132110084D01*
X35938105Y-133805500D01*
X37633522Y-135500916D01*
X38004243Y-135280147D01*
X38265000Y-134636063D01*
X38265000Y-166265000D01*
X30288604Y-166265000D01*
X30474927Y-166227938D01*
X30982673Y-165888673D01*
X31068312Y-165760505D01*
X32124508Y-164704310D01*
X32252673Y-164618673D01*
X32591938Y-164110927D01*
X32681000Y-163663182D01*
X32681000Y-163663178D01*
X32711071Y-163512001D01*
X32681000Y-163360824D01*
X32681000Y-161091182D01*
X32711072Y-160940000D01*
X32591938Y-160341072D01*
X32403196Y-160058601D01*
X32252673Y-159833327D01*
X32124505Y-159747688D01*
X31211817Y-158835000D01*
X33548823Y-158835000D01*
X33700000Y-158865071D01*
X33851177Y-158835000D01*
X33851182Y-158835000D01*
X34298927Y-158745938D01*
X34806673Y-158406673D01*
X34892312Y-158278505D01*
X36188508Y-156982310D01*
X36316673Y-156896673D01*
X36655938Y-156388927D01*
X36745000Y-155941182D01*
X36745000Y-155941178D01*
X36775071Y-155790001D01*
X36745000Y-155638824D01*
X36745000Y-147361182D01*
X36775072Y-147210000D01*
X36655938Y-146611073D01*
X36316673Y-146103327D01*
X36188505Y-146017688D01*
X32372312Y-142201495D01*
X32286673Y-142073327D01*
X31778927Y-141734062D01*
X31331182Y-141645000D01*
X31331177Y-141645000D01*
X31180000Y-141614929D01*
X31028823Y-141645000D01*
X30037956Y-141645000D01*
X29555113Y-141445000D01*
X28864887Y-141445000D01*
X28227201Y-141709138D01*
X27739138Y-142197201D01*
X27475000Y-142834887D01*
X27475000Y-143525113D01*
X27739138Y-144162799D01*
X28227201Y-144650862D01*
X28864887Y-144915000D01*
X29555113Y-144915000D01*
X30037956Y-144715000D01*
X30544183Y-144715000D01*
X33675001Y-147845818D01*
X33675000Y-155154182D01*
X33064183Y-155765000D01*
X30155448Y-155765000D01*
X30166786Y-155708001D01*
X30147000Y-155608530D01*
X30147000Y-155188541D01*
X30159440Y-155126000D01*
X30159440Y-154326000D01*
X30110157Y-154078235D01*
X30049127Y-153986898D01*
X30050327Y-153985698D01*
X30147000Y-153752309D01*
X30147000Y-153511750D01*
X29988250Y-153353000D01*
X29264000Y-153353000D01*
X29264000Y-153373000D01*
X29010000Y-153373000D01*
X29010000Y-153353000D01*
X28990000Y-153353000D01*
X28990000Y-153099000D01*
X29010000Y-153099000D01*
X29010000Y-152349750D01*
X29264000Y-152349750D01*
X29264000Y-153099000D01*
X29988250Y-153099000D01*
X30147000Y-152940250D01*
X30147000Y-152699691D01*
X30050327Y-152466302D01*
X29871699Y-152287673D01*
X29638310Y-152191000D01*
X29422750Y-152191000D01*
X29264000Y-152349750D01*
X29010000Y-152349750D01*
X28851250Y-152191000D01*
X28635690Y-152191000D01*
X28557000Y-152223595D01*
X28557000Y-151198937D01*
X28682691Y-151251000D01*
X28775250Y-151251000D01*
X28934000Y-151092250D01*
X28934000Y-150293000D01*
X29184000Y-150293000D01*
X29184000Y-151092250D01*
X29342750Y-151251000D01*
X29435309Y-151251000D01*
X29668698Y-151154327D01*
X29847327Y-150975699D01*
X29944000Y-150742310D01*
X29944000Y-150451750D01*
X29785250Y-150293000D01*
X29184000Y-150293000D01*
X28934000Y-150293000D01*
X28912000Y-150293000D01*
X28912000Y-150039000D01*
X28934000Y-150039000D01*
X28934000Y-149239750D01*
X29184000Y-149239750D01*
X29184000Y-150039000D01*
X29785250Y-150039000D01*
X29944000Y-149880250D01*
X29944000Y-149589690D01*
X29847327Y-149356301D01*
X29668698Y-149177673D01*
X29435309Y-149081000D01*
X29342750Y-149081000D01*
X29184000Y-149239750D01*
X28934000Y-149239750D01*
X28775250Y-149081000D01*
X28682691Y-149081000D01*
X28569000Y-149128092D01*
X28569000Y-148912911D01*
X28595157Y-148873765D01*
X28644440Y-148626000D01*
X28644440Y-148126000D01*
X28595157Y-147878235D01*
X28454809Y-147668191D01*
X28391666Y-147626000D01*
X28454809Y-147583809D01*
X28595157Y-147373765D01*
X28644440Y-147126000D01*
X28644440Y-146626000D01*
X28595157Y-146378235D01*
X28557453Y-146321808D01*
X28557000Y-146319528D01*
X28557000Y-146319525D01*
X28498399Y-146024919D01*
X28275169Y-145690831D01*
X28190837Y-145634482D01*
X26918000Y-144361645D01*
X26918000Y-140780522D01*
X28963084Y-140780522D01*
X29183853Y-141151243D01*
X30155512Y-141544619D01*
X31203747Y-141536213D01*
X32133147Y-141151243D01*
X32353916Y-140780522D01*
X30658500Y-139085105D01*
X28963084Y-140780522D01*
X26918000Y-140780522D01*
X26918000Y-138974355D01*
X28379598Y-137512757D01*
X28019381Y-138402512D01*
X28027787Y-139450747D01*
X28412757Y-140380147D01*
X28783478Y-140600916D01*
X30478895Y-138905500D01*
X30838105Y-138905500D01*
X32533522Y-140600916D01*
X32904243Y-140380147D01*
X33297619Y-139408488D01*
X33289213Y-138360253D01*
X32904243Y-137430853D01*
X32533522Y-137210084D01*
X30838105Y-138905500D01*
X30478895Y-138905500D01*
X30464752Y-138891358D01*
X30644358Y-138711752D01*
X30658500Y-138725895D01*
X32353916Y-137030478D01*
X32133147Y-136659757D01*
X31161488Y-136266381D01*
X30113253Y-136274787D01*
X29267067Y-136625289D01*
X30034442Y-135857914D01*
X30233822Y-135940500D01*
X31083178Y-135940500D01*
X31710820Y-135680522D01*
X34063084Y-135680522D01*
X34283853Y-136051243D01*
X35255512Y-136444619D01*
X36303747Y-136436213D01*
X37233147Y-136051243D01*
X37453916Y-135680522D01*
X35758500Y-133985105D01*
X34063084Y-135680522D01*
X31710820Y-135680522D01*
X31867880Y-135615466D01*
X32468466Y-135014880D01*
X32793500Y-134230178D01*
X32793500Y-133380822D01*
X32710914Y-133181441D01*
X33479598Y-132412758D01*
X33119381Y-133302512D01*
X33127787Y-134350747D01*
X33512757Y-135280147D01*
X33883478Y-135500916D01*
X35578895Y-133805500D01*
X35564752Y-133791358D01*
X35744358Y-133611752D01*
X35758500Y-133625895D01*
X37453916Y-131930478D01*
X37233147Y-131559757D01*
X36261488Y-131166381D01*
X35213253Y-131174787D01*
X34367067Y-131525288D01*
X34640341Y-131252015D01*
X34724669Y-131195669D01*
X34781016Y-131111340D01*
X34781018Y-131111338D01*
X34947898Y-130861583D01*
X34947899Y-130861582D01*
X35006500Y-130566976D01*
X35006500Y-130566971D01*
X35026286Y-130467500D01*
X35006500Y-130368029D01*
X35006500Y-121050971D01*
X35026286Y-120951500D01*
X35006500Y-120852029D01*
X35006500Y-120852024D01*
X34947899Y-120557418D01*
X34845226Y-120403757D01*
X34781018Y-120307662D01*
X34781016Y-120307660D01*
X34724669Y-120223331D01*
X34640340Y-120166984D01*
X33990500Y-119517145D01*
X33990500Y-119497108D01*
X34063085Y-119424523D01*
X34283853Y-119795243D01*
X35255512Y-120188619D01*
X36303747Y-120180213D01*
X37233147Y-119795243D01*
X37453916Y-119424522D01*
X35758500Y-117729105D01*
X35744358Y-117743248D01*
X35564752Y-117563642D01*
X35578895Y-117549500D01*
X35564753Y-117535358D01*
X35744358Y-117355753D01*
X35758500Y-117369895D01*
X37453916Y-115674478D01*
X37233147Y-115303757D01*
X36261488Y-114910381D01*
X35490794Y-114916561D01*
X38265000Y-112142356D01*
X38265000Y-116704377D01*
G36*
X28848534Y-118758880D02*
X29449120Y-119359466D01*
X30233822Y-119684500D01*
X31083178Y-119684500D01*
X31867880Y-119359466D01*
X31970500Y-119256846D01*
X31970500Y-119836029D01*
X31950714Y-119935500D01*
X31970500Y-120034971D01*
X31970500Y-120034975D01*
X32029101Y-120329581D01*
X32058460Y-120373520D01*
X31161488Y-120010381D01*
X30113253Y-120018787D01*
X29183853Y-120403757D01*
X28963084Y-120774478D01*
X30658500Y-122469895D01*
X30672642Y-122455752D01*
X30852248Y-122635358D01*
X30838105Y-122649500D01*
X32533522Y-124344916D01*
X32904243Y-124124147D01*
X32986501Y-123920966D01*
X32986500Y-127429440D01*
X32904243Y-127230853D01*
X32533522Y-127010084D01*
X30838105Y-128705500D01*
X30852248Y-128719642D01*
X30672642Y-128899248D01*
X30658500Y-128885105D01*
X28963084Y-130580522D01*
X29183853Y-130951243D01*
X30155512Y-131344619D01*
X31203747Y-131336213D01*
X32049933Y-130985711D01*
X31282559Y-131753086D01*
X31083178Y-131670500D01*
X30233822Y-131670500D01*
X29449120Y-131995534D01*
X28848534Y-132596120D01*
X28523500Y-133380822D01*
X28523500Y-134230178D01*
X28606086Y-134429558D01*
X25264161Y-137771484D01*
X25179832Y-137827831D01*
X25123485Y-137912160D01*
X25123482Y-137912163D01*
X24956602Y-138161918D01*
X24878214Y-138556000D01*
X24898001Y-138655476D01*
X24898000Y-144489198D01*
X21334000Y-140925199D01*
X21334000Y-133304887D01*
X23035000Y-133304887D01*
X23035000Y-133995113D01*
X23299138Y-134632799D01*
X23787201Y-135120862D01*
X24424887Y-135385000D01*
X25115113Y-135385000D01*
X25752799Y-135120862D01*
X26240862Y-134632799D01*
X26505000Y-133995113D01*
X26505000Y-133304887D01*
X26240862Y-132667201D01*
X25752799Y-132179138D01*
X25115113Y-131915000D01*
X24424887Y-131915000D01*
X23787201Y-132179138D01*
X23299138Y-132667201D01*
X23035000Y-133304887D01*
X21334000Y-133304887D01*
X21334000Y-132394801D01*
X23177973Y-130550829D01*
X23241429Y-130508429D01*
X23409404Y-130257037D01*
X23450811Y-130048869D01*
X23601309Y-129948309D01*
X23741657Y-129738265D01*
X23790940Y-129490500D01*
X23790940Y-128990500D01*
X23741657Y-128742735D01*
X23601309Y-128532691D01*
X23538166Y-128490500D01*
X23601309Y-128448309D01*
X23741657Y-128238265D01*
X23748768Y-128202512D01*
X28019381Y-128202512D01*
X28027787Y-129250747D01*
X28412757Y-130180147D01*
X28783478Y-130400916D01*
X30478895Y-128705500D01*
X28783478Y-127010084D01*
X28412757Y-127230853D01*
X28019381Y-128202512D01*
X23748768Y-128202512D01*
X23790940Y-127990500D01*
X23790940Y-127490500D01*
X23741657Y-127242735D01*
X23601309Y-127032691D01*
X23391265Y-126892343D01*
X23324628Y-126879088D01*
X23292148Y-126830478D01*
X28963084Y-126830478D01*
X30658500Y-128525895D01*
X32353916Y-126830478D01*
X32133147Y-126459757D01*
X31161488Y-126066381D01*
X30113253Y-126074787D01*
X29183853Y-126459757D01*
X28963084Y-126830478D01*
X23292148Y-126830478D01*
X23259453Y-126781547D01*
X23193908Y-126737751D01*
X22922249Y-126466092D01*
X22878453Y-126400547D01*
X22618792Y-126227046D01*
X22389816Y-126181500D01*
X22389812Y-126181500D01*
X22312500Y-126166122D01*
X22235188Y-126181500D01*
X22087940Y-126181500D01*
X22087940Y-126166500D01*
X22038657Y-125918735D01*
X21898309Y-125708691D01*
X21688265Y-125568343D01*
X21440500Y-125519060D01*
X18440500Y-125519060D01*
X18192735Y-125568343D01*
X17982691Y-125708691D01*
X17842343Y-125918735D01*
X17793060Y-126166500D01*
X17793060Y-127766500D01*
X17842343Y-128014265D01*
X17982691Y-128224309D01*
X18192735Y-128364657D01*
X18440500Y-128413940D01*
X19155501Y-128413940D01*
X19155500Y-141545188D01*
X19140122Y-141622500D01*
X19155500Y-141699812D01*
X19155500Y-141699815D01*
X19201046Y-141928791D01*
X19374547Y-142188453D01*
X19440092Y-142232249D01*
X23518842Y-146311000D01*
X23518250Y-146311000D01*
X23359500Y-146469750D01*
X23359500Y-148569000D01*
X23379500Y-148569000D01*
X23379500Y-148823000D01*
X23359500Y-148823000D01*
X23359500Y-148843000D01*
X23105500Y-148843000D01*
X23105500Y-148823000D01*
X21956250Y-148823000D01*
X21797500Y-148981750D01*
X21797500Y-150572309D01*
X21894173Y-150805698D01*
X21898329Y-150809854D01*
X21860751Y-150866092D01*
X21164591Y-151562252D01*
X21099049Y-151606046D01*
X21055255Y-151671588D01*
X21055252Y-151671591D01*
X20925547Y-151865708D01*
X20864623Y-152171999D01*
X20880002Y-152249316D01*
X20880001Y-155587689D01*
X20864623Y-155665001D01*
X20880001Y-155742313D01*
X20880001Y-155742316D01*
X20919558Y-155941181D01*
X20925547Y-155971292D01*
X21054700Y-156164582D01*
X21099048Y-156230954D01*
X21164593Y-156274750D01*
X21312723Y-156422881D01*
X21248466Y-156487138D01*
X21201475Y-156600583D01*
X21178864Y-156545995D01*
X20932745Y-156471861D01*
X20104605Y-157300000D01*
X20932745Y-158128139D01*
X21178864Y-158054005D01*
X21199874Y-157995552D01*
X21248466Y-158112862D01*
X21652138Y-158516534D01*
X22179561Y-158735000D01*
X22750439Y-158735000D01*
X22950000Y-158652339D01*
X22950000Y-161151925D01*
X22922138Y-161163466D01*
X22518466Y-161567138D01*
X22471475Y-161680583D01*
X22448864Y-161625995D01*
X22202745Y-161551861D01*
X21374605Y-162380000D01*
X21388748Y-162394142D01*
X21209142Y-162573748D01*
X21195000Y-162559605D01*
X21180858Y-162573748D01*
X21001252Y-162394142D01*
X21015395Y-162380000D01*
X20187255Y-161551861D01*
X19941136Y-161625995D01*
X19920126Y-161684448D01*
X19871534Y-161567138D01*
X19676651Y-161372255D01*
X20366861Y-161372255D01*
X21195000Y-162200395D01*
X22023139Y-161372255D01*
X21949005Y-161126136D01*
X21411777Y-160933035D01*
X20841546Y-160960222D01*
X20440995Y-161126136D01*
X20366861Y-161372255D01*
X19676651Y-161372255D01*
X19467862Y-161163466D01*
X18940439Y-160945000D01*
X18369561Y-160945000D01*
X17842138Y-161163466D01*
X17438466Y-161567138D01*
X17385000Y-161696216D01*
X17331534Y-161567138D01*
X17158876Y-161394480D01*
X18028838Y-160524517D01*
X18113169Y-160468169D01*
X18336399Y-160134082D01*
X18395000Y-159839476D01*
X18395000Y-159839472D01*
X18414786Y-159740001D01*
X18395000Y-159640530D01*
X18395000Y-158319396D01*
X18406651Y-158307745D01*
X19096861Y-158307745D01*
X19170995Y-158553864D01*
X19708223Y-158746965D01*
X20278454Y-158719778D01*
X20679005Y-158553864D01*
X20753139Y-158307745D01*
X19925000Y-157479605D01*
X19096861Y-158307745D01*
X18406651Y-158307745D01*
X18601534Y-158112862D01*
X18648525Y-157999417D01*
X18671136Y-158054005D01*
X18917255Y-158128139D01*
X19745395Y-157300000D01*
X19731252Y-157285858D01*
X19910858Y-157106252D01*
X19925000Y-157120395D01*
X20753139Y-156292255D01*
X20679005Y-156046136D01*
X20141777Y-155853035D01*
X19908551Y-155864155D01*
X19924500Y-155783976D01*
X19924500Y-155783971D01*
X19944286Y-155684500D01*
X19924500Y-155585029D01*
X19924500Y-155188541D01*
X19936940Y-155126000D01*
X19936940Y-154326000D01*
X19887657Y-154078235D01*
X19819345Y-153976000D01*
X19887657Y-153873765D01*
X19936940Y-153626000D01*
X19936940Y-153262930D01*
X19944286Y-153225999D01*
X19936940Y-153189068D01*
X19936940Y-152826000D01*
X19909000Y-152685535D01*
X19909000Y-150337801D01*
X19940786Y-150178000D01*
X19909000Y-150018199D01*
X19909000Y-148948830D01*
X19959157Y-148873765D01*
X20008440Y-148626000D01*
X20008440Y-148126000D01*
X19959157Y-147878235D01*
X19818809Y-147668191D01*
X19755666Y-147626000D01*
X19818809Y-147583809D01*
X19959157Y-147373765D01*
X20008440Y-147126000D01*
X20008440Y-146819691D01*
X21797500Y-146819691D01*
X21797500Y-148410250D01*
X21956250Y-148569000D01*
X23105500Y-148569000D01*
X23105500Y-146469750D01*
X22946750Y-146311000D01*
X22306190Y-146311000D01*
X22072801Y-146407673D01*
X21894173Y-146586302D01*
X21797500Y-146819691D01*
X20008440Y-146819691D01*
X20008440Y-146626000D01*
X19959157Y-146378235D01*
X19921000Y-146321129D01*
X19921000Y-146264470D01*
X19940786Y-146164999D01*
X19921000Y-146065528D01*
X19921000Y-146065524D01*
X19862399Y-145770918D01*
X19639169Y-145436831D01*
X19554838Y-145380483D01*
X13921000Y-139746645D01*
X13921000Y-128401500D01*
X15254750Y-128401500D01*
X15413500Y-128242750D01*
X15413500Y-127093500D01*
X15667500Y-127093500D01*
X15667500Y-128242750D01*
X15826250Y-128401500D01*
X17166809Y-128401500D01*
X17400198Y-128304827D01*
X17578827Y-128126199D01*
X17675500Y-127892810D01*
X17675500Y-127252250D01*
X17516750Y-127093500D01*
X15667500Y-127093500D01*
X15413500Y-127093500D01*
X15393500Y-127093500D01*
X15393500Y-126839500D01*
X15413500Y-126839500D01*
X15413500Y-125690250D01*
X15667500Y-125690250D01*
X15667500Y-126839500D01*
X17516750Y-126839500D01*
X17675500Y-126680750D01*
X17675500Y-126040190D01*
X17578827Y-125806801D01*
X17400198Y-125628173D01*
X17166809Y-125531500D01*
X15826250Y-125531500D01*
X15667500Y-125690250D01*
X15413500Y-125690250D01*
X15254750Y-125531500D01*
X13921000Y-125531500D01*
X13921000Y-125429355D01*
X14825833Y-124524522D01*
X28963084Y-124524522D01*
X29183853Y-124895243D01*
X30155512Y-125288619D01*
X31203747Y-125280213D01*
X32133147Y-124895243D01*
X32353916Y-124524522D01*
X30658500Y-122829105D01*
X28963084Y-124524522D01*
X14825833Y-124524522D01*
X17203843Y-122146512D01*
X28019381Y-122146512D01*
X28027787Y-123194747D01*
X28412757Y-124124147D01*
X28783478Y-124344916D01*
X30478895Y-122649500D01*
X28783478Y-120954084D01*
X28412757Y-121174853D01*
X28019381Y-122146512D01*
X17203843Y-122146512D01*
X20790856Y-118559500D01*
X28765948Y-118559500D01*
X28848534Y-118758880D01*
X28848534Y-118758880D01*
G37*
X28848534Y-118758880D02*
X29449120Y-119359466D01*
X30233822Y-119684500D01*
X31083178Y-119684500D01*
X31867880Y-119359466D01*
X31970500Y-119256846D01*
X31970500Y-119836029D01*
X31950714Y-119935500D01*
X31970500Y-120034971D01*
X31970500Y-120034975D01*
X32029101Y-120329581D01*
X32058460Y-120373520D01*
X31161488Y-120010381D01*
X30113253Y-120018787D01*
X29183853Y-120403757D01*
X28963084Y-120774478D01*
X30658500Y-122469895D01*
X30672642Y-122455752D01*
X30852248Y-122635358D01*
X30838105Y-122649500D01*
X32533522Y-124344916D01*
X32904243Y-124124147D01*
X32986501Y-123920966D01*
X32986500Y-127429440D01*
X32904243Y-127230853D01*
X32533522Y-127010084D01*
X30838105Y-128705500D01*
X30852248Y-128719642D01*
X30672642Y-128899248D01*
X30658500Y-128885105D01*
X28963084Y-130580522D01*
X29183853Y-130951243D01*
X30155512Y-131344619D01*
X31203747Y-131336213D01*
X32049933Y-130985711D01*
X31282559Y-131753086D01*
X31083178Y-131670500D01*
X30233822Y-131670500D01*
X29449120Y-131995534D01*
X28848534Y-132596120D01*
X28523500Y-133380822D01*
X28523500Y-134230178D01*
X28606086Y-134429558D01*
X25264161Y-137771484D01*
X25179832Y-137827831D01*
X25123485Y-137912160D01*
X25123482Y-137912163D01*
X24956602Y-138161918D01*
X24878214Y-138556000D01*
X24898001Y-138655476D01*
X24898000Y-144489198D01*
X21334000Y-140925199D01*
X21334000Y-133304887D01*
X23035000Y-133304887D01*
X23035000Y-133995113D01*
X23299138Y-134632799D01*
X23787201Y-135120862D01*
X24424887Y-135385000D01*
X25115113Y-135385000D01*
X25752799Y-135120862D01*
X26240862Y-134632799D01*
X26505000Y-133995113D01*
X26505000Y-133304887D01*
X26240862Y-132667201D01*
X25752799Y-132179138D01*
X25115113Y-131915000D01*
X24424887Y-131915000D01*
X23787201Y-132179138D01*
X23299138Y-132667201D01*
X23035000Y-133304887D01*
X21334000Y-133304887D01*
X21334000Y-132394801D01*
X23177973Y-130550829D01*
X23241429Y-130508429D01*
X23409404Y-130257037D01*
X23450811Y-130048869D01*
X23601309Y-129948309D01*
X23741657Y-129738265D01*
X23790940Y-129490500D01*
X23790940Y-128990500D01*
X23741657Y-128742735D01*
X23601309Y-128532691D01*
X23538166Y-128490500D01*
X23601309Y-128448309D01*
X23741657Y-128238265D01*
X23748768Y-128202512D01*
X28019381Y-128202512D01*
X28027787Y-129250747D01*
X28412757Y-130180147D01*
X28783478Y-130400916D01*
X30478895Y-128705500D01*
X28783478Y-127010084D01*
X28412757Y-127230853D01*
X28019381Y-128202512D01*
X23748768Y-128202512D01*
X23790940Y-127990500D01*
X23790940Y-127490500D01*
X23741657Y-127242735D01*
X23601309Y-127032691D01*
X23391265Y-126892343D01*
X23324628Y-126879088D01*
X23292148Y-126830478D01*
X28963084Y-126830478D01*
X30658500Y-128525895D01*
X32353916Y-126830478D01*
X32133147Y-126459757D01*
X31161488Y-126066381D01*
X30113253Y-126074787D01*
X29183853Y-126459757D01*
X28963084Y-126830478D01*
X23292148Y-126830478D01*
X23259453Y-126781547D01*
X23193908Y-126737751D01*
X22922249Y-126466092D01*
X22878453Y-126400547D01*
X22618792Y-126227046D01*
X22389816Y-126181500D01*
X22389812Y-126181500D01*
X22312500Y-126166122D01*
X22235188Y-126181500D01*
X22087940Y-126181500D01*
X22087940Y-126166500D01*
X22038657Y-125918735D01*
X21898309Y-125708691D01*
X21688265Y-125568343D01*
X21440500Y-125519060D01*
X18440500Y-125519060D01*
X18192735Y-125568343D01*
X17982691Y-125708691D01*
X17842343Y-125918735D01*
X17793060Y-126166500D01*
X17793060Y-127766500D01*
X17842343Y-128014265D01*
X17982691Y-128224309D01*
X18192735Y-128364657D01*
X18440500Y-128413940D01*
X19155501Y-128413940D01*
X19155500Y-141545188D01*
X19140122Y-141622500D01*
X19155500Y-141699812D01*
X19155500Y-141699815D01*
X19201046Y-141928791D01*
X19374547Y-142188453D01*
X19440092Y-142232249D01*
X23518842Y-146311000D01*
X23518250Y-146311000D01*
X23359500Y-146469750D01*
X23359500Y-148569000D01*
X23379500Y-148569000D01*
X23379500Y-148823000D01*
X23359500Y-148823000D01*
X23359500Y-148843000D01*
X23105500Y-148843000D01*
X23105500Y-148823000D01*
X21956250Y-148823000D01*
X21797500Y-148981750D01*
X21797500Y-150572309D01*
X21894173Y-150805698D01*
X21898329Y-150809854D01*
X21860751Y-150866092D01*
X21164591Y-151562252D01*
X21099049Y-151606046D01*
X21055255Y-151671588D01*
X21055252Y-151671591D01*
X20925547Y-151865708D01*
X20864623Y-152171999D01*
X20880002Y-152249316D01*
X20880001Y-155587689D01*
X20864623Y-155665001D01*
X20880001Y-155742313D01*
X20880001Y-155742316D01*
X20919558Y-155941181D01*
X20925547Y-155971292D01*
X21054700Y-156164582D01*
X21099048Y-156230954D01*
X21164593Y-156274750D01*
X21312723Y-156422881D01*
X21248466Y-156487138D01*
X21201475Y-156600583D01*
X21178864Y-156545995D01*
X20932745Y-156471861D01*
X20104605Y-157300000D01*
X20932745Y-158128139D01*
X21178864Y-158054005D01*
X21199874Y-157995552D01*
X21248466Y-158112862D01*
X21652138Y-158516534D01*
X22179561Y-158735000D01*
X22750439Y-158735000D01*
X22950000Y-158652339D01*
X22950000Y-161151925D01*
X22922138Y-161163466D01*
X22518466Y-161567138D01*
X22471475Y-161680583D01*
X22448864Y-161625995D01*
X22202745Y-161551861D01*
X21374605Y-162380000D01*
X21388748Y-162394142D01*
X21209142Y-162573748D01*
X21195000Y-162559605D01*
X21180858Y-162573748D01*
X21001252Y-162394142D01*
X21015395Y-162380000D01*
X20187255Y-161551861D01*
X19941136Y-161625995D01*
X19920126Y-161684448D01*
X19871534Y-161567138D01*
X19676651Y-161372255D01*
X20366861Y-161372255D01*
X21195000Y-162200395D01*
X22023139Y-161372255D01*
X21949005Y-161126136D01*
X21411777Y-160933035D01*
X20841546Y-160960222D01*
X20440995Y-161126136D01*
X20366861Y-161372255D01*
X19676651Y-161372255D01*
X19467862Y-161163466D01*
X18940439Y-160945000D01*
X18369561Y-160945000D01*
X17842138Y-161163466D01*
X17438466Y-161567138D01*
X17385000Y-161696216D01*
X17331534Y-161567138D01*
X17158876Y-161394480D01*
X18028838Y-160524517D01*
X18113169Y-160468169D01*
X18336399Y-160134082D01*
X18395000Y-159839476D01*
X18395000Y-159839472D01*
X18414786Y-159740001D01*
X18395000Y-159640530D01*
X18395000Y-158319396D01*
X18406651Y-158307745D01*
X19096861Y-158307745D01*
X19170995Y-158553864D01*
X19708223Y-158746965D01*
X20278454Y-158719778D01*
X20679005Y-158553864D01*
X20753139Y-158307745D01*
X19925000Y-157479605D01*
X19096861Y-158307745D01*
X18406651Y-158307745D01*
X18601534Y-158112862D01*
X18648525Y-157999417D01*
X18671136Y-158054005D01*
X18917255Y-158128139D01*
X19745395Y-157300000D01*
X19731252Y-157285858D01*
X19910858Y-157106252D01*
X19925000Y-157120395D01*
X20753139Y-156292255D01*
X20679005Y-156046136D01*
X20141777Y-155853035D01*
X19908551Y-155864155D01*
X19924500Y-155783976D01*
X19924500Y-155783971D01*
X19944286Y-155684500D01*
X19924500Y-155585029D01*
X19924500Y-155188541D01*
X19936940Y-155126000D01*
X19936940Y-154326000D01*
X19887657Y-154078235D01*
X19819345Y-153976000D01*
X19887657Y-153873765D01*
X19936940Y-153626000D01*
X19936940Y-153262930D01*
X19944286Y-153225999D01*
X19936940Y-153189068D01*
X19936940Y-152826000D01*
X19909000Y-152685535D01*
X19909000Y-150337801D01*
X19940786Y-150178000D01*
X19909000Y-150018199D01*
X19909000Y-148948830D01*
X19959157Y-148873765D01*
X20008440Y-148626000D01*
X20008440Y-148126000D01*
X19959157Y-147878235D01*
X19818809Y-147668191D01*
X19755666Y-147626000D01*
X19818809Y-147583809D01*
X19959157Y-147373765D01*
X20008440Y-147126000D01*
X20008440Y-146819691D01*
X21797500Y-146819691D01*
X21797500Y-148410250D01*
X21956250Y-148569000D01*
X23105500Y-148569000D01*
X23105500Y-146469750D01*
X22946750Y-146311000D01*
X22306190Y-146311000D01*
X22072801Y-146407673D01*
X21894173Y-146586302D01*
X21797500Y-146819691D01*
X20008440Y-146819691D01*
X20008440Y-146626000D01*
X19959157Y-146378235D01*
X19921000Y-146321129D01*
X19921000Y-146264470D01*
X19940786Y-146164999D01*
X19921000Y-146065528D01*
X19921000Y-146065524D01*
X19862399Y-145770918D01*
X19639169Y-145436831D01*
X19554838Y-145380483D01*
X13921000Y-139746645D01*
X13921000Y-128401500D01*
X15254750Y-128401500D01*
X15413500Y-128242750D01*
X15413500Y-127093500D01*
X15667500Y-127093500D01*
X15667500Y-128242750D01*
X15826250Y-128401500D01*
X17166809Y-128401500D01*
X17400198Y-128304827D01*
X17578827Y-128126199D01*
X17675500Y-127892810D01*
X17675500Y-127252250D01*
X17516750Y-127093500D01*
X15667500Y-127093500D01*
X15413500Y-127093500D01*
X15393500Y-127093500D01*
X15393500Y-126839500D01*
X15413500Y-126839500D01*
X15413500Y-125690250D01*
X15667500Y-125690250D01*
X15667500Y-126839500D01*
X17516750Y-126839500D01*
X17675500Y-126680750D01*
X17675500Y-126040190D01*
X17578827Y-125806801D01*
X17400198Y-125628173D01*
X17166809Y-125531500D01*
X15826250Y-125531500D01*
X15667500Y-125690250D01*
X15413500Y-125690250D01*
X15254750Y-125531500D01*
X13921000Y-125531500D01*
X13921000Y-125429355D01*
X14825833Y-124524522D01*
X28963084Y-124524522D01*
X29183853Y-124895243D01*
X30155512Y-125288619D01*
X31203747Y-125280213D01*
X32133147Y-124895243D01*
X32353916Y-124524522D01*
X30658500Y-122829105D01*
X28963084Y-124524522D01*
X14825833Y-124524522D01*
X17203843Y-122146512D01*
X28019381Y-122146512D01*
X28027787Y-123194747D01*
X28412757Y-124124147D01*
X28783478Y-124344916D01*
X30478895Y-122649500D01*
X28783478Y-120954084D01*
X28412757Y-121174853D01*
X28019381Y-122146512D01*
X17203843Y-122146512D01*
X20790856Y-118559500D01*
X28765948Y-118559500D01*
X28848534Y-118758880D01*
G36*
X27385000Y-85989285D02*
X38265000Y-85989285D01*
X38265000Y-96627515D01*
X38010000Y-96372515D01*
X38010000Y-93939471D01*
X38029786Y-93840000D01*
X38010000Y-93740529D01*
X38010000Y-93740524D01*
X37951399Y-93445918D01*
X37879691Y-93338600D01*
X37784518Y-93196162D01*
X37784516Y-93196160D01*
X37728169Y-93111831D01*
X37643840Y-93055484D01*
X36511434Y-91923079D01*
X36527959Y-91840000D01*
X36411650Y-91255275D01*
X36080430Y-90759570D01*
X35584725Y-90428350D01*
X35147598Y-90341400D01*
X34852402Y-90341400D01*
X34415275Y-90428350D01*
X33919570Y-90759570D01*
X33730000Y-91043281D01*
X33540430Y-90759570D01*
X33044725Y-90428350D01*
X32607598Y-90341400D01*
X32312402Y-90341400D01*
X31875275Y-90428350D01*
X31379570Y-90759570D01*
X31048350Y-91255275D01*
X30932041Y-91840000D01*
X31048350Y-92424725D01*
X31379570Y-92920430D01*
X31663281Y-93110000D01*
X31379570Y-93299570D01*
X31048350Y-93795275D01*
X30932041Y-94380000D01*
X31048350Y-94964725D01*
X31379570Y-95460430D01*
X31663281Y-95650000D01*
X31379570Y-95839570D01*
X31048350Y-96335275D01*
X30932041Y-96920000D01*
X31048350Y-97504725D01*
X31379570Y-98000430D01*
X31663281Y-98190000D01*
X31379570Y-98379570D01*
X31048350Y-98875275D01*
X30932041Y-99460000D01*
X31048350Y-100044725D01*
X31379570Y-100540430D01*
X31667826Y-100733037D01*
X31253179Y-101111510D01*
X31005032Y-101640973D01*
X31125531Y-101873000D01*
X32333000Y-101873000D01*
X32333000Y-101853000D01*
X32587000Y-101853000D01*
X32587000Y-101873000D01*
X32607000Y-101873000D01*
X32607000Y-102127000D01*
X32587000Y-102127000D01*
X32587000Y-103333817D01*
X32819026Y-103454958D01*
X33234947Y-103282688D01*
X33520480Y-103022064D01*
X33538243Y-103111365D01*
X33678591Y-103321409D01*
X33888635Y-103461757D01*
X34136400Y-103511040D01*
X35863600Y-103511040D01*
X35907501Y-103502308D01*
X35907500Y-109992144D01*
X33294831Y-112604814D01*
X33289213Y-111904253D01*
X32904243Y-110974853D01*
X32533522Y-110754084D01*
X30838105Y-112449500D01*
X30852248Y-112463642D01*
X30672642Y-112643248D01*
X30658500Y-112629105D01*
X28963084Y-114324522D01*
X29183853Y-114695243D01*
X30155512Y-115088619D01*
X30816325Y-115083320D01*
X30485145Y-115414500D01*
X30233822Y-115414500D01*
X29449120Y-115739534D01*
X28848534Y-116340120D01*
X28765948Y-116539500D01*
X20471970Y-116539500D01*
X20372499Y-116519714D01*
X20273028Y-116539500D01*
X20273024Y-116539500D01*
X19978418Y-116598101D01*
X19978416Y-116598102D01*
X19978417Y-116598102D01*
X19728661Y-116764983D01*
X19728660Y-116764984D01*
X19644331Y-116821331D01*
X19587984Y-116905660D01*
X12267163Y-124226482D01*
X12182831Y-124282831D01*
X11959601Y-124616919D01*
X11901000Y-124911525D01*
X11901000Y-124911529D01*
X11881214Y-125011000D01*
X11901000Y-125110471D01*
X11901001Y-140065524D01*
X11881214Y-140165000D01*
X11901001Y-140264476D01*
X11940910Y-140465112D01*
X11959602Y-140559082D01*
X12126482Y-140808837D01*
X12126485Y-140808840D01*
X12182832Y-140893169D01*
X12267161Y-140949516D01*
X17835142Y-146517497D01*
X17813560Y-146626000D01*
X17813560Y-147126000D01*
X17862843Y-147373765D01*
X18003191Y-147583809D01*
X18066334Y-147626000D01*
X18003191Y-147668191D01*
X17862843Y-147878235D01*
X17813560Y-148126000D01*
X17813560Y-148626000D01*
X17862843Y-148873765D01*
X17889001Y-148912912D01*
X17889001Y-149128093D01*
X17775309Y-149081000D01*
X17682750Y-149081000D01*
X17524000Y-149239750D01*
X17524000Y-150039000D01*
X17546000Y-150039000D01*
X17546000Y-150293000D01*
X17524000Y-150293000D01*
X17524000Y-151092250D01*
X17682750Y-151251000D01*
X17775309Y-151251000D01*
X17889000Y-151203907D01*
X17889001Y-152269158D01*
X17700310Y-152191000D01*
X17484750Y-152191000D01*
X17326000Y-152349750D01*
X17326000Y-153099000D01*
X17346000Y-153099000D01*
X17346000Y-153353000D01*
X17326000Y-153353000D01*
X17326000Y-153373000D01*
X17072000Y-153373000D01*
X17072000Y-153353000D01*
X17052000Y-153353000D01*
X17052000Y-153099000D01*
X17072000Y-153099000D01*
X17072000Y-152349750D01*
X16913250Y-152191000D01*
X16697690Y-152191000D01*
X16464301Y-152287673D01*
X16449500Y-152302474D01*
X16449500Y-150451750D01*
X16514000Y-150451750D01*
X16514000Y-150742310D01*
X16610673Y-150975699D01*
X16789302Y-151154327D01*
X17022691Y-151251000D01*
X17115250Y-151251000D01*
X17274000Y-151092250D01*
X17274000Y-150293000D01*
X16672750Y-150293000D01*
X16514000Y-150451750D01*
X16449500Y-150451750D01*
X16449500Y-149589690D01*
X16514000Y-149589690D01*
X16514000Y-149880250D01*
X16672750Y-150039000D01*
X17274000Y-150039000D01*
X17274000Y-149239750D01*
X17115250Y-149081000D01*
X17022691Y-149081000D01*
X16789302Y-149177673D01*
X16610673Y-149356301D01*
X16514000Y-149589690D01*
X16449500Y-149589690D01*
X16449500Y-149193676D01*
X16479571Y-149042499D01*
X16449500Y-148891322D01*
X16449500Y-148891318D01*
X16360438Y-148443573D01*
X16021173Y-147935827D01*
X15893008Y-147850190D01*
X10449500Y-142406683D01*
X10449500Y-124563317D01*
X23066305Y-111946512D01*
X28019381Y-111946512D01*
X28027787Y-112994747D01*
X28412757Y-113924147D01*
X28783478Y-114144916D01*
X30478895Y-112449500D01*
X28783478Y-110754084D01*
X28412757Y-110974853D01*
X28019381Y-111946512D01*
X23066305Y-111946512D01*
X24765818Y-110247000D01*
X29158101Y-110247000D01*
X28963084Y-110574478D01*
X30658500Y-112269895D01*
X32353916Y-110574478D01*
X32133147Y-110203757D01*
X31314421Y-109872296D01*
X31394673Y-109818673D01*
X31480312Y-109690505D01*
X32728508Y-108442310D01*
X32856673Y-108356673D01*
X33195938Y-107848927D01*
X33285000Y-107401182D01*
X33285000Y-107401178D01*
X33315071Y-107250001D01*
X33285000Y-107098824D01*
X33285000Y-105307182D01*
X33315072Y-105156000D01*
X33195938Y-104557072D01*
X33078556Y-104381399D01*
X32856673Y-104049327D01*
X32728505Y-103963688D01*
X32179025Y-103414208D01*
X32333000Y-103333817D01*
X32333000Y-102127000D01*
X31125531Y-102127000D01*
X31045644Y-102280827D01*
X29535000Y-100770183D01*
X29535000Y-93937176D01*
X29565071Y-93785999D01*
X29535000Y-93634822D01*
X29535000Y-93634818D01*
X29445938Y-93187073D01*
X29106673Y-92679327D01*
X28978508Y-92593690D01*
X25535000Y-89150183D01*
X25535000Y-83019868D01*
X25657809Y-82937809D01*
X25798157Y-82727765D01*
X25847440Y-82480000D01*
X25847440Y-80080000D01*
X25798157Y-79832235D01*
X25657809Y-79622191D01*
X25535000Y-79540132D01*
X25535000Y-74154817D01*
X27385000Y-72304817D01*
X27385000Y-85989285D01*
X27385000Y-85989285D01*
G37*
X27385000Y-85989285D02*
X38265000Y-85989285D01*
X38265000Y-96627515D01*
X38010000Y-96372515D01*
X38010000Y-93939471D01*
X38029786Y-93840000D01*
X38010000Y-93740529D01*
X38010000Y-93740524D01*
X37951399Y-93445918D01*
X37879691Y-93338600D01*
X37784518Y-93196162D01*
X37784516Y-93196160D01*
X37728169Y-93111831D01*
X37643840Y-93055484D01*
X36511434Y-91923079D01*
X36527959Y-91840000D01*
X36411650Y-91255275D01*
X36080430Y-90759570D01*
X35584725Y-90428350D01*
X35147598Y-90341400D01*
X34852402Y-90341400D01*
X34415275Y-90428350D01*
X33919570Y-90759570D01*
X33730000Y-91043281D01*
X33540430Y-90759570D01*
X33044725Y-90428350D01*
X32607598Y-90341400D01*
X32312402Y-90341400D01*
X31875275Y-90428350D01*
X31379570Y-90759570D01*
X31048350Y-91255275D01*
X30932041Y-91840000D01*
X31048350Y-92424725D01*
X31379570Y-92920430D01*
X31663281Y-93110000D01*
X31379570Y-93299570D01*
X31048350Y-93795275D01*
X30932041Y-94380000D01*
X31048350Y-94964725D01*
X31379570Y-95460430D01*
X31663281Y-95650000D01*
X31379570Y-95839570D01*
X31048350Y-96335275D01*
X30932041Y-96920000D01*
X31048350Y-97504725D01*
X31379570Y-98000430D01*
X31663281Y-98190000D01*
X31379570Y-98379570D01*
X31048350Y-98875275D01*
X30932041Y-99460000D01*
X31048350Y-100044725D01*
X31379570Y-100540430D01*
X31667826Y-100733037D01*
X31253179Y-101111510D01*
X31005032Y-101640973D01*
X31125531Y-101873000D01*
X32333000Y-101873000D01*
X32333000Y-101853000D01*
X32587000Y-101853000D01*
X32587000Y-101873000D01*
X32607000Y-101873000D01*
X32607000Y-102127000D01*
X32587000Y-102127000D01*
X32587000Y-103333817D01*
X32819026Y-103454958D01*
X33234947Y-103282688D01*
X33520480Y-103022064D01*
X33538243Y-103111365D01*
X33678591Y-103321409D01*
X33888635Y-103461757D01*
X34136400Y-103511040D01*
X35863600Y-103511040D01*
X35907501Y-103502308D01*
X35907500Y-109992144D01*
X33294831Y-112604814D01*
X33289213Y-111904253D01*
X32904243Y-110974853D01*
X32533522Y-110754084D01*
X30838105Y-112449500D01*
X30852248Y-112463642D01*
X30672642Y-112643248D01*
X30658500Y-112629105D01*
X28963084Y-114324522D01*
X29183853Y-114695243D01*
X30155512Y-115088619D01*
X30816325Y-115083320D01*
X30485145Y-115414500D01*
X30233822Y-115414500D01*
X29449120Y-115739534D01*
X28848534Y-116340120D01*
X28765948Y-116539500D01*
X20471970Y-116539500D01*
X20372499Y-116519714D01*
X20273028Y-116539500D01*
X20273024Y-116539500D01*
X19978418Y-116598101D01*
X19978416Y-116598102D01*
X19978417Y-116598102D01*
X19728661Y-116764983D01*
X19728660Y-116764984D01*
X19644331Y-116821331D01*
X19587984Y-116905660D01*
X12267163Y-124226482D01*
X12182831Y-124282831D01*
X11959601Y-124616919D01*
X11901000Y-124911525D01*
X11901000Y-124911529D01*
X11881214Y-125011000D01*
X11901000Y-125110471D01*
X11901001Y-140065524D01*
X11881214Y-140165000D01*
X11901001Y-140264476D01*
X11940910Y-140465112D01*
X11959602Y-140559082D01*
X12126482Y-140808837D01*
X12126485Y-140808840D01*
X12182832Y-140893169D01*
X12267161Y-140949516D01*
X17835142Y-146517497D01*
X17813560Y-146626000D01*
X17813560Y-147126000D01*
X17862843Y-147373765D01*
X18003191Y-147583809D01*
X18066334Y-147626000D01*
X18003191Y-147668191D01*
X17862843Y-147878235D01*
X17813560Y-148126000D01*
X17813560Y-148626000D01*
X17862843Y-148873765D01*
X17889001Y-148912912D01*
X17889001Y-149128093D01*
X17775309Y-149081000D01*
X17682750Y-149081000D01*
X17524000Y-149239750D01*
X17524000Y-150039000D01*
X17546000Y-150039000D01*
X17546000Y-150293000D01*
X17524000Y-150293000D01*
X17524000Y-151092250D01*
X17682750Y-151251000D01*
X17775309Y-151251000D01*
X17889000Y-151203907D01*
X17889001Y-152269158D01*
X17700310Y-152191000D01*
X17484750Y-152191000D01*
X17326000Y-152349750D01*
X17326000Y-153099000D01*
X17346000Y-153099000D01*
X17346000Y-153353000D01*
X17326000Y-153353000D01*
X17326000Y-153373000D01*
X17072000Y-153373000D01*
X17072000Y-153353000D01*
X17052000Y-153353000D01*
X17052000Y-153099000D01*
X17072000Y-153099000D01*
X17072000Y-152349750D01*
X16913250Y-152191000D01*
X16697690Y-152191000D01*
X16464301Y-152287673D01*
X16449500Y-152302474D01*
X16449500Y-150451750D01*
X16514000Y-150451750D01*
X16514000Y-150742310D01*
X16610673Y-150975699D01*
X16789302Y-151154327D01*
X17022691Y-151251000D01*
X17115250Y-151251000D01*
X17274000Y-151092250D01*
X17274000Y-150293000D01*
X16672750Y-150293000D01*
X16514000Y-150451750D01*
X16449500Y-150451750D01*
X16449500Y-149589690D01*
X16514000Y-149589690D01*
X16514000Y-149880250D01*
X16672750Y-150039000D01*
X17274000Y-150039000D01*
X17274000Y-149239750D01*
X17115250Y-149081000D01*
X17022691Y-149081000D01*
X16789302Y-149177673D01*
X16610673Y-149356301D01*
X16514000Y-149589690D01*
X16449500Y-149589690D01*
X16449500Y-149193676D01*
X16479571Y-149042499D01*
X16449500Y-148891322D01*
X16449500Y-148891318D01*
X16360438Y-148443573D01*
X16021173Y-147935827D01*
X15893008Y-147850190D01*
X10449500Y-142406683D01*
X10449500Y-124563317D01*
X23066305Y-111946512D01*
X28019381Y-111946512D01*
X28027787Y-112994747D01*
X28412757Y-113924147D01*
X28783478Y-114144916D01*
X30478895Y-112449500D01*
X28783478Y-110754084D01*
X28412757Y-110974853D01*
X28019381Y-111946512D01*
X23066305Y-111946512D01*
X24765818Y-110247000D01*
X29158101Y-110247000D01*
X28963084Y-110574478D01*
X30658500Y-112269895D01*
X32353916Y-110574478D01*
X32133147Y-110203757D01*
X31314421Y-109872296D01*
X31394673Y-109818673D01*
X31480312Y-109690505D01*
X32728508Y-108442310D01*
X32856673Y-108356673D01*
X33195938Y-107848927D01*
X33285000Y-107401182D01*
X33285000Y-107401178D01*
X33315071Y-107250001D01*
X33285000Y-107098824D01*
X33285000Y-105307182D01*
X33315072Y-105156000D01*
X33195938Y-104557072D01*
X33078556Y-104381399D01*
X32856673Y-104049327D01*
X32728505Y-103963688D01*
X32179025Y-103414208D01*
X32333000Y-103333817D01*
X32333000Y-102127000D01*
X31125531Y-102127000D01*
X31045644Y-102280827D01*
X29535000Y-100770183D01*
X29535000Y-93937176D01*
X29565071Y-93785999D01*
X29535000Y-93634822D01*
X29535000Y-93634818D01*
X29445938Y-93187073D01*
X29106673Y-92679327D01*
X28978508Y-92593690D01*
X25535000Y-89150183D01*
X25535000Y-83019868D01*
X25657809Y-82937809D01*
X25798157Y-82727765D01*
X25847440Y-82480000D01*
X25847440Y-80080000D01*
X25798157Y-79832235D01*
X25657809Y-79622191D01*
X25535000Y-79540132D01*
X25535000Y-74154817D01*
X27385000Y-72304817D01*
X27385000Y-85989285D01*
G36*
X25518560Y-39001500D02*
X25518560Y-39901500D01*
X25567843Y-40149265D01*
X25708191Y-40359309D01*
X25832964Y-40442680D01*
X25627384Y-40648260D01*
X24558500Y-40648260D01*
X24310735Y-40697543D01*
X24100691Y-40837891D01*
X23960343Y-41047935D01*
X23911060Y-41295700D01*
X23911060Y-43795700D01*
X23960343Y-44043465D01*
X24100691Y-44253509D01*
X24310735Y-44393857D01*
X24558500Y-44443140D01*
X26358500Y-44443140D01*
X26606265Y-44393857D01*
X26816309Y-44253509D01*
X26956657Y-44043465D01*
X27005940Y-43795700D01*
X27005940Y-42126416D01*
X27050356Y-42082000D01*
X27063760Y-42082000D01*
X27063760Y-42339100D01*
X27113043Y-42586865D01*
X27171332Y-42674100D01*
X27113043Y-42761335D01*
X27063760Y-43009100D01*
X27063760Y-43609100D01*
X27113043Y-43856865D01*
X27171332Y-43944100D01*
X27113043Y-44031335D01*
X27063760Y-44279100D01*
X27063760Y-44839100D01*
X26817117Y-44839100D01*
X26816309Y-44837891D01*
X26606265Y-44697543D01*
X26358500Y-44648260D01*
X24558500Y-44648260D01*
X24310735Y-44697543D01*
X24100691Y-44837891D01*
X23960343Y-45047935D01*
X23911060Y-45295700D01*
X23911060Y-45535700D01*
X23322940Y-45535700D01*
X23322940Y-45295700D01*
X23273657Y-45047935D01*
X23133309Y-44837891D01*
X22923265Y-44697543D01*
X22675500Y-44648260D01*
X21306415Y-44648260D01*
X21088855Y-44430700D01*
X21489750Y-44430700D01*
X21648500Y-44271950D01*
X21648500Y-42672700D01*
X21902500Y-42672700D01*
X21902500Y-44271950D01*
X22061250Y-44430700D01*
X22801810Y-44430700D01*
X23035199Y-44334027D01*
X23213827Y-44155398D01*
X23310500Y-43922009D01*
X23310500Y-42831450D01*
X23151750Y-42672700D01*
X21902500Y-42672700D01*
X21648500Y-42672700D01*
X20399250Y-42672700D01*
X20240500Y-42831450D01*
X20240500Y-43582345D01*
X19625000Y-42966845D01*
X19625000Y-42654887D01*
X19360862Y-42017201D01*
X18872799Y-41529138D01*
X18235113Y-41265000D01*
X17544887Y-41265000D01*
X16907201Y-41529138D01*
X16419138Y-42017201D01*
X16155000Y-42654887D01*
X16155000Y-43345113D01*
X16419138Y-43982799D01*
X16907201Y-44470862D01*
X17544887Y-44735000D01*
X18235113Y-44735000D01*
X18448187Y-44646742D01*
X18960383Y-45158938D01*
X18274895Y-44875000D01*
X17505105Y-44875000D01*
X16793910Y-45169586D01*
X16249586Y-45713910D01*
X15955000Y-46425105D01*
X15955000Y-47194895D01*
X16249586Y-47906090D01*
X16793910Y-48450414D01*
X17505105Y-48745000D01*
X18274895Y-48745000D01*
X18645808Y-48591363D01*
X20228060Y-50173616D01*
X20228060Y-51542700D01*
X20277343Y-51790465D01*
X20417691Y-52000509D01*
X20627735Y-52140857D01*
X20875500Y-52190140D01*
X22675500Y-52190140D01*
X22923265Y-52140857D01*
X23133309Y-52000509D01*
X23273657Y-51790465D01*
X23322940Y-51542700D01*
X23322940Y-51302700D01*
X23911060Y-51302700D01*
X23911060Y-51542700D01*
X23960343Y-51790465D01*
X24100691Y-52000509D01*
X24310735Y-52140857D01*
X24558500Y-52190140D01*
X26358500Y-52190140D01*
X26606265Y-52140857D01*
X26816309Y-52000509D01*
X26857341Y-51939100D01*
X27063760Y-51939100D01*
X27063760Y-52499100D01*
X27113043Y-52746865D01*
X27171332Y-52834100D01*
X27113043Y-52921335D01*
X27063760Y-53169100D01*
X27063760Y-53769100D01*
X27113043Y-54016865D01*
X27253391Y-54226909D01*
X27463435Y-54367257D01*
X27711200Y-54416540D01*
X29261200Y-54416540D01*
X29508965Y-54367257D01*
X29719009Y-54226909D01*
X29859357Y-54016865D01*
X29908640Y-53769100D01*
X29908640Y-53169100D01*
X29859357Y-52921335D01*
X29801068Y-52834100D01*
X29859357Y-52746865D01*
X29908640Y-52499100D01*
X29908640Y-51899100D01*
X29859357Y-51651335D01*
X29801068Y-51564100D01*
X29859357Y-51476865D01*
X29908640Y-51229100D01*
X29908640Y-50629100D01*
X29859749Y-50383304D01*
X29990000Y-50513556D01*
X29990001Y-51456118D01*
X29918714Y-51814500D01*
X29938501Y-51913976D01*
X29938500Y-58438975D01*
X29938501Y-58438980D01*
X29938500Y-61952145D01*
X29705522Y-62185123D01*
X29562787Y-62126000D01*
X28753213Y-62126000D01*
X28610478Y-62185123D01*
X26468500Y-60043145D01*
X26468500Y-56168260D01*
X26606265Y-56140857D01*
X26816309Y-56000509D01*
X26956657Y-55790465D01*
X27005940Y-55542700D01*
X27005940Y-53042700D01*
X26956657Y-52794935D01*
X26816309Y-52584891D01*
X26606265Y-52444543D01*
X26358500Y-52395260D01*
X24558500Y-52395260D01*
X24310735Y-52444543D01*
X24100691Y-52584891D01*
X23960343Y-52794935D01*
X23911060Y-53042700D01*
X23911060Y-55542700D01*
X23960343Y-55790465D01*
X24100691Y-56000509D01*
X24310735Y-56140857D01*
X24448501Y-56168260D01*
X24448500Y-58511224D01*
X24448500Y-58511225D01*
X24448501Y-60362025D01*
X24428714Y-60461500D01*
X24507102Y-60855582D01*
X24673982Y-61105337D01*
X24673985Y-61105340D01*
X24730332Y-61189669D01*
X24814661Y-61246016D01*
X27182123Y-63613478D01*
X27123000Y-63756213D01*
X27123000Y-64565787D01*
X27432810Y-65313735D01*
X27623000Y-65503925D01*
X27623001Y-67018074D01*
X27432810Y-67208265D01*
X27123000Y-67956213D01*
X27123000Y-68225182D01*
X23021493Y-72326690D01*
X22893328Y-72412327D01*
X22807691Y-72540492D01*
X22807690Y-72540493D01*
X22554063Y-72920073D01*
X22434929Y-73519000D01*
X22465001Y-73670182D01*
X22465000Y-79540132D01*
X22342191Y-79622191D01*
X22201843Y-79832235D01*
X22152560Y-80080000D01*
X22152560Y-82480000D01*
X22201843Y-82727765D01*
X22342191Y-82937809D01*
X22465000Y-83019868D01*
X22465001Y-89150181D01*
X18833495Y-92781688D01*
X18705327Y-92867327D01*
X18366062Y-93375074D01*
X18277000Y-93822819D01*
X18277000Y-93822823D01*
X18246929Y-93974000D01*
X18277000Y-94125177D01*
X18277001Y-101472181D01*
X735000Y-119014183D01*
X735000Y-83185000D01*
X9144000Y-83185000D01*
X9192601Y-83175333D01*
X9233803Y-83147803D01*
X9804431Y-82577175D01*
X15382430Y-82577175D01*
X15505565Y-82864788D01*
X16187734Y-83124707D01*
X16917443Y-83103786D01*
X17494435Y-82864788D01*
X17617570Y-82577175D01*
X16500000Y-81459605D01*
X15382430Y-82577175D01*
X9804431Y-82577175D01*
X11413872Y-80967734D01*
X14655293Y-80967734D01*
X14676214Y-81697443D01*
X14915212Y-82274435D01*
X15202825Y-82397570D01*
X16320395Y-81280000D01*
X16679605Y-81280000D01*
X17797175Y-82397570D01*
X18084788Y-82274435D01*
X18344707Y-81592266D01*
X18323786Y-80862557D01*
X18084788Y-80285565D01*
X17797175Y-80162430D01*
X16679605Y-81280000D01*
X16320395Y-81280000D01*
X15202825Y-80162430D01*
X14915212Y-80285565D01*
X14655293Y-80967734D01*
X11413872Y-80967734D01*
X12398781Y-79982825D01*
X15382430Y-79982825D01*
X16500000Y-81100395D01*
X17617570Y-79982825D01*
X17494435Y-79695212D01*
X16812266Y-79435293D01*
X16082557Y-79456214D01*
X15505565Y-79695212D01*
X15382430Y-79982825D01*
X12398781Y-79982825D01*
X17107803Y-75273803D01*
X17135333Y-75232601D01*
X17145000Y-75184000D01*
X17145000Y-66802000D01*
X17135333Y-66753399D01*
X17107803Y-66712197D01*
X8255000Y-57859394D01*
X8255000Y-54578450D01*
X20240500Y-54578450D01*
X20240500Y-55669009D01*
X20337173Y-55902398D01*
X20515801Y-56081027D01*
X20749190Y-56177700D01*
X21489750Y-56177700D01*
X21648500Y-56018950D01*
X21648500Y-54419700D01*
X21902500Y-54419700D01*
X21902500Y-56018950D01*
X22061250Y-56177700D01*
X22801810Y-56177700D01*
X23035199Y-56081027D01*
X23213827Y-55902398D01*
X23310500Y-55669009D01*
X23310500Y-54578450D01*
X23151750Y-54419700D01*
X21902500Y-54419700D01*
X21648500Y-54419700D01*
X20399250Y-54419700D01*
X20240500Y-54578450D01*
X8255000Y-54578450D01*
X8255000Y-52916391D01*
X20240500Y-52916391D01*
X20240500Y-54006950D01*
X20399250Y-54165700D01*
X21648500Y-54165700D01*
X21648500Y-52566450D01*
X21902500Y-52566450D01*
X21902500Y-54165700D01*
X23151750Y-54165700D01*
X23310500Y-54006950D01*
X23310500Y-52916391D01*
X23213827Y-52683002D01*
X23035199Y-52504373D01*
X22801810Y-52407700D01*
X22061250Y-52407700D01*
X21902500Y-52566450D01*
X21648500Y-52566450D01*
X21489750Y-52407700D01*
X20749190Y-52407700D01*
X20515801Y-52504373D01*
X20337173Y-52683002D01*
X20240500Y-52916391D01*
X8255000Y-52916391D01*
X8255000Y-42654887D01*
X11075000Y-42654887D01*
X11075000Y-43345113D01*
X11339138Y-43982799D01*
X11827201Y-44470862D01*
X12464887Y-44735000D01*
X13155113Y-44735000D01*
X13792799Y-44470862D01*
X14280862Y-43982799D01*
X14545000Y-43345113D01*
X14545000Y-42654887D01*
X14280862Y-42017201D01*
X13792799Y-41529138D01*
X13155113Y-41265000D01*
X12464887Y-41265000D01*
X11827201Y-41529138D01*
X11339138Y-42017201D01*
X11075000Y-42654887D01*
X8255000Y-42654887D01*
X8255000Y-41169391D01*
X20240500Y-41169391D01*
X20240500Y-42259950D01*
X20399250Y-42418700D01*
X21648500Y-42418700D01*
X21648500Y-40819450D01*
X21902500Y-40819450D01*
X21902500Y-42418700D01*
X23151750Y-42418700D01*
X23310500Y-42259950D01*
X23310500Y-41169391D01*
X23213827Y-40936002D01*
X23035199Y-40757373D01*
X22801810Y-40660700D01*
X22061250Y-40660700D01*
X21902500Y-40819450D01*
X21648500Y-40819450D01*
X21489750Y-40660700D01*
X20749190Y-40660700D01*
X20515801Y-40757373D01*
X20337173Y-40936002D01*
X20240500Y-41169391D01*
X8255000Y-41169391D01*
X8255000Y-40946606D01*
X8617012Y-40584594D01*
X8714561Y-40625000D01*
X9285439Y-40625000D01*
X9812862Y-40406534D01*
X9960396Y-40259000D01*
X16238365Y-40259000D01*
X16249586Y-40286090D01*
X16793910Y-40830414D01*
X17505105Y-41125000D01*
X18274895Y-41125000D01*
X18986090Y-40830414D01*
X19530414Y-40286090D01*
X19672470Y-39943136D01*
X20626606Y-38989000D01*
X25521046Y-38989000D01*
X25518560Y-39001500D01*
X25518560Y-39001500D01*
G37*
X25518560Y-39001500D02*
X25518560Y-39901500D01*
X25567843Y-40149265D01*
X25708191Y-40359309D01*
X25832964Y-40442680D01*
X25627384Y-40648260D01*
X24558500Y-40648260D01*
X24310735Y-40697543D01*
X24100691Y-40837891D01*
X23960343Y-41047935D01*
X23911060Y-41295700D01*
X23911060Y-43795700D01*
X23960343Y-44043465D01*
X24100691Y-44253509D01*
X24310735Y-44393857D01*
X24558500Y-44443140D01*
X26358500Y-44443140D01*
X26606265Y-44393857D01*
X26816309Y-44253509D01*
X26956657Y-44043465D01*
X27005940Y-43795700D01*
X27005940Y-42126416D01*
X27050356Y-42082000D01*
X27063760Y-42082000D01*
X27063760Y-42339100D01*
X27113043Y-42586865D01*
X27171332Y-42674100D01*
X27113043Y-42761335D01*
X27063760Y-43009100D01*
X27063760Y-43609100D01*
X27113043Y-43856865D01*
X27171332Y-43944100D01*
X27113043Y-44031335D01*
X27063760Y-44279100D01*
X27063760Y-44839100D01*
X26817117Y-44839100D01*
X26816309Y-44837891D01*
X26606265Y-44697543D01*
X26358500Y-44648260D01*
X24558500Y-44648260D01*
X24310735Y-44697543D01*
X24100691Y-44837891D01*
X23960343Y-45047935D01*
X23911060Y-45295700D01*
X23911060Y-45535700D01*
X23322940Y-45535700D01*
X23322940Y-45295700D01*
X23273657Y-45047935D01*
X23133309Y-44837891D01*
X22923265Y-44697543D01*
X22675500Y-44648260D01*
X21306415Y-44648260D01*
X21088855Y-44430700D01*
X21489750Y-44430700D01*
X21648500Y-44271950D01*
X21648500Y-42672700D01*
X21902500Y-42672700D01*
X21902500Y-44271950D01*
X22061250Y-44430700D01*
X22801810Y-44430700D01*
X23035199Y-44334027D01*
X23213827Y-44155398D01*
X23310500Y-43922009D01*
X23310500Y-42831450D01*
X23151750Y-42672700D01*
X21902500Y-42672700D01*
X21648500Y-42672700D01*
X20399250Y-42672700D01*
X20240500Y-42831450D01*
X20240500Y-43582345D01*
X19625000Y-42966845D01*
X19625000Y-42654887D01*
X19360862Y-42017201D01*
X18872799Y-41529138D01*
X18235113Y-41265000D01*
X17544887Y-41265000D01*
X16907201Y-41529138D01*
X16419138Y-42017201D01*
X16155000Y-42654887D01*
X16155000Y-43345113D01*
X16419138Y-43982799D01*
X16907201Y-44470862D01*
X17544887Y-44735000D01*
X18235113Y-44735000D01*
X18448187Y-44646742D01*
X18960383Y-45158938D01*
X18274895Y-44875000D01*
X17505105Y-44875000D01*
X16793910Y-45169586D01*
X16249586Y-45713910D01*
X15955000Y-46425105D01*
X15955000Y-47194895D01*
X16249586Y-47906090D01*
X16793910Y-48450414D01*
X17505105Y-48745000D01*
X18274895Y-48745000D01*
X18645808Y-48591363D01*
X20228060Y-50173616D01*
X20228060Y-51542700D01*
X20277343Y-51790465D01*
X20417691Y-52000509D01*
X20627735Y-52140857D01*
X20875500Y-52190140D01*
X22675500Y-52190140D01*
X22923265Y-52140857D01*
X23133309Y-52000509D01*
X23273657Y-51790465D01*
X23322940Y-51542700D01*
X23322940Y-51302700D01*
X23911060Y-51302700D01*
X23911060Y-51542700D01*
X23960343Y-51790465D01*
X24100691Y-52000509D01*
X24310735Y-52140857D01*
X24558500Y-52190140D01*
X26358500Y-52190140D01*
X26606265Y-52140857D01*
X26816309Y-52000509D01*
X26857341Y-51939100D01*
X27063760Y-51939100D01*
X27063760Y-52499100D01*
X27113043Y-52746865D01*
X27171332Y-52834100D01*
X27113043Y-52921335D01*
X27063760Y-53169100D01*
X27063760Y-53769100D01*
X27113043Y-54016865D01*
X27253391Y-54226909D01*
X27463435Y-54367257D01*
X27711200Y-54416540D01*
X29261200Y-54416540D01*
X29508965Y-54367257D01*
X29719009Y-54226909D01*
X29859357Y-54016865D01*
X29908640Y-53769100D01*
X29908640Y-53169100D01*
X29859357Y-52921335D01*
X29801068Y-52834100D01*
X29859357Y-52746865D01*
X29908640Y-52499100D01*
X29908640Y-51899100D01*
X29859357Y-51651335D01*
X29801068Y-51564100D01*
X29859357Y-51476865D01*
X29908640Y-51229100D01*
X29908640Y-50629100D01*
X29859749Y-50383304D01*
X29990000Y-50513556D01*
X29990001Y-51456118D01*
X29918714Y-51814500D01*
X29938501Y-51913976D01*
X29938500Y-58438975D01*
X29938501Y-58438980D01*
X29938500Y-61952145D01*
X29705522Y-62185123D01*
X29562787Y-62126000D01*
X28753213Y-62126000D01*
X28610478Y-62185123D01*
X26468500Y-60043145D01*
X26468500Y-56168260D01*
X26606265Y-56140857D01*
X26816309Y-56000509D01*
X26956657Y-55790465D01*
X27005940Y-55542700D01*
X27005940Y-53042700D01*
X26956657Y-52794935D01*
X26816309Y-52584891D01*
X26606265Y-52444543D01*
X26358500Y-52395260D01*
X24558500Y-52395260D01*
X24310735Y-52444543D01*
X24100691Y-52584891D01*
X23960343Y-52794935D01*
X23911060Y-53042700D01*
X23911060Y-55542700D01*
X23960343Y-55790465D01*
X24100691Y-56000509D01*
X24310735Y-56140857D01*
X24448501Y-56168260D01*
X24448500Y-58511224D01*
X24448500Y-58511225D01*
X24448501Y-60362025D01*
X24428714Y-60461500D01*
X24507102Y-60855582D01*
X24673982Y-61105337D01*
X24673985Y-61105340D01*
X24730332Y-61189669D01*
X24814661Y-61246016D01*
X27182123Y-63613478D01*
X27123000Y-63756213D01*
X27123000Y-64565787D01*
X27432810Y-65313735D01*
X27623000Y-65503925D01*
X27623001Y-67018074D01*
X27432810Y-67208265D01*
X27123000Y-67956213D01*
X27123000Y-68225182D01*
X23021493Y-72326690D01*
X22893328Y-72412327D01*
X22807691Y-72540492D01*
X22807690Y-72540493D01*
X22554063Y-72920073D01*
X22434929Y-73519000D01*
X22465001Y-73670182D01*
X22465000Y-79540132D01*
X22342191Y-79622191D01*
X22201843Y-79832235D01*
X22152560Y-80080000D01*
X22152560Y-82480000D01*
X22201843Y-82727765D01*
X22342191Y-82937809D01*
X22465000Y-83019868D01*
X22465001Y-89150181D01*
X18833495Y-92781688D01*
X18705327Y-92867327D01*
X18366062Y-93375074D01*
X18277000Y-93822819D01*
X18277000Y-93822823D01*
X18246929Y-93974000D01*
X18277000Y-94125177D01*
X18277001Y-101472181D01*
X735000Y-119014183D01*
X735000Y-83185000D01*
X9144000Y-83185000D01*
X9192601Y-83175333D01*
X9233803Y-83147803D01*
X9804431Y-82577175D01*
X15382430Y-82577175D01*
X15505565Y-82864788D01*
X16187734Y-83124707D01*
X16917443Y-83103786D01*
X17494435Y-82864788D01*
X17617570Y-82577175D01*
X16500000Y-81459605D01*
X15382430Y-82577175D01*
X9804431Y-82577175D01*
X11413872Y-80967734D01*
X14655293Y-80967734D01*
X14676214Y-81697443D01*
X14915212Y-82274435D01*
X15202825Y-82397570D01*
X16320395Y-81280000D01*
X16679605Y-81280000D01*
X17797175Y-82397570D01*
X18084788Y-82274435D01*
X18344707Y-81592266D01*
X18323786Y-80862557D01*
X18084788Y-80285565D01*
X17797175Y-80162430D01*
X16679605Y-81280000D01*
X16320395Y-81280000D01*
X15202825Y-80162430D01*
X14915212Y-80285565D01*
X14655293Y-80967734D01*
X11413872Y-80967734D01*
X12398781Y-79982825D01*
X15382430Y-79982825D01*
X16500000Y-81100395D01*
X17617570Y-79982825D01*
X17494435Y-79695212D01*
X16812266Y-79435293D01*
X16082557Y-79456214D01*
X15505565Y-79695212D01*
X15382430Y-79982825D01*
X12398781Y-79982825D01*
X17107803Y-75273803D01*
X17135333Y-75232601D01*
X17145000Y-75184000D01*
X17145000Y-66802000D01*
X17135333Y-66753399D01*
X17107803Y-66712197D01*
X8255000Y-57859394D01*
X8255000Y-54578450D01*
X20240500Y-54578450D01*
X20240500Y-55669009D01*
X20337173Y-55902398D01*
X20515801Y-56081027D01*
X20749190Y-56177700D01*
X21489750Y-56177700D01*
X21648500Y-56018950D01*
X21648500Y-54419700D01*
X21902500Y-54419700D01*
X21902500Y-56018950D01*
X22061250Y-56177700D01*
X22801810Y-56177700D01*
X23035199Y-56081027D01*
X23213827Y-55902398D01*
X23310500Y-55669009D01*
X23310500Y-54578450D01*
X23151750Y-54419700D01*
X21902500Y-54419700D01*
X21648500Y-54419700D01*
X20399250Y-54419700D01*
X20240500Y-54578450D01*
X8255000Y-54578450D01*
X8255000Y-52916391D01*
X20240500Y-52916391D01*
X20240500Y-54006950D01*
X20399250Y-54165700D01*
X21648500Y-54165700D01*
X21648500Y-52566450D01*
X21902500Y-52566450D01*
X21902500Y-54165700D01*
X23151750Y-54165700D01*
X23310500Y-54006950D01*
X23310500Y-52916391D01*
X23213827Y-52683002D01*
X23035199Y-52504373D01*
X22801810Y-52407700D01*
X22061250Y-52407700D01*
X21902500Y-52566450D01*
X21648500Y-52566450D01*
X21489750Y-52407700D01*
X20749190Y-52407700D01*
X20515801Y-52504373D01*
X20337173Y-52683002D01*
X20240500Y-52916391D01*
X8255000Y-52916391D01*
X8255000Y-42654887D01*
X11075000Y-42654887D01*
X11075000Y-43345113D01*
X11339138Y-43982799D01*
X11827201Y-44470862D01*
X12464887Y-44735000D01*
X13155113Y-44735000D01*
X13792799Y-44470862D01*
X14280862Y-43982799D01*
X14545000Y-43345113D01*
X14545000Y-42654887D01*
X14280862Y-42017201D01*
X13792799Y-41529138D01*
X13155113Y-41265000D01*
X12464887Y-41265000D01*
X11827201Y-41529138D01*
X11339138Y-42017201D01*
X11075000Y-42654887D01*
X8255000Y-42654887D01*
X8255000Y-41169391D01*
X20240500Y-41169391D01*
X20240500Y-42259950D01*
X20399250Y-42418700D01*
X21648500Y-42418700D01*
X21648500Y-40819450D01*
X21902500Y-40819450D01*
X21902500Y-42418700D01*
X23151750Y-42418700D01*
X23310500Y-42259950D01*
X23310500Y-41169391D01*
X23213827Y-40936002D01*
X23035199Y-40757373D01*
X22801810Y-40660700D01*
X22061250Y-40660700D01*
X21902500Y-40819450D01*
X21648500Y-40819450D01*
X21489750Y-40660700D01*
X20749190Y-40660700D01*
X20515801Y-40757373D01*
X20337173Y-40936002D01*
X20240500Y-41169391D01*
X8255000Y-41169391D01*
X8255000Y-40946606D01*
X8617012Y-40584594D01*
X8714561Y-40625000D01*
X9285439Y-40625000D01*
X9812862Y-40406534D01*
X9960396Y-40259000D01*
X16238365Y-40259000D01*
X16249586Y-40286090D01*
X16793910Y-40830414D01*
X17505105Y-41125000D01*
X18274895Y-41125000D01*
X18986090Y-40830414D01*
X19530414Y-40286090D01*
X19672470Y-39943136D01*
X20626606Y-38989000D01*
X25521046Y-38989000D01*
X25518560Y-39001500D01*
G36*
X35578060Y-46420500D02*
X35627343Y-46668265D01*
X35687000Y-46757547D01*
X35687000Y-46990000D01*
X35696667Y-47038601D01*
X35724197Y-47079803D01*
X38265001Y-49620607D01*
X38265001Y-71490714D01*
X28199104Y-71490714D01*
X29293818Y-70396000D01*
X29562787Y-70396000D01*
X30310735Y-70086190D01*
X30594201Y-69802724D01*
X33395882Y-69802724D01*
X33543455Y-70111106D01*
X34298031Y-70404405D01*
X35107409Y-70386614D01*
X35772545Y-70111106D01*
X35920118Y-69802724D01*
X34658000Y-68540605D01*
X33395882Y-69802724D01*
X30594201Y-69802724D01*
X30883190Y-69513735D01*
X31193000Y-68765787D01*
X31193000Y-68001031D01*
X32614595Y-68001031D01*
X32632386Y-68810409D01*
X32907894Y-69475545D01*
X33216276Y-69623118D01*
X34478395Y-68361000D01*
X34837605Y-68361000D01*
X36099724Y-69623118D01*
X36408106Y-69475545D01*
X36701405Y-68720969D01*
X36683614Y-67911591D01*
X36408106Y-67246455D01*
X36099724Y-67098882D01*
X34837605Y-68361000D01*
X34478395Y-68361000D01*
X33216276Y-67098882D01*
X32907894Y-67246455D01*
X32614595Y-68001031D01*
X31193000Y-68001031D01*
X31193000Y-67956213D01*
X30883190Y-67208265D01*
X30693000Y-67018075D01*
X30693000Y-66919276D01*
X33395882Y-66919276D01*
X34658000Y-68181395D01*
X35920118Y-66919276D01*
X35772545Y-66610894D01*
X35017969Y-66317595D01*
X34208591Y-66335386D01*
X33543455Y-66610894D01*
X33395882Y-66919276D01*
X30693000Y-66919276D01*
X30693000Y-65503925D01*
X30883190Y-65313735D01*
X31193000Y-64565787D01*
X31193000Y-64446750D01*
X32623000Y-64446750D01*
X32623000Y-65687309D01*
X32719673Y-65920698D01*
X32898301Y-66099327D01*
X33131690Y-66196000D01*
X34372250Y-66196000D01*
X34531000Y-66037250D01*
X34531000Y-64288000D01*
X34785000Y-64288000D01*
X34785000Y-66037250D01*
X34943750Y-66196000D01*
X36184310Y-66196000D01*
X36417699Y-66099327D01*
X36596327Y-65920698D01*
X36693000Y-65687309D01*
X36693000Y-64446750D01*
X36534250Y-64288000D01*
X34785000Y-64288000D01*
X34531000Y-64288000D01*
X32781750Y-64288000D01*
X32623000Y-64446750D01*
X31193000Y-64446750D01*
X31193000Y-63756213D01*
X31133877Y-63613478D01*
X31592338Y-63155017D01*
X31676669Y-63098669D01*
X31899899Y-62764582D01*
X31925736Y-62634691D01*
X32623000Y-62634691D01*
X32623000Y-63875250D01*
X32781750Y-64034000D01*
X34531000Y-64034000D01*
X34531000Y-62284750D01*
X34785000Y-62284750D01*
X34785000Y-64034000D01*
X36534250Y-64034000D01*
X36693000Y-63875250D01*
X36693000Y-62634691D01*
X36596327Y-62401302D01*
X36417699Y-62222673D01*
X36184310Y-62126000D01*
X34943750Y-62126000D01*
X34785000Y-62284750D01*
X34531000Y-62284750D01*
X34372250Y-62126000D01*
X33131690Y-62126000D01*
X32898301Y-62222673D01*
X32719673Y-62401302D01*
X32623000Y-62634691D01*
X31925736Y-62634691D01*
X31958500Y-62469976D01*
X31958500Y-62469972D01*
X31978286Y-62370501D01*
X31958500Y-62271030D01*
X31958500Y-59517440D01*
X32012000Y-59517440D01*
X32259765Y-59468157D01*
X32469809Y-59327809D01*
X32512000Y-59264666D01*
X32554191Y-59327809D01*
X32764235Y-59468157D01*
X33012000Y-59517440D01*
X33512000Y-59517440D01*
X33759765Y-59468157D01*
X33942361Y-59346150D01*
X34112235Y-59459657D01*
X34360000Y-59508940D01*
X35160000Y-59508940D01*
X35407765Y-59459657D01*
X35559047Y-59358573D01*
X35600302Y-59399827D01*
X35833691Y-59496500D01*
X36074250Y-59496500D01*
X36233000Y-59337750D01*
X36233000Y-58588500D01*
X36487000Y-58588500D01*
X36487000Y-59337750D01*
X36645750Y-59496500D01*
X36886309Y-59496500D01*
X37119698Y-59399827D01*
X37298327Y-59221199D01*
X37395000Y-58987810D01*
X37395000Y-58747250D01*
X37236250Y-58588500D01*
X36487000Y-58588500D01*
X36233000Y-58588500D01*
X36213000Y-58588500D01*
X36213000Y-58334500D01*
X36233000Y-58334500D01*
X36233000Y-57585250D01*
X36487000Y-57585250D01*
X36487000Y-58334500D01*
X37236250Y-58334500D01*
X37395000Y-58175750D01*
X37395000Y-57935190D01*
X37298327Y-57701801D01*
X37119698Y-57523173D01*
X36886309Y-57426500D01*
X36645750Y-57426500D01*
X36487000Y-57585250D01*
X36233000Y-57585250D01*
X36074250Y-57426500D01*
X35833691Y-57426500D01*
X35600302Y-57523173D01*
X35559047Y-57564427D01*
X35407765Y-57463343D01*
X35160000Y-57414060D01*
X34360000Y-57414060D01*
X34112235Y-57463343D01*
X33991206Y-57544213D01*
X33969809Y-57512191D01*
X33759765Y-57371843D01*
X33512000Y-57322560D01*
X33012000Y-57322560D01*
X32764235Y-57371843D01*
X32554191Y-57512191D01*
X32512000Y-57575334D01*
X32469809Y-57512191D01*
X32259765Y-57371843D01*
X32012000Y-57322560D01*
X31958500Y-57322560D01*
X31958500Y-53754850D01*
X32476200Y-53754850D01*
X32476200Y-53895410D01*
X32572873Y-54128799D01*
X32751502Y-54307427D01*
X32984891Y-54404100D01*
X33600450Y-54404100D01*
X33759200Y-54245350D01*
X33759200Y-53596100D01*
X34013200Y-53596100D01*
X34013200Y-54245350D01*
X34171950Y-54404100D01*
X34787509Y-54404100D01*
X35020898Y-54307427D01*
X35199527Y-54128799D01*
X35296200Y-53895410D01*
X35296200Y-53754850D01*
X35137450Y-53596100D01*
X34013200Y-53596100D01*
X33759200Y-53596100D01*
X32634950Y-53596100D01*
X32476200Y-53754850D01*
X31958500Y-53754850D01*
X31958500Y-52232855D01*
X32252256Y-51939100D01*
X32463760Y-51939100D01*
X32463760Y-52499100D01*
X32513043Y-52746865D01*
X32565968Y-52826072D01*
X32476200Y-53042790D01*
X32476200Y-53183350D01*
X32634950Y-53342100D01*
X33759200Y-53342100D01*
X33759200Y-53322100D01*
X34013200Y-53322100D01*
X34013200Y-53342100D01*
X35137450Y-53342100D01*
X35296200Y-53183350D01*
X35296200Y-53042790D01*
X35212090Y-52839731D01*
X35350829Y-52747029D01*
X35393231Y-52683571D01*
X35750973Y-52325829D01*
X35814429Y-52283429D01*
X35982404Y-52032037D01*
X36026500Y-51810352D01*
X36026500Y-51810348D01*
X36041388Y-51735501D01*
X36026500Y-51660654D01*
X36026500Y-50148745D01*
X36041388Y-50073898D01*
X36026500Y-49999051D01*
X36026500Y-49999046D01*
X35982404Y-49777361D01*
X35814429Y-49525969D01*
X35750970Y-49483567D01*
X35442033Y-49174630D01*
X35399631Y-49111171D01*
X35148239Y-48943196D01*
X35146821Y-48942914D01*
X35119009Y-48901291D01*
X34908965Y-48760943D01*
X34661200Y-48711660D01*
X33111200Y-48711660D01*
X32863435Y-48760943D01*
X32860624Y-48762821D01*
X32567878Y-48470077D01*
X32595940Y-48329000D01*
X32595940Y-47429000D01*
X32546657Y-47181235D01*
X32458500Y-47049300D01*
X32458500Y-45966301D01*
X32460700Y-45964101D01*
X32476200Y-45964101D01*
X32476200Y-45976102D01*
X32634948Y-45976102D01*
X32476200Y-46134850D01*
X32476200Y-46275410D01*
X32572873Y-46508799D01*
X32751502Y-46687427D01*
X32984891Y-46784100D01*
X33600450Y-46784100D01*
X33759200Y-46625350D01*
X33759200Y-45976100D01*
X33739200Y-45976100D01*
X33739200Y-45964101D01*
X34033200Y-45964101D01*
X34033200Y-45976100D01*
X34013200Y-45976100D01*
X34013200Y-46625350D01*
X34171950Y-46784100D01*
X34787509Y-46784100D01*
X35020898Y-46687427D01*
X35199527Y-46508799D01*
X35296200Y-46275410D01*
X35296200Y-46134850D01*
X35137452Y-45976102D01*
X35296200Y-45976102D01*
X35296200Y-45867578D01*
X35469130Y-45752030D01*
X35511532Y-45688571D01*
X35578060Y-45622043D01*
X35578060Y-46420500D01*
X35578060Y-46420500D01*
G37*
X35578060Y-46420500D02*
X35627343Y-46668265D01*
X35687000Y-46757547D01*
X35687000Y-46990000D01*
X35696667Y-47038601D01*
X35724197Y-47079803D01*
X38265001Y-49620607D01*
X38265001Y-71490714D01*
X28199104Y-71490714D01*
X29293818Y-70396000D01*
X29562787Y-70396000D01*
X30310735Y-70086190D01*
X30594201Y-69802724D01*
X33395882Y-69802724D01*
X33543455Y-70111106D01*
X34298031Y-70404405D01*
X35107409Y-70386614D01*
X35772545Y-70111106D01*
X35920118Y-69802724D01*
X34658000Y-68540605D01*
X33395882Y-69802724D01*
X30594201Y-69802724D01*
X30883190Y-69513735D01*
X31193000Y-68765787D01*
X31193000Y-68001031D01*
X32614595Y-68001031D01*
X32632386Y-68810409D01*
X32907894Y-69475545D01*
X33216276Y-69623118D01*
X34478395Y-68361000D01*
X34837605Y-68361000D01*
X36099724Y-69623118D01*
X36408106Y-69475545D01*
X36701405Y-68720969D01*
X36683614Y-67911591D01*
X36408106Y-67246455D01*
X36099724Y-67098882D01*
X34837605Y-68361000D01*
X34478395Y-68361000D01*
X33216276Y-67098882D01*
X32907894Y-67246455D01*
X32614595Y-68001031D01*
X31193000Y-68001031D01*
X31193000Y-67956213D01*
X30883190Y-67208265D01*
X30693000Y-67018075D01*
X30693000Y-66919276D01*
X33395882Y-66919276D01*
X34658000Y-68181395D01*
X35920118Y-66919276D01*
X35772545Y-66610894D01*
X35017969Y-66317595D01*
X34208591Y-66335386D01*
X33543455Y-66610894D01*
X33395882Y-66919276D01*
X30693000Y-66919276D01*
X30693000Y-65503925D01*
X30883190Y-65313735D01*
X31193000Y-64565787D01*
X31193000Y-64446750D01*
X32623000Y-64446750D01*
X32623000Y-65687309D01*
X32719673Y-65920698D01*
X32898301Y-66099327D01*
X33131690Y-66196000D01*
X34372250Y-66196000D01*
X34531000Y-66037250D01*
X34531000Y-64288000D01*
X34785000Y-64288000D01*
X34785000Y-66037250D01*
X34943750Y-66196000D01*
X36184310Y-66196000D01*
X36417699Y-66099327D01*
X36596327Y-65920698D01*
X36693000Y-65687309D01*
X36693000Y-64446750D01*
X36534250Y-64288000D01*
X34785000Y-64288000D01*
X34531000Y-64288000D01*
X32781750Y-64288000D01*
X32623000Y-64446750D01*
X31193000Y-64446750D01*
X31193000Y-63756213D01*
X31133877Y-63613478D01*
X31592338Y-63155017D01*
X31676669Y-63098669D01*
X31899899Y-62764582D01*
X31925736Y-62634691D01*
X32623000Y-62634691D01*
X32623000Y-63875250D01*
X32781750Y-64034000D01*
X34531000Y-64034000D01*
X34531000Y-62284750D01*
X34785000Y-62284750D01*
X34785000Y-64034000D01*
X36534250Y-64034000D01*
X36693000Y-63875250D01*
X36693000Y-62634691D01*
X36596327Y-62401302D01*
X36417699Y-62222673D01*
X36184310Y-62126000D01*
X34943750Y-62126000D01*
X34785000Y-62284750D01*
X34531000Y-62284750D01*
X34372250Y-62126000D01*
X33131690Y-62126000D01*
X32898301Y-62222673D01*
X32719673Y-62401302D01*
X32623000Y-62634691D01*
X31925736Y-62634691D01*
X31958500Y-62469976D01*
X31958500Y-62469972D01*
X31978286Y-62370501D01*
X31958500Y-62271030D01*
X31958500Y-59517440D01*
X32012000Y-59517440D01*
X32259765Y-59468157D01*
X32469809Y-59327809D01*
X32512000Y-59264666D01*
X32554191Y-59327809D01*
X32764235Y-59468157D01*
X33012000Y-59517440D01*
X33512000Y-59517440D01*
X33759765Y-59468157D01*
X33942361Y-59346150D01*
X34112235Y-59459657D01*
X34360000Y-59508940D01*
X35160000Y-59508940D01*
X35407765Y-59459657D01*
X35559047Y-59358573D01*
X35600302Y-59399827D01*
X35833691Y-59496500D01*
X36074250Y-59496500D01*
X36233000Y-59337750D01*
X36233000Y-58588500D01*
X36487000Y-58588500D01*
X36487000Y-59337750D01*
X36645750Y-59496500D01*
X36886309Y-59496500D01*
X37119698Y-59399827D01*
X37298327Y-59221199D01*
X37395000Y-58987810D01*
X37395000Y-58747250D01*
X37236250Y-58588500D01*
X36487000Y-58588500D01*
X36233000Y-58588500D01*
X36213000Y-58588500D01*
X36213000Y-58334500D01*
X36233000Y-58334500D01*
X36233000Y-57585250D01*
X36487000Y-57585250D01*
X36487000Y-58334500D01*
X37236250Y-58334500D01*
X37395000Y-58175750D01*
X37395000Y-57935190D01*
X37298327Y-57701801D01*
X37119698Y-57523173D01*
X36886309Y-57426500D01*
X36645750Y-57426500D01*
X36487000Y-57585250D01*
X36233000Y-57585250D01*
X36074250Y-57426500D01*
X35833691Y-57426500D01*
X35600302Y-57523173D01*
X35559047Y-57564427D01*
X35407765Y-57463343D01*
X35160000Y-57414060D01*
X34360000Y-57414060D01*
X34112235Y-57463343D01*
X33991206Y-57544213D01*
X33969809Y-57512191D01*
X33759765Y-57371843D01*
X33512000Y-57322560D01*
X33012000Y-57322560D01*
X32764235Y-57371843D01*
X32554191Y-57512191D01*
X32512000Y-57575334D01*
X32469809Y-57512191D01*
X32259765Y-57371843D01*
X32012000Y-57322560D01*
X31958500Y-57322560D01*
X31958500Y-53754850D01*
X32476200Y-53754850D01*
X32476200Y-53895410D01*
X32572873Y-54128799D01*
X32751502Y-54307427D01*
X32984891Y-54404100D01*
X33600450Y-54404100D01*
X33759200Y-54245350D01*
X33759200Y-53596100D01*
X34013200Y-53596100D01*
X34013200Y-54245350D01*
X34171950Y-54404100D01*
X34787509Y-54404100D01*
X35020898Y-54307427D01*
X35199527Y-54128799D01*
X35296200Y-53895410D01*
X35296200Y-53754850D01*
X35137450Y-53596100D01*
X34013200Y-53596100D01*
X33759200Y-53596100D01*
X32634950Y-53596100D01*
X32476200Y-53754850D01*
X31958500Y-53754850D01*
X31958500Y-52232855D01*
X32252256Y-51939100D01*
X32463760Y-51939100D01*
X32463760Y-52499100D01*
X32513043Y-52746865D01*
X32565968Y-52826072D01*
X32476200Y-53042790D01*
X32476200Y-53183350D01*
X32634950Y-53342100D01*
X33759200Y-53342100D01*
X33759200Y-53322100D01*
X34013200Y-53322100D01*
X34013200Y-53342100D01*
X35137450Y-53342100D01*
X35296200Y-53183350D01*
X35296200Y-53042790D01*
X35212090Y-52839731D01*
X35350829Y-52747029D01*
X35393231Y-52683571D01*
X35750973Y-52325829D01*
X35814429Y-52283429D01*
X35982404Y-52032037D01*
X36026500Y-51810352D01*
X36026500Y-51810348D01*
X36041388Y-51735501D01*
X36026500Y-51660654D01*
X36026500Y-50148745D01*
X36041388Y-50073898D01*
X36026500Y-49999051D01*
X36026500Y-49999046D01*
X35982404Y-49777361D01*
X35814429Y-49525969D01*
X35750970Y-49483567D01*
X35442033Y-49174630D01*
X35399631Y-49111171D01*
X35148239Y-48943196D01*
X35146821Y-48942914D01*
X35119009Y-48901291D01*
X34908965Y-48760943D01*
X34661200Y-48711660D01*
X33111200Y-48711660D01*
X32863435Y-48760943D01*
X32860624Y-48762821D01*
X32567878Y-48470077D01*
X32595940Y-48329000D01*
X32595940Y-47429000D01*
X32546657Y-47181235D01*
X32458500Y-47049300D01*
X32458500Y-45966301D01*
X32460700Y-45964101D01*
X32476200Y-45964101D01*
X32476200Y-45976102D01*
X32634948Y-45976102D01*
X32476200Y-46134850D01*
X32476200Y-46275410D01*
X32572873Y-46508799D01*
X32751502Y-46687427D01*
X32984891Y-46784100D01*
X33600450Y-46784100D01*
X33759200Y-46625350D01*
X33759200Y-45976100D01*
X33739200Y-45976100D01*
X33739200Y-45964101D01*
X34033200Y-45964101D01*
X34033200Y-45976100D01*
X34013200Y-45976100D01*
X34013200Y-46625350D01*
X34171950Y-46784100D01*
X34787509Y-46784100D01*
X35020898Y-46687427D01*
X35199527Y-46508799D01*
X35296200Y-46275410D01*
X35296200Y-46134850D01*
X35137452Y-45976102D01*
X35296200Y-45976102D01*
X35296200Y-45867578D01*
X35469130Y-45752030D01*
X35511532Y-45688571D01*
X35578060Y-45622043D01*
X35578060Y-46420500D01*
M02*
