G04 #@! TF.GenerationSoftware,KiCad,Pcbnew,(5.0.0-rc2-dev-311-g1dd4af297)*
G04 #@! TF.CreationDate,2018-04-09T10:09:18+02:00*
G04 #@! TF.ProjectId,DopplerXmega,446F70706C6572586D6567612E6B6963,rev?*
G04 #@! TF.SameCoordinates,PX6d01460PY3dc4fd0*
G04 #@! TF.FileFunction,Soldermask,Top*
G04 #@! TF.FilePolarity,Negative*
%FSLAX46Y46*%
G04 Gerber Fmt 4.6, Leading zero omitted, Abs format (unit mm)*
G04 Created by KiCad (PCBNEW (5.0.0-rc2-dev-311-g1dd4af297)) date 04/09/18 10:09:18*
%MOMM*%
%LPD*%
G01*
G04 APERTURE LIST*
%ADD10C,2.000000*%
%ADD11O,1.700000X3.700000*%
%ADD12O,3.200000X1.700000*%
%ADD13O,14.200000X3.200000*%
%ADD14R,1.400000X1.500000*%
%ADD15C,3.400000*%
%ADD16R,1.900000X1.900000*%
%ADD17O,1.900000X1.900000*%
%ADD18R,0.700000X1.100000*%
%ADD19R,1.100000X0.700000*%
%ADD20R,0.750000X1.700000*%
%ADD21R,1.700000X0.750000*%
%ADD22C,1.500000*%
%ADD23C,0.100000*%
%ADD24R,1.000000X0.950000*%
%ADD25R,4.000000X2.200000*%
%ADD26R,1.700000X2.200000*%
%ADD27R,1.400000X1.600000*%
%ADD28R,1.200000X1.600000*%
%ADD29R,0.600000X1.550000*%
%ADD30O,1.450000X1.150000*%
%ADD31O,1.200000X1.750000*%
%ADD32R,0.950000X1.000000*%
%ADD33R,1.800000X3.200000*%
%ADD34R,1.200000X1.350000*%
%ADD35R,2.380000X1.800000*%
%ADD36R,1.100000X1.000000*%
%ADD37C,0.950000*%
%ADD38R,1.000000X1.000000*%
%ADD39R,3.700000X3.500000*%
%ADD40R,4.200000X4.200000*%
G04 APERTURE END LIST*
D10*
X47986000Y-13588000D03*
X83586000Y-13588000D03*
D11*
X47636000Y-38088000D03*
X83936000Y-38088000D03*
D12*
X57786000Y-40988000D03*
X73786000Y-40988000D03*
D13*
X65786000Y-44088000D03*
D14*
X18558000Y-30550000D03*
X18558000Y-32950000D03*
X20558000Y-32950000D03*
X20558000Y-30550000D03*
D15*
X3556000Y-60452000D03*
D16*
X16764000Y-38354000D03*
D17*
X19304000Y-38354000D03*
X16764000Y-40894000D03*
X19304000Y-40894000D03*
X16764000Y-43434000D03*
X19304000Y-43434000D03*
X16764000Y-45974000D03*
X19304000Y-45974000D03*
X16764000Y-48514000D03*
X19304000Y-48514000D03*
X16764000Y-51054000D03*
X19304000Y-51054000D03*
X16764000Y-53594000D03*
X19304000Y-53594000D03*
X16764000Y-56134000D03*
X19304000Y-56134000D03*
D18*
X73164000Y-8890000D03*
X74664000Y-8890000D03*
D19*
X30988000Y-4457000D03*
X30988000Y-5957000D03*
D20*
X30449000Y-36910000D03*
X31249000Y-36910000D03*
X32049000Y-36910000D03*
X32849000Y-36910000D03*
X33649000Y-36910000D03*
X34449000Y-36910000D03*
X35249000Y-36910000D03*
X36049000Y-36910000D03*
X36849000Y-36910000D03*
X37649000Y-36910000D03*
X38449000Y-36910000D03*
X39249000Y-36910000D03*
X40049000Y-36910000D03*
X40849000Y-36910000D03*
X41649000Y-36910000D03*
X42449000Y-36910000D03*
D21*
X44149000Y-35210000D03*
X44149000Y-34410000D03*
X44149000Y-33610000D03*
X44149000Y-32810000D03*
X44149000Y-32010000D03*
X44149000Y-31210000D03*
X44149000Y-30410000D03*
X44149000Y-29610000D03*
X44149000Y-28810000D03*
X44149000Y-28010000D03*
X44149000Y-27210000D03*
X44149000Y-26410000D03*
X44149000Y-25610000D03*
X44149000Y-24810000D03*
X44149000Y-24010000D03*
X44149000Y-23210000D03*
D20*
X42449000Y-21510000D03*
X41649000Y-21510000D03*
X40849000Y-21510000D03*
X40049000Y-21510000D03*
X39249000Y-21510000D03*
X38449000Y-21510000D03*
X37649000Y-21510000D03*
X36849000Y-21510000D03*
X36049000Y-21510000D03*
X35249000Y-21510000D03*
X34449000Y-21510000D03*
X33649000Y-21510000D03*
X32849000Y-21510000D03*
X32049000Y-21510000D03*
X31249000Y-21510000D03*
X30449000Y-21510000D03*
D21*
X28749000Y-23210000D03*
X28749000Y-24010000D03*
X28749000Y-24810000D03*
X28749000Y-25610000D03*
X28749000Y-26410000D03*
X28749000Y-27210000D03*
X28749000Y-28010000D03*
X28749000Y-28810000D03*
X28749000Y-29610000D03*
X28749000Y-30410000D03*
X28749000Y-31210000D03*
X28749000Y-32010000D03*
X28749000Y-32810000D03*
X28749000Y-33610000D03*
X28749000Y-34410000D03*
X28749000Y-35210000D03*
D15*
X82423000Y-3556000D03*
D22*
X28904827Y-17553914D03*
D23*
G36*
X29116959Y-18826706D02*
X27632035Y-17341782D01*
X28692695Y-16281122D01*
X30177619Y-17766046D01*
X29116959Y-18826706D01*
X29116959Y-18826706D01*
G37*
D22*
X32793914Y-13664827D03*
D23*
G36*
X33006046Y-14937619D02*
X31521122Y-13452695D01*
X32581782Y-12392035D01*
X34066706Y-13876959D01*
X33006046Y-14937619D01*
X33006046Y-14937619D01*
G37*
D22*
X30531173Y-11402086D03*
D23*
G36*
X30743305Y-12674878D02*
X29258381Y-11189954D01*
X30319041Y-10129294D01*
X31803965Y-11614218D01*
X30743305Y-12674878D01*
X30743305Y-12674878D01*
G37*
D22*
X26642086Y-15291173D03*
D23*
G36*
X26854218Y-16563965D02*
X25369294Y-15079041D01*
X26429954Y-14018381D01*
X27914878Y-15503305D01*
X26854218Y-16563965D01*
X26854218Y-16563965D01*
G37*
D15*
X82423000Y-60325000D03*
D24*
X33998600Y-19558000D03*
X32498600Y-19558000D03*
D25*
X45847000Y-3835000D03*
D26*
X45847000Y-10135000D03*
X48147000Y-10135000D03*
X43547000Y-10135000D03*
D27*
X39632000Y-8044000D03*
D28*
X37912000Y-8044000D03*
X37912000Y-10244000D03*
X39812000Y-10244000D03*
D29*
X37876000Y-5287000D03*
X37226000Y-5287000D03*
X36576000Y-5287000D03*
X35926000Y-5287000D03*
X35276000Y-5287000D03*
D30*
X39076000Y-5287000D03*
X34076000Y-5287000D03*
D31*
X40076000Y-2587000D03*
X33076000Y-2587000D03*
D32*
X50355500Y-9219500D03*
X50355500Y-10719500D03*
D33*
X53975000Y-5229500D03*
X53975000Y-9629500D03*
D34*
X23687000Y-32904400D03*
X23687000Y-31154400D03*
X22287000Y-31154400D03*
X22287000Y-32904400D03*
D32*
X26797000Y-30466600D03*
X26797000Y-31966600D03*
X25273000Y-32754000D03*
X25273000Y-31254000D03*
D24*
X40499600Y-38862000D03*
X41999600Y-38862000D03*
D32*
X46101000Y-29960000D03*
X46101000Y-28460000D03*
D24*
X41999600Y-19558000D03*
X40499600Y-19558000D03*
D32*
X26797000Y-25259600D03*
X26797000Y-26759600D03*
D24*
X23786400Y-34721800D03*
X25286400Y-34721800D03*
D18*
X22340000Y-35306000D03*
X20840000Y-35306000D03*
D24*
X19062000Y-28956000D03*
X20562000Y-28956000D03*
X60718000Y-10668000D03*
X62218000Y-10668000D03*
X63766000Y-10668000D03*
X65266000Y-10668000D03*
X59170000Y-10668000D03*
X57670000Y-10668000D03*
D19*
X80518000Y-44438000D03*
X80518000Y-42938000D03*
D18*
X66282000Y-53086000D03*
X64782000Y-53086000D03*
D19*
X61468000Y-46748000D03*
X61468000Y-48248000D03*
D18*
X56122000Y-53086000D03*
X54622000Y-53086000D03*
D35*
X69232000Y-55880000D03*
X61832000Y-55880000D03*
X69232000Y-49784000D03*
X61832000Y-49784000D03*
X59072000Y-55880000D03*
X51672000Y-55880000D03*
D18*
X76442000Y-53086000D03*
X74942000Y-53086000D03*
D35*
X79392000Y-55880000D03*
X71992000Y-55880000D03*
D36*
X76724000Y-43246000D03*
X76724000Y-45146000D03*
X78724000Y-44196000D03*
D19*
X74930000Y-42938000D03*
X74930000Y-44438000D03*
D16*
X12192000Y-26670000D03*
D17*
X14732000Y-26670000D03*
X12192000Y-29210000D03*
X14732000Y-29210000D03*
X12192000Y-31750000D03*
X14732000Y-31750000D03*
D37*
X33759670Y-15770330D03*
D23*
G36*
X33777348Y-15080901D02*
X34449099Y-15752652D01*
X33741992Y-16459759D01*
X33070241Y-15788008D01*
X33777348Y-15080901D01*
X33777348Y-15080901D01*
G37*
D37*
X34820330Y-14709670D03*
D23*
G36*
X34838008Y-14020241D02*
X35509759Y-14691992D01*
X34802652Y-15399099D01*
X34130901Y-14727348D01*
X34838008Y-14020241D01*
X34838008Y-14020241D01*
G37*
D37*
X32788330Y-16741670D03*
D23*
G36*
X32770652Y-17431099D02*
X32098901Y-16759348D01*
X32806008Y-16052241D01*
X33477759Y-16723992D01*
X32770652Y-17431099D01*
X32770652Y-17431099D01*
G37*
D37*
X31727670Y-17802330D03*
D23*
G36*
X31709992Y-18491759D02*
X31038241Y-17820008D01*
X31745348Y-17112901D01*
X32417099Y-17784652D01*
X31709992Y-18491759D01*
X31709992Y-18491759D01*
G37*
D18*
X73164000Y-10668000D03*
X74664000Y-10668000D03*
D16*
X25908000Y-46990000D03*
D17*
X25908000Y-44450000D03*
X28448000Y-46990000D03*
X28448000Y-44450000D03*
X30988000Y-46990000D03*
X30988000Y-44450000D03*
X33528000Y-46990000D03*
X33528000Y-44450000D03*
X36068000Y-46990000D03*
X36068000Y-44450000D03*
X38608000Y-46990000D03*
X38608000Y-44450000D03*
X41148000Y-46990000D03*
X41148000Y-44450000D03*
X43688000Y-46990000D03*
X43688000Y-44450000D03*
D16*
X25908000Y-56134000D03*
D17*
X25908000Y-53594000D03*
X28448000Y-56134000D03*
X28448000Y-53594000D03*
X30988000Y-56134000D03*
X30988000Y-53594000D03*
X33528000Y-56134000D03*
X33528000Y-53594000D03*
X36068000Y-56134000D03*
X36068000Y-53594000D03*
X38608000Y-56134000D03*
X38608000Y-53594000D03*
X41148000Y-56134000D03*
X41148000Y-53594000D03*
X43688000Y-56134000D03*
X43688000Y-53594000D03*
D16*
X7620000Y-38354000D03*
D17*
X10160000Y-38354000D03*
X7620000Y-40894000D03*
X10160000Y-40894000D03*
X7620000Y-43434000D03*
X10160000Y-43434000D03*
X7620000Y-45974000D03*
X10160000Y-45974000D03*
X7620000Y-48514000D03*
X10160000Y-48514000D03*
X7620000Y-51054000D03*
X10160000Y-51054000D03*
X7620000Y-53594000D03*
X10160000Y-53594000D03*
X7620000Y-56134000D03*
X10160000Y-56134000D03*
D16*
X7620000Y-17526000D03*
D17*
X7620000Y-20066000D03*
D15*
X3556000Y-3556000D03*
D38*
X59474000Y-7112000D03*
X57874000Y-7112000D03*
D18*
X57924000Y-5080000D03*
X59424000Y-5080000D03*
D38*
X77216000Y-9106000D03*
X77216000Y-10706000D03*
X79502000Y-9106000D03*
X79502000Y-10706000D03*
X81788000Y-9106000D03*
X81788000Y-10706000D03*
D18*
X73164000Y-7112000D03*
X74664000Y-7112000D03*
X73164000Y-5334000D03*
X74664000Y-5334000D03*
X73164000Y-3556000D03*
X74664000Y-3556000D03*
D39*
X27585000Y-6985000D03*
X11785000Y-6985000D03*
D40*
X19685000Y-6985000D03*
M02*
