G04 #@! TF.GenerationSoftware,KiCad,Pcbnew,(5.0.0-rc2-dev-311-g1dd4af297)*
G04 #@! TF.CreationDate,2018-04-09T10:09:18+02:00*
G04 #@! TF.ProjectId,DopplerXmega,446F70706C6572586D6567612E6B6963,rev?*
G04 #@! TF.SameCoordinates,PX6d01460PY3dc4fd0*
G04 #@! TF.FileFunction,Legend,Top*
G04 #@! TF.FilePolarity,Positive*
%FSLAX46Y46*%
G04 Gerber Fmt 4.6, Leading zero omitted, Abs format (unit mm)*
G04 Created by KiCad (PCBNEW (5.0.0-rc2-dev-311-g1dd4af297)) date 04/09/18 10:09:18*
%MOMM*%
%LPD*%
G01*
G04 APERTURE LIST*
%ADD10C,0.200000*%
%ADD11C,0.150000*%
%ADD12C,0.120000*%
G04 APERTURE END LIST*
D10*
X77577904Y-7962571D02*
X76777904Y-7962571D01*
X76777904Y-7657809D01*
X76816000Y-7581619D01*
X76854095Y-7543523D01*
X76930285Y-7505428D01*
X77044571Y-7505428D01*
X77120761Y-7543523D01*
X77158857Y-7581619D01*
X77196952Y-7657809D01*
X77196952Y-7962571D01*
X77577904Y-6705428D02*
X77196952Y-6972095D01*
X77577904Y-7162571D02*
X76777904Y-7162571D01*
X76777904Y-6857809D01*
X76816000Y-6781619D01*
X76854095Y-6743523D01*
X76930285Y-6705428D01*
X77044571Y-6705428D01*
X77120761Y-6743523D01*
X77158857Y-6781619D01*
X77196952Y-6857809D01*
X77196952Y-7162571D01*
X76777904Y-6210190D02*
X76777904Y-6057809D01*
X76816000Y-5981619D01*
X76892190Y-5905428D01*
X77044571Y-5867333D01*
X77311238Y-5867333D01*
X77463619Y-5905428D01*
X77539809Y-5981619D01*
X77577904Y-6057809D01*
X77577904Y-6210190D01*
X77539809Y-6286380D01*
X77463619Y-6362571D01*
X77311238Y-6400666D01*
X77044571Y-6400666D01*
X76892190Y-6362571D01*
X76816000Y-6286380D01*
X76777904Y-6210190D01*
X76816000Y-5105428D02*
X76777904Y-5181619D01*
X76777904Y-5295904D01*
X76816000Y-5410190D01*
X76892190Y-5486380D01*
X76968380Y-5524476D01*
X77120761Y-5562571D01*
X77235047Y-5562571D01*
X77387428Y-5524476D01*
X77463619Y-5486380D01*
X77539809Y-5410190D01*
X77577904Y-5295904D01*
X77577904Y-5219714D01*
X77539809Y-5105428D01*
X77501714Y-5067333D01*
X77235047Y-5067333D01*
X77235047Y-5219714D01*
X77577904Y-4267333D02*
X77196952Y-4534000D01*
X77577904Y-4724476D02*
X76777904Y-4724476D01*
X76777904Y-4419714D01*
X76816000Y-4343523D01*
X76854095Y-4305428D01*
X76930285Y-4267333D01*
X77044571Y-4267333D01*
X77120761Y-4305428D01*
X77158857Y-4343523D01*
X77196952Y-4419714D01*
X77196952Y-4724476D01*
X77349333Y-3962571D02*
X77349333Y-3581619D01*
X77577904Y-4038761D02*
X76777904Y-3772095D01*
X77577904Y-3505428D01*
X77577904Y-3238761D02*
X76777904Y-3238761D01*
X77349333Y-2972095D01*
X76777904Y-2705428D01*
X77577904Y-2705428D01*
X64732000Y-58870857D02*
X64465333Y-58870857D01*
X64465333Y-59289904D02*
X64465333Y-58489904D01*
X64846285Y-58489904D01*
X65532000Y-59289904D02*
X65151047Y-59289904D01*
X65151047Y-58489904D01*
X65798666Y-59289904D02*
X65798666Y-58489904D01*
X66179619Y-59289904D02*
X66179619Y-58489904D01*
X66484380Y-58489904D01*
X66560571Y-58528000D01*
X66598666Y-58566095D01*
X66636761Y-58642285D01*
X66636761Y-58756571D01*
X66598666Y-58832761D01*
X66560571Y-58870857D01*
X66484380Y-58908952D01*
X66179619Y-58908952D01*
X9620285Y-31273809D02*
X9582190Y-31235714D01*
X9544095Y-31121428D01*
X9544095Y-31045238D01*
X9582190Y-30930952D01*
X9658380Y-30854761D01*
X9734571Y-30816666D01*
X9886952Y-30778571D01*
X10001238Y-30778571D01*
X10153619Y-30816666D01*
X10229809Y-30854761D01*
X10306000Y-30930952D01*
X10344095Y-31045238D01*
X10344095Y-31121428D01*
X10306000Y-31235714D01*
X10267904Y-31273809D01*
X9544095Y-31997619D02*
X9544095Y-31616666D01*
X10344095Y-31616666D01*
X9544095Y-32264285D02*
X10344095Y-32264285D01*
X9544095Y-32721428D02*
X10001238Y-32378571D01*
X10344095Y-32721428D02*
X9886952Y-32264285D01*
X9544095Y-25470000D02*
X10344095Y-25470000D01*
X10344095Y-25660476D01*
X10306000Y-25774761D01*
X10229809Y-25850952D01*
X10153619Y-25889047D01*
X10001238Y-25927142D01*
X9886952Y-25927142D01*
X9734571Y-25889047D01*
X9658380Y-25850952D01*
X9582190Y-25774761D01*
X9544095Y-25660476D01*
X9544095Y-25470000D01*
X9772666Y-26231904D02*
X9772666Y-26612857D01*
X9544095Y-26155714D02*
X10344095Y-26422380D01*
X9544095Y-26689047D01*
X10344095Y-26841428D02*
X10344095Y-27298571D01*
X9544095Y-27070000D02*
X10344095Y-27070000D01*
X9772666Y-27527142D02*
X9772666Y-27908095D01*
X9544095Y-27450952D02*
X10344095Y-27717619D01*
X9544095Y-27984285D01*
X17418000Y-31140476D02*
X17456095Y-31064285D01*
X17456095Y-30950000D01*
X17418000Y-30835714D01*
X17341809Y-30759523D01*
X17265619Y-30721428D01*
X17113238Y-30683333D01*
X16998952Y-30683333D01*
X16846571Y-30721428D01*
X16770380Y-30759523D01*
X16694190Y-30835714D01*
X16656095Y-30950000D01*
X16656095Y-31026190D01*
X16694190Y-31140476D01*
X16732285Y-31178571D01*
X16998952Y-31178571D01*
X16998952Y-31026190D01*
X16656095Y-31521428D02*
X17456095Y-31521428D01*
X16656095Y-31978571D01*
X17456095Y-31978571D01*
X16656095Y-32359523D02*
X17456095Y-32359523D01*
X17456095Y-32550000D01*
X17418000Y-32664285D01*
X17341809Y-32740476D01*
X17265619Y-32778571D01*
X17113238Y-32816666D01*
X16998952Y-32816666D01*
X16846571Y-32778571D01*
X16770380Y-32740476D01*
X16694190Y-32664285D01*
X16656095Y-32550000D01*
X16656095Y-32359523D01*
X17456095Y-25679523D02*
X17456095Y-26174761D01*
X17151333Y-25908095D01*
X17151333Y-26022380D01*
X17113238Y-26098571D01*
X17075142Y-26136666D01*
X16998952Y-26174761D01*
X16808476Y-26174761D01*
X16732285Y-26136666D01*
X16694190Y-26098571D01*
X16656095Y-26022380D01*
X16656095Y-25793809D01*
X16694190Y-25717619D01*
X16732285Y-25679523D01*
X17456095Y-26403333D02*
X16656095Y-26670000D01*
X17456095Y-26936666D01*
X17456095Y-27127142D02*
X17456095Y-27622380D01*
X17151333Y-27355714D01*
X17151333Y-27470000D01*
X17113238Y-27546190D01*
X17075142Y-27584285D01*
X16998952Y-27622380D01*
X16808476Y-27622380D01*
X16732285Y-27584285D01*
X16694190Y-27546190D01*
X16656095Y-27470000D01*
X16656095Y-27241428D01*
X16694190Y-27165238D01*
X16732285Y-27127142D01*
X4845095Y-19113619D02*
X5645095Y-19113619D01*
X5645095Y-19418380D01*
X5607000Y-19494571D01*
X5568904Y-19532666D01*
X5492714Y-19570761D01*
X5378428Y-19570761D01*
X5302238Y-19532666D01*
X5264142Y-19494571D01*
X5226047Y-19418380D01*
X5226047Y-19113619D01*
X5264142Y-19913619D02*
X5264142Y-20180285D01*
X4845095Y-20294571D02*
X4845095Y-19913619D01*
X5645095Y-19913619D01*
X5645095Y-20294571D01*
X4845095Y-21056476D02*
X4845095Y-20599333D01*
X4845095Y-20827904D02*
X5645095Y-20827904D01*
X5530809Y-20751714D01*
X5454619Y-20675523D01*
X5416523Y-20599333D01*
X4845095Y-16573619D02*
X5645095Y-16573619D01*
X5645095Y-16878380D01*
X5607000Y-16954571D01*
X5568904Y-16992666D01*
X5492714Y-17030761D01*
X5378428Y-17030761D01*
X5302238Y-16992666D01*
X5264142Y-16954571D01*
X5226047Y-16878380D01*
X5226047Y-16573619D01*
X5264142Y-17373619D02*
X5264142Y-17640285D01*
X4845095Y-17754571D02*
X4845095Y-17373619D01*
X5645095Y-17373619D01*
X5645095Y-17754571D01*
X5645095Y-18249809D02*
X5645095Y-18326000D01*
X5607000Y-18402190D01*
X5568904Y-18440285D01*
X5492714Y-18478380D01*
X5340333Y-18516476D01*
X5149857Y-18516476D01*
X4997476Y-18478380D01*
X4921285Y-18440285D01*
X4883190Y-18402190D01*
X4845095Y-18326000D01*
X4845095Y-18249809D01*
X4883190Y-18173619D01*
X4921285Y-18135523D01*
X4997476Y-18097428D01*
X5149857Y-18059333D01*
X5340333Y-18059333D01*
X5492714Y-18097428D01*
X5568904Y-18135523D01*
X5607000Y-18173619D01*
X5645095Y-18249809D01*
X12884095Y-51333523D02*
X12884095Y-51828761D01*
X12579333Y-51562095D01*
X12579333Y-51676380D01*
X12541238Y-51752571D01*
X12503142Y-51790666D01*
X12426952Y-51828761D01*
X12236476Y-51828761D01*
X12160285Y-51790666D01*
X12122190Y-51752571D01*
X12084095Y-51676380D01*
X12084095Y-51447809D01*
X12122190Y-51371619D01*
X12160285Y-51333523D01*
X12884095Y-52057333D02*
X12084095Y-52324000D01*
X12884095Y-52590666D01*
X12884095Y-52781142D02*
X12884095Y-53276380D01*
X12579333Y-53009714D01*
X12579333Y-53124000D01*
X12541238Y-53200190D01*
X12503142Y-53238285D01*
X12426952Y-53276380D01*
X12236476Y-53276380D01*
X12160285Y-53238285D01*
X12122190Y-53200190D01*
X12084095Y-53124000D01*
X12084095Y-52895428D01*
X12122190Y-52819238D01*
X12160285Y-52781142D01*
X5734000Y-51714476D02*
X5772095Y-51638285D01*
X5772095Y-51524000D01*
X5734000Y-51409714D01*
X5657809Y-51333523D01*
X5581619Y-51295428D01*
X5429238Y-51257333D01*
X5314952Y-51257333D01*
X5162571Y-51295428D01*
X5086380Y-51333523D01*
X5010190Y-51409714D01*
X4972095Y-51524000D01*
X4972095Y-51600190D01*
X5010190Y-51714476D01*
X5048285Y-51752571D01*
X5314952Y-51752571D01*
X5314952Y-51600190D01*
X4972095Y-52095428D02*
X5772095Y-52095428D01*
X4972095Y-52552571D01*
X5772095Y-52552571D01*
X4972095Y-52933523D02*
X5772095Y-52933523D01*
X5772095Y-53124000D01*
X5734000Y-53238285D01*
X5657809Y-53314476D01*
X5581619Y-53352571D01*
X5429238Y-53390666D01*
X5314952Y-53390666D01*
X5162571Y-53352571D01*
X5086380Y-53314476D01*
X5010190Y-53238285D01*
X4972095Y-53124000D01*
X4972095Y-52933523D01*
X4972095Y-45040666D02*
X5772095Y-45040666D01*
X5772095Y-45345428D01*
X5734000Y-45421619D01*
X5695904Y-45459714D01*
X5619714Y-45497809D01*
X5505428Y-45497809D01*
X5429238Y-45459714D01*
X5391142Y-45421619D01*
X5353047Y-45345428D01*
X5353047Y-45040666D01*
X5391142Y-46107333D02*
X5391142Y-45840666D01*
X4972095Y-45840666D02*
X5772095Y-45840666D01*
X5772095Y-46221619D01*
X5772095Y-46869238D02*
X5772095Y-46716857D01*
X5734000Y-46640666D01*
X5695904Y-46602571D01*
X5581619Y-46526380D01*
X5429238Y-46488285D01*
X5124476Y-46488285D01*
X5048285Y-46526380D01*
X5010190Y-46564476D01*
X4972095Y-46640666D01*
X4972095Y-46793047D01*
X5010190Y-46869238D01*
X5048285Y-46907333D01*
X5124476Y-46945428D01*
X5314952Y-46945428D01*
X5391142Y-46907333D01*
X5429238Y-46869238D01*
X5467333Y-46793047D01*
X5467333Y-46640666D01*
X5429238Y-46564476D01*
X5391142Y-46526380D01*
X5314952Y-46488285D01*
X4972095Y-42500666D02*
X5772095Y-42500666D01*
X5772095Y-42805428D01*
X5734000Y-42881619D01*
X5695904Y-42919714D01*
X5619714Y-42957809D01*
X5505428Y-42957809D01*
X5429238Y-42919714D01*
X5391142Y-42881619D01*
X5353047Y-42805428D01*
X5353047Y-42500666D01*
X5391142Y-43567333D02*
X5391142Y-43300666D01*
X4972095Y-43300666D02*
X5772095Y-43300666D01*
X5772095Y-43681619D01*
X5505428Y-44329238D02*
X4972095Y-44329238D01*
X5810190Y-44138761D02*
X5238761Y-43948285D01*
X5238761Y-44443523D01*
X4972095Y-39960666D02*
X5772095Y-39960666D01*
X5772095Y-40265428D01*
X5734000Y-40341619D01*
X5695904Y-40379714D01*
X5619714Y-40417809D01*
X5505428Y-40417809D01*
X5429238Y-40379714D01*
X5391142Y-40341619D01*
X5353047Y-40265428D01*
X5353047Y-39960666D01*
X5391142Y-41027333D02*
X5391142Y-40760666D01*
X4972095Y-40760666D02*
X5772095Y-40760666D01*
X5772095Y-41141619D01*
X5695904Y-41408285D02*
X5734000Y-41446380D01*
X5772095Y-41522571D01*
X5772095Y-41713047D01*
X5734000Y-41789238D01*
X5695904Y-41827333D01*
X5619714Y-41865428D01*
X5543523Y-41865428D01*
X5429238Y-41827333D01*
X4972095Y-41370190D01*
X4972095Y-41865428D01*
X12084095Y-45040666D02*
X12884095Y-45040666D01*
X12884095Y-45345428D01*
X12846000Y-45421619D01*
X12807904Y-45459714D01*
X12731714Y-45497809D01*
X12617428Y-45497809D01*
X12541238Y-45459714D01*
X12503142Y-45421619D01*
X12465047Y-45345428D01*
X12465047Y-45040666D01*
X12503142Y-46107333D02*
X12503142Y-45840666D01*
X12084095Y-45840666D02*
X12884095Y-45840666D01*
X12884095Y-46221619D01*
X12884095Y-46450190D02*
X12884095Y-46983523D01*
X12084095Y-46640666D01*
X12084095Y-42805428D02*
X12884095Y-42805428D01*
X12084095Y-43262571D01*
X12884095Y-43262571D01*
X12160285Y-44100666D02*
X12122190Y-44062571D01*
X12084095Y-43948285D01*
X12084095Y-43872095D01*
X12122190Y-43757809D01*
X12198380Y-43681619D01*
X12274571Y-43643523D01*
X12426952Y-43605428D01*
X12541238Y-43605428D01*
X12693619Y-43643523D01*
X12769809Y-43681619D01*
X12846000Y-43757809D01*
X12884095Y-43872095D01*
X12884095Y-43948285D01*
X12846000Y-44062571D01*
X12807904Y-44100666D01*
X12084095Y-39960666D02*
X12884095Y-39960666D01*
X12884095Y-40265428D01*
X12846000Y-40341619D01*
X12807904Y-40379714D01*
X12731714Y-40417809D01*
X12617428Y-40417809D01*
X12541238Y-40379714D01*
X12503142Y-40341619D01*
X12465047Y-40265428D01*
X12465047Y-39960666D01*
X12503142Y-41027333D02*
X12503142Y-40760666D01*
X12084095Y-40760666D02*
X12884095Y-40760666D01*
X12884095Y-41141619D01*
X12884095Y-41370190D02*
X12884095Y-41865428D01*
X12579333Y-41598761D01*
X12579333Y-41713047D01*
X12541238Y-41789238D01*
X12503142Y-41827333D01*
X12426952Y-41865428D01*
X12236476Y-41865428D01*
X12160285Y-41827333D01*
X12122190Y-41789238D01*
X12084095Y-41713047D01*
X12084095Y-41484476D01*
X12122190Y-41408285D01*
X12160285Y-41370190D01*
X12084095Y-37420666D02*
X12884095Y-37420666D01*
X12884095Y-37725428D01*
X12846000Y-37801619D01*
X12807904Y-37839714D01*
X12731714Y-37877809D01*
X12617428Y-37877809D01*
X12541238Y-37839714D01*
X12503142Y-37801619D01*
X12465047Y-37725428D01*
X12465047Y-37420666D01*
X12503142Y-38487333D02*
X12503142Y-38220666D01*
X12084095Y-38220666D02*
X12884095Y-38220666D01*
X12884095Y-38601619D01*
X12084095Y-39325428D02*
X12084095Y-38868285D01*
X12084095Y-39096857D02*
X12884095Y-39096857D01*
X12769809Y-39020666D01*
X12693619Y-38944476D01*
X12655523Y-38868285D01*
X4972095Y-37420666D02*
X5772095Y-37420666D01*
X5772095Y-37725428D01*
X5734000Y-37801619D01*
X5695904Y-37839714D01*
X5619714Y-37877809D01*
X5505428Y-37877809D01*
X5429238Y-37839714D01*
X5391142Y-37801619D01*
X5353047Y-37725428D01*
X5353047Y-37420666D01*
X5391142Y-38487333D02*
X5391142Y-38220666D01*
X4972095Y-38220666D02*
X5772095Y-38220666D01*
X5772095Y-38601619D01*
X5772095Y-39058761D02*
X5772095Y-39134952D01*
X5734000Y-39211142D01*
X5695904Y-39249238D01*
X5619714Y-39287333D01*
X5467333Y-39325428D01*
X5276857Y-39325428D01*
X5124476Y-39287333D01*
X5048285Y-39249238D01*
X5010190Y-39211142D01*
X4972095Y-39134952D01*
X4972095Y-39058761D01*
X5010190Y-38982571D01*
X5048285Y-38944476D01*
X5124476Y-38906380D01*
X5276857Y-38868285D01*
X5467333Y-38868285D01*
X5619714Y-38906380D01*
X5695904Y-38944476D01*
X5734000Y-38982571D01*
X5772095Y-39058761D01*
X14878000Y-51714476D02*
X14916095Y-51638285D01*
X14916095Y-51524000D01*
X14878000Y-51409714D01*
X14801809Y-51333523D01*
X14725619Y-51295428D01*
X14573238Y-51257333D01*
X14458952Y-51257333D01*
X14306571Y-51295428D01*
X14230380Y-51333523D01*
X14154190Y-51409714D01*
X14116095Y-51524000D01*
X14116095Y-51600190D01*
X14154190Y-51714476D01*
X14192285Y-51752571D01*
X14458952Y-51752571D01*
X14458952Y-51600190D01*
X14116095Y-52095428D02*
X14916095Y-52095428D01*
X14116095Y-52552571D01*
X14916095Y-52552571D01*
X14116095Y-52933523D02*
X14916095Y-52933523D01*
X14916095Y-53124000D01*
X14878000Y-53238285D01*
X14801809Y-53314476D01*
X14725619Y-53352571D01*
X14573238Y-53390666D01*
X14458952Y-53390666D01*
X14306571Y-53352571D01*
X14230380Y-53314476D01*
X14154190Y-53238285D01*
X14116095Y-53124000D01*
X14116095Y-52933523D01*
X22028095Y-51333523D02*
X22028095Y-51828761D01*
X21723333Y-51562095D01*
X21723333Y-51676380D01*
X21685238Y-51752571D01*
X21647142Y-51790666D01*
X21570952Y-51828761D01*
X21380476Y-51828761D01*
X21304285Y-51790666D01*
X21266190Y-51752571D01*
X21228095Y-51676380D01*
X21228095Y-51447809D01*
X21266190Y-51371619D01*
X21304285Y-51333523D01*
X22028095Y-52057333D02*
X21228095Y-52324000D01*
X22028095Y-52590666D01*
X22028095Y-52781142D02*
X22028095Y-53276380D01*
X21723333Y-53009714D01*
X21723333Y-53124000D01*
X21685238Y-53200190D01*
X21647142Y-53238285D01*
X21570952Y-53276380D01*
X21380476Y-53276380D01*
X21304285Y-53238285D01*
X21266190Y-53200190D01*
X21228095Y-53124000D01*
X21228095Y-52895428D01*
X21266190Y-52819238D01*
X21304285Y-52781142D01*
X14116095Y-37420666D02*
X14916095Y-37420666D01*
X14916095Y-37725428D01*
X14878000Y-37801619D01*
X14839904Y-37839714D01*
X14763714Y-37877809D01*
X14649428Y-37877809D01*
X14573238Y-37839714D01*
X14535142Y-37801619D01*
X14497047Y-37725428D01*
X14497047Y-37420666D01*
X14344666Y-38182571D02*
X14344666Y-38563523D01*
X14116095Y-38106380D02*
X14916095Y-38373047D01*
X14116095Y-38639714D01*
X14916095Y-39058761D02*
X14916095Y-39134952D01*
X14878000Y-39211142D01*
X14839904Y-39249238D01*
X14763714Y-39287333D01*
X14611333Y-39325428D01*
X14420857Y-39325428D01*
X14268476Y-39287333D01*
X14192285Y-39249238D01*
X14154190Y-39211142D01*
X14116095Y-39134952D01*
X14116095Y-39058761D01*
X14154190Y-38982571D01*
X14192285Y-38944476D01*
X14268476Y-38906380D01*
X14420857Y-38868285D01*
X14611333Y-38868285D01*
X14763714Y-38906380D01*
X14839904Y-38944476D01*
X14878000Y-38982571D01*
X14916095Y-39058761D01*
X14116095Y-39960666D02*
X14916095Y-39960666D01*
X14916095Y-40265428D01*
X14878000Y-40341619D01*
X14839904Y-40379714D01*
X14763714Y-40417809D01*
X14649428Y-40417809D01*
X14573238Y-40379714D01*
X14535142Y-40341619D01*
X14497047Y-40265428D01*
X14497047Y-39960666D01*
X14344666Y-40722571D02*
X14344666Y-41103523D01*
X14116095Y-40646380D02*
X14916095Y-40913047D01*
X14116095Y-41179714D01*
X14839904Y-41408285D02*
X14878000Y-41446380D01*
X14916095Y-41522571D01*
X14916095Y-41713047D01*
X14878000Y-41789238D01*
X14839904Y-41827333D01*
X14763714Y-41865428D01*
X14687523Y-41865428D01*
X14573238Y-41827333D01*
X14116095Y-41370190D01*
X14116095Y-41865428D01*
X14116095Y-42500666D02*
X14916095Y-42500666D01*
X14916095Y-42805428D01*
X14878000Y-42881619D01*
X14839904Y-42919714D01*
X14763714Y-42957809D01*
X14649428Y-42957809D01*
X14573238Y-42919714D01*
X14535142Y-42881619D01*
X14497047Y-42805428D01*
X14497047Y-42500666D01*
X14344666Y-43262571D02*
X14344666Y-43643523D01*
X14116095Y-43186380D02*
X14916095Y-43453047D01*
X14116095Y-43719714D01*
X14649428Y-44329238D02*
X14116095Y-44329238D01*
X14954190Y-44138761D02*
X14382761Y-43948285D01*
X14382761Y-44443523D01*
X14116095Y-45040666D02*
X14916095Y-45040666D01*
X14916095Y-45345428D01*
X14878000Y-45421619D01*
X14839904Y-45459714D01*
X14763714Y-45497809D01*
X14649428Y-45497809D01*
X14573238Y-45459714D01*
X14535142Y-45421619D01*
X14497047Y-45345428D01*
X14497047Y-45040666D01*
X14344666Y-45802571D02*
X14344666Y-46183523D01*
X14116095Y-45726380D02*
X14916095Y-45993047D01*
X14116095Y-46259714D01*
X14916095Y-46869238D02*
X14916095Y-46716857D01*
X14878000Y-46640666D01*
X14839904Y-46602571D01*
X14725619Y-46526380D01*
X14573238Y-46488285D01*
X14268476Y-46488285D01*
X14192285Y-46526380D01*
X14154190Y-46564476D01*
X14116095Y-46640666D01*
X14116095Y-46793047D01*
X14154190Y-46869238D01*
X14192285Y-46907333D01*
X14268476Y-46945428D01*
X14458952Y-46945428D01*
X14535142Y-46907333D01*
X14573238Y-46869238D01*
X14611333Y-46793047D01*
X14611333Y-46640666D01*
X14573238Y-46564476D01*
X14535142Y-46526380D01*
X14458952Y-46488285D01*
X21228095Y-45040666D02*
X22028095Y-45040666D01*
X22028095Y-45345428D01*
X21990000Y-45421619D01*
X21951904Y-45459714D01*
X21875714Y-45497809D01*
X21761428Y-45497809D01*
X21685238Y-45459714D01*
X21647142Y-45421619D01*
X21609047Y-45345428D01*
X21609047Y-45040666D01*
X21456666Y-45802571D02*
X21456666Y-46183523D01*
X21228095Y-45726380D02*
X22028095Y-45993047D01*
X21228095Y-46259714D01*
X22028095Y-46450190D02*
X22028095Y-46983523D01*
X21228095Y-46640666D01*
X21228095Y-42500666D02*
X22028095Y-42500666D01*
X22028095Y-42805428D01*
X21990000Y-42881619D01*
X21951904Y-42919714D01*
X21875714Y-42957809D01*
X21761428Y-42957809D01*
X21685238Y-42919714D01*
X21647142Y-42881619D01*
X21609047Y-42805428D01*
X21609047Y-42500666D01*
X21456666Y-43262571D02*
X21456666Y-43643523D01*
X21228095Y-43186380D02*
X22028095Y-43453047D01*
X21228095Y-43719714D01*
X22028095Y-44367333D02*
X22028095Y-43986380D01*
X21647142Y-43948285D01*
X21685238Y-43986380D01*
X21723333Y-44062571D01*
X21723333Y-44253047D01*
X21685238Y-44329238D01*
X21647142Y-44367333D01*
X21570952Y-44405428D01*
X21380476Y-44405428D01*
X21304285Y-44367333D01*
X21266190Y-44329238D01*
X21228095Y-44253047D01*
X21228095Y-44062571D01*
X21266190Y-43986380D01*
X21304285Y-43948285D01*
X21228095Y-39960666D02*
X22028095Y-39960666D01*
X22028095Y-40265428D01*
X21990000Y-40341619D01*
X21951904Y-40379714D01*
X21875714Y-40417809D01*
X21761428Y-40417809D01*
X21685238Y-40379714D01*
X21647142Y-40341619D01*
X21609047Y-40265428D01*
X21609047Y-39960666D01*
X21456666Y-40722571D02*
X21456666Y-41103523D01*
X21228095Y-40646380D02*
X22028095Y-40913047D01*
X21228095Y-41179714D01*
X22028095Y-41370190D02*
X22028095Y-41865428D01*
X21723333Y-41598761D01*
X21723333Y-41713047D01*
X21685238Y-41789238D01*
X21647142Y-41827333D01*
X21570952Y-41865428D01*
X21380476Y-41865428D01*
X21304285Y-41827333D01*
X21266190Y-41789238D01*
X21228095Y-41713047D01*
X21228095Y-41484476D01*
X21266190Y-41408285D01*
X21304285Y-41370190D01*
X21228095Y-37420666D02*
X22028095Y-37420666D01*
X22028095Y-37725428D01*
X21990000Y-37801619D01*
X21951904Y-37839714D01*
X21875714Y-37877809D01*
X21761428Y-37877809D01*
X21685238Y-37839714D01*
X21647142Y-37801619D01*
X21609047Y-37725428D01*
X21609047Y-37420666D01*
X21456666Y-38182571D02*
X21456666Y-38563523D01*
X21228095Y-38106380D02*
X22028095Y-38373047D01*
X21228095Y-38639714D01*
X21228095Y-39325428D02*
X21228095Y-38868285D01*
X21228095Y-39096857D02*
X22028095Y-39096857D01*
X21913809Y-39020666D01*
X21837619Y-38944476D01*
X21799523Y-38868285D01*
X32537523Y-58781904D02*
X32537523Y-57981904D01*
X32842285Y-57981904D01*
X32918476Y-58020000D01*
X32956571Y-58058095D01*
X32994666Y-58134285D01*
X32994666Y-58248571D01*
X32956571Y-58324761D01*
X32918476Y-58362857D01*
X32842285Y-58400952D01*
X32537523Y-58400952D01*
X33794666Y-58705714D02*
X33756571Y-58743809D01*
X33642285Y-58781904D01*
X33566095Y-58781904D01*
X33451809Y-58743809D01*
X33375619Y-58667619D01*
X33337523Y-58591428D01*
X33299428Y-58439047D01*
X33299428Y-58324761D01*
X33337523Y-58172380D01*
X33375619Y-58096190D01*
X33451809Y-58020000D01*
X33566095Y-57981904D01*
X33642285Y-57981904D01*
X33756571Y-58020000D01*
X33794666Y-58058095D01*
X34480380Y-57981904D02*
X34328000Y-57981904D01*
X34251809Y-58020000D01*
X34213714Y-58058095D01*
X34137523Y-58172380D01*
X34099428Y-58324761D01*
X34099428Y-58629523D01*
X34137523Y-58705714D01*
X34175619Y-58743809D01*
X34251809Y-58781904D01*
X34404190Y-58781904D01*
X34480380Y-58743809D01*
X34518476Y-58705714D01*
X34556571Y-58629523D01*
X34556571Y-58439047D01*
X34518476Y-58362857D01*
X34480380Y-58324761D01*
X34404190Y-58286666D01*
X34251809Y-58286666D01*
X34175619Y-58324761D01*
X34137523Y-58362857D01*
X34099428Y-58439047D01*
X29997523Y-58781904D02*
X29997523Y-57981904D01*
X30302285Y-57981904D01*
X30378476Y-58020000D01*
X30416571Y-58058095D01*
X30454666Y-58134285D01*
X30454666Y-58248571D01*
X30416571Y-58324761D01*
X30378476Y-58362857D01*
X30302285Y-58400952D01*
X29997523Y-58400952D01*
X31254666Y-58705714D02*
X31216571Y-58743809D01*
X31102285Y-58781904D01*
X31026095Y-58781904D01*
X30911809Y-58743809D01*
X30835619Y-58667619D01*
X30797523Y-58591428D01*
X30759428Y-58439047D01*
X30759428Y-58324761D01*
X30797523Y-58172380D01*
X30835619Y-58096190D01*
X30911809Y-58020000D01*
X31026095Y-57981904D01*
X31102285Y-57981904D01*
X31216571Y-58020000D01*
X31254666Y-58058095D01*
X31940380Y-58248571D02*
X31940380Y-58781904D01*
X31749904Y-57943809D02*
X31559428Y-58515238D01*
X32054666Y-58515238D01*
X27457523Y-58781904D02*
X27457523Y-57981904D01*
X27762285Y-57981904D01*
X27838476Y-58020000D01*
X27876571Y-58058095D01*
X27914666Y-58134285D01*
X27914666Y-58248571D01*
X27876571Y-58324761D01*
X27838476Y-58362857D01*
X27762285Y-58400952D01*
X27457523Y-58400952D01*
X28714666Y-58705714D02*
X28676571Y-58743809D01*
X28562285Y-58781904D01*
X28486095Y-58781904D01*
X28371809Y-58743809D01*
X28295619Y-58667619D01*
X28257523Y-58591428D01*
X28219428Y-58439047D01*
X28219428Y-58324761D01*
X28257523Y-58172380D01*
X28295619Y-58096190D01*
X28371809Y-58020000D01*
X28486095Y-57981904D01*
X28562285Y-57981904D01*
X28676571Y-58020000D01*
X28714666Y-58058095D01*
X29019428Y-58058095D02*
X29057523Y-58020000D01*
X29133714Y-57981904D01*
X29324190Y-57981904D01*
X29400380Y-58020000D01*
X29438476Y-58058095D01*
X29476571Y-58134285D01*
X29476571Y-58210476D01*
X29438476Y-58324761D01*
X28981333Y-58781904D01*
X29476571Y-58781904D01*
X24917523Y-58781904D02*
X24917523Y-57981904D01*
X25222285Y-57981904D01*
X25298476Y-58020000D01*
X25336571Y-58058095D01*
X25374666Y-58134285D01*
X25374666Y-58248571D01*
X25336571Y-58324761D01*
X25298476Y-58362857D01*
X25222285Y-58400952D01*
X24917523Y-58400952D01*
X26174666Y-58705714D02*
X26136571Y-58743809D01*
X26022285Y-58781904D01*
X25946095Y-58781904D01*
X25831809Y-58743809D01*
X25755619Y-58667619D01*
X25717523Y-58591428D01*
X25679428Y-58439047D01*
X25679428Y-58324761D01*
X25717523Y-58172380D01*
X25755619Y-58096190D01*
X25831809Y-58020000D01*
X25946095Y-57981904D01*
X26022285Y-57981904D01*
X26136571Y-58020000D01*
X26174666Y-58058095D01*
X26669904Y-57981904D02*
X26746095Y-57981904D01*
X26822285Y-58020000D01*
X26860380Y-58058095D01*
X26898476Y-58134285D01*
X26936571Y-58286666D01*
X26936571Y-58477142D01*
X26898476Y-58629523D01*
X26860380Y-58705714D01*
X26822285Y-58743809D01*
X26746095Y-58781904D01*
X26669904Y-58781904D01*
X26593714Y-58743809D01*
X26555619Y-58705714D01*
X26517523Y-58629523D01*
X26479428Y-58477142D01*
X26479428Y-58286666D01*
X26517523Y-58134285D01*
X26555619Y-58058095D01*
X26593714Y-58020000D01*
X26669904Y-57981904D01*
X32537523Y-51669904D02*
X32537523Y-50869904D01*
X32842285Y-50869904D01*
X32918476Y-50908000D01*
X32956571Y-50946095D01*
X32994666Y-51022285D01*
X32994666Y-51136571D01*
X32956571Y-51212761D01*
X32918476Y-51250857D01*
X32842285Y-51288952D01*
X32537523Y-51288952D01*
X33794666Y-51593714D02*
X33756571Y-51631809D01*
X33642285Y-51669904D01*
X33566095Y-51669904D01*
X33451809Y-51631809D01*
X33375619Y-51555619D01*
X33337523Y-51479428D01*
X33299428Y-51327047D01*
X33299428Y-51212761D01*
X33337523Y-51060380D01*
X33375619Y-50984190D01*
X33451809Y-50908000D01*
X33566095Y-50869904D01*
X33642285Y-50869904D01*
X33756571Y-50908000D01*
X33794666Y-50946095D01*
X34061333Y-50869904D02*
X34594666Y-50869904D01*
X34251809Y-51669904D01*
X29997523Y-51669904D02*
X29997523Y-50869904D01*
X30302285Y-50869904D01*
X30378476Y-50908000D01*
X30416571Y-50946095D01*
X30454666Y-51022285D01*
X30454666Y-51136571D01*
X30416571Y-51212761D01*
X30378476Y-51250857D01*
X30302285Y-51288952D01*
X29997523Y-51288952D01*
X31254666Y-51593714D02*
X31216571Y-51631809D01*
X31102285Y-51669904D01*
X31026095Y-51669904D01*
X30911809Y-51631809D01*
X30835619Y-51555619D01*
X30797523Y-51479428D01*
X30759428Y-51327047D01*
X30759428Y-51212761D01*
X30797523Y-51060380D01*
X30835619Y-50984190D01*
X30911809Y-50908000D01*
X31026095Y-50869904D01*
X31102285Y-50869904D01*
X31216571Y-50908000D01*
X31254666Y-50946095D01*
X31978476Y-50869904D02*
X31597523Y-50869904D01*
X31559428Y-51250857D01*
X31597523Y-51212761D01*
X31673714Y-51174666D01*
X31864190Y-51174666D01*
X31940380Y-51212761D01*
X31978476Y-51250857D01*
X32016571Y-51327047D01*
X32016571Y-51517523D01*
X31978476Y-51593714D01*
X31940380Y-51631809D01*
X31864190Y-51669904D01*
X31673714Y-51669904D01*
X31597523Y-51631809D01*
X31559428Y-51593714D01*
X27457523Y-51669904D02*
X27457523Y-50869904D01*
X27762285Y-50869904D01*
X27838476Y-50908000D01*
X27876571Y-50946095D01*
X27914666Y-51022285D01*
X27914666Y-51136571D01*
X27876571Y-51212761D01*
X27838476Y-51250857D01*
X27762285Y-51288952D01*
X27457523Y-51288952D01*
X28714666Y-51593714D02*
X28676571Y-51631809D01*
X28562285Y-51669904D01*
X28486095Y-51669904D01*
X28371809Y-51631809D01*
X28295619Y-51555619D01*
X28257523Y-51479428D01*
X28219428Y-51327047D01*
X28219428Y-51212761D01*
X28257523Y-51060380D01*
X28295619Y-50984190D01*
X28371809Y-50908000D01*
X28486095Y-50869904D01*
X28562285Y-50869904D01*
X28676571Y-50908000D01*
X28714666Y-50946095D01*
X28981333Y-50869904D02*
X29476571Y-50869904D01*
X29209904Y-51174666D01*
X29324190Y-51174666D01*
X29400380Y-51212761D01*
X29438476Y-51250857D01*
X29476571Y-51327047D01*
X29476571Y-51517523D01*
X29438476Y-51593714D01*
X29400380Y-51631809D01*
X29324190Y-51669904D01*
X29095619Y-51669904D01*
X29019428Y-51631809D01*
X28981333Y-51593714D01*
X39268476Y-58020000D02*
X39192285Y-57981904D01*
X39078000Y-57981904D01*
X38963714Y-58020000D01*
X38887523Y-58096190D01*
X38849428Y-58172380D01*
X38811333Y-58324761D01*
X38811333Y-58439047D01*
X38849428Y-58591428D01*
X38887523Y-58667619D01*
X38963714Y-58743809D01*
X39078000Y-58781904D01*
X39154190Y-58781904D01*
X39268476Y-58743809D01*
X39306571Y-58705714D01*
X39306571Y-58439047D01*
X39154190Y-58439047D01*
X39649428Y-58781904D02*
X39649428Y-57981904D01*
X40106571Y-58781904D01*
X40106571Y-57981904D01*
X40487523Y-58781904D02*
X40487523Y-57981904D01*
X40678000Y-57981904D01*
X40792285Y-58020000D01*
X40868476Y-58096190D01*
X40906571Y-58172380D01*
X40944666Y-58324761D01*
X40944666Y-58439047D01*
X40906571Y-58591428D01*
X40868476Y-58667619D01*
X40792285Y-58743809D01*
X40678000Y-58781904D01*
X40487523Y-58781904D01*
X38887523Y-50869904D02*
X39382761Y-50869904D01*
X39116095Y-51174666D01*
X39230380Y-51174666D01*
X39306571Y-51212761D01*
X39344666Y-51250857D01*
X39382761Y-51327047D01*
X39382761Y-51517523D01*
X39344666Y-51593714D01*
X39306571Y-51631809D01*
X39230380Y-51669904D01*
X39001809Y-51669904D01*
X38925619Y-51631809D01*
X38887523Y-51593714D01*
X39611333Y-50869904D02*
X39878000Y-51669904D01*
X40144666Y-50869904D01*
X40335142Y-50869904D02*
X40830380Y-50869904D01*
X40563714Y-51174666D01*
X40678000Y-51174666D01*
X40754190Y-51212761D01*
X40792285Y-51250857D01*
X40830380Y-51327047D01*
X40830380Y-51517523D01*
X40792285Y-51593714D01*
X40754190Y-51631809D01*
X40678000Y-51669904D01*
X40449428Y-51669904D01*
X40373238Y-51631809D01*
X40335142Y-51593714D01*
X39268476Y-48876000D02*
X39192285Y-48837904D01*
X39078000Y-48837904D01*
X38963714Y-48876000D01*
X38887523Y-48952190D01*
X38849428Y-49028380D01*
X38811333Y-49180761D01*
X38811333Y-49295047D01*
X38849428Y-49447428D01*
X38887523Y-49523619D01*
X38963714Y-49599809D01*
X39078000Y-49637904D01*
X39154190Y-49637904D01*
X39268476Y-49599809D01*
X39306571Y-49561714D01*
X39306571Y-49295047D01*
X39154190Y-49295047D01*
X39649428Y-49637904D02*
X39649428Y-48837904D01*
X40106571Y-49637904D01*
X40106571Y-48837904D01*
X40487523Y-49637904D02*
X40487523Y-48837904D01*
X40678000Y-48837904D01*
X40792285Y-48876000D01*
X40868476Y-48952190D01*
X40906571Y-49028380D01*
X40944666Y-49180761D01*
X40944666Y-49295047D01*
X40906571Y-49447428D01*
X40868476Y-49523619D01*
X40792285Y-49599809D01*
X40678000Y-49637904D01*
X40487523Y-49637904D01*
X38887523Y-41725904D02*
X39382761Y-41725904D01*
X39116095Y-42030666D01*
X39230380Y-42030666D01*
X39306571Y-42068761D01*
X39344666Y-42106857D01*
X39382761Y-42183047D01*
X39382761Y-42373523D01*
X39344666Y-42449714D01*
X39306571Y-42487809D01*
X39230380Y-42525904D01*
X39001809Y-42525904D01*
X38925619Y-42487809D01*
X38887523Y-42449714D01*
X39611333Y-41725904D02*
X39878000Y-42525904D01*
X40144666Y-41725904D01*
X40335142Y-41725904D02*
X40830380Y-41725904D01*
X40563714Y-42030666D01*
X40678000Y-42030666D01*
X40754190Y-42068761D01*
X40792285Y-42106857D01*
X40830380Y-42183047D01*
X40830380Y-42373523D01*
X40792285Y-42449714D01*
X40754190Y-42487809D01*
X40678000Y-42525904D01*
X40449428Y-42525904D01*
X40373238Y-42487809D01*
X40335142Y-42449714D01*
X32537523Y-42525904D02*
X32537523Y-41725904D01*
X32842285Y-41725904D01*
X32918476Y-41764000D01*
X32956571Y-41802095D01*
X32994666Y-41878285D01*
X32994666Y-41992571D01*
X32956571Y-42068761D01*
X32918476Y-42106857D01*
X32842285Y-42144952D01*
X32537523Y-42144952D01*
X33604190Y-42106857D02*
X33718476Y-42144952D01*
X33756571Y-42183047D01*
X33794666Y-42259238D01*
X33794666Y-42373523D01*
X33756571Y-42449714D01*
X33718476Y-42487809D01*
X33642285Y-42525904D01*
X33337523Y-42525904D01*
X33337523Y-41725904D01*
X33604190Y-41725904D01*
X33680380Y-41764000D01*
X33718476Y-41802095D01*
X33756571Y-41878285D01*
X33756571Y-41954476D01*
X33718476Y-42030666D01*
X33680380Y-42068761D01*
X33604190Y-42106857D01*
X33337523Y-42106857D01*
X34061333Y-41725904D02*
X34594666Y-41725904D01*
X34251809Y-42525904D01*
X29997523Y-42525904D02*
X29997523Y-41725904D01*
X30302285Y-41725904D01*
X30378476Y-41764000D01*
X30416571Y-41802095D01*
X30454666Y-41878285D01*
X30454666Y-41992571D01*
X30416571Y-42068761D01*
X30378476Y-42106857D01*
X30302285Y-42144952D01*
X29997523Y-42144952D01*
X31064190Y-42106857D02*
X31178476Y-42144952D01*
X31216571Y-42183047D01*
X31254666Y-42259238D01*
X31254666Y-42373523D01*
X31216571Y-42449714D01*
X31178476Y-42487809D01*
X31102285Y-42525904D01*
X30797523Y-42525904D01*
X30797523Y-41725904D01*
X31064190Y-41725904D01*
X31140380Y-41764000D01*
X31178476Y-41802095D01*
X31216571Y-41878285D01*
X31216571Y-41954476D01*
X31178476Y-42030666D01*
X31140380Y-42068761D01*
X31064190Y-42106857D01*
X30797523Y-42106857D01*
X31978476Y-41725904D02*
X31597523Y-41725904D01*
X31559428Y-42106857D01*
X31597523Y-42068761D01*
X31673714Y-42030666D01*
X31864190Y-42030666D01*
X31940380Y-42068761D01*
X31978476Y-42106857D01*
X32016571Y-42183047D01*
X32016571Y-42373523D01*
X31978476Y-42449714D01*
X31940380Y-42487809D01*
X31864190Y-42525904D01*
X31673714Y-42525904D01*
X31597523Y-42487809D01*
X31559428Y-42449714D01*
X27457523Y-42525904D02*
X27457523Y-41725904D01*
X27762285Y-41725904D01*
X27838476Y-41764000D01*
X27876571Y-41802095D01*
X27914666Y-41878285D01*
X27914666Y-41992571D01*
X27876571Y-42068761D01*
X27838476Y-42106857D01*
X27762285Y-42144952D01*
X27457523Y-42144952D01*
X28524190Y-42106857D02*
X28638476Y-42144952D01*
X28676571Y-42183047D01*
X28714666Y-42259238D01*
X28714666Y-42373523D01*
X28676571Y-42449714D01*
X28638476Y-42487809D01*
X28562285Y-42525904D01*
X28257523Y-42525904D01*
X28257523Y-41725904D01*
X28524190Y-41725904D01*
X28600380Y-41764000D01*
X28638476Y-41802095D01*
X28676571Y-41878285D01*
X28676571Y-41954476D01*
X28638476Y-42030666D01*
X28600380Y-42068761D01*
X28524190Y-42106857D01*
X28257523Y-42106857D01*
X28981333Y-41725904D02*
X29476571Y-41725904D01*
X29209904Y-42030666D01*
X29324190Y-42030666D01*
X29400380Y-42068761D01*
X29438476Y-42106857D01*
X29476571Y-42183047D01*
X29476571Y-42373523D01*
X29438476Y-42449714D01*
X29400380Y-42487809D01*
X29324190Y-42525904D01*
X29095619Y-42525904D01*
X29019428Y-42487809D01*
X28981333Y-42449714D01*
X24917523Y-42525904D02*
X24917523Y-41725904D01*
X25222285Y-41725904D01*
X25298476Y-41764000D01*
X25336571Y-41802095D01*
X25374666Y-41878285D01*
X25374666Y-41992571D01*
X25336571Y-42068761D01*
X25298476Y-42106857D01*
X25222285Y-42144952D01*
X24917523Y-42144952D01*
X25984190Y-42106857D02*
X26098476Y-42144952D01*
X26136571Y-42183047D01*
X26174666Y-42259238D01*
X26174666Y-42373523D01*
X26136571Y-42449714D01*
X26098476Y-42487809D01*
X26022285Y-42525904D01*
X25717523Y-42525904D01*
X25717523Y-41725904D01*
X25984190Y-41725904D01*
X26060380Y-41764000D01*
X26098476Y-41802095D01*
X26136571Y-41878285D01*
X26136571Y-41954476D01*
X26098476Y-42030666D01*
X26060380Y-42068761D01*
X25984190Y-42106857D01*
X25717523Y-42106857D01*
X26936571Y-42525904D02*
X26479428Y-42525904D01*
X26708000Y-42525904D02*
X26708000Y-41725904D01*
X26631809Y-41840190D01*
X26555619Y-41916380D01*
X26479428Y-41954476D01*
X32537523Y-49637904D02*
X32537523Y-48837904D01*
X32842285Y-48837904D01*
X32918476Y-48876000D01*
X32956571Y-48914095D01*
X32994666Y-48990285D01*
X32994666Y-49104571D01*
X32956571Y-49180761D01*
X32918476Y-49218857D01*
X32842285Y-49256952D01*
X32537523Y-49256952D01*
X33604190Y-49218857D02*
X33718476Y-49256952D01*
X33756571Y-49295047D01*
X33794666Y-49371238D01*
X33794666Y-49485523D01*
X33756571Y-49561714D01*
X33718476Y-49599809D01*
X33642285Y-49637904D01*
X33337523Y-49637904D01*
X33337523Y-48837904D01*
X33604190Y-48837904D01*
X33680380Y-48876000D01*
X33718476Y-48914095D01*
X33756571Y-48990285D01*
X33756571Y-49066476D01*
X33718476Y-49142666D01*
X33680380Y-49180761D01*
X33604190Y-49218857D01*
X33337523Y-49218857D01*
X34480380Y-48837904D02*
X34328000Y-48837904D01*
X34251809Y-48876000D01*
X34213714Y-48914095D01*
X34137523Y-49028380D01*
X34099428Y-49180761D01*
X34099428Y-49485523D01*
X34137523Y-49561714D01*
X34175619Y-49599809D01*
X34251809Y-49637904D01*
X34404190Y-49637904D01*
X34480380Y-49599809D01*
X34518476Y-49561714D01*
X34556571Y-49485523D01*
X34556571Y-49295047D01*
X34518476Y-49218857D01*
X34480380Y-49180761D01*
X34404190Y-49142666D01*
X34251809Y-49142666D01*
X34175619Y-49180761D01*
X34137523Y-49218857D01*
X34099428Y-49295047D01*
X29997523Y-49637904D02*
X29997523Y-48837904D01*
X30302285Y-48837904D01*
X30378476Y-48876000D01*
X30416571Y-48914095D01*
X30454666Y-48990285D01*
X30454666Y-49104571D01*
X30416571Y-49180761D01*
X30378476Y-49218857D01*
X30302285Y-49256952D01*
X29997523Y-49256952D01*
X31064190Y-49218857D02*
X31178476Y-49256952D01*
X31216571Y-49295047D01*
X31254666Y-49371238D01*
X31254666Y-49485523D01*
X31216571Y-49561714D01*
X31178476Y-49599809D01*
X31102285Y-49637904D01*
X30797523Y-49637904D01*
X30797523Y-48837904D01*
X31064190Y-48837904D01*
X31140380Y-48876000D01*
X31178476Y-48914095D01*
X31216571Y-48990285D01*
X31216571Y-49066476D01*
X31178476Y-49142666D01*
X31140380Y-49180761D01*
X31064190Y-49218857D01*
X30797523Y-49218857D01*
X31940380Y-49104571D02*
X31940380Y-49637904D01*
X31749904Y-48799809D02*
X31559428Y-49371238D01*
X32054666Y-49371238D01*
X24917523Y-51669904D02*
X24917523Y-50869904D01*
X25222285Y-50869904D01*
X25298476Y-50908000D01*
X25336571Y-50946095D01*
X25374666Y-51022285D01*
X25374666Y-51136571D01*
X25336571Y-51212761D01*
X25298476Y-51250857D01*
X25222285Y-51288952D01*
X24917523Y-51288952D01*
X26174666Y-51593714D02*
X26136571Y-51631809D01*
X26022285Y-51669904D01*
X25946095Y-51669904D01*
X25831809Y-51631809D01*
X25755619Y-51555619D01*
X25717523Y-51479428D01*
X25679428Y-51327047D01*
X25679428Y-51212761D01*
X25717523Y-51060380D01*
X25755619Y-50984190D01*
X25831809Y-50908000D01*
X25946095Y-50869904D01*
X26022285Y-50869904D01*
X26136571Y-50908000D01*
X26174666Y-50946095D01*
X26936571Y-51669904D02*
X26479428Y-51669904D01*
X26708000Y-51669904D02*
X26708000Y-50869904D01*
X26631809Y-50984190D01*
X26555619Y-51060380D01*
X26479428Y-51098476D01*
X27457523Y-49637904D02*
X27457523Y-48837904D01*
X27762285Y-48837904D01*
X27838476Y-48876000D01*
X27876571Y-48914095D01*
X27914666Y-48990285D01*
X27914666Y-49104571D01*
X27876571Y-49180761D01*
X27838476Y-49218857D01*
X27762285Y-49256952D01*
X27457523Y-49256952D01*
X28524190Y-49218857D02*
X28638476Y-49256952D01*
X28676571Y-49295047D01*
X28714666Y-49371238D01*
X28714666Y-49485523D01*
X28676571Y-49561714D01*
X28638476Y-49599809D01*
X28562285Y-49637904D01*
X28257523Y-49637904D01*
X28257523Y-48837904D01*
X28524190Y-48837904D01*
X28600380Y-48876000D01*
X28638476Y-48914095D01*
X28676571Y-48990285D01*
X28676571Y-49066476D01*
X28638476Y-49142666D01*
X28600380Y-49180761D01*
X28524190Y-49218857D01*
X28257523Y-49218857D01*
X29019428Y-48914095D02*
X29057523Y-48876000D01*
X29133714Y-48837904D01*
X29324190Y-48837904D01*
X29400380Y-48876000D01*
X29438476Y-48914095D01*
X29476571Y-48990285D01*
X29476571Y-49066476D01*
X29438476Y-49180761D01*
X28981333Y-49637904D01*
X29476571Y-49637904D01*
X24917523Y-49637904D02*
X24917523Y-48837904D01*
X25222285Y-48837904D01*
X25298476Y-48876000D01*
X25336571Y-48914095D01*
X25374666Y-48990285D01*
X25374666Y-49104571D01*
X25336571Y-49180761D01*
X25298476Y-49218857D01*
X25222285Y-49256952D01*
X24917523Y-49256952D01*
X25984190Y-49218857D02*
X26098476Y-49256952D01*
X26136571Y-49295047D01*
X26174666Y-49371238D01*
X26174666Y-49485523D01*
X26136571Y-49561714D01*
X26098476Y-49599809D01*
X26022285Y-49637904D01*
X25717523Y-49637904D01*
X25717523Y-48837904D01*
X25984190Y-48837904D01*
X26060380Y-48876000D01*
X26098476Y-48914095D01*
X26136571Y-48990285D01*
X26136571Y-49066476D01*
X26098476Y-49142666D01*
X26060380Y-49180761D01*
X25984190Y-49218857D01*
X25717523Y-49218857D01*
X26669904Y-48837904D02*
X26746095Y-48837904D01*
X26822285Y-48876000D01*
X26860380Y-48914095D01*
X26898476Y-48990285D01*
X26936571Y-49142666D01*
X26936571Y-49333142D01*
X26898476Y-49485523D01*
X26860380Y-49561714D01*
X26822285Y-49599809D01*
X26746095Y-49637904D01*
X26669904Y-49637904D01*
X26593714Y-49599809D01*
X26555619Y-49561714D01*
X26517523Y-49485523D01*
X26479428Y-49333142D01*
X26479428Y-49142666D01*
X26517523Y-48990285D01*
X26555619Y-48914095D01*
X26593714Y-48876000D01*
X26669904Y-48837904D01*
D11*
X65786000Y-6146800D02*
X65786000Y-7162800D01*
X65278000Y-6654800D02*
X66294000Y-6654800D01*
X65536000Y-7654800D02*
X65536000Y-7154800D01*
X65536000Y-7154800D02*
X65036000Y-7154800D01*
X65036000Y-7154800D02*
X65036000Y-7654800D01*
X65036000Y-7654800D02*
X64536000Y-7654800D01*
X64536000Y-7654800D02*
X64536000Y-7154800D01*
X64536000Y-7154800D02*
X64036000Y-7154800D01*
X64036000Y-7154800D02*
X64036000Y-7654800D01*
X64036000Y-7654800D02*
X63536000Y-7654800D01*
X63536000Y-7654800D02*
X63536000Y-7154800D01*
X63536000Y-7154800D02*
X63036000Y-7154800D01*
X63036000Y-7154800D02*
X63036000Y-7654800D01*
X63036000Y-7654800D02*
X62536000Y-7654800D01*
X62536000Y-7654800D02*
X62536000Y-7154800D01*
X62536000Y-7154800D02*
X62036000Y-7154800D01*
X62036000Y-7154800D02*
X62036000Y-7654800D01*
X62036000Y-7654800D02*
X61536000Y-7654800D01*
X61536000Y-7654800D02*
X61536000Y-7154800D01*
X61536000Y-7154800D02*
X61036000Y-7154800D01*
X61036000Y-7154800D02*
X61036000Y-7654800D01*
X66036000Y-7654800D02*
X66036000Y-7154800D01*
X66036000Y-7154800D02*
X66536000Y-7154800D01*
X66536000Y-7154800D02*
X66536000Y-7654800D01*
X66536000Y-7654800D02*
X67036000Y-7654800D01*
X67036000Y-7654800D02*
X67036000Y-7154800D01*
X67036000Y-7154800D02*
X67536000Y-7154800D01*
X67536000Y-7154800D02*
X67536000Y-7654800D01*
X67536000Y-7654800D02*
X68036000Y-7654800D01*
X68036000Y-7654800D02*
X68036000Y-7154800D01*
X68036000Y-7154800D02*
X68536000Y-7154800D01*
X68536000Y-7154800D02*
X68536000Y-7654800D01*
X68536000Y-7654800D02*
X69036000Y-7654800D01*
X69036000Y-7654800D02*
X69036000Y-7154800D01*
X69036000Y-7154800D02*
X69536000Y-7154800D01*
X69536000Y-7154800D02*
X69536000Y-7654800D01*
X69536000Y-7654800D02*
X70036000Y-7654800D01*
X70036000Y-7654800D02*
X70036000Y-7154800D01*
X70036000Y-7154800D02*
X70536000Y-7154800D01*
X70536000Y-7154800D02*
X70536000Y-7654800D01*
X60436000Y-5654800D02*
X71136000Y-5654800D01*
X71136000Y-5654800D02*
X71136000Y-7654800D01*
X71136000Y-7654800D02*
X60436000Y-7654800D01*
X60436000Y-7654800D02*
X60436000Y-5654800D01*
X47286000Y-24638000D02*
X47286000Y-42088000D01*
X47286000Y-42088000D02*
X84286000Y-42088000D01*
X84286000Y-42088000D02*
X84286000Y-24638000D01*
X47286000Y-24638000D02*
X47286000Y-11788000D01*
X47286000Y-11788000D02*
X84286000Y-11788000D01*
X84286000Y-11788000D02*
X84286000Y-24638000D01*
X52036000Y-16648000D02*
X79536000Y-16648000D01*
X79536000Y-16648000D02*
X79536000Y-32628000D01*
X79536000Y-32628000D02*
X52036000Y-32628000D01*
X52036000Y-32628000D02*
X52036000Y-16648000D01*
D12*
X15434000Y-57464000D02*
X20634000Y-57464000D01*
X15434000Y-39624000D02*
X15434000Y-57464000D01*
X20634000Y-37024000D02*
X20634000Y-57464000D01*
X15434000Y-39624000D02*
X18034000Y-39624000D01*
X18034000Y-39624000D02*
X18034000Y-37024000D01*
X18034000Y-37024000D02*
X20634000Y-37024000D01*
X15434000Y-38354000D02*
X15434000Y-37024000D01*
X15434000Y-37024000D02*
X16764000Y-37024000D01*
X74414000Y-9570000D02*
X73414000Y-9570000D01*
X73414000Y-8210000D02*
X74414000Y-8210000D01*
X30308000Y-5707000D02*
X30308000Y-4707000D01*
X31668000Y-4707000D02*
X31668000Y-5707000D01*
D11*
X29274000Y-36385000D02*
X29849000Y-36385000D01*
X29274000Y-22035000D02*
X29949000Y-22035000D01*
X43624000Y-22035000D02*
X42949000Y-22035000D01*
X43624000Y-36385000D02*
X42949000Y-36385000D01*
X29274000Y-36385000D02*
X29274000Y-35710000D01*
X43624000Y-36385000D02*
X43624000Y-35710000D01*
X43624000Y-22035000D02*
X43624000Y-22710000D01*
X29274000Y-22035000D02*
X29274000Y-22710000D01*
X29849000Y-36385000D02*
X29849000Y-37660000D01*
D12*
X30990792Y-10659623D02*
X31415056Y-10235359D01*
X31415056Y-10235359D02*
X33960641Y-12780944D01*
X33960641Y-12780944D02*
X33536377Y-13205208D01*
X27101705Y-14548711D02*
X29788711Y-11861705D01*
X26394598Y-17094295D02*
X25475359Y-16175056D01*
X28020944Y-18720641D02*
X27101705Y-17801402D01*
X25475359Y-16175056D02*
X25899623Y-15750792D01*
X28020944Y-18720641D02*
X28445208Y-18296377D01*
X32334295Y-14407289D02*
X29647289Y-17094295D01*
X27101706Y-17801401D02*
G75*
G03X26394598Y-17094295I-353554J353553D01*
G01*
X33598600Y-20158000D02*
X32898600Y-20158000D01*
X32898600Y-18958000D02*
X33598600Y-18958000D01*
X49257000Y-5075000D02*
X47997000Y-5075000D01*
X42437000Y-5075000D02*
X43697000Y-5075000D01*
X49257000Y-8835000D02*
X49257000Y-5075000D01*
X42437000Y-11085000D02*
X42437000Y-5075000D01*
X37312000Y-7944000D02*
X37312000Y-10344000D01*
X40412000Y-10344000D02*
X40412000Y-7394000D01*
X40926000Y93000D02*
X32226000Y93000D01*
X40926000Y-6317000D02*
X32226000Y-6317000D01*
X32226000Y-6317000D02*
X32226000Y93000D01*
X32226000Y-1137000D02*
X40926000Y-1137000D01*
X40926000Y93000D02*
X40926000Y-6317000D01*
X50955500Y-9619500D02*
X50955500Y-10319500D01*
X49755500Y-10319500D02*
X49755500Y-9619500D01*
X56665000Y-10099500D02*
X55115000Y-10099500D01*
X51335000Y-10099500D02*
X52885000Y-10099500D01*
X52095000Y-4759500D02*
X52885000Y-4759500D01*
X55905000Y-4759500D02*
X55115000Y-4759500D01*
X56665000Y-10099500D02*
X56665000Y-5519500D01*
X56665000Y-5519500D02*
X55905000Y-4759500D01*
X52095000Y-4759500D02*
X51335000Y-5519500D01*
X51335000Y-5519500D02*
X51335000Y-10099500D01*
X21587000Y-33679400D02*
X24387000Y-33679400D01*
X24387000Y-33679400D02*
X24387000Y-30379400D01*
X27397000Y-30866600D02*
X27397000Y-31566600D01*
X26197000Y-31566600D02*
X26197000Y-30866600D01*
X24673000Y-32354000D02*
X24673000Y-31654000D01*
X25873000Y-31654000D02*
X25873000Y-32354000D01*
X40899600Y-38262000D02*
X41599600Y-38262000D01*
X41599600Y-39462000D02*
X40899600Y-39462000D01*
X45501000Y-29560000D02*
X45501000Y-28860000D01*
X46701000Y-28860000D02*
X46701000Y-29560000D01*
X41599600Y-20158000D02*
X40899600Y-20158000D01*
X40899600Y-18958000D02*
X41599600Y-18958000D01*
X27397000Y-25659600D02*
X27397000Y-26359600D01*
X26197000Y-26359600D02*
X26197000Y-25659600D01*
X24186400Y-34121800D02*
X24886400Y-34121800D01*
X24886400Y-35321800D02*
X24186400Y-35321800D01*
X21090000Y-34626000D02*
X22090000Y-34626000D01*
X22090000Y-35986000D02*
X21090000Y-35986000D01*
X19462000Y-28356000D02*
X20162000Y-28356000D01*
X20162000Y-29556000D02*
X19462000Y-29556000D01*
X61118000Y-10068000D02*
X61818000Y-10068000D01*
X61818000Y-11268000D02*
X61118000Y-11268000D01*
X64166000Y-10068000D02*
X64866000Y-10068000D01*
X64866000Y-11268000D02*
X64166000Y-11268000D01*
X58770000Y-11268000D02*
X58070000Y-11268000D01*
X58070000Y-10068000D02*
X58770000Y-10068000D01*
X81198000Y-43188000D02*
X81198000Y-44188000D01*
X79838000Y-44188000D02*
X79838000Y-43188000D01*
X65032000Y-52406000D02*
X66032000Y-52406000D01*
X66032000Y-53766000D02*
X65032000Y-53766000D01*
X60788000Y-47998000D02*
X60788000Y-46998000D01*
X62148000Y-46998000D02*
X62148000Y-47998000D01*
X54872000Y-52406000D02*
X55872000Y-52406000D01*
X55872000Y-53766000D02*
X54872000Y-53766000D01*
D11*
X65532000Y-57730000D02*
X62532000Y-57730000D01*
X62532000Y-57730000D02*
X62532000Y-54030000D01*
X62532000Y-54030000D02*
X68532000Y-54030000D01*
X68532000Y-54030000D02*
X68532000Y-57730000D01*
X68532000Y-57730000D02*
X65532000Y-57730000D01*
X65532000Y-51634000D02*
X62532000Y-51634000D01*
X62532000Y-51634000D02*
X62532000Y-47934000D01*
X62532000Y-47934000D02*
X68532000Y-47934000D01*
X68532000Y-47934000D02*
X68532000Y-51634000D01*
X68532000Y-51634000D02*
X65532000Y-51634000D01*
X55372000Y-57730000D02*
X52372000Y-57730000D01*
X52372000Y-57730000D02*
X52372000Y-54030000D01*
X52372000Y-54030000D02*
X58372000Y-54030000D01*
X58372000Y-54030000D02*
X58372000Y-57730000D01*
X58372000Y-57730000D02*
X55372000Y-57730000D01*
D12*
X75192000Y-52406000D02*
X76192000Y-52406000D01*
X76192000Y-53766000D02*
X75192000Y-53766000D01*
D11*
X75692000Y-57730000D02*
X72692000Y-57730000D01*
X72692000Y-57730000D02*
X72692000Y-54030000D01*
X72692000Y-54030000D02*
X78692000Y-54030000D01*
X78692000Y-54030000D02*
X78692000Y-57730000D01*
X78692000Y-57730000D02*
X75692000Y-57730000D01*
D12*
X78484000Y-45776000D02*
X78484000Y-44846000D01*
X78484000Y-42616000D02*
X78484000Y-43546000D01*
X78484000Y-42616000D02*
X76324000Y-42616000D01*
X78484000Y-45776000D02*
X77024000Y-45776000D01*
X74250000Y-44188000D02*
X74250000Y-43188000D01*
X75610000Y-43188000D02*
X75610000Y-44188000D01*
X10862000Y-33080000D02*
X16062000Y-33080000D01*
X10862000Y-27940000D02*
X10862000Y-33080000D01*
X16062000Y-25340000D02*
X16062000Y-33080000D01*
X10862000Y-27940000D02*
X13462000Y-27940000D01*
X13462000Y-27940000D02*
X13462000Y-25340000D01*
X13462000Y-25340000D02*
X16062000Y-25340000D01*
X10862000Y-26670000D02*
X10862000Y-25340000D01*
X10862000Y-25340000D02*
X12192000Y-25340000D01*
X33618249Y-15063223D02*
X34113223Y-14568249D01*
X34961751Y-15416777D02*
X34466777Y-15911751D01*
X32929751Y-17448777D02*
X32434777Y-17943751D01*
X31586249Y-17095223D02*
X32081223Y-16600249D01*
X74414000Y-11348000D02*
X73414000Y-11348000D01*
X73414000Y-9988000D02*
X74414000Y-9988000D01*
X45018000Y-48320000D02*
X45018000Y-43120000D01*
X27178000Y-48320000D02*
X45018000Y-48320000D01*
X24578000Y-43120000D02*
X45018000Y-43120000D01*
X27178000Y-48320000D02*
X27178000Y-45720000D01*
X27178000Y-45720000D02*
X24578000Y-45720000D01*
X24578000Y-45720000D02*
X24578000Y-43120000D01*
X25908000Y-48320000D02*
X24578000Y-48320000D01*
X24578000Y-48320000D02*
X24578000Y-46990000D01*
X45018000Y-57464000D02*
X45018000Y-52264000D01*
X27178000Y-57464000D02*
X45018000Y-57464000D01*
X24578000Y-52264000D02*
X45018000Y-52264000D01*
X27178000Y-57464000D02*
X27178000Y-54864000D01*
X27178000Y-54864000D02*
X24578000Y-54864000D01*
X24578000Y-54864000D02*
X24578000Y-52264000D01*
X25908000Y-57464000D02*
X24578000Y-57464000D01*
X24578000Y-57464000D02*
X24578000Y-56134000D01*
X6290000Y-57464000D02*
X11490000Y-57464000D01*
X6290000Y-39624000D02*
X6290000Y-57464000D01*
X11490000Y-37024000D02*
X11490000Y-57464000D01*
X6290000Y-39624000D02*
X8890000Y-39624000D01*
X8890000Y-39624000D02*
X8890000Y-37024000D01*
X8890000Y-37024000D02*
X11490000Y-37024000D01*
X6290000Y-38354000D02*
X6290000Y-37024000D01*
X6290000Y-37024000D02*
X7620000Y-37024000D01*
X6290000Y-21396000D02*
X8950000Y-21396000D01*
X6290000Y-18796000D02*
X6290000Y-21396000D01*
X8950000Y-18796000D02*
X8950000Y-21396000D01*
X6290000Y-18796000D02*
X8950000Y-18796000D01*
X6290000Y-17526000D02*
X6290000Y-16196000D01*
X6290000Y-16196000D02*
X7620000Y-16196000D01*
X57374000Y-6612000D02*
X57374000Y-7612000D01*
X57374000Y-7612000D02*
X59474000Y-7612000D01*
X57374000Y-6612000D02*
X59474000Y-6612000D01*
X59174000Y-5760000D02*
X58174000Y-5760000D01*
X58174000Y-4400000D02*
X59174000Y-4400000D01*
X76716000Y-11206000D02*
X77716000Y-11206000D01*
X77716000Y-11206000D02*
X77716000Y-9106000D01*
X76716000Y-11206000D02*
X76716000Y-9106000D01*
X79002000Y-11206000D02*
X80002000Y-11206000D01*
X80002000Y-11206000D02*
X80002000Y-9106000D01*
X79002000Y-11206000D02*
X79002000Y-9106000D01*
X81288000Y-11206000D02*
X82288000Y-11206000D01*
X82288000Y-11206000D02*
X82288000Y-9106000D01*
X81288000Y-11206000D02*
X81288000Y-9106000D01*
X74414000Y-7792000D02*
X73414000Y-7792000D01*
X73414000Y-6432000D02*
X74414000Y-6432000D01*
X74414000Y-6014000D02*
X73414000Y-6014000D01*
X73414000Y-4654000D02*
X74414000Y-4654000D01*
X74414000Y-4236000D02*
X73414000Y-4236000D01*
X73414000Y-2876000D02*
X74414000Y-2876000D01*
X14270385Y-1400840D02*
G75*
G02X15185000Y-1785000I124615J-984160D01*
G01*
X25099615Y-1400840D02*
G75*
G03X24185000Y-1785000I-124615J-984160D01*
G01*
X15194339Y-1796329D02*
G75*
G03X24185000Y-1785000I4490661J3711329D01*
G01*
X12935000Y-2935000D02*
G75*
G02X14385000Y-1385000I1500000J50000D01*
G01*
X26435000Y-2935000D02*
G75*
G03X24985000Y-1385000I-1500000J50000D01*
G01*
X12935000Y-4985000D02*
X12935000Y-2885000D01*
X26435000Y-4985000D02*
X26435000Y-2885000D01*
X26435000Y-8985000D02*
X26435000Y-10435000D01*
X26435000Y-10435000D02*
X23835000Y-13035000D01*
X23835000Y-13035000D02*
X23835000Y-13835000D01*
X23835000Y-13835000D02*
X15535000Y-13835000D01*
X15535000Y-13835000D02*
X15535000Y-13035000D01*
X15535000Y-13035000D02*
X12935000Y-10435000D01*
X12935000Y-10435000D02*
X12935000Y-8985000D01*
D11*
X65047904Y-25090380D02*
X65047904Y-24090380D01*
X65286000Y-24090380D01*
X65428857Y-24138000D01*
X65524095Y-24233238D01*
X65571714Y-24328476D01*
X65619333Y-24518952D01*
X65619333Y-24661809D01*
X65571714Y-24852285D01*
X65524095Y-24947523D01*
X65428857Y-25042761D01*
X65286000Y-25090380D01*
X65047904Y-25090380D01*
X66476476Y-24090380D02*
X66286000Y-24090380D01*
X66190761Y-24138000D01*
X66143142Y-24185619D01*
X66047904Y-24328476D01*
X66000285Y-24518952D01*
X66000285Y-24899904D01*
X66047904Y-24995142D01*
X66095523Y-25042761D01*
X66190761Y-25090380D01*
X66381238Y-25090380D01*
X66476476Y-25042761D01*
X66524095Y-24995142D01*
X66571714Y-24899904D01*
X66571714Y-24661809D01*
X66524095Y-24566571D01*
X66476476Y-24518952D01*
X66381238Y-24471333D01*
X66190761Y-24471333D01*
X66095523Y-24518952D01*
X66047904Y-24566571D01*
X66000285Y-24661809D01*
X69071714Y-40770380D02*
X68500285Y-40770380D01*
X68786000Y-40770380D02*
X68786000Y-39770380D01*
X68690761Y-39913238D01*
X68595523Y-40008476D01*
X68500285Y-40056095D01*
X62024095Y-39865619D02*
X62071714Y-39818000D01*
X62166952Y-39770380D01*
X62405047Y-39770380D01*
X62500285Y-39818000D01*
X62547904Y-39865619D01*
X62595523Y-39960857D01*
X62595523Y-40056095D01*
X62547904Y-40198952D01*
X61976476Y-40770380D01*
X62595523Y-40770380D01*
X63214571Y-39770380D02*
X63309809Y-39770380D01*
X63405047Y-39818000D01*
X63452666Y-39865619D01*
X63500285Y-39960857D01*
X63547904Y-40151333D01*
X63547904Y-40389428D01*
X63500285Y-40579904D01*
X63452666Y-40675142D01*
X63405047Y-40722761D01*
X63309809Y-40770380D01*
X63214571Y-40770380D01*
X63119333Y-40722761D01*
X63071714Y-40675142D01*
X63024095Y-40579904D01*
X62976476Y-40389428D01*
X62976476Y-40151333D01*
X63024095Y-39960857D01*
X63071714Y-39865619D01*
X63119333Y-39818000D01*
X63214571Y-39770380D01*
X73525095Y-39822380D02*
X73525095Y-38822380D01*
X74096523Y-39822380D02*
X73667952Y-39250952D01*
X74096523Y-38822380D02*
X73525095Y-39393809D01*
X57546904Y-39536666D02*
X58023095Y-39536666D01*
X57451666Y-39822380D02*
X57785000Y-38822380D01*
X58118333Y-39822380D01*
X17700666Y-35476380D02*
X17700666Y-36190666D01*
X17653047Y-36333523D01*
X17557809Y-36428761D01*
X17414952Y-36476380D01*
X17319714Y-36476380D01*
X18700666Y-36476380D02*
X18129238Y-36476380D01*
X18414952Y-36476380D02*
X18414952Y-35476380D01*
X18319714Y-35619238D01*
X18224476Y-35714476D01*
X18129238Y-35762095D01*
X35901380Y-29971904D02*
X36710904Y-29971904D01*
X36806142Y-29924285D01*
X36853761Y-29876666D01*
X36901380Y-29781428D01*
X36901380Y-29590952D01*
X36853761Y-29495714D01*
X36806142Y-29448095D01*
X36710904Y-29400476D01*
X35901380Y-29400476D01*
X35996619Y-28971904D02*
X35949000Y-28924285D01*
X35901380Y-28829047D01*
X35901380Y-28590952D01*
X35949000Y-28495714D01*
X35996619Y-28448095D01*
X36091857Y-28400476D01*
X36187095Y-28400476D01*
X36329952Y-28448095D01*
X36901380Y-29019523D01*
X36901380Y-28400476D01*
X29364446Y-14797881D02*
X29701164Y-15134599D01*
X28758355Y-14663194D02*
X29364446Y-14797881D01*
X29229759Y-14191790D01*
X30542957Y-14292805D02*
X30138896Y-14696866D01*
X30340927Y-14494835D02*
X29633820Y-13787729D01*
X29667492Y-13956087D01*
X29667492Y-14090774D01*
X29633820Y-14191790D01*
X44958095Y-6310380D02*
X44958095Y-7119904D01*
X45005714Y-7215142D01*
X45053333Y-7262761D01*
X45148571Y-7310380D01*
X45339047Y-7310380D01*
X45434285Y-7262761D01*
X45481904Y-7215142D01*
X45529523Y-7119904D01*
X45529523Y-6310380D01*
X46529523Y-7310380D02*
X45958095Y-7310380D01*
X46243809Y-7310380D02*
X46243809Y-6310380D01*
X46148571Y-6453238D01*
X46053333Y-6548476D01*
X45958095Y-6596095D01*
X36242666Y-3008380D02*
X36242666Y-3722666D01*
X36195047Y-3865523D01*
X36099809Y-3960761D01*
X35956952Y-4008380D01*
X35861714Y-4008380D01*
X36671238Y-3103619D02*
X36718857Y-3056000D01*
X36814095Y-3008380D01*
X37052190Y-3008380D01*
X37147428Y-3056000D01*
X37195047Y-3103619D01*
X37242666Y-3198857D01*
X37242666Y-3294095D01*
X37195047Y-3436952D01*
X36623619Y-4008380D01*
X37242666Y-4008380D01*
X52681142Y-7532666D02*
X52728761Y-7580285D01*
X52776380Y-7723142D01*
X52776380Y-7818380D01*
X52728761Y-7961238D01*
X52633523Y-8056476D01*
X52538285Y-8104095D01*
X52347809Y-8151714D01*
X52204952Y-8151714D01*
X52014476Y-8104095D01*
X51919238Y-8056476D01*
X51824000Y-7961238D01*
X51776380Y-7818380D01*
X51776380Y-7723142D01*
X51824000Y-7580285D01*
X51871619Y-7532666D01*
X51776380Y-7199333D02*
X51776380Y-6580285D01*
X52157333Y-6913619D01*
X52157333Y-6770761D01*
X52204952Y-6675523D01*
X52252571Y-6627904D01*
X52347809Y-6580285D01*
X52585904Y-6580285D01*
X52681142Y-6627904D01*
X52728761Y-6675523D01*
X52776380Y-6770761D01*
X52776380Y-7056476D01*
X52728761Y-7151714D01*
X52681142Y-7199333D01*
X51706428Y-4430452D02*
X51706428Y-3668547D01*
X52087380Y-4049500D02*
X51325476Y-4049500D01*
X64198666Y-56284761D02*
X64341523Y-56332380D01*
X64579619Y-56332380D01*
X64674857Y-56284761D01*
X64722476Y-56237142D01*
X64770095Y-56141904D01*
X64770095Y-56046666D01*
X64722476Y-55951428D01*
X64674857Y-55903809D01*
X64579619Y-55856190D01*
X64389142Y-55808571D01*
X64293904Y-55760952D01*
X64246285Y-55713333D01*
X64198666Y-55618095D01*
X64198666Y-55522857D01*
X64246285Y-55427619D01*
X64293904Y-55380000D01*
X64389142Y-55332380D01*
X64627238Y-55332380D01*
X64770095Y-55380000D01*
X65103428Y-55332380D02*
X65341523Y-56332380D01*
X65532000Y-55618095D01*
X65722476Y-56332380D01*
X65960571Y-55332380D01*
X66865333Y-56332380D02*
X66293904Y-56332380D01*
X66579619Y-56332380D02*
X66579619Y-55332380D01*
X66484380Y-55475238D01*
X66389142Y-55570476D01*
X66293904Y-55618095D01*
X64198666Y-50188761D02*
X64341523Y-50236380D01*
X64579619Y-50236380D01*
X64674857Y-50188761D01*
X64722476Y-50141142D01*
X64770095Y-50045904D01*
X64770095Y-49950666D01*
X64722476Y-49855428D01*
X64674857Y-49807809D01*
X64579619Y-49760190D01*
X64389142Y-49712571D01*
X64293904Y-49664952D01*
X64246285Y-49617333D01*
X64198666Y-49522095D01*
X64198666Y-49426857D01*
X64246285Y-49331619D01*
X64293904Y-49284000D01*
X64389142Y-49236380D01*
X64627238Y-49236380D01*
X64770095Y-49284000D01*
X65103428Y-49236380D02*
X65341523Y-50236380D01*
X65532000Y-49522095D01*
X65722476Y-50236380D01*
X65960571Y-49236380D01*
X66293904Y-49331619D02*
X66341523Y-49284000D01*
X66436761Y-49236380D01*
X66674857Y-49236380D01*
X66770095Y-49284000D01*
X66817714Y-49331619D01*
X66865333Y-49426857D01*
X66865333Y-49522095D01*
X66817714Y-49664952D01*
X66246285Y-50236380D01*
X66865333Y-50236380D01*
X54038666Y-56284761D02*
X54181523Y-56332380D01*
X54419619Y-56332380D01*
X54514857Y-56284761D01*
X54562476Y-56237142D01*
X54610095Y-56141904D01*
X54610095Y-56046666D01*
X54562476Y-55951428D01*
X54514857Y-55903809D01*
X54419619Y-55856190D01*
X54229142Y-55808571D01*
X54133904Y-55760952D01*
X54086285Y-55713333D01*
X54038666Y-55618095D01*
X54038666Y-55522857D01*
X54086285Y-55427619D01*
X54133904Y-55380000D01*
X54229142Y-55332380D01*
X54467238Y-55332380D01*
X54610095Y-55380000D01*
X54943428Y-55332380D02*
X55181523Y-56332380D01*
X55372000Y-55618095D01*
X55562476Y-56332380D01*
X55800571Y-55332380D01*
X56086285Y-55332380D02*
X56705333Y-55332380D01*
X56372000Y-55713333D01*
X56514857Y-55713333D01*
X56610095Y-55760952D01*
X56657714Y-55808571D01*
X56705333Y-55903809D01*
X56705333Y-56141904D01*
X56657714Y-56237142D01*
X56610095Y-56284761D01*
X56514857Y-56332380D01*
X56229142Y-56332380D01*
X56133904Y-56284761D01*
X56086285Y-56237142D01*
X74358666Y-56284761D02*
X74501523Y-56332380D01*
X74739619Y-56332380D01*
X74834857Y-56284761D01*
X74882476Y-56237142D01*
X74930095Y-56141904D01*
X74930095Y-56046666D01*
X74882476Y-55951428D01*
X74834857Y-55903809D01*
X74739619Y-55856190D01*
X74549142Y-55808571D01*
X74453904Y-55760952D01*
X74406285Y-55713333D01*
X74358666Y-55618095D01*
X74358666Y-55522857D01*
X74406285Y-55427619D01*
X74453904Y-55380000D01*
X74549142Y-55332380D01*
X74787238Y-55332380D01*
X74930095Y-55380000D01*
X75263428Y-55332380D02*
X75501523Y-56332380D01*
X75692000Y-55618095D01*
X75882476Y-56332380D01*
X76120571Y-55332380D01*
X76930095Y-55665714D02*
X76930095Y-56332380D01*
X76692000Y-55284761D02*
X76453904Y-55999047D01*
X77072952Y-55999047D01*
X11985809Y-24792380D02*
X11985809Y-23792380D01*
X12366761Y-23792380D01*
X12462000Y-23840000D01*
X12509619Y-23887619D01*
X12557238Y-23982857D01*
X12557238Y-24125714D01*
X12509619Y-24220952D01*
X12462000Y-24268571D01*
X12366761Y-24316190D01*
X11985809Y-24316190D01*
X12985809Y-24792380D02*
X12985809Y-23792380D01*
X13223904Y-23792380D01*
X13366761Y-23840000D01*
X13462000Y-23935238D01*
X13509619Y-24030476D01*
X13557238Y-24220952D01*
X13557238Y-24363809D01*
X13509619Y-24554285D01*
X13462000Y-24649523D01*
X13366761Y-24744761D01*
X13223904Y-24792380D01*
X12985809Y-24792380D01*
X13985809Y-24792380D02*
X13985809Y-23792380D01*
X14985809Y-24792380D02*
X14414380Y-24792380D01*
X14700095Y-24792380D02*
X14700095Y-23792380D01*
X14604857Y-23935238D01*
X14509619Y-24030476D01*
X14414380Y-24078095D01*
X23030380Y-46053333D02*
X23744666Y-46053333D01*
X23887523Y-46100952D01*
X23982761Y-46196190D01*
X24030380Y-46339047D01*
X24030380Y-46434285D01*
X23363714Y-45148571D02*
X24030380Y-45148571D01*
X22982761Y-45386666D02*
X23697047Y-45624761D01*
X23697047Y-45005714D01*
X23030380Y-55197333D02*
X23744666Y-55197333D01*
X23887523Y-55244952D01*
X23982761Y-55340190D01*
X24030380Y-55483047D01*
X24030380Y-55578285D01*
X23030380Y-54244952D02*
X23030380Y-54721142D01*
X23506571Y-54768761D01*
X23458952Y-54721142D01*
X23411333Y-54625904D01*
X23411333Y-54387809D01*
X23458952Y-54292571D01*
X23506571Y-54244952D01*
X23601809Y-54197333D01*
X23839904Y-54197333D01*
X23935142Y-54244952D01*
X23982761Y-54292571D01*
X24030380Y-54387809D01*
X24030380Y-54625904D01*
X23982761Y-54721142D01*
X23935142Y-54768761D01*
X8556666Y-35476380D02*
X8556666Y-36190666D01*
X8509047Y-36333523D01*
X8413809Y-36428761D01*
X8270952Y-36476380D01*
X8175714Y-36476380D01*
X9461428Y-35476380D02*
X9270952Y-35476380D01*
X9175714Y-35524000D01*
X9128095Y-35571619D01*
X9032857Y-35714476D01*
X8985238Y-35904952D01*
X8985238Y-36285904D01*
X9032857Y-36381142D01*
X9080476Y-36428761D01*
X9175714Y-36476380D01*
X9366190Y-36476380D01*
X9461428Y-36428761D01*
X9509047Y-36381142D01*
X9556666Y-36285904D01*
X9556666Y-36047809D01*
X9509047Y-35952571D01*
X9461428Y-35904952D01*
X9366190Y-35857333D01*
X9175714Y-35857333D01*
X9080476Y-35904952D01*
X9032857Y-35952571D01*
X8985238Y-36047809D01*
X7286666Y-14648380D02*
X7286666Y-15362666D01*
X7239047Y-15505523D01*
X7143809Y-15600761D01*
X7000952Y-15648380D01*
X6905714Y-15648380D01*
X7667619Y-14648380D02*
X8334285Y-14648380D01*
X7905714Y-15648380D01*
X18772285Y-12120571D02*
X18915142Y-12168190D01*
X18962761Y-12215809D01*
X19010380Y-12311047D01*
X19010380Y-12453904D01*
X18962761Y-12549142D01*
X18915142Y-12596761D01*
X18819904Y-12644380D01*
X18438952Y-12644380D01*
X18438952Y-11644380D01*
X18772285Y-11644380D01*
X18867523Y-11692000D01*
X18915142Y-11739619D01*
X18962761Y-11834857D01*
X18962761Y-11930095D01*
X18915142Y-12025333D01*
X18867523Y-12072952D01*
X18772285Y-12120571D01*
X18438952Y-12120571D01*
X19296095Y-11644380D02*
X19867523Y-11644380D01*
X19581809Y-12644380D02*
X19581809Y-11644380D01*
X20724666Y-12644380D02*
X20153238Y-12644380D01*
X20438952Y-12644380D02*
X20438952Y-11644380D01*
X20343714Y-11787238D01*
X20248476Y-11882476D01*
X20153238Y-11930095D01*
M02*
