M48
;DRILL file {KiCad (5.0.0-rc2-dev-311-g1dd4af297)} date 04/09/18 10:09:20
;FORMAT={-:-/ absolute / metric / decimal}
FMAT,2
METRIC,TZ
T1C0.500
T2C0.550
T3C0.800
T4C1.000
T5C1.100
T6C1.300
%
G90
G05
M71
T1
X17.78Y-28.956
X18.542Y-17.526
X19.812Y-14.986
X20.32Y-27.686
X23.114Y-24.892
X25.4Y-24.384
X25.425Y-26.01
X30.988Y-3.175
X33.249Y-18.161
X35.219Y-16.282
X35.56Y-7.366
X35.747Y-13.758
X36.233Y-15.177
X37.311Y-16.22
X38.291Y-17.356
X41.25Y-18.161
X41.25Y-40.259
X41.271Y-8.145
X43.561Y-12.319
X46.228Y-26.162
X47.752Y-28.448
X47.752Y-29.972
X49.53Y-53.594
X50.355Y-7.62
X50.546Y-26.162
X51.054Y-15.748
X51.562Y-24.892
X52.578Y-26.162
X53.594Y-24.892
X54.61Y-26.162
X56.134Y-49.784
X57.658Y-9.398
X59.182Y-9.398
X59.182Y-54.102
X60.706Y-9.398
X62.23Y-9.398
X63.754Y-9.398
X65.278Y-9.398
X67.818Y-9.652
X68.834Y-10.922
X69.342Y-48.006
X69.85Y-9.652
X70.866Y-10.922
X71.882Y-9.652
X74.93Y-45.974
T4
X41.148Y-44.45
X41.148Y-46.99
X25.908Y-53.594
X25.908Y-56.134
X28.448Y-53.594
X28.448Y-56.134
X30.988Y-53.594
X30.988Y-56.134
X33.528Y-53.594
X33.528Y-56.134
X36.068Y-53.594
X36.068Y-56.134
X38.608Y-53.594
X38.608Y-56.134
X41.148Y-53.594
X41.148Y-56.134
X7.62Y-56.134
X43.688Y-44.45
X7.62Y-38.354
X7.62Y-40.894
X7.62Y-53.594
X43.688Y-46.99
X7.62Y-43.434
X7.62Y-45.974
X7.62Y-51.054
X7.62Y-17.526
X7.62Y-48.514
X10.16Y-38.354
X10.16Y-40.894
X10.16Y-43.434
X10.16Y-45.974
X7.62Y-20.066
X10.16Y-48.514
X10.16Y-51.054
X10.16Y-53.594
X10.16Y-56.134
X43.688Y-53.594
X43.688Y-56.134
X25.908Y-44.45
X25.908Y-46.99
X28.448Y-44.45
X28.448Y-46.99
X30.988Y-44.45
X30.988Y-46.99
X33.528Y-44.45
X33.528Y-46.99
X36.068Y-44.45
X36.068Y-46.99
X38.608Y-44.45
X38.608Y-46.99
X16.764Y-38.354
X16.764Y-40.894
X16.764Y-43.434
X16.764Y-45.974
X16.764Y-48.514
X16.764Y-51.054
X16.764Y-53.594
X16.764Y-56.134
X19.304Y-51.054
X19.304Y-53.594
X19.304Y-56.134
X14.732Y-31.75
X19.304Y-38.354
X19.304Y-45.974
X19.304Y-48.514
X12.192Y-31.75
X19.304Y-40.894
X19.304Y-43.434
X12.192Y-26.67
X12.192Y-29.21
X14.732Y-26.67
X14.732Y-29.21
T6
X47.986Y-13.588
X83.586Y-13.588
T1
X33.076Y-2.262G85X33.076Y-2.912
G05
X40.076Y-2.262G85X40.076Y-2.912
G05
T2
X34.226Y-5.287G85X33.926Y-5.287
G05
X39.226Y-5.287G85X38.926Y-5.287
G05
T3
X57.036Y-40.988G85X58.536Y-40.988
G05
X73.036Y-40.988G85X74.536Y-40.988
G05
T5
X47.636Y-37.138G85X47.636Y-39.038
G05
X83.936Y-37.138G85X83.936Y-39.038
G05
T0
M30
