G04 #@! TF.GenerationSoftware,KiCad,Pcbnew,(5.0.0-rc2-dev-311-g1dd4af297)*
G04 #@! TF.CreationDate,2018-05-23T12:25:25+02:00*
G04 #@! TF.ProjectId,resetUSB,72657365745553422E6B696361645F70,1.0*
G04 #@! TF.SameCoordinates,PX6ad8e7cPY2bcdfd4*
G04 #@! TF.FileFunction,Soldermask,Top*
G04 #@! TF.FilePolarity,Negative*
%FSLAX46Y46*%
G04 Gerber Fmt 4.6, Leading zero omitted, Abs format (unit mm)*
G04 Created by KiCad (PCBNEW (5.0.0-rc2-dev-311-g1dd4af297)) date 05/23/18 12:25:25*
%MOMM*%
%LPD*%
G01*
G04 APERTURE LIST*
%ADD10C,2.000000*%
%ADD11C,0.150000*%
%ADD12R,0.700000X1.100000*%
%ADD13R,1.927200X1.927200*%
%ADD14O,1.927200X1.927200*%
%ADD15C,2.400000*%
%ADD16R,1.000000X0.950000*%
%ADD17R,3.200000X1.800000*%
%ADD18R,2.000000X2.700000*%
%ADD19R,1.750000X0.800000*%
%ADD20R,1.000000X1.100000*%
%ADD21R,3.000000X3.000000*%
%ADD22C,3.000000*%
%ADD23C,1.800000*%
%ADD24C,2.800000*%
%ADD25R,1.400000X0.800000*%
%ADD26R,0.800000X1.400000*%
%ADD27C,1.200000*%
%ADD28R,2.900000X1.900000*%
%ADD29R,1.900000X2.900000*%
%ADD30C,3.400000*%
%ADD31R,1.200000X3.200000*%
%ADD32R,2.600000X2.600000*%
%ADD33C,2.600000*%
%ADD34R,0.950000X1.000000*%
%ADD35R,1.800000X3.200000*%
%ADD36R,2.200000X1.700000*%
%ADD37R,2.200000X4.000000*%
%ADD38R,1.800000X2.380000*%
%ADD39C,0.700000*%
%ADD40C,0.100000*%
%ADD41R,1.100000X0.700000*%
%ADD42R,0.900000X0.800000*%
%ADD43R,1.000000X1.000000*%
%ADD44R,3.200000X0.900000*%
%ADD45R,6.240000X3.600000*%
%ADD46C,1.600000*%
%ADD47O,1.900000X1.900000*%
%ADD48R,1.900000X1.900000*%
%ADD49R,0.710000X0.900000*%
%ADD50C,1.500000*%
G04 APERTURE END LIST*
D10*
X-1000000Y-181000000D02*
X-1000000Y1000000D01*
X40000000Y-181000000D02*
X-1000000Y-181000000D01*
X40000000Y1000000D02*
X40000000Y-181000000D01*
X-1000000Y1000000D02*
X40000000Y1000000D01*
D11*
X0Y-180000000D02*
X39000000Y-180000000D01*
X39000000Y-180000000D02*
X39000000Y0D01*
X0Y0D02*
X0Y-180000000D01*
X39000000Y0D02*
X0Y0D01*
D12*
X20054000Y-147574000D03*
X18554000Y-147574000D03*
D13*
X32004000Y-142748000D03*
D14*
X34544000Y-142748000D03*
X32004000Y-145288000D03*
X34544000Y-145288000D03*
X32004000Y-147828000D03*
X34544000Y-147828000D03*
X32004000Y-150368000D03*
X34544000Y-150368000D03*
X32004000Y-152908000D03*
X34544000Y-152908000D03*
D15*
X29210000Y-122180000D03*
X24770000Y-112650000D03*
D16*
X12204000Y-139258000D03*
X13704000Y-139258000D03*
X13716000Y-146624000D03*
X12216000Y-146624000D03*
D17*
X13334000Y-142964000D03*
X17734000Y-142964000D03*
D18*
X21775500Y-46863700D03*
X21775500Y-50863700D03*
X21775500Y-58610700D03*
X21775500Y-54610700D03*
X25458500Y-58610700D03*
X25458500Y-54610700D03*
D19*
X33886200Y-57787100D03*
X33886200Y-56517100D03*
X33886200Y-55247100D03*
X33886200Y-53977100D03*
X28486200Y-53977100D03*
X28486200Y-55247100D03*
X28486200Y-56517100D03*
X28486200Y-57787100D03*
D20*
X26566000Y-43769500D03*
X25616000Y-41769500D03*
X27516000Y-41769500D03*
D18*
X25458500Y-46863700D03*
X25458500Y-50863700D03*
D20*
X30249000Y-43769500D03*
X29299000Y-41769500D03*
X31199000Y-41769500D03*
D12*
X30772800Y-31419800D03*
X29272800Y-31419800D03*
D19*
X33886200Y-50167100D03*
X33886200Y-48897100D03*
X33886200Y-47627100D03*
X33886200Y-46357100D03*
X28486200Y-46357100D03*
X28486200Y-47627100D03*
X28486200Y-48897100D03*
X28486200Y-50167100D03*
D21*
X31864000Y-64161000D03*
D22*
X31864000Y-68361000D03*
X26364000Y-64161000D03*
X26364000Y-68361000D03*
D23*
X3920000Y-46810000D03*
X9000000Y-39190000D03*
D15*
X12810000Y-43000000D03*
X17890000Y-43000000D03*
D24*
X17890000Y-46810000D03*
X17890000Y-39190000D03*
D25*
X5842772Y-26541143D03*
X5842772Y-27341143D03*
X5842772Y-28141143D03*
X5842772Y-28941143D03*
X5842772Y-29741143D03*
X5842772Y-30541143D03*
X5842772Y-31341143D03*
X5842772Y-32141143D03*
D26*
X7292772Y-33591143D03*
X8092772Y-33591143D03*
X8892772Y-33591143D03*
X9692772Y-33591143D03*
X10492772Y-33591143D03*
X11292772Y-33591143D03*
X12092772Y-33591143D03*
X12892772Y-33591143D03*
D25*
X14342772Y-32141143D03*
X14342772Y-31341143D03*
X14342772Y-30541143D03*
X14342772Y-29741143D03*
X14342772Y-28941143D03*
X14342772Y-28141143D03*
X14342772Y-27341143D03*
X14342772Y-26541143D03*
D26*
X12892772Y-25091143D03*
X12092772Y-25091143D03*
X11292772Y-25091143D03*
X10492772Y-25091143D03*
X9692772Y-25091143D03*
X8892772Y-25091143D03*
X8092772Y-25091143D03*
X7292772Y-25091143D03*
D12*
X18554000Y-138938000D03*
X20054000Y-138938000D03*
X7937876Y-23392702D03*
X6437876Y-23392702D03*
D16*
X4403631Y-25120423D03*
X5903631Y-25120423D03*
X7949876Y-21868702D03*
X6449876Y-21868702D03*
D27*
X38500000Y-135000000D03*
X38500000Y-125000000D03*
X36000000Y-135000000D03*
X36000000Y-125000000D03*
X31000000Y-130000000D03*
D28*
X31000000Y-135000000D03*
X31000000Y-125000000D03*
X31000000Y-132500000D03*
X31000000Y-127500000D03*
D29*
X36000000Y-130000000D03*
D30*
X37000000Y-10973000D03*
X23860000Y-10973000D03*
D31*
X29430000Y-15183000D03*
X26930000Y-15183000D03*
X31430000Y-15183000D03*
X33930000Y-15183000D03*
D16*
X13704000Y-136718000D03*
X12204000Y-136718000D03*
D32*
X26000000Y-81000000D03*
D33*
X26000000Y-88500000D03*
D15*
X24770000Y-160650000D03*
X29210000Y-170180000D03*
D34*
X31748859Y-22257541D03*
X31748859Y-23757541D03*
D35*
X19380800Y-21742600D03*
X19380800Y-26142600D03*
D36*
X29818859Y-26577541D03*
X29818859Y-21977541D03*
X29818859Y-24277541D03*
D37*
X23518859Y-24277541D03*
D38*
X36856000Y-23951000D03*
X36856000Y-31351000D03*
D16*
X15922627Y-33580956D03*
X14422627Y-33580956D03*
D39*
X23879670Y-27882670D03*
D40*
G36*
X24516066Y-27741249D02*
X23738249Y-28519066D01*
X23243274Y-28024091D01*
X24021091Y-27246274D01*
X24516066Y-27741249D01*
X24516066Y-27741249D01*
G37*
D39*
X24940330Y-28943330D03*
D40*
G36*
X25576726Y-28801909D02*
X24798909Y-29579726D01*
X24303934Y-29084751D01*
X25081751Y-28306934D01*
X25576726Y-28801909D01*
X25576726Y-28801909D01*
G37*
D41*
X16764000Y-137426000D03*
X16764000Y-138926000D03*
D42*
X3596000Y-28691000D03*
X3596000Y-27291000D03*
D43*
X38246500Y-45966000D03*
X36646500Y-45966000D03*
X38246500Y-43426000D03*
X36646500Y-43426000D03*
X38246500Y-40886000D03*
X36646500Y-40886000D03*
D44*
X12000000Y-81875000D03*
X12000000Y-78125000D03*
X12000000Y-80625000D03*
X12000000Y-79375000D03*
D45*
X5580000Y-86800000D03*
X5580000Y-73200000D03*
D46*
X5000000Y-82750000D03*
X5000000Y-77250000D03*
D41*
X37872000Y-19511000D03*
X37872000Y-18011000D03*
D13*
X5614000Y-6529000D03*
D14*
X5614000Y-3989000D03*
X8154000Y-6529000D03*
X8154000Y-3989000D03*
X10694000Y-6529000D03*
X10694000Y-3989000D03*
X13234000Y-6529000D03*
X13234000Y-3989000D03*
X15774000Y-6529000D03*
X15774000Y-3989000D03*
X15774000Y-14149000D03*
X15774000Y-16689000D03*
X13234000Y-14149000D03*
X13234000Y-16689000D03*
X10694000Y-14149000D03*
X10694000Y-16689000D03*
X8154000Y-14149000D03*
X8154000Y-16689000D03*
X5614000Y-14149000D03*
D13*
X5614000Y-16689000D03*
D47*
X30760000Y-18761000D03*
X28220000Y-18761000D03*
X25680000Y-18761000D03*
D48*
X23140000Y-18761000D03*
D49*
X34216900Y-17564300D03*
X35166900Y-17564300D03*
X36116900Y-17564300D03*
X36116900Y-19884300D03*
X35166900Y-19884300D03*
X34216900Y-19884300D03*
D17*
X14940000Y-102606000D03*
X10540000Y-102606000D03*
D12*
X30772800Y-32943800D03*
X29272800Y-32943800D03*
D23*
X4550000Y-143000000D03*
X4550000Y-145540000D03*
X4550000Y-148080000D03*
X4550000Y-150620000D03*
X4550000Y-140460000D03*
X4550000Y-137920000D03*
X4550000Y-135380000D03*
X9630000Y-151890000D03*
X9630000Y-149350000D03*
X9630000Y-146810000D03*
X9630000Y-144270000D03*
X9630000Y-141730000D03*
X9630000Y-139190000D03*
X9630000Y-136650000D03*
X9630000Y-134110000D03*
D16*
X13704000Y-149418000D03*
X12204000Y-149418000D03*
D12*
X30762000Y-34468000D03*
X29262000Y-34468000D03*
X26658000Y-147828000D03*
X25158000Y-147828000D03*
X6108000Y-102692200D03*
X7608000Y-102692200D03*
D41*
X36576000Y-159778000D03*
X36576000Y-161278000D03*
X34544000Y-159778000D03*
X34544000Y-161278000D03*
X16764000Y-147586000D03*
X16764000Y-149086000D03*
D12*
X32320800Y-44627800D03*
X33820800Y-44627800D03*
X32296800Y-52197000D03*
X30796800Y-52197000D03*
D41*
X4114800Y-33717800D03*
X4114800Y-35217800D03*
X5765800Y-33717800D03*
X5765800Y-35217800D03*
D50*
X14518000Y-80618000D03*
X36870000Y-35230000D03*
X5293802Y-21854010D03*
X17348800Y-20853600D03*
X31748859Y-25547541D03*
X14454207Y-34838191D03*
X33840500Y-52046700D03*
X15240000Y-136718000D03*
X15240000Y-149418000D03*
X21704000Y-44730000D03*
X21884000Y-60884000D03*
X24170000Y-42723000D03*
X17566000Y-102606000D03*
M02*
