M48
;DRILL file {KiCad (5.0.0-rc2-dev-311-g1dd4af297)} date 05/23/18 12:25:43
;FORMAT={-:-/ absolute / metric / decimal}
FMAT,2
METRIC,TZ
T1C0.500
T2C0.900
T3C1.000
T4C1.016
T5C1.200
T6C1.400
T7C1.600
T8C2.300
T9C1.000
T10C1.400
T11C1.600
%
G90
G05
M71
T1
X5.294Y-21.854
X14.454Y-34.838
X14.518Y-80.618
X15.24Y-136.718
X15.24Y-149.418
X17.349Y-20.854
X17.566Y-102.606
X21.704Y-44.73
X21.884Y-60.884
X24.17Y-42.723
X31.749Y-25.548
X33.84Y-52.047
X36.87Y-35.23
T2
X4.55Y-135.38
X4.55Y-137.92
X4.55Y-140.46
X4.55Y-143.
X4.55Y-145.54
X4.55Y-148.08
X4.55Y-150.62
X9.63Y-134.11
X9.63Y-136.65
X9.63Y-139.19
X9.63Y-141.73
X9.63Y-144.27
X9.63Y-146.81
X9.63Y-149.35
X9.63Y-151.89
T3
X23.14Y-18.761
X25.68Y-18.761
X28.22Y-18.761
X30.76Y-18.761
T4
X5.614Y-3.989
X5.614Y-6.529
X8.154Y-3.989
X8.154Y-6.529
X10.694Y-3.989
X10.694Y-6.529
X13.234Y-3.989
X13.234Y-6.529
X15.774Y-3.989
X15.774Y-6.529
X5.614Y-14.149
X5.614Y-16.689
X8.154Y-14.149
X8.154Y-16.689
X10.694Y-14.149
X10.694Y-16.689
X13.234Y-14.149
X13.234Y-16.689
X32.004Y-142.748
X15.774Y-14.149
X15.774Y-16.689
X32.004Y-145.288
X32.004Y-147.828
X32.004Y-150.368
X32.004Y-152.908
X34.544Y-142.748
X34.544Y-145.288
X34.544Y-147.828
X34.544Y-150.368
X34.544Y-152.908
T5
X24.77Y-160.65
X29.21Y-170.18
X12.81Y-43.
X17.89Y-43.
X24.77Y-112.65
X29.21Y-122.18
X26.Y-81.
X26.Y-88.5
T6
X26.364Y-64.161
X26.364Y-68.361
X31.864Y-64.161
X31.864Y-68.361
T7
X17.89Y-39.19
X17.89Y-46.81
T8
X23.86Y-10.973
X37.Y-10.973
T9
X31.Y-130.
X36.Y-125.
X36.Y-135.
X38.5Y-125.
X38.5Y-135.
T10
X5.Y-77.25
X5.Y-82.75
T11
X3.92Y-46.81
X9.Y-39.19
T3
X31.5Y-125.G85X30.5Y-125.
G05
X31.5Y-127.5G85X30.5Y-127.5
G05
X31.5Y-132.5G85X30.5Y-132.5
G05
X31.5Y-135.G85X30.5Y-135.
G05
X36.Y-129.5G85X36.Y-130.5
G05
T0
M30
