G04 #@! TF.GenerationSoftware,KiCad,Pcbnew,(5.0.0-rc2-dev-311-g1dd4af297)*
G04 #@! TF.CreationDate,2018-05-23T12:25:25+02:00*
G04 #@! TF.ProjectId,resetUSB,72657365745553422E6B696361645F70,1.0*
G04 #@! TF.SameCoordinates,PX6ad8e7cPY2bcdfd4*
G04 #@! TF.FileFunction,Copper,L1,Top,Signal*
G04 #@! TF.FilePolarity,Positive*
%FSLAX46Y46*%
G04 Gerber Fmt 4.6, Leading zero omitted, Abs format (unit mm)*
G04 Created by KiCad (PCBNEW (5.0.0-rc2-dev-311-g1dd4af297)) date 05/23/18 12:25:25*
%MOMM*%
%LPD*%
G01*
G04 APERTURE LIST*
%ADD10C,2.000000*%
%ADD11C,0.150000*%
%ADD12C,0.300000*%
%ADD13R,0.500000X0.900000*%
%ADD14R,1.727200X1.727200*%
%ADD15O,1.727200X1.727200*%
%ADD16C,2.200000*%
%ADD17R,0.800000X0.750000*%
%ADD18R,3.000000X1.600000*%
%ADD19R,1.800000X2.500000*%
%ADD20R,1.550000X0.600000*%
%ADD21R,0.800000X0.900000*%
%ADD22R,2.800000X2.800000*%
%ADD23C,2.800000*%
%ADD24C,2.600000*%
%ADD25R,1.200000X0.600000*%
%ADD26R,0.600000X1.200000*%
%ADD27R,2.700000X1.700000*%
%ADD28R,1.700000X2.700000*%
%ADD29C,3.200000*%
%ADD30R,1.000000X3.000000*%
%ADD31R,2.400000X2.400000*%
%ADD32C,2.400000*%
%ADD33R,0.750000X0.800000*%
%ADD34R,1.600000X3.000000*%
%ADD35R,2.000000X1.500000*%
%ADD36R,2.000000X3.800000*%
%ADD37R,1.600000X2.180000*%
%ADD38C,0.500000*%
%ADD39C,0.100000*%
%ADD40R,0.900000X0.500000*%
%ADD41R,0.700000X0.600000*%
%ADD42R,0.800000X0.800000*%
%ADD43R,3.000000X0.700000*%
%ADD44R,6.040000X3.400000*%
%ADD45O,1.700000X1.700000*%
%ADD46R,1.700000X1.700000*%
%ADD47R,0.510000X0.700000*%
%ADD48C,1.600000*%
%ADD49C,1.300000*%
%ADD50C,0.750000*%
%ADD51C,1.800000*%
%ADD52C,0.250000*%
%ADD53C,0.254000*%
G04 APERTURE END LIST*
D10*
X-1000000Y-181000000D02*
X-1000000Y1000000D01*
X40000000Y-181000000D02*
X-1000000Y-181000000D01*
X40000000Y1000000D02*
X40000000Y-181000000D01*
X-1000000Y1000000D02*
X40000000Y1000000D01*
D11*
X0Y-180000000D02*
X39000000Y-180000000D01*
X39000000Y-180000000D02*
X39000000Y0D01*
X0Y0D02*
X0Y-180000000D01*
X39000000Y0D02*
X0Y0D01*
D12*
X33403571Y-97678571D02*
X31903571Y-97678571D01*
X33403571Y-96821428D02*
X32546428Y-97464285D01*
X31903571Y-96821428D02*
X32760714Y-97678571D01*
X32403571Y-96178571D02*
X33403571Y-96178571D01*
X32546428Y-96178571D02*
X32475000Y-96107142D01*
X32403571Y-95964285D01*
X32403571Y-95750000D01*
X32475000Y-95607142D01*
X32617857Y-95535714D01*
X33403571Y-95535714D01*
X33403571Y-94607142D02*
X33332142Y-94750000D01*
X33260714Y-94821428D01*
X33117857Y-94892857D01*
X32689285Y-94892857D01*
X32546428Y-94821428D01*
X32475000Y-94750000D01*
X32403571Y-94607142D01*
X32403571Y-94392857D01*
X32475000Y-94250000D01*
X32546428Y-94178571D01*
X32689285Y-94107142D01*
X33117857Y-94107142D01*
X33260714Y-94178571D01*
X33332142Y-94250000D01*
X33403571Y-94392857D01*
X33403571Y-94607142D01*
X33403571Y-93250000D02*
X33332142Y-93392857D01*
X33260714Y-93464285D01*
X33117857Y-93535714D01*
X32689285Y-93535714D01*
X32546428Y-93464285D01*
X32475000Y-93392857D01*
X32403571Y-93250000D01*
X32403571Y-93035714D01*
X32475000Y-92892857D01*
X32546428Y-92821428D01*
X32689285Y-92750000D01*
X33117857Y-92750000D01*
X33260714Y-92821428D01*
X33332142Y-92892857D01*
X33403571Y-93035714D01*
X33403571Y-93250000D01*
X33332142Y-91464285D02*
X33403571Y-91607142D01*
X33403571Y-91892857D01*
X33332142Y-92035714D01*
X33260714Y-92107142D01*
X33117857Y-92178571D01*
X32689285Y-92178571D01*
X32546428Y-92107142D01*
X32475000Y-92035714D01*
X32403571Y-91892857D01*
X32403571Y-91607142D01*
X32475000Y-91464285D01*
X33403571Y-90821428D02*
X31903571Y-90821428D01*
X32832142Y-90678571D02*
X33403571Y-90250000D01*
X32403571Y-90250000D02*
X32975000Y-90821428D01*
X33332142Y-89035714D02*
X33403571Y-89178571D01*
X33403571Y-89464285D01*
X33332142Y-89607142D01*
X33189285Y-89678571D01*
X32617857Y-89678571D01*
X32475000Y-89607142D01*
X32403571Y-89464285D01*
X32403571Y-89178571D01*
X32475000Y-89035714D01*
X32617857Y-88964285D01*
X32760714Y-88964285D01*
X32903571Y-89678571D01*
X33403571Y-88321428D02*
X32403571Y-88321428D01*
X32689285Y-88321428D02*
X32546428Y-88250000D01*
X32475000Y-88178571D01*
X32403571Y-88035714D01*
X32403571Y-87892857D01*
X33403571Y-86250000D02*
X32403571Y-86250000D01*
X32689285Y-86250000D02*
X32546428Y-86178571D01*
X32475000Y-86107142D01*
X32403571Y-85964285D01*
X32403571Y-85821428D01*
X33332142Y-84750000D02*
X33403571Y-84892857D01*
X33403571Y-85178571D01*
X33332142Y-85321428D01*
X33189285Y-85392857D01*
X32617857Y-85392857D01*
X32475000Y-85321428D01*
X32403571Y-85178571D01*
X32403571Y-84892857D01*
X32475000Y-84750000D01*
X32617857Y-84678571D01*
X32760714Y-84678571D01*
X32903571Y-85392857D01*
X33332142Y-84107142D02*
X33403571Y-83964285D01*
X33403571Y-83678571D01*
X33332142Y-83535714D01*
X33189285Y-83464285D01*
X33117857Y-83464285D01*
X32975000Y-83535714D01*
X32903571Y-83678571D01*
X32903571Y-83892857D01*
X32832142Y-84035714D01*
X32689285Y-84107142D01*
X32617857Y-84107142D01*
X32475000Y-84035714D01*
X32403571Y-83892857D01*
X32403571Y-83678571D01*
X32475000Y-83535714D01*
X33332142Y-82250000D02*
X33403571Y-82392857D01*
X33403571Y-82678571D01*
X33332142Y-82821428D01*
X33189285Y-82892857D01*
X32617857Y-82892857D01*
X32475000Y-82821428D01*
X32403571Y-82678571D01*
X32403571Y-82392857D01*
X32475000Y-82250000D01*
X32617857Y-82178571D01*
X32760714Y-82178571D01*
X32903571Y-82892857D01*
X32403571Y-81750000D02*
X32403571Y-81178571D01*
X31903571Y-81535714D02*
X33189285Y-81535714D01*
X33332142Y-81464285D01*
X33403571Y-81321428D01*
X33403571Y-81178571D01*
X31903571Y-80678571D02*
X33117857Y-80678571D01*
X33260714Y-80607142D01*
X33332142Y-80535714D01*
X33403571Y-80392857D01*
X33403571Y-80107142D01*
X33332142Y-79964285D01*
X33260714Y-79892857D01*
X33117857Y-79821428D01*
X31903571Y-79821428D01*
X33332142Y-79178571D02*
X33403571Y-78964285D01*
X33403571Y-78607142D01*
X33332142Y-78464285D01*
X33260714Y-78392857D01*
X33117857Y-78321428D01*
X32975000Y-78321428D01*
X32832142Y-78392857D01*
X32760714Y-78464285D01*
X32689285Y-78607142D01*
X32617857Y-78892857D01*
X32546428Y-79035714D01*
X32475000Y-79107142D01*
X32332142Y-79178571D01*
X32189285Y-79178571D01*
X32046428Y-79107142D01*
X31975000Y-79035714D01*
X31903571Y-78892857D01*
X31903571Y-78535714D01*
X31975000Y-78321428D01*
X32617857Y-77178571D02*
X32689285Y-76964285D01*
X32760714Y-76892857D01*
X32903571Y-76821428D01*
X33117857Y-76821428D01*
X33260714Y-76892857D01*
X33332142Y-76964285D01*
X33403571Y-77107142D01*
X33403571Y-77678571D01*
X31903571Y-77678571D01*
X31903571Y-77178571D01*
X31975000Y-77035714D01*
X32046428Y-76964285D01*
X32189285Y-76892857D01*
X32332142Y-76892857D01*
X32475000Y-76964285D01*
X32546428Y-77035714D01*
X32617857Y-77178571D01*
X32617857Y-77678571D01*
X32403571Y-76321428D02*
X33403571Y-75964285D01*
X32403571Y-75607142D01*
X32403571Y-74392857D02*
X33403571Y-74392857D01*
X31832142Y-74750000D02*
X32903571Y-75107142D01*
X32903571Y-74178571D01*
X35953571Y-97892857D02*
X34953571Y-97892857D01*
X35096428Y-97892857D02*
X35025000Y-97821428D01*
X34953571Y-97678571D01*
X34953571Y-97464285D01*
X35025000Y-97321428D01*
X35167857Y-97250000D01*
X35953571Y-97250000D01*
X35167857Y-97250000D02*
X35025000Y-97178571D01*
X34953571Y-97035714D01*
X34953571Y-96821428D01*
X35025000Y-96678571D01*
X35167857Y-96607142D01*
X35953571Y-96607142D01*
X35953571Y-95250000D02*
X35167857Y-95250000D01*
X35025000Y-95321428D01*
X34953571Y-95464285D01*
X34953571Y-95750000D01*
X35025000Y-95892857D01*
X35882142Y-95250000D02*
X35953571Y-95392857D01*
X35953571Y-95750000D01*
X35882142Y-95892857D01*
X35739285Y-95964285D01*
X35596428Y-95964285D01*
X35453571Y-95892857D01*
X35382142Y-95750000D01*
X35382142Y-95392857D01*
X35310714Y-95250000D01*
X35953571Y-94535714D02*
X34953571Y-94535714D01*
X35239285Y-94535714D02*
X35096428Y-94464285D01*
X35025000Y-94392857D01*
X34953571Y-94250000D01*
X34953571Y-94107142D01*
X35882142Y-93035714D02*
X35953571Y-93178571D01*
X35953571Y-93464285D01*
X35882142Y-93607142D01*
X35739285Y-93678571D01*
X35167857Y-93678571D01*
X35025000Y-93607142D01*
X34953571Y-93464285D01*
X34953571Y-93178571D01*
X35025000Y-93035714D01*
X35167857Y-92964285D01*
X35310714Y-92964285D01*
X35453571Y-93678571D01*
X35953571Y-92321428D02*
X34453571Y-92321428D01*
X35382142Y-92178571D02*
X35953571Y-91750000D01*
X34953571Y-91750000D02*
X35525000Y-92321428D01*
X34953571Y-91107142D02*
X36453571Y-91107142D01*
X35025000Y-91107142D02*
X34953571Y-90964285D01*
X34953571Y-90678571D01*
X35025000Y-90535714D01*
X35096428Y-90464285D01*
X35239285Y-90392857D01*
X35667857Y-90392857D01*
X35810714Y-90464285D01*
X35882142Y-90535714D01*
X35953571Y-90678571D01*
X35953571Y-90964285D01*
X35882142Y-91107142D01*
X35953571Y-88964285D02*
X35953571Y-89821428D01*
X35953571Y-89392857D02*
X34453571Y-89392857D01*
X34667857Y-89535714D01*
X34810714Y-89678571D01*
X34882142Y-89821428D01*
X35096428Y-88107142D02*
X35025000Y-88250000D01*
X34953571Y-88321428D01*
X34810714Y-88392857D01*
X34739285Y-88392857D01*
X34596428Y-88321428D01*
X34525000Y-88250000D01*
X34453571Y-88107142D01*
X34453571Y-87821428D01*
X34525000Y-87678571D01*
X34596428Y-87607142D01*
X34739285Y-87535714D01*
X34810714Y-87535714D01*
X34953571Y-87607142D01*
X35025000Y-87678571D01*
X35096428Y-87821428D01*
X35096428Y-88107142D01*
X35167857Y-88250000D01*
X35239285Y-88321428D01*
X35382142Y-88392857D01*
X35667857Y-88392857D01*
X35810714Y-88321428D01*
X35882142Y-88250000D01*
X35953571Y-88107142D01*
X35953571Y-87821428D01*
X35882142Y-87678571D01*
X35810714Y-87607142D01*
X35667857Y-87535714D01*
X35382142Y-87535714D01*
X35239285Y-87607142D01*
X35167857Y-87678571D01*
X35096428Y-87821428D01*
X35239285Y-85964285D02*
X35167857Y-86035714D01*
X35096428Y-86178571D01*
X35096428Y-86321428D01*
X35167857Y-86464285D01*
X35239285Y-86535714D01*
X35382142Y-86607142D01*
X35525000Y-86607142D01*
X35667857Y-86535714D01*
X35739285Y-86464285D01*
X35810714Y-86321428D01*
X35810714Y-86178571D01*
X35739285Y-86035714D01*
X35667857Y-85964285D01*
X35096428Y-85964285D02*
X35667857Y-85964285D01*
X35739285Y-85892857D01*
X35739285Y-85821428D01*
X35667857Y-85678571D01*
X35525000Y-85607142D01*
X35167857Y-85607142D01*
X34953571Y-85750000D01*
X34810714Y-85964285D01*
X34739285Y-86250000D01*
X34810714Y-86535714D01*
X34953571Y-86750000D01*
X35167857Y-86892857D01*
X35453571Y-86964285D01*
X35739285Y-86892857D01*
X35953571Y-86750000D01*
X36096428Y-86535714D01*
X36167857Y-86250000D01*
X36096428Y-85964285D01*
X35953571Y-85750000D01*
X34953571Y-84321428D02*
X36167857Y-84321428D01*
X36310714Y-84392857D01*
X36382142Y-84464285D01*
X36453571Y-84607142D01*
X36453571Y-84821428D01*
X36382142Y-84964285D01*
X35882142Y-84321428D02*
X35953571Y-84464285D01*
X35953571Y-84750000D01*
X35882142Y-84892857D01*
X35810714Y-84964285D01*
X35667857Y-85035714D01*
X35239285Y-85035714D01*
X35096428Y-84964285D01*
X35025000Y-84892857D01*
X34953571Y-84750000D01*
X34953571Y-84464285D01*
X35025000Y-84321428D01*
X35953571Y-83607142D02*
X34953571Y-83607142D01*
X35096428Y-83607142D02*
X35025000Y-83535714D01*
X34953571Y-83392857D01*
X34953571Y-83178571D01*
X35025000Y-83035714D01*
X35167857Y-82964285D01*
X35953571Y-82964285D01*
X35167857Y-82964285D02*
X35025000Y-82892857D01*
X34953571Y-82750000D01*
X34953571Y-82535714D01*
X35025000Y-82392857D01*
X35167857Y-82321428D01*
X35953571Y-82321428D01*
X35953571Y-80964285D02*
X35167857Y-80964285D01*
X35025000Y-81035714D01*
X34953571Y-81178571D01*
X34953571Y-81464285D01*
X35025000Y-81607142D01*
X35882142Y-80964285D02*
X35953571Y-81107142D01*
X35953571Y-81464285D01*
X35882142Y-81607142D01*
X35739285Y-81678571D01*
X35596428Y-81678571D01*
X35453571Y-81607142D01*
X35382142Y-81464285D01*
X35382142Y-81107142D01*
X35310714Y-80964285D01*
X35953571Y-80250000D02*
X34953571Y-80250000D01*
X34453571Y-80250000D02*
X34525000Y-80321428D01*
X34596428Y-80250000D01*
X34525000Y-80178571D01*
X34453571Y-80250000D01*
X34596428Y-80250000D01*
X35953571Y-79321428D02*
X35882142Y-79464285D01*
X35739285Y-79535714D01*
X34453571Y-79535714D01*
X35810714Y-78750000D02*
X35882142Y-78678571D01*
X35953571Y-78750000D01*
X35882142Y-78821428D01*
X35810714Y-78750000D01*
X35953571Y-78750000D01*
X35882142Y-77392857D02*
X35953571Y-77535714D01*
X35953571Y-77821428D01*
X35882142Y-77964285D01*
X35810714Y-78035714D01*
X35667857Y-78107142D01*
X35239285Y-78107142D01*
X35096428Y-78035714D01*
X35025000Y-77964285D01*
X34953571Y-77821428D01*
X34953571Y-77535714D01*
X35025000Y-77392857D01*
X35953571Y-76535714D02*
X35882142Y-76678571D01*
X35810714Y-76750000D01*
X35667857Y-76821428D01*
X35239285Y-76821428D01*
X35096428Y-76750000D01*
X35025000Y-76678571D01*
X34953571Y-76535714D01*
X34953571Y-76321428D01*
X35025000Y-76178571D01*
X35096428Y-76107142D01*
X35239285Y-76035714D01*
X35667857Y-76035714D01*
X35810714Y-76107142D01*
X35882142Y-76178571D01*
X35953571Y-76321428D01*
X35953571Y-76535714D01*
X35953571Y-75392857D02*
X34953571Y-75392857D01*
X35096428Y-75392857D02*
X35025000Y-75321428D01*
X34953571Y-75178571D01*
X34953571Y-74964285D01*
X35025000Y-74821428D01*
X35167857Y-74750000D01*
X35953571Y-74750000D01*
X35167857Y-74750000D02*
X35025000Y-74678571D01*
X34953571Y-74535714D01*
X34953571Y-74321428D01*
X35025000Y-74178571D01*
X35167857Y-74107142D01*
X35953571Y-74107142D01*
D13*
X20054000Y-147574000D03*
X18554000Y-147574000D03*
D14*
X32004000Y-142748000D03*
D15*
X34544000Y-142748000D03*
X32004000Y-145288000D03*
X34544000Y-145288000D03*
X32004000Y-147828000D03*
X34544000Y-147828000D03*
X32004000Y-150368000D03*
X34544000Y-150368000D03*
X32004000Y-152908000D03*
X34544000Y-152908000D03*
D16*
X29210000Y-122180000D03*
X24770000Y-112650000D03*
D17*
X12204000Y-139258000D03*
X13704000Y-139258000D03*
X13716000Y-146624000D03*
X12216000Y-146624000D03*
D18*
X13334000Y-142964000D03*
X17734000Y-142964000D03*
D19*
X21775500Y-46863700D03*
X21775500Y-50863700D03*
X21775500Y-58610700D03*
X21775500Y-54610700D03*
X25458500Y-58610700D03*
X25458500Y-54610700D03*
D20*
X33886200Y-57787100D03*
X33886200Y-56517100D03*
X33886200Y-55247100D03*
X33886200Y-53977100D03*
X28486200Y-53977100D03*
X28486200Y-55247100D03*
X28486200Y-56517100D03*
X28486200Y-57787100D03*
D21*
X26566000Y-43769500D03*
X25616000Y-41769500D03*
X27516000Y-41769500D03*
D19*
X25458500Y-46863700D03*
X25458500Y-50863700D03*
D21*
X30249000Y-43769500D03*
X29299000Y-41769500D03*
X31199000Y-41769500D03*
D13*
X30772800Y-31419800D03*
X29272800Y-31419800D03*
D20*
X33886200Y-50167100D03*
X33886200Y-48897100D03*
X33886200Y-47627100D03*
X33886200Y-46357100D03*
X28486200Y-46357100D03*
X28486200Y-47627100D03*
X28486200Y-48897100D03*
X28486200Y-50167100D03*
D22*
X31864000Y-64161000D03*
D23*
X31864000Y-68361000D03*
X26364000Y-64161000D03*
X26364000Y-68361000D03*
D16*
X12810000Y-43000000D03*
X17890000Y-43000000D03*
D24*
X17890000Y-46810000D03*
X17890000Y-39190000D03*
D25*
X5842772Y-26541143D03*
X5842772Y-27341143D03*
X5842772Y-28141143D03*
X5842772Y-28941143D03*
X5842772Y-29741143D03*
X5842772Y-30541143D03*
X5842772Y-31341143D03*
X5842772Y-32141143D03*
D26*
X7292772Y-33591143D03*
X8092772Y-33591143D03*
X8892772Y-33591143D03*
X9692772Y-33591143D03*
X10492772Y-33591143D03*
X11292772Y-33591143D03*
X12092772Y-33591143D03*
X12892772Y-33591143D03*
D25*
X14342772Y-32141143D03*
X14342772Y-31341143D03*
X14342772Y-30541143D03*
X14342772Y-29741143D03*
X14342772Y-28941143D03*
X14342772Y-28141143D03*
X14342772Y-27341143D03*
X14342772Y-26541143D03*
D26*
X12892772Y-25091143D03*
X12092772Y-25091143D03*
X11292772Y-25091143D03*
X10492772Y-25091143D03*
X9692772Y-25091143D03*
X8892772Y-25091143D03*
X8092772Y-25091143D03*
X7292772Y-25091143D03*
D13*
X18554000Y-138938000D03*
X20054000Y-138938000D03*
X7937876Y-23392702D03*
X6437876Y-23392702D03*
D17*
X4403631Y-25120423D03*
X5903631Y-25120423D03*
X7949876Y-21868702D03*
X6449876Y-21868702D03*
D27*
X31000000Y-135000000D03*
X31000000Y-125000000D03*
X31000000Y-132500000D03*
X31000000Y-127500000D03*
D28*
X36000000Y-130000000D03*
D29*
X37000000Y-10973000D03*
X23860000Y-10973000D03*
D30*
X29430000Y-15183000D03*
X26930000Y-15183000D03*
X31430000Y-15183000D03*
X33930000Y-15183000D03*
D17*
X13704000Y-136718000D03*
X12204000Y-136718000D03*
D31*
X26000000Y-81000000D03*
D32*
X26000000Y-88500000D03*
D16*
X24770000Y-160650000D03*
X29210000Y-170180000D03*
D33*
X31748859Y-22257541D03*
X31748859Y-23757541D03*
D34*
X19380800Y-21742600D03*
X19380800Y-26142600D03*
D35*
X29818859Y-26577541D03*
X29818859Y-21977541D03*
X29818859Y-24277541D03*
D36*
X23518859Y-24277541D03*
D37*
X36856000Y-23951000D03*
X36856000Y-31351000D03*
D17*
X15922627Y-33580956D03*
X14422627Y-33580956D03*
D38*
X23879670Y-27882670D03*
D39*
G36*
X24374645Y-27741249D02*
X23738249Y-28377645D01*
X23384695Y-28024091D01*
X24021091Y-27387695D01*
X24374645Y-27741249D01*
X24374645Y-27741249D01*
G37*
D38*
X24940330Y-28943330D03*
D39*
G36*
X25435305Y-28801909D02*
X24798909Y-29438305D01*
X24445355Y-29084751D01*
X25081751Y-28448355D01*
X25435305Y-28801909D01*
X25435305Y-28801909D01*
G37*
D40*
X16764000Y-137426000D03*
X16764000Y-138926000D03*
D41*
X3596000Y-28691000D03*
X3596000Y-27291000D03*
D42*
X38246500Y-45966000D03*
X36646500Y-45966000D03*
X38246500Y-43426000D03*
X36646500Y-43426000D03*
X38246500Y-40886000D03*
X36646500Y-40886000D03*
D43*
X12000000Y-81875000D03*
X12000000Y-78125000D03*
X12000000Y-80625000D03*
X12000000Y-79375000D03*
D44*
X5580000Y-86800000D03*
X5580000Y-73200000D03*
D40*
X37872000Y-19511000D03*
X37872000Y-18011000D03*
D14*
X5614000Y-6529000D03*
D15*
X5614000Y-3989000D03*
X8154000Y-6529000D03*
X8154000Y-3989000D03*
X10694000Y-6529000D03*
X10694000Y-3989000D03*
X13234000Y-6529000D03*
X13234000Y-3989000D03*
X15774000Y-6529000D03*
X15774000Y-3989000D03*
X15774000Y-14149000D03*
X15774000Y-16689000D03*
X13234000Y-14149000D03*
X13234000Y-16689000D03*
X10694000Y-14149000D03*
X10694000Y-16689000D03*
X8154000Y-14149000D03*
X8154000Y-16689000D03*
X5614000Y-14149000D03*
D14*
X5614000Y-16689000D03*
D45*
X30760000Y-18761000D03*
X28220000Y-18761000D03*
X25680000Y-18761000D03*
D46*
X23140000Y-18761000D03*
D47*
X34216900Y-17564300D03*
X35166900Y-17564300D03*
X36116900Y-17564300D03*
X36116900Y-19884300D03*
X35166900Y-19884300D03*
X34216900Y-19884300D03*
D18*
X14940000Y-102606000D03*
X10540000Y-102606000D03*
D13*
X30772800Y-32943800D03*
X29272800Y-32943800D03*
D48*
X4550000Y-143000000D03*
X4550000Y-145540000D03*
X4550000Y-148080000D03*
X4550000Y-150620000D03*
X4550000Y-140460000D03*
X4550000Y-137920000D03*
X4550000Y-135380000D03*
X9630000Y-151890000D03*
X9630000Y-149350000D03*
X9630000Y-146810000D03*
X9630000Y-144270000D03*
X9630000Y-141730000D03*
X9630000Y-139190000D03*
X9630000Y-136650000D03*
X9630000Y-134110000D03*
D17*
X13704000Y-149418000D03*
X12204000Y-149418000D03*
D13*
X30762000Y-34468000D03*
X29262000Y-34468000D03*
X26658000Y-147828000D03*
X25158000Y-147828000D03*
X6108000Y-102692200D03*
X7608000Y-102692200D03*
D40*
X36576000Y-159778000D03*
X36576000Y-161278000D03*
X34544000Y-159778000D03*
X34544000Y-161278000D03*
X16764000Y-147586000D03*
X16764000Y-149086000D03*
D13*
X32320800Y-44627800D03*
X33820800Y-44627800D03*
X32296800Y-52197000D03*
X30796800Y-52197000D03*
D40*
X4114800Y-33717800D03*
X4114800Y-35217800D03*
X5765800Y-33717800D03*
X5765800Y-35217800D03*
D49*
X14518000Y-80618000D03*
X36870000Y-35230000D03*
X5293802Y-21854010D03*
X17348800Y-20853600D03*
X31748859Y-25547541D03*
X14454207Y-34838191D03*
X33840500Y-52046700D03*
X15240000Y-136718000D03*
X15240000Y-149418000D03*
X21704000Y-44730000D03*
X21884000Y-60884000D03*
X24170000Y-42723000D03*
X17566000Y-102606000D03*
D12*
X14511000Y-80625000D02*
X14518000Y-80618000D01*
X12000000Y-80625000D02*
X14511000Y-80625000D01*
X36856000Y-31351000D02*
X36856000Y-35216000D01*
X36856000Y-35216000D02*
X36870000Y-35230000D01*
X38246500Y-36606500D02*
X36870000Y-35230000D01*
X38246500Y-40186000D02*
X38246500Y-36606500D01*
X5308494Y-21868702D02*
X5293802Y-21854010D01*
X6449876Y-21868702D02*
X5308494Y-21868702D01*
X5903631Y-24667369D02*
X6437876Y-24133124D01*
X5903631Y-25120423D02*
X5903631Y-24667369D01*
X6437876Y-24133124D02*
X6437876Y-23392702D01*
X5903631Y-25120423D02*
X5932911Y-25091143D01*
X5932911Y-25091143D02*
X7292772Y-25091143D01*
X12892772Y-33591144D02*
X12902960Y-33580956D01*
X12902960Y-33580956D02*
X14422628Y-33580956D01*
X6437876Y-21880702D02*
X6449876Y-21868702D01*
X6437877Y-23392702D02*
X6437876Y-21880702D01*
X23869008Y-16950008D02*
X24410000Y-17491000D01*
X22654008Y-16950008D02*
X23869008Y-16950008D01*
X16296000Y-10592000D02*
X22654008Y-16950008D01*
X7592000Y-10592000D02*
X16296000Y-10592000D01*
X5614000Y-6529000D02*
X5614000Y-8614000D01*
X5614000Y-8614000D02*
X7592000Y-10592000D01*
X24410000Y-19523000D02*
X25426000Y-20539000D01*
X24410000Y-17491000D02*
X24410000Y-19523000D01*
X25426000Y-20539000D02*
X29430318Y-20539000D01*
X29430318Y-20539000D02*
X29818859Y-20927541D01*
X29818859Y-20927541D02*
X29818859Y-21977541D01*
X12892772Y-32141143D02*
X14342772Y-32141143D01*
X14342772Y-32141143D02*
X15048034Y-32141143D01*
X11080600Y-30328972D02*
X12892772Y-32141143D01*
X11080600Y-28353315D02*
X11080600Y-30328972D01*
X15048034Y-32141143D02*
X15922627Y-33015737D01*
X15922627Y-33015737D02*
X15922627Y-33580956D01*
X18280800Y-26142600D02*
X17589200Y-25451000D01*
X19380800Y-26142600D02*
X18280800Y-26142600D01*
X17589200Y-25451000D02*
X13982916Y-25451000D01*
X13982916Y-25451000D02*
X12248034Y-27185882D01*
X5137511Y-26541143D02*
X4403632Y-25807264D01*
X5842772Y-26541143D02*
X5137511Y-26541143D01*
X4403632Y-25807264D02*
X4403632Y-25120423D01*
X9104944Y-28353315D02*
X7292772Y-26541143D01*
X11080600Y-28353315D02*
X9104944Y-28353315D01*
X7292772Y-26541143D02*
X5842772Y-26541143D01*
X12248034Y-27185882D02*
X11080600Y-28353315D01*
X12248034Y-27185882D02*
X9692772Y-29741144D01*
X9692772Y-29741144D02*
X5842772Y-29741144D01*
X19471000Y-26340000D02*
X19344000Y-26213000D01*
X19344000Y-26213000D02*
X19380800Y-26176200D01*
X19380800Y-26176200D02*
X19380800Y-26142600D01*
D50*
X32303500Y-45511500D02*
X32320800Y-45494200D01*
X32320800Y-45494200D02*
X32320800Y-44627800D01*
D51*
X25908000Y-157734000D02*
X27432000Y-159258000D01*
X11734000Y-157734000D02*
X25908000Y-157734000D01*
X7112000Y-153112000D02*
X11734000Y-157734000D01*
X1524000Y-106085998D02*
X4000000Y-103609998D01*
X7112000Y-150736630D02*
X7112000Y-153112000D01*
X9630000Y-149350000D02*
X8498630Y-149350000D01*
X27432000Y-159258000D02*
X27432000Y-162052000D01*
X8498630Y-149350000D02*
X7112000Y-150736630D01*
X27432000Y-162052000D02*
X25908000Y-163576000D01*
X25908000Y-163576000D02*
X9586000Y-163576000D01*
X9586000Y-163576000D02*
X1524000Y-155514000D01*
X1524000Y-155514000D02*
X1524000Y-106085998D01*
X4000000Y-103609998D02*
X4000000Y-102682000D01*
X26364000Y-68361000D02*
X26364000Y-80636000D01*
X26364000Y-80636000D02*
X26000000Y-81000000D01*
X19000000Y-88000000D02*
X19000000Y-91000000D01*
X26000000Y-81000000D02*
X19000000Y-88000000D01*
X19000000Y-91000000D02*
X19000000Y-95000000D01*
X17000000Y-97000000D02*
X19000000Y-95000000D01*
X8000000Y-97000000D02*
X17000000Y-97000000D01*
X4000000Y-101000000D02*
X8000000Y-97000000D01*
X4000000Y-102682000D02*
X4000000Y-101000000D01*
X30000000Y-113830000D02*
X30000000Y-107000000D01*
X30000000Y-106000000D02*
X30000000Y-107000000D01*
X19000000Y-95000000D02*
X30000000Y-106000000D01*
D50*
X6108000Y-102682000D02*
X4000000Y-102682000D01*
X31808500Y-58716500D02*
X31808500Y-55221700D01*
X31808500Y-54586700D02*
X30804500Y-53582700D01*
X31808500Y-55221700D02*
X31808500Y-54586700D01*
X32087900Y-55247100D02*
X33886200Y-55247100D01*
X32087900Y-55247100D02*
X31833900Y-55247100D01*
X31833900Y-55247100D02*
X31808500Y-55221700D01*
X26364000Y-64161000D02*
X31808500Y-58716500D01*
X30804500Y-53582700D02*
X30804500Y-52199100D01*
X30804500Y-48351700D02*
X30804500Y-52199100D01*
D51*
X26416000Y-117414000D02*
X30000000Y-113830000D01*
X7112000Y-132110000D02*
X21808000Y-117414000D01*
X21808000Y-117414000D02*
X26416000Y-117414000D01*
X7112000Y-135702000D02*
X7112000Y-132110000D01*
X9630000Y-136650000D02*
X8060000Y-136650000D01*
X8060000Y-136650000D02*
X7112000Y-135702000D01*
D50*
X12204000Y-149418000D02*
X9698000Y-149418000D01*
X9698000Y-149418000D02*
X9630000Y-149350000D01*
X12204000Y-136718000D02*
X9698000Y-136718000D01*
X9698000Y-136718000D02*
X9630000Y-136650000D01*
X25458500Y-46563500D02*
X25458500Y-46863700D01*
X30774000Y-45390000D02*
X26632000Y-45390000D01*
X26632000Y-45390000D02*
X25458500Y-46563500D01*
X31566500Y-47589700D02*
X31566500Y-46182500D01*
X31566500Y-46182500D02*
X30774000Y-45390000D01*
X31632500Y-46182500D02*
X31566500Y-46182500D01*
X32310000Y-45505000D02*
X32303500Y-45511500D01*
X32303500Y-45511500D02*
X31632500Y-46182500D01*
X31603900Y-47627100D02*
X33886200Y-47627100D01*
X31566500Y-47589700D02*
X31603900Y-47627100D01*
X31566500Y-47589700D02*
X30804500Y-48351700D01*
X25458500Y-63255500D02*
X26364000Y-64161000D01*
X25458500Y-58610700D02*
X25458500Y-63255500D01*
D51*
X26364000Y-64161000D02*
X26364000Y-68361000D01*
D52*
X2453000Y-36373000D02*
X6644000Y-40564000D01*
X2453000Y-23292000D02*
X2453000Y-36373000D01*
X14704002Y-81875000D02*
X12000000Y-81875000D01*
X4866000Y-20879000D02*
X2453000Y-23292000D01*
X8892772Y-21349772D02*
X8422000Y-20879000D01*
X8422000Y-20879000D02*
X4866000Y-20879000D01*
X8892772Y-25091143D02*
X8892772Y-21349772D01*
X6644000Y-40564000D02*
X6644000Y-66510000D01*
X6644000Y-66510000D02*
X15493001Y-75359001D01*
X15493001Y-75359001D02*
X15493001Y-81086001D01*
X15493001Y-81086001D02*
X14704002Y-81875000D01*
X1437000Y-36881000D02*
X5628000Y-41072000D01*
X1437000Y-22784000D02*
X1437000Y-36881000D01*
X4242022Y-19978978D02*
X1437000Y-22784000D01*
X8794800Y-19978978D02*
X4242022Y-19978978D01*
X10492772Y-21676950D02*
X8794800Y-19978978D01*
X10492772Y-25091143D02*
X10492772Y-21676950D01*
X5628000Y-67018000D02*
X12446000Y-73836000D01*
X5628000Y-41072000D02*
X5628000Y-67018000D01*
X12446000Y-73836000D02*
X12446000Y-77679000D01*
X12446000Y-77679000D02*
X12000000Y-78125000D01*
X12000000Y-79375000D02*
X13150000Y-79375000D01*
X6136000Y-66764000D02*
X6136000Y-40818000D01*
X6136000Y-40818000D02*
X1945000Y-36627000D01*
X14010000Y-74638000D02*
X6136000Y-66764000D01*
X14010000Y-78515000D02*
X14010000Y-74638000D01*
X13150000Y-79375000D02*
X14010000Y-78515000D01*
X1945000Y-36627000D02*
X1945000Y-23038000D01*
X1945000Y-23038000D02*
X4554011Y-20428989D01*
X4554011Y-20428989D02*
X8608400Y-20428989D01*
X8608400Y-20428989D02*
X9692772Y-21513361D01*
X9692772Y-21513361D02*
X9692772Y-25091143D01*
D50*
X31864000Y-68361000D02*
X31864000Y-64161000D01*
X18554000Y-147574000D02*
X18542000Y-147586000D01*
X18542000Y-147586000D02*
X16764000Y-147586000D01*
X13716000Y-146624000D02*
X14678000Y-147586000D01*
X14678000Y-147586000D02*
X16764000Y-147586000D01*
D51*
X11918000Y-154178000D02*
X26670000Y-154178000D01*
X9630000Y-151890000D02*
X11918000Y-154178000D01*
X26670000Y-154178000D02*
X30226000Y-157734000D01*
X30226000Y-157734000D02*
X30226000Y-169164000D01*
X30226000Y-169164000D02*
X29210000Y-170180000D01*
D50*
X16764000Y-138926000D02*
X18542000Y-138926000D01*
X18542000Y-138926000D02*
X18554000Y-138938000D01*
X15682000Y-139258000D02*
X16014000Y-138926000D01*
X16014000Y-138926000D02*
X16764000Y-138926000D01*
X13704000Y-139258000D02*
X15682000Y-139258000D01*
X28486200Y-48897100D02*
X28486200Y-47627100D01*
X21775500Y-50513700D02*
X20106000Y-48844200D01*
X21775500Y-50863700D02*
X21775500Y-50513700D01*
X20106000Y-48844200D02*
X20106000Y-45216000D01*
X20106000Y-45216000D02*
X17890000Y-43000000D01*
X21775500Y-50863700D02*
X25458500Y-50863700D01*
X28486200Y-50167100D02*
X26155100Y-50167100D01*
X25458500Y-50863700D02*
X25476300Y-50863700D01*
X28486200Y-47627100D02*
X28486200Y-46357100D01*
X26155100Y-50167100D02*
X25458500Y-50863700D01*
X28486200Y-50167100D02*
X28486200Y-48897100D01*
X28486200Y-55247100D02*
X26094900Y-55247100D01*
X26094900Y-55247100D02*
X25458500Y-54610700D01*
X21775500Y-54610700D02*
X20125500Y-54610700D01*
X20125500Y-54610700D02*
X17890000Y-52375200D01*
X17890000Y-52375200D02*
X17890000Y-48648477D01*
X17890000Y-48648477D02*
X17890000Y-46810000D01*
X28486200Y-56263100D02*
X28486200Y-56898100D01*
X28486200Y-56898100D02*
X28486200Y-57533100D01*
X28486200Y-55247100D02*
X28486200Y-53977100D01*
X28486200Y-54993100D02*
X28486200Y-56263100D01*
X21775500Y-54610700D02*
X25458500Y-54610700D01*
D52*
X2961000Y-30023000D02*
X3596000Y-29388000D01*
X2961000Y-36119000D02*
X2961000Y-30023000D01*
X7406000Y-40564000D02*
X2961000Y-36119000D01*
X10881000Y-40564000D02*
X7406000Y-40564000D01*
X17890000Y-39190000D02*
X12255000Y-39190000D01*
X12255000Y-39190000D02*
X10881000Y-40564000D01*
X3596000Y-29388000D02*
X3596000Y-28691000D01*
X32781991Y-35967991D02*
X31282000Y-34468000D01*
X32781991Y-39202991D02*
X32781991Y-35967991D01*
X35600000Y-42021000D02*
X32781991Y-39202991D01*
X35600000Y-44053000D02*
X35600000Y-42021000D01*
X36646500Y-45099500D02*
X35600000Y-44053000D01*
X36646500Y-45966000D02*
X36646500Y-45099500D01*
X31282000Y-34468000D02*
X30762000Y-34468000D01*
X36646500Y-42305500D02*
X34584000Y-40243000D01*
X36646500Y-43426000D02*
X36646500Y-42305500D01*
X34584000Y-40243000D02*
X34584000Y-36266000D01*
X34584000Y-36266000D02*
X31262000Y-32944000D01*
X31262000Y-32944000D02*
X30762000Y-32944000D01*
X31282000Y-31420000D02*
X35346000Y-35484000D01*
X30762000Y-31420000D02*
X31282000Y-31420000D01*
X35346000Y-35484000D02*
X35346000Y-40235500D01*
X35346000Y-40235500D02*
X35996500Y-40886000D01*
X35996500Y-40886000D02*
X36646500Y-40886000D01*
X24495660Y-29388000D02*
X18836000Y-29388000D01*
X24940330Y-28943330D02*
X24495660Y-29388000D01*
X18836000Y-29388000D02*
X16789143Y-27341143D01*
X16789143Y-27341143D02*
X15192772Y-27341143D01*
X15192772Y-27341143D02*
X14342772Y-27341143D01*
X31776000Y-20031000D02*
X31776000Y-19777000D01*
X33300000Y-21555000D02*
X31776000Y-20031000D01*
X33300000Y-26889000D02*
X33300000Y-21555000D01*
X25511660Y-28372000D02*
X31817000Y-28372000D01*
X31817000Y-28372000D02*
X33300000Y-26889000D01*
X24940330Y-28943330D02*
X25511660Y-28372000D01*
X31776000Y-19777000D02*
X30760000Y-18761000D01*
X18582000Y-29896000D02*
X16827143Y-28141143D01*
X26075000Y-28880000D02*
X25059000Y-29896000D01*
X23394000Y-16221000D02*
X24410000Y-16221000D01*
X32071000Y-28880000D02*
X26075000Y-28880000D01*
X33808000Y-27143000D02*
X32071000Y-28880000D01*
X33808000Y-21301000D02*
X33808000Y-27143000D01*
X24410000Y-16221000D02*
X25680000Y-17491000D01*
X25059000Y-29896000D02*
X18582000Y-29896000D01*
X32792000Y-20285000D02*
X33808000Y-21301000D01*
X25680000Y-17491000D02*
X31775002Y-17491000D01*
X10694000Y-7750314D02*
X12306686Y-9363000D01*
X10694000Y-6529000D02*
X10694000Y-7750314D01*
X31775002Y-17491000D02*
X32792000Y-18507998D01*
X12306686Y-9363000D02*
X16536000Y-9363000D01*
X16827143Y-28141143D02*
X15192772Y-28141143D01*
X32792000Y-18507998D02*
X32792000Y-20285000D01*
X16536000Y-9363000D02*
X23394000Y-16221000D01*
X15192772Y-28141143D02*
X14342772Y-28141143D01*
X32325000Y-29388000D02*
X26203411Y-29388000D01*
X34316000Y-27397000D02*
X32325000Y-29388000D01*
X33300000Y-20156590D02*
X34316000Y-21172590D01*
X11964000Y-5807000D02*
X11964000Y-7331000D01*
X33300000Y-18253000D02*
X33300000Y-20156590D01*
X26087412Y-17008001D02*
X32055001Y-17008001D01*
X16790000Y-8855000D02*
X23648000Y-15713000D01*
X34316000Y-21172590D02*
X34316000Y-27397000D01*
X32055001Y-17008001D02*
X33300000Y-18253000D01*
X24792411Y-15713000D02*
X26087412Y-17008001D01*
X9384000Y-5299000D02*
X11456000Y-5299000D01*
X8154000Y-6529000D02*
X9384000Y-5299000D01*
X23648000Y-15713000D02*
X24792411Y-15713000D01*
X11964000Y-7331000D02*
X13488000Y-8855000D01*
X11456000Y-5299000D02*
X11964000Y-5807000D01*
X13488000Y-8855000D02*
X16790000Y-8855000D01*
X26203411Y-29388000D02*
X25187411Y-30404000D01*
X25187411Y-30404000D02*
X18328000Y-30404000D01*
X18328000Y-30404000D02*
X16865143Y-28941143D01*
X16865143Y-28941143D02*
X15192772Y-28941143D01*
X15192772Y-28941143D02*
X14342772Y-28941143D01*
X9438000Y-38024000D02*
X7406000Y-35992000D01*
X16296000Y-38024000D02*
X9438000Y-38024000D01*
X17058000Y-37262000D02*
X16296000Y-38024000D01*
X27516000Y-39516000D02*
X25262000Y-37262000D01*
X25262000Y-37262000D02*
X17058000Y-37262000D01*
X27516000Y-41769500D02*
X27516000Y-39516000D01*
X7406000Y-35992000D02*
X4358000Y-35992000D01*
X4358000Y-35992000D02*
X4104000Y-35738000D01*
X4104000Y-35738000D02*
X4104000Y-35218000D01*
X33810000Y-46280900D02*
X33886200Y-46357100D01*
X33810000Y-44628000D02*
X33810000Y-46280900D01*
X34361200Y-46357100D02*
X33886200Y-46357100D01*
X34361200Y-48897100D02*
X34986201Y-48272099D01*
X34986201Y-47627100D02*
X34986201Y-46982101D01*
X34986201Y-46982101D02*
X34361200Y-46357100D01*
X33886200Y-48897100D02*
X34361200Y-48897100D01*
X34986201Y-48272099D02*
X34986201Y-47627100D01*
X31028000Y-44628000D02*
X28234000Y-44628000D01*
X28234000Y-44628000D02*
X27375500Y-43769500D01*
X33810000Y-44628000D02*
X33810000Y-44428000D01*
X33234999Y-43852999D02*
X31803001Y-43852999D01*
X31803001Y-43852999D02*
X31028000Y-44628000D01*
X33810000Y-44428000D02*
X33234999Y-43852999D01*
X27375500Y-43769500D02*
X26566000Y-43769500D01*
X31124500Y-43769500D02*
X31491011Y-43402989D01*
X30249000Y-43769500D02*
X31124500Y-43769500D01*
X31491011Y-43402989D02*
X34120989Y-43402989D01*
X34120989Y-43402989D02*
X35436211Y-44718211D01*
X35436211Y-44718211D02*
X35436211Y-53407589D01*
X35436211Y-53407589D02*
X34986201Y-53857599D01*
X32304500Y-52199100D02*
X32304500Y-53304700D01*
X32304500Y-53304700D02*
X32951500Y-53951700D01*
X34361200Y-56517100D02*
X34986201Y-55892099D01*
X34986201Y-54111599D02*
X34851702Y-53977100D01*
X34986201Y-54111599D02*
X34986201Y-53857599D01*
X34361200Y-53977100D02*
X33886200Y-53977100D01*
X33886200Y-53977100D02*
X34851702Y-53977100D01*
X33886200Y-56517100D02*
X34361200Y-56517100D01*
X34986201Y-55892099D02*
X34986201Y-54111599D01*
X33860800Y-53951700D02*
X33886200Y-53977100D01*
X34851702Y-53977100D02*
X34978702Y-53850100D01*
X32951500Y-53951700D02*
X33860800Y-53951700D01*
X34986201Y-53857599D02*
X34978702Y-53850100D01*
X9692000Y-37516000D02*
X7394000Y-35218000D01*
X16042000Y-37516000D02*
X9692000Y-37516000D01*
X16804000Y-36754000D02*
X16042000Y-37516000D01*
X28754000Y-36754000D02*
X16804000Y-36754000D01*
X31199000Y-41769500D02*
X31199000Y-39199000D01*
X31199000Y-39199000D02*
X28754000Y-36754000D01*
X7394000Y-35218000D02*
X5755000Y-35218000D01*
X15192772Y-29741143D02*
X14342772Y-29741143D01*
X16903143Y-29741143D02*
X15192772Y-29741143D01*
X18074000Y-30912000D02*
X16903143Y-29741143D01*
X25567000Y-30912000D02*
X18074000Y-30912000D01*
X36116900Y-20516100D02*
X34824000Y-21809000D01*
X26583000Y-29896000D02*
X25567000Y-30912000D01*
X36116900Y-19884300D02*
X36116900Y-20516100D01*
X34824000Y-21809000D02*
X34824000Y-27651000D01*
X34824000Y-27651000D02*
X32579000Y-29896000D01*
X32579000Y-29896000D02*
X26583000Y-29896000D01*
X31563000Y-27864000D02*
X24932000Y-27864000D01*
X32792000Y-26635000D02*
X31563000Y-27864000D01*
X32792000Y-21809000D02*
X32792000Y-26635000D01*
X31014000Y-20031000D02*
X32792000Y-21809000D01*
X25680000Y-18761000D02*
X26950000Y-20031000D01*
X26950000Y-20031000D02*
X31014000Y-20031000D01*
X24932000Y-27864000D02*
X23916000Y-28880000D01*
X23916000Y-28880000D02*
X19091410Y-28880000D01*
X19091410Y-28880000D02*
X16752553Y-26541143D01*
X16752553Y-26541143D02*
X15192772Y-26541143D01*
X15192772Y-26541143D02*
X14342772Y-26541143D01*
X8092772Y-24241143D02*
X8086317Y-24241143D01*
X8086317Y-24241143D02*
X7937876Y-24092702D01*
X7937876Y-24092702D02*
X7937876Y-23392702D01*
X8041000Y-24189371D02*
X8092772Y-24241143D01*
X8092772Y-25091143D02*
X8092772Y-24241143D01*
X7949876Y-21868702D02*
X7937876Y-21880702D01*
X7937876Y-21880702D02*
X7937876Y-23392702D01*
D12*
X38246500Y-40886000D02*
X38246500Y-40186000D01*
X38246500Y-43426000D02*
X38246500Y-40886000D01*
X38246500Y-45966000D02*
X38246500Y-43426000D01*
X19380800Y-21742600D02*
X18237800Y-21742600D01*
D50*
X31748859Y-23757541D02*
X31748859Y-25547541D01*
D12*
X18237800Y-21742600D02*
X17348800Y-20853600D01*
D50*
X30718859Y-26577541D02*
X31748859Y-25547541D01*
X30718859Y-26577541D02*
X29818859Y-26577541D01*
D12*
X14454207Y-33612535D02*
X14454207Y-34838191D01*
X14422628Y-33580956D02*
X14454207Y-33612535D01*
D52*
X5842772Y-27341143D02*
X3646143Y-27341143D01*
X3646143Y-27341143D02*
X3596000Y-27291000D01*
X15774000Y-18761000D02*
X15774000Y-18886590D01*
X15774000Y-18886590D02*
X12092772Y-22567818D01*
X12092772Y-22567818D02*
X12092772Y-24241143D01*
X12092772Y-24241143D02*
X12092772Y-25091143D01*
X17298000Y-17237000D02*
X15774000Y-18761000D01*
X17298000Y-13681000D02*
X17298000Y-17237000D01*
X16282000Y-12665000D02*
X17298000Y-13681000D01*
X12178000Y-12665000D02*
X16282000Y-12665000D01*
X10694000Y-14149000D02*
X12178000Y-12665000D01*
X7606000Y-12157000D02*
X16410410Y-12157000D01*
X5614000Y-14149000D02*
X7606000Y-12157000D01*
X16410410Y-12157000D02*
X17806000Y-13552590D01*
X17806000Y-13552590D02*
X17806000Y-17491000D01*
X17806000Y-17491000D02*
X12892772Y-22404228D01*
X12892772Y-22404228D02*
X12892772Y-25091143D01*
X4104000Y-31429915D02*
X4104000Y-33718000D01*
X5842772Y-30541143D02*
X4992772Y-30541143D01*
X4992772Y-30541143D02*
X4104000Y-31429915D01*
X4612000Y-31801000D02*
X4612000Y-32775000D01*
X4612000Y-32775000D02*
X5555000Y-33718000D01*
X5555000Y-33718000D02*
X5755000Y-33718000D01*
X5071857Y-31341143D02*
X4612000Y-31801000D01*
X5842772Y-31341143D02*
X5071857Y-31341143D01*
X27218000Y-32944000D02*
X28742000Y-34468000D01*
X19852000Y-32944000D02*
X27218000Y-32944000D01*
X15788000Y-37008000D02*
X19852000Y-32944000D01*
X9859629Y-37008000D02*
X15788000Y-37008000D01*
X7292772Y-33591143D02*
X7292772Y-34441143D01*
X28742000Y-34468000D02*
X28762000Y-34468000D01*
X7292772Y-34441143D02*
X9859629Y-37008000D01*
X28762000Y-34468000D02*
X29262000Y-34468000D01*
X28762000Y-32944000D02*
X29262000Y-32944000D01*
X28254000Y-32436000D02*
X28762000Y-32944000D01*
X19598000Y-32436000D02*
X28254000Y-32436000D01*
X15534000Y-36500000D02*
X19598000Y-32436000D01*
X10315219Y-36500000D02*
X15534000Y-36500000D01*
X8092772Y-34277553D02*
X10315219Y-36500000D01*
X8092772Y-33591143D02*
X8092772Y-34277553D01*
X8892772Y-33591143D02*
X8892772Y-34441143D01*
X19344000Y-31928000D02*
X28254000Y-31928000D01*
X8892772Y-34441143D02*
X10443629Y-35992000D01*
X10443629Y-35992000D02*
X15280000Y-35992000D01*
X15280000Y-35992000D02*
X19344000Y-31928000D01*
X28254000Y-31928000D02*
X28762000Y-31420000D01*
X28762000Y-31420000D02*
X29262000Y-31420000D01*
X36856000Y-26381000D02*
X32833000Y-30404000D01*
X17820000Y-31420000D02*
X16941143Y-30541143D01*
X32833000Y-30404000D02*
X26837000Y-30404000D01*
X26837000Y-30404000D02*
X25821000Y-31420000D01*
X25821000Y-31420000D02*
X17820000Y-31420000D01*
X16941143Y-30541143D02*
X14342772Y-30541143D01*
X36856000Y-23951000D02*
X36856000Y-26381000D01*
D12*
X7608000Y-102682000D02*
X10464000Y-102682000D01*
D52*
X10464000Y-102682000D02*
X10540000Y-102606000D01*
D12*
X10540000Y-115764000D02*
X3048000Y-123256000D01*
X10540000Y-102606000D02*
X10540000Y-115764000D01*
X3048000Y-123256000D02*
X3048000Y-143680000D01*
X3048000Y-143680000D02*
X3638000Y-144270000D01*
X3638000Y-144270000D02*
X9630000Y-144270000D01*
D50*
X33886200Y-59585800D02*
X31864000Y-61608000D01*
X33886200Y-57787100D02*
X33886200Y-59585800D01*
X31864000Y-61608000D02*
X31864000Y-64161000D01*
X33886200Y-50167100D02*
X33886200Y-52001000D01*
X33886200Y-52001000D02*
X33840500Y-52046700D01*
X13704000Y-136718000D02*
X15240000Y-136718000D01*
X13704000Y-149418000D02*
X15240000Y-149418000D01*
D12*
X25123500Y-41769500D02*
X25616000Y-41769500D01*
D50*
X21775500Y-60775500D02*
X21884000Y-60884000D01*
X21775500Y-58610700D02*
X21775500Y-60775500D01*
D12*
X26572500Y-42776000D02*
X28342500Y-42776000D01*
D50*
X21775500Y-46863700D02*
X21775500Y-44801500D01*
D12*
X25616000Y-41819500D02*
X26572500Y-42776000D01*
X28342500Y-42776000D02*
X29299000Y-41819500D01*
X25123500Y-41769500D02*
X24170000Y-42723000D01*
D50*
X14940000Y-102606000D02*
X17566000Y-102606000D01*
D12*
X30098859Y-22257541D02*
X31748859Y-22257541D01*
X29818859Y-21977541D02*
X30098859Y-22257541D01*
X31748859Y-22257541D02*
X31748859Y-22282541D01*
X23632183Y-27635183D02*
X23140000Y-27143000D01*
X23879670Y-27882670D02*
X23632183Y-27635183D01*
X23518859Y-24277541D02*
X24818859Y-24277541D01*
X24818859Y-24277541D02*
X29818859Y-24277541D01*
X23518859Y-20409859D02*
X23140000Y-20031000D01*
X23140000Y-20031000D02*
X23140000Y-18761000D01*
X23518859Y-24277541D02*
X23518859Y-20409859D01*
X23518859Y-24277541D02*
X20545859Y-24277541D01*
X20545859Y-24277541D02*
X19380800Y-25442600D01*
X19380800Y-25442600D02*
X19380800Y-26142600D01*
X23140000Y-27143000D02*
X23518859Y-26764141D01*
X23518859Y-26764141D02*
X23518859Y-24277541D01*
D52*
X5614000Y-3013000D02*
X7392000Y-1235000D01*
X5614000Y-3989000D02*
X5614000Y-3013000D01*
X7392000Y-1235000D02*
X22632000Y-1235000D01*
X22632000Y-1235000D02*
X36116900Y-14719900D01*
X36116900Y-14719900D02*
X36116900Y-17564300D01*
X37872000Y-18011000D02*
X36563600Y-18011000D01*
X36563600Y-18011000D02*
X36116900Y-17564300D01*
X37872000Y-19511000D02*
X36490200Y-19511000D01*
X36490200Y-19511000D02*
X36116900Y-19884300D01*
X21576000Y-3989000D02*
X23860000Y-6273000D01*
X15774000Y-3989000D02*
X21576000Y-3989000D01*
X23860000Y-6273000D02*
X23860000Y-10973000D01*
X10400000Y-1743000D02*
X22378000Y-1743000D01*
X8154000Y-3989000D02*
X10400000Y-1743000D01*
X22378000Y-1743000D02*
X31430000Y-10795000D01*
X31430000Y-10795000D02*
X31430000Y-13433000D01*
X31430000Y-13433000D02*
X31430000Y-15183000D01*
X14464000Y-2759000D02*
X21870000Y-2759000D01*
X13234000Y-3989000D02*
X14464000Y-2759000D01*
X21870000Y-2759000D02*
X26930000Y-7819000D01*
X26930000Y-7819000D02*
X26930000Y-15183000D01*
X12432000Y-2251000D02*
X22124000Y-2251000D01*
X10694000Y-3989000D02*
X12432000Y-2251000D01*
X22124000Y-2251000D02*
X29430000Y-9557000D01*
X29430000Y-9557000D02*
X29430000Y-13433000D01*
X29430000Y-13433000D02*
X29430000Y-15183000D01*
X35166900Y-17564300D02*
X35166900Y-15669900D01*
X35166900Y-15669900D02*
X34680000Y-15183000D01*
X34680000Y-15183000D02*
X33930000Y-15183000D01*
X35166900Y-18724300D02*
X35166900Y-19884300D01*
X35166900Y-18724300D02*
X35166900Y-17564300D01*
X34216900Y-18536300D02*
X34216900Y-17564300D01*
X34404900Y-18724300D02*
X34216900Y-18536300D01*
X34216900Y-18912300D02*
X34216900Y-19884300D01*
X34404900Y-18724300D02*
X34216900Y-18912300D01*
X35166900Y-18724300D02*
X34404900Y-18724300D01*
D50*
X12216000Y-146624000D02*
X9816000Y-146624000D01*
X9816000Y-146624000D02*
X9630000Y-146810000D01*
X5920000Y-148080000D02*
X7190000Y-146810000D01*
X4550000Y-148080000D02*
X5920000Y-148080000D01*
X7190000Y-146810000D02*
X9630000Y-146810000D01*
X12204000Y-139258000D02*
X9698000Y-139258000D01*
X9698000Y-139258000D02*
X9630000Y-139190000D01*
X5920000Y-137920000D02*
X7190000Y-139190000D01*
X4550000Y-137920000D02*
X5920000Y-137920000D01*
X7190000Y-139190000D02*
X9630000Y-139190000D01*
D51*
X4550000Y-154550000D02*
X10650000Y-160650000D01*
X4550000Y-150620000D02*
X4550000Y-154550000D01*
X10650000Y-160650000D02*
X24770000Y-160650000D01*
D50*
X9630000Y-134110000D02*
X9684000Y-134110000D01*
X9684000Y-134110000D02*
X21614000Y-122180000D01*
X21614000Y-122180000D02*
X29210000Y-122180000D01*
X4550000Y-130227000D02*
X22127000Y-112650000D01*
X4550000Y-135380000D02*
X4550000Y-130227000D01*
X22127000Y-112650000D02*
X24770000Y-112650000D01*
D12*
X11752000Y-145540000D02*
X13334000Y-143958000D01*
X4550000Y-145540000D02*
X11752000Y-145540000D01*
X13334000Y-143958000D02*
X13334000Y-142964000D01*
D52*
X36068000Y-158770000D02*
X36068000Y-146812000D01*
X36068000Y-146812000D02*
X34544000Y-145288000D01*
X36576000Y-159778000D02*
X36576000Y-159278000D01*
X36576000Y-159278000D02*
X36068000Y-158770000D01*
X32004000Y-150368000D02*
X29464000Y-147828000D01*
X29464000Y-147828000D02*
X26658000Y-147828000D01*
X34544000Y-159778000D02*
X34544000Y-152908000D01*
D12*
X23114000Y-138938000D02*
X27052000Y-135000000D01*
X27052000Y-135000000D02*
X31000000Y-135000000D01*
D50*
X20054000Y-138938000D02*
X23114000Y-138938000D01*
X23114000Y-138938000D02*
X32004000Y-147828000D01*
X30607000Y-152781000D02*
X30734000Y-152908000D01*
X21082000Y-147574000D02*
X24130000Y-150622000D01*
X24130000Y-150622000D02*
X28448000Y-150622000D01*
X28448000Y-150622000D02*
X30607000Y-152781000D01*
X20054000Y-147574000D02*
X21082000Y-147574000D01*
X30734000Y-152908000D02*
X32004000Y-152908000D01*
D52*
X33274000Y-151638000D02*
X33274000Y-125730000D01*
X32004000Y-152908000D02*
X33274000Y-151638000D01*
X33274000Y-125730000D02*
X32544000Y-125000000D01*
X32544000Y-125000000D02*
X31000000Y-125000000D01*
D53*
G36*
X24816253Y-21039411D02*
X24860047Y-21104953D01*
X24925589Y-21148747D01*
X24925591Y-21148749D01*
X25052927Y-21233832D01*
X25119708Y-21278454D01*
X25348684Y-21324000D01*
X25348688Y-21324000D01*
X25426000Y-21339378D01*
X25503312Y-21324000D01*
X28171419Y-21324000D01*
X28171419Y-22727541D01*
X28220702Y-22975306D01*
X28321786Y-23126588D01*
X28280532Y-23167842D01*
X28183859Y-23401231D01*
X28183859Y-23991791D01*
X28342609Y-24150541D01*
X29691859Y-24150541D01*
X29691859Y-24130541D01*
X29945859Y-24130541D01*
X29945859Y-24150541D01*
X29965859Y-24150541D01*
X29965859Y-24404541D01*
X29945859Y-24404541D01*
X29945859Y-24424541D01*
X29691859Y-24424541D01*
X29691859Y-24404541D01*
X28342609Y-24404541D01*
X28183859Y-24563291D01*
X28183859Y-25153851D01*
X28280532Y-25387240D01*
X28321786Y-25428494D01*
X28220702Y-25579776D01*
X28171419Y-25827541D01*
X28171419Y-27104000D01*
X25006847Y-27104000D01*
X24932000Y-27089112D01*
X24857153Y-27104000D01*
X24857148Y-27104000D01*
X24635463Y-27148096D01*
X24384071Y-27316071D01*
X24341671Y-27379527D01*
X23755154Y-27966044D01*
X23687337Y-27898227D01*
X23701479Y-27884084D01*
X23276331Y-27458936D01*
X23051825Y-27458936D01*
X22846368Y-27664393D01*
X22749695Y-27897782D01*
X22749696Y-28032000D01*
X21997000Y-28032000D01*
X21997000Y-27054825D01*
X23455936Y-27054825D01*
X23455936Y-27279331D01*
X23881084Y-27704479D01*
X24446239Y-27139324D01*
X24446239Y-26914818D01*
X24380790Y-26849368D01*
X24291881Y-26812541D01*
X24645168Y-26812541D01*
X24878557Y-26715868D01*
X25057186Y-26537240D01*
X25153859Y-26303851D01*
X25153859Y-24563291D01*
X24995109Y-24404541D01*
X23645859Y-24404541D01*
X23645859Y-26653791D01*
X23788703Y-26796635D01*
X23661393Y-26849368D01*
X23455936Y-27054825D01*
X21997000Y-27054825D01*
X21997000Y-26553708D01*
X22159161Y-26715868D01*
X22392550Y-26812541D01*
X23233109Y-26812541D01*
X23391859Y-26653791D01*
X23391859Y-24404541D01*
X23371859Y-24404541D01*
X23371859Y-24150541D01*
X23391859Y-24150541D01*
X23391859Y-21901291D01*
X23645859Y-21901291D01*
X23645859Y-24150541D01*
X24995109Y-24150541D01*
X25153859Y-23991791D01*
X25153859Y-22251231D01*
X25057186Y-22017842D01*
X24878557Y-21839214D01*
X24645168Y-21742541D01*
X23804609Y-21742541D01*
X23645859Y-21901291D01*
X23391859Y-21901291D01*
X23233109Y-21742541D01*
X22392550Y-21742541D01*
X22159161Y-21839214D01*
X21997000Y-22001374D01*
X21997000Y-20412000D01*
X24188843Y-20412000D01*
X24816253Y-21039411D01*
X24816253Y-21039411D01*
G37*
X24816253Y-21039411D02*
X24860047Y-21104953D01*
X24925589Y-21148747D01*
X24925591Y-21148749D01*
X25052927Y-21233832D01*
X25119708Y-21278454D01*
X25348684Y-21324000D01*
X25348688Y-21324000D01*
X25426000Y-21339378D01*
X25503312Y-21324000D01*
X28171419Y-21324000D01*
X28171419Y-22727541D01*
X28220702Y-22975306D01*
X28321786Y-23126588D01*
X28280532Y-23167842D01*
X28183859Y-23401231D01*
X28183859Y-23991791D01*
X28342609Y-24150541D01*
X29691859Y-24150541D01*
X29691859Y-24130541D01*
X29945859Y-24130541D01*
X29945859Y-24150541D01*
X29965859Y-24150541D01*
X29965859Y-24404541D01*
X29945859Y-24404541D01*
X29945859Y-24424541D01*
X29691859Y-24424541D01*
X29691859Y-24404541D01*
X28342609Y-24404541D01*
X28183859Y-24563291D01*
X28183859Y-25153851D01*
X28280532Y-25387240D01*
X28321786Y-25428494D01*
X28220702Y-25579776D01*
X28171419Y-25827541D01*
X28171419Y-27104000D01*
X25006847Y-27104000D01*
X24932000Y-27089112D01*
X24857153Y-27104000D01*
X24857148Y-27104000D01*
X24635463Y-27148096D01*
X24384071Y-27316071D01*
X24341671Y-27379527D01*
X23755154Y-27966044D01*
X23687337Y-27898227D01*
X23701479Y-27884084D01*
X23276331Y-27458936D01*
X23051825Y-27458936D01*
X22846368Y-27664393D01*
X22749695Y-27897782D01*
X22749696Y-28032000D01*
X21997000Y-28032000D01*
X21997000Y-27054825D01*
X23455936Y-27054825D01*
X23455936Y-27279331D01*
X23881084Y-27704479D01*
X24446239Y-27139324D01*
X24446239Y-26914818D01*
X24380790Y-26849368D01*
X24291881Y-26812541D01*
X24645168Y-26812541D01*
X24878557Y-26715868D01*
X25057186Y-26537240D01*
X25153859Y-26303851D01*
X25153859Y-24563291D01*
X24995109Y-24404541D01*
X23645859Y-24404541D01*
X23645859Y-26653791D01*
X23788703Y-26796635D01*
X23661393Y-26849368D01*
X23455936Y-27054825D01*
X21997000Y-27054825D01*
X21997000Y-26553708D01*
X22159161Y-26715868D01*
X22392550Y-26812541D01*
X23233109Y-26812541D01*
X23391859Y-26653791D01*
X23391859Y-24404541D01*
X23371859Y-24404541D01*
X23371859Y-24150541D01*
X23391859Y-24150541D01*
X23391859Y-21901291D01*
X23645859Y-21901291D01*
X23645859Y-24150541D01*
X24995109Y-24150541D01*
X25153859Y-23991791D01*
X25153859Y-22251231D01*
X25057186Y-22017842D01*
X24878557Y-21839214D01*
X24645168Y-21742541D01*
X23804609Y-21742541D01*
X23645859Y-21901291D01*
X23391859Y-21901291D01*
X23233109Y-21742541D01*
X22392550Y-21742541D01*
X22159161Y-21839214D01*
X21997000Y-22001374D01*
X21997000Y-20412000D01*
X24188843Y-20412000D01*
X24816253Y-21039411D01*
G36*
X38290001Y-50469607D02*
X38290000Y-123865000D01*
X38274234Y-123865000D01*
X37857074Y-124037793D01*
X37537793Y-124357074D01*
X37365000Y-124774234D01*
X37365000Y-125225766D01*
X37537793Y-125642926D01*
X37857074Y-125962207D01*
X38274234Y-126135000D01*
X38290000Y-126135000D01*
X38290000Y-133865000D01*
X38274234Y-133865000D01*
X37857074Y-134037793D01*
X37537793Y-134357074D01*
X37365000Y-134774234D01*
X37365000Y-135225766D01*
X37537793Y-135642926D01*
X37857074Y-135962207D01*
X38274234Y-136135000D01*
X38290000Y-136135000D01*
X38290000Y-179290000D01*
X710000Y-179290000D01*
X710000Y-156870817D01*
X8393688Y-164554505D01*
X8479327Y-164682673D01*
X8811399Y-164904556D01*
X8987072Y-165021938D01*
X9586000Y-165141072D01*
X9737182Y-165111000D01*
X25756823Y-165111000D01*
X25908000Y-165141071D01*
X26059177Y-165111000D01*
X26059182Y-165111000D01*
X26506927Y-165021938D01*
X27014673Y-164682673D01*
X27100312Y-164554505D01*
X28410507Y-163244311D01*
X28538673Y-163158673D01*
X28691000Y-162930699D01*
X28691001Y-168517026D01*
X28227201Y-168709138D01*
X27739138Y-169197201D01*
X27475000Y-169834887D01*
X27475000Y-170525113D01*
X27739138Y-171162799D01*
X28227201Y-171650862D01*
X28864887Y-171915000D01*
X29555113Y-171915000D01*
X30192799Y-171650862D01*
X30680862Y-171162799D01*
X30880862Y-170679955D01*
X31204507Y-170356311D01*
X31332673Y-170270673D01*
X31671938Y-169762927D01*
X31761000Y-169315182D01*
X31761000Y-169315177D01*
X31791071Y-169164000D01*
X31761000Y-169012823D01*
X31761000Y-161561750D01*
X33459000Y-161561750D01*
X33459000Y-161654309D01*
X33555673Y-161887698D01*
X33734301Y-162066327D01*
X33967690Y-162163000D01*
X34258250Y-162163000D01*
X34417000Y-162004250D01*
X34417000Y-161403000D01*
X34671000Y-161403000D01*
X34671000Y-162004250D01*
X34829750Y-162163000D01*
X35120310Y-162163000D01*
X35353699Y-162066327D01*
X35532327Y-161887698D01*
X35560000Y-161820890D01*
X35587673Y-161887698D01*
X35766301Y-162066327D01*
X35999690Y-162163000D01*
X36290250Y-162163000D01*
X36449000Y-162004250D01*
X36449000Y-161403000D01*
X36703000Y-161403000D01*
X36703000Y-162004250D01*
X36861750Y-162163000D01*
X37152310Y-162163000D01*
X37385699Y-162066327D01*
X37564327Y-161887698D01*
X37661000Y-161654309D01*
X37661000Y-161561750D01*
X37502250Y-161403000D01*
X36703000Y-161403000D01*
X36449000Y-161403000D01*
X35649750Y-161403000D01*
X35560000Y-161492750D01*
X35470250Y-161403000D01*
X34671000Y-161403000D01*
X34417000Y-161403000D01*
X33617750Y-161403000D01*
X33459000Y-161561750D01*
X31761000Y-161561750D01*
X31761000Y-157885176D01*
X31791071Y-157733999D01*
X31761000Y-157582822D01*
X31761000Y-157582818D01*
X31671938Y-157135073D01*
X31332673Y-156627327D01*
X31204508Y-156541690D01*
X27862312Y-153199495D01*
X27776673Y-153071327D01*
X27268927Y-152732062D01*
X26821182Y-152643000D01*
X26821177Y-152643000D01*
X26670000Y-152612929D01*
X26518823Y-152643000D01*
X12553817Y-152643000D01*
X10608507Y-150697690D01*
X10492236Y-150620000D01*
X10736673Y-150456673D01*
X10755832Y-150428000D01*
X11741459Y-150428000D01*
X11804000Y-150440440D01*
X12604000Y-150440440D01*
X12851765Y-150391157D01*
X12943102Y-150330127D01*
X12944302Y-150331327D01*
X13177691Y-150428000D01*
X13418250Y-150428000D01*
X13577000Y-150269250D01*
X13577000Y-149545000D01*
X13831000Y-149545000D01*
X13831000Y-150269250D01*
X13989750Y-150428000D01*
X14230309Y-150428000D01*
X14463698Y-150331327D01*
X14642327Y-150152699D01*
X14739000Y-149919310D01*
X14739000Y-149703750D01*
X14580250Y-149545000D01*
X13831000Y-149545000D01*
X13577000Y-149545000D01*
X13557000Y-149545000D01*
X13557000Y-149369750D01*
X15679000Y-149369750D01*
X15679000Y-149462309D01*
X15775673Y-149695698D01*
X15954301Y-149874327D01*
X16187690Y-149971000D01*
X16478250Y-149971000D01*
X16637000Y-149812250D01*
X16637000Y-149211000D01*
X16891000Y-149211000D01*
X16891000Y-149812250D01*
X17049750Y-149971000D01*
X17340310Y-149971000D01*
X17573699Y-149874327D01*
X17752327Y-149695698D01*
X17849000Y-149462309D01*
X17849000Y-149369750D01*
X17690250Y-149211000D01*
X16891000Y-149211000D01*
X16637000Y-149211000D01*
X15837750Y-149211000D01*
X15679000Y-149369750D01*
X13557000Y-149369750D01*
X13557000Y-149291000D01*
X13577000Y-149291000D01*
X13577000Y-148566750D01*
X13418250Y-148408000D01*
X13177691Y-148408000D01*
X12944302Y-148504673D01*
X12943102Y-148505873D01*
X12851765Y-148444843D01*
X12604000Y-148395560D01*
X11804000Y-148395560D01*
X11741459Y-148408000D01*
X10846704Y-148408000D01*
X10736673Y-148243327D01*
X10423946Y-148034369D01*
X10442862Y-148026534D01*
X10835396Y-147634000D01*
X11753459Y-147634000D01*
X11816000Y-147646440D01*
X12616000Y-147646440D01*
X12863765Y-147597157D01*
X12966000Y-147528845D01*
X13068235Y-147597157D01*
X13308616Y-147644971D01*
X13893484Y-148229840D01*
X13949831Y-148314169D01*
X14034160Y-148370516D01*
X14034161Y-148370517D01*
X14090258Y-148408000D01*
X13989750Y-148408000D01*
X13831000Y-148566750D01*
X13831000Y-149291000D01*
X14580250Y-149291000D01*
X14739000Y-149132250D01*
X14739000Y-148916690D01*
X14642327Y-148683301D01*
X14549191Y-148590165D01*
X14578524Y-148596000D01*
X14578528Y-148596000D01*
X14677999Y-148615786D01*
X14777470Y-148596000D01*
X15726092Y-148596000D01*
X15679000Y-148709691D01*
X15679000Y-148802250D01*
X15837750Y-148961000D01*
X16637000Y-148961000D01*
X16637000Y-148939000D01*
X16891000Y-148939000D01*
X16891000Y-148961000D01*
X17690250Y-148961000D01*
X17849000Y-148802250D01*
X17849000Y-148709691D01*
X17801908Y-148596000D01*
X18017089Y-148596000D01*
X18056235Y-148622157D01*
X18304000Y-148671440D01*
X18804000Y-148671440D01*
X19051765Y-148622157D01*
X19261809Y-148481809D01*
X19304000Y-148418666D01*
X19346191Y-148481809D01*
X19556235Y-148622157D01*
X19804000Y-148671440D01*
X20304000Y-148671440D01*
X20551765Y-148622157D01*
X20608871Y-148584000D01*
X20663645Y-148584000D01*
X23345484Y-151265840D01*
X23401831Y-151350169D01*
X23486160Y-151406516D01*
X23486162Y-151406518D01*
X23620606Y-151496350D01*
X23735918Y-151573399D01*
X24030524Y-151632000D01*
X24030529Y-151632000D01*
X24130000Y-151651786D01*
X24229471Y-151632000D01*
X28029645Y-151632000D01*
X29949482Y-153551837D01*
X30005831Y-153636169D01*
X30339918Y-153859399D01*
X30634524Y-153918000D01*
X30634529Y-153918000D01*
X30733999Y-153937786D01*
X30833470Y-153918000D01*
X30876510Y-153918000D01*
X30923570Y-153988430D01*
X31419275Y-154319650D01*
X31856402Y-154406600D01*
X32151598Y-154406600D01*
X32588725Y-154319650D01*
X33084430Y-153988430D01*
X33274000Y-153704719D01*
X33463570Y-153988430D01*
X33784001Y-154202535D01*
X33784000Y-158971427D01*
X33636191Y-159070191D01*
X33495843Y-159280235D01*
X33446560Y-159528000D01*
X33446560Y-160028000D01*
X33495843Y-160275765D01*
X33636191Y-160485809D01*
X33697320Y-160526654D01*
X33555673Y-160668302D01*
X33459000Y-160901691D01*
X33459000Y-160994250D01*
X33617750Y-161153000D01*
X34417000Y-161153000D01*
X34417000Y-161131000D01*
X34671000Y-161131000D01*
X34671000Y-161153000D01*
X35470250Y-161153000D01*
X35560000Y-161063250D01*
X35649750Y-161153000D01*
X36449000Y-161153000D01*
X36449000Y-161131000D01*
X36703000Y-161131000D01*
X36703000Y-161153000D01*
X37502250Y-161153000D01*
X37661000Y-160994250D01*
X37661000Y-160901691D01*
X37564327Y-160668302D01*
X37422680Y-160526654D01*
X37483809Y-160485809D01*
X37624157Y-160275765D01*
X37673440Y-160028000D01*
X37673440Y-159528000D01*
X37624157Y-159280235D01*
X37483809Y-159070191D01*
X37273765Y-158929843D01*
X37254906Y-158926092D01*
X37224483Y-158880560D01*
X37166329Y-158793526D01*
X37166327Y-158793524D01*
X37123929Y-158730071D01*
X37060475Y-158687672D01*
X36828000Y-158455198D01*
X36828000Y-146886846D01*
X36842888Y-146811999D01*
X36828000Y-146737152D01*
X36828000Y-146737148D01*
X36783904Y-146515463D01*
X36685660Y-146368430D01*
X36658329Y-146327526D01*
X36658327Y-146327524D01*
X36615929Y-146264071D01*
X36552476Y-146221673D01*
X35996775Y-145665973D01*
X36071959Y-145288000D01*
X35955650Y-144703275D01*
X35624430Y-144207570D01*
X35336174Y-144014963D01*
X35750821Y-143636490D01*
X35998968Y-143107027D01*
X35878469Y-142875000D01*
X34671000Y-142875000D01*
X34671000Y-142895000D01*
X34417000Y-142895000D01*
X34417000Y-142875000D01*
X34397000Y-142875000D01*
X34397000Y-142621000D01*
X34417000Y-142621000D01*
X34417000Y-141414183D01*
X34671000Y-141414183D01*
X34671000Y-142621000D01*
X35878469Y-142621000D01*
X35998968Y-142388973D01*
X35750821Y-141859510D01*
X35318947Y-141465312D01*
X34903026Y-141293042D01*
X34671000Y-141414183D01*
X34417000Y-141414183D01*
X34184974Y-141293042D01*
X34034000Y-141355574D01*
X34034000Y-134774234D01*
X34865000Y-134774234D01*
X34865000Y-135225766D01*
X35037793Y-135642926D01*
X35357074Y-135962207D01*
X35774234Y-136135000D01*
X36225766Y-136135000D01*
X36642926Y-135962207D01*
X36962207Y-135642926D01*
X37135000Y-135225766D01*
X37135000Y-134774234D01*
X36962207Y-134357074D01*
X36642926Y-134037793D01*
X36225766Y-133865000D01*
X35774234Y-133865000D01*
X35357074Y-134037793D01*
X35037793Y-134357074D01*
X34865000Y-134774234D01*
X34034000Y-134774234D01*
X34034000Y-130285750D01*
X34515000Y-130285750D01*
X34515000Y-131476309D01*
X34611673Y-131709698D01*
X34790301Y-131888327D01*
X35023690Y-131985000D01*
X35714250Y-131985000D01*
X35873000Y-131826250D01*
X35873000Y-130127000D01*
X36127000Y-130127000D01*
X36127000Y-131826250D01*
X36285750Y-131985000D01*
X36976310Y-131985000D01*
X37209699Y-131888327D01*
X37388327Y-131709698D01*
X37485000Y-131476309D01*
X37485000Y-130285750D01*
X37326250Y-130127000D01*
X36127000Y-130127000D01*
X35873000Y-130127000D01*
X34673750Y-130127000D01*
X34515000Y-130285750D01*
X34034000Y-130285750D01*
X34034000Y-128523691D01*
X34515000Y-128523691D01*
X34515000Y-129714250D01*
X34673750Y-129873000D01*
X35873000Y-129873000D01*
X35873000Y-128173750D01*
X36127000Y-128173750D01*
X36127000Y-129873000D01*
X37326250Y-129873000D01*
X37485000Y-129714250D01*
X37485000Y-128523691D01*
X37388327Y-128290302D01*
X37209699Y-128111673D01*
X36976310Y-128015000D01*
X36285750Y-128015000D01*
X36127000Y-128173750D01*
X35873000Y-128173750D01*
X35714250Y-128015000D01*
X35023690Y-128015000D01*
X34790301Y-128111673D01*
X34611673Y-128290302D01*
X34515000Y-128523691D01*
X34034000Y-128523691D01*
X34034000Y-125804847D01*
X34048888Y-125730000D01*
X34034000Y-125655153D01*
X34034000Y-125655148D01*
X33989904Y-125433463D01*
X33821929Y-125182071D01*
X33758473Y-125139671D01*
X33393036Y-124774234D01*
X34865000Y-124774234D01*
X34865000Y-125225766D01*
X35037793Y-125642926D01*
X35357074Y-125962207D01*
X35774234Y-126135000D01*
X36225766Y-126135000D01*
X36642926Y-125962207D01*
X36962207Y-125642926D01*
X37135000Y-125225766D01*
X37135000Y-124774234D01*
X36962207Y-124357074D01*
X36642926Y-124037793D01*
X36225766Y-123865000D01*
X35774234Y-123865000D01*
X35357074Y-124037793D01*
X35037793Y-124357074D01*
X34865000Y-124774234D01*
X33393036Y-124774234D01*
X33134331Y-124515530D01*
X33091929Y-124452071D01*
X32997440Y-124388935D01*
X32997440Y-124150000D01*
X32948157Y-123902235D01*
X32807809Y-123692191D01*
X32597765Y-123551843D01*
X32350000Y-123502560D01*
X30341101Y-123502560D01*
X30680862Y-123162799D01*
X30945000Y-122525113D01*
X30945000Y-121834887D01*
X30680862Y-121197201D01*
X30192799Y-120709138D01*
X29555113Y-120445000D01*
X28864887Y-120445000D01*
X28227201Y-120709138D01*
X27766339Y-121170000D01*
X21713471Y-121170000D01*
X21614000Y-121150214D01*
X21514529Y-121170000D01*
X21514524Y-121170000D01*
X21219918Y-121228601D01*
X21219916Y-121228602D01*
X21219917Y-121228602D01*
X20970162Y-121395482D01*
X20970160Y-121395484D01*
X20885831Y-121451831D01*
X20829484Y-121536160D01*
X9690645Y-132675000D01*
X9344561Y-132675000D01*
X8817138Y-132893466D01*
X8647000Y-133063604D01*
X8647000Y-132745817D01*
X22443818Y-118949000D01*
X26264823Y-118949000D01*
X26416000Y-118979071D01*
X26567177Y-118949000D01*
X26567182Y-118949000D01*
X27014927Y-118859938D01*
X27522673Y-118520673D01*
X27608312Y-118392505D01*
X30978508Y-115022310D01*
X31106673Y-114936673D01*
X31445938Y-114428927D01*
X31535000Y-113981182D01*
X31535000Y-113981178D01*
X31565071Y-113830001D01*
X31535000Y-113678824D01*
X31535000Y-106151176D01*
X31565071Y-105999999D01*
X31535000Y-105848822D01*
X31535000Y-105848818D01*
X31445938Y-105401073D01*
X31106673Y-104893327D01*
X30978508Y-104807690D01*
X20535000Y-94364183D01*
X20535000Y-89797175D01*
X24882430Y-89797175D01*
X25005565Y-90084788D01*
X25687734Y-90344707D01*
X26417443Y-90323786D01*
X26994435Y-90084788D01*
X27117570Y-89797175D01*
X26000000Y-88679605D01*
X24882430Y-89797175D01*
X20535000Y-89797175D01*
X20535000Y-88635817D01*
X20983083Y-88187734D01*
X24155293Y-88187734D01*
X24176214Y-88917443D01*
X24415212Y-89494435D01*
X24702825Y-89617570D01*
X25820395Y-88500000D01*
X26179605Y-88500000D01*
X27297175Y-89617570D01*
X27584788Y-89494435D01*
X27844707Y-88812266D01*
X27823786Y-88082557D01*
X27584788Y-87505565D01*
X27297175Y-87382430D01*
X26179605Y-88500000D01*
X25820395Y-88500000D01*
X24702825Y-87382430D01*
X24415212Y-87505565D01*
X24155293Y-88187734D01*
X20983083Y-88187734D01*
X21967992Y-87202825D01*
X24882430Y-87202825D01*
X26000000Y-88320395D01*
X27117570Y-87202825D01*
X26994435Y-86915212D01*
X26312266Y-86655293D01*
X25582557Y-86676214D01*
X25005565Y-86915212D01*
X24882430Y-87202825D01*
X21967992Y-87202825D01*
X26323378Y-82847440D01*
X27200000Y-82847440D01*
X27447765Y-82798157D01*
X27657809Y-82657809D01*
X27798157Y-82447765D01*
X27847440Y-82200000D01*
X27847440Y-81046392D01*
X27899000Y-80787182D01*
X27929072Y-80636000D01*
X27899000Y-80484818D01*
X27899000Y-72965000D01*
X30935000Y-72965000D01*
X30935000Y-99035000D01*
X37305000Y-99035000D01*
X37305000Y-72965000D01*
X30935000Y-72965000D01*
X27899000Y-72965000D01*
X27899000Y-69802724D01*
X30601882Y-69802724D01*
X30749455Y-70111106D01*
X31504031Y-70404405D01*
X32313409Y-70386614D01*
X32978545Y-70111106D01*
X33126118Y-69802724D01*
X31864000Y-68540605D01*
X30601882Y-69802724D01*
X27899000Y-69802724D01*
X27899000Y-69703925D01*
X28089190Y-69513735D01*
X28399000Y-68765787D01*
X28399000Y-68001031D01*
X29820595Y-68001031D01*
X29838386Y-68810409D01*
X30113894Y-69475545D01*
X30422276Y-69623118D01*
X31684395Y-68361000D01*
X32043605Y-68361000D01*
X33305724Y-69623118D01*
X33614106Y-69475545D01*
X33907405Y-68720969D01*
X33889614Y-67911591D01*
X33614106Y-67246455D01*
X33305724Y-67098882D01*
X32043605Y-68361000D01*
X31684395Y-68361000D01*
X30422276Y-67098882D01*
X30113894Y-67246455D01*
X29820595Y-68001031D01*
X28399000Y-68001031D01*
X28399000Y-67956213D01*
X28089190Y-67208265D01*
X27899000Y-67018075D01*
X27899000Y-66919276D01*
X30601882Y-66919276D01*
X31864000Y-68181395D01*
X33126118Y-66919276D01*
X32978545Y-66610894D01*
X32223969Y-66317595D01*
X31414591Y-66335386D01*
X30749455Y-66610894D01*
X30601882Y-66919276D01*
X27899000Y-66919276D01*
X27899000Y-65503925D01*
X28089190Y-65313735D01*
X28399000Y-64565787D01*
X28399000Y-64446750D01*
X29829000Y-64446750D01*
X29829000Y-65687309D01*
X29925673Y-65920698D01*
X30104301Y-66099327D01*
X30337690Y-66196000D01*
X31578250Y-66196000D01*
X31737000Y-66037250D01*
X31737000Y-64288000D01*
X31991000Y-64288000D01*
X31991000Y-66037250D01*
X32149750Y-66196000D01*
X33390310Y-66196000D01*
X33623699Y-66099327D01*
X33802327Y-65920698D01*
X33899000Y-65687309D01*
X33899000Y-64446750D01*
X33740250Y-64288000D01*
X31991000Y-64288000D01*
X31737000Y-64288000D01*
X29987750Y-64288000D01*
X29829000Y-64446750D01*
X28399000Y-64446750D01*
X28399000Y-63756213D01*
X28339877Y-63613478D01*
X29318664Y-62634691D01*
X29829000Y-62634691D01*
X29829000Y-63875250D01*
X29987750Y-64034000D01*
X31737000Y-64034000D01*
X31737000Y-62284750D01*
X31991000Y-62284750D01*
X31991000Y-64034000D01*
X33740250Y-64034000D01*
X33899000Y-63875250D01*
X33899000Y-62634691D01*
X33802327Y-62401302D01*
X33623699Y-62222673D01*
X33390310Y-62126000D01*
X32149750Y-62126000D01*
X31991000Y-62284750D01*
X31737000Y-62284750D01*
X31578250Y-62126000D01*
X30337690Y-62126000D01*
X30104301Y-62222673D01*
X29925673Y-62401302D01*
X29829000Y-62634691D01*
X29318664Y-62634691D01*
X32452341Y-59501015D01*
X32536669Y-59444669D01*
X32593016Y-59360340D01*
X32593018Y-59360338D01*
X32759898Y-59110583D01*
X32759899Y-59110582D01*
X32818500Y-58815976D01*
X32818500Y-58815971D01*
X32838286Y-58716500D01*
X32826336Y-58656424D01*
X32984891Y-58722100D01*
X33600450Y-58722100D01*
X33759200Y-58563350D01*
X33759200Y-57914100D01*
X34013200Y-57914100D01*
X34013200Y-58563350D01*
X34171950Y-58722100D01*
X34787509Y-58722100D01*
X35020898Y-58625427D01*
X35199527Y-58446799D01*
X35296200Y-58213410D01*
X35296200Y-58072850D01*
X35137450Y-57914100D01*
X34013200Y-57914100D01*
X33759200Y-57914100D01*
X33739200Y-57914100D01*
X33739200Y-57660100D01*
X33759200Y-57660100D01*
X33759200Y-57640100D01*
X34013200Y-57640100D01*
X34013200Y-57660100D01*
X35137450Y-57660100D01*
X35296200Y-57501350D01*
X35296200Y-57360790D01*
X35206432Y-57144072D01*
X35259357Y-57064865D01*
X35308640Y-56817100D01*
X35308640Y-56644462D01*
X35470674Y-56482428D01*
X35534130Y-56440028D01*
X35702105Y-56188636D01*
X35746201Y-55966951D01*
X35746201Y-55966946D01*
X35761089Y-55892099D01*
X35746201Y-55817252D01*
X35746201Y-54186445D01*
X35749688Y-54168913D01*
X35920681Y-53997920D01*
X35984140Y-53955518D01*
X36152115Y-53704126D01*
X36196211Y-53482441D01*
X36196211Y-53482437D01*
X36211099Y-53407590D01*
X36196211Y-53332743D01*
X36196211Y-48375817D01*
X38290001Y-50469607D01*
X38290001Y-50469607D01*
G37*
X38290001Y-50469607D02*
X38290000Y-123865000D01*
X38274234Y-123865000D01*
X37857074Y-124037793D01*
X37537793Y-124357074D01*
X37365000Y-124774234D01*
X37365000Y-125225766D01*
X37537793Y-125642926D01*
X37857074Y-125962207D01*
X38274234Y-126135000D01*
X38290000Y-126135000D01*
X38290000Y-133865000D01*
X38274234Y-133865000D01*
X37857074Y-134037793D01*
X37537793Y-134357074D01*
X37365000Y-134774234D01*
X37365000Y-135225766D01*
X37537793Y-135642926D01*
X37857074Y-135962207D01*
X38274234Y-136135000D01*
X38290000Y-136135000D01*
X38290000Y-179290000D01*
X710000Y-179290000D01*
X710000Y-156870817D01*
X8393688Y-164554505D01*
X8479327Y-164682673D01*
X8811399Y-164904556D01*
X8987072Y-165021938D01*
X9586000Y-165141072D01*
X9737182Y-165111000D01*
X25756823Y-165111000D01*
X25908000Y-165141071D01*
X26059177Y-165111000D01*
X26059182Y-165111000D01*
X26506927Y-165021938D01*
X27014673Y-164682673D01*
X27100312Y-164554505D01*
X28410507Y-163244311D01*
X28538673Y-163158673D01*
X28691000Y-162930699D01*
X28691001Y-168517026D01*
X28227201Y-168709138D01*
X27739138Y-169197201D01*
X27475000Y-169834887D01*
X27475000Y-170525113D01*
X27739138Y-171162799D01*
X28227201Y-171650862D01*
X28864887Y-171915000D01*
X29555113Y-171915000D01*
X30192799Y-171650862D01*
X30680862Y-171162799D01*
X30880862Y-170679955D01*
X31204507Y-170356311D01*
X31332673Y-170270673D01*
X31671938Y-169762927D01*
X31761000Y-169315182D01*
X31761000Y-169315177D01*
X31791071Y-169164000D01*
X31761000Y-169012823D01*
X31761000Y-161561750D01*
X33459000Y-161561750D01*
X33459000Y-161654309D01*
X33555673Y-161887698D01*
X33734301Y-162066327D01*
X33967690Y-162163000D01*
X34258250Y-162163000D01*
X34417000Y-162004250D01*
X34417000Y-161403000D01*
X34671000Y-161403000D01*
X34671000Y-162004250D01*
X34829750Y-162163000D01*
X35120310Y-162163000D01*
X35353699Y-162066327D01*
X35532327Y-161887698D01*
X35560000Y-161820890D01*
X35587673Y-161887698D01*
X35766301Y-162066327D01*
X35999690Y-162163000D01*
X36290250Y-162163000D01*
X36449000Y-162004250D01*
X36449000Y-161403000D01*
X36703000Y-161403000D01*
X36703000Y-162004250D01*
X36861750Y-162163000D01*
X37152310Y-162163000D01*
X37385699Y-162066327D01*
X37564327Y-161887698D01*
X37661000Y-161654309D01*
X37661000Y-161561750D01*
X37502250Y-161403000D01*
X36703000Y-161403000D01*
X36449000Y-161403000D01*
X35649750Y-161403000D01*
X35560000Y-161492750D01*
X35470250Y-161403000D01*
X34671000Y-161403000D01*
X34417000Y-161403000D01*
X33617750Y-161403000D01*
X33459000Y-161561750D01*
X31761000Y-161561750D01*
X31761000Y-157885176D01*
X31791071Y-157733999D01*
X31761000Y-157582822D01*
X31761000Y-157582818D01*
X31671938Y-157135073D01*
X31332673Y-156627327D01*
X31204508Y-156541690D01*
X27862312Y-153199495D01*
X27776673Y-153071327D01*
X27268927Y-152732062D01*
X26821182Y-152643000D01*
X26821177Y-152643000D01*
X26670000Y-152612929D01*
X26518823Y-152643000D01*
X12553817Y-152643000D01*
X10608507Y-150697690D01*
X10492236Y-150620000D01*
X10736673Y-150456673D01*
X10755832Y-150428000D01*
X11741459Y-150428000D01*
X11804000Y-150440440D01*
X12604000Y-150440440D01*
X12851765Y-150391157D01*
X12943102Y-150330127D01*
X12944302Y-150331327D01*
X13177691Y-150428000D01*
X13418250Y-150428000D01*
X13577000Y-150269250D01*
X13577000Y-149545000D01*
X13831000Y-149545000D01*
X13831000Y-150269250D01*
X13989750Y-150428000D01*
X14230309Y-150428000D01*
X14463698Y-150331327D01*
X14642327Y-150152699D01*
X14739000Y-149919310D01*
X14739000Y-149703750D01*
X14580250Y-149545000D01*
X13831000Y-149545000D01*
X13577000Y-149545000D01*
X13557000Y-149545000D01*
X13557000Y-149369750D01*
X15679000Y-149369750D01*
X15679000Y-149462309D01*
X15775673Y-149695698D01*
X15954301Y-149874327D01*
X16187690Y-149971000D01*
X16478250Y-149971000D01*
X16637000Y-149812250D01*
X16637000Y-149211000D01*
X16891000Y-149211000D01*
X16891000Y-149812250D01*
X17049750Y-149971000D01*
X17340310Y-149971000D01*
X17573699Y-149874327D01*
X17752327Y-149695698D01*
X17849000Y-149462309D01*
X17849000Y-149369750D01*
X17690250Y-149211000D01*
X16891000Y-149211000D01*
X16637000Y-149211000D01*
X15837750Y-149211000D01*
X15679000Y-149369750D01*
X13557000Y-149369750D01*
X13557000Y-149291000D01*
X13577000Y-149291000D01*
X13577000Y-148566750D01*
X13418250Y-148408000D01*
X13177691Y-148408000D01*
X12944302Y-148504673D01*
X12943102Y-148505873D01*
X12851765Y-148444843D01*
X12604000Y-148395560D01*
X11804000Y-148395560D01*
X11741459Y-148408000D01*
X10846704Y-148408000D01*
X10736673Y-148243327D01*
X10423946Y-148034369D01*
X10442862Y-148026534D01*
X10835396Y-147634000D01*
X11753459Y-147634000D01*
X11816000Y-147646440D01*
X12616000Y-147646440D01*
X12863765Y-147597157D01*
X12966000Y-147528845D01*
X13068235Y-147597157D01*
X13308616Y-147644971D01*
X13893484Y-148229840D01*
X13949831Y-148314169D01*
X14034160Y-148370516D01*
X14034161Y-148370517D01*
X14090258Y-148408000D01*
X13989750Y-148408000D01*
X13831000Y-148566750D01*
X13831000Y-149291000D01*
X14580250Y-149291000D01*
X14739000Y-149132250D01*
X14739000Y-148916690D01*
X14642327Y-148683301D01*
X14549191Y-148590165D01*
X14578524Y-148596000D01*
X14578528Y-148596000D01*
X14677999Y-148615786D01*
X14777470Y-148596000D01*
X15726092Y-148596000D01*
X15679000Y-148709691D01*
X15679000Y-148802250D01*
X15837750Y-148961000D01*
X16637000Y-148961000D01*
X16637000Y-148939000D01*
X16891000Y-148939000D01*
X16891000Y-148961000D01*
X17690250Y-148961000D01*
X17849000Y-148802250D01*
X17849000Y-148709691D01*
X17801908Y-148596000D01*
X18017089Y-148596000D01*
X18056235Y-148622157D01*
X18304000Y-148671440D01*
X18804000Y-148671440D01*
X19051765Y-148622157D01*
X19261809Y-148481809D01*
X19304000Y-148418666D01*
X19346191Y-148481809D01*
X19556235Y-148622157D01*
X19804000Y-148671440D01*
X20304000Y-148671440D01*
X20551765Y-148622157D01*
X20608871Y-148584000D01*
X20663645Y-148584000D01*
X23345484Y-151265840D01*
X23401831Y-151350169D01*
X23486160Y-151406516D01*
X23486162Y-151406518D01*
X23620606Y-151496350D01*
X23735918Y-151573399D01*
X24030524Y-151632000D01*
X24030529Y-151632000D01*
X24130000Y-151651786D01*
X24229471Y-151632000D01*
X28029645Y-151632000D01*
X29949482Y-153551837D01*
X30005831Y-153636169D01*
X30339918Y-153859399D01*
X30634524Y-153918000D01*
X30634529Y-153918000D01*
X30733999Y-153937786D01*
X30833470Y-153918000D01*
X30876510Y-153918000D01*
X30923570Y-153988430D01*
X31419275Y-154319650D01*
X31856402Y-154406600D01*
X32151598Y-154406600D01*
X32588725Y-154319650D01*
X33084430Y-153988430D01*
X33274000Y-153704719D01*
X33463570Y-153988430D01*
X33784001Y-154202535D01*
X33784000Y-158971427D01*
X33636191Y-159070191D01*
X33495843Y-159280235D01*
X33446560Y-159528000D01*
X33446560Y-160028000D01*
X33495843Y-160275765D01*
X33636191Y-160485809D01*
X33697320Y-160526654D01*
X33555673Y-160668302D01*
X33459000Y-160901691D01*
X33459000Y-160994250D01*
X33617750Y-161153000D01*
X34417000Y-161153000D01*
X34417000Y-161131000D01*
X34671000Y-161131000D01*
X34671000Y-161153000D01*
X35470250Y-161153000D01*
X35560000Y-161063250D01*
X35649750Y-161153000D01*
X36449000Y-161153000D01*
X36449000Y-161131000D01*
X36703000Y-161131000D01*
X36703000Y-161153000D01*
X37502250Y-161153000D01*
X37661000Y-160994250D01*
X37661000Y-160901691D01*
X37564327Y-160668302D01*
X37422680Y-160526654D01*
X37483809Y-160485809D01*
X37624157Y-160275765D01*
X37673440Y-160028000D01*
X37673440Y-159528000D01*
X37624157Y-159280235D01*
X37483809Y-159070191D01*
X37273765Y-158929843D01*
X37254906Y-158926092D01*
X37224483Y-158880560D01*
X37166329Y-158793526D01*
X37166327Y-158793524D01*
X37123929Y-158730071D01*
X37060475Y-158687672D01*
X36828000Y-158455198D01*
X36828000Y-146886846D01*
X36842888Y-146811999D01*
X36828000Y-146737152D01*
X36828000Y-146737148D01*
X36783904Y-146515463D01*
X36685660Y-146368430D01*
X36658329Y-146327526D01*
X36658327Y-146327524D01*
X36615929Y-146264071D01*
X36552476Y-146221673D01*
X35996775Y-145665973D01*
X36071959Y-145288000D01*
X35955650Y-144703275D01*
X35624430Y-144207570D01*
X35336174Y-144014963D01*
X35750821Y-143636490D01*
X35998968Y-143107027D01*
X35878469Y-142875000D01*
X34671000Y-142875000D01*
X34671000Y-142895000D01*
X34417000Y-142895000D01*
X34417000Y-142875000D01*
X34397000Y-142875000D01*
X34397000Y-142621000D01*
X34417000Y-142621000D01*
X34417000Y-141414183D01*
X34671000Y-141414183D01*
X34671000Y-142621000D01*
X35878469Y-142621000D01*
X35998968Y-142388973D01*
X35750821Y-141859510D01*
X35318947Y-141465312D01*
X34903026Y-141293042D01*
X34671000Y-141414183D01*
X34417000Y-141414183D01*
X34184974Y-141293042D01*
X34034000Y-141355574D01*
X34034000Y-134774234D01*
X34865000Y-134774234D01*
X34865000Y-135225766D01*
X35037793Y-135642926D01*
X35357074Y-135962207D01*
X35774234Y-136135000D01*
X36225766Y-136135000D01*
X36642926Y-135962207D01*
X36962207Y-135642926D01*
X37135000Y-135225766D01*
X37135000Y-134774234D01*
X36962207Y-134357074D01*
X36642926Y-134037793D01*
X36225766Y-133865000D01*
X35774234Y-133865000D01*
X35357074Y-134037793D01*
X35037793Y-134357074D01*
X34865000Y-134774234D01*
X34034000Y-134774234D01*
X34034000Y-130285750D01*
X34515000Y-130285750D01*
X34515000Y-131476309D01*
X34611673Y-131709698D01*
X34790301Y-131888327D01*
X35023690Y-131985000D01*
X35714250Y-131985000D01*
X35873000Y-131826250D01*
X35873000Y-130127000D01*
X36127000Y-130127000D01*
X36127000Y-131826250D01*
X36285750Y-131985000D01*
X36976310Y-131985000D01*
X37209699Y-131888327D01*
X37388327Y-131709698D01*
X37485000Y-131476309D01*
X37485000Y-130285750D01*
X37326250Y-130127000D01*
X36127000Y-130127000D01*
X35873000Y-130127000D01*
X34673750Y-130127000D01*
X34515000Y-130285750D01*
X34034000Y-130285750D01*
X34034000Y-128523691D01*
X34515000Y-128523691D01*
X34515000Y-129714250D01*
X34673750Y-129873000D01*
X35873000Y-129873000D01*
X35873000Y-128173750D01*
X36127000Y-128173750D01*
X36127000Y-129873000D01*
X37326250Y-129873000D01*
X37485000Y-129714250D01*
X37485000Y-128523691D01*
X37388327Y-128290302D01*
X37209699Y-128111673D01*
X36976310Y-128015000D01*
X36285750Y-128015000D01*
X36127000Y-128173750D01*
X35873000Y-128173750D01*
X35714250Y-128015000D01*
X35023690Y-128015000D01*
X34790301Y-128111673D01*
X34611673Y-128290302D01*
X34515000Y-128523691D01*
X34034000Y-128523691D01*
X34034000Y-125804847D01*
X34048888Y-125730000D01*
X34034000Y-125655153D01*
X34034000Y-125655148D01*
X33989904Y-125433463D01*
X33821929Y-125182071D01*
X33758473Y-125139671D01*
X33393036Y-124774234D01*
X34865000Y-124774234D01*
X34865000Y-125225766D01*
X35037793Y-125642926D01*
X35357074Y-125962207D01*
X35774234Y-126135000D01*
X36225766Y-126135000D01*
X36642926Y-125962207D01*
X36962207Y-125642926D01*
X37135000Y-125225766D01*
X37135000Y-124774234D01*
X36962207Y-124357074D01*
X36642926Y-124037793D01*
X36225766Y-123865000D01*
X35774234Y-123865000D01*
X35357074Y-124037793D01*
X35037793Y-124357074D01*
X34865000Y-124774234D01*
X33393036Y-124774234D01*
X33134331Y-124515530D01*
X33091929Y-124452071D01*
X32997440Y-124388935D01*
X32997440Y-124150000D01*
X32948157Y-123902235D01*
X32807809Y-123692191D01*
X32597765Y-123551843D01*
X32350000Y-123502560D01*
X30341101Y-123502560D01*
X30680862Y-123162799D01*
X30945000Y-122525113D01*
X30945000Y-121834887D01*
X30680862Y-121197201D01*
X30192799Y-120709138D01*
X29555113Y-120445000D01*
X28864887Y-120445000D01*
X28227201Y-120709138D01*
X27766339Y-121170000D01*
X21713471Y-121170000D01*
X21614000Y-121150214D01*
X21514529Y-121170000D01*
X21514524Y-121170000D01*
X21219918Y-121228601D01*
X21219916Y-121228602D01*
X21219917Y-121228602D01*
X20970162Y-121395482D01*
X20970160Y-121395484D01*
X20885831Y-121451831D01*
X20829484Y-121536160D01*
X9690645Y-132675000D01*
X9344561Y-132675000D01*
X8817138Y-132893466D01*
X8647000Y-133063604D01*
X8647000Y-132745817D01*
X22443818Y-118949000D01*
X26264823Y-118949000D01*
X26416000Y-118979071D01*
X26567177Y-118949000D01*
X26567182Y-118949000D01*
X27014927Y-118859938D01*
X27522673Y-118520673D01*
X27608312Y-118392505D01*
X30978508Y-115022310D01*
X31106673Y-114936673D01*
X31445938Y-114428927D01*
X31535000Y-113981182D01*
X31535000Y-113981178D01*
X31565071Y-113830001D01*
X31535000Y-113678824D01*
X31535000Y-106151176D01*
X31565071Y-105999999D01*
X31535000Y-105848822D01*
X31535000Y-105848818D01*
X31445938Y-105401073D01*
X31106673Y-104893327D01*
X30978508Y-104807690D01*
X20535000Y-94364183D01*
X20535000Y-89797175D01*
X24882430Y-89797175D01*
X25005565Y-90084788D01*
X25687734Y-90344707D01*
X26417443Y-90323786D01*
X26994435Y-90084788D01*
X27117570Y-89797175D01*
X26000000Y-88679605D01*
X24882430Y-89797175D01*
X20535000Y-89797175D01*
X20535000Y-88635817D01*
X20983083Y-88187734D01*
X24155293Y-88187734D01*
X24176214Y-88917443D01*
X24415212Y-89494435D01*
X24702825Y-89617570D01*
X25820395Y-88500000D01*
X26179605Y-88500000D01*
X27297175Y-89617570D01*
X27584788Y-89494435D01*
X27844707Y-88812266D01*
X27823786Y-88082557D01*
X27584788Y-87505565D01*
X27297175Y-87382430D01*
X26179605Y-88500000D01*
X25820395Y-88500000D01*
X24702825Y-87382430D01*
X24415212Y-87505565D01*
X24155293Y-88187734D01*
X20983083Y-88187734D01*
X21967992Y-87202825D01*
X24882430Y-87202825D01*
X26000000Y-88320395D01*
X27117570Y-87202825D01*
X26994435Y-86915212D01*
X26312266Y-86655293D01*
X25582557Y-86676214D01*
X25005565Y-86915212D01*
X24882430Y-87202825D01*
X21967992Y-87202825D01*
X26323378Y-82847440D01*
X27200000Y-82847440D01*
X27447765Y-82798157D01*
X27657809Y-82657809D01*
X27798157Y-82447765D01*
X27847440Y-82200000D01*
X27847440Y-81046392D01*
X27899000Y-80787182D01*
X27929072Y-80636000D01*
X27899000Y-80484818D01*
X27899000Y-72965000D01*
X30935000Y-72965000D01*
X30935000Y-99035000D01*
X37305000Y-99035000D01*
X37305000Y-72965000D01*
X30935000Y-72965000D01*
X27899000Y-72965000D01*
X27899000Y-69802724D01*
X30601882Y-69802724D01*
X30749455Y-70111106D01*
X31504031Y-70404405D01*
X32313409Y-70386614D01*
X32978545Y-70111106D01*
X33126118Y-69802724D01*
X31864000Y-68540605D01*
X30601882Y-69802724D01*
X27899000Y-69802724D01*
X27899000Y-69703925D01*
X28089190Y-69513735D01*
X28399000Y-68765787D01*
X28399000Y-68001031D01*
X29820595Y-68001031D01*
X29838386Y-68810409D01*
X30113894Y-69475545D01*
X30422276Y-69623118D01*
X31684395Y-68361000D01*
X32043605Y-68361000D01*
X33305724Y-69623118D01*
X33614106Y-69475545D01*
X33907405Y-68720969D01*
X33889614Y-67911591D01*
X33614106Y-67246455D01*
X33305724Y-67098882D01*
X32043605Y-68361000D01*
X31684395Y-68361000D01*
X30422276Y-67098882D01*
X30113894Y-67246455D01*
X29820595Y-68001031D01*
X28399000Y-68001031D01*
X28399000Y-67956213D01*
X28089190Y-67208265D01*
X27899000Y-67018075D01*
X27899000Y-66919276D01*
X30601882Y-66919276D01*
X31864000Y-68181395D01*
X33126118Y-66919276D01*
X32978545Y-66610894D01*
X32223969Y-66317595D01*
X31414591Y-66335386D01*
X30749455Y-66610894D01*
X30601882Y-66919276D01*
X27899000Y-66919276D01*
X27899000Y-65503925D01*
X28089190Y-65313735D01*
X28399000Y-64565787D01*
X28399000Y-64446750D01*
X29829000Y-64446750D01*
X29829000Y-65687309D01*
X29925673Y-65920698D01*
X30104301Y-66099327D01*
X30337690Y-66196000D01*
X31578250Y-66196000D01*
X31737000Y-66037250D01*
X31737000Y-64288000D01*
X31991000Y-64288000D01*
X31991000Y-66037250D01*
X32149750Y-66196000D01*
X33390310Y-66196000D01*
X33623699Y-66099327D01*
X33802327Y-65920698D01*
X33899000Y-65687309D01*
X33899000Y-64446750D01*
X33740250Y-64288000D01*
X31991000Y-64288000D01*
X31737000Y-64288000D01*
X29987750Y-64288000D01*
X29829000Y-64446750D01*
X28399000Y-64446750D01*
X28399000Y-63756213D01*
X28339877Y-63613478D01*
X29318664Y-62634691D01*
X29829000Y-62634691D01*
X29829000Y-63875250D01*
X29987750Y-64034000D01*
X31737000Y-64034000D01*
X31737000Y-62284750D01*
X31991000Y-62284750D01*
X31991000Y-64034000D01*
X33740250Y-64034000D01*
X33899000Y-63875250D01*
X33899000Y-62634691D01*
X33802327Y-62401302D01*
X33623699Y-62222673D01*
X33390310Y-62126000D01*
X32149750Y-62126000D01*
X31991000Y-62284750D01*
X31737000Y-62284750D01*
X31578250Y-62126000D01*
X30337690Y-62126000D01*
X30104301Y-62222673D01*
X29925673Y-62401302D01*
X29829000Y-62634691D01*
X29318664Y-62634691D01*
X32452341Y-59501015D01*
X32536669Y-59444669D01*
X32593016Y-59360340D01*
X32593018Y-59360338D01*
X32759898Y-59110583D01*
X32759899Y-59110582D01*
X32818500Y-58815976D01*
X32818500Y-58815971D01*
X32838286Y-58716500D01*
X32826336Y-58656424D01*
X32984891Y-58722100D01*
X33600450Y-58722100D01*
X33759200Y-58563350D01*
X33759200Y-57914100D01*
X34013200Y-57914100D01*
X34013200Y-58563350D01*
X34171950Y-58722100D01*
X34787509Y-58722100D01*
X35020898Y-58625427D01*
X35199527Y-58446799D01*
X35296200Y-58213410D01*
X35296200Y-58072850D01*
X35137450Y-57914100D01*
X34013200Y-57914100D01*
X33759200Y-57914100D01*
X33739200Y-57914100D01*
X33739200Y-57660100D01*
X33759200Y-57660100D01*
X33759200Y-57640100D01*
X34013200Y-57640100D01*
X34013200Y-57660100D01*
X35137450Y-57660100D01*
X35296200Y-57501350D01*
X35296200Y-57360790D01*
X35206432Y-57144072D01*
X35259357Y-57064865D01*
X35308640Y-56817100D01*
X35308640Y-56644462D01*
X35470674Y-56482428D01*
X35534130Y-56440028D01*
X35702105Y-56188636D01*
X35746201Y-55966951D01*
X35746201Y-55966946D01*
X35761089Y-55892099D01*
X35746201Y-55817252D01*
X35746201Y-54186445D01*
X35749688Y-54168913D01*
X35920681Y-53997920D01*
X35984140Y-53955518D01*
X36152115Y-53704126D01*
X36196211Y-53482441D01*
X36196211Y-53482437D01*
X36211099Y-53407590D01*
X36196211Y-53332743D01*
X36196211Y-48375817D01*
X38290001Y-50469607D01*
G36*
X6405482Y-139833837D02*
X6461831Y-139918169D01*
X6795918Y-140141399D01*
X7090524Y-140200000D01*
X7090528Y-140200000D01*
X7189999Y-140219786D01*
X7289470Y-140200000D01*
X8610604Y-140200000D01*
X8817138Y-140406534D01*
X8930583Y-140453525D01*
X8875995Y-140476136D01*
X8801861Y-140722255D01*
X9630000Y-141550395D01*
X10458139Y-140722255D01*
X10384005Y-140476136D01*
X10325552Y-140455126D01*
X10442862Y-140406534D01*
X10581396Y-140268000D01*
X11741459Y-140268000D01*
X11804000Y-140280440D01*
X12604000Y-140280440D01*
X12851765Y-140231157D01*
X12954000Y-140162845D01*
X13056235Y-140231157D01*
X13304000Y-140280440D01*
X14104000Y-140280440D01*
X14166541Y-140268000D01*
X15582529Y-140268000D01*
X15682000Y-140287786D01*
X15781471Y-140268000D01*
X15781476Y-140268000D01*
X16076082Y-140209399D01*
X16410169Y-139986169D01*
X16443691Y-139936000D01*
X17981170Y-139936000D01*
X18056235Y-139986157D01*
X18304000Y-140035440D01*
X18804000Y-140035440D01*
X19051765Y-139986157D01*
X19261809Y-139845809D01*
X19304000Y-139782666D01*
X19346191Y-139845809D01*
X19556235Y-139986157D01*
X19804000Y-140035440D01*
X20304000Y-140035440D01*
X20551765Y-139986157D01*
X20608871Y-139948000D01*
X22695645Y-139948000D01*
X30492566Y-147744922D01*
X30486454Y-147775652D01*
X30054331Y-147343530D01*
X30011929Y-147280071D01*
X29760537Y-147112096D01*
X29538852Y-147068000D01*
X29538847Y-147068000D01*
X29464000Y-147053112D01*
X29389153Y-147068000D01*
X27464573Y-147068000D01*
X27365809Y-146920191D01*
X27155765Y-146779843D01*
X26908000Y-146730560D01*
X26408000Y-146730560D01*
X26160235Y-146779843D01*
X25950191Y-146920191D01*
X25909346Y-146981320D01*
X25767698Y-146839673D01*
X25534309Y-146743000D01*
X25441750Y-146743000D01*
X25283000Y-146901750D01*
X25283000Y-147701000D01*
X25305000Y-147701000D01*
X25305000Y-147955000D01*
X25283000Y-147955000D01*
X25283000Y-148754250D01*
X25441750Y-148913000D01*
X25534309Y-148913000D01*
X25767698Y-148816327D01*
X25909346Y-148674680D01*
X25950191Y-148735809D01*
X26160235Y-148876157D01*
X26408000Y-148925440D01*
X26908000Y-148925440D01*
X27155765Y-148876157D01*
X27365809Y-148735809D01*
X27464573Y-148588000D01*
X29149199Y-148588000D01*
X30551225Y-149990027D01*
X30476041Y-150368000D01*
X30592350Y-150952725D01*
X30923570Y-151448430D01*
X31207281Y-151638000D01*
X31018497Y-151764142D01*
X29232517Y-149978162D01*
X29176169Y-149893831D01*
X28842082Y-149670601D01*
X28547476Y-149612000D01*
X28547471Y-149612000D01*
X28448000Y-149592214D01*
X28348529Y-149612000D01*
X24548356Y-149612000D01*
X23050106Y-148113750D01*
X24273000Y-148113750D01*
X24273000Y-148404310D01*
X24369673Y-148637699D01*
X24548302Y-148816327D01*
X24781691Y-148913000D01*
X24874250Y-148913000D01*
X25033000Y-148754250D01*
X25033000Y-147955000D01*
X24431750Y-147955000D01*
X24273000Y-148113750D01*
X23050106Y-148113750D01*
X22188046Y-147251690D01*
X24273000Y-147251690D01*
X24273000Y-147542250D01*
X24431750Y-147701000D01*
X25033000Y-147701000D01*
X25033000Y-146901750D01*
X24874250Y-146743000D01*
X24781691Y-146743000D01*
X24548302Y-146839673D01*
X24369673Y-147018301D01*
X24273000Y-147251690D01*
X22188046Y-147251690D01*
X21866518Y-146930163D01*
X21810169Y-146845831D01*
X21476082Y-146622601D01*
X21181476Y-146564000D01*
X21181471Y-146564000D01*
X21082000Y-146544214D01*
X20982529Y-146564000D01*
X20608871Y-146564000D01*
X20551765Y-146525843D01*
X20304000Y-146476560D01*
X19804000Y-146476560D01*
X19556235Y-146525843D01*
X19346191Y-146666191D01*
X19304000Y-146729334D01*
X19261809Y-146666191D01*
X19051765Y-146525843D01*
X18804000Y-146476560D01*
X18304000Y-146476560D01*
X18056235Y-146525843D01*
X17981170Y-146576000D01*
X15096356Y-146576000D01*
X14761971Y-146241616D01*
X14714157Y-146001235D01*
X14573809Y-145791191D01*
X14363765Y-145650843D01*
X14116000Y-145601560D01*
X13752931Y-145601560D01*
X13716000Y-145594214D01*
X13679069Y-145601560D01*
X13316000Y-145601560D01*
X13068235Y-145650843D01*
X12966000Y-145719155D01*
X12863765Y-145650843D01*
X12769971Y-145632186D01*
X13834411Y-144567747D01*
X13899953Y-144523953D01*
X13943747Y-144458411D01*
X13943749Y-144458409D01*
X13975133Y-144411440D01*
X14834000Y-144411440D01*
X15081765Y-144362157D01*
X15291809Y-144221809D01*
X15432157Y-144011765D01*
X15481440Y-143764000D01*
X15481440Y-143249750D01*
X15599000Y-143249750D01*
X15599000Y-143890310D01*
X15695673Y-144123699D01*
X15874302Y-144302327D01*
X16107691Y-144399000D01*
X17448250Y-144399000D01*
X17607000Y-144240250D01*
X17607000Y-143091000D01*
X17861000Y-143091000D01*
X17861000Y-144240250D01*
X18019750Y-144399000D01*
X19360309Y-144399000D01*
X19593698Y-144302327D01*
X19772327Y-144123699D01*
X19869000Y-143890310D01*
X19869000Y-143249750D01*
X19710250Y-143091000D01*
X17861000Y-143091000D01*
X17607000Y-143091000D01*
X15757750Y-143091000D01*
X15599000Y-143249750D01*
X15481440Y-143249750D01*
X15481440Y-142164000D01*
X15456316Y-142037690D01*
X15599000Y-142037690D01*
X15599000Y-142678250D01*
X15757750Y-142837000D01*
X17607000Y-142837000D01*
X17607000Y-141687750D01*
X17861000Y-141687750D01*
X17861000Y-142837000D01*
X19710250Y-142837000D01*
X19869000Y-142678250D01*
X19869000Y-142037690D01*
X19772327Y-141804301D01*
X19593698Y-141625673D01*
X19360309Y-141529000D01*
X18019750Y-141529000D01*
X17861000Y-141687750D01*
X17607000Y-141687750D01*
X17448250Y-141529000D01*
X16107691Y-141529000D01*
X15874302Y-141625673D01*
X15695673Y-141804301D01*
X15599000Y-142037690D01*
X15456316Y-142037690D01*
X15432157Y-141916235D01*
X15291809Y-141706191D01*
X15081765Y-141565843D01*
X14834000Y-141516560D01*
X11834000Y-141516560D01*
X11586235Y-141565843D01*
X11376191Y-141706191D01*
X11235843Y-141916235D01*
X11186560Y-142164000D01*
X11186560Y-143764000D01*
X11235843Y-144011765D01*
X11376191Y-144221809D01*
X11586235Y-144362157D01*
X11780954Y-144400889D01*
X11426843Y-144755000D01*
X10982339Y-144755000D01*
X11065000Y-144555439D01*
X11065000Y-143984561D01*
X10846534Y-143457138D01*
X10442862Y-143053466D01*
X10329417Y-143006475D01*
X10384005Y-142983864D01*
X10458139Y-142737745D01*
X9630000Y-141909605D01*
X8801861Y-142737745D01*
X8875995Y-142983864D01*
X8934448Y-143004874D01*
X8817138Y-143053466D01*
X8413466Y-143457138D01*
X8401925Y-143485000D01*
X5900555Y-143485000D01*
X5996965Y-143216777D01*
X5969778Y-142646546D01*
X5803864Y-142245995D01*
X5557745Y-142171861D01*
X4729605Y-143000000D01*
X4743748Y-143014142D01*
X4564143Y-143193748D01*
X4550000Y-143179605D01*
X4535858Y-143193748D01*
X4356252Y-143014142D01*
X4370395Y-143000000D01*
X4356252Y-142985858D01*
X4535858Y-142806252D01*
X4550000Y-142820395D01*
X5378139Y-141992255D01*
X5304005Y-141746136D01*
X5245552Y-141725126D01*
X5362862Y-141676534D01*
X5526173Y-141513223D01*
X8183035Y-141513223D01*
X8210222Y-142083454D01*
X8376136Y-142484005D01*
X8622255Y-142558139D01*
X9450395Y-141730000D01*
X9809605Y-141730000D01*
X10637745Y-142558139D01*
X10883864Y-142484005D01*
X11076965Y-141946777D01*
X11049778Y-141376546D01*
X10883864Y-140975995D01*
X10637745Y-140901861D01*
X9809605Y-141730000D01*
X9450395Y-141730000D01*
X8622255Y-140901861D01*
X8376136Y-140975995D01*
X8183035Y-141513223D01*
X5526173Y-141513223D01*
X5766534Y-141272862D01*
X5985000Y-140745439D01*
X5985000Y-140174561D01*
X5766534Y-139647138D01*
X5362862Y-139243466D01*
X5233784Y-139190000D01*
X5362862Y-139136534D01*
X5535521Y-138963876D01*
X6405482Y-139833837D01*
X6405482Y-139833837D01*
G37*
X6405482Y-139833837D02*
X6461831Y-139918169D01*
X6795918Y-140141399D01*
X7090524Y-140200000D01*
X7090528Y-140200000D01*
X7189999Y-140219786D01*
X7289470Y-140200000D01*
X8610604Y-140200000D01*
X8817138Y-140406534D01*
X8930583Y-140453525D01*
X8875995Y-140476136D01*
X8801861Y-140722255D01*
X9630000Y-141550395D01*
X10458139Y-140722255D01*
X10384005Y-140476136D01*
X10325552Y-140455126D01*
X10442862Y-140406534D01*
X10581396Y-140268000D01*
X11741459Y-140268000D01*
X11804000Y-140280440D01*
X12604000Y-140280440D01*
X12851765Y-140231157D01*
X12954000Y-140162845D01*
X13056235Y-140231157D01*
X13304000Y-140280440D01*
X14104000Y-140280440D01*
X14166541Y-140268000D01*
X15582529Y-140268000D01*
X15682000Y-140287786D01*
X15781471Y-140268000D01*
X15781476Y-140268000D01*
X16076082Y-140209399D01*
X16410169Y-139986169D01*
X16443691Y-139936000D01*
X17981170Y-139936000D01*
X18056235Y-139986157D01*
X18304000Y-140035440D01*
X18804000Y-140035440D01*
X19051765Y-139986157D01*
X19261809Y-139845809D01*
X19304000Y-139782666D01*
X19346191Y-139845809D01*
X19556235Y-139986157D01*
X19804000Y-140035440D01*
X20304000Y-140035440D01*
X20551765Y-139986157D01*
X20608871Y-139948000D01*
X22695645Y-139948000D01*
X30492566Y-147744922D01*
X30486454Y-147775652D01*
X30054331Y-147343530D01*
X30011929Y-147280071D01*
X29760537Y-147112096D01*
X29538852Y-147068000D01*
X29538847Y-147068000D01*
X29464000Y-147053112D01*
X29389153Y-147068000D01*
X27464573Y-147068000D01*
X27365809Y-146920191D01*
X27155765Y-146779843D01*
X26908000Y-146730560D01*
X26408000Y-146730560D01*
X26160235Y-146779843D01*
X25950191Y-146920191D01*
X25909346Y-146981320D01*
X25767698Y-146839673D01*
X25534309Y-146743000D01*
X25441750Y-146743000D01*
X25283000Y-146901750D01*
X25283000Y-147701000D01*
X25305000Y-147701000D01*
X25305000Y-147955000D01*
X25283000Y-147955000D01*
X25283000Y-148754250D01*
X25441750Y-148913000D01*
X25534309Y-148913000D01*
X25767698Y-148816327D01*
X25909346Y-148674680D01*
X25950191Y-148735809D01*
X26160235Y-148876157D01*
X26408000Y-148925440D01*
X26908000Y-148925440D01*
X27155765Y-148876157D01*
X27365809Y-148735809D01*
X27464573Y-148588000D01*
X29149199Y-148588000D01*
X30551225Y-149990027D01*
X30476041Y-150368000D01*
X30592350Y-150952725D01*
X30923570Y-151448430D01*
X31207281Y-151638000D01*
X31018497Y-151764142D01*
X29232517Y-149978162D01*
X29176169Y-149893831D01*
X28842082Y-149670601D01*
X28547476Y-149612000D01*
X28547471Y-149612000D01*
X28448000Y-149592214D01*
X28348529Y-149612000D01*
X24548356Y-149612000D01*
X23050106Y-148113750D01*
X24273000Y-148113750D01*
X24273000Y-148404310D01*
X24369673Y-148637699D01*
X24548302Y-148816327D01*
X24781691Y-148913000D01*
X24874250Y-148913000D01*
X25033000Y-148754250D01*
X25033000Y-147955000D01*
X24431750Y-147955000D01*
X24273000Y-148113750D01*
X23050106Y-148113750D01*
X22188046Y-147251690D01*
X24273000Y-147251690D01*
X24273000Y-147542250D01*
X24431750Y-147701000D01*
X25033000Y-147701000D01*
X25033000Y-146901750D01*
X24874250Y-146743000D01*
X24781691Y-146743000D01*
X24548302Y-146839673D01*
X24369673Y-147018301D01*
X24273000Y-147251690D01*
X22188046Y-147251690D01*
X21866518Y-146930163D01*
X21810169Y-146845831D01*
X21476082Y-146622601D01*
X21181476Y-146564000D01*
X21181471Y-146564000D01*
X21082000Y-146544214D01*
X20982529Y-146564000D01*
X20608871Y-146564000D01*
X20551765Y-146525843D01*
X20304000Y-146476560D01*
X19804000Y-146476560D01*
X19556235Y-146525843D01*
X19346191Y-146666191D01*
X19304000Y-146729334D01*
X19261809Y-146666191D01*
X19051765Y-146525843D01*
X18804000Y-146476560D01*
X18304000Y-146476560D01*
X18056235Y-146525843D01*
X17981170Y-146576000D01*
X15096356Y-146576000D01*
X14761971Y-146241616D01*
X14714157Y-146001235D01*
X14573809Y-145791191D01*
X14363765Y-145650843D01*
X14116000Y-145601560D01*
X13752931Y-145601560D01*
X13716000Y-145594214D01*
X13679069Y-145601560D01*
X13316000Y-145601560D01*
X13068235Y-145650843D01*
X12966000Y-145719155D01*
X12863765Y-145650843D01*
X12769971Y-145632186D01*
X13834411Y-144567747D01*
X13899953Y-144523953D01*
X13943747Y-144458411D01*
X13943749Y-144458409D01*
X13975133Y-144411440D01*
X14834000Y-144411440D01*
X15081765Y-144362157D01*
X15291809Y-144221809D01*
X15432157Y-144011765D01*
X15481440Y-143764000D01*
X15481440Y-143249750D01*
X15599000Y-143249750D01*
X15599000Y-143890310D01*
X15695673Y-144123699D01*
X15874302Y-144302327D01*
X16107691Y-144399000D01*
X17448250Y-144399000D01*
X17607000Y-144240250D01*
X17607000Y-143091000D01*
X17861000Y-143091000D01*
X17861000Y-144240250D01*
X18019750Y-144399000D01*
X19360309Y-144399000D01*
X19593698Y-144302327D01*
X19772327Y-144123699D01*
X19869000Y-143890310D01*
X19869000Y-143249750D01*
X19710250Y-143091000D01*
X17861000Y-143091000D01*
X17607000Y-143091000D01*
X15757750Y-143091000D01*
X15599000Y-143249750D01*
X15481440Y-143249750D01*
X15481440Y-142164000D01*
X15456316Y-142037690D01*
X15599000Y-142037690D01*
X15599000Y-142678250D01*
X15757750Y-142837000D01*
X17607000Y-142837000D01*
X17607000Y-141687750D01*
X17861000Y-141687750D01*
X17861000Y-142837000D01*
X19710250Y-142837000D01*
X19869000Y-142678250D01*
X19869000Y-142037690D01*
X19772327Y-141804301D01*
X19593698Y-141625673D01*
X19360309Y-141529000D01*
X18019750Y-141529000D01*
X17861000Y-141687750D01*
X17607000Y-141687750D01*
X17448250Y-141529000D01*
X16107691Y-141529000D01*
X15874302Y-141625673D01*
X15695673Y-141804301D01*
X15599000Y-142037690D01*
X15456316Y-142037690D01*
X15432157Y-141916235D01*
X15291809Y-141706191D01*
X15081765Y-141565843D01*
X14834000Y-141516560D01*
X11834000Y-141516560D01*
X11586235Y-141565843D01*
X11376191Y-141706191D01*
X11235843Y-141916235D01*
X11186560Y-142164000D01*
X11186560Y-143764000D01*
X11235843Y-144011765D01*
X11376191Y-144221809D01*
X11586235Y-144362157D01*
X11780954Y-144400889D01*
X11426843Y-144755000D01*
X10982339Y-144755000D01*
X11065000Y-144555439D01*
X11065000Y-143984561D01*
X10846534Y-143457138D01*
X10442862Y-143053466D01*
X10329417Y-143006475D01*
X10384005Y-142983864D01*
X10458139Y-142737745D01*
X9630000Y-141909605D01*
X8801861Y-142737745D01*
X8875995Y-142983864D01*
X8934448Y-143004874D01*
X8817138Y-143053466D01*
X8413466Y-143457138D01*
X8401925Y-143485000D01*
X5900555Y-143485000D01*
X5996965Y-143216777D01*
X5969778Y-142646546D01*
X5803864Y-142245995D01*
X5557745Y-142171861D01*
X4729605Y-143000000D01*
X4743748Y-143014142D01*
X4564143Y-143193748D01*
X4550000Y-143179605D01*
X4535858Y-143193748D01*
X4356252Y-143014142D01*
X4370395Y-143000000D01*
X4356252Y-142985858D01*
X4535858Y-142806252D01*
X4550000Y-142820395D01*
X5378139Y-141992255D01*
X5304005Y-141746136D01*
X5245552Y-141725126D01*
X5362862Y-141676534D01*
X5526173Y-141513223D01*
X8183035Y-141513223D01*
X8210222Y-142083454D01*
X8376136Y-142484005D01*
X8622255Y-142558139D01*
X9450395Y-141730000D01*
X9809605Y-141730000D01*
X10637745Y-142558139D01*
X10883864Y-142484005D01*
X11076965Y-141946777D01*
X11049778Y-141376546D01*
X10883864Y-140975995D01*
X10637745Y-140901861D01*
X9809605Y-141730000D01*
X9450395Y-141730000D01*
X8622255Y-140901861D01*
X8376136Y-140975995D01*
X8183035Y-141513223D01*
X5526173Y-141513223D01*
X5766534Y-141272862D01*
X5985000Y-140745439D01*
X5985000Y-140174561D01*
X5766534Y-139647138D01*
X5362862Y-139243466D01*
X5233784Y-139190000D01*
X5362862Y-139136534D01*
X5535521Y-138963876D01*
X6405482Y-139833837D01*
G36*
X28227201Y-123650862D02*
X28864887Y-123915000D01*
X29049304Y-123915000D01*
X29002560Y-124150000D01*
X29002560Y-125850000D01*
X29051843Y-126097765D01*
X29153564Y-126250000D01*
X29051843Y-126402235D01*
X29002560Y-126650000D01*
X29002560Y-128350000D01*
X29051843Y-128597765D01*
X29192191Y-128807809D01*
X29402235Y-128948157D01*
X29650000Y-128997440D01*
X30454495Y-128997440D01*
X30357074Y-129037793D01*
X30037793Y-129357074D01*
X29865000Y-129774234D01*
X29865000Y-130225766D01*
X30037793Y-130642926D01*
X30357074Y-130962207D01*
X30454495Y-131002560D01*
X29650000Y-131002560D01*
X29402235Y-131051843D01*
X29192191Y-131192191D01*
X29051843Y-131402235D01*
X29002560Y-131650000D01*
X29002560Y-133350000D01*
X29051843Y-133597765D01*
X29153564Y-133750000D01*
X29051843Y-133902235D01*
X29002560Y-134150000D01*
X29002560Y-134215000D01*
X27129311Y-134215000D01*
X27051999Y-134199622D01*
X26974687Y-134215000D01*
X26974684Y-134215000D01*
X26768246Y-134256063D01*
X26745708Y-134260546D01*
X26551591Y-134390251D01*
X26551589Y-134390253D01*
X26486047Y-134434047D01*
X26442253Y-134499589D01*
X23013843Y-137928000D01*
X20608871Y-137928000D01*
X20551765Y-137889843D01*
X20304000Y-137840560D01*
X19804000Y-137840560D01*
X19556235Y-137889843D01*
X19346191Y-138030191D01*
X19304000Y-138093334D01*
X19261809Y-138030191D01*
X19051765Y-137889843D01*
X18804000Y-137840560D01*
X18304000Y-137840560D01*
X18056235Y-137889843D01*
X18017089Y-137916000D01*
X17801908Y-137916000D01*
X17849000Y-137802309D01*
X17849000Y-137709750D01*
X17690250Y-137551000D01*
X16891000Y-137551000D01*
X16891000Y-137573000D01*
X16637000Y-137573000D01*
X16637000Y-137551000D01*
X15837750Y-137551000D01*
X15679000Y-137709750D01*
X15679000Y-137802309D01*
X15740436Y-137950628D01*
X15619918Y-137974601D01*
X15285831Y-138197831D01*
X15252309Y-138248000D01*
X14166541Y-138248000D01*
X14104000Y-138235560D01*
X13304000Y-138235560D01*
X13056235Y-138284843D01*
X12954000Y-138353155D01*
X12851765Y-138284843D01*
X12604000Y-138235560D01*
X11804000Y-138235560D01*
X11741459Y-138248000D01*
X10717396Y-138248000D01*
X10442862Y-137973466D01*
X10423946Y-137965631D01*
X10736673Y-137756673D01*
X10755832Y-137728000D01*
X11741459Y-137728000D01*
X11804000Y-137740440D01*
X12604000Y-137740440D01*
X12851765Y-137691157D01*
X12943102Y-137630127D01*
X12944302Y-137631327D01*
X13177691Y-137728000D01*
X13418250Y-137728000D01*
X13577000Y-137569250D01*
X13577000Y-136845000D01*
X13831000Y-136845000D01*
X13831000Y-137569250D01*
X13989750Y-137728000D01*
X14230309Y-137728000D01*
X14463698Y-137631327D01*
X14642327Y-137452699D01*
X14739000Y-137219310D01*
X14739000Y-137049691D01*
X15679000Y-137049691D01*
X15679000Y-137142250D01*
X15837750Y-137301000D01*
X16637000Y-137301000D01*
X16637000Y-136699750D01*
X16891000Y-136699750D01*
X16891000Y-137301000D01*
X17690250Y-137301000D01*
X17849000Y-137142250D01*
X17849000Y-137049691D01*
X17752327Y-136816302D01*
X17573699Y-136637673D01*
X17340310Y-136541000D01*
X17049750Y-136541000D01*
X16891000Y-136699750D01*
X16637000Y-136699750D01*
X16478250Y-136541000D01*
X16187690Y-136541000D01*
X15954301Y-136637673D01*
X15775673Y-136816302D01*
X15679000Y-137049691D01*
X14739000Y-137049691D01*
X14739000Y-137003750D01*
X14580250Y-136845000D01*
X13831000Y-136845000D01*
X13577000Y-136845000D01*
X13557000Y-136845000D01*
X13557000Y-136591000D01*
X13577000Y-136591000D01*
X13577000Y-135866750D01*
X13831000Y-135866750D01*
X13831000Y-136591000D01*
X14580250Y-136591000D01*
X14739000Y-136432250D01*
X14739000Y-136216690D01*
X14642327Y-135983301D01*
X14463698Y-135804673D01*
X14230309Y-135708000D01*
X13989750Y-135708000D01*
X13831000Y-135866750D01*
X13577000Y-135866750D01*
X13418250Y-135708000D01*
X13177691Y-135708000D01*
X12944302Y-135804673D01*
X12943102Y-135805873D01*
X12851765Y-135744843D01*
X12604000Y-135695560D01*
X11804000Y-135695560D01*
X11741459Y-135708000D01*
X10846704Y-135708000D01*
X10736673Y-135543327D01*
X10423946Y-135334369D01*
X10442862Y-135326534D01*
X10846534Y-134922862D01*
X11065000Y-134395439D01*
X11065000Y-134157355D01*
X22032356Y-123190000D01*
X27766339Y-123190000D01*
X28227201Y-123650862D01*
X28227201Y-123650862D01*
G37*
X28227201Y-123650862D02*
X28864887Y-123915000D01*
X29049304Y-123915000D01*
X29002560Y-124150000D01*
X29002560Y-125850000D01*
X29051843Y-126097765D01*
X29153564Y-126250000D01*
X29051843Y-126402235D01*
X29002560Y-126650000D01*
X29002560Y-128350000D01*
X29051843Y-128597765D01*
X29192191Y-128807809D01*
X29402235Y-128948157D01*
X29650000Y-128997440D01*
X30454495Y-128997440D01*
X30357074Y-129037793D01*
X30037793Y-129357074D01*
X29865000Y-129774234D01*
X29865000Y-130225766D01*
X30037793Y-130642926D01*
X30357074Y-130962207D01*
X30454495Y-131002560D01*
X29650000Y-131002560D01*
X29402235Y-131051843D01*
X29192191Y-131192191D01*
X29051843Y-131402235D01*
X29002560Y-131650000D01*
X29002560Y-133350000D01*
X29051843Y-133597765D01*
X29153564Y-133750000D01*
X29051843Y-133902235D01*
X29002560Y-134150000D01*
X29002560Y-134215000D01*
X27129311Y-134215000D01*
X27051999Y-134199622D01*
X26974687Y-134215000D01*
X26974684Y-134215000D01*
X26768246Y-134256063D01*
X26745708Y-134260546D01*
X26551591Y-134390251D01*
X26551589Y-134390253D01*
X26486047Y-134434047D01*
X26442253Y-134499589D01*
X23013843Y-137928000D01*
X20608871Y-137928000D01*
X20551765Y-137889843D01*
X20304000Y-137840560D01*
X19804000Y-137840560D01*
X19556235Y-137889843D01*
X19346191Y-138030191D01*
X19304000Y-138093334D01*
X19261809Y-138030191D01*
X19051765Y-137889843D01*
X18804000Y-137840560D01*
X18304000Y-137840560D01*
X18056235Y-137889843D01*
X18017089Y-137916000D01*
X17801908Y-137916000D01*
X17849000Y-137802309D01*
X17849000Y-137709750D01*
X17690250Y-137551000D01*
X16891000Y-137551000D01*
X16891000Y-137573000D01*
X16637000Y-137573000D01*
X16637000Y-137551000D01*
X15837750Y-137551000D01*
X15679000Y-137709750D01*
X15679000Y-137802309D01*
X15740436Y-137950628D01*
X15619918Y-137974601D01*
X15285831Y-138197831D01*
X15252309Y-138248000D01*
X14166541Y-138248000D01*
X14104000Y-138235560D01*
X13304000Y-138235560D01*
X13056235Y-138284843D01*
X12954000Y-138353155D01*
X12851765Y-138284843D01*
X12604000Y-138235560D01*
X11804000Y-138235560D01*
X11741459Y-138248000D01*
X10717396Y-138248000D01*
X10442862Y-137973466D01*
X10423946Y-137965631D01*
X10736673Y-137756673D01*
X10755832Y-137728000D01*
X11741459Y-137728000D01*
X11804000Y-137740440D01*
X12604000Y-137740440D01*
X12851765Y-137691157D01*
X12943102Y-137630127D01*
X12944302Y-137631327D01*
X13177691Y-137728000D01*
X13418250Y-137728000D01*
X13577000Y-137569250D01*
X13577000Y-136845000D01*
X13831000Y-136845000D01*
X13831000Y-137569250D01*
X13989750Y-137728000D01*
X14230309Y-137728000D01*
X14463698Y-137631327D01*
X14642327Y-137452699D01*
X14739000Y-137219310D01*
X14739000Y-137049691D01*
X15679000Y-137049691D01*
X15679000Y-137142250D01*
X15837750Y-137301000D01*
X16637000Y-137301000D01*
X16637000Y-136699750D01*
X16891000Y-136699750D01*
X16891000Y-137301000D01*
X17690250Y-137301000D01*
X17849000Y-137142250D01*
X17849000Y-137049691D01*
X17752327Y-136816302D01*
X17573699Y-136637673D01*
X17340310Y-136541000D01*
X17049750Y-136541000D01*
X16891000Y-136699750D01*
X16637000Y-136699750D01*
X16478250Y-136541000D01*
X16187690Y-136541000D01*
X15954301Y-136637673D01*
X15775673Y-136816302D01*
X15679000Y-137049691D01*
X14739000Y-137049691D01*
X14739000Y-137003750D01*
X14580250Y-136845000D01*
X13831000Y-136845000D01*
X13577000Y-136845000D01*
X13557000Y-136845000D01*
X13557000Y-136591000D01*
X13577000Y-136591000D01*
X13577000Y-135866750D01*
X13831000Y-135866750D01*
X13831000Y-136591000D01*
X14580250Y-136591000D01*
X14739000Y-136432250D01*
X14739000Y-136216690D01*
X14642327Y-135983301D01*
X14463698Y-135804673D01*
X14230309Y-135708000D01*
X13989750Y-135708000D01*
X13831000Y-135866750D01*
X13577000Y-135866750D01*
X13418250Y-135708000D01*
X13177691Y-135708000D01*
X12944302Y-135804673D01*
X12943102Y-135805873D01*
X12851765Y-135744843D01*
X12604000Y-135695560D01*
X11804000Y-135695560D01*
X11741459Y-135708000D01*
X10846704Y-135708000D01*
X10736673Y-135543327D01*
X10423946Y-135334369D01*
X10442862Y-135326534D01*
X10846534Y-134922862D01*
X11065000Y-134395439D01*
X11065000Y-134157355D01*
X22032356Y-123190000D01*
X27766339Y-123190000D01*
X28227201Y-123650862D01*
G36*
X28465000Y-106635818D02*
X28465000Y-107151182D01*
X28465001Y-107151187D01*
X28465000Y-113194182D01*
X25780183Y-115879000D01*
X21959182Y-115879000D01*
X21808000Y-115848928D01*
X21656818Y-115879000D01*
X21209073Y-115968062D01*
X20701327Y-116307327D01*
X20615690Y-116435492D01*
X6133493Y-130917690D01*
X6005328Y-131003327D01*
X5919691Y-131131492D01*
X5919690Y-131131493D01*
X5666063Y-131511073D01*
X5560000Y-132044288D01*
X5560000Y-130645355D01*
X22545356Y-113660000D01*
X23326339Y-113660000D01*
X23787201Y-114120862D01*
X24424887Y-114385000D01*
X25115113Y-114385000D01*
X25752799Y-114120862D01*
X26240862Y-113632799D01*
X26505000Y-112995113D01*
X26505000Y-112304887D01*
X26240862Y-111667201D01*
X25752799Y-111179138D01*
X25115113Y-110915000D01*
X24424887Y-110915000D01*
X23787201Y-111179138D01*
X23326339Y-111640000D01*
X22226471Y-111640000D01*
X22127000Y-111620214D01*
X22027529Y-111640000D01*
X22027524Y-111640000D01*
X21732918Y-111698601D01*
X21732916Y-111698602D01*
X21732917Y-111698602D01*
X21483162Y-111865482D01*
X21483160Y-111865484D01*
X21398831Y-111921831D01*
X21342484Y-112006160D01*
X3906161Y-129442484D01*
X3833000Y-129491369D01*
X3833000Y-123581157D01*
X11040411Y-116373747D01*
X11105953Y-116329953D01*
X11149747Y-116264411D01*
X11149749Y-116264409D01*
X11279454Y-116070292D01*
X11325000Y-115841316D01*
X11325000Y-115841313D01*
X11340378Y-115764001D01*
X11325000Y-115686689D01*
X11325000Y-104053440D01*
X12040000Y-104053440D01*
X12287765Y-104004157D01*
X12497809Y-103863809D01*
X12638157Y-103653765D01*
X12687440Y-103406000D01*
X12687440Y-102891750D01*
X12805000Y-102891750D01*
X12805000Y-103532310D01*
X12901673Y-103765699D01*
X13080302Y-103944327D01*
X13313691Y-104041000D01*
X14654250Y-104041000D01*
X14813000Y-103882250D01*
X14813000Y-102733000D01*
X15067000Y-102733000D01*
X15067000Y-103882250D01*
X15225750Y-104041000D01*
X16566309Y-104041000D01*
X16799698Y-103944327D01*
X16978327Y-103765699D01*
X17075000Y-103532310D01*
X17075000Y-102891750D01*
X16916250Y-102733000D01*
X15067000Y-102733000D01*
X14813000Y-102733000D01*
X12963750Y-102733000D01*
X12805000Y-102891750D01*
X12687440Y-102891750D01*
X12687440Y-101806000D01*
X12662316Y-101679690D01*
X12805000Y-101679690D01*
X12805000Y-102320250D01*
X12963750Y-102479000D01*
X14813000Y-102479000D01*
X14813000Y-101329750D01*
X15067000Y-101329750D01*
X15067000Y-102479000D01*
X16916250Y-102479000D01*
X17075000Y-102320250D01*
X17075000Y-101679690D01*
X16978327Y-101446301D01*
X16799698Y-101267673D01*
X16566309Y-101171000D01*
X15225750Y-101171000D01*
X15067000Y-101329750D01*
X14813000Y-101329750D01*
X14654250Y-101171000D01*
X13313691Y-101171000D01*
X13080302Y-101267673D01*
X12901673Y-101446301D01*
X12805000Y-101679690D01*
X12662316Y-101679690D01*
X12638157Y-101558235D01*
X12497809Y-101348191D01*
X12287765Y-101207843D01*
X12040000Y-101158560D01*
X9040000Y-101158560D01*
X8792235Y-101207843D01*
X8582191Y-101348191D01*
X8441843Y-101558235D01*
X8392560Y-101806000D01*
X8392560Y-101897000D01*
X8391053Y-101897000D01*
X8315809Y-101784391D01*
X8105765Y-101644043D01*
X7858000Y-101594760D01*
X7358000Y-101594760D01*
X7110235Y-101644043D01*
X6900191Y-101784391D01*
X6858000Y-101847534D01*
X6815809Y-101784391D01*
X6605765Y-101644043D01*
X6358000Y-101594760D01*
X5858000Y-101594760D01*
X5610235Y-101644043D01*
X5568395Y-101672000D01*
X5535000Y-101672000D01*
X5535000Y-101635817D01*
X8635818Y-98535000D01*
X16848823Y-98535000D01*
X17000000Y-98565071D01*
X17151177Y-98535000D01*
X17151182Y-98535000D01*
X17598927Y-98445938D01*
X18106673Y-98106673D01*
X18192312Y-97978505D01*
X19000000Y-97170817D01*
X28465000Y-106635818D01*
X28465000Y-106635818D01*
G37*
X28465000Y-106635818D02*
X28465000Y-107151182D01*
X28465001Y-107151187D01*
X28465000Y-113194182D01*
X25780183Y-115879000D01*
X21959182Y-115879000D01*
X21808000Y-115848928D01*
X21656818Y-115879000D01*
X21209073Y-115968062D01*
X20701327Y-116307327D01*
X20615690Y-116435492D01*
X6133493Y-130917690D01*
X6005328Y-131003327D01*
X5919691Y-131131492D01*
X5919690Y-131131493D01*
X5666063Y-131511073D01*
X5560000Y-132044288D01*
X5560000Y-130645355D01*
X22545356Y-113660000D01*
X23326339Y-113660000D01*
X23787201Y-114120862D01*
X24424887Y-114385000D01*
X25115113Y-114385000D01*
X25752799Y-114120862D01*
X26240862Y-113632799D01*
X26505000Y-112995113D01*
X26505000Y-112304887D01*
X26240862Y-111667201D01*
X25752799Y-111179138D01*
X25115113Y-110915000D01*
X24424887Y-110915000D01*
X23787201Y-111179138D01*
X23326339Y-111640000D01*
X22226471Y-111640000D01*
X22127000Y-111620214D01*
X22027529Y-111640000D01*
X22027524Y-111640000D01*
X21732918Y-111698601D01*
X21732916Y-111698602D01*
X21732917Y-111698602D01*
X21483162Y-111865482D01*
X21483160Y-111865484D01*
X21398831Y-111921831D01*
X21342484Y-112006160D01*
X3906161Y-129442484D01*
X3833000Y-129491369D01*
X3833000Y-123581157D01*
X11040411Y-116373747D01*
X11105953Y-116329953D01*
X11149747Y-116264411D01*
X11149749Y-116264409D01*
X11279454Y-116070292D01*
X11325000Y-115841316D01*
X11325000Y-115841313D01*
X11340378Y-115764001D01*
X11325000Y-115686689D01*
X11325000Y-104053440D01*
X12040000Y-104053440D01*
X12287765Y-104004157D01*
X12497809Y-103863809D01*
X12638157Y-103653765D01*
X12687440Y-103406000D01*
X12687440Y-102891750D01*
X12805000Y-102891750D01*
X12805000Y-103532310D01*
X12901673Y-103765699D01*
X13080302Y-103944327D01*
X13313691Y-104041000D01*
X14654250Y-104041000D01*
X14813000Y-103882250D01*
X14813000Y-102733000D01*
X15067000Y-102733000D01*
X15067000Y-103882250D01*
X15225750Y-104041000D01*
X16566309Y-104041000D01*
X16799698Y-103944327D01*
X16978327Y-103765699D01*
X17075000Y-103532310D01*
X17075000Y-102891750D01*
X16916250Y-102733000D01*
X15067000Y-102733000D01*
X14813000Y-102733000D01*
X12963750Y-102733000D01*
X12805000Y-102891750D01*
X12687440Y-102891750D01*
X12687440Y-101806000D01*
X12662316Y-101679690D01*
X12805000Y-101679690D01*
X12805000Y-102320250D01*
X12963750Y-102479000D01*
X14813000Y-102479000D01*
X14813000Y-101329750D01*
X15067000Y-101329750D01*
X15067000Y-102479000D01*
X16916250Y-102479000D01*
X17075000Y-102320250D01*
X17075000Y-101679690D01*
X16978327Y-101446301D01*
X16799698Y-101267673D01*
X16566309Y-101171000D01*
X15225750Y-101171000D01*
X15067000Y-101329750D01*
X14813000Y-101329750D01*
X14654250Y-101171000D01*
X13313691Y-101171000D01*
X13080302Y-101267673D01*
X12901673Y-101446301D01*
X12805000Y-101679690D01*
X12662316Y-101679690D01*
X12638157Y-101558235D01*
X12497809Y-101348191D01*
X12287765Y-101207843D01*
X12040000Y-101158560D01*
X9040000Y-101158560D01*
X8792235Y-101207843D01*
X8582191Y-101348191D01*
X8441843Y-101558235D01*
X8392560Y-101806000D01*
X8392560Y-101897000D01*
X8391053Y-101897000D01*
X8315809Y-101784391D01*
X8105765Y-101644043D01*
X7858000Y-101594760D01*
X7358000Y-101594760D01*
X7110235Y-101644043D01*
X6900191Y-101784391D01*
X6858000Y-101847534D01*
X6815809Y-101784391D01*
X6605765Y-101644043D01*
X6358000Y-101594760D01*
X5858000Y-101594760D01*
X5610235Y-101644043D01*
X5568395Y-101672000D01*
X5535000Y-101672000D01*
X5535000Y-101635817D01*
X8635818Y-98535000D01*
X16848823Y-98535000D01*
X17000000Y-98565071D01*
X17151177Y-98535000D01*
X17151182Y-98535000D01*
X17598927Y-98445938D01*
X18106673Y-98106673D01*
X18192312Y-97978505D01*
X19000000Y-97170817D01*
X28465000Y-106635818D01*
G36*
X24581000Y-41193191D02*
X24581000Y-41483750D01*
X24739750Y-41642500D01*
X25489000Y-41642500D01*
X25489000Y-41622500D01*
X25743000Y-41622500D01*
X25743000Y-41642500D01*
X25763000Y-41642500D01*
X25763000Y-41896500D01*
X25743000Y-41896500D01*
X25743000Y-42695750D01*
X25828531Y-42781281D01*
X25708191Y-42861691D01*
X25567843Y-43071735D01*
X25518560Y-43319500D01*
X25518560Y-44219500D01*
X25567843Y-44467265D01*
X25708191Y-44677309D01*
X25832964Y-44760680D01*
X25627384Y-44966260D01*
X24558500Y-44966260D01*
X24310735Y-45015543D01*
X24100691Y-45155891D01*
X23960343Y-45365935D01*
X23911060Y-45613700D01*
X23911060Y-48113700D01*
X23960343Y-48361465D01*
X24100691Y-48571509D01*
X24310735Y-48711857D01*
X24558500Y-48761140D01*
X26358500Y-48761140D01*
X26606265Y-48711857D01*
X26816309Y-48571509D01*
X26956657Y-48361465D01*
X27005940Y-48113700D01*
X27005940Y-46444416D01*
X27050356Y-46400000D01*
X27063760Y-46400000D01*
X27063760Y-46657100D01*
X27113043Y-46904865D01*
X27171332Y-46992100D01*
X27113043Y-47079335D01*
X27063760Y-47327100D01*
X27063760Y-47927100D01*
X27113043Y-48174865D01*
X27171332Y-48262100D01*
X27113043Y-48349335D01*
X27063760Y-48597100D01*
X27063760Y-49157100D01*
X26817117Y-49157100D01*
X26816309Y-49155891D01*
X26606265Y-49015543D01*
X26358500Y-48966260D01*
X24558500Y-48966260D01*
X24310735Y-49015543D01*
X24100691Y-49155891D01*
X23960343Y-49365935D01*
X23911060Y-49613700D01*
X23911060Y-49853700D01*
X23322940Y-49853700D01*
X23322940Y-49613700D01*
X23273657Y-49365935D01*
X23133309Y-49155891D01*
X22923265Y-49015543D01*
X22675500Y-48966260D01*
X21656416Y-48966260D01*
X21438855Y-48748700D01*
X21489750Y-48748700D01*
X21648500Y-48589950D01*
X21648500Y-46990700D01*
X21902500Y-46990700D01*
X21902500Y-48589950D01*
X22061250Y-48748700D01*
X22801810Y-48748700D01*
X23035199Y-48652027D01*
X23213827Y-48473398D01*
X23310500Y-48240009D01*
X23310500Y-47149450D01*
X23151750Y-46990700D01*
X21902500Y-46990700D01*
X21648500Y-46990700D01*
X21628500Y-46990700D01*
X21628500Y-46736700D01*
X21648500Y-46736700D01*
X21648500Y-45137450D01*
X21902500Y-45137450D01*
X21902500Y-46736700D01*
X23151750Y-46736700D01*
X23310500Y-46577950D01*
X23310500Y-45487391D01*
X23213827Y-45254002D01*
X23035199Y-45075373D01*
X22801810Y-44978700D01*
X22061250Y-44978700D01*
X21902500Y-45137450D01*
X21648500Y-45137450D01*
X21489750Y-44978700D01*
X21088585Y-44978700D01*
X21057399Y-44821918D01*
X20834169Y-44487831D01*
X20749837Y-44431482D01*
X19625000Y-43306645D01*
X19625000Y-42654887D01*
X19376623Y-42055250D01*
X24581000Y-42055250D01*
X24581000Y-42345809D01*
X24677673Y-42579198D01*
X24856301Y-42757827D01*
X25089690Y-42854500D01*
X25330250Y-42854500D01*
X25489000Y-42695750D01*
X25489000Y-41896500D01*
X24739750Y-41896500D01*
X24581000Y-42055250D01*
X19376623Y-42055250D01*
X19360862Y-42017201D01*
X18872799Y-41529138D01*
X18235113Y-41265000D01*
X17544887Y-41265000D01*
X16907201Y-41529138D01*
X16419138Y-42017201D01*
X16155000Y-42654887D01*
X16155000Y-43345113D01*
X16419138Y-43982799D01*
X16907201Y-44470862D01*
X17544887Y-44735000D01*
X18196645Y-44735000D01*
X18380309Y-44918664D01*
X18274895Y-44875000D01*
X17505105Y-44875000D01*
X16793910Y-45169586D01*
X16249586Y-45713910D01*
X15955000Y-46425105D01*
X15955000Y-47194895D01*
X16249586Y-47906090D01*
X16793910Y-48450414D01*
X16880000Y-48486074D01*
X16880000Y-48747952D01*
X16880001Y-48747957D01*
X16880000Y-52275729D01*
X16860214Y-52375200D01*
X16880000Y-52474671D01*
X16880000Y-52474675D01*
X16938601Y-52769281D01*
X16995563Y-52854531D01*
X17098217Y-53008163D01*
X17161831Y-53103369D01*
X17246163Y-53159718D01*
X19340982Y-55254537D01*
X19397331Y-55338869D01*
X19731418Y-55562099D01*
X20026024Y-55620700D01*
X20026028Y-55620700D01*
X20125499Y-55640486D01*
X20224970Y-55620700D01*
X20228060Y-55620700D01*
X20228060Y-55860700D01*
X20277343Y-56108465D01*
X20417691Y-56318509D01*
X20627735Y-56458857D01*
X20875500Y-56508140D01*
X22675500Y-56508140D01*
X22923265Y-56458857D01*
X23133309Y-56318509D01*
X23273657Y-56108465D01*
X23322940Y-55860700D01*
X23322940Y-55620700D01*
X23911060Y-55620700D01*
X23911060Y-55860700D01*
X23960343Y-56108465D01*
X24100691Y-56318509D01*
X24310735Y-56458857D01*
X24558500Y-56508140D01*
X26358500Y-56508140D01*
X26606265Y-56458857D01*
X26816309Y-56318509D01*
X26857341Y-56257100D01*
X27063760Y-56257100D01*
X27063760Y-56817100D01*
X27113043Y-57064865D01*
X27171332Y-57152100D01*
X27113043Y-57239335D01*
X27063760Y-57487100D01*
X27063760Y-58087100D01*
X27113043Y-58334865D01*
X27253391Y-58544909D01*
X27463435Y-58685257D01*
X27711200Y-58734540D01*
X29261200Y-58734540D01*
X29508965Y-58685257D01*
X29719009Y-58544909D01*
X29859357Y-58334865D01*
X29908640Y-58087100D01*
X29908640Y-57487100D01*
X29859357Y-57239335D01*
X29801068Y-57152100D01*
X29859357Y-57064865D01*
X29908640Y-56817100D01*
X29908640Y-56217100D01*
X29859357Y-55969335D01*
X29801068Y-55882100D01*
X29859357Y-55794865D01*
X29908640Y-55547100D01*
X29908640Y-54947100D01*
X29859357Y-54699335D01*
X29801068Y-54612100D01*
X29859357Y-54524865D01*
X29908640Y-54277100D01*
X29908640Y-54059901D01*
X30013355Y-54216618D01*
X30076331Y-54310869D01*
X30160663Y-54367218D01*
X30798500Y-55005055D01*
X30798500Y-55122229D01*
X30778714Y-55221700D01*
X30798500Y-55321171D01*
X30798500Y-55321175D01*
X30798501Y-55321180D01*
X30798500Y-58298144D01*
X26911522Y-62185123D01*
X26768787Y-62126000D01*
X26468500Y-62126000D01*
X26468500Y-60486260D01*
X26606265Y-60458857D01*
X26816309Y-60318509D01*
X26956657Y-60108465D01*
X27005940Y-59860700D01*
X27005940Y-57360700D01*
X26956657Y-57112935D01*
X26816309Y-56902891D01*
X26606265Y-56762543D01*
X26358500Y-56713260D01*
X24558500Y-56713260D01*
X24310735Y-56762543D01*
X24100691Y-56902891D01*
X23960343Y-57112935D01*
X23911060Y-57360700D01*
X23911060Y-59860700D01*
X23960343Y-60108465D01*
X24100691Y-60318509D01*
X24310735Y-60458857D01*
X24448500Y-60486260D01*
X24448501Y-63156025D01*
X24428714Y-63255500D01*
X24463651Y-63431138D01*
X24329000Y-63756213D01*
X24329000Y-64565787D01*
X24638810Y-65313735D01*
X24829000Y-65503925D01*
X24829001Y-67018074D01*
X24638810Y-67208265D01*
X24329000Y-67956213D01*
X24329000Y-68765787D01*
X24638810Y-69513735D01*
X24829000Y-69703925D01*
X24829001Y-79152560D01*
X24800000Y-79152560D01*
X24552235Y-79201843D01*
X24342191Y-79342191D01*
X24201843Y-79552235D01*
X24152560Y-79800000D01*
X24152560Y-80676622D01*
X18021495Y-86807688D01*
X17893327Y-86893327D01*
X17554062Y-87401074D01*
X17465000Y-87848819D01*
X17465000Y-87848823D01*
X17434929Y-88000000D01*
X17465000Y-88151178D01*
X17465001Y-90848814D01*
X17465000Y-90848819D01*
X17465001Y-94364181D01*
X16364183Y-95465000D01*
X8151176Y-95465000D01*
X7999999Y-95434929D01*
X7848822Y-95465000D01*
X7848818Y-95465000D01*
X7401073Y-95554062D01*
X6893327Y-95893327D01*
X6807690Y-96021492D01*
X3021493Y-99807690D01*
X2893328Y-99893327D01*
X2554063Y-100401073D01*
X2465000Y-100848818D01*
X2465000Y-100848823D01*
X2434929Y-101000000D01*
X2465000Y-101151177D01*
X2465000Y-102974181D01*
X710000Y-104729181D01*
X710000Y-92127000D01*
X10000000Y-92127000D01*
X10048601Y-92117333D01*
X10089803Y-92089803D01*
X19089803Y-83089803D01*
X19117333Y-83048601D01*
X19127000Y-83000000D01*
X19127000Y-63000000D01*
X19117333Y-62951399D01*
X19091176Y-62911592D01*
X15197918Y-58896450D01*
X20240500Y-58896450D01*
X20240500Y-59987009D01*
X20337173Y-60220398D01*
X20515801Y-60399027D01*
X20749190Y-60495700D01*
X21489750Y-60495700D01*
X21648500Y-60336950D01*
X21648500Y-58737700D01*
X21902500Y-58737700D01*
X21902500Y-60336950D01*
X22061250Y-60495700D01*
X22801810Y-60495700D01*
X23035199Y-60399027D01*
X23213827Y-60220398D01*
X23310500Y-59987009D01*
X23310500Y-58896450D01*
X23151750Y-58737700D01*
X21902500Y-58737700D01*
X21648500Y-58737700D01*
X20399250Y-58737700D01*
X20240500Y-58896450D01*
X15197918Y-58896450D01*
X13586313Y-57234391D01*
X20240500Y-57234391D01*
X20240500Y-58324950D01*
X20399250Y-58483700D01*
X21648500Y-58483700D01*
X21648500Y-56884450D01*
X21902500Y-56884450D01*
X21902500Y-58483700D01*
X23151750Y-58483700D01*
X23310500Y-58324950D01*
X23310500Y-57234391D01*
X23213827Y-57001002D01*
X23035199Y-56822373D01*
X22801810Y-56725700D01*
X22061250Y-56725700D01*
X21902500Y-56884450D01*
X21648500Y-56884450D01*
X21489750Y-56725700D01*
X20749190Y-56725700D01*
X20515801Y-56822373D01*
X20337173Y-57001002D01*
X20240500Y-57234391D01*
X13586313Y-57234391D01*
X9160850Y-52670383D01*
X9131800Y-42654887D01*
X11075000Y-42654887D01*
X11075000Y-43345113D01*
X11339138Y-43982799D01*
X11827201Y-44470862D01*
X12464887Y-44735000D01*
X13155113Y-44735000D01*
X13792799Y-44470862D01*
X14280862Y-43982799D01*
X14545000Y-43345113D01*
X14545000Y-42654887D01*
X14280862Y-42017201D01*
X13792799Y-41529138D01*
X13155113Y-41265000D01*
X12464887Y-41265000D01*
X11827201Y-41529138D01*
X11339138Y-42017201D01*
X11075000Y-42654887D01*
X9131800Y-42654887D01*
X9127939Y-41324000D01*
X10806153Y-41324000D01*
X10881000Y-41338888D01*
X10955847Y-41324000D01*
X10955852Y-41324000D01*
X11177537Y-41279904D01*
X11406374Y-41127000D01*
X24608417Y-41127000D01*
X24581000Y-41193191D01*
X24581000Y-41193191D01*
G37*
X24581000Y-41193191D02*
X24581000Y-41483750D01*
X24739750Y-41642500D01*
X25489000Y-41642500D01*
X25489000Y-41622500D01*
X25743000Y-41622500D01*
X25743000Y-41642500D01*
X25763000Y-41642500D01*
X25763000Y-41896500D01*
X25743000Y-41896500D01*
X25743000Y-42695750D01*
X25828531Y-42781281D01*
X25708191Y-42861691D01*
X25567843Y-43071735D01*
X25518560Y-43319500D01*
X25518560Y-44219500D01*
X25567843Y-44467265D01*
X25708191Y-44677309D01*
X25832964Y-44760680D01*
X25627384Y-44966260D01*
X24558500Y-44966260D01*
X24310735Y-45015543D01*
X24100691Y-45155891D01*
X23960343Y-45365935D01*
X23911060Y-45613700D01*
X23911060Y-48113700D01*
X23960343Y-48361465D01*
X24100691Y-48571509D01*
X24310735Y-48711857D01*
X24558500Y-48761140D01*
X26358500Y-48761140D01*
X26606265Y-48711857D01*
X26816309Y-48571509D01*
X26956657Y-48361465D01*
X27005940Y-48113700D01*
X27005940Y-46444416D01*
X27050356Y-46400000D01*
X27063760Y-46400000D01*
X27063760Y-46657100D01*
X27113043Y-46904865D01*
X27171332Y-46992100D01*
X27113043Y-47079335D01*
X27063760Y-47327100D01*
X27063760Y-47927100D01*
X27113043Y-48174865D01*
X27171332Y-48262100D01*
X27113043Y-48349335D01*
X27063760Y-48597100D01*
X27063760Y-49157100D01*
X26817117Y-49157100D01*
X26816309Y-49155891D01*
X26606265Y-49015543D01*
X26358500Y-48966260D01*
X24558500Y-48966260D01*
X24310735Y-49015543D01*
X24100691Y-49155891D01*
X23960343Y-49365935D01*
X23911060Y-49613700D01*
X23911060Y-49853700D01*
X23322940Y-49853700D01*
X23322940Y-49613700D01*
X23273657Y-49365935D01*
X23133309Y-49155891D01*
X22923265Y-49015543D01*
X22675500Y-48966260D01*
X21656416Y-48966260D01*
X21438855Y-48748700D01*
X21489750Y-48748700D01*
X21648500Y-48589950D01*
X21648500Y-46990700D01*
X21902500Y-46990700D01*
X21902500Y-48589950D01*
X22061250Y-48748700D01*
X22801810Y-48748700D01*
X23035199Y-48652027D01*
X23213827Y-48473398D01*
X23310500Y-48240009D01*
X23310500Y-47149450D01*
X23151750Y-46990700D01*
X21902500Y-46990700D01*
X21648500Y-46990700D01*
X21628500Y-46990700D01*
X21628500Y-46736700D01*
X21648500Y-46736700D01*
X21648500Y-45137450D01*
X21902500Y-45137450D01*
X21902500Y-46736700D01*
X23151750Y-46736700D01*
X23310500Y-46577950D01*
X23310500Y-45487391D01*
X23213827Y-45254002D01*
X23035199Y-45075373D01*
X22801810Y-44978700D01*
X22061250Y-44978700D01*
X21902500Y-45137450D01*
X21648500Y-45137450D01*
X21489750Y-44978700D01*
X21088585Y-44978700D01*
X21057399Y-44821918D01*
X20834169Y-44487831D01*
X20749837Y-44431482D01*
X19625000Y-43306645D01*
X19625000Y-42654887D01*
X19376623Y-42055250D01*
X24581000Y-42055250D01*
X24581000Y-42345809D01*
X24677673Y-42579198D01*
X24856301Y-42757827D01*
X25089690Y-42854500D01*
X25330250Y-42854500D01*
X25489000Y-42695750D01*
X25489000Y-41896500D01*
X24739750Y-41896500D01*
X24581000Y-42055250D01*
X19376623Y-42055250D01*
X19360862Y-42017201D01*
X18872799Y-41529138D01*
X18235113Y-41265000D01*
X17544887Y-41265000D01*
X16907201Y-41529138D01*
X16419138Y-42017201D01*
X16155000Y-42654887D01*
X16155000Y-43345113D01*
X16419138Y-43982799D01*
X16907201Y-44470862D01*
X17544887Y-44735000D01*
X18196645Y-44735000D01*
X18380309Y-44918664D01*
X18274895Y-44875000D01*
X17505105Y-44875000D01*
X16793910Y-45169586D01*
X16249586Y-45713910D01*
X15955000Y-46425105D01*
X15955000Y-47194895D01*
X16249586Y-47906090D01*
X16793910Y-48450414D01*
X16880000Y-48486074D01*
X16880000Y-48747952D01*
X16880001Y-48747957D01*
X16880000Y-52275729D01*
X16860214Y-52375200D01*
X16880000Y-52474671D01*
X16880000Y-52474675D01*
X16938601Y-52769281D01*
X16995563Y-52854531D01*
X17098217Y-53008163D01*
X17161831Y-53103369D01*
X17246163Y-53159718D01*
X19340982Y-55254537D01*
X19397331Y-55338869D01*
X19731418Y-55562099D01*
X20026024Y-55620700D01*
X20026028Y-55620700D01*
X20125499Y-55640486D01*
X20224970Y-55620700D01*
X20228060Y-55620700D01*
X20228060Y-55860700D01*
X20277343Y-56108465D01*
X20417691Y-56318509D01*
X20627735Y-56458857D01*
X20875500Y-56508140D01*
X22675500Y-56508140D01*
X22923265Y-56458857D01*
X23133309Y-56318509D01*
X23273657Y-56108465D01*
X23322940Y-55860700D01*
X23322940Y-55620700D01*
X23911060Y-55620700D01*
X23911060Y-55860700D01*
X23960343Y-56108465D01*
X24100691Y-56318509D01*
X24310735Y-56458857D01*
X24558500Y-56508140D01*
X26358500Y-56508140D01*
X26606265Y-56458857D01*
X26816309Y-56318509D01*
X26857341Y-56257100D01*
X27063760Y-56257100D01*
X27063760Y-56817100D01*
X27113043Y-57064865D01*
X27171332Y-57152100D01*
X27113043Y-57239335D01*
X27063760Y-57487100D01*
X27063760Y-58087100D01*
X27113043Y-58334865D01*
X27253391Y-58544909D01*
X27463435Y-58685257D01*
X27711200Y-58734540D01*
X29261200Y-58734540D01*
X29508965Y-58685257D01*
X29719009Y-58544909D01*
X29859357Y-58334865D01*
X29908640Y-58087100D01*
X29908640Y-57487100D01*
X29859357Y-57239335D01*
X29801068Y-57152100D01*
X29859357Y-57064865D01*
X29908640Y-56817100D01*
X29908640Y-56217100D01*
X29859357Y-55969335D01*
X29801068Y-55882100D01*
X29859357Y-55794865D01*
X29908640Y-55547100D01*
X29908640Y-54947100D01*
X29859357Y-54699335D01*
X29801068Y-54612100D01*
X29859357Y-54524865D01*
X29908640Y-54277100D01*
X29908640Y-54059901D01*
X30013355Y-54216618D01*
X30076331Y-54310869D01*
X30160663Y-54367218D01*
X30798500Y-55005055D01*
X30798500Y-55122229D01*
X30778714Y-55221700D01*
X30798500Y-55321171D01*
X30798500Y-55321175D01*
X30798501Y-55321180D01*
X30798500Y-58298144D01*
X26911522Y-62185123D01*
X26768787Y-62126000D01*
X26468500Y-62126000D01*
X26468500Y-60486260D01*
X26606265Y-60458857D01*
X26816309Y-60318509D01*
X26956657Y-60108465D01*
X27005940Y-59860700D01*
X27005940Y-57360700D01*
X26956657Y-57112935D01*
X26816309Y-56902891D01*
X26606265Y-56762543D01*
X26358500Y-56713260D01*
X24558500Y-56713260D01*
X24310735Y-56762543D01*
X24100691Y-56902891D01*
X23960343Y-57112935D01*
X23911060Y-57360700D01*
X23911060Y-59860700D01*
X23960343Y-60108465D01*
X24100691Y-60318509D01*
X24310735Y-60458857D01*
X24448500Y-60486260D01*
X24448501Y-63156025D01*
X24428714Y-63255500D01*
X24463651Y-63431138D01*
X24329000Y-63756213D01*
X24329000Y-64565787D01*
X24638810Y-65313735D01*
X24829000Y-65503925D01*
X24829001Y-67018074D01*
X24638810Y-67208265D01*
X24329000Y-67956213D01*
X24329000Y-68765787D01*
X24638810Y-69513735D01*
X24829000Y-69703925D01*
X24829001Y-79152560D01*
X24800000Y-79152560D01*
X24552235Y-79201843D01*
X24342191Y-79342191D01*
X24201843Y-79552235D01*
X24152560Y-79800000D01*
X24152560Y-80676622D01*
X18021495Y-86807688D01*
X17893327Y-86893327D01*
X17554062Y-87401074D01*
X17465000Y-87848819D01*
X17465000Y-87848823D01*
X17434929Y-88000000D01*
X17465000Y-88151178D01*
X17465001Y-90848814D01*
X17465000Y-90848819D01*
X17465001Y-94364181D01*
X16364183Y-95465000D01*
X8151176Y-95465000D01*
X7999999Y-95434929D01*
X7848822Y-95465000D01*
X7848818Y-95465000D01*
X7401073Y-95554062D01*
X6893327Y-95893327D01*
X6807690Y-96021492D01*
X3021493Y-99807690D01*
X2893328Y-99893327D01*
X2554063Y-100401073D01*
X2465000Y-100848818D01*
X2465000Y-100848823D01*
X2434929Y-101000000D01*
X2465000Y-101151177D01*
X2465000Y-102974181D01*
X710000Y-104729181D01*
X710000Y-92127000D01*
X10000000Y-92127000D01*
X10048601Y-92117333D01*
X10089803Y-92089803D01*
X19089803Y-83089803D01*
X19117333Y-83048601D01*
X19127000Y-83000000D01*
X19127000Y-63000000D01*
X19117333Y-62951399D01*
X19091176Y-62911592D01*
X15197918Y-58896450D01*
X20240500Y-58896450D01*
X20240500Y-59987009D01*
X20337173Y-60220398D01*
X20515801Y-60399027D01*
X20749190Y-60495700D01*
X21489750Y-60495700D01*
X21648500Y-60336950D01*
X21648500Y-58737700D01*
X21902500Y-58737700D01*
X21902500Y-60336950D01*
X22061250Y-60495700D01*
X22801810Y-60495700D01*
X23035199Y-60399027D01*
X23213827Y-60220398D01*
X23310500Y-59987009D01*
X23310500Y-58896450D01*
X23151750Y-58737700D01*
X21902500Y-58737700D01*
X21648500Y-58737700D01*
X20399250Y-58737700D01*
X20240500Y-58896450D01*
X15197918Y-58896450D01*
X13586313Y-57234391D01*
X20240500Y-57234391D01*
X20240500Y-58324950D01*
X20399250Y-58483700D01*
X21648500Y-58483700D01*
X21648500Y-56884450D01*
X21902500Y-56884450D01*
X21902500Y-58483700D01*
X23151750Y-58483700D01*
X23310500Y-58324950D01*
X23310500Y-57234391D01*
X23213827Y-57001002D01*
X23035199Y-56822373D01*
X22801810Y-56725700D01*
X22061250Y-56725700D01*
X21902500Y-56884450D01*
X21648500Y-56884450D01*
X21489750Y-56725700D01*
X20749190Y-56725700D01*
X20515801Y-56822373D01*
X20337173Y-57001002D01*
X20240500Y-57234391D01*
X13586313Y-57234391D01*
X9160850Y-52670383D01*
X9131800Y-42654887D01*
X11075000Y-42654887D01*
X11075000Y-43345113D01*
X11339138Y-43982799D01*
X11827201Y-44470862D01*
X12464887Y-44735000D01*
X13155113Y-44735000D01*
X13792799Y-44470862D01*
X14280862Y-43982799D01*
X14545000Y-43345113D01*
X14545000Y-42654887D01*
X14280862Y-42017201D01*
X13792799Y-41529138D01*
X13155113Y-41265000D01*
X12464887Y-41265000D01*
X11827201Y-41529138D01*
X11339138Y-42017201D01*
X11075000Y-42654887D01*
X9131800Y-42654887D01*
X9127939Y-41324000D01*
X10806153Y-41324000D01*
X10881000Y-41338888D01*
X10955847Y-41324000D01*
X10955852Y-41324000D01*
X11177537Y-41279904D01*
X11406374Y-41127000D01*
X24608417Y-41127000D01*
X24581000Y-41193191D01*
G36*
X32463760Y-49197100D02*
X32513043Y-49444865D01*
X32565968Y-49524072D01*
X32476200Y-49740790D01*
X32476200Y-49881350D01*
X32634950Y-50040100D01*
X33759200Y-50040100D01*
X33759200Y-50020100D01*
X34013200Y-50020100D01*
X34013200Y-50040100D01*
X34033200Y-50040100D01*
X34033200Y-50294100D01*
X34013200Y-50294100D01*
X34013200Y-50943350D01*
X34171950Y-51102100D01*
X34676212Y-51102100D01*
X34676212Y-53032646D01*
X34661200Y-53029660D01*
X33111200Y-53029660D01*
X33105413Y-53030811D01*
X33074625Y-53000024D01*
X33144957Y-52894765D01*
X33194240Y-52647000D01*
X33194240Y-51747000D01*
X33144957Y-51499235D01*
X33004609Y-51289191D01*
X32794565Y-51148843D01*
X32546800Y-51099560D01*
X32046800Y-51099560D01*
X31814500Y-51145767D01*
X31814500Y-50452850D01*
X32476200Y-50452850D01*
X32476200Y-50593410D01*
X32572873Y-50826799D01*
X32751502Y-51005427D01*
X32984891Y-51102100D01*
X33600450Y-51102100D01*
X33759200Y-50943350D01*
X33759200Y-50294100D01*
X32634950Y-50294100D01*
X32476200Y-50452850D01*
X31814500Y-50452850D01*
X31814500Y-48770055D01*
X31947456Y-48637100D01*
X32463760Y-48637100D01*
X32463760Y-49197100D01*
X32463760Y-49197100D01*
G37*
X32463760Y-49197100D02*
X32513043Y-49444865D01*
X32565968Y-49524072D01*
X32476200Y-49740790D01*
X32476200Y-49881350D01*
X32634950Y-50040100D01*
X33759200Y-50040100D01*
X33759200Y-50020100D01*
X34013200Y-50020100D01*
X34013200Y-50040100D01*
X34033200Y-50040100D01*
X34033200Y-50294100D01*
X34013200Y-50294100D01*
X34013200Y-50943350D01*
X34171950Y-51102100D01*
X34676212Y-51102100D01*
X34676212Y-53032646D01*
X34661200Y-53029660D01*
X33111200Y-53029660D01*
X33105413Y-53030811D01*
X33074625Y-53000024D01*
X33144957Y-52894765D01*
X33194240Y-52647000D01*
X33194240Y-51747000D01*
X33144957Y-51499235D01*
X33004609Y-51289191D01*
X32794565Y-51148843D01*
X32546800Y-51099560D01*
X32046800Y-51099560D01*
X31814500Y-51145767D01*
X31814500Y-50452850D01*
X32476200Y-50452850D01*
X32476200Y-50593410D01*
X32572873Y-50826799D01*
X32751502Y-51005427D01*
X32984891Y-51102100D01*
X33600450Y-51102100D01*
X33759200Y-50943350D01*
X33759200Y-50294100D01*
X32634950Y-50294100D01*
X32476200Y-50452850D01*
X31814500Y-50452850D01*
X31814500Y-48770055D01*
X31947456Y-48637100D01*
X32463760Y-48637100D01*
X32463760Y-49197100D01*
G36*
X29426000Y-41642500D02*
X29446000Y-41642500D01*
X29446000Y-41896500D01*
X29426000Y-41896500D01*
X29426000Y-42695750D01*
X29511531Y-42781281D01*
X29391191Y-42861691D01*
X29250843Y-43071735D01*
X29201560Y-43319500D01*
X29201560Y-43868000D01*
X28548802Y-43868000D01*
X27965831Y-43285029D01*
X27923429Y-43221571D01*
X27672037Y-43053596D01*
X27533643Y-43026068D01*
X27427316Y-42866940D01*
X27916000Y-42866940D01*
X28163765Y-42817657D01*
X28373809Y-42677309D01*
X28407845Y-42626371D01*
X28539301Y-42757827D01*
X28772690Y-42854500D01*
X29013250Y-42854500D01*
X29172000Y-42695750D01*
X29172000Y-41896500D01*
X29152000Y-41896500D01*
X29152000Y-41642500D01*
X29172000Y-41642500D01*
X29172000Y-41622500D01*
X29426000Y-41622500D01*
X29426000Y-41642500D01*
X29426000Y-41642500D01*
G37*
X29426000Y-41642500D02*
X29446000Y-41642500D01*
X29446000Y-41896500D01*
X29426000Y-41896500D01*
X29426000Y-42695750D01*
X29511531Y-42781281D01*
X29391191Y-42861691D01*
X29250843Y-43071735D01*
X29201560Y-43319500D01*
X29201560Y-43868000D01*
X28548802Y-43868000D01*
X27965831Y-43285029D01*
X27923429Y-43221571D01*
X27672037Y-43053596D01*
X27533643Y-43026068D01*
X27427316Y-42866940D01*
X27916000Y-42866940D01*
X28163765Y-42817657D01*
X28373809Y-42677309D01*
X28407845Y-42626371D01*
X28539301Y-42757827D01*
X28772690Y-42854500D01*
X29013250Y-42854500D01*
X29172000Y-42695750D01*
X29172000Y-41896500D01*
X29152000Y-41896500D01*
X29152000Y-41642500D01*
X29172000Y-41642500D01*
X29172000Y-41622500D01*
X29426000Y-41622500D01*
X29426000Y-41642500D01*
M02*
