G04 #@! TF.GenerationSoftware,KiCad,Pcbnew,(5.0.0-rc2-dev-586-g888c43477)*
G04 #@! TF.CreationDate,2018-07-20T11:48:50+02:00*
G04 #@! TF.ProjectId,2x2pisakUS,327832706973616B55532E6B69636164,rev?*
G04 #@! TF.SameCoordinates,Original*
G04 #@! TF.FileFunction,Copper,L1,Top,Signal*
G04 #@! TF.FilePolarity,Positive*
%FSLAX46Y46*%
G04 Gerber Fmt 4.6, Leading zero omitted, Abs format (unit mm)*
G04 Created by KiCad (PCBNEW (5.0.0-rc2-dev-586-g888c43477)) date 07/20/18 11:48:50*
%MOMM*%
%LPD*%
G01*
G04 APERTURE LIST*
%ADD10C,0.200000*%
%ADD11C,0.150000*%
%ADD12R,2.000000X2.000000*%
%ADD13R,1.400000X3.700000*%
%ADD14R,0.800000X0.800000*%
%ADD15R,0.900000X0.500000*%
%ADD16R,2.000000X2.600000*%
%ADD17R,2.550000X2.000000*%
%ADD18R,2.500000X2.000000*%
%ADD19C,0.250000*%
G04 APERTURE END LIST*
D10*
X57192000Y-92319000D02*
X69892000Y-92319000D01*
X12192000Y-92319000D02*
X24892000Y-92319000D01*
X57192000Y-32319000D02*
X69892000Y-32319000D01*
X71192000Y-110988000D02*
X83892000Y-110988000D01*
X26192000Y-110988000D02*
X38892000Y-110988000D01*
X71192000Y-50988000D02*
X83892000Y-50988000D01*
D11*
X57192000Y-92319000D02*
X57192000Y-110988000D01*
X12192000Y-92319000D02*
X12192000Y-110988000D01*
X57192000Y-32319000D02*
X57192000Y-50988000D01*
X83892000Y-90988000D02*
X83892000Y-72319000D01*
X38892000Y-90988000D02*
X38892000Y-72319000D01*
X83892000Y-30988000D02*
X83892000Y-12319000D01*
X83892000Y-110988000D02*
X83892000Y-92319000D01*
X38892000Y-110988000D02*
X38892000Y-92319000D01*
X83892000Y-50988000D02*
X83892000Y-32319000D01*
X71192000Y-92319000D02*
X71192000Y-110988000D01*
X26192000Y-92319000D02*
X26192000Y-110988000D01*
X71192000Y-32319000D02*
X71192000Y-50988000D01*
D10*
X71192000Y-90988000D02*
X83892000Y-90988000D01*
X26192000Y-90988000D02*
X38892000Y-90988000D01*
X71192000Y-30988000D02*
X83892000Y-30988000D01*
X71192000Y-72319000D02*
X83892000Y-72319000D01*
X26192000Y-72319000D02*
X38892000Y-72319000D01*
X71192000Y-12319000D02*
X83892000Y-12319000D01*
D11*
X71192000Y-72319000D02*
X71192000Y-90988000D01*
X26192000Y-72319000D02*
X26192000Y-90988000D01*
X71192000Y-12319000D02*
X71192000Y-30988000D01*
D10*
X71192000Y-92319000D02*
X83892000Y-92319000D01*
X26192000Y-92319000D02*
X38892000Y-92319000D01*
X71192000Y-32319000D02*
X83892000Y-32319000D01*
X57192000Y-110988000D02*
X69892000Y-110988000D01*
X12192000Y-110988000D02*
X24892000Y-110988000D01*
X57192000Y-50988000D02*
X69892000Y-50988000D01*
D11*
X69892000Y-110988000D02*
X69892000Y-92319000D01*
X24892000Y-110988000D02*
X24892000Y-92319000D01*
X69892000Y-50988000D02*
X69892000Y-32319000D01*
D10*
X57192000Y-72319000D02*
X69892000Y-72319000D01*
X12192000Y-72319000D02*
X24892000Y-72319000D01*
X57192000Y-12319000D02*
X69892000Y-12319000D01*
X57192000Y-90988000D02*
X69892000Y-90988000D01*
X12192000Y-90988000D02*
X24892000Y-90988000D01*
X57192000Y-30988000D02*
X69892000Y-30988000D01*
D11*
X57192000Y-72319000D02*
X57192000Y-90988000D01*
X12192000Y-72319000D02*
X12192000Y-90988000D01*
X57192000Y-12319000D02*
X57192000Y-30988000D01*
X69892000Y-90988000D02*
X69892000Y-72319000D01*
X24892000Y-90988000D02*
X24892000Y-72319000D01*
X69892000Y-30988000D02*
X69892000Y-12319000D01*
D10*
X26192000Y-32319000D02*
X38892000Y-32319000D01*
X12192000Y-32319000D02*
X24892000Y-32319000D01*
X26192000Y-12319000D02*
X38892000Y-12319000D01*
X26192000Y-50988000D02*
X38892000Y-50988000D01*
X12192000Y-50988000D02*
X24892000Y-50988000D01*
X26192000Y-30988000D02*
X38892000Y-30988000D01*
D11*
X26192000Y-32319000D02*
X26192000Y-50988000D01*
X12192000Y-32319000D02*
X12192000Y-50988000D01*
X26192000Y-12319000D02*
X26192000Y-30988000D01*
X38892000Y-50988000D02*
X38892000Y-32319000D01*
X24892000Y-50988000D02*
X24892000Y-32319000D01*
X38892000Y-30988000D02*
X38892000Y-12319000D01*
X24892000Y-30988000D02*
X24892000Y-12319000D01*
X12192000Y-12319000D02*
X12192000Y-30988000D01*
D10*
X12192000Y-12319000D02*
X24892000Y-12319000D01*
X12192000Y-30988000D02*
X24892000Y-30988000D01*
D12*
X68495000Y-102352000D03*
X23495000Y-102352000D03*
X68495000Y-42352000D03*
D13*
X58462000Y-109138000D03*
X63542000Y-109138000D03*
X68622000Y-109138000D03*
X13462000Y-109138000D03*
X18542000Y-109138000D03*
X23622000Y-109138000D03*
X58462000Y-49138000D03*
X63542000Y-49138000D03*
X68622000Y-49138000D03*
D12*
X82495000Y-82352000D03*
X37495000Y-82352000D03*
X82495000Y-22352000D03*
D13*
X72462000Y-89138000D03*
X77542000Y-89138000D03*
X82622000Y-89138000D03*
X27462000Y-89138000D03*
X32542000Y-89138000D03*
X37622000Y-89138000D03*
X72462000Y-29138000D03*
X77542000Y-29138000D03*
X82622000Y-29138000D03*
D12*
X72589000Y-102352000D03*
X27589000Y-102352000D03*
X72589000Y-42352000D03*
X72589000Y-82352000D03*
X27589000Y-82352000D03*
X72589000Y-22352000D03*
D14*
X75002000Y-87902000D03*
X75002000Y-89502000D03*
X30002000Y-87902000D03*
X30002000Y-89502000D03*
X75002000Y-27902000D03*
X75002000Y-29502000D03*
D13*
X72462000Y-109138000D03*
X77542000Y-109138000D03*
X82622000Y-109138000D03*
X27462000Y-109138000D03*
X32542000Y-109138000D03*
X37622000Y-109138000D03*
X72462000Y-49138000D03*
X77542000Y-49138000D03*
X82622000Y-49138000D03*
D12*
X82495000Y-102352000D03*
X37495000Y-102352000D03*
X82495000Y-42352000D03*
X58589000Y-102352000D03*
X13589000Y-102352000D03*
X58589000Y-42352000D03*
D15*
X68114000Y-79292000D03*
X68114000Y-77792000D03*
X23114000Y-79292000D03*
X23114000Y-77792000D03*
X68114000Y-19292000D03*
X68114000Y-17792000D03*
D16*
X63542000Y-85106000D03*
D17*
X67567000Y-75606000D03*
X59517000Y-75606000D03*
D18*
X60042000Y-85106000D03*
X67042000Y-85106000D03*
D16*
X18542000Y-85106000D03*
D17*
X22567000Y-75606000D03*
X14517000Y-75606000D03*
D18*
X15042000Y-85106000D03*
X22042000Y-85106000D03*
D16*
X63542000Y-25106000D03*
D17*
X67567000Y-15606000D03*
X59517000Y-15606000D03*
D18*
X60042000Y-25106000D03*
X67042000Y-25106000D03*
D15*
X58970000Y-79292000D03*
X58970000Y-77792000D03*
X13970000Y-79292000D03*
X13970000Y-77792000D03*
X58970000Y-19292000D03*
X58970000Y-17792000D03*
D14*
X61002000Y-89502000D03*
X61002000Y-87902000D03*
X16002000Y-89502000D03*
X16002000Y-87902000D03*
X61002000Y-29502000D03*
X61002000Y-27902000D03*
D13*
X68622000Y-89138000D03*
X63542000Y-89138000D03*
X58462000Y-89138000D03*
X23622000Y-89138000D03*
X18542000Y-89138000D03*
X13462000Y-89138000D03*
X68622000Y-29138000D03*
X63542000Y-29138000D03*
X58462000Y-29138000D03*
D12*
X68495000Y-82352000D03*
X23495000Y-82352000D03*
X68495000Y-22352000D03*
X58589000Y-82352000D03*
X13589000Y-82352000D03*
X58589000Y-22352000D03*
D18*
X81042000Y-85106000D03*
X74042000Y-85106000D03*
D17*
X73517000Y-75606000D03*
X81567000Y-75606000D03*
D16*
X77542000Y-85106000D03*
D18*
X36042000Y-85106000D03*
X29042000Y-85106000D03*
D17*
X28517000Y-75606000D03*
X36567000Y-75606000D03*
D16*
X32542000Y-85106000D03*
D18*
X81042000Y-25106000D03*
X74042000Y-25106000D03*
D17*
X73517000Y-15606000D03*
X81567000Y-15606000D03*
D16*
X77542000Y-25106000D03*
D15*
X58970000Y-97792000D03*
X58970000Y-99292000D03*
X13970000Y-97792000D03*
X13970000Y-99292000D03*
X58970000Y-37792000D03*
X58970000Y-39292000D03*
X68114000Y-97792000D03*
X68114000Y-99292000D03*
X23114000Y-97792000D03*
X23114000Y-99292000D03*
X68114000Y-37792000D03*
X68114000Y-39292000D03*
X72970000Y-77792000D03*
X72970000Y-79292000D03*
X27970000Y-77792000D03*
X27970000Y-79292000D03*
X72970000Y-17792000D03*
X72970000Y-19292000D03*
D14*
X75002000Y-107902000D03*
X75002000Y-109502000D03*
X30002000Y-107902000D03*
X30002000Y-109502000D03*
X75002000Y-47902000D03*
X75002000Y-49502000D03*
X61002000Y-107902000D03*
X61002000Y-109502000D03*
X16002000Y-107902000D03*
X16002000Y-109502000D03*
X61002000Y-47902000D03*
X61002000Y-49502000D03*
D18*
X67042000Y-105106000D03*
X60042000Y-105106000D03*
D17*
X59517000Y-95606000D03*
X67567000Y-95606000D03*
D16*
X63542000Y-105106000D03*
D18*
X22042000Y-105106000D03*
X15042000Y-105106000D03*
D17*
X14517000Y-95606000D03*
X22567000Y-95606000D03*
D16*
X18542000Y-105106000D03*
D18*
X67042000Y-45106000D03*
X60042000Y-45106000D03*
D17*
X59517000Y-35606000D03*
X67567000Y-35606000D03*
D16*
X63542000Y-45106000D03*
D15*
X82114000Y-77792000D03*
X82114000Y-79292000D03*
X37114000Y-77792000D03*
X37114000Y-79292000D03*
X82114000Y-17792000D03*
X82114000Y-19292000D03*
D18*
X81042000Y-105106000D03*
X74042000Y-105106000D03*
D17*
X73517000Y-95606000D03*
X81567000Y-95606000D03*
D16*
X77542000Y-105106000D03*
D18*
X36042000Y-105106000D03*
X29042000Y-105106000D03*
D17*
X28517000Y-95606000D03*
X36567000Y-95606000D03*
D16*
X32542000Y-105106000D03*
D18*
X81042000Y-45106000D03*
X74042000Y-45106000D03*
D17*
X73517000Y-35606000D03*
X81567000Y-35606000D03*
D16*
X77542000Y-45106000D03*
D15*
X82114000Y-97792000D03*
X82114000Y-99292000D03*
X37114000Y-97792000D03*
X37114000Y-99292000D03*
X82114000Y-37792000D03*
X82114000Y-39292000D03*
X72970000Y-97792000D03*
X72970000Y-99292000D03*
X27970000Y-97792000D03*
X27970000Y-99292000D03*
X72970000Y-37792000D03*
X72970000Y-39292000D03*
X37114000Y-39292000D03*
X37114000Y-37792000D03*
X23114000Y-39292000D03*
X23114000Y-37792000D03*
X37114000Y-19292000D03*
X37114000Y-17792000D03*
D16*
X32542000Y-45106000D03*
D17*
X36567000Y-35606000D03*
X28517000Y-35606000D03*
D18*
X29042000Y-45106000D03*
X36042000Y-45106000D03*
D16*
X18542000Y-45106000D03*
D17*
X22567000Y-35606000D03*
X14517000Y-35606000D03*
D18*
X15042000Y-45106000D03*
X22042000Y-45106000D03*
D16*
X32542000Y-25106000D03*
D17*
X36567000Y-15606000D03*
X28517000Y-15606000D03*
D18*
X29042000Y-25106000D03*
X36042000Y-25106000D03*
D15*
X27970000Y-39292000D03*
X27970000Y-37792000D03*
X13970000Y-39292000D03*
X13970000Y-37792000D03*
X27970000Y-19292000D03*
X27970000Y-17792000D03*
D14*
X30002000Y-49502000D03*
X30002000Y-47902000D03*
X16002000Y-49502000D03*
X16002000Y-47902000D03*
X30002000Y-29502000D03*
X30002000Y-27902000D03*
D13*
X37622000Y-49138000D03*
X32542000Y-49138000D03*
X27462000Y-49138000D03*
X23622000Y-49138000D03*
X18542000Y-49138000D03*
X13462000Y-49138000D03*
X37622000Y-29138000D03*
X32542000Y-29138000D03*
X27462000Y-29138000D03*
D12*
X37495000Y-42352000D03*
X23495000Y-42352000D03*
X37495000Y-22352000D03*
X27589000Y-42352000D03*
X13589000Y-42352000D03*
X27589000Y-22352000D03*
D15*
X23114000Y-17792000D03*
X23114000Y-19292000D03*
D13*
X13462000Y-29138000D03*
X18542000Y-29138000D03*
X23622000Y-29138000D03*
D14*
X16002000Y-27902000D03*
X16002000Y-29502000D03*
D18*
X22042000Y-25106000D03*
X15042000Y-25106000D03*
D17*
X14517000Y-15606000D03*
X22567000Y-15606000D03*
D16*
X18542000Y-25106000D03*
D15*
X13970000Y-17792000D03*
X13970000Y-19292000D03*
D12*
X23495000Y-22352000D03*
X13589000Y-22352000D03*
D19*
X16002000Y-29502000D02*
X13826000Y-29502000D01*
X13826000Y-29502000D02*
X13462000Y-29138000D01*
X18542000Y-29138000D02*
X18542000Y-27038000D01*
X18542000Y-27038000D02*
X18542000Y-25106000D01*
X22042000Y-25106000D02*
X22042000Y-22705000D01*
X22042000Y-22705000D02*
X22395000Y-22352000D01*
X22395000Y-22352000D02*
X23495000Y-22352000D01*
X16002000Y-27252000D02*
X16002000Y-27902000D01*
X16891000Y-26363000D02*
X16002000Y-27252000D01*
X16891000Y-20193000D02*
X16891000Y-26363000D01*
X23114000Y-19292000D02*
X17792000Y-19292000D01*
X17792000Y-19292000D02*
X16891000Y-20193000D01*
X30002000Y-27252000D02*
X30002000Y-27902000D01*
X16002000Y-47252000D02*
X16002000Y-47902000D01*
X30002000Y-47252000D02*
X30002000Y-47902000D01*
X30891000Y-26363000D02*
X30002000Y-27252000D01*
X16891000Y-46363000D02*
X16002000Y-47252000D01*
X30891000Y-46363000D02*
X30002000Y-47252000D01*
X30891000Y-20193000D02*
X30891000Y-26363000D01*
X16891000Y-40193000D02*
X16891000Y-46363000D01*
X30891000Y-40193000D02*
X30891000Y-46363000D01*
X31792000Y-19292000D02*
X30891000Y-20193000D01*
X17792000Y-39292000D02*
X16891000Y-40193000D01*
X31792000Y-39292000D02*
X30891000Y-40193000D01*
X37114000Y-19292000D02*
X31792000Y-19292000D01*
X23114000Y-39292000D02*
X17792000Y-39292000D01*
X37114000Y-39292000D02*
X31792000Y-39292000D01*
X75002000Y-27252000D02*
X75002000Y-27902000D01*
X30002000Y-87252000D02*
X30002000Y-87902000D01*
X75002000Y-87252000D02*
X75002000Y-87902000D01*
X61002000Y-27252000D02*
X61002000Y-27902000D01*
X16002000Y-87252000D02*
X16002000Y-87902000D01*
X61002000Y-87252000D02*
X61002000Y-87902000D01*
X61891000Y-26363000D02*
X61002000Y-27252000D01*
X16891000Y-86363000D02*
X16002000Y-87252000D01*
X61891000Y-86363000D02*
X61002000Y-87252000D01*
X61891000Y-20193000D02*
X61891000Y-26363000D01*
X16891000Y-80193000D02*
X16891000Y-86363000D01*
X61891000Y-80193000D02*
X61891000Y-86363000D01*
X62792000Y-19292000D02*
X61891000Y-20193000D01*
X17792000Y-79292000D02*
X16891000Y-80193000D01*
X62792000Y-79292000D02*
X61891000Y-80193000D01*
X68114000Y-19292000D02*
X62792000Y-19292000D01*
X23114000Y-79292000D02*
X17792000Y-79292000D01*
X68114000Y-79292000D02*
X62792000Y-79292000D01*
X75891000Y-26363000D02*
X75002000Y-27252000D01*
X30891000Y-86363000D02*
X30002000Y-87252000D01*
X75891000Y-86363000D02*
X75002000Y-87252000D01*
X75891000Y-46363000D02*
X75002000Y-47252000D01*
X30891000Y-106363000D02*
X30002000Y-107252000D01*
X75891000Y-106363000D02*
X75002000Y-107252000D01*
X76792000Y-19292000D02*
X75891000Y-20193000D01*
X31792000Y-79292000D02*
X30891000Y-80193000D01*
X76792000Y-79292000D02*
X75891000Y-80193000D01*
X75891000Y-40193000D02*
X75891000Y-46363000D01*
X30891000Y-100193000D02*
X30891000Y-106363000D01*
X75891000Y-100193000D02*
X75891000Y-106363000D01*
X61891000Y-46363000D02*
X61002000Y-47252000D01*
X16891000Y-106363000D02*
X16002000Y-107252000D01*
X61891000Y-106363000D02*
X61002000Y-107252000D01*
X76792000Y-39292000D02*
X75891000Y-40193000D01*
X31792000Y-99292000D02*
X30891000Y-100193000D01*
X76792000Y-99292000D02*
X75891000Y-100193000D01*
X62792000Y-39292000D02*
X61891000Y-40193000D01*
X17792000Y-99292000D02*
X16891000Y-100193000D01*
X62792000Y-99292000D02*
X61891000Y-100193000D01*
X75002000Y-47252000D02*
X75002000Y-47902000D01*
X30002000Y-107252000D02*
X30002000Y-107902000D01*
X75002000Y-107252000D02*
X75002000Y-107902000D01*
X61002000Y-47252000D02*
X61002000Y-47902000D01*
X16002000Y-107252000D02*
X16002000Y-107902000D01*
X61002000Y-107252000D02*
X61002000Y-107902000D01*
X61891000Y-40193000D02*
X61891000Y-46363000D01*
X16891000Y-100193000D02*
X16891000Y-106363000D01*
X61891000Y-100193000D02*
X61891000Y-106363000D01*
X75891000Y-20193000D02*
X75891000Y-26363000D01*
X30891000Y-80193000D02*
X30891000Y-86363000D01*
X75891000Y-80193000D02*
X75891000Y-86363000D01*
X82114000Y-39292000D02*
X76792000Y-39292000D01*
X37114000Y-99292000D02*
X31792000Y-99292000D01*
X82114000Y-99292000D02*
X76792000Y-99292000D01*
X82114000Y-19292000D02*
X76792000Y-19292000D01*
X37114000Y-79292000D02*
X31792000Y-79292000D01*
X82114000Y-79292000D02*
X76792000Y-79292000D01*
X68114000Y-39292000D02*
X62792000Y-39292000D01*
X23114000Y-99292000D02*
X17792000Y-99292000D01*
X68114000Y-99292000D02*
X62792000Y-99292000D01*
X30002000Y-29502000D02*
X27826000Y-29502000D01*
X16002000Y-49502000D02*
X13826000Y-49502000D01*
X30002000Y-49502000D02*
X27826000Y-49502000D01*
X27826000Y-29502000D02*
X27462000Y-29138000D01*
X13826000Y-49502000D02*
X13462000Y-49138000D01*
X27826000Y-49502000D02*
X27462000Y-49138000D01*
X72826000Y-49502000D02*
X72462000Y-49138000D01*
X27826000Y-109502000D02*
X27462000Y-109138000D01*
X72826000Y-109502000D02*
X72462000Y-109138000D01*
X61002000Y-29502000D02*
X58826000Y-29502000D01*
X16002000Y-89502000D02*
X13826000Y-89502000D01*
X61002000Y-89502000D02*
X58826000Y-89502000D01*
X58826000Y-29502000D02*
X58462000Y-29138000D01*
X13826000Y-89502000D02*
X13462000Y-89138000D01*
X58826000Y-89502000D02*
X58462000Y-89138000D01*
X61002000Y-49502000D02*
X58826000Y-49502000D01*
X16002000Y-109502000D02*
X13826000Y-109502000D01*
X61002000Y-109502000D02*
X58826000Y-109502000D01*
X75002000Y-49502000D02*
X72826000Y-49502000D01*
X30002000Y-109502000D02*
X27826000Y-109502000D01*
X75002000Y-109502000D02*
X72826000Y-109502000D01*
X75002000Y-29502000D02*
X72826000Y-29502000D01*
X30002000Y-89502000D02*
X27826000Y-89502000D01*
X75002000Y-89502000D02*
X72826000Y-89502000D01*
X58826000Y-49502000D02*
X58462000Y-49138000D01*
X13826000Y-109502000D02*
X13462000Y-109138000D01*
X58826000Y-109502000D02*
X58462000Y-109138000D01*
X72826000Y-29502000D02*
X72462000Y-29138000D01*
X27826000Y-89502000D02*
X27462000Y-89138000D01*
X72826000Y-89502000D02*
X72462000Y-89138000D01*
X32542000Y-29138000D02*
X32542000Y-27038000D01*
X18542000Y-49138000D02*
X18542000Y-47038000D01*
X32542000Y-49138000D02*
X32542000Y-47038000D01*
X32542000Y-27038000D02*
X32542000Y-25106000D01*
X18542000Y-47038000D02*
X18542000Y-45106000D01*
X32542000Y-47038000D02*
X32542000Y-45106000D01*
X63542000Y-29138000D02*
X63542000Y-27038000D01*
X18542000Y-89138000D02*
X18542000Y-87038000D01*
X63542000Y-89138000D02*
X63542000Y-87038000D01*
X63542000Y-27038000D02*
X63542000Y-25106000D01*
X18542000Y-87038000D02*
X18542000Y-85106000D01*
X63542000Y-87038000D02*
X63542000Y-85106000D01*
X77542000Y-47038000D02*
X77542000Y-45106000D01*
X32542000Y-107038000D02*
X32542000Y-105106000D01*
X77542000Y-107038000D02*
X77542000Y-105106000D01*
X63542000Y-47038000D02*
X63542000Y-45106000D01*
X18542000Y-107038000D02*
X18542000Y-105106000D01*
X63542000Y-107038000D02*
X63542000Y-105106000D01*
X77542000Y-27038000D02*
X77542000Y-25106000D01*
X32542000Y-87038000D02*
X32542000Y-85106000D01*
X77542000Y-87038000D02*
X77542000Y-85106000D01*
X77542000Y-49138000D02*
X77542000Y-47038000D01*
X32542000Y-109138000D02*
X32542000Y-107038000D01*
X77542000Y-109138000D02*
X77542000Y-107038000D01*
X77542000Y-29138000D02*
X77542000Y-27038000D01*
X32542000Y-89138000D02*
X32542000Y-87038000D01*
X77542000Y-89138000D02*
X77542000Y-87038000D01*
X63542000Y-49138000D02*
X63542000Y-47038000D01*
X18542000Y-109138000D02*
X18542000Y-107038000D01*
X63542000Y-109138000D02*
X63542000Y-107038000D01*
X15228000Y-19292000D02*
X16002000Y-20066000D01*
X13970000Y-19292000D02*
X15228000Y-19292000D01*
X16002000Y-20066000D02*
X16002000Y-24146000D01*
X16002000Y-24146000D02*
X15042000Y-25106000D01*
X29228000Y-19292000D02*
X30002000Y-20066000D01*
X15228000Y-39292000D02*
X16002000Y-40066000D01*
X29228000Y-39292000D02*
X30002000Y-40066000D01*
X27970000Y-19292000D02*
X29228000Y-19292000D01*
X13970000Y-39292000D02*
X15228000Y-39292000D01*
X27970000Y-39292000D02*
X29228000Y-39292000D01*
X30002000Y-20066000D02*
X30002000Y-24146000D01*
X16002000Y-40066000D02*
X16002000Y-44146000D01*
X30002000Y-40066000D02*
X30002000Y-44146000D01*
X30002000Y-24146000D02*
X29042000Y-25106000D01*
X16002000Y-44146000D02*
X15042000Y-45106000D01*
X30002000Y-44146000D02*
X29042000Y-45106000D01*
X60228000Y-19292000D02*
X61002000Y-20066000D01*
X15228000Y-79292000D02*
X16002000Y-80066000D01*
X60228000Y-79292000D02*
X61002000Y-80066000D01*
X58970000Y-19292000D02*
X60228000Y-19292000D01*
X13970000Y-79292000D02*
X15228000Y-79292000D01*
X58970000Y-79292000D02*
X60228000Y-79292000D01*
X61002000Y-20066000D02*
X61002000Y-24146000D01*
X16002000Y-80066000D02*
X16002000Y-84146000D01*
X61002000Y-80066000D02*
X61002000Y-84146000D01*
X61002000Y-24146000D02*
X60042000Y-25106000D01*
X16002000Y-84146000D02*
X15042000Y-85106000D01*
X61002000Y-84146000D02*
X60042000Y-85106000D01*
X58970000Y-39292000D02*
X60228000Y-39292000D01*
X13970000Y-99292000D02*
X15228000Y-99292000D01*
X58970000Y-99292000D02*
X60228000Y-99292000D01*
X61002000Y-44146000D02*
X60042000Y-45106000D01*
X16002000Y-104146000D02*
X15042000Y-105106000D01*
X61002000Y-104146000D02*
X60042000Y-105106000D01*
X75002000Y-44146000D02*
X74042000Y-45106000D01*
X30002000Y-104146000D02*
X29042000Y-105106000D01*
X75002000Y-104146000D02*
X74042000Y-105106000D01*
X72970000Y-19292000D02*
X74228000Y-19292000D01*
X27970000Y-79292000D02*
X29228000Y-79292000D01*
X72970000Y-79292000D02*
X74228000Y-79292000D01*
X75002000Y-24146000D02*
X74042000Y-25106000D01*
X30002000Y-84146000D02*
X29042000Y-85106000D01*
X75002000Y-84146000D02*
X74042000Y-85106000D01*
X60228000Y-39292000D02*
X61002000Y-40066000D01*
X15228000Y-99292000D02*
X16002000Y-100066000D01*
X60228000Y-99292000D02*
X61002000Y-100066000D01*
X75002000Y-40066000D02*
X75002000Y-44146000D01*
X30002000Y-100066000D02*
X30002000Y-104146000D01*
X75002000Y-100066000D02*
X75002000Y-104146000D01*
X61002000Y-40066000D02*
X61002000Y-44146000D01*
X16002000Y-100066000D02*
X16002000Y-104146000D01*
X61002000Y-100066000D02*
X61002000Y-104146000D01*
X74228000Y-39292000D02*
X75002000Y-40066000D01*
X29228000Y-99292000D02*
X30002000Y-100066000D01*
X74228000Y-99292000D02*
X75002000Y-100066000D01*
X75002000Y-20066000D02*
X75002000Y-24146000D01*
X30002000Y-80066000D02*
X30002000Y-84146000D01*
X75002000Y-80066000D02*
X75002000Y-84146000D01*
X74228000Y-19292000D02*
X75002000Y-20066000D01*
X29228000Y-79292000D02*
X30002000Y-80066000D01*
X74228000Y-79292000D02*
X75002000Y-80066000D01*
X72970000Y-39292000D02*
X74228000Y-39292000D01*
X27970000Y-99292000D02*
X29228000Y-99292000D01*
X72970000Y-99292000D02*
X74228000Y-99292000D01*
X13589000Y-21102000D02*
X13589000Y-22352000D01*
X12827000Y-20340000D02*
X13589000Y-21102000D01*
X14242000Y-15606000D02*
X14517000Y-15606000D01*
X12830000Y-17018000D02*
X14242000Y-15606000D01*
X12827000Y-17018000D02*
X12830000Y-17018000D01*
X12827000Y-17018000D02*
X12827000Y-20340000D01*
X16042000Y-15606000D02*
X22567000Y-15606000D01*
X14517000Y-15606000D02*
X16042000Y-15606000D01*
X22842000Y-15606000D02*
X22567000Y-15606000D01*
X24384000Y-17148000D02*
X22842000Y-15606000D01*
X24384000Y-19812000D02*
X24384000Y-17148000D01*
X23622000Y-29138000D02*
X22672000Y-29138000D01*
X20193000Y-26659000D02*
X20193000Y-20955000D01*
X20193000Y-20955000D02*
X20955000Y-20193000D01*
X22672000Y-29138000D02*
X20193000Y-26659000D01*
X20955000Y-20193000D02*
X24003000Y-20193000D01*
X24003000Y-20193000D02*
X24384000Y-19812000D01*
X27589000Y-21102000D02*
X27589000Y-22352000D01*
X13589000Y-41102000D02*
X13589000Y-42352000D01*
X27589000Y-41102000D02*
X27589000Y-42352000D01*
X34193000Y-20955000D02*
X34955000Y-20193000D01*
X20193000Y-40955000D02*
X20955000Y-40193000D01*
X34193000Y-40955000D02*
X34955000Y-40193000D01*
X28242000Y-15606000D02*
X28517000Y-15606000D01*
X14242000Y-35606000D02*
X14517000Y-35606000D01*
X28242000Y-35606000D02*
X28517000Y-35606000D01*
X30042000Y-15606000D02*
X36567000Y-15606000D01*
X16042000Y-35606000D02*
X22567000Y-35606000D01*
X30042000Y-35606000D02*
X36567000Y-35606000D01*
X26827000Y-17018000D02*
X26830000Y-17018000D01*
X12827000Y-37018000D02*
X12830000Y-37018000D01*
X26827000Y-37018000D02*
X26830000Y-37018000D01*
X36842000Y-15606000D02*
X36567000Y-15606000D01*
X22842000Y-35606000D02*
X22567000Y-35606000D01*
X36842000Y-35606000D02*
X36567000Y-35606000D01*
X26827000Y-20340000D02*
X27589000Y-21102000D01*
X12827000Y-40340000D02*
X13589000Y-41102000D01*
X26827000Y-40340000D02*
X27589000Y-41102000D01*
X26830000Y-17018000D02*
X28242000Y-15606000D01*
X12830000Y-37018000D02*
X14242000Y-35606000D01*
X26830000Y-37018000D02*
X28242000Y-35606000D01*
X38384000Y-17148000D02*
X36842000Y-15606000D01*
X24384000Y-37148000D02*
X22842000Y-35606000D01*
X38384000Y-37148000D02*
X36842000Y-35606000D01*
X26827000Y-17018000D02*
X26827000Y-20340000D01*
X12827000Y-37018000D02*
X12827000Y-40340000D01*
X26827000Y-37018000D02*
X26827000Y-40340000D01*
X38384000Y-19812000D02*
X38384000Y-17148000D01*
X24384000Y-39812000D02*
X24384000Y-37148000D01*
X38384000Y-39812000D02*
X38384000Y-37148000D01*
X28517000Y-15606000D02*
X30042000Y-15606000D01*
X14517000Y-35606000D02*
X16042000Y-35606000D01*
X28517000Y-35606000D02*
X30042000Y-35606000D01*
X37622000Y-29138000D02*
X36672000Y-29138000D01*
X23622000Y-49138000D02*
X22672000Y-49138000D01*
X37622000Y-49138000D02*
X36672000Y-49138000D01*
X34193000Y-26659000D02*
X34193000Y-20955000D01*
X20193000Y-46659000D02*
X20193000Y-40955000D01*
X34193000Y-46659000D02*
X34193000Y-40955000D01*
X38003000Y-20193000D02*
X38384000Y-19812000D01*
X24003000Y-40193000D02*
X24384000Y-39812000D01*
X38003000Y-40193000D02*
X38384000Y-39812000D01*
X34955000Y-20193000D02*
X38003000Y-20193000D01*
X20955000Y-40193000D02*
X24003000Y-40193000D01*
X34955000Y-40193000D02*
X38003000Y-40193000D01*
X36672000Y-29138000D02*
X34193000Y-26659000D01*
X22672000Y-49138000D02*
X20193000Y-46659000D01*
X36672000Y-49138000D02*
X34193000Y-46659000D01*
X58589000Y-21102000D02*
X58589000Y-22352000D01*
X13589000Y-81102000D02*
X13589000Y-82352000D01*
X58589000Y-81102000D02*
X58589000Y-82352000D01*
X65193000Y-20955000D02*
X65955000Y-20193000D01*
X20193000Y-80955000D02*
X20955000Y-80193000D01*
X65193000Y-80955000D02*
X65955000Y-80193000D01*
X59242000Y-15606000D02*
X59517000Y-15606000D01*
X14242000Y-75606000D02*
X14517000Y-75606000D01*
X59242000Y-75606000D02*
X59517000Y-75606000D01*
X61042000Y-15606000D02*
X67567000Y-15606000D01*
X16042000Y-75606000D02*
X22567000Y-75606000D01*
X61042000Y-75606000D02*
X67567000Y-75606000D01*
X57827000Y-17018000D02*
X57830000Y-17018000D01*
X12827000Y-77018000D02*
X12830000Y-77018000D01*
X57827000Y-77018000D02*
X57830000Y-77018000D01*
X67842000Y-15606000D02*
X67567000Y-15606000D01*
X22842000Y-75606000D02*
X22567000Y-75606000D01*
X67842000Y-75606000D02*
X67567000Y-75606000D01*
X57827000Y-20340000D02*
X58589000Y-21102000D01*
X12827000Y-80340000D02*
X13589000Y-81102000D01*
X57827000Y-80340000D02*
X58589000Y-81102000D01*
X57830000Y-17018000D02*
X59242000Y-15606000D01*
X12830000Y-77018000D02*
X14242000Y-75606000D01*
X57830000Y-77018000D02*
X59242000Y-75606000D01*
X69384000Y-17148000D02*
X67842000Y-15606000D01*
X24384000Y-77148000D02*
X22842000Y-75606000D01*
X69384000Y-77148000D02*
X67842000Y-75606000D01*
X57827000Y-17018000D02*
X57827000Y-20340000D01*
X12827000Y-77018000D02*
X12827000Y-80340000D01*
X57827000Y-77018000D02*
X57827000Y-80340000D01*
X69384000Y-19812000D02*
X69384000Y-17148000D01*
X24384000Y-79812000D02*
X24384000Y-77148000D01*
X69384000Y-79812000D02*
X69384000Y-77148000D01*
X59517000Y-15606000D02*
X61042000Y-15606000D01*
X14517000Y-75606000D02*
X16042000Y-75606000D01*
X59517000Y-75606000D02*
X61042000Y-75606000D01*
X68622000Y-29138000D02*
X67672000Y-29138000D01*
X23622000Y-89138000D02*
X22672000Y-89138000D01*
X68622000Y-89138000D02*
X67672000Y-89138000D01*
X65193000Y-26659000D02*
X65193000Y-20955000D01*
X20193000Y-86659000D02*
X20193000Y-80955000D01*
X65193000Y-86659000D02*
X65193000Y-80955000D01*
X69003000Y-20193000D02*
X69384000Y-19812000D01*
X24003000Y-80193000D02*
X24384000Y-79812000D01*
X69003000Y-80193000D02*
X69384000Y-79812000D01*
X65955000Y-20193000D02*
X69003000Y-20193000D01*
X20955000Y-80193000D02*
X24003000Y-80193000D01*
X65955000Y-80193000D02*
X69003000Y-80193000D01*
X67672000Y-29138000D02*
X65193000Y-26659000D01*
X22672000Y-89138000D02*
X20193000Y-86659000D01*
X67672000Y-89138000D02*
X65193000Y-86659000D01*
X79193000Y-40955000D02*
X79955000Y-40193000D01*
X34193000Y-100955000D02*
X34955000Y-100193000D01*
X79193000Y-100955000D02*
X79955000Y-100193000D01*
X72589000Y-41102000D02*
X72589000Y-42352000D01*
X27589000Y-101102000D02*
X27589000Y-102352000D01*
X72589000Y-101102000D02*
X72589000Y-102352000D01*
X72589000Y-21102000D02*
X72589000Y-22352000D01*
X27589000Y-81102000D02*
X27589000Y-82352000D01*
X72589000Y-81102000D02*
X72589000Y-82352000D01*
X58589000Y-41102000D02*
X58589000Y-42352000D01*
X13589000Y-101102000D02*
X13589000Y-102352000D01*
X58589000Y-101102000D02*
X58589000Y-102352000D01*
X71827000Y-37018000D02*
X71830000Y-37018000D01*
X26827000Y-97018000D02*
X26830000Y-97018000D01*
X71827000Y-97018000D02*
X71830000Y-97018000D01*
X67842000Y-35606000D02*
X67567000Y-35606000D01*
X22842000Y-95606000D02*
X22567000Y-95606000D01*
X67842000Y-95606000D02*
X67567000Y-95606000D01*
X65193000Y-40955000D02*
X65955000Y-40193000D01*
X20193000Y-100955000D02*
X20955000Y-100193000D01*
X65193000Y-100955000D02*
X65955000Y-100193000D01*
X79193000Y-20955000D02*
X79955000Y-20193000D01*
X34193000Y-80955000D02*
X34955000Y-80193000D01*
X79193000Y-80955000D02*
X79955000Y-80193000D01*
X71827000Y-17018000D02*
X71830000Y-17018000D01*
X26827000Y-77018000D02*
X26830000Y-77018000D01*
X71827000Y-77018000D02*
X71830000Y-77018000D01*
X81842000Y-35606000D02*
X81567000Y-35606000D01*
X36842000Y-95606000D02*
X36567000Y-95606000D01*
X81842000Y-95606000D02*
X81567000Y-95606000D01*
X71827000Y-20340000D02*
X72589000Y-21102000D01*
X26827000Y-80340000D02*
X27589000Y-81102000D01*
X71827000Y-80340000D02*
X72589000Y-81102000D01*
X57827000Y-40340000D02*
X58589000Y-41102000D01*
X12827000Y-100340000D02*
X13589000Y-101102000D01*
X57827000Y-100340000D02*
X58589000Y-101102000D01*
X75042000Y-15606000D02*
X81567000Y-15606000D01*
X30042000Y-75606000D02*
X36567000Y-75606000D01*
X75042000Y-75606000D02*
X81567000Y-75606000D01*
X61042000Y-35606000D02*
X67567000Y-35606000D01*
X16042000Y-95606000D02*
X22567000Y-95606000D01*
X61042000Y-95606000D02*
X67567000Y-95606000D01*
X73242000Y-15606000D02*
X73517000Y-15606000D01*
X28242000Y-75606000D02*
X28517000Y-75606000D01*
X73242000Y-75606000D02*
X73517000Y-75606000D01*
X57827000Y-37018000D02*
X57830000Y-37018000D01*
X12827000Y-97018000D02*
X12830000Y-97018000D01*
X57827000Y-97018000D02*
X57830000Y-97018000D01*
X73242000Y-35606000D02*
X73517000Y-35606000D01*
X28242000Y-95606000D02*
X28517000Y-95606000D01*
X73242000Y-95606000D02*
X73517000Y-95606000D01*
X71827000Y-40340000D02*
X72589000Y-41102000D01*
X26827000Y-100340000D02*
X27589000Y-101102000D01*
X71827000Y-100340000D02*
X72589000Y-101102000D01*
X59242000Y-35606000D02*
X59517000Y-35606000D01*
X14242000Y-95606000D02*
X14517000Y-95606000D01*
X59242000Y-95606000D02*
X59517000Y-95606000D01*
X71830000Y-17018000D02*
X73242000Y-15606000D01*
X26830000Y-77018000D02*
X28242000Y-75606000D01*
X71830000Y-77018000D02*
X73242000Y-75606000D01*
X81842000Y-15606000D02*
X81567000Y-15606000D01*
X36842000Y-75606000D02*
X36567000Y-75606000D01*
X81842000Y-75606000D02*
X81567000Y-75606000D01*
X57830000Y-37018000D02*
X59242000Y-35606000D01*
X12830000Y-97018000D02*
X14242000Y-95606000D01*
X57830000Y-97018000D02*
X59242000Y-95606000D01*
X75042000Y-35606000D02*
X81567000Y-35606000D01*
X30042000Y-95606000D02*
X36567000Y-95606000D01*
X75042000Y-95606000D02*
X81567000Y-95606000D01*
X71830000Y-37018000D02*
X73242000Y-35606000D01*
X26830000Y-97018000D02*
X28242000Y-95606000D01*
X71830000Y-97018000D02*
X73242000Y-95606000D01*
X71827000Y-17018000D02*
X71827000Y-20340000D01*
X26827000Y-77018000D02*
X26827000Y-80340000D01*
X71827000Y-77018000D02*
X71827000Y-80340000D01*
X71827000Y-37018000D02*
X71827000Y-40340000D01*
X26827000Y-97018000D02*
X26827000Y-100340000D01*
X71827000Y-97018000D02*
X71827000Y-100340000D01*
X83003000Y-20193000D02*
X83384000Y-19812000D01*
X38003000Y-80193000D02*
X38384000Y-79812000D01*
X83003000Y-80193000D02*
X83384000Y-79812000D01*
X65955000Y-40193000D02*
X69003000Y-40193000D01*
X20955000Y-100193000D02*
X24003000Y-100193000D01*
X65955000Y-100193000D02*
X69003000Y-100193000D01*
X69003000Y-40193000D02*
X69384000Y-39812000D01*
X24003000Y-100193000D02*
X24384000Y-99812000D01*
X69003000Y-100193000D02*
X69384000Y-99812000D01*
X79955000Y-40193000D02*
X83003000Y-40193000D01*
X34955000Y-100193000D02*
X38003000Y-100193000D01*
X79955000Y-100193000D02*
X83003000Y-100193000D01*
X83384000Y-37148000D02*
X81842000Y-35606000D01*
X38384000Y-97148000D02*
X36842000Y-95606000D01*
X83384000Y-97148000D02*
X81842000Y-95606000D01*
X79193000Y-46659000D02*
X79193000Y-40955000D01*
X34193000Y-106659000D02*
X34193000Y-100955000D01*
X79193000Y-106659000D02*
X79193000Y-100955000D01*
X81672000Y-49138000D02*
X79193000Y-46659000D01*
X36672000Y-109138000D02*
X34193000Y-106659000D01*
X81672000Y-109138000D02*
X79193000Y-106659000D01*
X83384000Y-17148000D02*
X81842000Y-15606000D01*
X38384000Y-77148000D02*
X36842000Y-75606000D01*
X83384000Y-77148000D02*
X81842000Y-75606000D01*
X69384000Y-37148000D02*
X67842000Y-35606000D01*
X24384000Y-97148000D02*
X22842000Y-95606000D01*
X69384000Y-97148000D02*
X67842000Y-95606000D01*
X69384000Y-39812000D02*
X69384000Y-37148000D01*
X24384000Y-99812000D02*
X24384000Y-97148000D01*
X69384000Y-99812000D02*
X69384000Y-97148000D01*
X83384000Y-39812000D02*
X83384000Y-37148000D01*
X38384000Y-99812000D02*
X38384000Y-97148000D01*
X83384000Y-99812000D02*
X83384000Y-97148000D01*
X82622000Y-29138000D02*
X81672000Y-29138000D01*
X37622000Y-89138000D02*
X36672000Y-89138000D01*
X82622000Y-89138000D02*
X81672000Y-89138000D01*
X79193000Y-26659000D02*
X79193000Y-20955000D01*
X34193000Y-86659000D02*
X34193000Y-80955000D01*
X79193000Y-86659000D02*
X79193000Y-80955000D01*
X65193000Y-46659000D02*
X65193000Y-40955000D01*
X20193000Y-106659000D02*
X20193000Y-100955000D01*
X65193000Y-106659000D02*
X65193000Y-100955000D01*
X83003000Y-40193000D02*
X83384000Y-39812000D01*
X38003000Y-100193000D02*
X38384000Y-99812000D01*
X83003000Y-100193000D02*
X83384000Y-99812000D01*
X81672000Y-29138000D02*
X79193000Y-26659000D01*
X36672000Y-89138000D02*
X34193000Y-86659000D01*
X81672000Y-89138000D02*
X79193000Y-86659000D01*
X73517000Y-35606000D02*
X75042000Y-35606000D01*
X28517000Y-95606000D02*
X30042000Y-95606000D01*
X73517000Y-95606000D02*
X75042000Y-95606000D01*
X73517000Y-15606000D02*
X75042000Y-15606000D01*
X28517000Y-75606000D02*
X30042000Y-75606000D01*
X73517000Y-75606000D02*
X75042000Y-75606000D01*
X67672000Y-49138000D02*
X65193000Y-46659000D01*
X22672000Y-109138000D02*
X20193000Y-106659000D01*
X67672000Y-109138000D02*
X65193000Y-106659000D01*
X82622000Y-49138000D02*
X81672000Y-49138000D01*
X37622000Y-109138000D02*
X36672000Y-109138000D01*
X82622000Y-109138000D02*
X81672000Y-109138000D01*
X68622000Y-49138000D02*
X67672000Y-49138000D01*
X23622000Y-109138000D02*
X22672000Y-109138000D01*
X68622000Y-109138000D02*
X67672000Y-109138000D01*
X79955000Y-20193000D02*
X83003000Y-20193000D01*
X34955000Y-80193000D02*
X38003000Y-80193000D01*
X79955000Y-80193000D02*
X83003000Y-80193000D01*
X57827000Y-37018000D02*
X57827000Y-40340000D01*
X12827000Y-97018000D02*
X12827000Y-100340000D01*
X57827000Y-97018000D02*
X57827000Y-100340000D01*
X59517000Y-35606000D02*
X61042000Y-35606000D01*
X14517000Y-95606000D02*
X16042000Y-95606000D01*
X59517000Y-95606000D02*
X61042000Y-95606000D01*
X83384000Y-19812000D02*
X83384000Y-17148000D01*
X38384000Y-79812000D02*
X38384000Y-77148000D01*
X83384000Y-79812000D02*
X83384000Y-77148000D01*
X36042000Y-22705000D02*
X36395000Y-22352000D01*
X22042000Y-42705000D02*
X22395000Y-42352000D01*
X36042000Y-42705000D02*
X36395000Y-42352000D01*
X36395000Y-22352000D02*
X37495000Y-22352000D01*
X22395000Y-42352000D02*
X23495000Y-42352000D01*
X36395000Y-42352000D02*
X37495000Y-42352000D01*
X36042000Y-25106000D02*
X36042000Y-22705000D01*
X22042000Y-45106000D02*
X22042000Y-42705000D01*
X36042000Y-45106000D02*
X36042000Y-42705000D01*
X67042000Y-22705000D02*
X67395000Y-22352000D01*
X22042000Y-82705000D02*
X22395000Y-82352000D01*
X67042000Y-82705000D02*
X67395000Y-82352000D01*
X67395000Y-22352000D02*
X68495000Y-22352000D01*
X22395000Y-82352000D02*
X23495000Y-82352000D01*
X67395000Y-82352000D02*
X68495000Y-82352000D01*
X67042000Y-25106000D02*
X67042000Y-22705000D01*
X22042000Y-85106000D02*
X22042000Y-82705000D01*
X67042000Y-85106000D02*
X67042000Y-82705000D01*
X81395000Y-22352000D02*
X82495000Y-22352000D01*
X36395000Y-82352000D02*
X37495000Y-82352000D01*
X81395000Y-82352000D02*
X82495000Y-82352000D01*
X81042000Y-22705000D02*
X81395000Y-22352000D01*
X36042000Y-82705000D02*
X36395000Y-82352000D01*
X81042000Y-82705000D02*
X81395000Y-82352000D01*
X67042000Y-42705000D02*
X67395000Y-42352000D01*
X22042000Y-102705000D02*
X22395000Y-102352000D01*
X67042000Y-102705000D02*
X67395000Y-102352000D01*
X67395000Y-42352000D02*
X68495000Y-42352000D01*
X22395000Y-102352000D02*
X23495000Y-102352000D01*
X67395000Y-102352000D02*
X68495000Y-102352000D01*
X81042000Y-42705000D02*
X81395000Y-42352000D01*
X36042000Y-102705000D02*
X36395000Y-102352000D01*
X81042000Y-102705000D02*
X81395000Y-102352000D01*
X81395000Y-42352000D02*
X82495000Y-42352000D01*
X36395000Y-102352000D02*
X37495000Y-102352000D01*
X81395000Y-102352000D02*
X82495000Y-102352000D01*
X67042000Y-45106000D02*
X67042000Y-42705000D01*
X22042000Y-105106000D02*
X22042000Y-102705000D01*
X67042000Y-105106000D02*
X67042000Y-102705000D01*
X81042000Y-25106000D02*
X81042000Y-22705000D01*
X36042000Y-85106000D02*
X36042000Y-82705000D01*
X81042000Y-85106000D02*
X81042000Y-82705000D01*
X81042000Y-45106000D02*
X81042000Y-42705000D01*
X36042000Y-105106000D02*
X36042000Y-102705000D01*
X81042000Y-105106000D02*
X81042000Y-102705000D01*
X14670000Y-17792000D02*
X23114000Y-17792000D01*
X13970000Y-17792000D02*
X14670000Y-17792000D01*
X27970000Y-17792000D02*
X28670000Y-17792000D01*
X13970000Y-37792000D02*
X14670000Y-37792000D01*
X27970000Y-37792000D02*
X28670000Y-37792000D01*
X28670000Y-17792000D02*
X37114000Y-17792000D01*
X14670000Y-37792000D02*
X23114000Y-37792000D01*
X28670000Y-37792000D02*
X37114000Y-37792000D01*
X58970000Y-17792000D02*
X59670000Y-17792000D01*
X13970000Y-77792000D02*
X14670000Y-77792000D01*
X58970000Y-77792000D02*
X59670000Y-77792000D01*
X59670000Y-17792000D02*
X68114000Y-17792000D01*
X14670000Y-77792000D02*
X23114000Y-77792000D01*
X59670000Y-77792000D02*
X68114000Y-77792000D01*
X59670000Y-37792000D02*
X68114000Y-37792000D01*
X14670000Y-97792000D02*
X23114000Y-97792000D01*
X59670000Y-97792000D02*
X68114000Y-97792000D01*
X73670000Y-37792000D02*
X82114000Y-37792000D01*
X28670000Y-97792000D02*
X37114000Y-97792000D01*
X73670000Y-97792000D02*
X82114000Y-97792000D01*
X73670000Y-17792000D02*
X82114000Y-17792000D01*
X28670000Y-77792000D02*
X37114000Y-77792000D01*
X73670000Y-77792000D02*
X82114000Y-77792000D01*
X72970000Y-17792000D02*
X73670000Y-17792000D01*
X27970000Y-77792000D02*
X28670000Y-77792000D01*
X72970000Y-77792000D02*
X73670000Y-77792000D01*
X72970000Y-37792000D02*
X73670000Y-37792000D01*
X27970000Y-97792000D02*
X28670000Y-97792000D01*
X72970000Y-97792000D02*
X73670000Y-97792000D01*
X58970000Y-37792000D02*
X59670000Y-37792000D01*
X13970000Y-97792000D02*
X14670000Y-97792000D01*
X58970000Y-97792000D02*
X59670000Y-97792000D01*
M02*
