G04 #@! TF.GenerationSoftware,KiCad,Pcbnew,(5.0.0-rc2-dev-311-g1dd4af297)*
G04 #@! TF.CreationDate,2018-06-08T08:48:50+02:00*
G04 #@! TF.ProjectId,resetUSB,72657365745553422E6B696361645F70,1.0*
G04 #@! TF.SameCoordinates,PX6ad8e7cPY2bcdfd4*
G04 #@! TF.FileFunction,Soldermask,Top*
G04 #@! TF.FilePolarity,Negative*
%FSLAX46Y46*%
G04 Gerber Fmt 4.6, Leading zero omitted, Abs format (unit mm)*
G04 Created by KiCad (PCBNEW (5.0.0-rc2-dev-311-g1dd4af297)) date 06/08/18 08:48:50*
%MOMM*%
%LPD*%
G01*
G04 APERTURE LIST*
%ADD10C,0.200000*%
%ADD11C,4.200000*%
%ADD12C,3.200000*%
%ADD13C,3.700000*%
%ADD14R,1.000000X0.950000*%
%ADD15R,0.700000X1.100000*%
%ADD16R,1.800000X3.200000*%
%ADD17R,1.100000X0.700000*%
%ADD18R,3.700000X1.800000*%
%ADD19C,1.800000*%
%ADD20R,3.200000X0.900000*%
%ADD21R,6.240000X3.600000*%
%ADD22C,1.600000*%
%ADD23C,2.400000*%
%ADD24R,2.000000X2.700000*%
%ADD25R,1.000000X1.100000*%
%ADD26R,1.750000X0.800000*%
%ADD27R,1.000000X1.000000*%
%ADD28C,3.000000*%
%ADD29R,3.000000X3.000000*%
%ADD30C,2.800000*%
%ADD31R,0.800000X1.400000*%
%ADD32R,1.400000X0.800000*%
%ADD33R,3.200000X1.200000*%
%ADD34C,3.400000*%
%ADD35C,2.600000*%
%ADD36R,2.600000X2.600000*%
%ADD37R,0.950000X1.000000*%
%ADD38R,2.200000X1.700000*%
%ADD39R,2.200000X4.000000*%
%ADD40R,1.800000X2.380000*%
%ADD41C,0.700000*%
%ADD42C,0.100000*%
%ADD43R,0.900000X0.800000*%
%ADD44O,1.927200X1.927200*%
%ADD45R,1.927200X1.927200*%
%ADD46O,1.900000X1.900000*%
%ADD47R,1.900000X1.900000*%
%ADD48R,0.710000X0.900000*%
G04 APERTURE END LIST*
D10*
X0Y0D02*
X0Y-153000000D01*
X40000000Y0D02*
X0Y0D01*
X40000000Y-153000000D02*
X40000000Y0D01*
X0Y-153000000D02*
X40000000Y-153000000D01*
D11*
X36000000Y-75492000D03*
D12*
X30900000Y-75492000D03*
D11*
X30900000Y-80592000D03*
X30900000Y-70392000D03*
X30900000Y-85392000D03*
X30900000Y-95592000D03*
D12*
X30900000Y-90492000D03*
D11*
X36000000Y-90492000D03*
D13*
X37508000Y-103750000D03*
X37508000Y-139250000D03*
D14*
X22234000Y-123775500D03*
X23734000Y-123775500D03*
D15*
X17384000Y-123779000D03*
X15884000Y-123779000D03*
D16*
X10160000Y-117180000D03*
X10160000Y-121580000D03*
D17*
X13970000Y-122416000D03*
X13970000Y-120916000D03*
D18*
X17704000Y-119457500D03*
X23104000Y-119457500D03*
D17*
X19174000Y-113631000D03*
X19174000Y-115131000D03*
X19174000Y-125291000D03*
X19174000Y-123791000D03*
D14*
X23734000Y-113553000D03*
X22234000Y-113553000D03*
X22222000Y-115143000D03*
X23722000Y-115143000D03*
X23734000Y-125491000D03*
X22234000Y-125491000D03*
D15*
X17384000Y-115143000D03*
X15884000Y-115143000D03*
D19*
X26308000Y-130385000D03*
X26308000Y-127845000D03*
X26308000Y-125305000D03*
X26308000Y-122765000D03*
X26308000Y-120225000D03*
X26308000Y-117685000D03*
X26308000Y-115145000D03*
X26308000Y-112605000D03*
X31388000Y-129115000D03*
X31388000Y-126575000D03*
X31388000Y-124035000D03*
X31388000Y-113875000D03*
X31388000Y-116415000D03*
X31388000Y-118955000D03*
X31388000Y-121495000D03*
D20*
X12000000Y-74875000D03*
X12000000Y-71125000D03*
X12000000Y-73625000D03*
X12000000Y-72375000D03*
D21*
X5580000Y-79800000D03*
X5580000Y-66200000D03*
D22*
X5000000Y-75750000D03*
X5000000Y-70250000D03*
D23*
X24770000Y-133650000D03*
X29210000Y-143180000D03*
D24*
X21775500Y-42545700D03*
X21775500Y-46545700D03*
X25458500Y-46545700D03*
X25458500Y-42545700D03*
X21775500Y-54292700D03*
X21775500Y-50292700D03*
D25*
X26566000Y-39451500D03*
X25616000Y-37451500D03*
X27516000Y-37451500D03*
X30249000Y-39451500D03*
X29299000Y-37451500D03*
X31199000Y-37451500D03*
D24*
X25458500Y-50292700D03*
X25458500Y-54292700D03*
D26*
X28486200Y-45849100D03*
X28486200Y-44579100D03*
X28486200Y-43309100D03*
X28486200Y-42039100D03*
X33886200Y-42039100D03*
X33886200Y-43309100D03*
X33886200Y-44579100D03*
X33886200Y-45849100D03*
X28486200Y-53469100D03*
X28486200Y-52199100D03*
X28486200Y-50929100D03*
X28486200Y-49659100D03*
X33886200Y-49659100D03*
X33886200Y-50929100D03*
X33886200Y-52199100D03*
X33886200Y-53469100D03*
D15*
X30198500Y-47879000D03*
X31698500Y-47879000D03*
X32320800Y-40309800D03*
X33820800Y-40309800D03*
D27*
X36360000Y-55413500D03*
X34760000Y-55413500D03*
D15*
X33262000Y-55372000D03*
X31762000Y-55372000D03*
D28*
X29158000Y-64075000D03*
X29158000Y-59875000D03*
X34658000Y-64075000D03*
D29*
X34658000Y-59875000D03*
D15*
X29309500Y-32939500D03*
X30809500Y-32939500D03*
D19*
X3920000Y-46810000D03*
X9000000Y-39190000D03*
D23*
X12810000Y-43000000D03*
X17890000Y-43000000D03*
D30*
X17890000Y-46810000D03*
X17890000Y-39190000D03*
D31*
X7292772Y-25091143D03*
X8092772Y-25091143D03*
X8892772Y-25091143D03*
X9692772Y-25091143D03*
X10492772Y-25091143D03*
X11292772Y-25091143D03*
X12092772Y-25091143D03*
X12892772Y-25091143D03*
D32*
X14342772Y-26541143D03*
X14342772Y-27341143D03*
X14342772Y-28141143D03*
X14342772Y-28941143D03*
X14342772Y-29741143D03*
X14342772Y-30541143D03*
X14342772Y-31341143D03*
X14342772Y-32141143D03*
D31*
X12892772Y-33591143D03*
X12092772Y-33591143D03*
X11292772Y-33591143D03*
X10492772Y-33591143D03*
X9692772Y-33591143D03*
X8892772Y-33591143D03*
X8092772Y-33591143D03*
X7292772Y-33591143D03*
D32*
X5842772Y-32141143D03*
X5842772Y-31341143D03*
X5842772Y-30541143D03*
X5842772Y-29741143D03*
X5842772Y-28941143D03*
X5842772Y-28141143D03*
X5842772Y-27341143D03*
X5842772Y-26541143D03*
D15*
X7937876Y-23392702D03*
X6437876Y-23392702D03*
D14*
X4403631Y-25120423D03*
X5903631Y-25120423D03*
X7949876Y-21868702D03*
X6449876Y-21868702D03*
D33*
X23833500Y-11923500D03*
X23833500Y-9423500D03*
X23833500Y-4923500D03*
X23833500Y-7423500D03*
D34*
X28043500Y-1853500D03*
X28043500Y-14993500D03*
D35*
X16500000Y-81280000D03*
D36*
X24000000Y-81280000D03*
D23*
X24770000Y-96650000D03*
X29210000Y-106180000D03*
D37*
X31748859Y-22257541D03*
X31748859Y-23757541D03*
D16*
X19380800Y-21742600D03*
X19380800Y-26142600D03*
D38*
X29818859Y-26577541D03*
X29818859Y-21977541D03*
X29818859Y-24277541D03*
D39*
X23518859Y-24277541D03*
D40*
X36856000Y-23951000D03*
X36856000Y-31351000D03*
D14*
X15922627Y-33580956D03*
X14422627Y-33580956D03*
D41*
X23879670Y-27882670D03*
D42*
G36*
X24516066Y-27741249D02*
X23738249Y-28519066D01*
X23243274Y-28024091D01*
X24021091Y-27246274D01*
X24516066Y-27741249D01*
X24516066Y-27741249D01*
G37*
D41*
X24940330Y-28943330D03*
D42*
G36*
X25576726Y-28801909D02*
X24798909Y-29579726D01*
X24303934Y-29084751D01*
X25081751Y-28306934D01*
X25576726Y-28801909D01*
X25576726Y-28801909D01*
G37*
D43*
X3596000Y-28691000D03*
X3596000Y-27291000D03*
D27*
X38225500Y-46020500D03*
X36625500Y-46020500D03*
X38225500Y-43480500D03*
X36625500Y-43480500D03*
X38225500Y-40940500D03*
X36625500Y-40940500D03*
D17*
X37872000Y-19511000D03*
X37872000Y-18011000D03*
D44*
X15774000Y-3989000D03*
X15774000Y-6529000D03*
X13234000Y-3989000D03*
X13234000Y-6529000D03*
X10694000Y-3989000D03*
X10694000Y-6529000D03*
X8154000Y-3989000D03*
X8154000Y-6529000D03*
X5614000Y-3989000D03*
D45*
X5614000Y-6529000D03*
D44*
X15774000Y-14149000D03*
X15774000Y-16689000D03*
X13234000Y-14149000D03*
X13234000Y-16689000D03*
X10694000Y-14149000D03*
X10694000Y-16689000D03*
X8154000Y-14149000D03*
X8154000Y-16689000D03*
X5614000Y-14149000D03*
D45*
X5614000Y-16689000D03*
D46*
X30760000Y-18761000D03*
X28220000Y-18761000D03*
X25680000Y-18761000D03*
D47*
X23140000Y-18761000D03*
D48*
X34216900Y-17564300D03*
X35166900Y-17564300D03*
X36116900Y-17564300D03*
X36116900Y-19884300D03*
X35166900Y-19884300D03*
X34216900Y-19884300D03*
D15*
X29309500Y-34463500D03*
X30809500Y-34463500D03*
X29309500Y-31415500D03*
X30809500Y-31415500D03*
D17*
X4114800Y-33717800D03*
X4114800Y-35217800D03*
X5765800Y-33717800D03*
X5765800Y-35217800D03*
M02*
