G04 #@! TF.GenerationSoftware,KiCad,Pcbnew,(5.0.0-rc2-dev-311-g1dd4af297)*
G04 #@! TF.CreationDate,2018-05-17T15:00:25+02:00*
G04 #@! TF.ProjectId,resetUSB,72657365745553422E6B696361645F70,1.0*
G04 #@! TF.SameCoordinates,PX6ad8e7cPY2bcdfd4*
G04 #@! TF.FileFunction,Copper,L1,Top,Signal*
G04 #@! TF.FilePolarity,Positive*
%FSLAX46Y46*%
G04 Gerber Fmt 4.6, Leading zero omitted, Abs format (unit mm)*
G04 Created by KiCad (PCBNEW (5.0.0-rc2-dev-311-g1dd4af297)) date 05/17/18 15:00:25*
%MOMM*%
%LPD*%
G01*
G04 APERTURE LIST*
%ADD10C,0.300000*%
%ADD11C,0.150000*%
%ADD12C,2.200000*%
%ADD13R,0.800000X0.750000*%
%ADD14R,3.000000X1.600000*%
%ADD15R,1.800000X2.500000*%
%ADD16R,0.500000X0.900000*%
%ADD17R,1.550000X0.600000*%
%ADD18R,0.800000X0.900000*%
%ADD19R,2.800000X2.800000*%
%ADD20C,2.800000*%
%ADD21C,2.600000*%
%ADD22R,1.200000X0.600000*%
%ADD23R,0.600000X1.200000*%
%ADD24R,0.900000X0.500000*%
%ADD25R,2.700000X1.700000*%
%ADD26R,1.700000X2.700000*%
%ADD27C,3.200000*%
%ADD28R,1.000000X3.000000*%
%ADD29R,2.400000X2.400000*%
%ADD30C,2.400000*%
%ADD31R,0.750000X0.800000*%
%ADD32R,1.600000X3.000000*%
%ADD33R,2.000000X1.500000*%
%ADD34R,2.000000X3.800000*%
%ADD35R,1.600000X2.180000*%
%ADD36C,0.500000*%
%ADD37C,0.100000*%
%ADD38R,0.700000X0.600000*%
%ADD39R,0.800000X0.800000*%
%ADD40R,3.000000X0.700000*%
%ADD41R,6.040000X3.400000*%
%ADD42R,1.727200X1.727200*%
%ADD43O,1.727200X1.727200*%
%ADD44O,1.700000X1.700000*%
%ADD45R,1.700000X1.700000*%
%ADD46R,0.510000X0.700000*%
%ADD47C,1.600000*%
%ADD48C,1.300000*%
%ADD49C,1.800000*%
%ADD50C,0.750000*%
%ADD51C,0.250000*%
%ADD52C,0.254000*%
G04 APERTURE END LIST*
D10*
X33403571Y-115678571D02*
X31903571Y-115678571D01*
X33403571Y-114821428D02*
X32546428Y-115464285D01*
X31903571Y-114821428D02*
X32760714Y-115678571D01*
X32403571Y-114178571D02*
X33403571Y-114178571D01*
X32546428Y-114178571D02*
X32475000Y-114107142D01*
X32403571Y-113964285D01*
X32403571Y-113750000D01*
X32475000Y-113607142D01*
X32617857Y-113535714D01*
X33403571Y-113535714D01*
X33403571Y-112607142D02*
X33332142Y-112750000D01*
X33260714Y-112821428D01*
X33117857Y-112892857D01*
X32689285Y-112892857D01*
X32546428Y-112821428D01*
X32475000Y-112750000D01*
X32403571Y-112607142D01*
X32403571Y-112392857D01*
X32475000Y-112250000D01*
X32546428Y-112178571D01*
X32689285Y-112107142D01*
X33117857Y-112107142D01*
X33260714Y-112178571D01*
X33332142Y-112250000D01*
X33403571Y-112392857D01*
X33403571Y-112607142D01*
X33403571Y-111250000D02*
X33332142Y-111392857D01*
X33260714Y-111464285D01*
X33117857Y-111535714D01*
X32689285Y-111535714D01*
X32546428Y-111464285D01*
X32475000Y-111392857D01*
X32403571Y-111250000D01*
X32403571Y-111035714D01*
X32475000Y-110892857D01*
X32546428Y-110821428D01*
X32689285Y-110750000D01*
X33117857Y-110750000D01*
X33260714Y-110821428D01*
X33332142Y-110892857D01*
X33403571Y-111035714D01*
X33403571Y-111250000D01*
X33332142Y-109464285D02*
X33403571Y-109607142D01*
X33403571Y-109892857D01*
X33332142Y-110035714D01*
X33260714Y-110107142D01*
X33117857Y-110178571D01*
X32689285Y-110178571D01*
X32546428Y-110107142D01*
X32475000Y-110035714D01*
X32403571Y-109892857D01*
X32403571Y-109607142D01*
X32475000Y-109464285D01*
X33403571Y-108821428D02*
X31903571Y-108821428D01*
X32832142Y-108678571D02*
X33403571Y-108250000D01*
X32403571Y-108250000D02*
X32975000Y-108821428D01*
X33332142Y-107035714D02*
X33403571Y-107178571D01*
X33403571Y-107464285D01*
X33332142Y-107607142D01*
X33189285Y-107678571D01*
X32617857Y-107678571D01*
X32475000Y-107607142D01*
X32403571Y-107464285D01*
X32403571Y-107178571D01*
X32475000Y-107035714D01*
X32617857Y-106964285D01*
X32760714Y-106964285D01*
X32903571Y-107678571D01*
X33403571Y-106321428D02*
X32403571Y-106321428D01*
X32689285Y-106321428D02*
X32546428Y-106250000D01*
X32475000Y-106178571D01*
X32403571Y-106035714D01*
X32403571Y-105892857D01*
X33403571Y-104250000D02*
X32403571Y-104250000D01*
X32689285Y-104250000D02*
X32546428Y-104178571D01*
X32475000Y-104107142D01*
X32403571Y-103964285D01*
X32403571Y-103821428D01*
X33332142Y-102750000D02*
X33403571Y-102892857D01*
X33403571Y-103178571D01*
X33332142Y-103321428D01*
X33189285Y-103392857D01*
X32617857Y-103392857D01*
X32475000Y-103321428D01*
X32403571Y-103178571D01*
X32403571Y-102892857D01*
X32475000Y-102750000D01*
X32617857Y-102678571D01*
X32760714Y-102678571D01*
X32903571Y-103392857D01*
X33332142Y-102107142D02*
X33403571Y-101964285D01*
X33403571Y-101678571D01*
X33332142Y-101535714D01*
X33189285Y-101464285D01*
X33117857Y-101464285D01*
X32975000Y-101535714D01*
X32903571Y-101678571D01*
X32903571Y-101892857D01*
X32832142Y-102035714D01*
X32689285Y-102107142D01*
X32617857Y-102107142D01*
X32475000Y-102035714D01*
X32403571Y-101892857D01*
X32403571Y-101678571D01*
X32475000Y-101535714D01*
X33332142Y-100250000D02*
X33403571Y-100392857D01*
X33403571Y-100678571D01*
X33332142Y-100821428D01*
X33189285Y-100892857D01*
X32617857Y-100892857D01*
X32475000Y-100821428D01*
X32403571Y-100678571D01*
X32403571Y-100392857D01*
X32475000Y-100250000D01*
X32617857Y-100178571D01*
X32760714Y-100178571D01*
X32903571Y-100892857D01*
X32403571Y-99750000D02*
X32403571Y-99178571D01*
X31903571Y-99535714D02*
X33189285Y-99535714D01*
X33332142Y-99464285D01*
X33403571Y-99321428D01*
X33403571Y-99178571D01*
X31903571Y-98678571D02*
X33117857Y-98678571D01*
X33260714Y-98607142D01*
X33332142Y-98535714D01*
X33403571Y-98392857D01*
X33403571Y-98107142D01*
X33332142Y-97964285D01*
X33260714Y-97892857D01*
X33117857Y-97821428D01*
X31903571Y-97821428D01*
X33332142Y-97178571D02*
X33403571Y-96964285D01*
X33403571Y-96607142D01*
X33332142Y-96464285D01*
X33260714Y-96392857D01*
X33117857Y-96321428D01*
X32975000Y-96321428D01*
X32832142Y-96392857D01*
X32760714Y-96464285D01*
X32689285Y-96607142D01*
X32617857Y-96892857D01*
X32546428Y-97035714D01*
X32475000Y-97107142D01*
X32332142Y-97178571D01*
X32189285Y-97178571D01*
X32046428Y-97107142D01*
X31975000Y-97035714D01*
X31903571Y-96892857D01*
X31903571Y-96535714D01*
X31975000Y-96321428D01*
X32617857Y-95178571D02*
X32689285Y-94964285D01*
X32760714Y-94892857D01*
X32903571Y-94821428D01*
X33117857Y-94821428D01*
X33260714Y-94892857D01*
X33332142Y-94964285D01*
X33403571Y-95107142D01*
X33403571Y-95678571D01*
X31903571Y-95678571D01*
X31903571Y-95178571D01*
X31975000Y-95035714D01*
X32046428Y-94964285D01*
X32189285Y-94892857D01*
X32332142Y-94892857D01*
X32475000Y-94964285D01*
X32546428Y-95035714D01*
X32617857Y-95178571D01*
X32617857Y-95678571D01*
X32403571Y-94321428D02*
X33403571Y-93964285D01*
X32403571Y-93607142D01*
X32403571Y-92392857D02*
X33403571Y-92392857D01*
X31832142Y-92750000D02*
X32903571Y-93107142D01*
X32903571Y-92178571D01*
X35953571Y-115892857D02*
X34953571Y-115892857D01*
X35096428Y-115892857D02*
X35025000Y-115821428D01*
X34953571Y-115678571D01*
X34953571Y-115464285D01*
X35025000Y-115321428D01*
X35167857Y-115250000D01*
X35953571Y-115250000D01*
X35167857Y-115250000D02*
X35025000Y-115178571D01*
X34953571Y-115035714D01*
X34953571Y-114821428D01*
X35025000Y-114678571D01*
X35167857Y-114607142D01*
X35953571Y-114607142D01*
X35953571Y-113250000D02*
X35167857Y-113250000D01*
X35025000Y-113321428D01*
X34953571Y-113464285D01*
X34953571Y-113750000D01*
X35025000Y-113892857D01*
X35882142Y-113250000D02*
X35953571Y-113392857D01*
X35953571Y-113750000D01*
X35882142Y-113892857D01*
X35739285Y-113964285D01*
X35596428Y-113964285D01*
X35453571Y-113892857D01*
X35382142Y-113750000D01*
X35382142Y-113392857D01*
X35310714Y-113250000D01*
X35953571Y-112535714D02*
X34953571Y-112535714D01*
X35239285Y-112535714D02*
X35096428Y-112464285D01*
X35025000Y-112392857D01*
X34953571Y-112250000D01*
X34953571Y-112107142D01*
X35882142Y-111035714D02*
X35953571Y-111178571D01*
X35953571Y-111464285D01*
X35882142Y-111607142D01*
X35739285Y-111678571D01*
X35167857Y-111678571D01*
X35025000Y-111607142D01*
X34953571Y-111464285D01*
X34953571Y-111178571D01*
X35025000Y-111035714D01*
X35167857Y-110964285D01*
X35310714Y-110964285D01*
X35453571Y-111678571D01*
X35953571Y-110321428D02*
X34453571Y-110321428D01*
X35382142Y-110178571D02*
X35953571Y-109750000D01*
X34953571Y-109750000D02*
X35525000Y-110321428D01*
X34953571Y-109107142D02*
X36453571Y-109107142D01*
X35025000Y-109107142D02*
X34953571Y-108964285D01*
X34953571Y-108678571D01*
X35025000Y-108535714D01*
X35096428Y-108464285D01*
X35239285Y-108392857D01*
X35667857Y-108392857D01*
X35810714Y-108464285D01*
X35882142Y-108535714D01*
X35953571Y-108678571D01*
X35953571Y-108964285D01*
X35882142Y-109107142D01*
X35953571Y-106964285D02*
X35953571Y-107821428D01*
X35953571Y-107392857D02*
X34453571Y-107392857D01*
X34667857Y-107535714D01*
X34810714Y-107678571D01*
X34882142Y-107821428D01*
X35096428Y-106107142D02*
X35025000Y-106250000D01*
X34953571Y-106321428D01*
X34810714Y-106392857D01*
X34739285Y-106392857D01*
X34596428Y-106321428D01*
X34525000Y-106250000D01*
X34453571Y-106107142D01*
X34453571Y-105821428D01*
X34525000Y-105678571D01*
X34596428Y-105607142D01*
X34739285Y-105535714D01*
X34810714Y-105535714D01*
X34953571Y-105607142D01*
X35025000Y-105678571D01*
X35096428Y-105821428D01*
X35096428Y-106107142D01*
X35167857Y-106250000D01*
X35239285Y-106321428D01*
X35382142Y-106392857D01*
X35667857Y-106392857D01*
X35810714Y-106321428D01*
X35882142Y-106250000D01*
X35953571Y-106107142D01*
X35953571Y-105821428D01*
X35882142Y-105678571D01*
X35810714Y-105607142D01*
X35667857Y-105535714D01*
X35382142Y-105535714D01*
X35239285Y-105607142D01*
X35167857Y-105678571D01*
X35096428Y-105821428D01*
X35239285Y-103964285D02*
X35167857Y-104035714D01*
X35096428Y-104178571D01*
X35096428Y-104321428D01*
X35167857Y-104464285D01*
X35239285Y-104535714D01*
X35382142Y-104607142D01*
X35525000Y-104607142D01*
X35667857Y-104535714D01*
X35739285Y-104464285D01*
X35810714Y-104321428D01*
X35810714Y-104178571D01*
X35739285Y-104035714D01*
X35667857Y-103964285D01*
X35096428Y-103964285D02*
X35667857Y-103964285D01*
X35739285Y-103892857D01*
X35739285Y-103821428D01*
X35667857Y-103678571D01*
X35525000Y-103607142D01*
X35167857Y-103607142D01*
X34953571Y-103750000D01*
X34810714Y-103964285D01*
X34739285Y-104250000D01*
X34810714Y-104535714D01*
X34953571Y-104750000D01*
X35167857Y-104892857D01*
X35453571Y-104964285D01*
X35739285Y-104892857D01*
X35953571Y-104750000D01*
X36096428Y-104535714D01*
X36167857Y-104250000D01*
X36096428Y-103964285D01*
X35953571Y-103750000D01*
X34953571Y-102321428D02*
X36167857Y-102321428D01*
X36310714Y-102392857D01*
X36382142Y-102464285D01*
X36453571Y-102607142D01*
X36453571Y-102821428D01*
X36382142Y-102964285D01*
X35882142Y-102321428D02*
X35953571Y-102464285D01*
X35953571Y-102750000D01*
X35882142Y-102892857D01*
X35810714Y-102964285D01*
X35667857Y-103035714D01*
X35239285Y-103035714D01*
X35096428Y-102964285D01*
X35025000Y-102892857D01*
X34953571Y-102750000D01*
X34953571Y-102464285D01*
X35025000Y-102321428D01*
X35953571Y-101607142D02*
X34953571Y-101607142D01*
X35096428Y-101607142D02*
X35025000Y-101535714D01*
X34953571Y-101392857D01*
X34953571Y-101178571D01*
X35025000Y-101035714D01*
X35167857Y-100964285D01*
X35953571Y-100964285D01*
X35167857Y-100964285D02*
X35025000Y-100892857D01*
X34953571Y-100750000D01*
X34953571Y-100535714D01*
X35025000Y-100392857D01*
X35167857Y-100321428D01*
X35953571Y-100321428D01*
X35953571Y-98964285D02*
X35167857Y-98964285D01*
X35025000Y-99035714D01*
X34953571Y-99178571D01*
X34953571Y-99464285D01*
X35025000Y-99607142D01*
X35882142Y-98964285D02*
X35953571Y-99107142D01*
X35953571Y-99464285D01*
X35882142Y-99607142D01*
X35739285Y-99678571D01*
X35596428Y-99678571D01*
X35453571Y-99607142D01*
X35382142Y-99464285D01*
X35382142Y-99107142D01*
X35310714Y-98964285D01*
X35953571Y-98250000D02*
X34953571Y-98250000D01*
X34453571Y-98250000D02*
X34525000Y-98321428D01*
X34596428Y-98250000D01*
X34525000Y-98178571D01*
X34453571Y-98250000D01*
X34596428Y-98250000D01*
X35953571Y-97321428D02*
X35882142Y-97464285D01*
X35739285Y-97535714D01*
X34453571Y-97535714D01*
X35810714Y-96750000D02*
X35882142Y-96678571D01*
X35953571Y-96750000D01*
X35882142Y-96821428D01*
X35810714Y-96750000D01*
X35953571Y-96750000D01*
X35882142Y-95392857D02*
X35953571Y-95535714D01*
X35953571Y-95821428D01*
X35882142Y-95964285D01*
X35810714Y-96035714D01*
X35667857Y-96107142D01*
X35239285Y-96107142D01*
X35096428Y-96035714D01*
X35025000Y-95964285D01*
X34953571Y-95821428D01*
X34953571Y-95535714D01*
X35025000Y-95392857D01*
X35953571Y-94535714D02*
X35882142Y-94678571D01*
X35810714Y-94750000D01*
X35667857Y-94821428D01*
X35239285Y-94821428D01*
X35096428Y-94750000D01*
X35025000Y-94678571D01*
X34953571Y-94535714D01*
X34953571Y-94321428D01*
X35025000Y-94178571D01*
X35096428Y-94107142D01*
X35239285Y-94035714D01*
X35667857Y-94035714D01*
X35810714Y-94107142D01*
X35882142Y-94178571D01*
X35953571Y-94321428D01*
X35953571Y-94535714D01*
X35953571Y-93392857D02*
X34953571Y-93392857D01*
X35096428Y-93392857D02*
X35025000Y-93321428D01*
X34953571Y-93178571D01*
X34953571Y-92964285D01*
X35025000Y-92821428D01*
X35167857Y-92750000D01*
X35953571Y-92750000D01*
X35167857Y-92750000D02*
X35025000Y-92678571D01*
X34953571Y-92535714D01*
X34953571Y-92321428D01*
X35025000Y-92178571D01*
X35167857Y-92107142D01*
X35953571Y-92107142D01*
D11*
X39000000Y0D02*
X39000000Y-200000000D01*
X0Y0D02*
X0Y-200000000D01*
X39000000Y0D02*
X0Y0D01*
X39000000Y-200000000D02*
X0Y-200000000D01*
D12*
X29210000Y-142180000D03*
X24770000Y-132650000D03*
D13*
X12204000Y-159258000D03*
X13704000Y-159258000D03*
X13716000Y-166624000D03*
X12216000Y-166624000D03*
D14*
X13334000Y-162964000D03*
X17734000Y-162964000D03*
D15*
X21775500Y-46863700D03*
X21775500Y-50863700D03*
X21775500Y-58610700D03*
X21775500Y-54610700D03*
D16*
X32304500Y-52199100D03*
X30804500Y-52199100D03*
D15*
X25458500Y-58610700D03*
X25458500Y-54610700D03*
D17*
X33886200Y-57787100D03*
X33886200Y-56517100D03*
X33886200Y-55247100D03*
X33886200Y-53977100D03*
X28486200Y-53977100D03*
X28486200Y-55247100D03*
X28486200Y-56517100D03*
X28486200Y-57787100D03*
D18*
X26566000Y-43769500D03*
X25616000Y-41769500D03*
X27516000Y-41769500D03*
D15*
X25458500Y-46863700D03*
X25458500Y-50863700D03*
D18*
X30249000Y-43769500D03*
X29299000Y-41769500D03*
X31199000Y-41769500D03*
D16*
X33810000Y-44628000D03*
X32310000Y-44628000D03*
D17*
X33886200Y-50167100D03*
X33886200Y-48897100D03*
X33886200Y-47627100D03*
X33886200Y-46357100D03*
X28486200Y-46357100D03*
X28486200Y-47627100D03*
X28486200Y-48897100D03*
X28486200Y-50167100D03*
D19*
X31864000Y-64161000D03*
D20*
X31864000Y-68361000D03*
X26364000Y-64161000D03*
X26364000Y-68361000D03*
D12*
X12810000Y-43000000D03*
X17890000Y-43000000D03*
D21*
X17890000Y-46810000D03*
X17890000Y-39190000D03*
D22*
X5842772Y-26541143D03*
X5842772Y-27341143D03*
X5842772Y-28141143D03*
X5842772Y-28941143D03*
X5842772Y-29741143D03*
X5842772Y-30541143D03*
X5842772Y-31341143D03*
X5842772Y-32141143D03*
D23*
X7292772Y-33591143D03*
X8092772Y-33591143D03*
X8892772Y-33591143D03*
X9692772Y-33591143D03*
X10492772Y-33591143D03*
X11292772Y-33591143D03*
X12092772Y-33591143D03*
X12892772Y-33591143D03*
D22*
X14342772Y-32141143D03*
X14342772Y-31341143D03*
X14342772Y-30541143D03*
X14342772Y-29741143D03*
X14342772Y-28941143D03*
X14342772Y-28141143D03*
X14342772Y-27341143D03*
X14342772Y-26541143D03*
D23*
X12892772Y-25091143D03*
X12092772Y-25091143D03*
X11292772Y-25091143D03*
X10492772Y-25091143D03*
X9692772Y-25091143D03*
X8892772Y-25091143D03*
X8092772Y-25091143D03*
X7292772Y-25091143D03*
D24*
X4104000Y-33718000D03*
X4104000Y-35218000D03*
D16*
X7937876Y-23392702D03*
X6437876Y-23392702D03*
D13*
X4403631Y-25120423D03*
X5903631Y-25120423D03*
X7949876Y-21868702D03*
X6449876Y-21868702D03*
D25*
X30814000Y-167000000D03*
X30814000Y-157000000D03*
X30814000Y-164500000D03*
X30814000Y-159500000D03*
D26*
X35814000Y-162000000D03*
D27*
X37000000Y-10973000D03*
X23860000Y-10973000D03*
D28*
X29430000Y-15183000D03*
X26930000Y-15183000D03*
X31430000Y-15183000D03*
X33930000Y-15183000D03*
D13*
X13704000Y-156718000D03*
X12204000Y-156718000D03*
D29*
X13000000Y-107280000D03*
D30*
X13000000Y-114780000D03*
D12*
X24770000Y-180650000D03*
X29210000Y-190180000D03*
D31*
X31748859Y-22257541D03*
X31748859Y-23757541D03*
D32*
X19380800Y-21742600D03*
X19380800Y-26142600D03*
D33*
X29818859Y-26577541D03*
X29818859Y-21977541D03*
X29818859Y-24277541D03*
D34*
X23518859Y-24277541D03*
D35*
X36856000Y-23951000D03*
X36856000Y-31351000D03*
D13*
X15922627Y-33580956D03*
X14422627Y-33580956D03*
D36*
X23879670Y-27882670D03*
D37*
G36*
X24374645Y-27741249D02*
X23738249Y-28377645D01*
X23384695Y-28024091D01*
X24021091Y-27387695D01*
X24374645Y-27741249D01*
X24374645Y-27741249D01*
G37*
D36*
X24940330Y-28943330D03*
D37*
G36*
X25435305Y-28801909D02*
X24798909Y-29438305D01*
X24445355Y-29084751D01*
X25081751Y-28448355D01*
X25435305Y-28801909D01*
X25435305Y-28801909D01*
G37*
D24*
X5755000Y-33718000D03*
X5755000Y-35218000D03*
D38*
X3596000Y-28691000D03*
X3596000Y-27291000D03*
D39*
X38246500Y-45966000D03*
X36646500Y-45966000D03*
X38246500Y-43426000D03*
X36646500Y-43426000D03*
X38246500Y-40886000D03*
X36646500Y-40886000D03*
D40*
X12000000Y-92875000D03*
X12000000Y-89125000D03*
X12000000Y-91625000D03*
X12000000Y-90375000D03*
D41*
X5580000Y-97800000D03*
X5580000Y-84200000D03*
D24*
X37872000Y-19511000D03*
X37872000Y-18011000D03*
D42*
X5614000Y-6529000D03*
D43*
X5614000Y-3989000D03*
X8154000Y-6529000D03*
X8154000Y-3989000D03*
X10694000Y-6529000D03*
X10694000Y-3989000D03*
X13234000Y-6529000D03*
X13234000Y-3989000D03*
X15774000Y-6529000D03*
X15774000Y-3989000D03*
X15774000Y-14149000D03*
X15774000Y-16689000D03*
X13234000Y-14149000D03*
X13234000Y-16689000D03*
X10694000Y-14149000D03*
X10694000Y-16689000D03*
X8154000Y-14149000D03*
X8154000Y-16689000D03*
X5614000Y-14149000D03*
D42*
X5614000Y-16689000D03*
D44*
X30760000Y-18761000D03*
X28220000Y-18761000D03*
X25680000Y-18761000D03*
D45*
X23140000Y-18761000D03*
D46*
X34216900Y-17564300D03*
X35166900Y-17564300D03*
X36116900Y-17564300D03*
X36116900Y-19884300D03*
X35166900Y-19884300D03*
X34216900Y-19884300D03*
D14*
X14940000Y-122606000D03*
X10540000Y-122606000D03*
D16*
X6108000Y-122682000D03*
X7608000Y-122682000D03*
D47*
X4550000Y-163000000D03*
X4550000Y-165540000D03*
X4550000Y-168080000D03*
X4550000Y-170620000D03*
X4550000Y-160460000D03*
X4550000Y-157920000D03*
X4550000Y-155380000D03*
X9630000Y-171890000D03*
X9630000Y-169350000D03*
X9630000Y-166810000D03*
X9630000Y-164270000D03*
X9630000Y-161730000D03*
X9630000Y-159190000D03*
X9630000Y-156650000D03*
X9630000Y-154110000D03*
D13*
X13704000Y-169418000D03*
X12204000Y-169418000D03*
D16*
X30762000Y-34468000D03*
X29262000Y-34468000D03*
X29262000Y-32944000D03*
X30762000Y-32944000D03*
X30762000Y-31420000D03*
X29262000Y-31420000D03*
D48*
X36870000Y-35230000D03*
X5293802Y-21854010D03*
X14518000Y-91618000D03*
X17348800Y-20853600D03*
X31748859Y-25547541D03*
X14454207Y-34838191D03*
X33840500Y-52046700D03*
X20106000Y-162738000D03*
X15240000Y-156718000D03*
X15240000Y-169418000D03*
X21704000Y-44730000D03*
X21884000Y-60884000D03*
X24170000Y-42723000D03*
X17566000Y-122606000D03*
D10*
X36856000Y-31351000D02*
X36856000Y-35216000D01*
X36856000Y-35216000D02*
X36870000Y-35230000D01*
X38246500Y-36606500D02*
X36870000Y-35230000D01*
X38246500Y-40186000D02*
X38246500Y-36606500D01*
X5308494Y-21868702D02*
X5293802Y-21854010D01*
X6449876Y-21868702D02*
X5308494Y-21868702D01*
X5903631Y-24667369D02*
X6437876Y-24133124D01*
X5903631Y-25120423D02*
X5903631Y-24667369D01*
X6437876Y-24133124D02*
X6437876Y-23392702D01*
X14511000Y-91625000D02*
X14518000Y-91618000D01*
X12000000Y-91625000D02*
X14511000Y-91625000D01*
X5903631Y-25120423D02*
X5932911Y-25091143D01*
X5932911Y-25091143D02*
X7292772Y-25091143D01*
X12892772Y-33591144D02*
X12902960Y-33580956D01*
X12902960Y-33580956D02*
X14422628Y-33580956D01*
X6437876Y-21880702D02*
X6449876Y-21868702D01*
X6437877Y-23392702D02*
X6437876Y-21880702D01*
X23869008Y-16950008D02*
X24410000Y-17491000D01*
X22654008Y-16950008D02*
X23869008Y-16950008D01*
X16296000Y-10592000D02*
X22654008Y-16950008D01*
X7592000Y-10592000D02*
X16296000Y-10592000D01*
X5614000Y-6529000D02*
X5614000Y-8614000D01*
X5614000Y-8614000D02*
X7592000Y-10592000D01*
X24410000Y-19523000D02*
X25426000Y-20539000D01*
X24410000Y-17491000D02*
X24410000Y-19523000D01*
X25426000Y-20539000D02*
X29430318Y-20539000D01*
X29430318Y-20539000D02*
X29818859Y-20927541D01*
X29818859Y-20927541D02*
X29818859Y-21977541D01*
X12892772Y-32141143D02*
X14342772Y-32141143D01*
X14342772Y-32141143D02*
X15048034Y-32141143D01*
X11080600Y-30328972D02*
X12892772Y-32141143D01*
X11080600Y-28353315D02*
X11080600Y-30328972D01*
X15048034Y-32141143D02*
X15922627Y-33015737D01*
X15922627Y-33015737D02*
X15922627Y-33580956D01*
X18280800Y-26142600D02*
X17589200Y-25451000D01*
X19380800Y-26142600D02*
X18280800Y-26142600D01*
X17589200Y-25451000D02*
X13982916Y-25451000D01*
X13982916Y-25451000D02*
X12248034Y-27185882D01*
X5137511Y-26541143D02*
X4403632Y-25807264D01*
X5842772Y-26541143D02*
X5137511Y-26541143D01*
X4403632Y-25807264D02*
X4403632Y-25120423D01*
X9104944Y-28353315D02*
X7292772Y-26541143D01*
X11080600Y-28353315D02*
X9104944Y-28353315D01*
X7292772Y-26541143D02*
X5842772Y-26541143D01*
X12248034Y-27185882D02*
X11080600Y-28353315D01*
X12248034Y-27185882D02*
X9692772Y-29741144D01*
X9692772Y-29741144D02*
X5842772Y-29741144D01*
X19471000Y-26340000D02*
X19344000Y-26213000D01*
X19344000Y-26213000D02*
X19380800Y-26176200D01*
X19380800Y-26176200D02*
X19380800Y-26142600D01*
D49*
X26670000Y-176530000D02*
X28702000Y-178562000D01*
X10530000Y-176530000D02*
X26670000Y-176530000D01*
X10922000Y-184912000D02*
X1524000Y-175514000D01*
X7112000Y-173112000D02*
X10530000Y-176530000D01*
X7112000Y-170736630D02*
X7112000Y-173112000D01*
X28702000Y-182880000D02*
X26670000Y-184912000D01*
X9630000Y-169350000D02*
X8498630Y-169350000D01*
X8498630Y-169350000D02*
X7112000Y-170736630D01*
X28702000Y-178562000D02*
X28702000Y-182880000D01*
X26670000Y-184912000D02*
X10922000Y-184912000D01*
X1524000Y-175514000D02*
X1524000Y-122682000D01*
X26364000Y-68361000D02*
X26364000Y-91492000D01*
D50*
X31808500Y-58716500D02*
X31808500Y-55221700D01*
X31808500Y-54586700D02*
X30804500Y-53582700D01*
X31808500Y-55221700D02*
X31808500Y-54586700D01*
X32087900Y-55247100D02*
X33886200Y-55247100D01*
X32087900Y-55247100D02*
X31833900Y-55247100D01*
X31833900Y-55247100D02*
X31808500Y-55221700D01*
X26364000Y-64161000D02*
X31808500Y-58716500D01*
X30804500Y-53582700D02*
X30804500Y-52199100D01*
X30804500Y-48351700D02*
X30804500Y-52199100D01*
D49*
X26416000Y-137414000D02*
X30000000Y-133830000D01*
X7112000Y-152110000D02*
X21808000Y-137414000D01*
X21808000Y-137414000D02*
X26416000Y-137414000D01*
X7112000Y-155702000D02*
X7112000Y-152110000D01*
X9630000Y-156650000D02*
X8060000Y-156650000D01*
X8060000Y-156650000D02*
X7112000Y-155702000D01*
X30000000Y-133830000D02*
X30000000Y-122000000D01*
X30000000Y-122000000D02*
X15280000Y-107280000D01*
X15280000Y-107280000D02*
X13000000Y-107280000D01*
X26364000Y-91492000D02*
X13000000Y-104856000D01*
X13000000Y-104856000D02*
X13000000Y-107280000D01*
X1524000Y-116332000D02*
X10576000Y-107280000D01*
X1524000Y-122682000D02*
X1524000Y-116332000D01*
X10576000Y-107280000D02*
X11050000Y-107280000D01*
X11050000Y-107280000D02*
X13000000Y-107280000D01*
D50*
X6108000Y-122682000D02*
X1524000Y-122682000D01*
X12204000Y-169418000D02*
X9698000Y-169418000D01*
X9698000Y-169418000D02*
X9630000Y-169350000D01*
X12204000Y-156718000D02*
X9698000Y-156718000D01*
X9698000Y-156718000D02*
X9630000Y-156650000D01*
X25458500Y-46563500D02*
X25458500Y-46863700D01*
X30774000Y-45390000D02*
X26632000Y-45390000D01*
X26632000Y-45390000D02*
X25458500Y-46563500D01*
X31566500Y-47589700D02*
X31566500Y-46182500D01*
X31566500Y-46182500D02*
X30774000Y-45390000D01*
X31632500Y-46182500D02*
X31566500Y-46182500D01*
X32310000Y-45505000D02*
X31632500Y-46182500D01*
X32310000Y-44628000D02*
X32310000Y-45505000D01*
X31603900Y-47627100D02*
X33886200Y-47627100D01*
X31566500Y-47589700D02*
X31603900Y-47627100D01*
X31566500Y-47589700D02*
X30804500Y-48351700D01*
X25458500Y-63255500D02*
X26364000Y-64161000D01*
X25458500Y-58610700D02*
X25458500Y-63255500D01*
D49*
X26364000Y-64161000D02*
X26364000Y-68361000D01*
D51*
X6644000Y-40564000D02*
X2453000Y-36373000D01*
X6644000Y-77510000D02*
X6644000Y-40564000D01*
X8422000Y-20879000D02*
X8892772Y-21349772D01*
X15493001Y-86359001D02*
X6644000Y-77510000D01*
X2453000Y-23292000D02*
X4866000Y-20879000D01*
X15493001Y-92086001D02*
X15493001Y-86359001D01*
X12000000Y-92875000D02*
X14704002Y-92875000D01*
X14704002Y-92875000D02*
X15493001Y-92086001D01*
X2453000Y-36373000D02*
X2453000Y-23292000D01*
X8892772Y-21349772D02*
X8892772Y-24241143D01*
X4866000Y-20879000D02*
X8422000Y-20879000D01*
X8892772Y-24241143D02*
X8892772Y-25091143D01*
X1437000Y-36881000D02*
X1437000Y-22784000D01*
X5628000Y-41072000D02*
X1437000Y-36881000D01*
X5628000Y-78018000D02*
X5628000Y-41072000D01*
X12446000Y-84836000D02*
X5628000Y-78018000D01*
X12000000Y-89125000D02*
X12446000Y-88679000D01*
X12446000Y-88679000D02*
X12446000Y-84836000D01*
X1437000Y-22784000D02*
X4242022Y-19978978D01*
X4242022Y-19978978D02*
X8794800Y-19978978D01*
X8794800Y-19978978D02*
X10492772Y-21676950D01*
X10492772Y-21676950D02*
X10492772Y-24241143D01*
X10492772Y-24241143D02*
X10492772Y-25091143D01*
X6136000Y-40818000D02*
X1945000Y-36627000D01*
X6136000Y-77764000D02*
X6136000Y-40818000D01*
X14010000Y-85638000D02*
X6136000Y-77764000D01*
X8608400Y-20428989D02*
X9692772Y-21513361D01*
X14010000Y-89515000D02*
X14010000Y-85638000D01*
X4554011Y-20428989D02*
X8608400Y-20428989D01*
X12000000Y-90375000D02*
X13150000Y-90375000D01*
X13150000Y-90375000D02*
X14010000Y-89515000D01*
X1945000Y-36627000D02*
X1945000Y-23038000D01*
X1945000Y-23038000D02*
X4554011Y-20428989D01*
X9692772Y-21513361D02*
X9692772Y-25091143D01*
D50*
X28486200Y-48897100D02*
X28486200Y-47627100D01*
X21775500Y-50513700D02*
X20106000Y-48844200D01*
X21775500Y-50863700D02*
X21775500Y-50513700D01*
X20106000Y-48844200D02*
X20106000Y-45216000D01*
X20106000Y-45216000D02*
X17890000Y-43000000D01*
X21775500Y-50863700D02*
X25458500Y-50863700D01*
X28486200Y-50167100D02*
X26155100Y-50167100D01*
X25458500Y-50863700D02*
X25476300Y-50863700D01*
X28486200Y-47627100D02*
X28486200Y-46357100D01*
X26155100Y-50167100D02*
X25458500Y-50863700D01*
X28486200Y-50167100D02*
X28486200Y-48897100D01*
X28486200Y-55247100D02*
X26094900Y-55247100D01*
X26094900Y-55247100D02*
X25458500Y-54610700D01*
X21775500Y-54610700D02*
X20125500Y-54610700D01*
X20125500Y-54610700D02*
X17890000Y-52375200D01*
X17890000Y-52375200D02*
X17890000Y-48648477D01*
X17890000Y-48648477D02*
X17890000Y-46810000D01*
X28486200Y-56263100D02*
X28486200Y-56898100D01*
X28486200Y-56898100D02*
X28486200Y-57533100D01*
X28486200Y-55247100D02*
X28486200Y-53977100D01*
X28486200Y-54993100D02*
X28486200Y-56263100D01*
X21775500Y-54610700D02*
X25458500Y-54610700D01*
D51*
X2961000Y-30023000D02*
X3596000Y-29388000D01*
X2961000Y-36119000D02*
X2961000Y-30023000D01*
X7406000Y-40564000D02*
X2961000Y-36119000D01*
X10881000Y-40564000D02*
X7406000Y-40564000D01*
X17890000Y-39190000D02*
X12255000Y-39190000D01*
X12255000Y-39190000D02*
X10881000Y-40564000D01*
X3596000Y-29388000D02*
X3596000Y-28691000D01*
X32781991Y-35967991D02*
X31282000Y-34468000D01*
X32781991Y-39202991D02*
X32781991Y-35967991D01*
X35600000Y-42021000D02*
X32781991Y-39202991D01*
X35600000Y-44053000D02*
X35600000Y-42021000D01*
X36646500Y-45099500D02*
X35600000Y-44053000D01*
X36646500Y-45966000D02*
X36646500Y-45099500D01*
X31282000Y-34468000D02*
X30762000Y-34468000D01*
X36646500Y-42305500D02*
X34584000Y-40243000D01*
X36646500Y-43426000D02*
X36646500Y-42305500D01*
X34584000Y-40243000D02*
X34584000Y-36266000D01*
X34584000Y-36266000D02*
X31262000Y-32944000D01*
X31262000Y-32944000D02*
X30762000Y-32944000D01*
X31282000Y-31420000D02*
X35346000Y-35484000D01*
X30762000Y-31420000D02*
X31282000Y-31420000D01*
X35346000Y-35484000D02*
X35346000Y-40235500D01*
X35346000Y-40235500D02*
X35996500Y-40886000D01*
X35996500Y-40886000D02*
X36646500Y-40886000D01*
X24495660Y-29388000D02*
X18836000Y-29388000D01*
X24940330Y-28943330D02*
X24495660Y-29388000D01*
X18836000Y-29388000D02*
X16789143Y-27341143D01*
X16789143Y-27341143D02*
X15192772Y-27341143D01*
X15192772Y-27341143D02*
X14342772Y-27341143D01*
X31776000Y-20031000D02*
X31776000Y-19777000D01*
X33300000Y-21555000D02*
X31776000Y-20031000D01*
X33300000Y-26889000D02*
X33300000Y-21555000D01*
X25511660Y-28372000D02*
X31817000Y-28372000D01*
X31817000Y-28372000D02*
X33300000Y-26889000D01*
X24940330Y-28943330D02*
X25511660Y-28372000D01*
X31776000Y-19777000D02*
X30760000Y-18761000D01*
X18582000Y-29896000D02*
X16827143Y-28141143D01*
X26075000Y-28880000D02*
X25059000Y-29896000D01*
X23394000Y-16221000D02*
X24410000Y-16221000D01*
X32071000Y-28880000D02*
X26075000Y-28880000D01*
X33808000Y-27143000D02*
X32071000Y-28880000D01*
X33808000Y-21301000D02*
X33808000Y-27143000D01*
X24410000Y-16221000D02*
X25680000Y-17491000D01*
X25059000Y-29896000D02*
X18582000Y-29896000D01*
X32792000Y-20285000D02*
X33808000Y-21301000D01*
X25680000Y-17491000D02*
X31775002Y-17491000D01*
X10694000Y-7750314D02*
X12306686Y-9363000D01*
X10694000Y-6529000D02*
X10694000Y-7750314D01*
X31775002Y-17491000D02*
X32792000Y-18507998D01*
X12306686Y-9363000D02*
X16536000Y-9363000D01*
X16827143Y-28141143D02*
X15192772Y-28141143D01*
X32792000Y-18507998D02*
X32792000Y-20285000D01*
X16536000Y-9363000D02*
X23394000Y-16221000D01*
X15192772Y-28141143D02*
X14342772Y-28141143D01*
X32325000Y-29388000D02*
X26203411Y-29388000D01*
X34316000Y-27397000D02*
X32325000Y-29388000D01*
X33300000Y-20156590D02*
X34316000Y-21172590D01*
X11964000Y-5807000D02*
X11964000Y-7331000D01*
X33300000Y-18253000D02*
X33300000Y-20156590D01*
X26087412Y-17008001D02*
X32055001Y-17008001D01*
X16790000Y-8855000D02*
X23648000Y-15713000D01*
X34316000Y-21172590D02*
X34316000Y-27397000D01*
X32055001Y-17008001D02*
X33300000Y-18253000D01*
X24792411Y-15713000D02*
X26087412Y-17008001D01*
X9384000Y-5299000D02*
X11456000Y-5299000D01*
X8154000Y-6529000D02*
X9384000Y-5299000D01*
X23648000Y-15713000D02*
X24792411Y-15713000D01*
X11964000Y-7331000D02*
X13488000Y-8855000D01*
X11456000Y-5299000D02*
X11964000Y-5807000D01*
X13488000Y-8855000D02*
X16790000Y-8855000D01*
X26203411Y-29388000D02*
X25187411Y-30404000D01*
X25187411Y-30404000D02*
X18328000Y-30404000D01*
X18328000Y-30404000D02*
X16865143Y-28941143D01*
X16865143Y-28941143D02*
X15192772Y-28941143D01*
X15192772Y-28941143D02*
X14342772Y-28941143D01*
X9438000Y-38024000D02*
X7406000Y-35992000D01*
X16296000Y-38024000D02*
X9438000Y-38024000D01*
X17058000Y-37262000D02*
X16296000Y-38024000D01*
X27516000Y-39516000D02*
X25262000Y-37262000D01*
X25262000Y-37262000D02*
X17058000Y-37262000D01*
X27516000Y-41769500D02*
X27516000Y-39516000D01*
X7406000Y-35992000D02*
X4358000Y-35992000D01*
X4358000Y-35992000D02*
X4104000Y-35738000D01*
X4104000Y-35738000D02*
X4104000Y-35218000D01*
X33810000Y-46280900D02*
X33886200Y-46357100D01*
X33810000Y-44628000D02*
X33810000Y-46280900D01*
X34361200Y-46357100D02*
X33886200Y-46357100D01*
X34361200Y-48897100D02*
X34986201Y-48272099D01*
X34986201Y-47627100D02*
X34986201Y-46982101D01*
X34986201Y-46982101D02*
X34361200Y-46357100D01*
X33886200Y-48897100D02*
X34361200Y-48897100D01*
X34986201Y-48272099D02*
X34986201Y-47627100D01*
X31028000Y-44628000D02*
X28234000Y-44628000D01*
X28234000Y-44628000D02*
X27375500Y-43769500D01*
X33810000Y-44628000D02*
X33810000Y-44428000D01*
X33234999Y-43852999D02*
X31803001Y-43852999D01*
X31803001Y-43852999D02*
X31028000Y-44628000D01*
X33810000Y-44428000D02*
X33234999Y-43852999D01*
X27375500Y-43769500D02*
X26566000Y-43769500D01*
X31124500Y-43769500D02*
X31491011Y-43402989D01*
X30249000Y-43769500D02*
X31124500Y-43769500D01*
X31491011Y-43402989D02*
X34120989Y-43402989D01*
X34120989Y-43402989D02*
X35436211Y-44718211D01*
X35436211Y-44718211D02*
X35436211Y-53407589D01*
X35436211Y-53407589D02*
X34986201Y-53857599D01*
X32304500Y-52199100D02*
X32304500Y-53304700D01*
X32304500Y-53304700D02*
X32951500Y-53951700D01*
X34361200Y-56517100D02*
X34986201Y-55892099D01*
X34986201Y-54111599D02*
X34851702Y-53977100D01*
X34986201Y-54111599D02*
X34986201Y-53857599D01*
X34361200Y-53977100D02*
X33886200Y-53977100D01*
X33886200Y-53977100D02*
X34851702Y-53977100D01*
X33886200Y-56517100D02*
X34361200Y-56517100D01*
X34986201Y-55892099D02*
X34986201Y-54111599D01*
X33860800Y-53951700D02*
X33886200Y-53977100D01*
X34851702Y-53977100D02*
X34978702Y-53850100D01*
X32951500Y-53951700D02*
X33860800Y-53951700D01*
X34986201Y-53857599D02*
X34978702Y-53850100D01*
X9692000Y-37516000D02*
X7394000Y-35218000D01*
X16042000Y-37516000D02*
X9692000Y-37516000D01*
X16804000Y-36754000D02*
X16042000Y-37516000D01*
X28754000Y-36754000D02*
X16804000Y-36754000D01*
X31199000Y-41769500D02*
X31199000Y-39199000D01*
X31199000Y-39199000D02*
X28754000Y-36754000D01*
X7394000Y-35218000D02*
X5755000Y-35218000D01*
X15192772Y-29741143D02*
X14342772Y-29741143D01*
X16903143Y-29741143D02*
X15192772Y-29741143D01*
X18074000Y-30912000D02*
X16903143Y-29741143D01*
X25567000Y-30912000D02*
X18074000Y-30912000D01*
X36116900Y-20516100D02*
X34824000Y-21809000D01*
X26583000Y-29896000D02*
X25567000Y-30912000D01*
X36116900Y-19884300D02*
X36116900Y-20516100D01*
X34824000Y-21809000D02*
X34824000Y-27651000D01*
X34824000Y-27651000D02*
X32579000Y-29896000D01*
X32579000Y-29896000D02*
X26583000Y-29896000D01*
X31563000Y-27864000D02*
X24932000Y-27864000D01*
X32792000Y-26635000D02*
X31563000Y-27864000D01*
X32792000Y-21809000D02*
X32792000Y-26635000D01*
X31014000Y-20031000D02*
X32792000Y-21809000D01*
X25680000Y-18761000D02*
X26950000Y-20031000D01*
X26950000Y-20031000D02*
X31014000Y-20031000D01*
X24932000Y-27864000D02*
X23916000Y-28880000D01*
X23916000Y-28880000D02*
X19091410Y-28880000D01*
X19091410Y-28880000D02*
X16752553Y-26541143D01*
X16752553Y-26541143D02*
X15192772Y-26541143D01*
X15192772Y-26541143D02*
X14342772Y-26541143D01*
X8092772Y-24241143D02*
X8086317Y-24241143D01*
X8086317Y-24241143D02*
X7937876Y-24092702D01*
X7937876Y-24092702D02*
X7937876Y-23392702D01*
X8041000Y-24189371D02*
X8092772Y-24241143D01*
X8092772Y-25091143D02*
X8092772Y-24241143D01*
X7949876Y-21868702D02*
X7937876Y-21880702D01*
X7937876Y-21880702D02*
X7937876Y-23392702D01*
D10*
X38246500Y-40886000D02*
X38246500Y-40186000D01*
X38246500Y-43426000D02*
X38246500Y-40886000D01*
X38246500Y-45966000D02*
X38246500Y-43426000D01*
X19380800Y-21742600D02*
X18237800Y-21742600D01*
D50*
X31748859Y-23757541D02*
X31748859Y-25547541D01*
D10*
X18237800Y-21742600D02*
X17348800Y-20853600D01*
D50*
X30718859Y-26577541D02*
X31748859Y-25547541D01*
X30718859Y-26577541D02*
X29818859Y-26577541D01*
D10*
X14454207Y-33612535D02*
X14454207Y-34838191D01*
X14422628Y-33580956D02*
X14454207Y-33612535D01*
D51*
X5842772Y-27341143D02*
X3646143Y-27341143D01*
X3646143Y-27341143D02*
X3596000Y-27291000D01*
X15774000Y-18761000D02*
X15774000Y-18886590D01*
X15774000Y-18886590D02*
X12092772Y-22567818D01*
X12092772Y-22567818D02*
X12092772Y-24241143D01*
X12092772Y-24241143D02*
X12092772Y-25091143D01*
X17298000Y-17237000D02*
X15774000Y-18761000D01*
X17298000Y-13681000D02*
X17298000Y-17237000D01*
X16282000Y-12665000D02*
X17298000Y-13681000D01*
X12178000Y-12665000D02*
X16282000Y-12665000D01*
X10694000Y-14149000D02*
X12178000Y-12665000D01*
X7606000Y-12157000D02*
X16410410Y-12157000D01*
X5614000Y-14149000D02*
X7606000Y-12157000D01*
X16410410Y-12157000D02*
X17806000Y-13552590D01*
X17806000Y-13552590D02*
X17806000Y-17491000D01*
X17806000Y-17491000D02*
X12892772Y-22404228D01*
X12892772Y-22404228D02*
X12892772Y-25091143D01*
X4104000Y-31429915D02*
X4104000Y-33718000D01*
X5842772Y-30541143D02*
X4992772Y-30541143D01*
X4992772Y-30541143D02*
X4104000Y-31429915D01*
X4612000Y-31801000D02*
X4612000Y-32775000D01*
X4612000Y-32775000D02*
X5555000Y-33718000D01*
X5555000Y-33718000D02*
X5755000Y-33718000D01*
X5071857Y-31341143D02*
X4612000Y-31801000D01*
X5842772Y-31341143D02*
X5071857Y-31341143D01*
X27218000Y-32944000D02*
X28742000Y-34468000D01*
X19852000Y-32944000D02*
X27218000Y-32944000D01*
X15788000Y-37008000D02*
X19852000Y-32944000D01*
X9859629Y-37008000D02*
X15788000Y-37008000D01*
X7292772Y-33591143D02*
X7292772Y-34441143D01*
X28742000Y-34468000D02*
X28762000Y-34468000D01*
X7292772Y-34441143D02*
X9859629Y-37008000D01*
X28762000Y-34468000D02*
X29262000Y-34468000D01*
X28762000Y-32944000D02*
X29262000Y-32944000D01*
X28254000Y-32436000D02*
X28762000Y-32944000D01*
X19598000Y-32436000D02*
X28254000Y-32436000D01*
X15534000Y-36500000D02*
X19598000Y-32436000D01*
X10315219Y-36500000D02*
X15534000Y-36500000D01*
X8092772Y-34277553D02*
X10315219Y-36500000D01*
X8092772Y-33591143D02*
X8092772Y-34277553D01*
X8892772Y-33591143D02*
X8892772Y-34441143D01*
X19344000Y-31928000D02*
X28254000Y-31928000D01*
X8892772Y-34441143D02*
X10443629Y-35992000D01*
X10443629Y-35992000D02*
X15280000Y-35992000D01*
X15280000Y-35992000D02*
X19344000Y-31928000D01*
X28254000Y-31928000D02*
X28762000Y-31420000D01*
X28762000Y-31420000D02*
X29262000Y-31420000D01*
X36856000Y-26381000D02*
X32833000Y-30404000D01*
X17820000Y-31420000D02*
X16941143Y-30541143D01*
X32833000Y-30404000D02*
X26837000Y-30404000D01*
X26837000Y-30404000D02*
X25821000Y-31420000D01*
X25821000Y-31420000D02*
X17820000Y-31420000D01*
X16941143Y-30541143D02*
X14342772Y-30541143D01*
X36856000Y-23951000D02*
X36856000Y-26381000D01*
D10*
X7608000Y-122682000D02*
X10464000Y-122682000D01*
D51*
X10464000Y-122682000D02*
X10540000Y-122606000D01*
D10*
X10540000Y-135764000D02*
X3048000Y-143256000D01*
X10540000Y-122606000D02*
X10540000Y-135764000D01*
X3048000Y-143256000D02*
X3048000Y-163680000D01*
X3048000Y-163680000D02*
X3638000Y-164270000D01*
X3638000Y-164270000D02*
X9630000Y-164270000D01*
D50*
X33886200Y-59585800D02*
X31864000Y-61608000D01*
X33886200Y-57787100D02*
X33886200Y-59585800D01*
X31864000Y-61608000D02*
X31864000Y-64161000D01*
X33886200Y-50167100D02*
X33886200Y-52001000D01*
X33886200Y-52001000D02*
X33840500Y-52046700D01*
X17734000Y-162964000D02*
X19880000Y-162964000D01*
X19880000Y-162964000D02*
X20106000Y-162738000D01*
X13704000Y-156718000D02*
X15240000Y-156718000D01*
X13704000Y-169418000D02*
X15240000Y-169418000D01*
D10*
X25123500Y-41769500D02*
X25616000Y-41769500D01*
D50*
X21775500Y-60775500D02*
X21884000Y-60884000D01*
X21775500Y-58610700D02*
X21775500Y-60775500D01*
D10*
X26572500Y-42776000D02*
X28342500Y-42776000D01*
D50*
X21775500Y-46863700D02*
X21775500Y-44801500D01*
D10*
X25616000Y-41819500D02*
X26572500Y-42776000D01*
X28342500Y-42776000D02*
X29299000Y-41819500D01*
X25123500Y-41769500D02*
X24170000Y-42723000D01*
D50*
X14940000Y-122606000D02*
X17566000Y-122606000D01*
D10*
X30098859Y-22257541D02*
X31748859Y-22257541D01*
X29818859Y-21977541D02*
X30098859Y-22257541D01*
X31748859Y-22257541D02*
X31748859Y-22282541D01*
X23632183Y-27635183D02*
X23140000Y-27143000D01*
X23879670Y-27882670D02*
X23632183Y-27635183D01*
X23518859Y-24277541D02*
X24818859Y-24277541D01*
X24818859Y-24277541D02*
X29818859Y-24277541D01*
X23518859Y-20409859D02*
X23140000Y-20031000D01*
X23140000Y-20031000D02*
X23140000Y-18761000D01*
X23518859Y-24277541D02*
X23518859Y-20409859D01*
X23518859Y-24277541D02*
X20545859Y-24277541D01*
X20545859Y-24277541D02*
X19380800Y-25442600D01*
X19380800Y-25442600D02*
X19380800Y-26142600D01*
X23140000Y-27143000D02*
X23518859Y-26764141D01*
X23518859Y-26764141D02*
X23518859Y-24277541D01*
D51*
X5614000Y-3013000D02*
X7392000Y-1235000D01*
X5614000Y-3989000D02*
X5614000Y-3013000D01*
X7392000Y-1235000D02*
X22632000Y-1235000D01*
X22632000Y-1235000D02*
X36116900Y-14719900D01*
X36116900Y-14719900D02*
X36116900Y-17564300D01*
X37872000Y-18011000D02*
X36563600Y-18011000D01*
X36563600Y-18011000D02*
X36116900Y-17564300D01*
X37872000Y-19511000D02*
X36490200Y-19511000D01*
X36490200Y-19511000D02*
X36116900Y-19884300D01*
X21576000Y-3989000D02*
X23860000Y-6273000D01*
X15774000Y-3989000D02*
X21576000Y-3989000D01*
X23860000Y-6273000D02*
X23860000Y-10973000D01*
X10400000Y-1743000D02*
X22378000Y-1743000D01*
X8154000Y-3989000D02*
X10400000Y-1743000D01*
X22378000Y-1743000D02*
X31430000Y-10795000D01*
X31430000Y-10795000D02*
X31430000Y-13433000D01*
X31430000Y-13433000D02*
X31430000Y-15183000D01*
X14464000Y-2759000D02*
X21870000Y-2759000D01*
X13234000Y-3989000D02*
X14464000Y-2759000D01*
X21870000Y-2759000D02*
X26930000Y-7819000D01*
X26930000Y-7819000D02*
X26930000Y-15183000D01*
X12432000Y-2251000D02*
X22124000Y-2251000D01*
X10694000Y-3989000D02*
X12432000Y-2251000D01*
X22124000Y-2251000D02*
X29430000Y-9557000D01*
X29430000Y-9557000D02*
X29430000Y-13433000D01*
X29430000Y-13433000D02*
X29430000Y-15183000D01*
X35166900Y-17564300D02*
X35166900Y-15669900D01*
X35166900Y-15669900D02*
X34680000Y-15183000D01*
X34680000Y-15183000D02*
X33930000Y-15183000D01*
X35166900Y-18724300D02*
X35166900Y-19884300D01*
X35166900Y-18724300D02*
X35166900Y-17564300D01*
X34216900Y-18536300D02*
X34216900Y-17564300D01*
X34404900Y-18724300D02*
X34216900Y-18536300D01*
X34216900Y-18912300D02*
X34216900Y-19884300D01*
X34404900Y-18724300D02*
X34216900Y-18912300D01*
X35166900Y-18724300D02*
X34404900Y-18724300D01*
D50*
X33782000Y-157868000D02*
X32914000Y-157000000D01*
X33782000Y-168402000D02*
X33782000Y-157868000D01*
X32914000Y-157000000D02*
X30814000Y-157000000D01*
X32766000Y-169418000D02*
X33782000Y-168402000D01*
X26670000Y-169418000D02*
X32766000Y-169418000D01*
X13716000Y-166624000D02*
X23876000Y-166624000D01*
X23876000Y-166624000D02*
X26670000Y-169418000D01*
X12216000Y-166624000D02*
X9816000Y-166624000D01*
X9816000Y-166624000D02*
X9630000Y-166810000D01*
X5920000Y-168080000D02*
X7190000Y-166810000D01*
X4550000Y-168080000D02*
X5920000Y-168080000D01*
X7190000Y-166810000D02*
X9630000Y-166810000D01*
X12204000Y-159258000D02*
X9698000Y-159258000D01*
X9698000Y-159258000D02*
X9630000Y-159190000D01*
X5920000Y-157920000D02*
X7190000Y-159190000D01*
X4550000Y-157920000D02*
X5920000Y-157920000D01*
X7190000Y-159190000D02*
X9630000Y-159190000D01*
X20828000Y-159258000D02*
X28570000Y-167000000D01*
X28570000Y-167000000D02*
X30814000Y-167000000D01*
X13704000Y-159258000D02*
X20828000Y-159258000D01*
D49*
X4550000Y-174550000D02*
X10650000Y-180650000D01*
X4550000Y-170620000D02*
X4550000Y-174550000D01*
X10650000Y-180650000D02*
X24770000Y-180650000D01*
X28888000Y-171890000D02*
X32512000Y-175514000D01*
X9630000Y-171890000D02*
X28888000Y-171890000D01*
X32512000Y-175514000D02*
X32512000Y-186878000D01*
X32512000Y-186878000D02*
X29210000Y-190180000D01*
D50*
X9630000Y-154110000D02*
X9684000Y-154110000D01*
X9684000Y-154110000D02*
X21614000Y-142180000D01*
X21614000Y-142180000D02*
X29210000Y-142180000D01*
X4550000Y-150227000D02*
X22127000Y-132650000D01*
X4550000Y-155380000D02*
X4550000Y-150227000D01*
X22127000Y-132650000D02*
X24770000Y-132650000D01*
D10*
X11752000Y-165540000D02*
X13334000Y-163958000D01*
X4550000Y-165540000D02*
X11752000Y-165540000D01*
X13334000Y-163958000D02*
X13334000Y-162964000D01*
D52*
G36*
X24816253Y-21039411D02*
X24860047Y-21104953D01*
X24925589Y-21148747D01*
X24925591Y-21148749D01*
X25052927Y-21233832D01*
X25119708Y-21278454D01*
X25348684Y-21324000D01*
X25348688Y-21324000D01*
X25426000Y-21339378D01*
X25503312Y-21324000D01*
X28171419Y-21324000D01*
X28171419Y-22727541D01*
X28220702Y-22975306D01*
X28321786Y-23126588D01*
X28280532Y-23167842D01*
X28183859Y-23401231D01*
X28183859Y-23991791D01*
X28342609Y-24150541D01*
X29691859Y-24150541D01*
X29691859Y-24130541D01*
X29945859Y-24130541D01*
X29945859Y-24150541D01*
X29965859Y-24150541D01*
X29965859Y-24404541D01*
X29945859Y-24404541D01*
X29945859Y-24424541D01*
X29691859Y-24424541D01*
X29691859Y-24404541D01*
X28342609Y-24404541D01*
X28183859Y-24563291D01*
X28183859Y-25153851D01*
X28280532Y-25387240D01*
X28321786Y-25428494D01*
X28220702Y-25579776D01*
X28171419Y-25827541D01*
X28171419Y-27104000D01*
X25006847Y-27104000D01*
X24932000Y-27089112D01*
X24857153Y-27104000D01*
X24857148Y-27104000D01*
X24635463Y-27148096D01*
X24384071Y-27316071D01*
X24341671Y-27379527D01*
X23755154Y-27966044D01*
X23687337Y-27898227D01*
X23701479Y-27884084D01*
X23276331Y-27458936D01*
X23051825Y-27458936D01*
X22846368Y-27664393D01*
X22749695Y-27897782D01*
X22749696Y-28032000D01*
X21997000Y-28032000D01*
X21997000Y-27054825D01*
X23455936Y-27054825D01*
X23455936Y-27279331D01*
X23881084Y-27704479D01*
X24446239Y-27139324D01*
X24446239Y-26914818D01*
X24380790Y-26849368D01*
X24291881Y-26812541D01*
X24645168Y-26812541D01*
X24878557Y-26715868D01*
X25057186Y-26537240D01*
X25153859Y-26303851D01*
X25153859Y-24563291D01*
X24995109Y-24404541D01*
X23645859Y-24404541D01*
X23645859Y-26653791D01*
X23788703Y-26796635D01*
X23661393Y-26849368D01*
X23455936Y-27054825D01*
X21997000Y-27054825D01*
X21997000Y-26553708D01*
X22159161Y-26715868D01*
X22392550Y-26812541D01*
X23233109Y-26812541D01*
X23391859Y-26653791D01*
X23391859Y-24404541D01*
X23371859Y-24404541D01*
X23371859Y-24150541D01*
X23391859Y-24150541D01*
X23391859Y-21901291D01*
X23645859Y-21901291D01*
X23645859Y-24150541D01*
X24995109Y-24150541D01*
X25153859Y-23991791D01*
X25153859Y-22251231D01*
X25057186Y-22017842D01*
X24878557Y-21839214D01*
X24645168Y-21742541D01*
X23804609Y-21742541D01*
X23645859Y-21901291D01*
X23391859Y-21901291D01*
X23233109Y-21742541D01*
X22392550Y-21742541D01*
X22159161Y-21839214D01*
X21997000Y-22001374D01*
X21997000Y-20412000D01*
X24188843Y-20412000D01*
X24816253Y-21039411D01*
X24816253Y-21039411D01*
G37*
X24816253Y-21039411D02*
X24860047Y-21104953D01*
X24925589Y-21148747D01*
X24925591Y-21148749D01*
X25052927Y-21233832D01*
X25119708Y-21278454D01*
X25348684Y-21324000D01*
X25348688Y-21324000D01*
X25426000Y-21339378D01*
X25503312Y-21324000D01*
X28171419Y-21324000D01*
X28171419Y-22727541D01*
X28220702Y-22975306D01*
X28321786Y-23126588D01*
X28280532Y-23167842D01*
X28183859Y-23401231D01*
X28183859Y-23991791D01*
X28342609Y-24150541D01*
X29691859Y-24150541D01*
X29691859Y-24130541D01*
X29945859Y-24130541D01*
X29945859Y-24150541D01*
X29965859Y-24150541D01*
X29965859Y-24404541D01*
X29945859Y-24404541D01*
X29945859Y-24424541D01*
X29691859Y-24424541D01*
X29691859Y-24404541D01*
X28342609Y-24404541D01*
X28183859Y-24563291D01*
X28183859Y-25153851D01*
X28280532Y-25387240D01*
X28321786Y-25428494D01*
X28220702Y-25579776D01*
X28171419Y-25827541D01*
X28171419Y-27104000D01*
X25006847Y-27104000D01*
X24932000Y-27089112D01*
X24857153Y-27104000D01*
X24857148Y-27104000D01*
X24635463Y-27148096D01*
X24384071Y-27316071D01*
X24341671Y-27379527D01*
X23755154Y-27966044D01*
X23687337Y-27898227D01*
X23701479Y-27884084D01*
X23276331Y-27458936D01*
X23051825Y-27458936D01*
X22846368Y-27664393D01*
X22749695Y-27897782D01*
X22749696Y-28032000D01*
X21997000Y-28032000D01*
X21997000Y-27054825D01*
X23455936Y-27054825D01*
X23455936Y-27279331D01*
X23881084Y-27704479D01*
X24446239Y-27139324D01*
X24446239Y-26914818D01*
X24380790Y-26849368D01*
X24291881Y-26812541D01*
X24645168Y-26812541D01*
X24878557Y-26715868D01*
X25057186Y-26537240D01*
X25153859Y-26303851D01*
X25153859Y-24563291D01*
X24995109Y-24404541D01*
X23645859Y-24404541D01*
X23645859Y-26653791D01*
X23788703Y-26796635D01*
X23661393Y-26849368D01*
X23455936Y-27054825D01*
X21997000Y-27054825D01*
X21997000Y-26553708D01*
X22159161Y-26715868D01*
X22392550Y-26812541D01*
X23233109Y-26812541D01*
X23391859Y-26653791D01*
X23391859Y-24404541D01*
X23371859Y-24404541D01*
X23371859Y-24150541D01*
X23391859Y-24150541D01*
X23391859Y-21901291D01*
X23645859Y-21901291D01*
X23645859Y-24150541D01*
X24995109Y-24150541D01*
X25153859Y-23991791D01*
X25153859Y-22251231D01*
X25057186Y-22017842D01*
X24878557Y-21839214D01*
X24645168Y-21742541D01*
X23804609Y-21742541D01*
X23645859Y-21901291D01*
X23391859Y-21901291D01*
X23233109Y-21742541D01*
X22392550Y-21742541D01*
X22159161Y-21839214D01*
X21997000Y-22001374D01*
X21997000Y-20412000D01*
X24188843Y-20412000D01*
X24816253Y-21039411D01*
G36*
X38290000Y-50469606D02*
X38290001Y-155865000D01*
X38088234Y-155865000D01*
X37671074Y-156037793D01*
X37351793Y-156357074D01*
X37179000Y-156774234D01*
X37179000Y-157225766D01*
X37351793Y-157642926D01*
X37671074Y-157962207D01*
X38088234Y-158135000D01*
X38290001Y-158135000D01*
X38290001Y-165865000D01*
X38088234Y-165865000D01*
X37671074Y-166037793D01*
X37351793Y-166357074D01*
X37179000Y-166774234D01*
X37179000Y-167225766D01*
X37351793Y-167642926D01*
X37671074Y-167962207D01*
X38088234Y-168135000D01*
X38290001Y-168135000D01*
X38290001Y-199290000D01*
X710000Y-199290000D01*
X710000Y-176870817D01*
X9729690Y-185890508D01*
X9815327Y-186018673D01*
X10323073Y-186357938D01*
X10770818Y-186447000D01*
X10770822Y-186447000D01*
X10921999Y-186477071D01*
X11073176Y-186447000D01*
X26518823Y-186447000D01*
X26670000Y-186477071D01*
X26821177Y-186447000D01*
X26821182Y-186447000D01*
X27268927Y-186357938D01*
X27776673Y-186018673D01*
X27862312Y-185890505D01*
X29680507Y-184072311D01*
X29808673Y-183986673D01*
X30147938Y-183478927D01*
X30237000Y-183031182D01*
X30237000Y-183031177D01*
X30267071Y-182880000D01*
X30237000Y-182728823D01*
X30237000Y-178713177D01*
X30267071Y-178562000D01*
X30237000Y-178410823D01*
X30237000Y-178410818D01*
X30147938Y-177963073D01*
X29808673Y-177455327D01*
X29680508Y-177369690D01*
X27862312Y-175551495D01*
X27776673Y-175423327D01*
X27268927Y-175084062D01*
X26821182Y-174995000D01*
X26821177Y-174995000D01*
X26670000Y-174964929D01*
X26518823Y-174995000D01*
X11165818Y-174995000D01*
X9595817Y-173425000D01*
X28252183Y-173425000D01*
X30977000Y-176149818D01*
X30977001Y-186242181D01*
X28710045Y-188509137D01*
X28227201Y-188709138D01*
X27739138Y-189197201D01*
X27475000Y-189834887D01*
X27475000Y-190525113D01*
X27739138Y-191162799D01*
X28227201Y-191650862D01*
X28864887Y-191915000D01*
X29555113Y-191915000D01*
X30192799Y-191650862D01*
X30680862Y-191162799D01*
X30880863Y-190679955D01*
X33490507Y-188070310D01*
X33618673Y-187984673D01*
X33957938Y-187476927D01*
X34047000Y-187029182D01*
X34047000Y-187029178D01*
X34077071Y-186878001D01*
X34047000Y-186726824D01*
X34047000Y-175665181D01*
X34077072Y-175514000D01*
X33991552Y-175084063D01*
X33957938Y-174915073D01*
X33618673Y-174407327D01*
X33490508Y-174321690D01*
X30080312Y-170911495D01*
X29994673Y-170783327D01*
X29486927Y-170444062D01*
X29406178Y-170428000D01*
X32666529Y-170428000D01*
X32766000Y-170447786D01*
X32865471Y-170428000D01*
X32865476Y-170428000D01*
X33160082Y-170369399D01*
X33494169Y-170146169D01*
X33550517Y-170061838D01*
X34425840Y-169186515D01*
X34510169Y-169130169D01*
X34566516Y-169045840D01*
X34566518Y-169045838D01*
X34687671Y-168864518D01*
X34733399Y-168796082D01*
X34792000Y-168501476D01*
X34792000Y-168501471D01*
X34811786Y-168402000D01*
X34792000Y-168302529D01*
X34792000Y-167498573D01*
X34851793Y-167642926D01*
X35171074Y-167962207D01*
X35588234Y-168135000D01*
X36039766Y-168135000D01*
X36456926Y-167962207D01*
X36776207Y-167642926D01*
X36949000Y-167225766D01*
X36949000Y-166774234D01*
X36776207Y-166357074D01*
X36456926Y-166037793D01*
X36039766Y-165865000D01*
X35588234Y-165865000D01*
X35171074Y-166037793D01*
X34851793Y-166357074D01*
X34792000Y-166501427D01*
X34792000Y-163963227D01*
X34964000Y-163997440D01*
X36664000Y-163997440D01*
X36911765Y-163948157D01*
X37121809Y-163807809D01*
X37262157Y-163597765D01*
X37311440Y-163350000D01*
X37311440Y-160650000D01*
X37262157Y-160402235D01*
X37121809Y-160192191D01*
X36911765Y-160051843D01*
X36664000Y-160002560D01*
X34964000Y-160002560D01*
X34792000Y-160036773D01*
X34792000Y-157967470D01*
X34811786Y-157867999D01*
X34792000Y-157768528D01*
X34792000Y-157768524D01*
X34733399Y-157473918D01*
X34510169Y-157139831D01*
X34425837Y-157083482D01*
X34116589Y-156774234D01*
X34679000Y-156774234D01*
X34679000Y-157225766D01*
X34851793Y-157642926D01*
X35171074Y-157962207D01*
X35588234Y-158135000D01*
X36039766Y-158135000D01*
X36456926Y-157962207D01*
X36776207Y-157642926D01*
X36949000Y-157225766D01*
X36949000Y-156774234D01*
X36776207Y-156357074D01*
X36456926Y-156037793D01*
X36039766Y-155865000D01*
X35588234Y-155865000D01*
X35171074Y-156037793D01*
X34851793Y-156357074D01*
X34679000Y-156774234D01*
X34116589Y-156774234D01*
X33698518Y-156356163D01*
X33642169Y-156271831D01*
X33308082Y-156048601D01*
X33013476Y-155990000D01*
X33013471Y-155990000D01*
X32914000Y-155970214D01*
X32814529Y-155990000D01*
X32779614Y-155990000D01*
X32762157Y-155902235D01*
X32621809Y-155692191D01*
X32411765Y-155551843D01*
X32164000Y-155502560D01*
X29464000Y-155502560D01*
X29216235Y-155551843D01*
X29006191Y-155692191D01*
X28865843Y-155902235D01*
X28816560Y-156150000D01*
X28816560Y-157850000D01*
X28865843Y-158097765D01*
X28967564Y-158250000D01*
X28865843Y-158402235D01*
X28816560Y-158650000D01*
X28816560Y-160350000D01*
X28865843Y-160597765D01*
X29006191Y-160807809D01*
X29216235Y-160948157D01*
X29464000Y-160997440D01*
X30268495Y-160997440D01*
X30171074Y-161037793D01*
X29851793Y-161357074D01*
X29679000Y-161774234D01*
X29679000Y-162225766D01*
X29851793Y-162642926D01*
X30171074Y-162962207D01*
X30268495Y-163002560D01*
X29464000Y-163002560D01*
X29216235Y-163051843D01*
X29006191Y-163192191D01*
X28865843Y-163402235D01*
X28816560Y-163650000D01*
X28816560Y-165350000D01*
X28865843Y-165597765D01*
X28967564Y-165750000D01*
X28879761Y-165881406D01*
X21612518Y-158614163D01*
X21556169Y-158529831D01*
X21222082Y-158306601D01*
X20927476Y-158248000D01*
X20927471Y-158248000D01*
X20828000Y-158228214D01*
X20728529Y-158248000D01*
X14166541Y-158248000D01*
X14104000Y-158235560D01*
X13304000Y-158235560D01*
X13056235Y-158284843D01*
X12954000Y-158353155D01*
X12851765Y-158284843D01*
X12604000Y-158235560D01*
X11804000Y-158235560D01*
X11741459Y-158248000D01*
X10717396Y-158248000D01*
X10442862Y-157973466D01*
X10423946Y-157965631D01*
X10736673Y-157756673D01*
X10755832Y-157728000D01*
X11741459Y-157728000D01*
X11804000Y-157740440D01*
X12604000Y-157740440D01*
X12851765Y-157691157D01*
X12943102Y-157630127D01*
X12944302Y-157631327D01*
X13177691Y-157728000D01*
X13418250Y-157728000D01*
X13577000Y-157569250D01*
X13577000Y-156845000D01*
X13831000Y-156845000D01*
X13831000Y-157569250D01*
X13989750Y-157728000D01*
X14230309Y-157728000D01*
X14463698Y-157631327D01*
X14642327Y-157452699D01*
X14739000Y-157219310D01*
X14739000Y-157003750D01*
X14580250Y-156845000D01*
X13831000Y-156845000D01*
X13577000Y-156845000D01*
X13557000Y-156845000D01*
X13557000Y-156591000D01*
X13577000Y-156591000D01*
X13577000Y-155866750D01*
X13831000Y-155866750D01*
X13831000Y-156591000D01*
X14580250Y-156591000D01*
X14739000Y-156432250D01*
X14739000Y-156216690D01*
X14642327Y-155983301D01*
X14463698Y-155804673D01*
X14230309Y-155708000D01*
X13989750Y-155708000D01*
X13831000Y-155866750D01*
X13577000Y-155866750D01*
X13418250Y-155708000D01*
X13177691Y-155708000D01*
X12944302Y-155804673D01*
X12943102Y-155805873D01*
X12851765Y-155744843D01*
X12604000Y-155695560D01*
X11804000Y-155695560D01*
X11741459Y-155708000D01*
X10846704Y-155708000D01*
X10736673Y-155543327D01*
X10423946Y-155334369D01*
X10442862Y-155326534D01*
X10846534Y-154922862D01*
X11065000Y-154395439D01*
X11065000Y-154157355D01*
X22032356Y-143190000D01*
X27766339Y-143190000D01*
X28227201Y-143650862D01*
X28864887Y-143915000D01*
X29555113Y-143915000D01*
X30192799Y-143650862D01*
X30680862Y-143162799D01*
X30945000Y-142525113D01*
X30945000Y-141834887D01*
X30680862Y-141197201D01*
X30192799Y-140709138D01*
X29555113Y-140445000D01*
X28864887Y-140445000D01*
X28227201Y-140709138D01*
X27766339Y-141170000D01*
X21713471Y-141170000D01*
X21614000Y-141150214D01*
X21514529Y-141170000D01*
X21514524Y-141170000D01*
X21219918Y-141228601D01*
X21219916Y-141228602D01*
X21219917Y-141228602D01*
X20970162Y-141395482D01*
X20970160Y-141395484D01*
X20885831Y-141451831D01*
X20829484Y-141536160D01*
X9690645Y-152675000D01*
X9344561Y-152675000D01*
X8817138Y-152893466D01*
X8647000Y-153063604D01*
X8647000Y-152745817D01*
X22443818Y-138949000D01*
X26264823Y-138949000D01*
X26416000Y-138979071D01*
X26567177Y-138949000D01*
X26567182Y-138949000D01*
X27014927Y-138859938D01*
X27522673Y-138520673D01*
X27608312Y-138392505D01*
X30978508Y-135022310D01*
X31106673Y-134936673D01*
X31445938Y-134428927D01*
X31535000Y-133981182D01*
X31535000Y-133981178D01*
X31565071Y-133830001D01*
X31535000Y-133678824D01*
X31535000Y-122151182D01*
X31565072Y-122000000D01*
X31445938Y-121401073D01*
X31335681Y-121236062D01*
X31106673Y-120893327D01*
X30978505Y-120807688D01*
X16472312Y-106301495D01*
X16386673Y-106173327D01*
X15878927Y-105834062D01*
X15431182Y-105745000D01*
X15431177Y-105745000D01*
X15280000Y-105714929D01*
X15128823Y-105745000D01*
X14739868Y-105745000D01*
X14657809Y-105622191D01*
X14535000Y-105540132D01*
X14535000Y-105491817D01*
X27342508Y-92684310D01*
X27470673Y-92598673D01*
X27809938Y-92090927D01*
X27899000Y-91643182D01*
X27899000Y-91643178D01*
X27929071Y-91492001D01*
X27899000Y-91340824D01*
X27899000Y-90965000D01*
X30935000Y-90965000D01*
X30935000Y-117035000D01*
X37305000Y-117035000D01*
X37305000Y-90965000D01*
X30935000Y-90965000D01*
X27899000Y-90965000D01*
X27899000Y-69802724D01*
X30601882Y-69802724D01*
X30749455Y-70111106D01*
X31504031Y-70404405D01*
X32313409Y-70386614D01*
X32978545Y-70111106D01*
X33126118Y-69802724D01*
X31864000Y-68540605D01*
X30601882Y-69802724D01*
X27899000Y-69802724D01*
X27899000Y-69703925D01*
X28089190Y-69513735D01*
X28399000Y-68765787D01*
X28399000Y-68001031D01*
X29820595Y-68001031D01*
X29838386Y-68810409D01*
X30113894Y-69475545D01*
X30422276Y-69623118D01*
X31684395Y-68361000D01*
X32043605Y-68361000D01*
X33305724Y-69623118D01*
X33614106Y-69475545D01*
X33907405Y-68720969D01*
X33889614Y-67911591D01*
X33614106Y-67246455D01*
X33305724Y-67098882D01*
X32043605Y-68361000D01*
X31684395Y-68361000D01*
X30422276Y-67098882D01*
X30113894Y-67246455D01*
X29820595Y-68001031D01*
X28399000Y-68001031D01*
X28399000Y-67956213D01*
X28089190Y-67208265D01*
X27899000Y-67018075D01*
X27899000Y-66919276D01*
X30601882Y-66919276D01*
X31864000Y-68181395D01*
X33126118Y-66919276D01*
X32978545Y-66610894D01*
X32223969Y-66317595D01*
X31414591Y-66335386D01*
X30749455Y-66610894D01*
X30601882Y-66919276D01*
X27899000Y-66919276D01*
X27899000Y-65503925D01*
X28089190Y-65313735D01*
X28399000Y-64565787D01*
X28399000Y-64446750D01*
X29829000Y-64446750D01*
X29829000Y-65687309D01*
X29925673Y-65920698D01*
X30104301Y-66099327D01*
X30337690Y-66196000D01*
X31578250Y-66196000D01*
X31737000Y-66037250D01*
X31737000Y-64288000D01*
X31991000Y-64288000D01*
X31991000Y-66037250D01*
X32149750Y-66196000D01*
X33390310Y-66196000D01*
X33623699Y-66099327D01*
X33802327Y-65920698D01*
X33899000Y-65687309D01*
X33899000Y-64446750D01*
X33740250Y-64288000D01*
X31991000Y-64288000D01*
X31737000Y-64288000D01*
X29987750Y-64288000D01*
X29829000Y-64446750D01*
X28399000Y-64446750D01*
X28399000Y-63756213D01*
X28339877Y-63613478D01*
X29318664Y-62634691D01*
X29829000Y-62634691D01*
X29829000Y-63875250D01*
X29987750Y-64034000D01*
X31737000Y-64034000D01*
X31737000Y-62284750D01*
X31991000Y-62284750D01*
X31991000Y-64034000D01*
X33740250Y-64034000D01*
X33899000Y-63875250D01*
X33899000Y-62634691D01*
X33802327Y-62401302D01*
X33623699Y-62222673D01*
X33390310Y-62126000D01*
X32149750Y-62126000D01*
X31991000Y-62284750D01*
X31737000Y-62284750D01*
X31578250Y-62126000D01*
X30337690Y-62126000D01*
X30104301Y-62222673D01*
X29925673Y-62401302D01*
X29829000Y-62634691D01*
X29318664Y-62634691D01*
X32452341Y-59501015D01*
X32536669Y-59444669D01*
X32593016Y-59360340D01*
X32593018Y-59360338D01*
X32759898Y-59110583D01*
X32759899Y-59110582D01*
X32818500Y-58815976D01*
X32818500Y-58815971D01*
X32838286Y-58716500D01*
X32826336Y-58656424D01*
X32984891Y-58722100D01*
X33600450Y-58722100D01*
X33759200Y-58563350D01*
X33759200Y-57914100D01*
X34013200Y-57914100D01*
X34013200Y-58563350D01*
X34171950Y-58722100D01*
X34787509Y-58722100D01*
X35020898Y-58625427D01*
X35199527Y-58446799D01*
X35296200Y-58213410D01*
X35296200Y-58072850D01*
X35137450Y-57914100D01*
X34013200Y-57914100D01*
X33759200Y-57914100D01*
X33739200Y-57914100D01*
X33739200Y-57660100D01*
X33759200Y-57660100D01*
X33759200Y-57640100D01*
X34013200Y-57640100D01*
X34013200Y-57660100D01*
X35137450Y-57660100D01*
X35296200Y-57501350D01*
X35296200Y-57360790D01*
X35206432Y-57144072D01*
X35259357Y-57064865D01*
X35308640Y-56817100D01*
X35308640Y-56644462D01*
X35470674Y-56482428D01*
X35534130Y-56440028D01*
X35702105Y-56188636D01*
X35746201Y-55966951D01*
X35746201Y-55966946D01*
X35761089Y-55892099D01*
X35746201Y-55817252D01*
X35746201Y-54186445D01*
X35749688Y-54168913D01*
X35920681Y-53997920D01*
X35984140Y-53955518D01*
X36152115Y-53704126D01*
X36196211Y-53482441D01*
X36196211Y-53482437D01*
X36211099Y-53407590D01*
X36196211Y-53332743D01*
X36196211Y-48375817D01*
X38290000Y-50469606D01*
X38290000Y-50469606D01*
G37*
X38290000Y-50469606D02*
X38290001Y-155865000D01*
X38088234Y-155865000D01*
X37671074Y-156037793D01*
X37351793Y-156357074D01*
X37179000Y-156774234D01*
X37179000Y-157225766D01*
X37351793Y-157642926D01*
X37671074Y-157962207D01*
X38088234Y-158135000D01*
X38290001Y-158135000D01*
X38290001Y-165865000D01*
X38088234Y-165865000D01*
X37671074Y-166037793D01*
X37351793Y-166357074D01*
X37179000Y-166774234D01*
X37179000Y-167225766D01*
X37351793Y-167642926D01*
X37671074Y-167962207D01*
X38088234Y-168135000D01*
X38290001Y-168135000D01*
X38290001Y-199290000D01*
X710000Y-199290000D01*
X710000Y-176870817D01*
X9729690Y-185890508D01*
X9815327Y-186018673D01*
X10323073Y-186357938D01*
X10770818Y-186447000D01*
X10770822Y-186447000D01*
X10921999Y-186477071D01*
X11073176Y-186447000D01*
X26518823Y-186447000D01*
X26670000Y-186477071D01*
X26821177Y-186447000D01*
X26821182Y-186447000D01*
X27268927Y-186357938D01*
X27776673Y-186018673D01*
X27862312Y-185890505D01*
X29680507Y-184072311D01*
X29808673Y-183986673D01*
X30147938Y-183478927D01*
X30237000Y-183031182D01*
X30237000Y-183031177D01*
X30267071Y-182880000D01*
X30237000Y-182728823D01*
X30237000Y-178713177D01*
X30267071Y-178562000D01*
X30237000Y-178410823D01*
X30237000Y-178410818D01*
X30147938Y-177963073D01*
X29808673Y-177455327D01*
X29680508Y-177369690D01*
X27862312Y-175551495D01*
X27776673Y-175423327D01*
X27268927Y-175084062D01*
X26821182Y-174995000D01*
X26821177Y-174995000D01*
X26670000Y-174964929D01*
X26518823Y-174995000D01*
X11165818Y-174995000D01*
X9595817Y-173425000D01*
X28252183Y-173425000D01*
X30977000Y-176149818D01*
X30977001Y-186242181D01*
X28710045Y-188509137D01*
X28227201Y-188709138D01*
X27739138Y-189197201D01*
X27475000Y-189834887D01*
X27475000Y-190525113D01*
X27739138Y-191162799D01*
X28227201Y-191650862D01*
X28864887Y-191915000D01*
X29555113Y-191915000D01*
X30192799Y-191650862D01*
X30680862Y-191162799D01*
X30880863Y-190679955D01*
X33490507Y-188070310D01*
X33618673Y-187984673D01*
X33957938Y-187476927D01*
X34047000Y-187029182D01*
X34047000Y-187029178D01*
X34077071Y-186878001D01*
X34047000Y-186726824D01*
X34047000Y-175665181D01*
X34077072Y-175514000D01*
X33991552Y-175084063D01*
X33957938Y-174915073D01*
X33618673Y-174407327D01*
X33490508Y-174321690D01*
X30080312Y-170911495D01*
X29994673Y-170783327D01*
X29486927Y-170444062D01*
X29406178Y-170428000D01*
X32666529Y-170428000D01*
X32766000Y-170447786D01*
X32865471Y-170428000D01*
X32865476Y-170428000D01*
X33160082Y-170369399D01*
X33494169Y-170146169D01*
X33550517Y-170061838D01*
X34425840Y-169186515D01*
X34510169Y-169130169D01*
X34566516Y-169045840D01*
X34566518Y-169045838D01*
X34687671Y-168864518D01*
X34733399Y-168796082D01*
X34792000Y-168501476D01*
X34792000Y-168501471D01*
X34811786Y-168402000D01*
X34792000Y-168302529D01*
X34792000Y-167498573D01*
X34851793Y-167642926D01*
X35171074Y-167962207D01*
X35588234Y-168135000D01*
X36039766Y-168135000D01*
X36456926Y-167962207D01*
X36776207Y-167642926D01*
X36949000Y-167225766D01*
X36949000Y-166774234D01*
X36776207Y-166357074D01*
X36456926Y-166037793D01*
X36039766Y-165865000D01*
X35588234Y-165865000D01*
X35171074Y-166037793D01*
X34851793Y-166357074D01*
X34792000Y-166501427D01*
X34792000Y-163963227D01*
X34964000Y-163997440D01*
X36664000Y-163997440D01*
X36911765Y-163948157D01*
X37121809Y-163807809D01*
X37262157Y-163597765D01*
X37311440Y-163350000D01*
X37311440Y-160650000D01*
X37262157Y-160402235D01*
X37121809Y-160192191D01*
X36911765Y-160051843D01*
X36664000Y-160002560D01*
X34964000Y-160002560D01*
X34792000Y-160036773D01*
X34792000Y-157967470D01*
X34811786Y-157867999D01*
X34792000Y-157768528D01*
X34792000Y-157768524D01*
X34733399Y-157473918D01*
X34510169Y-157139831D01*
X34425837Y-157083482D01*
X34116589Y-156774234D01*
X34679000Y-156774234D01*
X34679000Y-157225766D01*
X34851793Y-157642926D01*
X35171074Y-157962207D01*
X35588234Y-158135000D01*
X36039766Y-158135000D01*
X36456926Y-157962207D01*
X36776207Y-157642926D01*
X36949000Y-157225766D01*
X36949000Y-156774234D01*
X36776207Y-156357074D01*
X36456926Y-156037793D01*
X36039766Y-155865000D01*
X35588234Y-155865000D01*
X35171074Y-156037793D01*
X34851793Y-156357074D01*
X34679000Y-156774234D01*
X34116589Y-156774234D01*
X33698518Y-156356163D01*
X33642169Y-156271831D01*
X33308082Y-156048601D01*
X33013476Y-155990000D01*
X33013471Y-155990000D01*
X32914000Y-155970214D01*
X32814529Y-155990000D01*
X32779614Y-155990000D01*
X32762157Y-155902235D01*
X32621809Y-155692191D01*
X32411765Y-155551843D01*
X32164000Y-155502560D01*
X29464000Y-155502560D01*
X29216235Y-155551843D01*
X29006191Y-155692191D01*
X28865843Y-155902235D01*
X28816560Y-156150000D01*
X28816560Y-157850000D01*
X28865843Y-158097765D01*
X28967564Y-158250000D01*
X28865843Y-158402235D01*
X28816560Y-158650000D01*
X28816560Y-160350000D01*
X28865843Y-160597765D01*
X29006191Y-160807809D01*
X29216235Y-160948157D01*
X29464000Y-160997440D01*
X30268495Y-160997440D01*
X30171074Y-161037793D01*
X29851793Y-161357074D01*
X29679000Y-161774234D01*
X29679000Y-162225766D01*
X29851793Y-162642926D01*
X30171074Y-162962207D01*
X30268495Y-163002560D01*
X29464000Y-163002560D01*
X29216235Y-163051843D01*
X29006191Y-163192191D01*
X28865843Y-163402235D01*
X28816560Y-163650000D01*
X28816560Y-165350000D01*
X28865843Y-165597765D01*
X28967564Y-165750000D01*
X28879761Y-165881406D01*
X21612518Y-158614163D01*
X21556169Y-158529831D01*
X21222082Y-158306601D01*
X20927476Y-158248000D01*
X20927471Y-158248000D01*
X20828000Y-158228214D01*
X20728529Y-158248000D01*
X14166541Y-158248000D01*
X14104000Y-158235560D01*
X13304000Y-158235560D01*
X13056235Y-158284843D01*
X12954000Y-158353155D01*
X12851765Y-158284843D01*
X12604000Y-158235560D01*
X11804000Y-158235560D01*
X11741459Y-158248000D01*
X10717396Y-158248000D01*
X10442862Y-157973466D01*
X10423946Y-157965631D01*
X10736673Y-157756673D01*
X10755832Y-157728000D01*
X11741459Y-157728000D01*
X11804000Y-157740440D01*
X12604000Y-157740440D01*
X12851765Y-157691157D01*
X12943102Y-157630127D01*
X12944302Y-157631327D01*
X13177691Y-157728000D01*
X13418250Y-157728000D01*
X13577000Y-157569250D01*
X13577000Y-156845000D01*
X13831000Y-156845000D01*
X13831000Y-157569250D01*
X13989750Y-157728000D01*
X14230309Y-157728000D01*
X14463698Y-157631327D01*
X14642327Y-157452699D01*
X14739000Y-157219310D01*
X14739000Y-157003750D01*
X14580250Y-156845000D01*
X13831000Y-156845000D01*
X13577000Y-156845000D01*
X13557000Y-156845000D01*
X13557000Y-156591000D01*
X13577000Y-156591000D01*
X13577000Y-155866750D01*
X13831000Y-155866750D01*
X13831000Y-156591000D01*
X14580250Y-156591000D01*
X14739000Y-156432250D01*
X14739000Y-156216690D01*
X14642327Y-155983301D01*
X14463698Y-155804673D01*
X14230309Y-155708000D01*
X13989750Y-155708000D01*
X13831000Y-155866750D01*
X13577000Y-155866750D01*
X13418250Y-155708000D01*
X13177691Y-155708000D01*
X12944302Y-155804673D01*
X12943102Y-155805873D01*
X12851765Y-155744843D01*
X12604000Y-155695560D01*
X11804000Y-155695560D01*
X11741459Y-155708000D01*
X10846704Y-155708000D01*
X10736673Y-155543327D01*
X10423946Y-155334369D01*
X10442862Y-155326534D01*
X10846534Y-154922862D01*
X11065000Y-154395439D01*
X11065000Y-154157355D01*
X22032356Y-143190000D01*
X27766339Y-143190000D01*
X28227201Y-143650862D01*
X28864887Y-143915000D01*
X29555113Y-143915000D01*
X30192799Y-143650862D01*
X30680862Y-143162799D01*
X30945000Y-142525113D01*
X30945000Y-141834887D01*
X30680862Y-141197201D01*
X30192799Y-140709138D01*
X29555113Y-140445000D01*
X28864887Y-140445000D01*
X28227201Y-140709138D01*
X27766339Y-141170000D01*
X21713471Y-141170000D01*
X21614000Y-141150214D01*
X21514529Y-141170000D01*
X21514524Y-141170000D01*
X21219918Y-141228601D01*
X21219916Y-141228602D01*
X21219917Y-141228602D01*
X20970162Y-141395482D01*
X20970160Y-141395484D01*
X20885831Y-141451831D01*
X20829484Y-141536160D01*
X9690645Y-152675000D01*
X9344561Y-152675000D01*
X8817138Y-152893466D01*
X8647000Y-153063604D01*
X8647000Y-152745817D01*
X22443818Y-138949000D01*
X26264823Y-138949000D01*
X26416000Y-138979071D01*
X26567177Y-138949000D01*
X26567182Y-138949000D01*
X27014927Y-138859938D01*
X27522673Y-138520673D01*
X27608312Y-138392505D01*
X30978508Y-135022310D01*
X31106673Y-134936673D01*
X31445938Y-134428927D01*
X31535000Y-133981182D01*
X31535000Y-133981178D01*
X31565071Y-133830001D01*
X31535000Y-133678824D01*
X31535000Y-122151182D01*
X31565072Y-122000000D01*
X31445938Y-121401073D01*
X31335681Y-121236062D01*
X31106673Y-120893327D01*
X30978505Y-120807688D01*
X16472312Y-106301495D01*
X16386673Y-106173327D01*
X15878927Y-105834062D01*
X15431182Y-105745000D01*
X15431177Y-105745000D01*
X15280000Y-105714929D01*
X15128823Y-105745000D01*
X14739868Y-105745000D01*
X14657809Y-105622191D01*
X14535000Y-105540132D01*
X14535000Y-105491817D01*
X27342508Y-92684310D01*
X27470673Y-92598673D01*
X27809938Y-92090927D01*
X27899000Y-91643182D01*
X27899000Y-91643178D01*
X27929071Y-91492001D01*
X27899000Y-91340824D01*
X27899000Y-90965000D01*
X30935000Y-90965000D01*
X30935000Y-117035000D01*
X37305000Y-117035000D01*
X37305000Y-90965000D01*
X30935000Y-90965000D01*
X27899000Y-90965000D01*
X27899000Y-69802724D01*
X30601882Y-69802724D01*
X30749455Y-70111106D01*
X31504031Y-70404405D01*
X32313409Y-70386614D01*
X32978545Y-70111106D01*
X33126118Y-69802724D01*
X31864000Y-68540605D01*
X30601882Y-69802724D01*
X27899000Y-69802724D01*
X27899000Y-69703925D01*
X28089190Y-69513735D01*
X28399000Y-68765787D01*
X28399000Y-68001031D01*
X29820595Y-68001031D01*
X29838386Y-68810409D01*
X30113894Y-69475545D01*
X30422276Y-69623118D01*
X31684395Y-68361000D01*
X32043605Y-68361000D01*
X33305724Y-69623118D01*
X33614106Y-69475545D01*
X33907405Y-68720969D01*
X33889614Y-67911591D01*
X33614106Y-67246455D01*
X33305724Y-67098882D01*
X32043605Y-68361000D01*
X31684395Y-68361000D01*
X30422276Y-67098882D01*
X30113894Y-67246455D01*
X29820595Y-68001031D01*
X28399000Y-68001031D01*
X28399000Y-67956213D01*
X28089190Y-67208265D01*
X27899000Y-67018075D01*
X27899000Y-66919276D01*
X30601882Y-66919276D01*
X31864000Y-68181395D01*
X33126118Y-66919276D01*
X32978545Y-66610894D01*
X32223969Y-66317595D01*
X31414591Y-66335386D01*
X30749455Y-66610894D01*
X30601882Y-66919276D01*
X27899000Y-66919276D01*
X27899000Y-65503925D01*
X28089190Y-65313735D01*
X28399000Y-64565787D01*
X28399000Y-64446750D01*
X29829000Y-64446750D01*
X29829000Y-65687309D01*
X29925673Y-65920698D01*
X30104301Y-66099327D01*
X30337690Y-66196000D01*
X31578250Y-66196000D01*
X31737000Y-66037250D01*
X31737000Y-64288000D01*
X31991000Y-64288000D01*
X31991000Y-66037250D01*
X32149750Y-66196000D01*
X33390310Y-66196000D01*
X33623699Y-66099327D01*
X33802327Y-65920698D01*
X33899000Y-65687309D01*
X33899000Y-64446750D01*
X33740250Y-64288000D01*
X31991000Y-64288000D01*
X31737000Y-64288000D01*
X29987750Y-64288000D01*
X29829000Y-64446750D01*
X28399000Y-64446750D01*
X28399000Y-63756213D01*
X28339877Y-63613478D01*
X29318664Y-62634691D01*
X29829000Y-62634691D01*
X29829000Y-63875250D01*
X29987750Y-64034000D01*
X31737000Y-64034000D01*
X31737000Y-62284750D01*
X31991000Y-62284750D01*
X31991000Y-64034000D01*
X33740250Y-64034000D01*
X33899000Y-63875250D01*
X33899000Y-62634691D01*
X33802327Y-62401302D01*
X33623699Y-62222673D01*
X33390310Y-62126000D01*
X32149750Y-62126000D01*
X31991000Y-62284750D01*
X31737000Y-62284750D01*
X31578250Y-62126000D01*
X30337690Y-62126000D01*
X30104301Y-62222673D01*
X29925673Y-62401302D01*
X29829000Y-62634691D01*
X29318664Y-62634691D01*
X32452341Y-59501015D01*
X32536669Y-59444669D01*
X32593016Y-59360340D01*
X32593018Y-59360338D01*
X32759898Y-59110583D01*
X32759899Y-59110582D01*
X32818500Y-58815976D01*
X32818500Y-58815971D01*
X32838286Y-58716500D01*
X32826336Y-58656424D01*
X32984891Y-58722100D01*
X33600450Y-58722100D01*
X33759200Y-58563350D01*
X33759200Y-57914100D01*
X34013200Y-57914100D01*
X34013200Y-58563350D01*
X34171950Y-58722100D01*
X34787509Y-58722100D01*
X35020898Y-58625427D01*
X35199527Y-58446799D01*
X35296200Y-58213410D01*
X35296200Y-58072850D01*
X35137450Y-57914100D01*
X34013200Y-57914100D01*
X33759200Y-57914100D01*
X33739200Y-57914100D01*
X33739200Y-57660100D01*
X33759200Y-57660100D01*
X33759200Y-57640100D01*
X34013200Y-57640100D01*
X34013200Y-57660100D01*
X35137450Y-57660100D01*
X35296200Y-57501350D01*
X35296200Y-57360790D01*
X35206432Y-57144072D01*
X35259357Y-57064865D01*
X35308640Y-56817100D01*
X35308640Y-56644462D01*
X35470674Y-56482428D01*
X35534130Y-56440028D01*
X35702105Y-56188636D01*
X35746201Y-55966951D01*
X35746201Y-55966946D01*
X35761089Y-55892099D01*
X35746201Y-55817252D01*
X35746201Y-54186445D01*
X35749688Y-54168913D01*
X35920681Y-53997920D01*
X35984140Y-53955518D01*
X36152115Y-53704126D01*
X36196211Y-53482441D01*
X36196211Y-53482437D01*
X36211099Y-53407590D01*
X36196211Y-53332743D01*
X36196211Y-48375817D01*
X38290000Y-50469606D01*
G36*
X13068235Y-167597157D02*
X13316000Y-167646440D01*
X14116000Y-167646440D01*
X14178541Y-167634000D01*
X23457645Y-167634000D01*
X25885484Y-170061840D01*
X25941831Y-170146169D01*
X26026160Y-170202516D01*
X26026162Y-170202518D01*
X26201105Y-170319411D01*
X26254368Y-170355000D01*
X14406546Y-170355000D01*
X14463698Y-170331327D01*
X14642327Y-170152699D01*
X14739000Y-169919310D01*
X14739000Y-169703750D01*
X14580250Y-169545000D01*
X13831000Y-169545000D01*
X13831000Y-169565000D01*
X13577000Y-169565000D01*
X13577000Y-169545000D01*
X13557000Y-169545000D01*
X13557000Y-169291000D01*
X13577000Y-169291000D01*
X13577000Y-168566750D01*
X13831000Y-168566750D01*
X13831000Y-169291000D01*
X14580250Y-169291000D01*
X14739000Y-169132250D01*
X14739000Y-168916690D01*
X14642327Y-168683301D01*
X14463698Y-168504673D01*
X14230309Y-168408000D01*
X13989750Y-168408000D01*
X13831000Y-168566750D01*
X13577000Y-168566750D01*
X13418250Y-168408000D01*
X13177691Y-168408000D01*
X12944302Y-168504673D01*
X12943102Y-168505873D01*
X12851765Y-168444843D01*
X12604000Y-168395560D01*
X11804000Y-168395560D01*
X11741459Y-168408000D01*
X10846704Y-168408000D01*
X10736673Y-168243327D01*
X10423946Y-168034369D01*
X10442862Y-168026534D01*
X10835396Y-167634000D01*
X11753459Y-167634000D01*
X11816000Y-167646440D01*
X12616000Y-167646440D01*
X12863765Y-167597157D01*
X12966000Y-167528845D01*
X13068235Y-167597157D01*
X13068235Y-167597157D01*
G37*
X13068235Y-167597157D02*
X13316000Y-167646440D01*
X14116000Y-167646440D01*
X14178541Y-167634000D01*
X23457645Y-167634000D01*
X25885484Y-170061840D01*
X25941831Y-170146169D01*
X26026160Y-170202516D01*
X26026162Y-170202518D01*
X26201105Y-170319411D01*
X26254368Y-170355000D01*
X14406546Y-170355000D01*
X14463698Y-170331327D01*
X14642327Y-170152699D01*
X14739000Y-169919310D01*
X14739000Y-169703750D01*
X14580250Y-169545000D01*
X13831000Y-169545000D01*
X13831000Y-169565000D01*
X13577000Y-169565000D01*
X13577000Y-169545000D01*
X13557000Y-169545000D01*
X13557000Y-169291000D01*
X13577000Y-169291000D01*
X13577000Y-168566750D01*
X13831000Y-168566750D01*
X13831000Y-169291000D01*
X14580250Y-169291000D01*
X14739000Y-169132250D01*
X14739000Y-168916690D01*
X14642327Y-168683301D01*
X14463698Y-168504673D01*
X14230309Y-168408000D01*
X13989750Y-168408000D01*
X13831000Y-168566750D01*
X13577000Y-168566750D01*
X13418250Y-168408000D01*
X13177691Y-168408000D01*
X12944302Y-168504673D01*
X12943102Y-168505873D01*
X12851765Y-168444843D01*
X12604000Y-168395560D01*
X11804000Y-168395560D01*
X11741459Y-168408000D01*
X10846704Y-168408000D01*
X10736673Y-168243327D01*
X10423946Y-168034369D01*
X10442862Y-168026534D01*
X10835396Y-167634000D01*
X11753459Y-167634000D01*
X11816000Y-167646440D01*
X12616000Y-167646440D01*
X12863765Y-167597157D01*
X12966000Y-167528845D01*
X13068235Y-167597157D01*
G36*
X6405482Y-159833837D02*
X6461831Y-159918169D01*
X6795918Y-160141399D01*
X7090524Y-160200000D01*
X7090528Y-160200000D01*
X7189999Y-160219786D01*
X7289470Y-160200000D01*
X8610604Y-160200000D01*
X8817138Y-160406534D01*
X8930583Y-160453525D01*
X8875995Y-160476136D01*
X8801861Y-160722255D01*
X9630000Y-161550395D01*
X10458139Y-160722255D01*
X10384005Y-160476136D01*
X10325552Y-160455126D01*
X10442862Y-160406534D01*
X10581396Y-160268000D01*
X11741459Y-160268000D01*
X11804000Y-160280440D01*
X12604000Y-160280440D01*
X12851765Y-160231157D01*
X12954000Y-160162845D01*
X13056235Y-160231157D01*
X13304000Y-160280440D01*
X14104000Y-160280440D01*
X14166541Y-160268000D01*
X20409645Y-160268000D01*
X27785482Y-167643837D01*
X27841831Y-167728169D01*
X28175918Y-167951399D01*
X28470524Y-168010000D01*
X28470528Y-168010000D01*
X28569999Y-168029786D01*
X28669470Y-168010000D01*
X28848386Y-168010000D01*
X28865843Y-168097765D01*
X29006191Y-168307809D01*
X29156136Y-168408000D01*
X27088356Y-168408000D01*
X24660518Y-165980163D01*
X24604169Y-165895831D01*
X24270082Y-165672601D01*
X23975476Y-165614000D01*
X23975471Y-165614000D01*
X23876000Y-165594214D01*
X23776529Y-165614000D01*
X14178541Y-165614000D01*
X14116000Y-165601560D01*
X13316000Y-165601560D01*
X13068235Y-165650843D01*
X12966000Y-165719155D01*
X12863765Y-165650843D01*
X12769971Y-165632186D01*
X13834411Y-164567747D01*
X13899953Y-164523953D01*
X13943747Y-164458411D01*
X13943749Y-164458409D01*
X13975133Y-164411440D01*
X14834000Y-164411440D01*
X15081765Y-164362157D01*
X15291809Y-164221809D01*
X15432157Y-164011765D01*
X15481440Y-163764000D01*
X15481440Y-163249750D01*
X15599000Y-163249750D01*
X15599000Y-163890310D01*
X15695673Y-164123699D01*
X15874302Y-164302327D01*
X16107691Y-164399000D01*
X17448250Y-164399000D01*
X17607000Y-164240250D01*
X17607000Y-163091000D01*
X17861000Y-163091000D01*
X17861000Y-164240250D01*
X18019750Y-164399000D01*
X19360309Y-164399000D01*
X19593698Y-164302327D01*
X19772327Y-164123699D01*
X19869000Y-163890310D01*
X19869000Y-163249750D01*
X19710250Y-163091000D01*
X17861000Y-163091000D01*
X17607000Y-163091000D01*
X15757750Y-163091000D01*
X15599000Y-163249750D01*
X15481440Y-163249750D01*
X15481440Y-162164000D01*
X15456316Y-162037690D01*
X15599000Y-162037690D01*
X15599000Y-162678250D01*
X15757750Y-162837000D01*
X17607000Y-162837000D01*
X17607000Y-161687750D01*
X17861000Y-161687750D01*
X17861000Y-162837000D01*
X19710250Y-162837000D01*
X19869000Y-162678250D01*
X19869000Y-162037690D01*
X19772327Y-161804301D01*
X19593698Y-161625673D01*
X19360309Y-161529000D01*
X18019750Y-161529000D01*
X17861000Y-161687750D01*
X17607000Y-161687750D01*
X17448250Y-161529000D01*
X16107691Y-161529000D01*
X15874302Y-161625673D01*
X15695673Y-161804301D01*
X15599000Y-162037690D01*
X15456316Y-162037690D01*
X15432157Y-161916235D01*
X15291809Y-161706191D01*
X15081765Y-161565843D01*
X14834000Y-161516560D01*
X11834000Y-161516560D01*
X11586235Y-161565843D01*
X11376191Y-161706191D01*
X11235843Y-161916235D01*
X11186560Y-162164000D01*
X11186560Y-163764000D01*
X11235843Y-164011765D01*
X11376191Y-164221809D01*
X11586235Y-164362157D01*
X11780954Y-164400889D01*
X11426843Y-164755000D01*
X10982339Y-164755000D01*
X11065000Y-164555439D01*
X11065000Y-163984561D01*
X10846534Y-163457138D01*
X10442862Y-163053466D01*
X10329417Y-163006475D01*
X10384005Y-162983864D01*
X10458139Y-162737745D01*
X9630000Y-161909605D01*
X8801861Y-162737745D01*
X8875995Y-162983864D01*
X8934448Y-163004874D01*
X8817138Y-163053466D01*
X8413466Y-163457138D01*
X8401925Y-163485000D01*
X5900555Y-163485000D01*
X5996965Y-163216777D01*
X5969778Y-162646546D01*
X5803864Y-162245995D01*
X5557745Y-162171861D01*
X4729605Y-163000000D01*
X4743748Y-163014142D01*
X4564143Y-163193748D01*
X4550000Y-163179605D01*
X4535858Y-163193748D01*
X4356252Y-163014142D01*
X4370395Y-163000000D01*
X4356252Y-162985858D01*
X4535858Y-162806252D01*
X4550000Y-162820395D01*
X5378139Y-161992255D01*
X5304005Y-161746136D01*
X5245552Y-161725126D01*
X5362862Y-161676534D01*
X5526173Y-161513223D01*
X8183035Y-161513223D01*
X8210222Y-162083454D01*
X8376136Y-162484005D01*
X8622255Y-162558139D01*
X9450395Y-161730000D01*
X9809605Y-161730000D01*
X10637745Y-162558139D01*
X10883864Y-162484005D01*
X11076965Y-161946777D01*
X11049778Y-161376546D01*
X10883864Y-160975995D01*
X10637745Y-160901861D01*
X9809605Y-161730000D01*
X9450395Y-161730000D01*
X8622255Y-160901861D01*
X8376136Y-160975995D01*
X8183035Y-161513223D01*
X5526173Y-161513223D01*
X5766534Y-161272862D01*
X5985000Y-160745439D01*
X5985000Y-160174561D01*
X5766534Y-159647138D01*
X5362862Y-159243466D01*
X5233784Y-159190000D01*
X5362862Y-159136534D01*
X5535521Y-158963876D01*
X6405482Y-159833837D01*
X6405482Y-159833837D01*
G37*
X6405482Y-159833837D02*
X6461831Y-159918169D01*
X6795918Y-160141399D01*
X7090524Y-160200000D01*
X7090528Y-160200000D01*
X7189999Y-160219786D01*
X7289470Y-160200000D01*
X8610604Y-160200000D01*
X8817138Y-160406534D01*
X8930583Y-160453525D01*
X8875995Y-160476136D01*
X8801861Y-160722255D01*
X9630000Y-161550395D01*
X10458139Y-160722255D01*
X10384005Y-160476136D01*
X10325552Y-160455126D01*
X10442862Y-160406534D01*
X10581396Y-160268000D01*
X11741459Y-160268000D01*
X11804000Y-160280440D01*
X12604000Y-160280440D01*
X12851765Y-160231157D01*
X12954000Y-160162845D01*
X13056235Y-160231157D01*
X13304000Y-160280440D01*
X14104000Y-160280440D01*
X14166541Y-160268000D01*
X20409645Y-160268000D01*
X27785482Y-167643837D01*
X27841831Y-167728169D01*
X28175918Y-167951399D01*
X28470524Y-168010000D01*
X28470528Y-168010000D01*
X28569999Y-168029786D01*
X28669470Y-168010000D01*
X28848386Y-168010000D01*
X28865843Y-168097765D01*
X29006191Y-168307809D01*
X29156136Y-168408000D01*
X27088356Y-168408000D01*
X24660518Y-165980163D01*
X24604169Y-165895831D01*
X24270082Y-165672601D01*
X23975476Y-165614000D01*
X23975471Y-165614000D01*
X23876000Y-165594214D01*
X23776529Y-165614000D01*
X14178541Y-165614000D01*
X14116000Y-165601560D01*
X13316000Y-165601560D01*
X13068235Y-165650843D01*
X12966000Y-165719155D01*
X12863765Y-165650843D01*
X12769971Y-165632186D01*
X13834411Y-164567747D01*
X13899953Y-164523953D01*
X13943747Y-164458411D01*
X13943749Y-164458409D01*
X13975133Y-164411440D01*
X14834000Y-164411440D01*
X15081765Y-164362157D01*
X15291809Y-164221809D01*
X15432157Y-164011765D01*
X15481440Y-163764000D01*
X15481440Y-163249750D01*
X15599000Y-163249750D01*
X15599000Y-163890310D01*
X15695673Y-164123699D01*
X15874302Y-164302327D01*
X16107691Y-164399000D01*
X17448250Y-164399000D01*
X17607000Y-164240250D01*
X17607000Y-163091000D01*
X17861000Y-163091000D01*
X17861000Y-164240250D01*
X18019750Y-164399000D01*
X19360309Y-164399000D01*
X19593698Y-164302327D01*
X19772327Y-164123699D01*
X19869000Y-163890310D01*
X19869000Y-163249750D01*
X19710250Y-163091000D01*
X17861000Y-163091000D01*
X17607000Y-163091000D01*
X15757750Y-163091000D01*
X15599000Y-163249750D01*
X15481440Y-163249750D01*
X15481440Y-162164000D01*
X15456316Y-162037690D01*
X15599000Y-162037690D01*
X15599000Y-162678250D01*
X15757750Y-162837000D01*
X17607000Y-162837000D01*
X17607000Y-161687750D01*
X17861000Y-161687750D01*
X17861000Y-162837000D01*
X19710250Y-162837000D01*
X19869000Y-162678250D01*
X19869000Y-162037690D01*
X19772327Y-161804301D01*
X19593698Y-161625673D01*
X19360309Y-161529000D01*
X18019750Y-161529000D01*
X17861000Y-161687750D01*
X17607000Y-161687750D01*
X17448250Y-161529000D01*
X16107691Y-161529000D01*
X15874302Y-161625673D01*
X15695673Y-161804301D01*
X15599000Y-162037690D01*
X15456316Y-162037690D01*
X15432157Y-161916235D01*
X15291809Y-161706191D01*
X15081765Y-161565843D01*
X14834000Y-161516560D01*
X11834000Y-161516560D01*
X11586235Y-161565843D01*
X11376191Y-161706191D01*
X11235843Y-161916235D01*
X11186560Y-162164000D01*
X11186560Y-163764000D01*
X11235843Y-164011765D01*
X11376191Y-164221809D01*
X11586235Y-164362157D01*
X11780954Y-164400889D01*
X11426843Y-164755000D01*
X10982339Y-164755000D01*
X11065000Y-164555439D01*
X11065000Y-163984561D01*
X10846534Y-163457138D01*
X10442862Y-163053466D01*
X10329417Y-163006475D01*
X10384005Y-162983864D01*
X10458139Y-162737745D01*
X9630000Y-161909605D01*
X8801861Y-162737745D01*
X8875995Y-162983864D01*
X8934448Y-163004874D01*
X8817138Y-163053466D01*
X8413466Y-163457138D01*
X8401925Y-163485000D01*
X5900555Y-163485000D01*
X5996965Y-163216777D01*
X5969778Y-162646546D01*
X5803864Y-162245995D01*
X5557745Y-162171861D01*
X4729605Y-163000000D01*
X4743748Y-163014142D01*
X4564143Y-163193748D01*
X4550000Y-163179605D01*
X4535858Y-163193748D01*
X4356252Y-163014142D01*
X4370395Y-163000000D01*
X4356252Y-162985858D01*
X4535858Y-162806252D01*
X4550000Y-162820395D01*
X5378139Y-161992255D01*
X5304005Y-161746136D01*
X5245552Y-161725126D01*
X5362862Y-161676534D01*
X5526173Y-161513223D01*
X8183035Y-161513223D01*
X8210222Y-162083454D01*
X8376136Y-162484005D01*
X8622255Y-162558139D01*
X9450395Y-161730000D01*
X9809605Y-161730000D01*
X10637745Y-162558139D01*
X10883864Y-162484005D01*
X11076965Y-161946777D01*
X11049778Y-161376546D01*
X10883864Y-160975995D01*
X10637745Y-160901861D01*
X9809605Y-161730000D01*
X9450395Y-161730000D01*
X8622255Y-160901861D01*
X8376136Y-160975995D01*
X8183035Y-161513223D01*
X5526173Y-161513223D01*
X5766534Y-161272862D01*
X5985000Y-160745439D01*
X5985000Y-160174561D01*
X5766534Y-159647138D01*
X5362862Y-159243466D01*
X5233784Y-159190000D01*
X5362862Y-159136534D01*
X5535521Y-158963876D01*
X6405482Y-159833837D01*
G36*
X11342191Y-108937809D02*
X11552235Y-109078157D01*
X11800000Y-109127440D01*
X14200000Y-109127440D01*
X14447765Y-109078157D01*
X14657809Y-108937809D01*
X14701542Y-108872359D01*
X28465001Y-122635818D01*
X28465000Y-133194182D01*
X25780183Y-135879000D01*
X21959182Y-135879000D01*
X21808000Y-135848928D01*
X21656818Y-135879000D01*
X21209073Y-135968062D01*
X20701327Y-136307327D01*
X20615690Y-136435492D01*
X6133493Y-150917690D01*
X6005328Y-151003327D01*
X5919691Y-151131492D01*
X5919690Y-151131493D01*
X5666063Y-151511073D01*
X5560000Y-152044288D01*
X5560000Y-150645355D01*
X22545356Y-133660000D01*
X23326339Y-133660000D01*
X23787201Y-134120862D01*
X24424887Y-134385000D01*
X25115113Y-134385000D01*
X25752799Y-134120862D01*
X26240862Y-133632799D01*
X26505000Y-132995113D01*
X26505000Y-132304887D01*
X26240862Y-131667201D01*
X25752799Y-131179138D01*
X25115113Y-130915000D01*
X24424887Y-130915000D01*
X23787201Y-131179138D01*
X23326339Y-131640000D01*
X22226471Y-131640000D01*
X22127000Y-131620214D01*
X22027529Y-131640000D01*
X22027524Y-131640000D01*
X21732918Y-131698601D01*
X21732916Y-131698602D01*
X21732917Y-131698602D01*
X21483162Y-131865482D01*
X21483160Y-131865484D01*
X21398831Y-131921831D01*
X21342484Y-132006160D01*
X3906161Y-149442484D01*
X3833000Y-149491369D01*
X3833000Y-143581157D01*
X11040411Y-136373747D01*
X11105953Y-136329953D01*
X11149747Y-136264411D01*
X11149749Y-136264409D01*
X11279454Y-136070292D01*
X11325000Y-135841316D01*
X11325000Y-135841313D01*
X11340378Y-135764001D01*
X11325000Y-135686689D01*
X11325000Y-124053440D01*
X12040000Y-124053440D01*
X12287765Y-124004157D01*
X12497809Y-123863809D01*
X12638157Y-123653765D01*
X12687440Y-123406000D01*
X12687440Y-122891750D01*
X12805000Y-122891750D01*
X12805000Y-123532310D01*
X12901673Y-123765699D01*
X13080302Y-123944327D01*
X13313691Y-124041000D01*
X14654250Y-124041000D01*
X14813000Y-123882250D01*
X14813000Y-122733000D01*
X15067000Y-122733000D01*
X15067000Y-123882250D01*
X15225750Y-124041000D01*
X16566309Y-124041000D01*
X16799698Y-123944327D01*
X16978327Y-123765699D01*
X17075000Y-123532310D01*
X17075000Y-122891750D01*
X16916250Y-122733000D01*
X15067000Y-122733000D01*
X14813000Y-122733000D01*
X12963750Y-122733000D01*
X12805000Y-122891750D01*
X12687440Y-122891750D01*
X12687440Y-121806000D01*
X12662316Y-121679690D01*
X12805000Y-121679690D01*
X12805000Y-122320250D01*
X12963750Y-122479000D01*
X14813000Y-122479000D01*
X14813000Y-121329750D01*
X15067000Y-121329750D01*
X15067000Y-122479000D01*
X16916250Y-122479000D01*
X17075000Y-122320250D01*
X17075000Y-121679690D01*
X16978327Y-121446301D01*
X16799698Y-121267673D01*
X16566309Y-121171000D01*
X15225750Y-121171000D01*
X15067000Y-121329750D01*
X14813000Y-121329750D01*
X14654250Y-121171000D01*
X13313691Y-121171000D01*
X13080302Y-121267673D01*
X12901673Y-121446301D01*
X12805000Y-121679690D01*
X12662316Y-121679690D01*
X12638157Y-121558235D01*
X12497809Y-121348191D01*
X12287765Y-121207843D01*
X12040000Y-121158560D01*
X9040000Y-121158560D01*
X8792235Y-121207843D01*
X8582191Y-121348191D01*
X8441843Y-121558235D01*
X8392560Y-121806000D01*
X8392560Y-121889056D01*
X8315809Y-121774191D01*
X8105765Y-121633843D01*
X7858000Y-121584560D01*
X7358000Y-121584560D01*
X7110235Y-121633843D01*
X6900191Y-121774191D01*
X6858000Y-121837334D01*
X6815809Y-121774191D01*
X6605765Y-121633843D01*
X6358000Y-121584560D01*
X5858000Y-121584560D01*
X5610235Y-121633843D01*
X5553129Y-121672000D01*
X3059000Y-121672000D01*
X3059000Y-116967817D01*
X3949642Y-116077175D01*
X11882430Y-116077175D01*
X12005565Y-116364788D01*
X12687734Y-116624707D01*
X13417443Y-116603786D01*
X13994435Y-116364788D01*
X14117570Y-116077175D01*
X13000000Y-114959605D01*
X11882430Y-116077175D01*
X3949642Y-116077175D01*
X5559083Y-114467734D01*
X11155293Y-114467734D01*
X11176214Y-115197443D01*
X11415212Y-115774435D01*
X11702825Y-115897570D01*
X12820395Y-114780000D01*
X13179605Y-114780000D01*
X14297175Y-115897570D01*
X14584788Y-115774435D01*
X14844707Y-115092266D01*
X14823786Y-114362557D01*
X14584788Y-113785565D01*
X14297175Y-113662430D01*
X13179605Y-114780000D01*
X12820395Y-114780000D01*
X11702825Y-113662430D01*
X11415212Y-113785565D01*
X11155293Y-114467734D01*
X5559083Y-114467734D01*
X6543992Y-113482825D01*
X11882430Y-113482825D01*
X13000000Y-114600395D01*
X14117570Y-113482825D01*
X13994435Y-113195212D01*
X13312266Y-112935293D01*
X12582557Y-112956214D01*
X12005565Y-113195212D01*
X11882430Y-113482825D01*
X6543992Y-113482825D01*
X11211818Y-108815000D01*
X11260132Y-108815000D01*
X11342191Y-108937809D01*
X11342191Y-108937809D01*
G37*
X11342191Y-108937809D02*
X11552235Y-109078157D01*
X11800000Y-109127440D01*
X14200000Y-109127440D01*
X14447765Y-109078157D01*
X14657809Y-108937809D01*
X14701542Y-108872359D01*
X28465001Y-122635818D01*
X28465000Y-133194182D01*
X25780183Y-135879000D01*
X21959182Y-135879000D01*
X21808000Y-135848928D01*
X21656818Y-135879000D01*
X21209073Y-135968062D01*
X20701327Y-136307327D01*
X20615690Y-136435492D01*
X6133493Y-150917690D01*
X6005328Y-151003327D01*
X5919691Y-151131492D01*
X5919690Y-151131493D01*
X5666063Y-151511073D01*
X5560000Y-152044288D01*
X5560000Y-150645355D01*
X22545356Y-133660000D01*
X23326339Y-133660000D01*
X23787201Y-134120862D01*
X24424887Y-134385000D01*
X25115113Y-134385000D01*
X25752799Y-134120862D01*
X26240862Y-133632799D01*
X26505000Y-132995113D01*
X26505000Y-132304887D01*
X26240862Y-131667201D01*
X25752799Y-131179138D01*
X25115113Y-130915000D01*
X24424887Y-130915000D01*
X23787201Y-131179138D01*
X23326339Y-131640000D01*
X22226471Y-131640000D01*
X22127000Y-131620214D01*
X22027529Y-131640000D01*
X22027524Y-131640000D01*
X21732918Y-131698601D01*
X21732916Y-131698602D01*
X21732917Y-131698602D01*
X21483162Y-131865482D01*
X21483160Y-131865484D01*
X21398831Y-131921831D01*
X21342484Y-132006160D01*
X3906161Y-149442484D01*
X3833000Y-149491369D01*
X3833000Y-143581157D01*
X11040411Y-136373747D01*
X11105953Y-136329953D01*
X11149747Y-136264411D01*
X11149749Y-136264409D01*
X11279454Y-136070292D01*
X11325000Y-135841316D01*
X11325000Y-135841313D01*
X11340378Y-135764001D01*
X11325000Y-135686689D01*
X11325000Y-124053440D01*
X12040000Y-124053440D01*
X12287765Y-124004157D01*
X12497809Y-123863809D01*
X12638157Y-123653765D01*
X12687440Y-123406000D01*
X12687440Y-122891750D01*
X12805000Y-122891750D01*
X12805000Y-123532310D01*
X12901673Y-123765699D01*
X13080302Y-123944327D01*
X13313691Y-124041000D01*
X14654250Y-124041000D01*
X14813000Y-123882250D01*
X14813000Y-122733000D01*
X15067000Y-122733000D01*
X15067000Y-123882250D01*
X15225750Y-124041000D01*
X16566309Y-124041000D01*
X16799698Y-123944327D01*
X16978327Y-123765699D01*
X17075000Y-123532310D01*
X17075000Y-122891750D01*
X16916250Y-122733000D01*
X15067000Y-122733000D01*
X14813000Y-122733000D01*
X12963750Y-122733000D01*
X12805000Y-122891750D01*
X12687440Y-122891750D01*
X12687440Y-121806000D01*
X12662316Y-121679690D01*
X12805000Y-121679690D01*
X12805000Y-122320250D01*
X12963750Y-122479000D01*
X14813000Y-122479000D01*
X14813000Y-121329750D01*
X15067000Y-121329750D01*
X15067000Y-122479000D01*
X16916250Y-122479000D01*
X17075000Y-122320250D01*
X17075000Y-121679690D01*
X16978327Y-121446301D01*
X16799698Y-121267673D01*
X16566309Y-121171000D01*
X15225750Y-121171000D01*
X15067000Y-121329750D01*
X14813000Y-121329750D01*
X14654250Y-121171000D01*
X13313691Y-121171000D01*
X13080302Y-121267673D01*
X12901673Y-121446301D01*
X12805000Y-121679690D01*
X12662316Y-121679690D01*
X12638157Y-121558235D01*
X12497809Y-121348191D01*
X12287765Y-121207843D01*
X12040000Y-121158560D01*
X9040000Y-121158560D01*
X8792235Y-121207843D01*
X8582191Y-121348191D01*
X8441843Y-121558235D01*
X8392560Y-121806000D01*
X8392560Y-121889056D01*
X8315809Y-121774191D01*
X8105765Y-121633843D01*
X7858000Y-121584560D01*
X7358000Y-121584560D01*
X7110235Y-121633843D01*
X6900191Y-121774191D01*
X6858000Y-121837334D01*
X6815809Y-121774191D01*
X6605765Y-121633843D01*
X6358000Y-121584560D01*
X5858000Y-121584560D01*
X5610235Y-121633843D01*
X5553129Y-121672000D01*
X3059000Y-121672000D01*
X3059000Y-116967817D01*
X3949642Y-116077175D01*
X11882430Y-116077175D01*
X12005565Y-116364788D01*
X12687734Y-116624707D01*
X13417443Y-116603786D01*
X13994435Y-116364788D01*
X14117570Y-116077175D01*
X13000000Y-114959605D01*
X11882430Y-116077175D01*
X3949642Y-116077175D01*
X5559083Y-114467734D01*
X11155293Y-114467734D01*
X11176214Y-115197443D01*
X11415212Y-115774435D01*
X11702825Y-115897570D01*
X12820395Y-114780000D01*
X13179605Y-114780000D01*
X14297175Y-115897570D01*
X14584788Y-115774435D01*
X14844707Y-115092266D01*
X14823786Y-114362557D01*
X14584788Y-113785565D01*
X14297175Y-113662430D01*
X13179605Y-114780000D01*
X12820395Y-114780000D01*
X11702825Y-113662430D01*
X11415212Y-113785565D01*
X11155293Y-114467734D01*
X5559083Y-114467734D01*
X6543992Y-113482825D01*
X11882430Y-113482825D01*
X13000000Y-114600395D01*
X14117570Y-113482825D01*
X13994435Y-113195212D01*
X13312266Y-112935293D01*
X12582557Y-112956214D01*
X12005565Y-113195212D01*
X11882430Y-113482825D01*
X6543992Y-113482825D01*
X11211818Y-108815000D01*
X11260132Y-108815000D01*
X11342191Y-108937809D01*
G36*
X24581000Y-41193191D02*
X24581000Y-41483750D01*
X24739750Y-41642500D01*
X25489000Y-41642500D01*
X25489000Y-41622500D01*
X25743000Y-41622500D01*
X25743000Y-41642500D01*
X25763000Y-41642500D01*
X25763000Y-41896500D01*
X25743000Y-41896500D01*
X25743000Y-42695750D01*
X25828531Y-42781281D01*
X25708191Y-42861691D01*
X25567843Y-43071735D01*
X25518560Y-43319500D01*
X25518560Y-44219500D01*
X25567843Y-44467265D01*
X25708191Y-44677309D01*
X25832964Y-44760680D01*
X25627384Y-44966260D01*
X24558500Y-44966260D01*
X24310735Y-45015543D01*
X24100691Y-45155891D01*
X23960343Y-45365935D01*
X23911060Y-45613700D01*
X23911060Y-48113700D01*
X23960343Y-48361465D01*
X24100691Y-48571509D01*
X24310735Y-48711857D01*
X24558500Y-48761140D01*
X26358500Y-48761140D01*
X26606265Y-48711857D01*
X26816309Y-48571509D01*
X26956657Y-48361465D01*
X27005940Y-48113700D01*
X27005940Y-46444416D01*
X27050356Y-46400000D01*
X27063760Y-46400000D01*
X27063760Y-46657100D01*
X27113043Y-46904865D01*
X27171332Y-46992100D01*
X27113043Y-47079335D01*
X27063760Y-47327100D01*
X27063760Y-47927100D01*
X27113043Y-48174865D01*
X27171332Y-48262100D01*
X27113043Y-48349335D01*
X27063760Y-48597100D01*
X27063760Y-49157100D01*
X26817117Y-49157100D01*
X26816309Y-49155891D01*
X26606265Y-49015543D01*
X26358500Y-48966260D01*
X24558500Y-48966260D01*
X24310735Y-49015543D01*
X24100691Y-49155891D01*
X23960343Y-49365935D01*
X23911060Y-49613700D01*
X23911060Y-49853700D01*
X23322940Y-49853700D01*
X23322940Y-49613700D01*
X23273657Y-49365935D01*
X23133309Y-49155891D01*
X22923265Y-49015543D01*
X22675500Y-48966260D01*
X21656416Y-48966260D01*
X21438855Y-48748700D01*
X21489750Y-48748700D01*
X21648500Y-48589950D01*
X21648500Y-46990700D01*
X21902500Y-46990700D01*
X21902500Y-48589950D01*
X22061250Y-48748700D01*
X22801810Y-48748700D01*
X23035199Y-48652027D01*
X23213827Y-48473398D01*
X23310500Y-48240009D01*
X23310500Y-47149450D01*
X23151750Y-46990700D01*
X21902500Y-46990700D01*
X21648500Y-46990700D01*
X21628500Y-46990700D01*
X21628500Y-46736700D01*
X21648500Y-46736700D01*
X21648500Y-45137450D01*
X21902500Y-45137450D01*
X21902500Y-46736700D01*
X23151750Y-46736700D01*
X23310500Y-46577950D01*
X23310500Y-45487391D01*
X23213827Y-45254002D01*
X23035199Y-45075373D01*
X22801810Y-44978700D01*
X22061250Y-44978700D01*
X21902500Y-45137450D01*
X21648500Y-45137450D01*
X21489750Y-44978700D01*
X21088585Y-44978700D01*
X21057399Y-44821918D01*
X20834169Y-44487831D01*
X20749837Y-44431482D01*
X19625000Y-43306645D01*
X19625000Y-42654887D01*
X19376623Y-42055250D01*
X24581000Y-42055250D01*
X24581000Y-42345809D01*
X24677673Y-42579198D01*
X24856301Y-42757827D01*
X25089690Y-42854500D01*
X25330250Y-42854500D01*
X25489000Y-42695750D01*
X25489000Y-41896500D01*
X24739750Y-41896500D01*
X24581000Y-42055250D01*
X19376623Y-42055250D01*
X19360862Y-42017201D01*
X18872799Y-41529138D01*
X18235113Y-41265000D01*
X17544887Y-41265000D01*
X16907201Y-41529138D01*
X16419138Y-42017201D01*
X16155000Y-42654887D01*
X16155000Y-43345113D01*
X16419138Y-43982799D01*
X16907201Y-44470862D01*
X17544887Y-44735000D01*
X18196645Y-44735000D01*
X18380309Y-44918664D01*
X18274895Y-44875000D01*
X17505105Y-44875000D01*
X16793910Y-45169586D01*
X16249586Y-45713910D01*
X15955000Y-46425105D01*
X15955000Y-47194895D01*
X16249586Y-47906090D01*
X16793910Y-48450414D01*
X16880000Y-48486074D01*
X16880000Y-48747952D01*
X16880001Y-48747957D01*
X16880000Y-52275729D01*
X16860214Y-52375200D01*
X16880000Y-52474671D01*
X16880000Y-52474675D01*
X16938601Y-52769281D01*
X16995563Y-52854531D01*
X17098217Y-53008163D01*
X17161831Y-53103369D01*
X17246163Y-53159718D01*
X19340982Y-55254537D01*
X19397331Y-55338869D01*
X19731418Y-55562099D01*
X20026024Y-55620700D01*
X20026028Y-55620700D01*
X20125499Y-55640486D01*
X20224970Y-55620700D01*
X20228060Y-55620700D01*
X20228060Y-55860700D01*
X20277343Y-56108465D01*
X20417691Y-56318509D01*
X20627735Y-56458857D01*
X20875500Y-56508140D01*
X22675500Y-56508140D01*
X22923265Y-56458857D01*
X23133309Y-56318509D01*
X23273657Y-56108465D01*
X23322940Y-55860700D01*
X23322940Y-55620700D01*
X23911060Y-55620700D01*
X23911060Y-55860700D01*
X23960343Y-56108465D01*
X24100691Y-56318509D01*
X24310735Y-56458857D01*
X24558500Y-56508140D01*
X26358500Y-56508140D01*
X26606265Y-56458857D01*
X26816309Y-56318509D01*
X26857341Y-56257100D01*
X27063760Y-56257100D01*
X27063760Y-56817100D01*
X27113043Y-57064865D01*
X27171332Y-57152100D01*
X27113043Y-57239335D01*
X27063760Y-57487100D01*
X27063760Y-58087100D01*
X27113043Y-58334865D01*
X27253391Y-58544909D01*
X27463435Y-58685257D01*
X27711200Y-58734540D01*
X29261200Y-58734540D01*
X29508965Y-58685257D01*
X29719009Y-58544909D01*
X29859357Y-58334865D01*
X29908640Y-58087100D01*
X29908640Y-57487100D01*
X29859357Y-57239335D01*
X29801068Y-57152100D01*
X29859357Y-57064865D01*
X29908640Y-56817100D01*
X29908640Y-56217100D01*
X29859357Y-55969335D01*
X29801068Y-55882100D01*
X29859357Y-55794865D01*
X29908640Y-55547100D01*
X29908640Y-54947100D01*
X29859357Y-54699335D01*
X29801068Y-54612100D01*
X29859357Y-54524865D01*
X29908640Y-54277100D01*
X29908640Y-54059901D01*
X30013355Y-54216618D01*
X30076331Y-54310869D01*
X30160663Y-54367218D01*
X30798500Y-55005055D01*
X30798500Y-55122229D01*
X30778714Y-55221700D01*
X30798500Y-55321171D01*
X30798500Y-55321175D01*
X30798501Y-55321180D01*
X30798500Y-58298144D01*
X26911522Y-62185123D01*
X26768787Y-62126000D01*
X26468500Y-62126000D01*
X26468500Y-60486260D01*
X26606265Y-60458857D01*
X26816309Y-60318509D01*
X26956657Y-60108465D01*
X27005940Y-59860700D01*
X27005940Y-57360700D01*
X26956657Y-57112935D01*
X26816309Y-56902891D01*
X26606265Y-56762543D01*
X26358500Y-56713260D01*
X24558500Y-56713260D01*
X24310735Y-56762543D01*
X24100691Y-56902891D01*
X23960343Y-57112935D01*
X23911060Y-57360700D01*
X23911060Y-59860700D01*
X23960343Y-60108465D01*
X24100691Y-60318509D01*
X24310735Y-60458857D01*
X24448500Y-60486260D01*
X24448501Y-63156025D01*
X24428714Y-63255500D01*
X24463651Y-63431138D01*
X24329000Y-63756213D01*
X24329000Y-64565787D01*
X24638810Y-65313735D01*
X24829000Y-65503925D01*
X24829001Y-67018074D01*
X24638810Y-67208265D01*
X24329000Y-67956213D01*
X24329000Y-68765787D01*
X24638810Y-69513735D01*
X24829000Y-69703925D01*
X24829001Y-90856181D01*
X12021495Y-103663688D01*
X11893327Y-103749327D01*
X11554062Y-104257074D01*
X11465000Y-104704819D01*
X11465000Y-104704823D01*
X11434929Y-104856000D01*
X11465000Y-105007178D01*
X11465000Y-105540132D01*
X11342191Y-105622191D01*
X11260132Y-105745000D01*
X10727176Y-105745000D01*
X10575999Y-105714929D01*
X10424822Y-105745000D01*
X10424818Y-105745000D01*
X9977073Y-105834062D01*
X9469327Y-106173327D01*
X9383690Y-106301492D01*
X710000Y-114975183D01*
X710000Y-102127000D01*
X10000000Y-102127000D01*
X10048601Y-102117333D01*
X10089803Y-102089803D01*
X18089803Y-94089803D01*
X18117333Y-94048601D01*
X18127000Y-94000000D01*
X18127000Y-85000000D01*
X18117333Y-84951399D01*
X18089803Y-84910197D01*
X9127000Y-75947394D01*
X9127000Y-58896450D01*
X20240500Y-58896450D01*
X20240500Y-59987009D01*
X20337173Y-60220398D01*
X20515801Y-60399027D01*
X20749190Y-60495700D01*
X21489750Y-60495700D01*
X21648500Y-60336950D01*
X21648500Y-58737700D01*
X21902500Y-58737700D01*
X21902500Y-60336950D01*
X22061250Y-60495700D01*
X22801810Y-60495700D01*
X23035199Y-60399027D01*
X23213827Y-60220398D01*
X23310500Y-59987009D01*
X23310500Y-58896450D01*
X23151750Y-58737700D01*
X21902500Y-58737700D01*
X21648500Y-58737700D01*
X20399250Y-58737700D01*
X20240500Y-58896450D01*
X9127000Y-58896450D01*
X9127000Y-57234391D01*
X20240500Y-57234391D01*
X20240500Y-58324950D01*
X20399250Y-58483700D01*
X21648500Y-58483700D01*
X21648500Y-56884450D01*
X21902500Y-56884450D01*
X21902500Y-58483700D01*
X23151750Y-58483700D01*
X23310500Y-58324950D01*
X23310500Y-57234391D01*
X23213827Y-57001002D01*
X23035199Y-56822373D01*
X22801810Y-56725700D01*
X22061250Y-56725700D01*
X21902500Y-56884450D01*
X21648500Y-56884450D01*
X21489750Y-56725700D01*
X20749190Y-56725700D01*
X20515801Y-56822373D01*
X20337173Y-57001002D01*
X20240500Y-57234391D01*
X9127000Y-57234391D01*
X9127000Y-42654887D01*
X11075000Y-42654887D01*
X11075000Y-43345113D01*
X11339138Y-43982799D01*
X11827201Y-44470862D01*
X12464887Y-44735000D01*
X13155113Y-44735000D01*
X13792799Y-44470862D01*
X14280862Y-43982799D01*
X14545000Y-43345113D01*
X14545000Y-42654887D01*
X14280862Y-42017201D01*
X13792799Y-41529138D01*
X13155113Y-41265000D01*
X12464887Y-41265000D01*
X11827201Y-41529138D01*
X11339138Y-42017201D01*
X11075000Y-42654887D01*
X9127000Y-42654887D01*
X9127000Y-41324000D01*
X10806153Y-41324000D01*
X10881000Y-41338888D01*
X10955847Y-41324000D01*
X10955852Y-41324000D01*
X11177537Y-41279904D01*
X11406374Y-41127000D01*
X24608417Y-41127000D01*
X24581000Y-41193191D01*
X24581000Y-41193191D01*
G37*
X24581000Y-41193191D02*
X24581000Y-41483750D01*
X24739750Y-41642500D01*
X25489000Y-41642500D01*
X25489000Y-41622500D01*
X25743000Y-41622500D01*
X25743000Y-41642500D01*
X25763000Y-41642500D01*
X25763000Y-41896500D01*
X25743000Y-41896500D01*
X25743000Y-42695750D01*
X25828531Y-42781281D01*
X25708191Y-42861691D01*
X25567843Y-43071735D01*
X25518560Y-43319500D01*
X25518560Y-44219500D01*
X25567843Y-44467265D01*
X25708191Y-44677309D01*
X25832964Y-44760680D01*
X25627384Y-44966260D01*
X24558500Y-44966260D01*
X24310735Y-45015543D01*
X24100691Y-45155891D01*
X23960343Y-45365935D01*
X23911060Y-45613700D01*
X23911060Y-48113700D01*
X23960343Y-48361465D01*
X24100691Y-48571509D01*
X24310735Y-48711857D01*
X24558500Y-48761140D01*
X26358500Y-48761140D01*
X26606265Y-48711857D01*
X26816309Y-48571509D01*
X26956657Y-48361465D01*
X27005940Y-48113700D01*
X27005940Y-46444416D01*
X27050356Y-46400000D01*
X27063760Y-46400000D01*
X27063760Y-46657100D01*
X27113043Y-46904865D01*
X27171332Y-46992100D01*
X27113043Y-47079335D01*
X27063760Y-47327100D01*
X27063760Y-47927100D01*
X27113043Y-48174865D01*
X27171332Y-48262100D01*
X27113043Y-48349335D01*
X27063760Y-48597100D01*
X27063760Y-49157100D01*
X26817117Y-49157100D01*
X26816309Y-49155891D01*
X26606265Y-49015543D01*
X26358500Y-48966260D01*
X24558500Y-48966260D01*
X24310735Y-49015543D01*
X24100691Y-49155891D01*
X23960343Y-49365935D01*
X23911060Y-49613700D01*
X23911060Y-49853700D01*
X23322940Y-49853700D01*
X23322940Y-49613700D01*
X23273657Y-49365935D01*
X23133309Y-49155891D01*
X22923265Y-49015543D01*
X22675500Y-48966260D01*
X21656416Y-48966260D01*
X21438855Y-48748700D01*
X21489750Y-48748700D01*
X21648500Y-48589950D01*
X21648500Y-46990700D01*
X21902500Y-46990700D01*
X21902500Y-48589950D01*
X22061250Y-48748700D01*
X22801810Y-48748700D01*
X23035199Y-48652027D01*
X23213827Y-48473398D01*
X23310500Y-48240009D01*
X23310500Y-47149450D01*
X23151750Y-46990700D01*
X21902500Y-46990700D01*
X21648500Y-46990700D01*
X21628500Y-46990700D01*
X21628500Y-46736700D01*
X21648500Y-46736700D01*
X21648500Y-45137450D01*
X21902500Y-45137450D01*
X21902500Y-46736700D01*
X23151750Y-46736700D01*
X23310500Y-46577950D01*
X23310500Y-45487391D01*
X23213827Y-45254002D01*
X23035199Y-45075373D01*
X22801810Y-44978700D01*
X22061250Y-44978700D01*
X21902500Y-45137450D01*
X21648500Y-45137450D01*
X21489750Y-44978700D01*
X21088585Y-44978700D01*
X21057399Y-44821918D01*
X20834169Y-44487831D01*
X20749837Y-44431482D01*
X19625000Y-43306645D01*
X19625000Y-42654887D01*
X19376623Y-42055250D01*
X24581000Y-42055250D01*
X24581000Y-42345809D01*
X24677673Y-42579198D01*
X24856301Y-42757827D01*
X25089690Y-42854500D01*
X25330250Y-42854500D01*
X25489000Y-42695750D01*
X25489000Y-41896500D01*
X24739750Y-41896500D01*
X24581000Y-42055250D01*
X19376623Y-42055250D01*
X19360862Y-42017201D01*
X18872799Y-41529138D01*
X18235113Y-41265000D01*
X17544887Y-41265000D01*
X16907201Y-41529138D01*
X16419138Y-42017201D01*
X16155000Y-42654887D01*
X16155000Y-43345113D01*
X16419138Y-43982799D01*
X16907201Y-44470862D01*
X17544887Y-44735000D01*
X18196645Y-44735000D01*
X18380309Y-44918664D01*
X18274895Y-44875000D01*
X17505105Y-44875000D01*
X16793910Y-45169586D01*
X16249586Y-45713910D01*
X15955000Y-46425105D01*
X15955000Y-47194895D01*
X16249586Y-47906090D01*
X16793910Y-48450414D01*
X16880000Y-48486074D01*
X16880000Y-48747952D01*
X16880001Y-48747957D01*
X16880000Y-52275729D01*
X16860214Y-52375200D01*
X16880000Y-52474671D01*
X16880000Y-52474675D01*
X16938601Y-52769281D01*
X16995563Y-52854531D01*
X17098217Y-53008163D01*
X17161831Y-53103369D01*
X17246163Y-53159718D01*
X19340982Y-55254537D01*
X19397331Y-55338869D01*
X19731418Y-55562099D01*
X20026024Y-55620700D01*
X20026028Y-55620700D01*
X20125499Y-55640486D01*
X20224970Y-55620700D01*
X20228060Y-55620700D01*
X20228060Y-55860700D01*
X20277343Y-56108465D01*
X20417691Y-56318509D01*
X20627735Y-56458857D01*
X20875500Y-56508140D01*
X22675500Y-56508140D01*
X22923265Y-56458857D01*
X23133309Y-56318509D01*
X23273657Y-56108465D01*
X23322940Y-55860700D01*
X23322940Y-55620700D01*
X23911060Y-55620700D01*
X23911060Y-55860700D01*
X23960343Y-56108465D01*
X24100691Y-56318509D01*
X24310735Y-56458857D01*
X24558500Y-56508140D01*
X26358500Y-56508140D01*
X26606265Y-56458857D01*
X26816309Y-56318509D01*
X26857341Y-56257100D01*
X27063760Y-56257100D01*
X27063760Y-56817100D01*
X27113043Y-57064865D01*
X27171332Y-57152100D01*
X27113043Y-57239335D01*
X27063760Y-57487100D01*
X27063760Y-58087100D01*
X27113043Y-58334865D01*
X27253391Y-58544909D01*
X27463435Y-58685257D01*
X27711200Y-58734540D01*
X29261200Y-58734540D01*
X29508965Y-58685257D01*
X29719009Y-58544909D01*
X29859357Y-58334865D01*
X29908640Y-58087100D01*
X29908640Y-57487100D01*
X29859357Y-57239335D01*
X29801068Y-57152100D01*
X29859357Y-57064865D01*
X29908640Y-56817100D01*
X29908640Y-56217100D01*
X29859357Y-55969335D01*
X29801068Y-55882100D01*
X29859357Y-55794865D01*
X29908640Y-55547100D01*
X29908640Y-54947100D01*
X29859357Y-54699335D01*
X29801068Y-54612100D01*
X29859357Y-54524865D01*
X29908640Y-54277100D01*
X29908640Y-54059901D01*
X30013355Y-54216618D01*
X30076331Y-54310869D01*
X30160663Y-54367218D01*
X30798500Y-55005055D01*
X30798500Y-55122229D01*
X30778714Y-55221700D01*
X30798500Y-55321171D01*
X30798500Y-55321175D01*
X30798501Y-55321180D01*
X30798500Y-58298144D01*
X26911522Y-62185123D01*
X26768787Y-62126000D01*
X26468500Y-62126000D01*
X26468500Y-60486260D01*
X26606265Y-60458857D01*
X26816309Y-60318509D01*
X26956657Y-60108465D01*
X27005940Y-59860700D01*
X27005940Y-57360700D01*
X26956657Y-57112935D01*
X26816309Y-56902891D01*
X26606265Y-56762543D01*
X26358500Y-56713260D01*
X24558500Y-56713260D01*
X24310735Y-56762543D01*
X24100691Y-56902891D01*
X23960343Y-57112935D01*
X23911060Y-57360700D01*
X23911060Y-59860700D01*
X23960343Y-60108465D01*
X24100691Y-60318509D01*
X24310735Y-60458857D01*
X24448500Y-60486260D01*
X24448501Y-63156025D01*
X24428714Y-63255500D01*
X24463651Y-63431138D01*
X24329000Y-63756213D01*
X24329000Y-64565787D01*
X24638810Y-65313735D01*
X24829000Y-65503925D01*
X24829001Y-67018074D01*
X24638810Y-67208265D01*
X24329000Y-67956213D01*
X24329000Y-68765787D01*
X24638810Y-69513735D01*
X24829000Y-69703925D01*
X24829001Y-90856181D01*
X12021495Y-103663688D01*
X11893327Y-103749327D01*
X11554062Y-104257074D01*
X11465000Y-104704819D01*
X11465000Y-104704823D01*
X11434929Y-104856000D01*
X11465000Y-105007178D01*
X11465000Y-105540132D01*
X11342191Y-105622191D01*
X11260132Y-105745000D01*
X10727176Y-105745000D01*
X10575999Y-105714929D01*
X10424822Y-105745000D01*
X10424818Y-105745000D01*
X9977073Y-105834062D01*
X9469327Y-106173327D01*
X9383690Y-106301492D01*
X710000Y-114975183D01*
X710000Y-102127000D01*
X10000000Y-102127000D01*
X10048601Y-102117333D01*
X10089803Y-102089803D01*
X18089803Y-94089803D01*
X18117333Y-94048601D01*
X18127000Y-94000000D01*
X18127000Y-85000000D01*
X18117333Y-84951399D01*
X18089803Y-84910197D01*
X9127000Y-75947394D01*
X9127000Y-58896450D01*
X20240500Y-58896450D01*
X20240500Y-59987009D01*
X20337173Y-60220398D01*
X20515801Y-60399027D01*
X20749190Y-60495700D01*
X21489750Y-60495700D01*
X21648500Y-60336950D01*
X21648500Y-58737700D01*
X21902500Y-58737700D01*
X21902500Y-60336950D01*
X22061250Y-60495700D01*
X22801810Y-60495700D01*
X23035199Y-60399027D01*
X23213827Y-60220398D01*
X23310500Y-59987009D01*
X23310500Y-58896450D01*
X23151750Y-58737700D01*
X21902500Y-58737700D01*
X21648500Y-58737700D01*
X20399250Y-58737700D01*
X20240500Y-58896450D01*
X9127000Y-58896450D01*
X9127000Y-57234391D01*
X20240500Y-57234391D01*
X20240500Y-58324950D01*
X20399250Y-58483700D01*
X21648500Y-58483700D01*
X21648500Y-56884450D01*
X21902500Y-56884450D01*
X21902500Y-58483700D01*
X23151750Y-58483700D01*
X23310500Y-58324950D01*
X23310500Y-57234391D01*
X23213827Y-57001002D01*
X23035199Y-56822373D01*
X22801810Y-56725700D01*
X22061250Y-56725700D01*
X21902500Y-56884450D01*
X21648500Y-56884450D01*
X21489750Y-56725700D01*
X20749190Y-56725700D01*
X20515801Y-56822373D01*
X20337173Y-57001002D01*
X20240500Y-57234391D01*
X9127000Y-57234391D01*
X9127000Y-42654887D01*
X11075000Y-42654887D01*
X11075000Y-43345113D01*
X11339138Y-43982799D01*
X11827201Y-44470862D01*
X12464887Y-44735000D01*
X13155113Y-44735000D01*
X13792799Y-44470862D01*
X14280862Y-43982799D01*
X14545000Y-43345113D01*
X14545000Y-42654887D01*
X14280862Y-42017201D01*
X13792799Y-41529138D01*
X13155113Y-41265000D01*
X12464887Y-41265000D01*
X11827201Y-41529138D01*
X11339138Y-42017201D01*
X11075000Y-42654887D01*
X9127000Y-42654887D01*
X9127000Y-41324000D01*
X10806153Y-41324000D01*
X10881000Y-41338888D01*
X10955847Y-41324000D01*
X10955852Y-41324000D01*
X11177537Y-41279904D01*
X11406374Y-41127000D01*
X24608417Y-41127000D01*
X24581000Y-41193191D01*
G36*
X32463760Y-49197100D02*
X32513043Y-49444865D01*
X32565968Y-49524072D01*
X32476200Y-49740790D01*
X32476200Y-49881350D01*
X32634950Y-50040100D01*
X33759200Y-50040100D01*
X33759200Y-50020100D01*
X34013200Y-50020100D01*
X34013200Y-50040100D01*
X34033200Y-50040100D01*
X34033200Y-50294100D01*
X34013200Y-50294100D01*
X34013200Y-50943350D01*
X34171950Y-51102100D01*
X34676212Y-51102100D01*
X34676212Y-53032646D01*
X34661200Y-53029660D01*
X33111200Y-53029660D01*
X33105413Y-53030811D01*
X33080082Y-53005480D01*
X33152657Y-52896865D01*
X33201940Y-52649100D01*
X33201940Y-51749100D01*
X33152657Y-51501335D01*
X33012309Y-51291291D01*
X32802265Y-51150943D01*
X32554500Y-51101660D01*
X32054500Y-51101660D01*
X31814500Y-51149398D01*
X31814500Y-50452850D01*
X32476200Y-50452850D01*
X32476200Y-50593410D01*
X32572873Y-50826799D01*
X32751502Y-51005427D01*
X32984891Y-51102100D01*
X33600450Y-51102100D01*
X33759200Y-50943350D01*
X33759200Y-50294100D01*
X32634950Y-50294100D01*
X32476200Y-50452850D01*
X31814500Y-50452850D01*
X31814500Y-48770055D01*
X31947456Y-48637100D01*
X32463760Y-48637100D01*
X32463760Y-49197100D01*
X32463760Y-49197100D01*
G37*
X32463760Y-49197100D02*
X32513043Y-49444865D01*
X32565968Y-49524072D01*
X32476200Y-49740790D01*
X32476200Y-49881350D01*
X32634950Y-50040100D01*
X33759200Y-50040100D01*
X33759200Y-50020100D01*
X34013200Y-50020100D01*
X34013200Y-50040100D01*
X34033200Y-50040100D01*
X34033200Y-50294100D01*
X34013200Y-50294100D01*
X34013200Y-50943350D01*
X34171950Y-51102100D01*
X34676212Y-51102100D01*
X34676212Y-53032646D01*
X34661200Y-53029660D01*
X33111200Y-53029660D01*
X33105413Y-53030811D01*
X33080082Y-53005480D01*
X33152657Y-52896865D01*
X33201940Y-52649100D01*
X33201940Y-51749100D01*
X33152657Y-51501335D01*
X33012309Y-51291291D01*
X32802265Y-51150943D01*
X32554500Y-51101660D01*
X32054500Y-51101660D01*
X31814500Y-51149398D01*
X31814500Y-50452850D01*
X32476200Y-50452850D01*
X32476200Y-50593410D01*
X32572873Y-50826799D01*
X32751502Y-51005427D01*
X32984891Y-51102100D01*
X33600450Y-51102100D01*
X33759200Y-50943350D01*
X33759200Y-50294100D01*
X32634950Y-50294100D01*
X32476200Y-50452850D01*
X31814500Y-50452850D01*
X31814500Y-48770055D01*
X31947456Y-48637100D01*
X32463760Y-48637100D01*
X32463760Y-49197100D01*
G36*
X29426000Y-41642500D02*
X29446000Y-41642500D01*
X29446000Y-41896500D01*
X29426000Y-41896500D01*
X29426000Y-42695750D01*
X29511531Y-42781281D01*
X29391191Y-42861691D01*
X29250843Y-43071735D01*
X29201560Y-43319500D01*
X29201560Y-43868000D01*
X28548802Y-43868000D01*
X27965831Y-43285029D01*
X27923429Y-43221571D01*
X27672037Y-43053596D01*
X27533643Y-43026068D01*
X27427316Y-42866940D01*
X27916000Y-42866940D01*
X28163765Y-42817657D01*
X28373809Y-42677309D01*
X28407845Y-42626371D01*
X28539301Y-42757827D01*
X28772690Y-42854500D01*
X29013250Y-42854500D01*
X29172000Y-42695750D01*
X29172000Y-41896500D01*
X29152000Y-41896500D01*
X29152000Y-41642500D01*
X29172000Y-41642500D01*
X29172000Y-41622500D01*
X29426000Y-41622500D01*
X29426000Y-41642500D01*
X29426000Y-41642500D01*
G37*
X29426000Y-41642500D02*
X29446000Y-41642500D01*
X29446000Y-41896500D01*
X29426000Y-41896500D01*
X29426000Y-42695750D01*
X29511531Y-42781281D01*
X29391191Y-42861691D01*
X29250843Y-43071735D01*
X29201560Y-43319500D01*
X29201560Y-43868000D01*
X28548802Y-43868000D01*
X27965831Y-43285029D01*
X27923429Y-43221571D01*
X27672037Y-43053596D01*
X27533643Y-43026068D01*
X27427316Y-42866940D01*
X27916000Y-42866940D01*
X28163765Y-42817657D01*
X28373809Y-42677309D01*
X28407845Y-42626371D01*
X28539301Y-42757827D01*
X28772690Y-42854500D01*
X29013250Y-42854500D01*
X29172000Y-42695750D01*
X29172000Y-41896500D01*
X29152000Y-41896500D01*
X29152000Y-41642500D01*
X29172000Y-41642500D01*
X29172000Y-41622500D01*
X29426000Y-41622500D01*
X29426000Y-41642500D01*
M02*
