M48
;DRILL file {KiCad (5.0.0-rc2-dev-311-g1dd4af297)} date 05/17/18 15:00:28
;FORMAT={-:-/ absolute / metric / decimal}
FMAT,2
METRIC,TZ
T1C0.500
T2C0.900
T3C1.000
T4C1.016
T5C1.200
T6C1.400
T7C1.600
T8C2.300
%
G90
G05
M71
T1
X5.294Y-21.854
X14.454Y-34.838
X14.518Y-91.618
X15.24Y-156.718
X15.24Y-169.418
X17.349Y-20.854
X17.566Y-122.606
X20.106Y-162.738
X21.704Y-44.73
X21.884Y-60.884
X24.17Y-42.723
X31.749Y-25.548
X33.84Y-52.047
X36.87Y-35.23
T2
X4.55Y-155.38
X4.55Y-157.92
X4.55Y-160.46
X4.55Y-163.
X4.55Y-165.54
X4.55Y-168.08
X4.55Y-170.62
X9.63Y-154.11
X9.63Y-156.65
X9.63Y-159.19
X9.63Y-161.73
X9.63Y-164.27
X9.63Y-166.81
X9.63Y-169.35
X9.63Y-171.89
T3
X23.14Y-18.761
X25.68Y-18.761
X28.22Y-18.761
X30.76Y-18.761
T4
X5.614Y-3.989
X5.614Y-6.529
X8.154Y-3.989
X8.154Y-6.529
X10.694Y-3.989
X10.694Y-6.529
X13.234Y-3.989
X13.234Y-6.529
X15.774Y-3.989
X15.774Y-6.529
X5.614Y-14.149
X5.614Y-16.689
X8.154Y-14.149
X8.154Y-16.689
X10.694Y-14.149
X10.694Y-16.689
X13.234Y-14.149
X13.234Y-16.689
X15.774Y-14.149
X15.774Y-16.689
T5
X24.77Y-132.65
X29.21Y-142.18
X12.81Y-43.
X17.89Y-43.
X24.77Y-180.65
X29.21Y-190.18
X13.Y-107.28
X13.Y-114.78
T6
X26.364Y-64.161
X26.364Y-68.361
X31.864Y-64.161
X31.864Y-68.361
T7
X17.89Y-39.19
X17.89Y-46.81
T8
X23.86Y-10.973
X37.Y-10.973
T3
X31.314Y-157.G85X30.314Y-157.
G05
X31.314Y-159.5G85X30.314Y-159.5
G05
X31.314Y-164.5G85X30.314Y-164.5
G05
X31.314Y-167.G85X30.314Y-167.
G05
X35.814Y-161.5G85X35.814Y-162.5
G05
T0
M30
