G04 #@! TF.GenerationSoftware,KiCad,Pcbnew,(5.0.0-rc2-dev-311-g1dd4af297)*
G04 #@! TF.CreationDate,2018-06-08T08:48:50+02:00*
G04 #@! TF.ProjectId,resetUSB,72657365745553422E6B696361645F70,1.0*
G04 #@! TF.SameCoordinates,PX6ad8e7cPY2bcdfd4*
G04 #@! TF.FileFunction,Copper,L2,Bot,Signal*
G04 #@! TF.FilePolarity,Positive*
%FSLAX46Y46*%
G04 Gerber Fmt 4.6, Leading zero omitted, Abs format (unit mm)*
G04 Created by KiCad (PCBNEW (5.0.0-rc2-dev-311-g1dd4af297)) date 06/08/18 08:48:50*
%MOMM*%
%LPD*%
G01*
G04 APERTURE LIST*
%ADD10C,0.200000*%
%ADD11C,0.300000*%
%ADD12C,4.000000*%
%ADD13C,3.000000*%
%ADD14C,3.500000*%
%ADD15C,1.600000*%
%ADD16C,2.200000*%
%ADD17C,2.800000*%
%ADD18R,2.800000X2.800000*%
%ADD19C,2.600000*%
%ADD20C,3.200000*%
%ADD21C,2.400000*%
%ADD22R,2.400000X2.400000*%
%ADD23O,1.727200X1.727200*%
%ADD24R,1.727200X1.727200*%
%ADD25O,1.700000X1.700000*%
%ADD26R,1.700000X1.700000*%
%ADD27C,1.300000*%
%ADD28C,1.800000*%
%ADD29C,0.254000*%
G04 APERTURE END LIST*
D10*
X0Y0D02*
X0Y-153000000D01*
X40000000Y0D02*
X0Y0D01*
X40000000Y-153000000D02*
X40000000Y0D01*
X0Y-153000000D02*
X40000000Y-153000000D01*
D11*
X3392857Y-85714285D02*
X2192857Y-85714285D01*
X3392857Y-86400000D02*
X2707142Y-85885714D01*
X2192857Y-86400000D02*
X2878571Y-85714285D01*
X2592857Y-86914285D02*
X3392857Y-86914285D01*
X2707142Y-86914285D02*
X2650000Y-86971428D01*
X2592857Y-87085714D01*
X2592857Y-87257142D01*
X2650000Y-87371428D01*
X2764285Y-87428571D01*
X3392857Y-87428571D01*
X3392857Y-88171428D02*
X3335714Y-88057142D01*
X3278571Y-88000000D01*
X3164285Y-87942857D01*
X2821428Y-87942857D01*
X2707142Y-88000000D01*
X2650000Y-88057142D01*
X2592857Y-88171428D01*
X2592857Y-88342857D01*
X2650000Y-88457142D01*
X2707142Y-88514285D01*
X2821428Y-88571428D01*
X3164285Y-88571428D01*
X3278571Y-88514285D01*
X3335714Y-88457142D01*
X3392857Y-88342857D01*
X3392857Y-88171428D01*
X3392857Y-89257142D02*
X3335714Y-89142857D01*
X3278571Y-89085714D01*
X3164285Y-89028571D01*
X2821428Y-89028571D01*
X2707142Y-89085714D01*
X2650000Y-89142857D01*
X2592857Y-89257142D01*
X2592857Y-89428571D01*
X2650000Y-89542857D01*
X2707142Y-89600000D01*
X2821428Y-89657142D01*
X3164285Y-89657142D01*
X3278571Y-89600000D01*
X3335714Y-89542857D01*
X3392857Y-89428571D01*
X3392857Y-89257142D01*
X3335714Y-90685714D02*
X3392857Y-90571428D01*
X3392857Y-90342857D01*
X3335714Y-90228571D01*
X3278571Y-90171428D01*
X3164285Y-90114285D01*
X2821428Y-90114285D01*
X2707142Y-90171428D01*
X2650000Y-90228571D01*
X2592857Y-90342857D01*
X2592857Y-90571428D01*
X2650000Y-90685714D01*
X3392857Y-91200000D02*
X2192857Y-91200000D01*
X2935714Y-91314285D02*
X3392857Y-91657142D01*
X2592857Y-91657142D02*
X3050000Y-91200000D01*
X3335714Y-92628571D02*
X3392857Y-92514285D01*
X3392857Y-92285714D01*
X3335714Y-92171428D01*
X3221428Y-92114285D01*
X2764285Y-92114285D01*
X2650000Y-92171428D01*
X2592857Y-92285714D01*
X2592857Y-92514285D01*
X2650000Y-92628571D01*
X2764285Y-92685714D01*
X2878571Y-92685714D01*
X2992857Y-92114285D01*
X3392857Y-93200000D02*
X2592857Y-93200000D01*
X2821428Y-93200000D02*
X2707142Y-93257142D01*
X2650000Y-93314285D01*
X2592857Y-93428571D01*
X2592857Y-93542857D01*
X5492857Y-85228571D02*
X4692857Y-85228571D01*
X4921428Y-85228571D02*
X4807142Y-85285714D01*
X4750000Y-85342857D01*
X4692857Y-85457142D01*
X4692857Y-85571428D01*
X5435714Y-86428571D02*
X5492857Y-86314285D01*
X5492857Y-86085714D01*
X5435714Y-85971428D01*
X5321428Y-85914285D01*
X4864285Y-85914285D01*
X4750000Y-85971428D01*
X4692857Y-86085714D01*
X4692857Y-86314285D01*
X4750000Y-86428571D01*
X4864285Y-86485714D01*
X4978571Y-86485714D01*
X5092857Y-85914285D01*
X5435714Y-86942857D02*
X5492857Y-87057142D01*
X5492857Y-87285714D01*
X5435714Y-87400000D01*
X5321428Y-87457142D01*
X5264285Y-87457142D01*
X5150000Y-87400000D01*
X5092857Y-87285714D01*
X5092857Y-87114285D01*
X5035714Y-87000000D01*
X4921428Y-86942857D01*
X4864285Y-86942857D01*
X4750000Y-87000000D01*
X4692857Y-87114285D01*
X4692857Y-87285714D01*
X4750000Y-87400000D01*
X5435714Y-88428571D02*
X5492857Y-88314285D01*
X5492857Y-88085714D01*
X5435714Y-87971428D01*
X5321428Y-87914285D01*
X4864285Y-87914285D01*
X4750000Y-87971428D01*
X4692857Y-88085714D01*
X4692857Y-88314285D01*
X4750000Y-88428571D01*
X4864285Y-88485714D01*
X4978571Y-88485714D01*
X5092857Y-87914285D01*
X4692857Y-88828571D02*
X4692857Y-89285714D01*
X4292857Y-89000000D02*
X5321428Y-89000000D01*
X5435714Y-89057142D01*
X5492857Y-89171428D01*
X5492857Y-89285714D01*
X4292857Y-89685714D02*
X5264285Y-89685714D01*
X5378571Y-89742857D01*
X5435714Y-89800000D01*
X5492857Y-89914285D01*
X5492857Y-90142857D01*
X5435714Y-90257142D01*
X5378571Y-90314285D01*
X5264285Y-90371428D01*
X4292857Y-90371428D01*
X5435714Y-90885714D02*
X5492857Y-91057142D01*
X5492857Y-91342857D01*
X5435714Y-91457142D01*
X5378571Y-91514285D01*
X5264285Y-91571428D01*
X5150000Y-91571428D01*
X5035714Y-91514285D01*
X4978571Y-91457142D01*
X4921428Y-91342857D01*
X4864285Y-91114285D01*
X4807142Y-91000000D01*
X4750000Y-90942857D01*
X4635714Y-90885714D01*
X4521428Y-90885714D01*
X4407142Y-90942857D01*
X4350000Y-91000000D01*
X4292857Y-91114285D01*
X4292857Y-91400000D01*
X4350000Y-91571428D01*
X4864285Y-92485714D02*
X4921428Y-92657142D01*
X4978571Y-92714285D01*
X5092857Y-92771428D01*
X5264285Y-92771428D01*
X5378571Y-92714285D01*
X5435714Y-92657142D01*
X5492857Y-92542857D01*
X5492857Y-92085714D01*
X4292857Y-92085714D01*
X4292857Y-92485714D01*
X4350000Y-92600000D01*
X4407142Y-92657142D01*
X4521428Y-92714285D01*
X4635714Y-92714285D01*
X4750000Y-92657142D01*
X4807142Y-92600000D01*
X4864285Y-92485714D01*
X4864285Y-92085714D01*
X4692857Y-93171428D02*
X5492857Y-93457142D01*
X4692857Y-93742857D01*
X4692857Y-94714285D02*
X5492857Y-94714285D01*
X4235714Y-94428571D02*
X5092857Y-94142857D01*
X5092857Y-94885714D01*
X7592857Y-85114285D02*
X6792857Y-85114285D01*
X6907142Y-85114285D02*
X6850000Y-85171428D01*
X6792857Y-85285714D01*
X6792857Y-85457142D01*
X6850000Y-85571428D01*
X6964285Y-85628571D01*
X7592857Y-85628571D01*
X6964285Y-85628571D02*
X6850000Y-85685714D01*
X6792857Y-85800000D01*
X6792857Y-85971428D01*
X6850000Y-86085714D01*
X6964285Y-86142857D01*
X7592857Y-86142857D01*
X7592857Y-87228571D02*
X6964285Y-87228571D01*
X6850000Y-87171428D01*
X6792857Y-87057142D01*
X6792857Y-86828571D01*
X6850000Y-86714285D01*
X7535714Y-87228571D02*
X7592857Y-87114285D01*
X7592857Y-86828571D01*
X7535714Y-86714285D01*
X7421428Y-86657142D01*
X7307142Y-86657142D01*
X7192857Y-86714285D01*
X7135714Y-86828571D01*
X7135714Y-87114285D01*
X7078571Y-87228571D01*
X7592857Y-87800000D02*
X6792857Y-87800000D01*
X7021428Y-87800000D02*
X6907142Y-87857142D01*
X6850000Y-87914285D01*
X6792857Y-88028571D01*
X6792857Y-88142857D01*
X7535714Y-89000000D02*
X7592857Y-88885714D01*
X7592857Y-88657142D01*
X7535714Y-88542857D01*
X7421428Y-88485714D01*
X6964285Y-88485714D01*
X6850000Y-88542857D01*
X6792857Y-88657142D01*
X6792857Y-88885714D01*
X6850000Y-89000000D01*
X6964285Y-89057142D01*
X7078571Y-89057142D01*
X7192857Y-88485714D01*
X7592857Y-89571428D02*
X6392857Y-89571428D01*
X7135714Y-89685714D02*
X7592857Y-90028571D01*
X6792857Y-90028571D02*
X7250000Y-89571428D01*
X6792857Y-90542857D02*
X7992857Y-90542857D01*
X6850000Y-90542857D02*
X6792857Y-90657142D01*
X6792857Y-90885714D01*
X6850000Y-91000000D01*
X6907142Y-91057142D01*
X7021428Y-91114285D01*
X7364285Y-91114285D01*
X7478571Y-91057142D01*
X7535714Y-91000000D01*
X7592857Y-90885714D01*
X7592857Y-90657142D01*
X7535714Y-90542857D01*
X7592857Y-92257142D02*
X7592857Y-91571428D01*
X7592857Y-91914285D02*
X6392857Y-91914285D01*
X6564285Y-91800000D01*
X6678571Y-91685714D01*
X6735714Y-91571428D01*
X6907142Y-92942857D02*
X6850000Y-92828571D01*
X6792857Y-92771428D01*
X6678571Y-92714285D01*
X6621428Y-92714285D01*
X6507142Y-92771428D01*
X6450000Y-92828571D01*
X6392857Y-92942857D01*
X6392857Y-93171428D01*
X6450000Y-93285714D01*
X6507142Y-93342857D01*
X6621428Y-93400000D01*
X6678571Y-93400000D01*
X6792857Y-93342857D01*
X6850000Y-93285714D01*
X6907142Y-93171428D01*
X6907142Y-92942857D01*
X6964285Y-92828571D01*
X7021428Y-92771428D01*
X7135714Y-92714285D01*
X7364285Y-92714285D01*
X7478571Y-92771428D01*
X7535714Y-92828571D01*
X7592857Y-92942857D01*
X7592857Y-93171428D01*
X7535714Y-93285714D01*
X7478571Y-93342857D01*
X7364285Y-93400000D01*
X7135714Y-93400000D01*
X7021428Y-93342857D01*
X6964285Y-93285714D01*
X6907142Y-93171428D01*
X7021428Y-94657142D02*
X6964285Y-94600000D01*
X6907142Y-94485714D01*
X6907142Y-94371428D01*
X6964285Y-94257142D01*
X7021428Y-94200000D01*
X7135714Y-94142857D01*
X7250000Y-94142857D01*
X7364285Y-94200000D01*
X7421428Y-94257142D01*
X7478571Y-94371428D01*
X7478571Y-94485714D01*
X7421428Y-94600000D01*
X7364285Y-94657142D01*
X6907142Y-94657142D02*
X7364285Y-94657142D01*
X7421428Y-94714285D01*
X7421428Y-94771428D01*
X7364285Y-94885714D01*
X7250000Y-94942857D01*
X6964285Y-94942857D01*
X6792857Y-94828571D01*
X6678571Y-94657142D01*
X6621428Y-94428571D01*
X6678571Y-94200000D01*
X6792857Y-94028571D01*
X6964285Y-93914285D01*
X7192857Y-93857142D01*
X7421428Y-93914285D01*
X7592857Y-94028571D01*
X7707142Y-94200000D01*
X7764285Y-94428571D01*
X7707142Y-94657142D01*
X7592857Y-94828571D01*
X8892857Y-86171428D02*
X9864285Y-86171428D01*
X9978571Y-86114285D01*
X10035714Y-86057142D01*
X10092857Y-85942857D01*
X10092857Y-85771428D01*
X10035714Y-85657142D01*
X9635714Y-86171428D02*
X9692857Y-86057142D01*
X9692857Y-85828571D01*
X9635714Y-85714285D01*
X9578571Y-85657142D01*
X9464285Y-85600000D01*
X9121428Y-85600000D01*
X9007142Y-85657142D01*
X8950000Y-85714285D01*
X8892857Y-85828571D01*
X8892857Y-86057142D01*
X8950000Y-86171428D01*
X9692857Y-86742857D02*
X8892857Y-86742857D01*
X9007142Y-86742857D02*
X8950000Y-86800000D01*
X8892857Y-86914285D01*
X8892857Y-87085714D01*
X8950000Y-87200000D01*
X9064285Y-87257142D01*
X9692857Y-87257142D01*
X9064285Y-87257142D02*
X8950000Y-87314285D01*
X8892857Y-87428571D01*
X8892857Y-87600000D01*
X8950000Y-87714285D01*
X9064285Y-87771428D01*
X9692857Y-87771428D01*
X9692857Y-88857142D02*
X9064285Y-88857142D01*
X8950000Y-88800000D01*
X8892857Y-88685714D01*
X8892857Y-88457142D01*
X8950000Y-88342857D01*
X9635714Y-88857142D02*
X9692857Y-88742857D01*
X9692857Y-88457142D01*
X9635714Y-88342857D01*
X9521428Y-88285714D01*
X9407142Y-88285714D01*
X9292857Y-88342857D01*
X9235714Y-88457142D01*
X9235714Y-88742857D01*
X9178571Y-88857142D01*
X9692857Y-89428571D02*
X8892857Y-89428571D01*
X8492857Y-89428571D02*
X8550000Y-89371428D01*
X8607142Y-89428571D01*
X8550000Y-89485714D01*
X8492857Y-89428571D01*
X8607142Y-89428571D01*
X9692857Y-90171428D02*
X9635714Y-90057142D01*
X9521428Y-90000000D01*
X8492857Y-90000000D01*
X9578571Y-90628571D02*
X9635714Y-90685714D01*
X9692857Y-90628571D01*
X9635714Y-90571428D01*
X9578571Y-90628571D01*
X9692857Y-90628571D01*
X9635714Y-91714285D02*
X9692857Y-91600000D01*
X9692857Y-91371428D01*
X9635714Y-91257142D01*
X9578571Y-91200000D01*
X9464285Y-91142857D01*
X9121428Y-91142857D01*
X9007142Y-91200000D01*
X8950000Y-91257142D01*
X8892857Y-91371428D01*
X8892857Y-91600000D01*
X8950000Y-91714285D01*
X9692857Y-92400000D02*
X9635714Y-92285714D01*
X9578571Y-92228571D01*
X9464285Y-92171428D01*
X9121428Y-92171428D01*
X9007142Y-92228571D01*
X8950000Y-92285714D01*
X8892857Y-92400000D01*
X8892857Y-92571428D01*
X8950000Y-92685714D01*
X9007142Y-92742857D01*
X9121428Y-92800000D01*
X9464285Y-92800000D01*
X9578571Y-92742857D01*
X9635714Y-92685714D01*
X9692857Y-92571428D01*
X9692857Y-92400000D01*
X9692857Y-93314285D02*
X8892857Y-93314285D01*
X9007142Y-93314285D02*
X8950000Y-93371428D01*
X8892857Y-93485714D01*
X8892857Y-93657142D01*
X8950000Y-93771428D01*
X9064285Y-93828571D01*
X9692857Y-93828571D01*
X9064285Y-93828571D02*
X8950000Y-93885714D01*
X8892857Y-94000000D01*
X8892857Y-94171428D01*
X8950000Y-94285714D01*
X9064285Y-94342857D01*
X9692857Y-94342857D01*
D12*
X36000000Y-75492000D03*
D13*
X30900000Y-75492000D03*
D12*
X30900000Y-80592000D03*
X30900000Y-70392000D03*
X30900000Y-85392000D03*
X30900000Y-95592000D03*
D13*
X30900000Y-90492000D03*
D12*
X36000000Y-90492000D03*
D14*
X37508000Y-103750000D03*
X37508000Y-139250000D03*
D15*
X26308000Y-130385000D03*
X26308000Y-127845000D03*
X26308000Y-125305000D03*
X26308000Y-122765000D03*
X26308000Y-120225000D03*
X26308000Y-117685000D03*
X26308000Y-115145000D03*
X26308000Y-112605000D03*
X31388000Y-129115000D03*
X31388000Y-126575000D03*
X31388000Y-124035000D03*
X31388000Y-113875000D03*
X31388000Y-116415000D03*
X31388000Y-118955000D03*
X31388000Y-121495000D03*
D16*
X24770000Y-133650000D03*
X29210000Y-143180000D03*
D17*
X29158000Y-64075000D03*
X29158000Y-59875000D03*
X34658000Y-64075000D03*
D18*
X34658000Y-59875000D03*
D16*
X12810000Y-43000000D03*
X17890000Y-43000000D03*
D19*
X17890000Y-46810000D03*
X17890000Y-39190000D03*
D20*
X28043500Y-1853500D03*
X28043500Y-14993500D03*
D21*
X16500000Y-81280000D03*
D22*
X24000000Y-81280000D03*
D16*
X24770000Y-96650000D03*
X29210000Y-106180000D03*
D23*
X15774000Y-3989000D03*
X15774000Y-6529000D03*
X13234000Y-3989000D03*
X13234000Y-6529000D03*
X10694000Y-3989000D03*
X10694000Y-6529000D03*
X8154000Y-3989000D03*
X8154000Y-6529000D03*
X5614000Y-3989000D03*
D24*
X5614000Y-6529000D03*
D23*
X15774000Y-14149000D03*
X15774000Y-16689000D03*
X13234000Y-14149000D03*
X13234000Y-16689000D03*
X10694000Y-14149000D03*
X10694000Y-16689000D03*
X8154000Y-14149000D03*
X8154000Y-16689000D03*
X5614000Y-14149000D03*
D24*
X5614000Y-16689000D03*
D25*
X30760000Y-18761000D03*
X28220000Y-18761000D03*
X25680000Y-18761000D03*
D26*
X23140000Y-18761000D03*
D27*
X36917498Y-33701500D03*
X14518000Y-73618000D03*
X5293802Y-21854010D03*
X17348800Y-20853600D03*
X31748859Y-25547541D03*
X14454207Y-34838191D03*
D28*
X31750000Y-107950000D02*
X28702000Y-110998000D01*
X31750000Y-103886000D02*
X31750000Y-107950000D01*
X27432000Y-99568000D02*
X31750000Y-103886000D01*
X24000000Y-81280000D02*
X24000000Y-89278000D01*
X28702000Y-110998000D02*
X28702000Y-115062000D01*
X27432000Y-92710000D02*
X27432000Y-99568000D01*
X24000000Y-89278000D02*
X27432000Y-92710000D01*
X28702000Y-115062000D02*
X28702000Y-126582370D01*
X26308000Y-115145000D02*
X28619000Y-115145000D01*
X28619000Y-115145000D02*
X28702000Y-115062000D01*
X28702000Y-126582370D02*
X27439370Y-127845000D01*
X27439370Y-127845000D02*
X26308000Y-127845000D01*
D29*
G36*
X35180571Y-40184606D02*
X35180571Y-41656000D01*
X35190238Y-41704601D01*
X35217768Y-41745803D01*
X35688571Y-42216606D01*
X35688571Y-46990000D01*
X35698238Y-47038601D01*
X35725752Y-47079786D01*
X39265001Y-50620322D01*
X39265000Y-102134101D01*
X38858994Y-101728095D01*
X37982406Y-101365000D01*
X37033594Y-101365000D01*
X36157006Y-101728095D01*
X35486095Y-102399006D01*
X35123000Y-103275594D01*
X35123000Y-104224406D01*
X35486095Y-105100994D01*
X36157006Y-105771905D01*
X37033594Y-106135000D01*
X37982406Y-106135000D01*
X38858994Y-105771905D01*
X39265000Y-105365899D01*
X39265000Y-137634101D01*
X38858994Y-137228095D01*
X37982406Y-136865000D01*
X37033594Y-136865000D01*
X36157006Y-137228095D01*
X35486095Y-137899006D01*
X35123000Y-138775594D01*
X35123000Y-139724406D01*
X35486095Y-140600994D01*
X36157006Y-141271905D01*
X37033594Y-141635000D01*
X37982406Y-141635000D01*
X38858994Y-141271905D01*
X39265000Y-140865899D01*
X39265000Y-152265000D01*
X735000Y-152265000D01*
X735000Y-142834887D01*
X27475000Y-142834887D01*
X27475000Y-143525113D01*
X27739138Y-144162799D01*
X28227201Y-144650862D01*
X28864887Y-144915000D01*
X29555113Y-144915000D01*
X30192799Y-144650862D01*
X30680862Y-144162799D01*
X30945000Y-143525113D01*
X30945000Y-142834887D01*
X30680862Y-142197201D01*
X30192799Y-141709138D01*
X29555113Y-141445000D01*
X28864887Y-141445000D01*
X28227201Y-141709138D01*
X27739138Y-142197201D01*
X27475000Y-142834887D01*
X735000Y-142834887D01*
X735000Y-133304887D01*
X23035000Y-133304887D01*
X23035000Y-133995113D01*
X23299138Y-134632799D01*
X23787201Y-135120862D01*
X24424887Y-135385000D01*
X25115113Y-135385000D01*
X25752799Y-135120862D01*
X26240862Y-134632799D01*
X26505000Y-133995113D01*
X26505000Y-133304887D01*
X26240862Y-132667201D01*
X25752799Y-132179138D01*
X25115113Y-131915000D01*
X24424887Y-131915000D01*
X23787201Y-132179138D01*
X23299138Y-132667201D01*
X23035000Y-133304887D01*
X735000Y-133304887D01*
X735000Y-122548223D01*
X24861035Y-122548223D01*
X24888222Y-123118454D01*
X25054136Y-123519005D01*
X25300255Y-123593139D01*
X26128395Y-122765000D01*
X25300255Y-121936861D01*
X25054136Y-122010995D01*
X24861035Y-122548223D01*
X735000Y-122548223D01*
X735000Y-84043571D01*
X1276000Y-84043571D01*
X1276000Y-95956428D01*
X10946000Y-95956428D01*
X10946000Y-84043571D01*
X1276000Y-84043571D01*
X735000Y-84043571D01*
X735000Y-83185000D01*
X9144000Y-83185000D01*
X9192601Y-83175333D01*
X9233803Y-83147803D01*
X9804431Y-82577175D01*
X15382430Y-82577175D01*
X15505565Y-82864788D01*
X16187734Y-83124707D01*
X16917443Y-83103786D01*
X17494435Y-82864788D01*
X17617570Y-82577175D01*
X16500000Y-81459605D01*
X15382430Y-82577175D01*
X9804431Y-82577175D01*
X11413872Y-80967734D01*
X14655293Y-80967734D01*
X14676214Y-81697443D01*
X14915212Y-82274435D01*
X15202825Y-82397570D01*
X16320395Y-81280000D01*
X16679605Y-81280000D01*
X17797175Y-82397570D01*
X18084788Y-82274435D01*
X18344707Y-81592266D01*
X18323786Y-80862557D01*
X18084788Y-80285565D01*
X17797175Y-80162430D01*
X16679605Y-81280000D01*
X16320395Y-81280000D01*
X15202825Y-80162430D01*
X14915212Y-80285565D01*
X14655293Y-80967734D01*
X11413872Y-80967734D01*
X12398781Y-79982825D01*
X15382430Y-79982825D01*
X16500000Y-81100395D01*
X17520395Y-80080000D01*
X22152560Y-80080000D01*
X22152560Y-82480000D01*
X22201843Y-82727765D01*
X22342191Y-82937809D01*
X22465000Y-83019868D01*
X22465001Y-89126818D01*
X22434929Y-89278000D01*
X22465001Y-89429182D01*
X22554063Y-89876927D01*
X22893328Y-90384673D01*
X23021493Y-90470310D01*
X25897000Y-93345818D01*
X25897000Y-95323339D01*
X25752799Y-95179138D01*
X25115113Y-94915000D01*
X24424887Y-94915000D01*
X23787201Y-95179138D01*
X23299138Y-95667201D01*
X23035000Y-96304887D01*
X23035000Y-96995113D01*
X23299138Y-97632799D01*
X23787201Y-98120862D01*
X24424887Y-98385000D01*
X25115113Y-98385000D01*
X25752799Y-98120862D01*
X25897001Y-97976660D01*
X25897001Y-99416818D01*
X25866929Y-99568000D01*
X25897001Y-99719182D01*
X25986063Y-100166927D01*
X26325328Y-100674673D01*
X26453493Y-100760310D01*
X30215000Y-104521818D01*
X30215000Y-104731339D01*
X30192799Y-104709138D01*
X29555113Y-104445000D01*
X28864887Y-104445000D01*
X28227201Y-104709138D01*
X27739138Y-105197201D01*
X27475000Y-105834887D01*
X27475000Y-106525113D01*
X27739138Y-107162799D01*
X28227201Y-107650862D01*
X28864887Y-107915000D01*
X29555113Y-107915000D01*
X29655951Y-107873232D01*
X27723495Y-109805688D01*
X27595327Y-109891327D01*
X27256062Y-110399074D01*
X27167000Y-110846819D01*
X27167000Y-110846823D01*
X27136929Y-110998000D01*
X27167000Y-111149177D01*
X27167000Y-111434604D01*
X27120862Y-111388466D01*
X26593439Y-111170000D01*
X26022561Y-111170000D01*
X25495138Y-111388466D01*
X25091466Y-111792138D01*
X24873000Y-112319561D01*
X24873000Y-112890439D01*
X25091466Y-113417862D01*
X25495138Y-113821534D01*
X25514054Y-113829369D01*
X25201327Y-114038327D01*
X24862062Y-114546073D01*
X24742928Y-115145000D01*
X24862062Y-115743927D01*
X25201327Y-116251673D01*
X25514054Y-116460631D01*
X25495138Y-116468466D01*
X25091466Y-116872138D01*
X24873000Y-117399561D01*
X24873000Y-117970439D01*
X25091466Y-118497862D01*
X25495138Y-118901534D01*
X25624216Y-118955000D01*
X25495138Y-119008466D01*
X25091466Y-119412138D01*
X24873000Y-119939561D01*
X24873000Y-120510439D01*
X25091466Y-121037862D01*
X25495138Y-121441534D01*
X25608583Y-121488525D01*
X25553995Y-121511136D01*
X25479861Y-121757255D01*
X26308000Y-122585395D01*
X26322142Y-122571252D01*
X26501748Y-122750858D01*
X26487605Y-122765000D01*
X26501748Y-122779142D01*
X26322142Y-122958748D01*
X26308000Y-122944605D01*
X25479861Y-123772745D01*
X25553995Y-124018864D01*
X25612448Y-124039874D01*
X25495138Y-124088466D01*
X25091466Y-124492138D01*
X24873000Y-125019561D01*
X24873000Y-125590439D01*
X25091466Y-126117862D01*
X25495138Y-126521534D01*
X25514054Y-126529369D01*
X25201327Y-126738327D01*
X24862062Y-127246073D01*
X24742928Y-127845000D01*
X24862062Y-128443927D01*
X25201327Y-128951673D01*
X25514054Y-129160631D01*
X25495138Y-129168466D01*
X25091466Y-129572138D01*
X24873000Y-130099561D01*
X24873000Y-130670439D01*
X25091466Y-131197862D01*
X25495138Y-131601534D01*
X26022561Y-131820000D01*
X26593439Y-131820000D01*
X27120862Y-131601534D01*
X27524534Y-131197862D01*
X27743000Y-130670439D01*
X27743000Y-130099561D01*
X27524534Y-129572138D01*
X27343372Y-129390976D01*
X27439370Y-129410071D01*
X27590547Y-129380000D01*
X27590552Y-129380000D01*
X28038297Y-129290938D01*
X28546043Y-128951673D01*
X28631682Y-128823505D01*
X29680507Y-127774681D01*
X29808673Y-127689043D01*
X30109643Y-127238609D01*
X30171466Y-127387862D01*
X30575138Y-127791534D01*
X30704216Y-127845000D01*
X30575138Y-127898466D01*
X30171466Y-128302138D01*
X29953000Y-128829561D01*
X29953000Y-129400439D01*
X30171466Y-129927862D01*
X30575138Y-130331534D01*
X31102561Y-130550000D01*
X31673439Y-130550000D01*
X32200862Y-130331534D01*
X32604534Y-129927862D01*
X32823000Y-129400439D01*
X32823000Y-128829561D01*
X32604534Y-128302138D01*
X32200862Y-127898466D01*
X32071784Y-127845000D01*
X32200862Y-127791534D01*
X32604534Y-127387862D01*
X32823000Y-126860439D01*
X32823000Y-126289561D01*
X32604534Y-125762138D01*
X32200862Y-125358466D01*
X32071784Y-125305000D01*
X32200862Y-125251534D01*
X32604534Y-124847862D01*
X32823000Y-124320439D01*
X32823000Y-123749561D01*
X32604534Y-123222138D01*
X32200862Y-122818466D01*
X32087417Y-122771475D01*
X32142005Y-122748864D01*
X32216139Y-122502745D01*
X31388000Y-121674605D01*
X30559861Y-122502745D01*
X30633995Y-122748864D01*
X30692448Y-122769874D01*
X30575138Y-122818466D01*
X30237000Y-123156604D01*
X30237000Y-122279989D01*
X30380255Y-122323139D01*
X31208395Y-121495000D01*
X31567605Y-121495000D01*
X32395745Y-122323139D01*
X32641864Y-122249005D01*
X32834965Y-121711777D01*
X32807778Y-121141546D01*
X32641864Y-120740995D01*
X32395745Y-120666861D01*
X31567605Y-121495000D01*
X31208395Y-121495000D01*
X30380255Y-120666861D01*
X30237000Y-120710011D01*
X30237000Y-119833396D01*
X30575138Y-120171534D01*
X30688583Y-120218525D01*
X30633995Y-120241136D01*
X30559861Y-120487255D01*
X31388000Y-121315395D01*
X32216139Y-120487255D01*
X32142005Y-120241136D01*
X32083552Y-120220126D01*
X32200862Y-120171534D01*
X32604534Y-119767862D01*
X32823000Y-119240439D01*
X32823000Y-118669561D01*
X32604534Y-118142138D01*
X32200862Y-117738466D01*
X32071784Y-117685000D01*
X32200862Y-117631534D01*
X32604534Y-117227862D01*
X32823000Y-116700439D01*
X32823000Y-116129561D01*
X32604534Y-115602138D01*
X32200862Y-115198466D01*
X32071784Y-115145000D01*
X32200862Y-115091534D01*
X32604534Y-114687862D01*
X32823000Y-114160439D01*
X32823000Y-113589561D01*
X32604534Y-113062138D01*
X32200862Y-112658466D01*
X31673439Y-112440000D01*
X31102561Y-112440000D01*
X30575138Y-112658466D01*
X30237000Y-112996604D01*
X30237000Y-111633817D01*
X32728507Y-109142310D01*
X32856673Y-109056673D01*
X33195938Y-108548927D01*
X33285000Y-108101182D01*
X33285000Y-108101181D01*
X33315072Y-107950000D01*
X33285000Y-107798819D01*
X33285000Y-104037176D01*
X33315071Y-103885999D01*
X33285000Y-103734822D01*
X33285000Y-103734818D01*
X33195938Y-103287073D01*
X32856673Y-102779327D01*
X32728508Y-102693690D01*
X28967000Y-98932183D01*
X28967000Y-97467022D01*
X29204584Y-97467022D01*
X29425353Y-97837743D01*
X30397012Y-98231119D01*
X31445247Y-98222713D01*
X32374647Y-97837743D01*
X32595416Y-97467022D01*
X30900000Y-95771605D01*
X29204584Y-97467022D01*
X28967000Y-97467022D01*
X28967000Y-97252889D01*
X29024978Y-97287416D01*
X30720395Y-95592000D01*
X31079605Y-95592000D01*
X32775022Y-97287416D01*
X33145743Y-97066647D01*
X33539119Y-96094988D01*
X33530713Y-95046753D01*
X33145743Y-94117353D01*
X32775022Y-93896584D01*
X31079605Y-95592000D01*
X30720395Y-95592000D01*
X29024978Y-93896584D01*
X28967000Y-93931111D01*
X28967000Y-93716978D01*
X29204584Y-93716978D01*
X30900000Y-95412395D01*
X32595416Y-93716978D01*
X32374647Y-93346257D01*
X31402988Y-92952881D01*
X30354753Y-92961287D01*
X29425353Y-93346257D01*
X29204584Y-93716978D01*
X28967000Y-93716978D01*
X28967000Y-92861181D01*
X28997072Y-92710000D01*
X28928849Y-92367022D01*
X28877938Y-92111073D01*
X28538673Y-91603327D01*
X28410508Y-91517690D01*
X26960140Y-90067322D01*
X28765000Y-90067322D01*
X28765000Y-90916678D01*
X29090034Y-91701380D01*
X29690620Y-92301966D01*
X30475322Y-92627000D01*
X31324678Y-92627000D01*
X31952320Y-92367022D01*
X34304584Y-92367022D01*
X34525353Y-92737743D01*
X35497012Y-93131119D01*
X36545247Y-93122713D01*
X37474647Y-92737743D01*
X37695416Y-92367022D01*
X36000000Y-90671605D01*
X34304584Y-92367022D01*
X31952320Y-92367022D01*
X32109380Y-92301966D01*
X32709966Y-91701380D01*
X33035000Y-90916678D01*
X33035000Y-90067322D01*
X33002563Y-89989012D01*
X33360881Y-89989012D01*
X33369287Y-91037247D01*
X33754257Y-91966647D01*
X34124978Y-92187416D01*
X35820395Y-90492000D01*
X36179605Y-90492000D01*
X37875022Y-92187416D01*
X38245743Y-91966647D01*
X38639119Y-90994988D01*
X38630713Y-89946753D01*
X38245743Y-89017353D01*
X37875022Y-88796584D01*
X36179605Y-90492000D01*
X35820395Y-90492000D01*
X34124978Y-88796584D01*
X33754257Y-89017353D01*
X33360881Y-89989012D01*
X33002563Y-89989012D01*
X32709966Y-89282620D01*
X32109380Y-88682034D01*
X31952321Y-88616978D01*
X34304584Y-88616978D01*
X36000000Y-90312395D01*
X37695416Y-88616978D01*
X37474647Y-88246257D01*
X36502988Y-87852881D01*
X35454753Y-87861287D01*
X34525353Y-88246257D01*
X34304584Y-88616978D01*
X31952321Y-88616978D01*
X31324678Y-88357000D01*
X30475322Y-88357000D01*
X29690620Y-88682034D01*
X29090034Y-89282620D01*
X28765000Y-90067322D01*
X26960140Y-90067322D01*
X25535000Y-88642183D01*
X25535000Y-87267022D01*
X29204584Y-87267022D01*
X29425353Y-87637743D01*
X30397012Y-88031119D01*
X31445247Y-88022713D01*
X32374647Y-87637743D01*
X32595416Y-87267022D01*
X30900000Y-85571605D01*
X29204584Y-87267022D01*
X25535000Y-87267022D01*
X25535000Y-84889012D01*
X28260881Y-84889012D01*
X28269287Y-85937247D01*
X28654257Y-86866647D01*
X29024978Y-87087416D01*
X30720395Y-85392000D01*
X31079605Y-85392000D01*
X32775022Y-87087416D01*
X33145743Y-86866647D01*
X33539119Y-85894988D01*
X33530713Y-84846753D01*
X33145743Y-83917353D01*
X32775022Y-83696584D01*
X31079605Y-85392000D01*
X30720395Y-85392000D01*
X29024978Y-83696584D01*
X28654257Y-83917353D01*
X28260881Y-84889012D01*
X25535000Y-84889012D01*
X25535000Y-83019868D01*
X25657809Y-82937809D01*
X25798157Y-82727765D01*
X25847440Y-82480000D01*
X25847440Y-82467022D01*
X29204584Y-82467022D01*
X29425353Y-82837743D01*
X29802020Y-82990237D01*
X29425353Y-83146257D01*
X29204584Y-83516978D01*
X30900000Y-85212395D01*
X32595416Y-83516978D01*
X32374647Y-83146257D01*
X31997980Y-82993763D01*
X32374647Y-82837743D01*
X32595416Y-82467022D01*
X30900000Y-80771605D01*
X29204584Y-82467022D01*
X25847440Y-82467022D01*
X25847440Y-80089012D01*
X28260881Y-80089012D01*
X28269287Y-81137247D01*
X28654257Y-82066647D01*
X29024978Y-82287416D01*
X30720395Y-80592000D01*
X31079605Y-80592000D01*
X32775022Y-82287416D01*
X33145743Y-82066647D01*
X33539119Y-81094988D01*
X33530713Y-80046753D01*
X33145743Y-79117353D01*
X32775022Y-78896584D01*
X31079605Y-80592000D01*
X30720395Y-80592000D01*
X29024978Y-78896584D01*
X28654257Y-79117353D01*
X28260881Y-80089012D01*
X25847440Y-80089012D01*
X25847440Y-80080000D01*
X25798157Y-79832235D01*
X25657809Y-79622191D01*
X25447765Y-79481843D01*
X25200000Y-79432560D01*
X22800000Y-79432560D01*
X22552235Y-79481843D01*
X22342191Y-79622191D01*
X22201843Y-79832235D01*
X22152560Y-80080000D01*
X17520395Y-80080000D01*
X17617570Y-79982825D01*
X17494435Y-79695212D01*
X16812266Y-79435293D01*
X16082557Y-79456214D01*
X15505565Y-79695212D01*
X15382430Y-79982825D01*
X12398781Y-79982825D01*
X13664628Y-78716978D01*
X29204584Y-78716978D01*
X30900000Y-80412395D01*
X32595416Y-78716978D01*
X32374647Y-78346257D01*
X31402988Y-77952881D01*
X30354753Y-77961287D01*
X29425353Y-78346257D01*
X29204584Y-78716978D01*
X13664628Y-78716978D01*
X17107803Y-75273803D01*
X17135333Y-75232601D01*
X17145000Y-75184000D01*
X17145000Y-75067322D01*
X28765000Y-75067322D01*
X28765000Y-75916678D01*
X29090034Y-76701380D01*
X29690620Y-77301966D01*
X30475322Y-77627000D01*
X31324678Y-77627000D01*
X31952320Y-77367022D01*
X34304584Y-77367022D01*
X34525353Y-77737743D01*
X35497012Y-78131119D01*
X36545247Y-78122713D01*
X37474647Y-77737743D01*
X37695416Y-77367022D01*
X36000000Y-75671605D01*
X34304584Y-77367022D01*
X31952320Y-77367022D01*
X32109380Y-77301966D01*
X32709966Y-76701380D01*
X33035000Y-75916678D01*
X33035000Y-75067322D01*
X33002563Y-74989012D01*
X33360881Y-74989012D01*
X33369287Y-76037247D01*
X33754257Y-76966647D01*
X34124978Y-77187416D01*
X35820395Y-75492000D01*
X36179605Y-75492000D01*
X37875022Y-77187416D01*
X38245743Y-76966647D01*
X38639119Y-75994988D01*
X38630713Y-74946753D01*
X38245743Y-74017353D01*
X37875022Y-73796584D01*
X36179605Y-75492000D01*
X35820395Y-75492000D01*
X34124978Y-73796584D01*
X33754257Y-74017353D01*
X33360881Y-74989012D01*
X33002563Y-74989012D01*
X32709966Y-74282620D01*
X32109380Y-73682034D01*
X31952321Y-73616978D01*
X34304584Y-73616978D01*
X36000000Y-75312395D01*
X37695416Y-73616978D01*
X37474647Y-73246257D01*
X36502988Y-72852881D01*
X35454753Y-72861287D01*
X34525353Y-73246257D01*
X34304584Y-73616978D01*
X31952321Y-73616978D01*
X31324678Y-73357000D01*
X30475322Y-73357000D01*
X29690620Y-73682034D01*
X29090034Y-74282620D01*
X28765000Y-75067322D01*
X17145000Y-75067322D01*
X17145000Y-72267022D01*
X29204584Y-72267022D01*
X29425353Y-72637743D01*
X30397012Y-73031119D01*
X31445247Y-73022713D01*
X32374647Y-72637743D01*
X32595416Y-72267022D01*
X30900000Y-70571605D01*
X29204584Y-72267022D01*
X17145000Y-72267022D01*
X17145000Y-69889012D01*
X28260881Y-69889012D01*
X28269287Y-70937247D01*
X28654257Y-71866647D01*
X29024978Y-72087416D01*
X30720395Y-70392000D01*
X31079605Y-70392000D01*
X32775022Y-72087416D01*
X33145743Y-71866647D01*
X33539119Y-70894988D01*
X33530713Y-69846753D01*
X33145743Y-68917353D01*
X32775022Y-68696584D01*
X31079605Y-70392000D01*
X30720395Y-70392000D01*
X29024978Y-68696584D01*
X28654257Y-68917353D01*
X28260881Y-69889012D01*
X17145000Y-69889012D01*
X17145000Y-68516978D01*
X29204584Y-68516978D01*
X30900000Y-70212395D01*
X32595416Y-68516978D01*
X32374647Y-68146257D01*
X31402988Y-67752881D01*
X30354753Y-67761287D01*
X29425353Y-68146257D01*
X29204584Y-68516978D01*
X17145000Y-68516978D01*
X17145000Y-66802000D01*
X17135333Y-66753399D01*
X17107803Y-66712197D01*
X14065819Y-63670213D01*
X27123000Y-63670213D01*
X27123000Y-64479787D01*
X27432810Y-65227735D01*
X28005265Y-65800190D01*
X28753213Y-66110000D01*
X29562787Y-66110000D01*
X30310735Y-65800190D01*
X30594201Y-65516724D01*
X33395882Y-65516724D01*
X33543455Y-65825106D01*
X34298031Y-66118405D01*
X35107409Y-66100614D01*
X35772545Y-65825106D01*
X35920118Y-65516724D01*
X34658000Y-64254605D01*
X33395882Y-65516724D01*
X30594201Y-65516724D01*
X30883190Y-65227735D01*
X31193000Y-64479787D01*
X31193000Y-63715031D01*
X32614595Y-63715031D01*
X32632386Y-64524409D01*
X32907894Y-65189545D01*
X33216276Y-65337118D01*
X34478395Y-64075000D01*
X34837605Y-64075000D01*
X36099724Y-65337118D01*
X36408106Y-65189545D01*
X36701405Y-64434969D01*
X36683614Y-63625591D01*
X36408106Y-62960455D01*
X36099724Y-62812882D01*
X34837605Y-64075000D01*
X34478395Y-64075000D01*
X33216276Y-62812882D01*
X32907894Y-62960455D01*
X32614595Y-63715031D01*
X31193000Y-63715031D01*
X31193000Y-63670213D01*
X30883190Y-62922265D01*
X30594201Y-62633276D01*
X33395882Y-62633276D01*
X34658000Y-63895395D01*
X35920118Y-62633276D01*
X35772545Y-62324894D01*
X35017969Y-62031595D01*
X34208591Y-62049386D01*
X33543455Y-62324894D01*
X33395882Y-62633276D01*
X30594201Y-62633276D01*
X30310735Y-62349810D01*
X29562787Y-62040000D01*
X28753213Y-62040000D01*
X28005265Y-62349810D01*
X27432810Y-62922265D01*
X27123000Y-63670213D01*
X14065819Y-63670213D01*
X9865819Y-59470213D01*
X27123000Y-59470213D01*
X27123000Y-60279787D01*
X27432810Y-61027735D01*
X28005265Y-61600190D01*
X28753213Y-61910000D01*
X29562787Y-61910000D01*
X30310735Y-61600190D01*
X30883190Y-61027735D01*
X31193000Y-60279787D01*
X31193000Y-60160750D01*
X32623000Y-60160750D01*
X32623000Y-61401309D01*
X32719673Y-61634698D01*
X32898301Y-61813327D01*
X33131690Y-61910000D01*
X34372250Y-61910000D01*
X34531000Y-61751250D01*
X34531000Y-60002000D01*
X34785000Y-60002000D01*
X34785000Y-61751250D01*
X34943750Y-61910000D01*
X36184310Y-61910000D01*
X36417699Y-61813327D01*
X36596327Y-61634698D01*
X36693000Y-61401309D01*
X36693000Y-60160750D01*
X36534250Y-60002000D01*
X34785000Y-60002000D01*
X34531000Y-60002000D01*
X32781750Y-60002000D01*
X32623000Y-60160750D01*
X31193000Y-60160750D01*
X31193000Y-59470213D01*
X30883190Y-58722265D01*
X30509616Y-58348691D01*
X32623000Y-58348691D01*
X32623000Y-59589250D01*
X32781750Y-59748000D01*
X34531000Y-59748000D01*
X34531000Y-57998750D01*
X34785000Y-57998750D01*
X34785000Y-59748000D01*
X36534250Y-59748000D01*
X36693000Y-59589250D01*
X36693000Y-58348691D01*
X36596327Y-58115302D01*
X36417699Y-57936673D01*
X36184310Y-57840000D01*
X34943750Y-57840000D01*
X34785000Y-57998750D01*
X34531000Y-57998750D01*
X34372250Y-57840000D01*
X33131690Y-57840000D01*
X32898301Y-57936673D01*
X32719673Y-58115302D01*
X32623000Y-58348691D01*
X30509616Y-58348691D01*
X30310735Y-58149810D01*
X29562787Y-57840000D01*
X28753213Y-57840000D01*
X28005265Y-58149810D01*
X27432810Y-58722265D01*
X27123000Y-59470213D01*
X9865819Y-59470213D01*
X8255000Y-57859394D01*
X8255000Y-46425105D01*
X15955000Y-46425105D01*
X15955000Y-47194895D01*
X16249586Y-47906090D01*
X16793910Y-48450414D01*
X17505105Y-48745000D01*
X18274895Y-48745000D01*
X18986090Y-48450414D01*
X19530414Y-47906090D01*
X19825000Y-47194895D01*
X19825000Y-46425105D01*
X19530414Y-45713910D01*
X18986090Y-45169586D01*
X18274895Y-44875000D01*
X17505105Y-44875000D01*
X16793910Y-45169586D01*
X16249586Y-45713910D01*
X15955000Y-46425105D01*
X8255000Y-46425105D01*
X8255000Y-42654887D01*
X11075000Y-42654887D01*
X11075000Y-43345113D01*
X11339138Y-43982799D01*
X11827201Y-44470862D01*
X12464887Y-44735000D01*
X13155113Y-44735000D01*
X13792799Y-44470862D01*
X14280862Y-43982799D01*
X14545000Y-43345113D01*
X14545000Y-42654887D01*
X16155000Y-42654887D01*
X16155000Y-43345113D01*
X16419138Y-43982799D01*
X16907201Y-44470862D01*
X17544887Y-44735000D01*
X18235113Y-44735000D01*
X18872799Y-44470862D01*
X19360862Y-43982799D01*
X19625000Y-43345113D01*
X19625000Y-42654887D01*
X19360862Y-42017201D01*
X18872799Y-41529138D01*
X18235113Y-41265000D01*
X17544887Y-41265000D01*
X16907201Y-41529138D01*
X16419138Y-42017201D01*
X16155000Y-42654887D01*
X14545000Y-42654887D01*
X14280862Y-42017201D01*
X13792799Y-41529138D01*
X13155113Y-41265000D01*
X12464887Y-41265000D01*
X11827201Y-41529138D01*
X11339138Y-42017201D01*
X11075000Y-42654887D01*
X8255000Y-42654887D01*
X8255000Y-40946606D01*
X8617012Y-40584594D01*
X8714561Y-40625000D01*
X9285439Y-40625000D01*
X9812862Y-40406534D01*
X9960396Y-40259000D01*
X16238365Y-40259000D01*
X16249586Y-40286090D01*
X16793910Y-40830414D01*
X17505105Y-41125000D01*
X18274895Y-41125000D01*
X18986090Y-40830414D01*
X19530414Y-40286090D01*
X19671359Y-39945818D01*
X20628177Y-38989000D01*
X33984965Y-38989000D01*
X35180571Y-40184606D01*
X35180571Y-40184606D01*
G37*
X35180571Y-40184606D02*
X35180571Y-41656000D01*
X35190238Y-41704601D01*
X35217768Y-41745803D01*
X35688571Y-42216606D01*
X35688571Y-46990000D01*
X35698238Y-47038601D01*
X35725752Y-47079786D01*
X39265001Y-50620322D01*
X39265000Y-102134101D01*
X38858994Y-101728095D01*
X37982406Y-101365000D01*
X37033594Y-101365000D01*
X36157006Y-101728095D01*
X35486095Y-102399006D01*
X35123000Y-103275594D01*
X35123000Y-104224406D01*
X35486095Y-105100994D01*
X36157006Y-105771905D01*
X37033594Y-106135000D01*
X37982406Y-106135000D01*
X38858994Y-105771905D01*
X39265000Y-105365899D01*
X39265000Y-137634101D01*
X38858994Y-137228095D01*
X37982406Y-136865000D01*
X37033594Y-136865000D01*
X36157006Y-137228095D01*
X35486095Y-137899006D01*
X35123000Y-138775594D01*
X35123000Y-139724406D01*
X35486095Y-140600994D01*
X36157006Y-141271905D01*
X37033594Y-141635000D01*
X37982406Y-141635000D01*
X38858994Y-141271905D01*
X39265000Y-140865899D01*
X39265000Y-152265000D01*
X735000Y-152265000D01*
X735000Y-142834887D01*
X27475000Y-142834887D01*
X27475000Y-143525113D01*
X27739138Y-144162799D01*
X28227201Y-144650862D01*
X28864887Y-144915000D01*
X29555113Y-144915000D01*
X30192799Y-144650862D01*
X30680862Y-144162799D01*
X30945000Y-143525113D01*
X30945000Y-142834887D01*
X30680862Y-142197201D01*
X30192799Y-141709138D01*
X29555113Y-141445000D01*
X28864887Y-141445000D01*
X28227201Y-141709138D01*
X27739138Y-142197201D01*
X27475000Y-142834887D01*
X735000Y-142834887D01*
X735000Y-133304887D01*
X23035000Y-133304887D01*
X23035000Y-133995113D01*
X23299138Y-134632799D01*
X23787201Y-135120862D01*
X24424887Y-135385000D01*
X25115113Y-135385000D01*
X25752799Y-135120862D01*
X26240862Y-134632799D01*
X26505000Y-133995113D01*
X26505000Y-133304887D01*
X26240862Y-132667201D01*
X25752799Y-132179138D01*
X25115113Y-131915000D01*
X24424887Y-131915000D01*
X23787201Y-132179138D01*
X23299138Y-132667201D01*
X23035000Y-133304887D01*
X735000Y-133304887D01*
X735000Y-122548223D01*
X24861035Y-122548223D01*
X24888222Y-123118454D01*
X25054136Y-123519005D01*
X25300255Y-123593139D01*
X26128395Y-122765000D01*
X25300255Y-121936861D01*
X25054136Y-122010995D01*
X24861035Y-122548223D01*
X735000Y-122548223D01*
X735000Y-84043571D01*
X1276000Y-84043571D01*
X1276000Y-95956428D01*
X10946000Y-95956428D01*
X10946000Y-84043571D01*
X1276000Y-84043571D01*
X735000Y-84043571D01*
X735000Y-83185000D01*
X9144000Y-83185000D01*
X9192601Y-83175333D01*
X9233803Y-83147803D01*
X9804431Y-82577175D01*
X15382430Y-82577175D01*
X15505565Y-82864788D01*
X16187734Y-83124707D01*
X16917443Y-83103786D01*
X17494435Y-82864788D01*
X17617570Y-82577175D01*
X16500000Y-81459605D01*
X15382430Y-82577175D01*
X9804431Y-82577175D01*
X11413872Y-80967734D01*
X14655293Y-80967734D01*
X14676214Y-81697443D01*
X14915212Y-82274435D01*
X15202825Y-82397570D01*
X16320395Y-81280000D01*
X16679605Y-81280000D01*
X17797175Y-82397570D01*
X18084788Y-82274435D01*
X18344707Y-81592266D01*
X18323786Y-80862557D01*
X18084788Y-80285565D01*
X17797175Y-80162430D01*
X16679605Y-81280000D01*
X16320395Y-81280000D01*
X15202825Y-80162430D01*
X14915212Y-80285565D01*
X14655293Y-80967734D01*
X11413872Y-80967734D01*
X12398781Y-79982825D01*
X15382430Y-79982825D01*
X16500000Y-81100395D01*
X17520395Y-80080000D01*
X22152560Y-80080000D01*
X22152560Y-82480000D01*
X22201843Y-82727765D01*
X22342191Y-82937809D01*
X22465000Y-83019868D01*
X22465001Y-89126818D01*
X22434929Y-89278000D01*
X22465001Y-89429182D01*
X22554063Y-89876927D01*
X22893328Y-90384673D01*
X23021493Y-90470310D01*
X25897000Y-93345818D01*
X25897000Y-95323339D01*
X25752799Y-95179138D01*
X25115113Y-94915000D01*
X24424887Y-94915000D01*
X23787201Y-95179138D01*
X23299138Y-95667201D01*
X23035000Y-96304887D01*
X23035000Y-96995113D01*
X23299138Y-97632799D01*
X23787201Y-98120862D01*
X24424887Y-98385000D01*
X25115113Y-98385000D01*
X25752799Y-98120862D01*
X25897001Y-97976660D01*
X25897001Y-99416818D01*
X25866929Y-99568000D01*
X25897001Y-99719182D01*
X25986063Y-100166927D01*
X26325328Y-100674673D01*
X26453493Y-100760310D01*
X30215000Y-104521818D01*
X30215000Y-104731339D01*
X30192799Y-104709138D01*
X29555113Y-104445000D01*
X28864887Y-104445000D01*
X28227201Y-104709138D01*
X27739138Y-105197201D01*
X27475000Y-105834887D01*
X27475000Y-106525113D01*
X27739138Y-107162799D01*
X28227201Y-107650862D01*
X28864887Y-107915000D01*
X29555113Y-107915000D01*
X29655951Y-107873232D01*
X27723495Y-109805688D01*
X27595327Y-109891327D01*
X27256062Y-110399074D01*
X27167000Y-110846819D01*
X27167000Y-110846823D01*
X27136929Y-110998000D01*
X27167000Y-111149177D01*
X27167000Y-111434604D01*
X27120862Y-111388466D01*
X26593439Y-111170000D01*
X26022561Y-111170000D01*
X25495138Y-111388466D01*
X25091466Y-111792138D01*
X24873000Y-112319561D01*
X24873000Y-112890439D01*
X25091466Y-113417862D01*
X25495138Y-113821534D01*
X25514054Y-113829369D01*
X25201327Y-114038327D01*
X24862062Y-114546073D01*
X24742928Y-115145000D01*
X24862062Y-115743927D01*
X25201327Y-116251673D01*
X25514054Y-116460631D01*
X25495138Y-116468466D01*
X25091466Y-116872138D01*
X24873000Y-117399561D01*
X24873000Y-117970439D01*
X25091466Y-118497862D01*
X25495138Y-118901534D01*
X25624216Y-118955000D01*
X25495138Y-119008466D01*
X25091466Y-119412138D01*
X24873000Y-119939561D01*
X24873000Y-120510439D01*
X25091466Y-121037862D01*
X25495138Y-121441534D01*
X25608583Y-121488525D01*
X25553995Y-121511136D01*
X25479861Y-121757255D01*
X26308000Y-122585395D01*
X26322142Y-122571252D01*
X26501748Y-122750858D01*
X26487605Y-122765000D01*
X26501748Y-122779142D01*
X26322142Y-122958748D01*
X26308000Y-122944605D01*
X25479861Y-123772745D01*
X25553995Y-124018864D01*
X25612448Y-124039874D01*
X25495138Y-124088466D01*
X25091466Y-124492138D01*
X24873000Y-125019561D01*
X24873000Y-125590439D01*
X25091466Y-126117862D01*
X25495138Y-126521534D01*
X25514054Y-126529369D01*
X25201327Y-126738327D01*
X24862062Y-127246073D01*
X24742928Y-127845000D01*
X24862062Y-128443927D01*
X25201327Y-128951673D01*
X25514054Y-129160631D01*
X25495138Y-129168466D01*
X25091466Y-129572138D01*
X24873000Y-130099561D01*
X24873000Y-130670439D01*
X25091466Y-131197862D01*
X25495138Y-131601534D01*
X26022561Y-131820000D01*
X26593439Y-131820000D01*
X27120862Y-131601534D01*
X27524534Y-131197862D01*
X27743000Y-130670439D01*
X27743000Y-130099561D01*
X27524534Y-129572138D01*
X27343372Y-129390976D01*
X27439370Y-129410071D01*
X27590547Y-129380000D01*
X27590552Y-129380000D01*
X28038297Y-129290938D01*
X28546043Y-128951673D01*
X28631682Y-128823505D01*
X29680507Y-127774681D01*
X29808673Y-127689043D01*
X30109643Y-127238609D01*
X30171466Y-127387862D01*
X30575138Y-127791534D01*
X30704216Y-127845000D01*
X30575138Y-127898466D01*
X30171466Y-128302138D01*
X29953000Y-128829561D01*
X29953000Y-129400439D01*
X30171466Y-129927862D01*
X30575138Y-130331534D01*
X31102561Y-130550000D01*
X31673439Y-130550000D01*
X32200862Y-130331534D01*
X32604534Y-129927862D01*
X32823000Y-129400439D01*
X32823000Y-128829561D01*
X32604534Y-128302138D01*
X32200862Y-127898466D01*
X32071784Y-127845000D01*
X32200862Y-127791534D01*
X32604534Y-127387862D01*
X32823000Y-126860439D01*
X32823000Y-126289561D01*
X32604534Y-125762138D01*
X32200862Y-125358466D01*
X32071784Y-125305000D01*
X32200862Y-125251534D01*
X32604534Y-124847862D01*
X32823000Y-124320439D01*
X32823000Y-123749561D01*
X32604534Y-123222138D01*
X32200862Y-122818466D01*
X32087417Y-122771475D01*
X32142005Y-122748864D01*
X32216139Y-122502745D01*
X31388000Y-121674605D01*
X30559861Y-122502745D01*
X30633995Y-122748864D01*
X30692448Y-122769874D01*
X30575138Y-122818466D01*
X30237000Y-123156604D01*
X30237000Y-122279989D01*
X30380255Y-122323139D01*
X31208395Y-121495000D01*
X31567605Y-121495000D01*
X32395745Y-122323139D01*
X32641864Y-122249005D01*
X32834965Y-121711777D01*
X32807778Y-121141546D01*
X32641864Y-120740995D01*
X32395745Y-120666861D01*
X31567605Y-121495000D01*
X31208395Y-121495000D01*
X30380255Y-120666861D01*
X30237000Y-120710011D01*
X30237000Y-119833396D01*
X30575138Y-120171534D01*
X30688583Y-120218525D01*
X30633995Y-120241136D01*
X30559861Y-120487255D01*
X31388000Y-121315395D01*
X32216139Y-120487255D01*
X32142005Y-120241136D01*
X32083552Y-120220126D01*
X32200862Y-120171534D01*
X32604534Y-119767862D01*
X32823000Y-119240439D01*
X32823000Y-118669561D01*
X32604534Y-118142138D01*
X32200862Y-117738466D01*
X32071784Y-117685000D01*
X32200862Y-117631534D01*
X32604534Y-117227862D01*
X32823000Y-116700439D01*
X32823000Y-116129561D01*
X32604534Y-115602138D01*
X32200862Y-115198466D01*
X32071784Y-115145000D01*
X32200862Y-115091534D01*
X32604534Y-114687862D01*
X32823000Y-114160439D01*
X32823000Y-113589561D01*
X32604534Y-113062138D01*
X32200862Y-112658466D01*
X31673439Y-112440000D01*
X31102561Y-112440000D01*
X30575138Y-112658466D01*
X30237000Y-112996604D01*
X30237000Y-111633817D01*
X32728507Y-109142310D01*
X32856673Y-109056673D01*
X33195938Y-108548927D01*
X33285000Y-108101182D01*
X33285000Y-108101181D01*
X33315072Y-107950000D01*
X33285000Y-107798819D01*
X33285000Y-104037176D01*
X33315071Y-103885999D01*
X33285000Y-103734822D01*
X33285000Y-103734818D01*
X33195938Y-103287073D01*
X32856673Y-102779327D01*
X32728508Y-102693690D01*
X28967000Y-98932183D01*
X28967000Y-97467022D01*
X29204584Y-97467022D01*
X29425353Y-97837743D01*
X30397012Y-98231119D01*
X31445247Y-98222713D01*
X32374647Y-97837743D01*
X32595416Y-97467022D01*
X30900000Y-95771605D01*
X29204584Y-97467022D01*
X28967000Y-97467022D01*
X28967000Y-97252889D01*
X29024978Y-97287416D01*
X30720395Y-95592000D01*
X31079605Y-95592000D01*
X32775022Y-97287416D01*
X33145743Y-97066647D01*
X33539119Y-96094988D01*
X33530713Y-95046753D01*
X33145743Y-94117353D01*
X32775022Y-93896584D01*
X31079605Y-95592000D01*
X30720395Y-95592000D01*
X29024978Y-93896584D01*
X28967000Y-93931111D01*
X28967000Y-93716978D01*
X29204584Y-93716978D01*
X30900000Y-95412395D01*
X32595416Y-93716978D01*
X32374647Y-93346257D01*
X31402988Y-92952881D01*
X30354753Y-92961287D01*
X29425353Y-93346257D01*
X29204584Y-93716978D01*
X28967000Y-93716978D01*
X28967000Y-92861181D01*
X28997072Y-92710000D01*
X28928849Y-92367022D01*
X28877938Y-92111073D01*
X28538673Y-91603327D01*
X28410508Y-91517690D01*
X26960140Y-90067322D01*
X28765000Y-90067322D01*
X28765000Y-90916678D01*
X29090034Y-91701380D01*
X29690620Y-92301966D01*
X30475322Y-92627000D01*
X31324678Y-92627000D01*
X31952320Y-92367022D01*
X34304584Y-92367022D01*
X34525353Y-92737743D01*
X35497012Y-93131119D01*
X36545247Y-93122713D01*
X37474647Y-92737743D01*
X37695416Y-92367022D01*
X36000000Y-90671605D01*
X34304584Y-92367022D01*
X31952320Y-92367022D01*
X32109380Y-92301966D01*
X32709966Y-91701380D01*
X33035000Y-90916678D01*
X33035000Y-90067322D01*
X33002563Y-89989012D01*
X33360881Y-89989012D01*
X33369287Y-91037247D01*
X33754257Y-91966647D01*
X34124978Y-92187416D01*
X35820395Y-90492000D01*
X36179605Y-90492000D01*
X37875022Y-92187416D01*
X38245743Y-91966647D01*
X38639119Y-90994988D01*
X38630713Y-89946753D01*
X38245743Y-89017353D01*
X37875022Y-88796584D01*
X36179605Y-90492000D01*
X35820395Y-90492000D01*
X34124978Y-88796584D01*
X33754257Y-89017353D01*
X33360881Y-89989012D01*
X33002563Y-89989012D01*
X32709966Y-89282620D01*
X32109380Y-88682034D01*
X31952321Y-88616978D01*
X34304584Y-88616978D01*
X36000000Y-90312395D01*
X37695416Y-88616978D01*
X37474647Y-88246257D01*
X36502988Y-87852881D01*
X35454753Y-87861287D01*
X34525353Y-88246257D01*
X34304584Y-88616978D01*
X31952321Y-88616978D01*
X31324678Y-88357000D01*
X30475322Y-88357000D01*
X29690620Y-88682034D01*
X29090034Y-89282620D01*
X28765000Y-90067322D01*
X26960140Y-90067322D01*
X25535000Y-88642183D01*
X25535000Y-87267022D01*
X29204584Y-87267022D01*
X29425353Y-87637743D01*
X30397012Y-88031119D01*
X31445247Y-88022713D01*
X32374647Y-87637743D01*
X32595416Y-87267022D01*
X30900000Y-85571605D01*
X29204584Y-87267022D01*
X25535000Y-87267022D01*
X25535000Y-84889012D01*
X28260881Y-84889012D01*
X28269287Y-85937247D01*
X28654257Y-86866647D01*
X29024978Y-87087416D01*
X30720395Y-85392000D01*
X31079605Y-85392000D01*
X32775022Y-87087416D01*
X33145743Y-86866647D01*
X33539119Y-85894988D01*
X33530713Y-84846753D01*
X33145743Y-83917353D01*
X32775022Y-83696584D01*
X31079605Y-85392000D01*
X30720395Y-85392000D01*
X29024978Y-83696584D01*
X28654257Y-83917353D01*
X28260881Y-84889012D01*
X25535000Y-84889012D01*
X25535000Y-83019868D01*
X25657809Y-82937809D01*
X25798157Y-82727765D01*
X25847440Y-82480000D01*
X25847440Y-82467022D01*
X29204584Y-82467022D01*
X29425353Y-82837743D01*
X29802020Y-82990237D01*
X29425353Y-83146257D01*
X29204584Y-83516978D01*
X30900000Y-85212395D01*
X32595416Y-83516978D01*
X32374647Y-83146257D01*
X31997980Y-82993763D01*
X32374647Y-82837743D01*
X32595416Y-82467022D01*
X30900000Y-80771605D01*
X29204584Y-82467022D01*
X25847440Y-82467022D01*
X25847440Y-80089012D01*
X28260881Y-80089012D01*
X28269287Y-81137247D01*
X28654257Y-82066647D01*
X29024978Y-82287416D01*
X30720395Y-80592000D01*
X31079605Y-80592000D01*
X32775022Y-82287416D01*
X33145743Y-82066647D01*
X33539119Y-81094988D01*
X33530713Y-80046753D01*
X33145743Y-79117353D01*
X32775022Y-78896584D01*
X31079605Y-80592000D01*
X30720395Y-80592000D01*
X29024978Y-78896584D01*
X28654257Y-79117353D01*
X28260881Y-80089012D01*
X25847440Y-80089012D01*
X25847440Y-80080000D01*
X25798157Y-79832235D01*
X25657809Y-79622191D01*
X25447765Y-79481843D01*
X25200000Y-79432560D01*
X22800000Y-79432560D01*
X22552235Y-79481843D01*
X22342191Y-79622191D01*
X22201843Y-79832235D01*
X22152560Y-80080000D01*
X17520395Y-80080000D01*
X17617570Y-79982825D01*
X17494435Y-79695212D01*
X16812266Y-79435293D01*
X16082557Y-79456214D01*
X15505565Y-79695212D01*
X15382430Y-79982825D01*
X12398781Y-79982825D01*
X13664628Y-78716978D01*
X29204584Y-78716978D01*
X30900000Y-80412395D01*
X32595416Y-78716978D01*
X32374647Y-78346257D01*
X31402988Y-77952881D01*
X30354753Y-77961287D01*
X29425353Y-78346257D01*
X29204584Y-78716978D01*
X13664628Y-78716978D01*
X17107803Y-75273803D01*
X17135333Y-75232601D01*
X17145000Y-75184000D01*
X17145000Y-75067322D01*
X28765000Y-75067322D01*
X28765000Y-75916678D01*
X29090034Y-76701380D01*
X29690620Y-77301966D01*
X30475322Y-77627000D01*
X31324678Y-77627000D01*
X31952320Y-77367022D01*
X34304584Y-77367022D01*
X34525353Y-77737743D01*
X35497012Y-78131119D01*
X36545247Y-78122713D01*
X37474647Y-77737743D01*
X37695416Y-77367022D01*
X36000000Y-75671605D01*
X34304584Y-77367022D01*
X31952320Y-77367022D01*
X32109380Y-77301966D01*
X32709966Y-76701380D01*
X33035000Y-75916678D01*
X33035000Y-75067322D01*
X33002563Y-74989012D01*
X33360881Y-74989012D01*
X33369287Y-76037247D01*
X33754257Y-76966647D01*
X34124978Y-77187416D01*
X35820395Y-75492000D01*
X36179605Y-75492000D01*
X37875022Y-77187416D01*
X38245743Y-76966647D01*
X38639119Y-75994988D01*
X38630713Y-74946753D01*
X38245743Y-74017353D01*
X37875022Y-73796584D01*
X36179605Y-75492000D01*
X35820395Y-75492000D01*
X34124978Y-73796584D01*
X33754257Y-74017353D01*
X33360881Y-74989012D01*
X33002563Y-74989012D01*
X32709966Y-74282620D01*
X32109380Y-73682034D01*
X31952321Y-73616978D01*
X34304584Y-73616978D01*
X36000000Y-75312395D01*
X37695416Y-73616978D01*
X37474647Y-73246257D01*
X36502988Y-72852881D01*
X35454753Y-72861287D01*
X34525353Y-73246257D01*
X34304584Y-73616978D01*
X31952321Y-73616978D01*
X31324678Y-73357000D01*
X30475322Y-73357000D01*
X29690620Y-73682034D01*
X29090034Y-74282620D01*
X28765000Y-75067322D01*
X17145000Y-75067322D01*
X17145000Y-72267022D01*
X29204584Y-72267022D01*
X29425353Y-72637743D01*
X30397012Y-73031119D01*
X31445247Y-73022713D01*
X32374647Y-72637743D01*
X32595416Y-72267022D01*
X30900000Y-70571605D01*
X29204584Y-72267022D01*
X17145000Y-72267022D01*
X17145000Y-69889012D01*
X28260881Y-69889012D01*
X28269287Y-70937247D01*
X28654257Y-71866647D01*
X29024978Y-72087416D01*
X30720395Y-70392000D01*
X31079605Y-70392000D01*
X32775022Y-72087416D01*
X33145743Y-71866647D01*
X33539119Y-70894988D01*
X33530713Y-69846753D01*
X33145743Y-68917353D01*
X32775022Y-68696584D01*
X31079605Y-70392000D01*
X30720395Y-70392000D01*
X29024978Y-68696584D01*
X28654257Y-68917353D01*
X28260881Y-69889012D01*
X17145000Y-69889012D01*
X17145000Y-68516978D01*
X29204584Y-68516978D01*
X30900000Y-70212395D01*
X32595416Y-68516978D01*
X32374647Y-68146257D01*
X31402988Y-67752881D01*
X30354753Y-67761287D01*
X29425353Y-68146257D01*
X29204584Y-68516978D01*
X17145000Y-68516978D01*
X17145000Y-66802000D01*
X17135333Y-66753399D01*
X17107803Y-66712197D01*
X14065819Y-63670213D01*
X27123000Y-63670213D01*
X27123000Y-64479787D01*
X27432810Y-65227735D01*
X28005265Y-65800190D01*
X28753213Y-66110000D01*
X29562787Y-66110000D01*
X30310735Y-65800190D01*
X30594201Y-65516724D01*
X33395882Y-65516724D01*
X33543455Y-65825106D01*
X34298031Y-66118405D01*
X35107409Y-66100614D01*
X35772545Y-65825106D01*
X35920118Y-65516724D01*
X34658000Y-64254605D01*
X33395882Y-65516724D01*
X30594201Y-65516724D01*
X30883190Y-65227735D01*
X31193000Y-64479787D01*
X31193000Y-63715031D01*
X32614595Y-63715031D01*
X32632386Y-64524409D01*
X32907894Y-65189545D01*
X33216276Y-65337118D01*
X34478395Y-64075000D01*
X34837605Y-64075000D01*
X36099724Y-65337118D01*
X36408106Y-65189545D01*
X36701405Y-64434969D01*
X36683614Y-63625591D01*
X36408106Y-62960455D01*
X36099724Y-62812882D01*
X34837605Y-64075000D01*
X34478395Y-64075000D01*
X33216276Y-62812882D01*
X32907894Y-62960455D01*
X32614595Y-63715031D01*
X31193000Y-63715031D01*
X31193000Y-63670213D01*
X30883190Y-62922265D01*
X30594201Y-62633276D01*
X33395882Y-62633276D01*
X34658000Y-63895395D01*
X35920118Y-62633276D01*
X35772545Y-62324894D01*
X35017969Y-62031595D01*
X34208591Y-62049386D01*
X33543455Y-62324894D01*
X33395882Y-62633276D01*
X30594201Y-62633276D01*
X30310735Y-62349810D01*
X29562787Y-62040000D01*
X28753213Y-62040000D01*
X28005265Y-62349810D01*
X27432810Y-62922265D01*
X27123000Y-63670213D01*
X14065819Y-63670213D01*
X9865819Y-59470213D01*
X27123000Y-59470213D01*
X27123000Y-60279787D01*
X27432810Y-61027735D01*
X28005265Y-61600190D01*
X28753213Y-61910000D01*
X29562787Y-61910000D01*
X30310735Y-61600190D01*
X30883190Y-61027735D01*
X31193000Y-60279787D01*
X31193000Y-60160750D01*
X32623000Y-60160750D01*
X32623000Y-61401309D01*
X32719673Y-61634698D01*
X32898301Y-61813327D01*
X33131690Y-61910000D01*
X34372250Y-61910000D01*
X34531000Y-61751250D01*
X34531000Y-60002000D01*
X34785000Y-60002000D01*
X34785000Y-61751250D01*
X34943750Y-61910000D01*
X36184310Y-61910000D01*
X36417699Y-61813327D01*
X36596327Y-61634698D01*
X36693000Y-61401309D01*
X36693000Y-60160750D01*
X36534250Y-60002000D01*
X34785000Y-60002000D01*
X34531000Y-60002000D01*
X32781750Y-60002000D01*
X32623000Y-60160750D01*
X31193000Y-60160750D01*
X31193000Y-59470213D01*
X30883190Y-58722265D01*
X30509616Y-58348691D01*
X32623000Y-58348691D01*
X32623000Y-59589250D01*
X32781750Y-59748000D01*
X34531000Y-59748000D01*
X34531000Y-57998750D01*
X34785000Y-57998750D01*
X34785000Y-59748000D01*
X36534250Y-59748000D01*
X36693000Y-59589250D01*
X36693000Y-58348691D01*
X36596327Y-58115302D01*
X36417699Y-57936673D01*
X36184310Y-57840000D01*
X34943750Y-57840000D01*
X34785000Y-57998750D01*
X34531000Y-57998750D01*
X34372250Y-57840000D01*
X33131690Y-57840000D01*
X32898301Y-57936673D01*
X32719673Y-58115302D01*
X32623000Y-58348691D01*
X30509616Y-58348691D01*
X30310735Y-58149810D01*
X29562787Y-57840000D01*
X28753213Y-57840000D01*
X28005265Y-58149810D01*
X27432810Y-58722265D01*
X27123000Y-59470213D01*
X9865819Y-59470213D01*
X8255000Y-57859394D01*
X8255000Y-46425105D01*
X15955000Y-46425105D01*
X15955000Y-47194895D01*
X16249586Y-47906090D01*
X16793910Y-48450414D01*
X17505105Y-48745000D01*
X18274895Y-48745000D01*
X18986090Y-48450414D01*
X19530414Y-47906090D01*
X19825000Y-47194895D01*
X19825000Y-46425105D01*
X19530414Y-45713910D01*
X18986090Y-45169586D01*
X18274895Y-44875000D01*
X17505105Y-44875000D01*
X16793910Y-45169586D01*
X16249586Y-45713910D01*
X15955000Y-46425105D01*
X8255000Y-46425105D01*
X8255000Y-42654887D01*
X11075000Y-42654887D01*
X11075000Y-43345113D01*
X11339138Y-43982799D01*
X11827201Y-44470862D01*
X12464887Y-44735000D01*
X13155113Y-44735000D01*
X13792799Y-44470862D01*
X14280862Y-43982799D01*
X14545000Y-43345113D01*
X14545000Y-42654887D01*
X16155000Y-42654887D01*
X16155000Y-43345113D01*
X16419138Y-43982799D01*
X16907201Y-44470862D01*
X17544887Y-44735000D01*
X18235113Y-44735000D01*
X18872799Y-44470862D01*
X19360862Y-43982799D01*
X19625000Y-43345113D01*
X19625000Y-42654887D01*
X19360862Y-42017201D01*
X18872799Y-41529138D01*
X18235113Y-41265000D01*
X17544887Y-41265000D01*
X16907201Y-41529138D01*
X16419138Y-42017201D01*
X16155000Y-42654887D01*
X14545000Y-42654887D01*
X14280862Y-42017201D01*
X13792799Y-41529138D01*
X13155113Y-41265000D01*
X12464887Y-41265000D01*
X11827201Y-41529138D01*
X11339138Y-42017201D01*
X11075000Y-42654887D01*
X8255000Y-42654887D01*
X8255000Y-40946606D01*
X8617012Y-40584594D01*
X8714561Y-40625000D01*
X9285439Y-40625000D01*
X9812862Y-40406534D01*
X9960396Y-40259000D01*
X16238365Y-40259000D01*
X16249586Y-40286090D01*
X16793910Y-40830414D01*
X17505105Y-41125000D01*
X18274895Y-41125000D01*
X18986090Y-40830414D01*
X19530414Y-40286090D01*
X19671359Y-39945818D01*
X20628177Y-38989000D01*
X33984965Y-38989000D01*
X35180571Y-40184606D01*
G36*
X25808500Y-1408931D02*
X25808500Y-2298069D01*
X26148759Y-3119526D01*
X26777474Y-3748241D01*
X27598931Y-4088500D01*
X28488069Y-4088500D01*
X29309526Y-3748241D01*
X29938241Y-3119526D01*
X30278500Y-2298069D01*
X30278500Y-1408931D01*
X29999348Y-735000D01*
X39265001Y-735000D01*
X39265001Y-49245395D01*
X36703000Y-46683394D01*
X36703000Y-41910000D01*
X36693333Y-41861399D01*
X36665803Y-41820197D01*
X36195000Y-41349394D01*
X36195000Y-39878000D01*
X36185333Y-39829399D01*
X36157803Y-39788197D01*
X34125803Y-37756197D01*
X34084601Y-37728667D01*
X34036000Y-37719000D01*
X19812000Y-37719000D01*
X19763399Y-37728667D01*
X19722197Y-37756197D01*
X19457449Y-38020945D01*
X18986090Y-37549586D01*
X18274895Y-37255000D01*
X17505105Y-37255000D01*
X16793910Y-37549586D01*
X16249586Y-38093910D01*
X15955000Y-38805105D01*
X15955000Y-38989000D01*
X10435000Y-38989000D01*
X10435000Y-38904561D01*
X10216534Y-38377138D01*
X9812862Y-37973466D01*
X9285439Y-37755000D01*
X8714561Y-37755000D01*
X8187138Y-37973466D01*
X7783466Y-38377138D01*
X7565000Y-38904561D01*
X7565000Y-39475439D01*
X7572016Y-39492378D01*
X6768197Y-40296197D01*
X6740667Y-40337399D01*
X6731000Y-40386000D01*
X6731000Y-58420000D01*
X6740667Y-58468601D01*
X6768197Y-58509803D01*
X15621000Y-67362606D01*
X15621000Y-74877394D01*
X8837394Y-81661000D01*
X735000Y-81661000D01*
X735000Y-75484452D01*
X3665000Y-75484452D01*
X3665000Y-76015548D01*
X3868242Y-76506217D01*
X4243783Y-76881758D01*
X4734452Y-77085000D01*
X5265548Y-77085000D01*
X5756217Y-76881758D01*
X6131758Y-76506217D01*
X6335000Y-76015548D01*
X6335000Y-75484452D01*
X6131758Y-74993783D01*
X5756217Y-74618242D01*
X5265548Y-74415000D01*
X4734452Y-74415000D01*
X4243783Y-74618242D01*
X3868242Y-74993783D01*
X3665000Y-75484452D01*
X735000Y-75484452D01*
X735000Y-69984452D01*
X3665000Y-69984452D01*
X3665000Y-70515548D01*
X3868242Y-71006217D01*
X4243783Y-71381758D01*
X4734452Y-71585000D01*
X5265548Y-71585000D01*
X5756217Y-71381758D01*
X6131758Y-71006217D01*
X6335000Y-70515548D01*
X6335000Y-69984452D01*
X6131758Y-69493783D01*
X5756217Y-69118242D01*
X5265548Y-68915000D01*
X4734452Y-68915000D01*
X4243783Y-69118242D01*
X3868242Y-69493783D01*
X3665000Y-69984452D01*
X735000Y-69984452D01*
X735000Y-46524561D01*
X2485000Y-46524561D01*
X2485000Y-47095439D01*
X2703466Y-47622862D01*
X3107138Y-48026534D01*
X3634561Y-48245000D01*
X4205439Y-48245000D01*
X4732862Y-48026534D01*
X5136534Y-47622862D01*
X5355000Y-47095439D01*
X5355000Y-46524561D01*
X5136534Y-45997138D01*
X4732862Y-45593466D01*
X4205439Y-45375000D01*
X3634561Y-45375000D01*
X3107138Y-45593466D01*
X2703466Y-45997138D01*
X2485000Y-46524561D01*
X735000Y-46524561D01*
X735000Y-14149000D01*
X4086041Y-14149000D01*
X4202350Y-14733725D01*
X4528651Y-15222068D01*
X4502635Y-15227243D01*
X4292591Y-15367591D01*
X4152243Y-15577635D01*
X4102960Y-15825400D01*
X4102960Y-17552600D01*
X4152243Y-17800365D01*
X4292591Y-18010409D01*
X4502635Y-18150757D01*
X4750400Y-18200040D01*
X6477600Y-18200040D01*
X6725365Y-18150757D01*
X6935409Y-18010409D01*
X7075757Y-17800365D01*
X7080932Y-17774349D01*
X7569275Y-18100650D01*
X8006402Y-18187600D01*
X8301598Y-18187600D01*
X8738725Y-18100650D01*
X9234430Y-17769430D01*
X9424000Y-17485719D01*
X9613570Y-17769430D01*
X10109275Y-18100650D01*
X10546402Y-18187600D01*
X10841598Y-18187600D01*
X11278725Y-18100650D01*
X11774430Y-17769430D01*
X11964000Y-17485719D01*
X12153570Y-17769430D01*
X12649275Y-18100650D01*
X13086402Y-18187600D01*
X13381598Y-18187600D01*
X13818725Y-18100650D01*
X14314430Y-17769430D01*
X14504000Y-17485719D01*
X14693570Y-17769430D01*
X15189275Y-18100650D01*
X15626402Y-18187600D01*
X15921598Y-18187600D01*
X16358725Y-18100650D01*
X16642555Y-17911000D01*
X21642560Y-17911000D01*
X21642560Y-19611000D01*
X21691843Y-19858765D01*
X21832191Y-20068809D01*
X22042235Y-20209157D01*
X22290000Y-20258440D01*
X23990000Y-20258440D01*
X24237765Y-20209157D01*
X24447809Y-20068809D01*
X24588157Y-19858765D01*
X24597184Y-19813381D01*
X24609375Y-19831625D01*
X25100582Y-20159839D01*
X25533744Y-20246000D01*
X25826256Y-20246000D01*
X26259418Y-20159839D01*
X26750625Y-19831625D01*
X26963843Y-19512522D01*
X27024817Y-19642358D01*
X27453076Y-20032645D01*
X27863110Y-20202476D01*
X28093000Y-20081155D01*
X28093000Y-18888000D01*
X28073000Y-18888000D01*
X28073000Y-18634000D01*
X28093000Y-18634000D01*
X28093000Y-17440845D01*
X28347000Y-17440845D01*
X28347000Y-18634000D01*
X28367000Y-18634000D01*
X28367000Y-18888000D01*
X28347000Y-18888000D01*
X28347000Y-20081155D01*
X28576890Y-20202476D01*
X28986924Y-20032645D01*
X29415183Y-19642358D01*
X29476157Y-19512522D01*
X29689375Y-19831625D01*
X30180582Y-20159839D01*
X30613744Y-20246000D01*
X30906256Y-20246000D01*
X31339418Y-20159839D01*
X31830625Y-19831625D01*
X32158839Y-19340418D01*
X32274092Y-18761000D01*
X32158839Y-18181582D01*
X31830625Y-17690375D01*
X31339418Y-17362161D01*
X30906256Y-17276000D01*
X30613744Y-17276000D01*
X30180582Y-17362161D01*
X29689375Y-17690375D01*
X29476157Y-18009478D01*
X29415183Y-17879642D01*
X28986924Y-17489355D01*
X28576890Y-17319524D01*
X28347000Y-17440845D01*
X28093000Y-17440845D01*
X27863110Y-17319524D01*
X27453076Y-17489355D01*
X27024817Y-17879642D01*
X26963843Y-18009478D01*
X26750625Y-17690375D01*
X26259418Y-17362161D01*
X25826256Y-17276000D01*
X25533744Y-17276000D01*
X25100582Y-17362161D01*
X24609375Y-17690375D01*
X24597184Y-17708619D01*
X24588157Y-17663235D01*
X24447809Y-17453191D01*
X24237765Y-17312843D01*
X23990000Y-17263560D01*
X22290000Y-17263560D01*
X22042235Y-17312843D01*
X21832191Y-17453191D01*
X21691843Y-17663235D01*
X21642560Y-17911000D01*
X16642555Y-17911000D01*
X16854430Y-17769430D01*
X17185650Y-17273725D01*
X17301959Y-16689000D01*
X17185650Y-16104275D01*
X16854430Y-15608570D01*
X16570719Y-15419000D01*
X16854430Y-15229430D01*
X17185650Y-14733725D01*
X17222407Y-14548931D01*
X25808500Y-14548931D01*
X25808500Y-15438069D01*
X26148759Y-16259526D01*
X26777474Y-16888241D01*
X27598931Y-17228500D01*
X28488069Y-17228500D01*
X29309526Y-16888241D01*
X29938241Y-16259526D01*
X30278500Y-15438069D01*
X30278500Y-14548931D01*
X29938241Y-13727474D01*
X29309526Y-13098759D01*
X28488069Y-12758500D01*
X27598931Y-12758500D01*
X26777474Y-13098759D01*
X26148759Y-13727474D01*
X25808500Y-14548931D01*
X17222407Y-14548931D01*
X17301959Y-14149000D01*
X17185650Y-13564275D01*
X16854430Y-13068570D01*
X16358725Y-12737350D01*
X15921598Y-12650400D01*
X15626402Y-12650400D01*
X15189275Y-12737350D01*
X14693570Y-13068570D01*
X14504000Y-13352281D01*
X14314430Y-13068570D01*
X13818725Y-12737350D01*
X13381598Y-12650400D01*
X13086402Y-12650400D01*
X12649275Y-12737350D01*
X12153570Y-13068570D01*
X11964000Y-13352281D01*
X11774430Y-13068570D01*
X11278725Y-12737350D01*
X10841598Y-12650400D01*
X10546402Y-12650400D01*
X10109275Y-12737350D01*
X9613570Y-13068570D01*
X9424000Y-13352281D01*
X9234430Y-13068570D01*
X8738725Y-12737350D01*
X8301598Y-12650400D01*
X8006402Y-12650400D01*
X7569275Y-12737350D01*
X7073570Y-13068570D01*
X6884000Y-13352281D01*
X6694430Y-13068570D01*
X6198725Y-12737350D01*
X5761598Y-12650400D01*
X5466402Y-12650400D01*
X5029275Y-12737350D01*
X4533570Y-13068570D01*
X4202350Y-13564275D01*
X4086041Y-14149000D01*
X735000Y-14149000D01*
X735000Y-3989000D01*
X4086041Y-3989000D01*
X4202350Y-4573725D01*
X4528651Y-5062068D01*
X4502635Y-5067243D01*
X4292591Y-5207591D01*
X4152243Y-5417635D01*
X4102960Y-5665400D01*
X4102960Y-7392600D01*
X4152243Y-7640365D01*
X4292591Y-7850409D01*
X4502635Y-7990757D01*
X4750400Y-8040040D01*
X6477600Y-8040040D01*
X6725365Y-7990757D01*
X6935409Y-7850409D01*
X7075757Y-7640365D01*
X7080932Y-7614349D01*
X7569275Y-7940650D01*
X8006402Y-8027600D01*
X8301598Y-8027600D01*
X8738725Y-7940650D01*
X9234430Y-7609430D01*
X9424000Y-7325719D01*
X9613570Y-7609430D01*
X10109275Y-7940650D01*
X10546402Y-8027600D01*
X10841598Y-8027600D01*
X11278725Y-7940650D01*
X11774430Y-7609430D01*
X11967037Y-7321174D01*
X12345510Y-7735821D01*
X12874973Y-7983968D01*
X13107000Y-7863469D01*
X13107000Y-6656000D01*
X13087000Y-6656000D01*
X13087000Y-6402000D01*
X13107000Y-6402000D01*
X13107000Y-6382000D01*
X13361000Y-6382000D01*
X13361000Y-6402000D01*
X13381000Y-6402000D01*
X13381000Y-6656000D01*
X13361000Y-6656000D01*
X13361000Y-7863469D01*
X13593027Y-7983968D01*
X14122490Y-7735821D01*
X14500963Y-7321174D01*
X14693570Y-7609430D01*
X15189275Y-7940650D01*
X15626402Y-8027600D01*
X15921598Y-8027600D01*
X16358725Y-7940650D01*
X16854430Y-7609430D01*
X17185650Y-7113725D01*
X17301959Y-6529000D01*
X17185650Y-5944275D01*
X16854430Y-5448570D01*
X16570719Y-5259000D01*
X16854430Y-5069430D01*
X17185650Y-4573725D01*
X17301959Y-3989000D01*
X17185650Y-3404275D01*
X16854430Y-2908570D01*
X16358725Y-2577350D01*
X15921598Y-2490400D01*
X15626402Y-2490400D01*
X15189275Y-2577350D01*
X14693570Y-2908570D01*
X14504000Y-3192281D01*
X14314430Y-2908570D01*
X13818725Y-2577350D01*
X13381598Y-2490400D01*
X13086402Y-2490400D01*
X12649275Y-2577350D01*
X12153570Y-2908570D01*
X11964000Y-3192281D01*
X11774430Y-2908570D01*
X11278725Y-2577350D01*
X10841598Y-2490400D01*
X10546402Y-2490400D01*
X10109275Y-2577350D01*
X9613570Y-2908570D01*
X9424000Y-3192281D01*
X9234430Y-2908570D01*
X8738725Y-2577350D01*
X8301598Y-2490400D01*
X8006402Y-2490400D01*
X7569275Y-2577350D01*
X7073570Y-2908570D01*
X6884000Y-3192281D01*
X6694430Y-2908570D01*
X6198725Y-2577350D01*
X5761598Y-2490400D01*
X5466402Y-2490400D01*
X5029275Y-2577350D01*
X4533570Y-2908570D01*
X4202350Y-3404275D01*
X4086041Y-3989000D01*
X735000Y-3989000D01*
X735000Y-735000D01*
X26087652Y-735000D01*
X25808500Y-1408931D01*
X25808500Y-1408931D01*
G37*
X25808500Y-1408931D02*
X25808500Y-2298069D01*
X26148759Y-3119526D01*
X26777474Y-3748241D01*
X27598931Y-4088500D01*
X28488069Y-4088500D01*
X29309526Y-3748241D01*
X29938241Y-3119526D01*
X30278500Y-2298069D01*
X30278500Y-1408931D01*
X29999348Y-735000D01*
X39265001Y-735000D01*
X39265001Y-49245395D01*
X36703000Y-46683394D01*
X36703000Y-41910000D01*
X36693333Y-41861399D01*
X36665803Y-41820197D01*
X36195000Y-41349394D01*
X36195000Y-39878000D01*
X36185333Y-39829399D01*
X36157803Y-39788197D01*
X34125803Y-37756197D01*
X34084601Y-37728667D01*
X34036000Y-37719000D01*
X19812000Y-37719000D01*
X19763399Y-37728667D01*
X19722197Y-37756197D01*
X19457449Y-38020945D01*
X18986090Y-37549586D01*
X18274895Y-37255000D01*
X17505105Y-37255000D01*
X16793910Y-37549586D01*
X16249586Y-38093910D01*
X15955000Y-38805105D01*
X15955000Y-38989000D01*
X10435000Y-38989000D01*
X10435000Y-38904561D01*
X10216534Y-38377138D01*
X9812862Y-37973466D01*
X9285439Y-37755000D01*
X8714561Y-37755000D01*
X8187138Y-37973466D01*
X7783466Y-38377138D01*
X7565000Y-38904561D01*
X7565000Y-39475439D01*
X7572016Y-39492378D01*
X6768197Y-40296197D01*
X6740667Y-40337399D01*
X6731000Y-40386000D01*
X6731000Y-58420000D01*
X6740667Y-58468601D01*
X6768197Y-58509803D01*
X15621000Y-67362606D01*
X15621000Y-74877394D01*
X8837394Y-81661000D01*
X735000Y-81661000D01*
X735000Y-75484452D01*
X3665000Y-75484452D01*
X3665000Y-76015548D01*
X3868242Y-76506217D01*
X4243783Y-76881758D01*
X4734452Y-77085000D01*
X5265548Y-77085000D01*
X5756217Y-76881758D01*
X6131758Y-76506217D01*
X6335000Y-76015548D01*
X6335000Y-75484452D01*
X6131758Y-74993783D01*
X5756217Y-74618242D01*
X5265548Y-74415000D01*
X4734452Y-74415000D01*
X4243783Y-74618242D01*
X3868242Y-74993783D01*
X3665000Y-75484452D01*
X735000Y-75484452D01*
X735000Y-69984452D01*
X3665000Y-69984452D01*
X3665000Y-70515548D01*
X3868242Y-71006217D01*
X4243783Y-71381758D01*
X4734452Y-71585000D01*
X5265548Y-71585000D01*
X5756217Y-71381758D01*
X6131758Y-71006217D01*
X6335000Y-70515548D01*
X6335000Y-69984452D01*
X6131758Y-69493783D01*
X5756217Y-69118242D01*
X5265548Y-68915000D01*
X4734452Y-68915000D01*
X4243783Y-69118242D01*
X3868242Y-69493783D01*
X3665000Y-69984452D01*
X735000Y-69984452D01*
X735000Y-46524561D01*
X2485000Y-46524561D01*
X2485000Y-47095439D01*
X2703466Y-47622862D01*
X3107138Y-48026534D01*
X3634561Y-48245000D01*
X4205439Y-48245000D01*
X4732862Y-48026534D01*
X5136534Y-47622862D01*
X5355000Y-47095439D01*
X5355000Y-46524561D01*
X5136534Y-45997138D01*
X4732862Y-45593466D01*
X4205439Y-45375000D01*
X3634561Y-45375000D01*
X3107138Y-45593466D01*
X2703466Y-45997138D01*
X2485000Y-46524561D01*
X735000Y-46524561D01*
X735000Y-14149000D01*
X4086041Y-14149000D01*
X4202350Y-14733725D01*
X4528651Y-15222068D01*
X4502635Y-15227243D01*
X4292591Y-15367591D01*
X4152243Y-15577635D01*
X4102960Y-15825400D01*
X4102960Y-17552600D01*
X4152243Y-17800365D01*
X4292591Y-18010409D01*
X4502635Y-18150757D01*
X4750400Y-18200040D01*
X6477600Y-18200040D01*
X6725365Y-18150757D01*
X6935409Y-18010409D01*
X7075757Y-17800365D01*
X7080932Y-17774349D01*
X7569275Y-18100650D01*
X8006402Y-18187600D01*
X8301598Y-18187600D01*
X8738725Y-18100650D01*
X9234430Y-17769430D01*
X9424000Y-17485719D01*
X9613570Y-17769430D01*
X10109275Y-18100650D01*
X10546402Y-18187600D01*
X10841598Y-18187600D01*
X11278725Y-18100650D01*
X11774430Y-17769430D01*
X11964000Y-17485719D01*
X12153570Y-17769430D01*
X12649275Y-18100650D01*
X13086402Y-18187600D01*
X13381598Y-18187600D01*
X13818725Y-18100650D01*
X14314430Y-17769430D01*
X14504000Y-17485719D01*
X14693570Y-17769430D01*
X15189275Y-18100650D01*
X15626402Y-18187600D01*
X15921598Y-18187600D01*
X16358725Y-18100650D01*
X16642555Y-17911000D01*
X21642560Y-17911000D01*
X21642560Y-19611000D01*
X21691843Y-19858765D01*
X21832191Y-20068809D01*
X22042235Y-20209157D01*
X22290000Y-20258440D01*
X23990000Y-20258440D01*
X24237765Y-20209157D01*
X24447809Y-20068809D01*
X24588157Y-19858765D01*
X24597184Y-19813381D01*
X24609375Y-19831625D01*
X25100582Y-20159839D01*
X25533744Y-20246000D01*
X25826256Y-20246000D01*
X26259418Y-20159839D01*
X26750625Y-19831625D01*
X26963843Y-19512522D01*
X27024817Y-19642358D01*
X27453076Y-20032645D01*
X27863110Y-20202476D01*
X28093000Y-20081155D01*
X28093000Y-18888000D01*
X28073000Y-18888000D01*
X28073000Y-18634000D01*
X28093000Y-18634000D01*
X28093000Y-17440845D01*
X28347000Y-17440845D01*
X28347000Y-18634000D01*
X28367000Y-18634000D01*
X28367000Y-18888000D01*
X28347000Y-18888000D01*
X28347000Y-20081155D01*
X28576890Y-20202476D01*
X28986924Y-20032645D01*
X29415183Y-19642358D01*
X29476157Y-19512522D01*
X29689375Y-19831625D01*
X30180582Y-20159839D01*
X30613744Y-20246000D01*
X30906256Y-20246000D01*
X31339418Y-20159839D01*
X31830625Y-19831625D01*
X32158839Y-19340418D01*
X32274092Y-18761000D01*
X32158839Y-18181582D01*
X31830625Y-17690375D01*
X31339418Y-17362161D01*
X30906256Y-17276000D01*
X30613744Y-17276000D01*
X30180582Y-17362161D01*
X29689375Y-17690375D01*
X29476157Y-18009478D01*
X29415183Y-17879642D01*
X28986924Y-17489355D01*
X28576890Y-17319524D01*
X28347000Y-17440845D01*
X28093000Y-17440845D01*
X27863110Y-17319524D01*
X27453076Y-17489355D01*
X27024817Y-17879642D01*
X26963843Y-18009478D01*
X26750625Y-17690375D01*
X26259418Y-17362161D01*
X25826256Y-17276000D01*
X25533744Y-17276000D01*
X25100582Y-17362161D01*
X24609375Y-17690375D01*
X24597184Y-17708619D01*
X24588157Y-17663235D01*
X24447809Y-17453191D01*
X24237765Y-17312843D01*
X23990000Y-17263560D01*
X22290000Y-17263560D01*
X22042235Y-17312843D01*
X21832191Y-17453191D01*
X21691843Y-17663235D01*
X21642560Y-17911000D01*
X16642555Y-17911000D01*
X16854430Y-17769430D01*
X17185650Y-17273725D01*
X17301959Y-16689000D01*
X17185650Y-16104275D01*
X16854430Y-15608570D01*
X16570719Y-15419000D01*
X16854430Y-15229430D01*
X17185650Y-14733725D01*
X17222407Y-14548931D01*
X25808500Y-14548931D01*
X25808500Y-15438069D01*
X26148759Y-16259526D01*
X26777474Y-16888241D01*
X27598931Y-17228500D01*
X28488069Y-17228500D01*
X29309526Y-16888241D01*
X29938241Y-16259526D01*
X30278500Y-15438069D01*
X30278500Y-14548931D01*
X29938241Y-13727474D01*
X29309526Y-13098759D01*
X28488069Y-12758500D01*
X27598931Y-12758500D01*
X26777474Y-13098759D01*
X26148759Y-13727474D01*
X25808500Y-14548931D01*
X17222407Y-14548931D01*
X17301959Y-14149000D01*
X17185650Y-13564275D01*
X16854430Y-13068570D01*
X16358725Y-12737350D01*
X15921598Y-12650400D01*
X15626402Y-12650400D01*
X15189275Y-12737350D01*
X14693570Y-13068570D01*
X14504000Y-13352281D01*
X14314430Y-13068570D01*
X13818725Y-12737350D01*
X13381598Y-12650400D01*
X13086402Y-12650400D01*
X12649275Y-12737350D01*
X12153570Y-13068570D01*
X11964000Y-13352281D01*
X11774430Y-13068570D01*
X11278725Y-12737350D01*
X10841598Y-12650400D01*
X10546402Y-12650400D01*
X10109275Y-12737350D01*
X9613570Y-13068570D01*
X9424000Y-13352281D01*
X9234430Y-13068570D01*
X8738725Y-12737350D01*
X8301598Y-12650400D01*
X8006402Y-12650400D01*
X7569275Y-12737350D01*
X7073570Y-13068570D01*
X6884000Y-13352281D01*
X6694430Y-13068570D01*
X6198725Y-12737350D01*
X5761598Y-12650400D01*
X5466402Y-12650400D01*
X5029275Y-12737350D01*
X4533570Y-13068570D01*
X4202350Y-13564275D01*
X4086041Y-14149000D01*
X735000Y-14149000D01*
X735000Y-3989000D01*
X4086041Y-3989000D01*
X4202350Y-4573725D01*
X4528651Y-5062068D01*
X4502635Y-5067243D01*
X4292591Y-5207591D01*
X4152243Y-5417635D01*
X4102960Y-5665400D01*
X4102960Y-7392600D01*
X4152243Y-7640365D01*
X4292591Y-7850409D01*
X4502635Y-7990757D01*
X4750400Y-8040040D01*
X6477600Y-8040040D01*
X6725365Y-7990757D01*
X6935409Y-7850409D01*
X7075757Y-7640365D01*
X7080932Y-7614349D01*
X7569275Y-7940650D01*
X8006402Y-8027600D01*
X8301598Y-8027600D01*
X8738725Y-7940650D01*
X9234430Y-7609430D01*
X9424000Y-7325719D01*
X9613570Y-7609430D01*
X10109275Y-7940650D01*
X10546402Y-8027600D01*
X10841598Y-8027600D01*
X11278725Y-7940650D01*
X11774430Y-7609430D01*
X11967037Y-7321174D01*
X12345510Y-7735821D01*
X12874973Y-7983968D01*
X13107000Y-7863469D01*
X13107000Y-6656000D01*
X13087000Y-6656000D01*
X13087000Y-6402000D01*
X13107000Y-6402000D01*
X13107000Y-6382000D01*
X13361000Y-6382000D01*
X13361000Y-6402000D01*
X13381000Y-6402000D01*
X13381000Y-6656000D01*
X13361000Y-6656000D01*
X13361000Y-7863469D01*
X13593027Y-7983968D01*
X14122490Y-7735821D01*
X14500963Y-7321174D01*
X14693570Y-7609430D01*
X15189275Y-7940650D01*
X15626402Y-8027600D01*
X15921598Y-8027600D01*
X16358725Y-7940650D01*
X16854430Y-7609430D01*
X17185650Y-7113725D01*
X17301959Y-6529000D01*
X17185650Y-5944275D01*
X16854430Y-5448570D01*
X16570719Y-5259000D01*
X16854430Y-5069430D01*
X17185650Y-4573725D01*
X17301959Y-3989000D01*
X17185650Y-3404275D01*
X16854430Y-2908570D01*
X16358725Y-2577350D01*
X15921598Y-2490400D01*
X15626402Y-2490400D01*
X15189275Y-2577350D01*
X14693570Y-2908570D01*
X14504000Y-3192281D01*
X14314430Y-2908570D01*
X13818725Y-2577350D01*
X13381598Y-2490400D01*
X13086402Y-2490400D01*
X12649275Y-2577350D01*
X12153570Y-2908570D01*
X11964000Y-3192281D01*
X11774430Y-2908570D01*
X11278725Y-2577350D01*
X10841598Y-2490400D01*
X10546402Y-2490400D01*
X10109275Y-2577350D01*
X9613570Y-2908570D01*
X9424000Y-3192281D01*
X9234430Y-2908570D01*
X8738725Y-2577350D01*
X8301598Y-2490400D01*
X8006402Y-2490400D01*
X7569275Y-2577350D01*
X7073570Y-2908570D01*
X6884000Y-3192281D01*
X6694430Y-2908570D01*
X6198725Y-2577350D01*
X5761598Y-2490400D01*
X5466402Y-2490400D01*
X5029275Y-2577350D01*
X4533570Y-2908570D01*
X4202350Y-3404275D01*
X4086041Y-3989000D01*
X735000Y-3989000D01*
X735000Y-735000D01*
X26087652Y-735000D01*
X25808500Y-1408931D01*
M02*
