G04 #@! TF.FileFunction,Copper,L1,Top,Signal*
%FSLAX46Y46*%
G04 Gerber Fmt 4.6, Leading zero omitted, Abs format (unit mm)*
G04 Created by KiCad (PCBNEW 4.0.7) date 01/15/18 15:16:35*
%MOMM*%
%LPD*%
G01*
G04 APERTURE LIST*
%ADD10C,0.100000*%
%ADD11C,0.150000*%
%ADD12R,3.000000X1.600000*%
%ADD13R,0.750000X0.800000*%
%ADD14R,0.500000X0.900000*%
%ADD15R,0.900000X0.500000*%
%ADD16R,0.600000X1.550000*%
%ADD17C,1.524000*%
%ADD18R,1.700000X1.700000*%
%ADD19O,1.700000X1.700000*%
%ADD20C,0.600000*%
%ADD21C,0.254000*%
G04 APERTURE END LIST*
D10*
D11*
X138176000Y-78740000D02*
X138176000Y-103378000D01*
X153924000Y-78740000D02*
X138176000Y-78740000D01*
X153924000Y-103378000D02*
X153924000Y-78740000D01*
X138176000Y-103378000D02*
X153924000Y-103378000D01*
D12*
X144440000Y-94234000D03*
X140040000Y-94234000D03*
D13*
X149606000Y-91174000D03*
X149606000Y-89674000D03*
X151130000Y-89674000D03*
X151130000Y-91174000D03*
X152400000Y-99302000D03*
X152400000Y-97802000D03*
D14*
X148324000Y-89662000D03*
X146824000Y-89662000D03*
X148324000Y-91186000D03*
X146824000Y-91186000D03*
D15*
X145415000Y-99048000D03*
X145415000Y-97548000D03*
X145415000Y-91174000D03*
X145415000Y-89674000D03*
X152400000Y-93968000D03*
X152400000Y-92468000D03*
X152400000Y-95008000D03*
X152400000Y-96508000D03*
D16*
X150749000Y-93058000D03*
X149479000Y-93058000D03*
X148209000Y-93058000D03*
X146939000Y-93058000D03*
X146939000Y-98458000D03*
X148209000Y-98458000D03*
X149479000Y-98458000D03*
X150749000Y-98458000D03*
D17*
X146344000Y-83820000D03*
X151344000Y-83820000D03*
D18*
X146304000Y-101600000D03*
D19*
X148844000Y-101600000D03*
X151384000Y-101600000D03*
D20*
X149606000Y-88900000D03*
X140462000Y-97536000D03*
X147320000Y-94742000D03*
X145415000Y-88646000D03*
D21*
X148209000Y-93058000D02*
X148209000Y-91301000D01*
X148209000Y-91301000D02*
X148324000Y-91186000D01*
X149606000Y-91174000D02*
X148336000Y-91174000D01*
X148336000Y-91174000D02*
X148324000Y-91186000D01*
X149606000Y-89674000D02*
X149606000Y-89154000D01*
X149606000Y-89154000D02*
X149606000Y-88900000D01*
X149606000Y-89674000D02*
X148336000Y-89674000D01*
X148336000Y-89674000D02*
X148324000Y-89662000D01*
X145415000Y-91174000D02*
X145415000Y-93472000D01*
X145415000Y-93472000D02*
X144653000Y-94234000D01*
X144653000Y-94234000D02*
X144440000Y-94234000D01*
X145415000Y-97548000D02*
X145415000Y-94996000D01*
X145415000Y-94996000D02*
X144653000Y-94234000D01*
X144653000Y-94234000D02*
X144440000Y-94234000D01*
X144526000Y-94234000D02*
X144440000Y-94234000D01*
X145415000Y-91174000D02*
X146812000Y-91174000D01*
X146812000Y-91174000D02*
X146824000Y-91186000D01*
X140040000Y-94234000D02*
X140462000Y-94656000D01*
X140462000Y-94656000D02*
X140462000Y-97536000D01*
X140462000Y-94656000D02*
X140462000Y-94996000D01*
X146939000Y-93058000D02*
X146939000Y-94361000D01*
X146939000Y-94361000D02*
X147320000Y-94742000D01*
X145415000Y-89674000D02*
X145415000Y-88646000D01*
X145415000Y-89674000D02*
X146812000Y-89674000D01*
X146812000Y-89674000D02*
X146824000Y-89662000D01*
X152400000Y-92468000D02*
X152400000Y-92444000D01*
X152400000Y-92444000D02*
X151130000Y-91174000D01*
X152400000Y-97802000D02*
X152400000Y-96508000D01*
X152400000Y-96508000D02*
X149110000Y-96508000D01*
X148209000Y-97409000D02*
X148209000Y-98458000D01*
X149110000Y-96508000D02*
X148209000Y-97409000D01*
X146304000Y-100330000D02*
X145796000Y-99822000D01*
X145542000Y-99568000D02*
X145542000Y-99175000D01*
X145796000Y-99822000D02*
X145542000Y-99568000D01*
X145542000Y-99175000D02*
X145415000Y-99048000D01*
X146304000Y-101600000D02*
X146304000Y-100330000D01*
X149479000Y-99441000D02*
X149479000Y-98458000D01*
X149098000Y-99822000D02*
X149479000Y-99441000D01*
X146812000Y-99822000D02*
X149098000Y-99822000D01*
X146304000Y-100330000D02*
X146812000Y-99822000D01*
X152400000Y-95008000D02*
X152400000Y-93968000D01*
X152400000Y-95008000D02*
X150380000Y-95008000D01*
X149479000Y-94107000D02*
X149479000Y-93058000D01*
X150380000Y-95008000D02*
X149479000Y-94107000D01*
X152400000Y-99302000D02*
X151626000Y-100076000D01*
X150368000Y-100076000D02*
X148844000Y-101600000D01*
X151626000Y-100076000D02*
X150368000Y-100076000D01*
M02*
