G04 #@! TF.GenerationSoftware,KiCad,Pcbnew,(5.0.0-rc2-dev-311-g1dd4af297)*
G04 #@! TF.CreationDate,2018-05-15T09:42:03+02:00*
G04 #@! TF.ProjectId,resetUSB,72657365745553422E6B696361645F70,1.0*
G04 #@! TF.SameCoordinates,Original*
G04 #@! TF.FileFunction,Soldermask,Top*
G04 #@! TF.FilePolarity,Negative*
%FSLAX46Y46*%
G04 Gerber Fmt 4.6, Leading zero omitted, Abs format (unit mm)*
G04 Created by KiCad (PCBNEW (5.0.0-rc2-dev-311-g1dd4af297)) date 05/15/18 09:42:03*
%MOMM*%
%LPD*%
G01*
G04 APERTURE LIST*
%ADD10C,0.200000*%
%ADD11R,3.200000X1.800000*%
%ADD12R,0.950000X1.000000*%
%ADD13C,2.400000*%
%ADD14R,1.000000X1.100000*%
%ADD15C,1.800000*%
%ADD16C,2.800000*%
%ADD17C,0.950000*%
%ADD18C,0.100000*%
%ADD19R,1.100000X0.700000*%
%ADD20R,2.600000X2.600000*%
%ADD21C,2.600000*%
%ADD22R,1.800000X3.200000*%
%ADD23R,2.200000X1.700000*%
%ADD24R,2.200000X4.000000*%
%ADD25R,0.700000X1.100000*%
%ADD26R,1.800000X2.380000*%
%ADD27C,0.480000*%
%ADD28C,0.700000*%
%ADD29C,3.400000*%
%ADD30R,1.200000X3.200000*%
%ADD31C,0.800000*%
%ADD32R,2.000000X2.700000*%
%ADD33R,1.000000X1.000000*%
%ADD34R,3.200000X0.900000*%
%ADD35R,6.240000X3.600000*%
%ADD36C,1.600000*%
%ADD37R,1.927200X1.927200*%
%ADD38O,1.927200X1.927200*%
%ADD39O,1.900000X1.900000*%
%ADD40R,1.900000X1.900000*%
%ADD41R,0.710000X0.900000*%
%ADD42R,1.750000X0.800000*%
%ADD43R,3.000000X3.000000*%
%ADD44C,3.000000*%
%ADD45C,3.300000*%
%ADD46R,1.000000X0.950000*%
%ADD47C,1.200000*%
%ADD48R,2.900000X1.900000*%
%ADD49R,1.900000X2.900000*%
%ADD50C,1.500000*%
G04 APERTURE END LIST*
D10*
X46037500Y-161932500D02*
X46037500Y-18932500D01*
X85037500Y-161932500D02*
X46037500Y-161932500D01*
X85037500Y-18932500D02*
X85037500Y-161932500D01*
X46037500Y-18932500D02*
X85037500Y-18932500D01*
D11*
X62125500Y-135518500D03*
X66525500Y-135518500D03*
D12*
X72453500Y-127529500D03*
X72453500Y-129029500D03*
D13*
X75247500Y-104112500D03*
X70807500Y-94582500D03*
D14*
X60034500Y-63614000D03*
X59084500Y-61614000D03*
X60984500Y-61614000D03*
X63717500Y-63614000D03*
X62767500Y-61614000D03*
X64667500Y-61614000D03*
D15*
X49857500Y-76842500D03*
X54937500Y-69222500D03*
D13*
X58747500Y-73032500D03*
X63827500Y-73032500D03*
D16*
X63827500Y-76842500D03*
X63827500Y-69222500D03*
D17*
X58759830Y-115430170D03*
D18*
G36*
X58742152Y-116119599D02*
X58070401Y-115447848D01*
X58777508Y-114740741D01*
X59449259Y-115412492D01*
X58742152Y-116119599D01*
X58742152Y-116119599D01*
G37*
D17*
X57699170Y-116490830D03*
D18*
G36*
X57681492Y-117180259D02*
X57009741Y-116508508D01*
X57716848Y-115801401D01*
X58388599Y-116473152D01*
X57681492Y-117180259D01*
X57681492Y-117180259D01*
G37*
D19*
X75882500Y-89850000D03*
X75882500Y-88350000D03*
D20*
X64579500Y-118754500D03*
D21*
X64579500Y-126254500D03*
D13*
X70807500Y-142582500D03*
X75247500Y-152112500D03*
D12*
X77760359Y-40971041D03*
X77760359Y-42471041D03*
D22*
X65392300Y-40456100D03*
X65392300Y-44856100D03*
D23*
X75830359Y-45291041D03*
X75830359Y-40691041D03*
X75830359Y-42991041D03*
D24*
X69530359Y-42991041D03*
D25*
X72949500Y-56778500D03*
X71449500Y-56778500D03*
D26*
X82867500Y-42664500D03*
X82867500Y-50064500D03*
D17*
X62525170Y-53266936D03*
D18*
G36*
X62507492Y-53956365D02*
X61835741Y-53284614D01*
X62542848Y-52577507D01*
X63214599Y-53249258D01*
X62507492Y-53956365D01*
X62507492Y-53956365D01*
G37*
D17*
X63585830Y-52206276D03*
D18*
G36*
X63568152Y-52895705D02*
X62896401Y-52223954D01*
X63603508Y-51516847D01*
X64275259Y-52188598D01*
X63568152Y-52895705D01*
X63568152Y-52895705D01*
G37*
D17*
X74253830Y-51422170D03*
D18*
G36*
X74271508Y-50732741D02*
X74943259Y-51404492D01*
X74236152Y-52111599D01*
X73564401Y-51439848D01*
X74271508Y-50732741D01*
X74271508Y-50732741D01*
G37*
D17*
X73193170Y-52482830D03*
D18*
G36*
X73210848Y-51793401D02*
X73882599Y-52465152D01*
X73175492Y-53172259D01*
X72503741Y-52500508D01*
X73210848Y-51793401D01*
X73210848Y-51793401D01*
G37*
D27*
X64805111Y-53438056D03*
D18*
G36*
X64479842Y-54102736D02*
X64140431Y-53763325D01*
X65130380Y-52773376D01*
X65469791Y-53112787D01*
X64479842Y-54102736D01*
X64479842Y-54102736D01*
G37*
D27*
X65158664Y-53791610D03*
D18*
G36*
X64833395Y-54456290D02*
X64493984Y-54116879D01*
X65483933Y-53126930D01*
X65823344Y-53466341D01*
X64833395Y-54456290D01*
X64833395Y-54456290D01*
G37*
D27*
X65512218Y-54145163D03*
D18*
G36*
X65186949Y-54809843D02*
X64847538Y-54470432D01*
X65837487Y-53480483D01*
X66176898Y-53819894D01*
X65186949Y-54809843D01*
X65186949Y-54809843D01*
G37*
D27*
X65865771Y-54498716D03*
D18*
G36*
X65540502Y-55163396D02*
X65201091Y-54823985D01*
X66191040Y-53834036D01*
X66530451Y-54173447D01*
X65540502Y-55163396D01*
X65540502Y-55163396D01*
G37*
D27*
X66219325Y-54852270D03*
D18*
G36*
X65894056Y-55516950D02*
X65554645Y-55177539D01*
X66544594Y-54187590D01*
X66884005Y-54527001D01*
X65894056Y-55516950D01*
X65894056Y-55516950D01*
G37*
D27*
X66572878Y-55205823D03*
D18*
G36*
X66247609Y-55870503D02*
X65908198Y-55531092D01*
X66898147Y-54541143D01*
X67237558Y-54880554D01*
X66247609Y-55870503D01*
X66247609Y-55870503D01*
G37*
D27*
X66926431Y-55559377D03*
D18*
G36*
X66601162Y-56224057D02*
X66261751Y-55884646D01*
X67251700Y-54894697D01*
X67591111Y-55234108D01*
X66601162Y-56224057D01*
X66601162Y-56224057D01*
G37*
D27*
X67279985Y-55912930D03*
D18*
G36*
X66954716Y-56577610D02*
X66615305Y-56238199D01*
X67605254Y-55248250D01*
X67944665Y-55587661D01*
X66954716Y-56577610D01*
X66954716Y-56577610D01*
G37*
D27*
X69401305Y-55912930D03*
D18*
G36*
X70065985Y-56238199D02*
X69726574Y-56577610D01*
X68736625Y-55587661D01*
X69076036Y-55248250D01*
X70065985Y-56238199D01*
X70065985Y-56238199D01*
G37*
D27*
X69754859Y-55559377D03*
D18*
G36*
X70419539Y-55884646D02*
X70080128Y-56224057D01*
X69090179Y-55234108D01*
X69429590Y-54894697D01*
X70419539Y-55884646D01*
X70419539Y-55884646D01*
G37*
D27*
X70108412Y-55205823D03*
D18*
G36*
X70773092Y-55531092D02*
X70433681Y-55870503D01*
X69443732Y-54880554D01*
X69783143Y-54541143D01*
X70773092Y-55531092D01*
X70773092Y-55531092D01*
G37*
D27*
X70461965Y-54852270D03*
D18*
G36*
X71126645Y-55177539D02*
X70787234Y-55516950D01*
X69797285Y-54527001D01*
X70136696Y-54187590D01*
X71126645Y-55177539D01*
X71126645Y-55177539D01*
G37*
D27*
X70815519Y-54498716D03*
D18*
G36*
X71480199Y-54823985D02*
X71140788Y-55163396D01*
X70150839Y-54173447D01*
X70490250Y-53834036D01*
X71480199Y-54823985D01*
X71480199Y-54823985D01*
G37*
D27*
X71169072Y-54145163D03*
D18*
G36*
X71833752Y-54470432D02*
X71494341Y-54809843D01*
X70504392Y-53819894D01*
X70843803Y-53480483D01*
X71833752Y-54470432D01*
X71833752Y-54470432D01*
G37*
D27*
X71522626Y-53791610D03*
D18*
G36*
X72187306Y-54116879D02*
X71847895Y-54456290D01*
X70857946Y-53466341D01*
X71197357Y-53126930D01*
X72187306Y-54116879D01*
X72187306Y-54116879D01*
G37*
D27*
X71876179Y-53438056D03*
D18*
G36*
X72540859Y-53763325D02*
X72201448Y-54102736D01*
X71211499Y-53112787D01*
X71550910Y-52773376D01*
X72540859Y-53763325D01*
X72540859Y-53763325D01*
G37*
D27*
X71876179Y-51316736D03*
D18*
G36*
X71550910Y-51981416D02*
X71211499Y-51642005D01*
X72201448Y-50652056D01*
X72540859Y-50991467D01*
X71550910Y-51981416D01*
X71550910Y-51981416D01*
G37*
D27*
X71522626Y-50963182D03*
D18*
G36*
X71197357Y-51627862D02*
X70857946Y-51288451D01*
X71847895Y-50298502D01*
X72187306Y-50637913D01*
X71197357Y-51627862D01*
X71197357Y-51627862D01*
G37*
D27*
X71169072Y-50609629D03*
D18*
G36*
X70843803Y-51274309D02*
X70504392Y-50934898D01*
X71494341Y-49944949D01*
X71833752Y-50284360D01*
X70843803Y-51274309D01*
X70843803Y-51274309D01*
G37*
D27*
X70815519Y-50256076D03*
D18*
G36*
X70490250Y-50920756D02*
X70150839Y-50581345D01*
X71140788Y-49591396D01*
X71480199Y-49930807D01*
X70490250Y-50920756D01*
X70490250Y-50920756D01*
G37*
D27*
X70461965Y-49902522D03*
D18*
G36*
X70136696Y-50567202D02*
X69797285Y-50227791D01*
X70787234Y-49237842D01*
X71126645Y-49577253D01*
X70136696Y-50567202D01*
X70136696Y-50567202D01*
G37*
D27*
X70108412Y-49548969D03*
D18*
G36*
X69783143Y-50213649D02*
X69443732Y-49874238D01*
X70433681Y-48884289D01*
X70773092Y-49223700D01*
X69783143Y-50213649D01*
X69783143Y-50213649D01*
G37*
D27*
X69754859Y-49195415D03*
D18*
G36*
X69429590Y-49860095D02*
X69090179Y-49520684D01*
X70080128Y-48530735D01*
X70419539Y-48870146D01*
X69429590Y-49860095D01*
X69429590Y-49860095D01*
G37*
D27*
X69401305Y-48841862D03*
D18*
G36*
X69076036Y-49506542D02*
X68736625Y-49167131D01*
X69726574Y-48177182D01*
X70065985Y-48516593D01*
X69076036Y-49506542D01*
X69076036Y-49506542D01*
G37*
D27*
X67279985Y-48841862D03*
D18*
G36*
X67944665Y-49167131D02*
X67605254Y-49506542D01*
X66615305Y-48516593D01*
X66954716Y-48177182D01*
X67944665Y-49167131D01*
X67944665Y-49167131D01*
G37*
D27*
X66926431Y-49195415D03*
D18*
G36*
X67591111Y-49520684D02*
X67251700Y-49860095D01*
X66261751Y-48870146D01*
X66601162Y-48530735D01*
X67591111Y-49520684D01*
X67591111Y-49520684D01*
G37*
D27*
X66572878Y-49548969D03*
D18*
G36*
X67237558Y-49874238D02*
X66898147Y-50213649D01*
X65908198Y-49223700D01*
X66247609Y-48884289D01*
X67237558Y-49874238D01*
X67237558Y-49874238D01*
G37*
D27*
X66219325Y-49902522D03*
D18*
G36*
X66884005Y-50227791D02*
X66544594Y-50567202D01*
X65554645Y-49577253D01*
X65894056Y-49237842D01*
X66884005Y-50227791D01*
X66884005Y-50227791D01*
G37*
D27*
X65865771Y-50256076D03*
D18*
G36*
X66530451Y-50581345D02*
X66191040Y-50920756D01*
X65201091Y-49930807D01*
X65540502Y-49591396D01*
X66530451Y-50581345D01*
X66530451Y-50581345D01*
G37*
D27*
X65512218Y-50609629D03*
D18*
G36*
X66176898Y-50934898D02*
X65837487Y-51274309D01*
X64847538Y-50284360D01*
X65186949Y-49944949D01*
X66176898Y-50934898D01*
X66176898Y-50934898D01*
G37*
D27*
X65158664Y-50963182D03*
D18*
G36*
X65823344Y-51288451D02*
X65483933Y-51627862D01*
X64493984Y-50637913D01*
X64833395Y-50298502D01*
X65823344Y-51288451D01*
X65823344Y-51288451D01*
G37*
D27*
X64805111Y-51316736D03*
D18*
G36*
X65469791Y-51642005D02*
X65130380Y-51981416D01*
X64140431Y-50991467D01*
X64479842Y-50652056D01*
X65469791Y-51642005D01*
X65469791Y-51642005D01*
G37*
D28*
X65109830Y-56053947D03*
D18*
G36*
X65251251Y-56690343D02*
X64473434Y-55912526D01*
X64968409Y-55417551D01*
X65746226Y-56195368D01*
X65251251Y-56690343D01*
X65251251Y-56690343D01*
G37*
D28*
X64049170Y-57114607D03*
D18*
G36*
X64190591Y-57751003D02*
X63412774Y-56973186D01*
X63907749Y-56478211D01*
X64685566Y-57256028D01*
X64190591Y-57751003D01*
X64190591Y-57751003D01*
G37*
D28*
X69891170Y-46596170D03*
D18*
G36*
X70527566Y-46454749D02*
X69749749Y-47232566D01*
X69254774Y-46737591D01*
X70032591Y-45959774D01*
X70527566Y-46454749D01*
X70527566Y-46454749D01*
G37*
D28*
X70951830Y-47656830D03*
D18*
G36*
X71588226Y-47515409D02*
X70810409Y-48293226D01*
X70315434Y-47798251D01*
X71093251Y-47020434D01*
X71588226Y-47515409D01*
X71588226Y-47515409D01*
G37*
D29*
X83011500Y-29686500D03*
X69871500Y-29686500D03*
D30*
X75441500Y-33896500D03*
X72941500Y-33896500D03*
X77441500Y-33896500D03*
X79941500Y-33896500D03*
D28*
X66252830Y-57137170D03*
D18*
G36*
X66394251Y-57773566D02*
X65616434Y-56995749D01*
X66111409Y-56500774D01*
X66889226Y-57278591D01*
X66394251Y-57773566D01*
X66394251Y-57773566D01*
G37*
D28*
X65192170Y-58197830D03*
D18*
G36*
X65333591Y-58834226D02*
X64555774Y-58056409D01*
X65050749Y-57561434D01*
X65828566Y-58339251D01*
X65333591Y-58834226D01*
X65333591Y-58834226D01*
G37*
D28*
X62422161Y-51111674D03*
D18*
G36*
X62563582Y-51748070D02*
X61785765Y-50970253D01*
X62280740Y-50475278D01*
X63058557Y-51253095D01*
X62563582Y-51748070D01*
X62563582Y-51748070D01*
G37*
D28*
X63482821Y-50051014D03*
D18*
G36*
X63624242Y-50687410D02*
X62846425Y-49909593D01*
X63341400Y-49414618D01*
X64119217Y-50192435D01*
X63624242Y-50687410D01*
X63624242Y-50687410D01*
G37*
D17*
X61353015Y-50025558D03*
D18*
G36*
X61370693Y-49336129D02*
X62042444Y-50007880D01*
X61335337Y-50714987D01*
X60663586Y-50043236D01*
X61370693Y-49336129D01*
X61370693Y-49336129D01*
G37*
D17*
X62413675Y-48964898D03*
D18*
G36*
X62431353Y-48275469D02*
X63103104Y-48947220D01*
X62395997Y-49654327D01*
X61724246Y-48982576D01*
X62431353Y-48275469D01*
X62431353Y-48275469D01*
G37*
D31*
X61544525Y-59559475D03*
D18*
G36*
X61509170Y-58958434D02*
X62145566Y-59594830D01*
X61579880Y-60160516D01*
X60943484Y-59524120D01*
X61509170Y-58958434D01*
X61509170Y-58958434D01*
G37*
D31*
X62534475Y-58569525D03*
D18*
G36*
X62499120Y-57968484D02*
X63135516Y-58604880D01*
X62569830Y-59170566D01*
X61933434Y-58534170D01*
X62499120Y-57968484D01*
X62499120Y-57968484D01*
G37*
D32*
X67445000Y-65960200D03*
X67445000Y-61960200D03*
D33*
X84072000Y-64361500D03*
X82472000Y-64361500D03*
X84072000Y-61821500D03*
X82472000Y-61821500D03*
X84072000Y-59281500D03*
X82472000Y-59281500D03*
D34*
X59737500Y-55807500D03*
X59737500Y-52057500D03*
X59737500Y-54557500D03*
X59737500Y-53307500D03*
D35*
X53317500Y-60732500D03*
X53317500Y-47132500D03*
D36*
X52737500Y-56682500D03*
X52737500Y-51182500D03*
D25*
X74116500Y-56397500D03*
X75616500Y-56397500D03*
X69544500Y-58429500D03*
X71044500Y-58429500D03*
D19*
X83883500Y-38224500D03*
X83883500Y-36724500D03*
D37*
X51625500Y-25242500D03*
D38*
X51625500Y-22702500D03*
X54165500Y-25242500D03*
X54165500Y-22702500D03*
X56705500Y-25242500D03*
X56705500Y-22702500D03*
X59245500Y-25242500D03*
X59245500Y-22702500D03*
X61785500Y-25242500D03*
X61785500Y-22702500D03*
X61785500Y-32862500D03*
X61785500Y-35402500D03*
X59245500Y-32862500D03*
X59245500Y-35402500D03*
X56705500Y-32862500D03*
X56705500Y-35402500D03*
X54165500Y-32862500D03*
X54165500Y-35402500D03*
X51625500Y-32862500D03*
D37*
X51625500Y-35402500D03*
D39*
X76771500Y-37474500D03*
X74231500Y-37474500D03*
X71691500Y-37474500D03*
D40*
X69151500Y-37474500D03*
D41*
X80228400Y-36277800D03*
X81178400Y-36277800D03*
X82128400Y-36277800D03*
X82128400Y-38597800D03*
X81178400Y-38597800D03*
X80228400Y-38597800D03*
D25*
X76474000Y-67295600D03*
X77974000Y-67295600D03*
D42*
X74155700Y-72883600D03*
X74155700Y-71613600D03*
X74155700Y-70343600D03*
X74155700Y-69073600D03*
X79555700Y-69073600D03*
X79555700Y-70343600D03*
X79555700Y-71613600D03*
X79555700Y-72883600D03*
D25*
X77236000Y-59777200D03*
X78736000Y-59777200D03*
D42*
X74155700Y-65263600D03*
X74155700Y-63993600D03*
X74155700Y-62723600D03*
X74155700Y-61453600D03*
X79555700Y-61453600D03*
X79555700Y-62723600D03*
X79555700Y-63993600D03*
X79555700Y-65263600D03*
D43*
X77533500Y-79257500D03*
D44*
X77533500Y-83457500D03*
X72033500Y-79257500D03*
X72033500Y-83457500D03*
D32*
X71128000Y-65960200D03*
X71128000Y-61960200D03*
X71128000Y-69707200D03*
X71128000Y-73707200D03*
X67445000Y-69707200D03*
X67445000Y-73707200D03*
D45*
X57437500Y-42332500D03*
D22*
X75882500Y-99704500D03*
X75882500Y-95304500D03*
D46*
X75894500Y-118500500D03*
X77394500Y-118500500D03*
D19*
X75882500Y-91334500D03*
X75882500Y-92834500D03*
D25*
X72592500Y-91322500D03*
X74092500Y-91322500D03*
X77672500Y-91322500D03*
X79172500Y-91322500D03*
D47*
X83357500Y-130394500D03*
X83357500Y-120394500D03*
X80857500Y-130394500D03*
X80857500Y-120394500D03*
X75857500Y-125394500D03*
D48*
X75857500Y-130394500D03*
X75857500Y-120394500D03*
X75857500Y-127894500D03*
X75857500Y-122894500D03*
D49*
X80857500Y-125394500D03*
D15*
X50587500Y-124932500D03*
X50587500Y-127472500D03*
X50587500Y-130012500D03*
X50587500Y-132552500D03*
X50587500Y-122392500D03*
X50587500Y-119852500D03*
X50587500Y-117312500D03*
X55667500Y-133822500D03*
X55667500Y-131282500D03*
X55667500Y-128742500D03*
X55667500Y-126202500D03*
X55667500Y-123662500D03*
X55667500Y-121122500D03*
X55667500Y-118582500D03*
X55667500Y-116042500D03*
D12*
X57594500Y-132839500D03*
X57594500Y-131339500D03*
D50*
X60515499Y-50822977D03*
X63360300Y-39567100D03*
X77760359Y-44261041D03*
X74104500Y-53349500D03*
X69151500Y-136534500D03*
X58991500Y-131962500D03*
X59753500Y-114436500D03*
X63690500Y-60334500D03*
X72326500Y-99704500D03*
X71691500Y-90243000D03*
X62166500Y-54746500D03*
X67373500Y-59826500D03*
X66873500Y-75798500D03*
X79510000Y-67143200D03*
M02*
